%TF.GenerationSoftware,KiCad,Pcbnew,9.0.6*%
%TF.CreationDate,2025-11-18T16:34:35-08:00*%
%TF.ProjectId,schematic,73636865-6d61-4746-9963-2e6b69636164,rev?*%
%TF.SameCoordinates,Original*%
%TF.FileFunction,Copper,L4,Bot*%
%TF.FilePolarity,Positive*%
%FSLAX46Y46*%
G04 Gerber Fmt 4.6, Leading zero omitted, Abs format (unit mm)*
G04 Created by KiCad (PCBNEW 9.0.6) date 2025-11-18 16:34:35*
%MOMM*%
%LPD*%
G01*
G04 APERTURE LIST*
G04 Aperture macros list*
%AMRoundRect*
0 Rectangle with rounded corners*
0 $1 Rounding radius*
0 $2 $3 $4 $5 $6 $7 $8 $9 X,Y pos of 4 corners*
0 Add a 4 corners polygon primitive as box body*
4,1,4,$2,$3,$4,$5,$6,$7,$8,$9,$2,$3,0*
0 Add four circle primitives for the rounded corners*
1,1,$1+$1,$2,$3*
1,1,$1+$1,$4,$5*
1,1,$1+$1,$6,$7*
1,1,$1+$1,$8,$9*
0 Add four rect primitives between the rounded corners*
20,1,$1+$1,$2,$3,$4,$5,0*
20,1,$1+$1,$4,$5,$6,$7,0*
20,1,$1+$1,$6,$7,$8,$9,0*
20,1,$1+$1,$8,$9,$2,$3,0*%
G04 Aperture macros list end*
%TA.AperFunction,ComponentPad*%
%ADD10C,1.600000*%
%TD*%
%TA.AperFunction,ComponentPad*%
%ADD11RoundRect,0.250000X-0.600000X-0.725000X0.600000X-0.725000X0.600000X0.725000X-0.600000X0.725000X0*%
%TD*%
%TA.AperFunction,ComponentPad*%
%ADD12O,1.700000X1.950000*%
%TD*%
%TA.AperFunction,ComponentPad*%
%ADD13RoundRect,0.250000X0.550000X0.550000X-0.550000X0.550000X-0.550000X-0.550000X0.550000X-0.550000X0*%
%TD*%
%TA.AperFunction,ComponentPad*%
%ADD14R,1.600000X1.600000*%
%TD*%
%TA.AperFunction,ComponentPad*%
%ADD15RoundRect,0.250000X-0.650000X1.635000X-0.650000X-1.635000X0.650000X-1.635000X0.650000X1.635000X0*%
%TD*%
%TA.AperFunction,ComponentPad*%
%ADD16RoundRect,0.250000X0.650000X-1.635000X0.650000X1.635000X-0.650000X1.635000X-0.650000X-1.635000X0*%
%TD*%
%TA.AperFunction,ComponentPad*%
%ADD17R,1.700000X1.700000*%
%TD*%
%TA.AperFunction,ComponentPad*%
%ADD18C,1.700000*%
%TD*%
%TA.AperFunction,ComponentPad*%
%ADD19RoundRect,0.250000X0.600000X0.725000X-0.600000X0.725000X-0.600000X-0.725000X0.600000X-0.725000X0*%
%TD*%
%TA.AperFunction,ComponentPad*%
%ADD20RoundRect,0.250000X-0.950000X0.950000X-0.950000X-0.950000X0.950000X-0.950000X0.950000X0.950000X0*%
%TD*%
%TA.AperFunction,ComponentPad*%
%ADD21C,2.400000*%
%TD*%
%TA.AperFunction,ComponentPad*%
%ADD22RoundRect,0.250001X-0.949999X0.949999X-0.949999X-0.949999X0.949999X-0.949999X0.949999X0.949999X0*%
%TD*%
%TA.AperFunction,ViaPad*%
%ADD23C,0.600000*%
%TD*%
%TA.AperFunction,Conductor*%
%ADD24C,0.400000*%
%TD*%
%TA.AperFunction,Conductor*%
%ADD25C,0.600000*%
%TD*%
G04 APERTURE END LIST*
D10*
%TO.P,C5,1*%
%TO.N,Net-(U2-VCC)*%
X152400000Y-93472000D03*
%TO.P,C5,2*%
%TO.N,GND*%
X152400000Y-88472000D03*
%TD*%
D11*
%TO.P,J1,1,Pin_1*%
%TO.N,Net-(IN5822-K)*%
X160294000Y-57150000D03*
D12*
%TO.P,J1,2,Pin_2*%
%TO.N,VD*%
X162794000Y-57150000D03*
%TD*%
D13*
%TO.P,C4,1*%
%TO.N,VD*%
X182792380Y-55245000D03*
D10*
%TO.P,C4,2*%
%TO.N,GND*%
X180292380Y-55245000D03*
%TD*%
D14*
%TO.P,U3,1,IN+*%
%TO.N,+5V*%
X114300000Y-57150000D03*
D10*
%TO.P,U3,2,IN-*%
%TO.N,GND*%
X114300000Y-71120000D03*
%TO.P,U3,3,OUT+*%
%TO.N,Net-(Q1-D)*%
X137160000Y-57150000D03*
%TO.P,U3,4,OUT-*%
%TO.N,GND*%
X137160000Y-71120000D03*
%TO.P,U3,5,B+*%
%TO.N,+BATT*%
X137160000Y-59690000D03*
%TO.P,U3,6,B-*%
%TO.N,-BATT*%
X137160000Y-68580000D03*
%TD*%
%TO.P,R1,1*%
%TO.N,+5V*%
X156972000Y-65405000D03*
%TO.P,R1,2*%
%TO.N,GND*%
X156972000Y-73025000D03*
%TD*%
D15*
%TO.P,U1,1,5V*%
%TO.N,+5VA*%
X116205000Y-74950000D03*
%TO.P,U1,2,GND*%
%TO.N,GND*%
X118745000Y-74950000D03*
%TO.P,U1,3,3V3*%
%TO.N,unconnected-(U1-3V3-Pad3)*%
X121285000Y-74950000D03*
%TO.P,U1,4,D4*%
%TO.N,unconnected-(U1-D4-Pad4)*%
X123825000Y-74950000D03*
%TO.P,U1,5,D3*%
%TO.N,unconnected-(U1-D3-Pad5)*%
X126365000Y-74950000D03*
%TO.P,U1,6,D2*%
%TO.N,unconnected-(U1-D2-Pad6)*%
X128905000Y-74950000D03*
%TO.P,U1,7,D1*%
%TO.N,Net-(U1-D1)*%
X131445000Y-74950000D03*
%TO.P,U1,8,D0*%
%TO.N,Net-(U1-D0)*%
X133985000Y-74950000D03*
D16*
%TO.P,U1,9,D5*%
%TO.N,unconnected-(U1-D5-Pad9)*%
X116205000Y-91420000D03*
%TO.P,U1,10,D6*%
%TO.N,unconnected-(U1-D6-Pad10)*%
X118745000Y-91420000D03*
%TO.P,U1,11,D7*%
%TO.N,unconnected-(U1-D7-Pad11)*%
X121285000Y-91420000D03*
%TO.P,U1,12,D8*%
%TO.N,unconnected-(U1-D8-Pad12)*%
X123825000Y-91420000D03*
%TO.P,U1,13,D9*%
%TO.N,unconnected-(U1-D9-Pad13)*%
X126365000Y-91420000D03*
%TO.P,U1,14,D10*%
%TO.N,unconnected-(U1-D10-Pad14)*%
X128905000Y-91420000D03*
%TO.P,U1,15,D20*%
%TO.N,unconnected-(U1-D20-Pad15)*%
X131445000Y-91420000D03*
%TO.P,U1,16,D21*%
%TO.N,unconnected-(U1-D21-Pad16)*%
X133985000Y-91420000D03*
%TD*%
D11*
%TO.P,J2,1,Pin_1*%
%TO.N,+BATT*%
X142915000Y-57150000D03*
D12*
%TO.P,J2,2,Pin_2*%
%TO.N,-BATT*%
X145415000Y-57150000D03*
%TD*%
D17*
%TO.P,U5,1,GND*%
%TO.N,GND*%
X164084000Y-92456000D03*
D18*
%TO.P,U5,2,DIN*%
%TO.N,Net-(U5-DIN)*%
X161544000Y-92456000D03*
%TO.P,U5,3,VDD*%
%TO.N,+5VA*%
X159004000Y-92456000D03*
%TD*%
D13*
%TO.P,C1,1*%
%TO.N,+5VA*%
X184110000Y-93345000D03*
D10*
%TO.P,C1,2*%
%TO.N,GND*%
X181610000Y-93345000D03*
%TD*%
D17*
%TO.P,U6,1,ADJ*%
%TO.N,GND*%
X146050000Y-84455000D03*
D18*
%TO.P,U6,2,VO*%
%TO.N,Net-(U2-VCC)*%
X143510000Y-84455000D03*
%TO.P,U6,3,VI*%
%TO.N,+5VA*%
X140970000Y-84455000D03*
%TD*%
D10*
%TO.P,C3,1*%
%TO.N,VD*%
X188595000Y-61675000D03*
%TO.P,C3,2*%
%TO.N,GND*%
X188595000Y-66675000D03*
%TD*%
%TO.P,R2,1*%
%TO.N,Net-(U1-D1)*%
X164338000Y-79756000D03*
%TO.P,R2,2*%
%TO.N,Net-(U5-DIN)*%
X164338000Y-87376000D03*
%TD*%
%TO.P,C6,1*%
%TO.N,+5VA*%
X159258000Y-87296000D03*
%TO.P,C6,2*%
%TO.N,GND*%
X159258000Y-82296000D03*
%TD*%
%TO.P,C2,1*%
%TO.N,+5VA*%
X188595000Y-85725000D03*
%TO.P,C2,2*%
%TO.N,GND*%
X188595000Y-90725000D03*
%TD*%
D19*
%TO.P,U2,1,VCC*%
%TO.N,Net-(U2-VCC)*%
X146685000Y-90885000D03*
D12*
%TO.P,U2,2,GND*%
%TO.N,GND*%
X144185000Y-90885000D03*
%TO.P,U2,3,OUT*%
%TO.N,Net-(U1-D0)*%
X141685000Y-90885000D03*
%TD*%
D20*
%TO.P,U4,1,IN+*%
%TO.N,VD*%
X184785000Y-61595000D03*
D21*
%TO.P,U4,2,IN-*%
%TO.N,GND*%
X170815000Y-61595000D03*
%TO.P,U4,3,OUT+*%
%TO.N,+5VA*%
X184785000Y-86995000D03*
%TO.P,U4,4,OUT-*%
%TO.N,GND*%
X170815000Y-86995000D03*
%TD*%
D22*
%TO.P,IN5822,1,K*%
%TO.N,Net-(IN5822-K)*%
X162560000Y-64008000D03*
D21*
%TO.P,IN5822,2,A*%
%TO.N,+5V*%
X162560000Y-76708000D03*
%TD*%
D23*
%TO.N,Net-(U1-D1)*%
X144145000Y-80010000D03*
%TO.N,-BATT*%
X139700000Y-68580000D03*
%TD*%
D24*
%TO.N,Net-(U1-D1)*%
X164084000Y-80010000D02*
X164338000Y-79756000D01*
X144145000Y-80010000D02*
X164084000Y-80010000D01*
%TO.N,Net-(U1-D0)*%
X133350000Y-76200000D02*
X133985000Y-75565000D01*
X133350000Y-82550000D02*
X133350000Y-76200000D01*
X141685000Y-90885000D02*
X133350000Y-82550000D01*
D25*
%TO.N,-BATT*%
X139700000Y-62865000D02*
X145415000Y-57150000D01*
X139700000Y-68580000D02*
X139700000Y-62865000D01*
%TD*%
%TA.AperFunction,Conductor*%
%TO.N,GND*%
G36*
X190902539Y-51869185D02*
G01*
X190948294Y-51921989D01*
X190959500Y-51973500D01*
X190959500Y-96359500D01*
X190939815Y-96426539D01*
X190887011Y-96472294D01*
X190835500Y-96483500D01*
X112084500Y-96483500D01*
X112017461Y-96463815D01*
X111971706Y-96411011D01*
X111960500Y-96359500D01*
X111960500Y-94508713D01*
X112441500Y-94508713D01*
X112441500Y-94721287D01*
X112449611Y-94772500D01*
X112474753Y-94931239D01*
X112540444Y-95133414D01*
X112636951Y-95322820D01*
X112761890Y-95494786D01*
X112912213Y-95645109D01*
X113084179Y-95770048D01*
X113084181Y-95770049D01*
X113084184Y-95770051D01*
X113273588Y-95866557D01*
X113475757Y-95932246D01*
X113685713Y-95965500D01*
X113685714Y-95965500D01*
X113898286Y-95965500D01*
X113898287Y-95965500D01*
X114108243Y-95932246D01*
X114310412Y-95866557D01*
X114499816Y-95770051D01*
X114541788Y-95739557D01*
X114671786Y-95645109D01*
X114671788Y-95645106D01*
X114671792Y-95645104D01*
X114822104Y-95494792D01*
X114822106Y-95494788D01*
X114822109Y-95494786D01*
X114947048Y-95322820D01*
X114947047Y-95322820D01*
X114947051Y-95322816D01*
X115043557Y-95133412D01*
X115109246Y-94931243D01*
X115142500Y-94721287D01*
X115142500Y-94508713D01*
X115109246Y-94298757D01*
X115043557Y-94096588D01*
X114947051Y-93907184D01*
X114947049Y-93907181D01*
X114947048Y-93907179D01*
X114822109Y-93735213D01*
X114671786Y-93584890D01*
X114499820Y-93459951D01*
X114310414Y-93363444D01*
X114310413Y-93363443D01*
X114310412Y-93363443D01*
X114108243Y-93297754D01*
X114108241Y-93297753D01*
X114108240Y-93297753D01*
X113946957Y-93272208D01*
X113898287Y-93264500D01*
X113685713Y-93264500D01*
X113637042Y-93272208D01*
X113475760Y-93297753D01*
X113273585Y-93363444D01*
X113084179Y-93459951D01*
X112912213Y-93584890D01*
X112761890Y-93735213D01*
X112636951Y-93907179D01*
X112540444Y-94096585D01*
X112474753Y-94298760D01*
X112461615Y-94381713D01*
X112441500Y-94508713D01*
X111960500Y-94508713D01*
X111960500Y-89734983D01*
X114804500Y-89734983D01*
X114804500Y-93105001D01*
X114804501Y-93105018D01*
X114815000Y-93207796D01*
X114815001Y-93207799D01*
X114870185Y-93374331D01*
X114870187Y-93374336D01*
X114884574Y-93397661D01*
X114962288Y-93523656D01*
X115086344Y-93647712D01*
X115235666Y-93739814D01*
X115402203Y-93794999D01*
X115504991Y-93805500D01*
X116905008Y-93805499D01*
X117007797Y-93794999D01*
X117174334Y-93739814D01*
X117323656Y-93647712D01*
X117387319Y-93584049D01*
X117448642Y-93550564D01*
X117518334Y-93555548D01*
X117562681Y-93584049D01*
X117626344Y-93647712D01*
X117775666Y-93739814D01*
X117942203Y-93794999D01*
X118044991Y-93805500D01*
X119445008Y-93805499D01*
X119547797Y-93794999D01*
X119714334Y-93739814D01*
X119863656Y-93647712D01*
X119927319Y-93584049D01*
X119988642Y-93550564D01*
X120058334Y-93555548D01*
X120102681Y-93584049D01*
X120166344Y-93647712D01*
X120315666Y-93739814D01*
X120482203Y-93794999D01*
X120584991Y-93805500D01*
X121985008Y-93805499D01*
X122087797Y-93794999D01*
X122254334Y-93739814D01*
X122403656Y-93647712D01*
X122467319Y-93584049D01*
X122528642Y-93550564D01*
X122598334Y-93555548D01*
X122642681Y-93584049D01*
X122706344Y-93647712D01*
X122855666Y-93739814D01*
X123022203Y-93794999D01*
X123124991Y-93805500D01*
X124525008Y-93805499D01*
X124627797Y-93794999D01*
X124794334Y-93739814D01*
X124943656Y-93647712D01*
X125007319Y-93584049D01*
X125068642Y-93550564D01*
X125138334Y-93555548D01*
X125182681Y-93584049D01*
X125246344Y-93647712D01*
X125395666Y-93739814D01*
X125562203Y-93794999D01*
X125664991Y-93805500D01*
X127065008Y-93805499D01*
X127167797Y-93794999D01*
X127334334Y-93739814D01*
X127483656Y-93647712D01*
X127547319Y-93584049D01*
X127608642Y-93550564D01*
X127678334Y-93555548D01*
X127722681Y-93584049D01*
X127786344Y-93647712D01*
X127935666Y-93739814D01*
X128102203Y-93794999D01*
X128204991Y-93805500D01*
X129605008Y-93805499D01*
X129707797Y-93794999D01*
X129874334Y-93739814D01*
X130023656Y-93647712D01*
X130087319Y-93584049D01*
X130148642Y-93550564D01*
X130218334Y-93555548D01*
X130262681Y-93584049D01*
X130326344Y-93647712D01*
X130475666Y-93739814D01*
X130642203Y-93794999D01*
X130744991Y-93805500D01*
X132145008Y-93805499D01*
X132247797Y-93794999D01*
X132414334Y-93739814D01*
X132563656Y-93647712D01*
X132627319Y-93584049D01*
X132688642Y-93550564D01*
X132758334Y-93555548D01*
X132802681Y-93584049D01*
X132866344Y-93647712D01*
X133015666Y-93739814D01*
X133182203Y-93794999D01*
X133284991Y-93805500D01*
X134685008Y-93805499D01*
X134787797Y-93794999D01*
X134954334Y-93739814D01*
X135103656Y-93647712D01*
X135227712Y-93523656D01*
X135319814Y-93374334D01*
X135321367Y-93369648D01*
X151099500Y-93369648D01*
X151099500Y-93574351D01*
X151131522Y-93776534D01*
X151194781Y-93971223D01*
X151244065Y-94067946D01*
X151287177Y-94152559D01*
X151287715Y-94153613D01*
X151408028Y-94319213D01*
X151552786Y-94463971D01*
X151670860Y-94549755D01*
X151718390Y-94584287D01*
X151817916Y-94634998D01*
X151900776Y-94677218D01*
X151900778Y-94677218D01*
X151900781Y-94677220D01*
X152005137Y-94711127D01*
X152095465Y-94740477D01*
X152196557Y-94756488D01*
X152297648Y-94772500D01*
X152297649Y-94772500D01*
X152502351Y-94772500D01*
X152502352Y-94772500D01*
X152704534Y-94740477D01*
X152899219Y-94677220D01*
X153081610Y-94584287D01*
X153185630Y-94508713D01*
X153247213Y-94463971D01*
X153247215Y-94463968D01*
X153247219Y-94463966D01*
X153391966Y-94319219D01*
X153512287Y-94153610D01*
X153605220Y-93971219D01*
X153668477Y-93776534D01*
X153700500Y-93574352D01*
X153700500Y-93369648D01*
X153668477Y-93167466D01*
X153667292Y-93163820D01*
X153622161Y-93024920D01*
X153605220Y-92972781D01*
X153605218Y-92972778D01*
X153605218Y-92972776D01*
X153540605Y-92845968D01*
X153512287Y-92790390D01*
X153450975Y-92706000D01*
X153391971Y-92624786D01*
X153247217Y-92480032D01*
X153247212Y-92480028D01*
X153199242Y-92445175D01*
X153199219Y-92445160D01*
X153081609Y-92359712D01*
X153061985Y-92349713D01*
X157653500Y-92349713D01*
X157653500Y-92562286D01*
X157682438Y-92744998D01*
X157686754Y-92772243D01*
X157751911Y-92972776D01*
X157752444Y-92974414D01*
X157848951Y-93163820D01*
X157973890Y-93335786D01*
X158124213Y-93486109D01*
X158296179Y-93611048D01*
X158296181Y-93611049D01*
X158296184Y-93611051D01*
X158485588Y-93707557D01*
X158687757Y-93773246D01*
X158897713Y-93806500D01*
X158897714Y-93806500D01*
X159110286Y-93806500D01*
X159110287Y-93806500D01*
X159320243Y-93773246D01*
X159522412Y-93707557D01*
X159711816Y-93611051D01*
X159798478Y-93548088D01*
X159883786Y-93486109D01*
X159883788Y-93486106D01*
X159883792Y-93486104D01*
X160034104Y-93335792D01*
X160034106Y-93335788D01*
X160034109Y-93335786D01*
X160159048Y-93163820D01*
X160159047Y-93163820D01*
X160159051Y-93163816D01*
X160163514Y-93155054D01*
X160211488Y-93104259D01*
X160279308Y-93087463D01*
X160345444Y-93109999D01*
X160384486Y-93155056D01*
X160388951Y-93163820D01*
X160513890Y-93335786D01*
X160664213Y-93486109D01*
X160836179Y-93611048D01*
X160836181Y-93611049D01*
X160836184Y-93611051D01*
X161025588Y-93707557D01*
X161227757Y-93773246D01*
X161437713Y-93806500D01*
X161437714Y-93806500D01*
X161650286Y-93806500D01*
X161650287Y-93806500D01*
X161860243Y-93773246D01*
X162062412Y-93707557D01*
X162251816Y-93611051D01*
X162338478Y-93548088D01*
X162423784Y-93486110D01*
X162423784Y-93486109D01*
X162423792Y-93486104D01*
X162537717Y-93372178D01*
X162599036Y-93338696D01*
X162668728Y-93343680D01*
X162724662Y-93385551D01*
X162741577Y-93416528D01*
X162790646Y-93548088D01*
X162790649Y-93548093D01*
X162876809Y-93663187D01*
X162876812Y-93663190D01*
X162991906Y-93749350D01*
X162991913Y-93749354D01*
X163126620Y-93799596D01*
X163126627Y-93799598D01*
X163186155Y-93805999D01*
X163186172Y-93806000D01*
X163834000Y-93806000D01*
X163834000Y-92889012D01*
X163891007Y-92921925D01*
X164018174Y-92956000D01*
X164149826Y-92956000D01*
X164276993Y-92921925D01*
X164334000Y-92889012D01*
X164334000Y-93806000D01*
X164981828Y-93806000D01*
X164981844Y-93805999D01*
X165041372Y-93799598D01*
X165041379Y-93799596D01*
X165176086Y-93749354D01*
X165176093Y-93749350D01*
X165291187Y-93663190D01*
X165291190Y-93663187D01*
X165377350Y-93548093D01*
X165377354Y-93548086D01*
X165427596Y-93413379D01*
X165427598Y-93413372D01*
X165433999Y-93353844D01*
X165434000Y-93353827D01*
X165434000Y-93242682D01*
X180310000Y-93242682D01*
X180310000Y-93447317D01*
X180342009Y-93649417D01*
X180405244Y-93844031D01*
X180498141Y-94026350D01*
X180498147Y-94026359D01*
X180530523Y-94070921D01*
X180530524Y-94070922D01*
X181210000Y-93391446D01*
X181210000Y-93397661D01*
X181237259Y-93499394D01*
X181289920Y-93590606D01*
X181364394Y-93665080D01*
X181455606Y-93717741D01*
X181557339Y-93745000D01*
X181563553Y-93745000D01*
X180884076Y-94424474D01*
X180928650Y-94456859D01*
X181110968Y-94549755D01*
X181305582Y-94612990D01*
X181507683Y-94645000D01*
X181712317Y-94645000D01*
X181914417Y-94612990D01*
X182109031Y-94549755D01*
X182291349Y-94456859D01*
X182335921Y-94424474D01*
X181656447Y-93745000D01*
X181662661Y-93745000D01*
X181764394Y-93717741D01*
X181855606Y-93665080D01*
X181930080Y-93590606D01*
X181982741Y-93499394D01*
X182010000Y-93397661D01*
X182010000Y-93391447D01*
X182689473Y-94070921D01*
X182727280Y-94067946D01*
X182795658Y-94082310D01*
X182845415Y-94131361D01*
X182854714Y-94152556D01*
X182861078Y-94171760D01*
X182875186Y-94214333D01*
X182875187Y-94214336D01*
X182910069Y-94270888D01*
X182967288Y-94363656D01*
X183091344Y-94487712D01*
X183240666Y-94579814D01*
X183407203Y-94634999D01*
X183509991Y-94645500D01*
X184710008Y-94645499D01*
X184812797Y-94634999D01*
X184979334Y-94579814D01*
X185128656Y-94487712D01*
X185234655Y-94381713D01*
X187625500Y-94381713D01*
X187625500Y-94594286D01*
X187658753Y-94804239D01*
X187724444Y-95006414D01*
X187820951Y-95195820D01*
X187945890Y-95367786D01*
X188096213Y-95518109D01*
X188268179Y-95643048D01*
X188268181Y-95643049D01*
X188268184Y-95643051D01*
X188457588Y-95739557D01*
X188659757Y-95805246D01*
X188869713Y-95838500D01*
X188869714Y-95838500D01*
X189082286Y-95838500D01*
X189082287Y-95838500D01*
X189292243Y-95805246D01*
X189494412Y-95739557D01*
X189683816Y-95643051D01*
X189705789Y-95627086D01*
X189855786Y-95518109D01*
X189855788Y-95518106D01*
X189855792Y-95518104D01*
X190006104Y-95367792D01*
X190006106Y-95367788D01*
X190006109Y-95367786D01*
X190131048Y-95195820D01*
X190131047Y-95195820D01*
X190131051Y-95195816D01*
X190227557Y-95006412D01*
X190293246Y-94804243D01*
X190326500Y-94594287D01*
X190326500Y-94381713D01*
X190293246Y-94171757D01*
X190227557Y-93969588D01*
X190131051Y-93780184D01*
X190131049Y-93780181D01*
X190131048Y-93780179D01*
X190006109Y-93608213D01*
X189855786Y-93457890D01*
X189683820Y-93332951D01*
X189494414Y-93236444D01*
X189494413Y-93236443D01*
X189494412Y-93236443D01*
X189292243Y-93170754D01*
X189292241Y-93170753D01*
X189292240Y-93170753D01*
X189130957Y-93145208D01*
X189082287Y-93137500D01*
X188869713Y-93137500D01*
X188821042Y-93145208D01*
X188659760Y-93170753D01*
X188457585Y-93236444D01*
X188268179Y-93332951D01*
X188096213Y-93457890D01*
X187945890Y-93608213D01*
X187820951Y-93780179D01*
X187724444Y-93969585D01*
X187658753Y-94171760D01*
X187625500Y-94381713D01*
X185234655Y-94381713D01*
X185252712Y-94363656D01*
X185344814Y-94214334D01*
X185399999Y-94047797D01*
X185410500Y-93945009D01*
X185410499Y-92744992D01*
X185399999Y-92642203D01*
X185344814Y-92475666D01*
X185252712Y-92326344D01*
X185128656Y-92202288D01*
X184979334Y-92110186D01*
X184812797Y-92055001D01*
X184812795Y-92055000D01*
X184710010Y-92044500D01*
X183509998Y-92044500D01*
X183509981Y-92044501D01*
X183407203Y-92055000D01*
X183407200Y-92055001D01*
X183240668Y-92110185D01*
X183240663Y-92110187D01*
X183091342Y-92202289D01*
X182967289Y-92326342D01*
X182875187Y-92475663D01*
X182875185Y-92475668D01*
X182854717Y-92537438D01*
X182814944Y-92594883D01*
X182750428Y-92621706D01*
X182727283Y-92622052D01*
X182689474Y-92619076D01*
X182010000Y-93298551D01*
X182010000Y-93292339D01*
X181982741Y-93190606D01*
X181930080Y-93099394D01*
X181855606Y-93024920D01*
X181764394Y-92972259D01*
X181662661Y-92945000D01*
X181656446Y-92945000D01*
X182335922Y-92265524D01*
X182335921Y-92265523D01*
X182291359Y-92233147D01*
X182291350Y-92233141D01*
X182109031Y-92140244D01*
X181914417Y-92077009D01*
X181712317Y-92045000D01*
X181507683Y-92045000D01*
X181305582Y-92077009D01*
X181110968Y-92140244D01*
X180928644Y-92233143D01*
X180884077Y-92265523D01*
X180884077Y-92265524D01*
X181563554Y-92945000D01*
X181557339Y-92945000D01*
X181455606Y-92972259D01*
X181364394Y-93024920D01*
X181289920Y-93099394D01*
X181237259Y-93190606D01*
X181210000Y-93292339D01*
X181210000Y-93298553D01*
X180530524Y-92619077D01*
X180530523Y-92619077D01*
X180498143Y-92663644D01*
X180405244Y-92845968D01*
X180342009Y-93040582D01*
X180310000Y-93242682D01*
X165434000Y-93242682D01*
X165434000Y-92706000D01*
X164517012Y-92706000D01*
X164549925Y-92648993D01*
X164584000Y-92521826D01*
X164584000Y-92390174D01*
X164549925Y-92263007D01*
X164517012Y-92206000D01*
X165434000Y-92206000D01*
X165434000Y-91558172D01*
X165433999Y-91558155D01*
X165427598Y-91498627D01*
X165427596Y-91498620D01*
X165377354Y-91363913D01*
X165377350Y-91363906D01*
X165291190Y-91248812D01*
X165291187Y-91248809D01*
X165176093Y-91162649D01*
X165176086Y-91162645D01*
X165041379Y-91112403D01*
X165041372Y-91112401D01*
X164981844Y-91106000D01*
X164334000Y-91106000D01*
X164334000Y-92022988D01*
X164276993Y-91990075D01*
X164149826Y-91956000D01*
X164018174Y-91956000D01*
X163891007Y-91990075D01*
X163834000Y-92022988D01*
X163834000Y-91106000D01*
X163186155Y-91106000D01*
X163126627Y-91112401D01*
X163126620Y-91112403D01*
X162991913Y-91162645D01*
X162991906Y-91162649D01*
X162876812Y-91248809D01*
X162876809Y-91248812D01*
X162790649Y-91363906D01*
X162790646Y-91363912D01*
X162741577Y-91495471D01*
X162699705Y-91551404D01*
X162634241Y-91575821D01*
X162565968Y-91560969D01*
X162537714Y-91539818D01*
X162423786Y-91425890D01*
X162251820Y-91300951D01*
X162062414Y-91204444D01*
X162062413Y-91204443D01*
X162062412Y-91204443D01*
X161860243Y-91138754D01*
X161860241Y-91138753D01*
X161860240Y-91138753D01*
X161698957Y-91113208D01*
X161650287Y-91105500D01*
X161437713Y-91105500D01*
X161389042Y-91113208D01*
X161227760Y-91138753D01*
X161025585Y-91204444D01*
X160836179Y-91300951D01*
X160664213Y-91425890D01*
X160513890Y-91576213D01*
X160388949Y-91748182D01*
X160384484Y-91756946D01*
X160336509Y-91807742D01*
X160268688Y-91824536D01*
X160202553Y-91801998D01*
X160163516Y-91756946D01*
X160159050Y-91748182D01*
X160034109Y-91576213D01*
X159883786Y-91425890D01*
X159711820Y-91300951D01*
X159522414Y-91204444D01*
X159522413Y-91204443D01*
X159522412Y-91204443D01*
X159320243Y-91138754D01*
X159320241Y-91138753D01*
X159320240Y-91138753D01*
X159158957Y-91113208D01*
X159110287Y-91105500D01*
X158897713Y-91105500D01*
X158849042Y-91113208D01*
X158687760Y-91138753D01*
X158485585Y-91204444D01*
X158296179Y-91300951D01*
X158124213Y-91425890D01*
X157973890Y-91576213D01*
X157848951Y-91748179D01*
X157752444Y-91937585D01*
X157686753Y-92139760D01*
X157653500Y-92349713D01*
X153061985Y-92349713D01*
X152899223Y-92266781D01*
X152704534Y-92203522D01*
X152529995Y-92175878D01*
X152502352Y-92171500D01*
X152297648Y-92171500D01*
X152273329Y-92175351D01*
X152095465Y-92203522D01*
X151900776Y-92266781D01*
X151718386Y-92359715D01*
X151552786Y-92480028D01*
X151408028Y-92624786D01*
X151287715Y-92790386D01*
X151194781Y-92972776D01*
X151131522Y-93167465D01*
X151099500Y-93369648D01*
X135321367Y-93369648D01*
X135374999Y-93207797D01*
X135385500Y-93105009D01*
X135385499Y-89734992D01*
X135384978Y-89729896D01*
X135374999Y-89632203D01*
X135374998Y-89632200D01*
X135366110Y-89605379D01*
X135319814Y-89465666D01*
X135227712Y-89316344D01*
X135103656Y-89192288D01*
X134954334Y-89100186D01*
X134787797Y-89045001D01*
X134787795Y-89045000D01*
X134685010Y-89034500D01*
X133284998Y-89034500D01*
X133284981Y-89034501D01*
X133182203Y-89045000D01*
X133182200Y-89045001D01*
X133015668Y-89100185D01*
X133015663Y-89100187D01*
X132866342Y-89192289D01*
X132802681Y-89255951D01*
X132741358Y-89289436D01*
X132671666Y-89284452D01*
X132627319Y-89255951D01*
X132563657Y-89192289D01*
X132563656Y-89192288D01*
X132414334Y-89100186D01*
X132247797Y-89045001D01*
X132247795Y-89045000D01*
X132145010Y-89034500D01*
X130744998Y-89034500D01*
X130744981Y-89034501D01*
X130642203Y-89045000D01*
X130642200Y-89045001D01*
X130475668Y-89100185D01*
X130475663Y-89100187D01*
X130326342Y-89192289D01*
X130262681Y-89255951D01*
X130201358Y-89289436D01*
X130131666Y-89284452D01*
X130087319Y-89255951D01*
X130023657Y-89192289D01*
X130023656Y-89192288D01*
X129874334Y-89100186D01*
X129707797Y-89045001D01*
X129707795Y-89045000D01*
X129605010Y-89034500D01*
X128204998Y-89034500D01*
X128204981Y-89034501D01*
X128102203Y-89045000D01*
X128102200Y-89045001D01*
X127935668Y-89100185D01*
X127935663Y-89100187D01*
X127786342Y-89192289D01*
X127722681Y-89255951D01*
X127661358Y-89289436D01*
X127591666Y-89284452D01*
X127547319Y-89255951D01*
X127483657Y-89192289D01*
X127483656Y-89192288D01*
X127334334Y-89100186D01*
X127167797Y-89045001D01*
X127167795Y-89045000D01*
X127065010Y-89034500D01*
X125664998Y-89034500D01*
X125664981Y-89034501D01*
X125562203Y-89045000D01*
X125562200Y-89045001D01*
X125395668Y-89100185D01*
X125395663Y-89100187D01*
X125246342Y-89192289D01*
X125182681Y-89255951D01*
X125121358Y-89289436D01*
X125051666Y-89284452D01*
X125007319Y-89255951D01*
X124943657Y-89192289D01*
X124943656Y-89192288D01*
X124794334Y-89100186D01*
X124627797Y-89045001D01*
X124627795Y-89045000D01*
X124525010Y-89034500D01*
X123124998Y-89034500D01*
X123124981Y-89034501D01*
X123022203Y-89045000D01*
X123022200Y-89045001D01*
X122855668Y-89100185D01*
X122855663Y-89100187D01*
X122706342Y-89192289D01*
X122642681Y-89255951D01*
X122581358Y-89289436D01*
X122511666Y-89284452D01*
X122467319Y-89255951D01*
X122403657Y-89192289D01*
X122403656Y-89192288D01*
X122254334Y-89100186D01*
X122087797Y-89045001D01*
X122087795Y-89045000D01*
X121985010Y-89034500D01*
X120584998Y-89034500D01*
X120584981Y-89034501D01*
X120482203Y-89045000D01*
X120482200Y-89045001D01*
X120315668Y-89100185D01*
X120315663Y-89100187D01*
X120166342Y-89192289D01*
X120102681Y-89255951D01*
X120041358Y-89289436D01*
X119971666Y-89284452D01*
X119927319Y-89255951D01*
X119863657Y-89192289D01*
X119863656Y-89192288D01*
X119714334Y-89100186D01*
X119547797Y-89045001D01*
X119547795Y-89045000D01*
X119445010Y-89034500D01*
X118044998Y-89034500D01*
X118044981Y-89034501D01*
X117942203Y-89045000D01*
X117942200Y-89045001D01*
X117775668Y-89100185D01*
X117775663Y-89100187D01*
X117626342Y-89192289D01*
X117562681Y-89255951D01*
X117501358Y-89289436D01*
X117431666Y-89284452D01*
X117387319Y-89255951D01*
X117323657Y-89192289D01*
X117323656Y-89192288D01*
X117174334Y-89100186D01*
X117007797Y-89045001D01*
X117007795Y-89045000D01*
X116905010Y-89034500D01*
X115504998Y-89034500D01*
X115504981Y-89034501D01*
X115402203Y-89045000D01*
X115402200Y-89045001D01*
X115235668Y-89100185D01*
X115235663Y-89100187D01*
X115086342Y-89192289D01*
X114962289Y-89316342D01*
X114870187Y-89465663D01*
X114870185Y-89465668D01*
X114845433Y-89540366D01*
X114815001Y-89632203D01*
X114815001Y-89632204D01*
X114815000Y-89632204D01*
X114804500Y-89734983D01*
X111960500Y-89734983D01*
X111960500Y-73264983D01*
X114804500Y-73264983D01*
X114804500Y-76635001D01*
X114804501Y-76635018D01*
X114815000Y-76737796D01*
X114815001Y-76737799D01*
X114842058Y-76819450D01*
X114870186Y-76904334D01*
X114962288Y-77053656D01*
X115086344Y-77177712D01*
X115235666Y-77269814D01*
X115402203Y-77324999D01*
X115504991Y-77335500D01*
X116905008Y-77335499D01*
X117007797Y-77324999D01*
X117174334Y-77269814D01*
X117323656Y-77177712D01*
X117387675Y-77113692D01*
X117448994Y-77080210D01*
X117518686Y-77085194D01*
X117563034Y-77113695D01*
X117626654Y-77177315D01*
X117775875Y-77269356D01*
X117775880Y-77269358D01*
X117942302Y-77324505D01*
X117942309Y-77324506D01*
X118045019Y-77334999D01*
X118494999Y-77334999D01*
X118495000Y-77334998D01*
X118495000Y-75880686D01*
X118499394Y-75885080D01*
X118590606Y-75937741D01*
X118692339Y-75965000D01*
X118797661Y-75965000D01*
X118899394Y-75937741D01*
X118990606Y-75885080D01*
X118995000Y-75880686D01*
X118995000Y-77334999D01*
X119444972Y-77334999D01*
X119444986Y-77334998D01*
X119547697Y-77324505D01*
X119714119Y-77269358D01*
X119714124Y-77269356D01*
X119863342Y-77177317D01*
X119926964Y-77113695D01*
X119988287Y-77080210D01*
X120057979Y-77085194D01*
X120102327Y-77113695D01*
X120166344Y-77177712D01*
X120315666Y-77269814D01*
X120482203Y-77324999D01*
X120584991Y-77335500D01*
X121985008Y-77335499D01*
X122087797Y-77324999D01*
X122254334Y-77269814D01*
X122403656Y-77177712D01*
X122467319Y-77114049D01*
X122528642Y-77080564D01*
X122598334Y-77085548D01*
X122642681Y-77114049D01*
X122706344Y-77177712D01*
X122855666Y-77269814D01*
X123022203Y-77324999D01*
X123124991Y-77335500D01*
X124525008Y-77335499D01*
X124627797Y-77324999D01*
X124794334Y-77269814D01*
X124943656Y-77177712D01*
X125007319Y-77114049D01*
X125068642Y-77080564D01*
X125138334Y-77085548D01*
X125182681Y-77114049D01*
X125246344Y-77177712D01*
X125395666Y-77269814D01*
X125562203Y-77324999D01*
X125664991Y-77335500D01*
X127065008Y-77335499D01*
X127167797Y-77324999D01*
X127334334Y-77269814D01*
X127483656Y-77177712D01*
X127547319Y-77114049D01*
X127608642Y-77080564D01*
X127678334Y-77085548D01*
X127722681Y-77114049D01*
X127786344Y-77177712D01*
X127935666Y-77269814D01*
X128102203Y-77324999D01*
X128204991Y-77335500D01*
X129605008Y-77335499D01*
X129707797Y-77324999D01*
X129874334Y-77269814D01*
X130023656Y-77177712D01*
X130087319Y-77114049D01*
X130148642Y-77080564D01*
X130218334Y-77085548D01*
X130262681Y-77114049D01*
X130326344Y-77177712D01*
X130475666Y-77269814D01*
X130642203Y-77324999D01*
X130744991Y-77335500D01*
X132145008Y-77335499D01*
X132247797Y-77324999D01*
X132414334Y-77269814D01*
X132460404Y-77241397D01*
X132527796Y-77222958D01*
X132594459Y-77243881D01*
X132639229Y-77297523D01*
X132649500Y-77346937D01*
X132649500Y-82481006D01*
X132649500Y-82618994D01*
X132649500Y-82618996D01*
X132649499Y-82618996D01*
X132676418Y-82754322D01*
X132676421Y-82754332D01*
X132729222Y-82881807D01*
X132805887Y-82996545D01*
X132805888Y-82996546D01*
X140307401Y-90498058D01*
X140340886Y-90559381D01*
X140342193Y-90605137D01*
X140334500Y-90653707D01*
X140334500Y-90653713D01*
X140334500Y-91116287D01*
X140341842Y-91162645D01*
X140363747Y-91300949D01*
X140367754Y-91326243D01*
X140423765Y-91498627D01*
X140433444Y-91528414D01*
X140529951Y-91717820D01*
X140654890Y-91889786D01*
X140805213Y-92040109D01*
X140977179Y-92165048D01*
X140977181Y-92165049D01*
X140977184Y-92165051D01*
X141166588Y-92261557D01*
X141368757Y-92327246D01*
X141578713Y-92360500D01*
X141578714Y-92360500D01*
X141791286Y-92360500D01*
X141791287Y-92360500D01*
X142001243Y-92327246D01*
X142203412Y-92261557D01*
X142392816Y-92165051D01*
X142427626Y-92139760D01*
X142564786Y-92040109D01*
X142564788Y-92040106D01*
X142564792Y-92040104D01*
X142715104Y-91889792D01*
X142834991Y-91724779D01*
X142890320Y-91682115D01*
X142959933Y-91676136D01*
X143021729Y-91708741D01*
X143035627Y-91724781D01*
X143155272Y-91889459D01*
X143155276Y-91889464D01*
X143305535Y-92039723D01*
X143305540Y-92039727D01*
X143477442Y-92164620D01*
X143666782Y-92261095D01*
X143868871Y-92326757D01*
X143935000Y-92337231D01*
X143935000Y-91289145D01*
X144001657Y-91327630D01*
X144122465Y-91360000D01*
X144247535Y-91360000D01*
X144368343Y-91327630D01*
X144435000Y-91289145D01*
X144435000Y-92337230D01*
X144501126Y-92326757D01*
X144501129Y-92326757D01*
X144703217Y-92261095D01*
X144892557Y-92164620D01*
X145064458Y-92039728D01*
X145203330Y-91900856D01*
X145264653Y-91867371D01*
X145334345Y-91872355D01*
X145390279Y-91914226D01*
X145396551Y-91923440D01*
X145400185Y-91929331D01*
X145400186Y-91929334D01*
X145492288Y-92078656D01*
X145616344Y-92202712D01*
X145765666Y-92294814D01*
X145932203Y-92349999D01*
X146034991Y-92360500D01*
X147335008Y-92360499D01*
X147342703Y-92359713D01*
X147352895Y-92358671D01*
X147437797Y-92349999D01*
X147604334Y-92294814D01*
X147753656Y-92202712D01*
X147877712Y-92078656D01*
X147969814Y-91929334D01*
X148024999Y-91762797D01*
X148035500Y-91660009D01*
X148035499Y-90622682D01*
X187295000Y-90622682D01*
X187295000Y-90827317D01*
X187327009Y-91029417D01*
X187390244Y-91224031D01*
X187483141Y-91406350D01*
X187483147Y-91406359D01*
X187515523Y-91450921D01*
X187515524Y-91450922D01*
X188195000Y-90771446D01*
X188195000Y-90777661D01*
X188222259Y-90879394D01*
X188274920Y-90970606D01*
X188349394Y-91045080D01*
X188440606Y-91097741D01*
X188542339Y-91125000D01*
X188548553Y-91125000D01*
X187869076Y-91804474D01*
X187913650Y-91836859D01*
X188095968Y-91929755D01*
X188290582Y-91992990D01*
X188492683Y-92025000D01*
X188697317Y-92025000D01*
X188899417Y-91992990D01*
X189094031Y-91929755D01*
X189276349Y-91836859D01*
X189320921Y-91804474D01*
X188641447Y-91125000D01*
X188647661Y-91125000D01*
X188749394Y-91097741D01*
X188840606Y-91045080D01*
X188915080Y-90970606D01*
X188967741Y-90879394D01*
X188995000Y-90777661D01*
X188995000Y-90771447D01*
X189674474Y-91450921D01*
X189706859Y-91406349D01*
X189799755Y-91224031D01*
X189862990Y-91029417D01*
X189895000Y-90827317D01*
X189895000Y-90622682D01*
X189862990Y-90420582D01*
X189799755Y-90225968D01*
X189706859Y-90043650D01*
X189674474Y-89999077D01*
X189674474Y-89999076D01*
X188995000Y-90678551D01*
X188995000Y-90672339D01*
X188967741Y-90570606D01*
X188915080Y-90479394D01*
X188840606Y-90404920D01*
X188749394Y-90352259D01*
X188647661Y-90325000D01*
X188641446Y-90325000D01*
X189320922Y-89645524D01*
X189320921Y-89645523D01*
X189276359Y-89613147D01*
X189276350Y-89613141D01*
X189094031Y-89520244D01*
X188899417Y-89457009D01*
X188697317Y-89425000D01*
X188492683Y-89425000D01*
X188290582Y-89457009D01*
X188095968Y-89520244D01*
X187913644Y-89613143D01*
X187869077Y-89645523D01*
X187869077Y-89645524D01*
X188548554Y-90325000D01*
X188542339Y-90325000D01*
X188440606Y-90352259D01*
X188349394Y-90404920D01*
X188274920Y-90479394D01*
X188222259Y-90570606D01*
X188195000Y-90672339D01*
X188195000Y-90678553D01*
X187515524Y-89999077D01*
X187515523Y-89999077D01*
X187483143Y-90043644D01*
X187390244Y-90225968D01*
X187327009Y-90420582D01*
X187295000Y-90622682D01*
X148035499Y-90622682D01*
X148035499Y-90279116D01*
X148055184Y-90212078D01*
X148107988Y-90166323D01*
X148177146Y-90156379D01*
X148183688Y-90157499D01*
X148187195Y-90158197D01*
X148198768Y-90160500D01*
X148198771Y-90160500D01*
X148371231Y-90160500D01*
X148371232Y-90160499D01*
X148540374Y-90126855D01*
X148699705Y-90060858D01*
X148843099Y-89965045D01*
X148965045Y-89843099D01*
X149060858Y-89699705D01*
X149126855Y-89540374D01*
X149133206Y-89508444D01*
X149138860Y-89480024D01*
X149160499Y-89371233D01*
X149160500Y-89371231D01*
X149160500Y-89198768D01*
X149160499Y-89198766D01*
X149129913Y-89045000D01*
X149126855Y-89029626D01*
X149102584Y-88971031D01*
X149060861Y-88870301D01*
X149060854Y-88870288D01*
X148965045Y-88726901D01*
X148965042Y-88726897D01*
X148843102Y-88604957D01*
X148843098Y-88604954D01*
X148699711Y-88509145D01*
X148699702Y-88509140D01*
X148627846Y-88479377D01*
X148627844Y-88479376D01*
X148540378Y-88443146D01*
X148540366Y-88443143D01*
X148371232Y-88409500D01*
X148371229Y-88409500D01*
X148198771Y-88409500D01*
X148198768Y-88409500D01*
X148029633Y-88443143D01*
X148029621Y-88443146D01*
X147870301Y-88509138D01*
X147870288Y-88509145D01*
X147726901Y-88604954D01*
X147726897Y-88604957D01*
X147604957Y-88726897D01*
X147604954Y-88726901D01*
X147509145Y-88870288D01*
X147509138Y-88870301D01*
X147443146Y-89029621D01*
X147443143Y-89029633D01*
X147409500Y-89198766D01*
X147409500Y-89285500D01*
X147389815Y-89352539D01*
X147337011Y-89398294D01*
X147285500Y-89409500D01*
X146034998Y-89409500D01*
X146034981Y-89409501D01*
X145932203Y-89420000D01*
X145932200Y-89420001D01*
X145765668Y-89475185D01*
X145765663Y-89475187D01*
X145616342Y-89567289D01*
X145492289Y-89691342D01*
X145396551Y-89846559D01*
X145344603Y-89893283D01*
X145275640Y-89904506D01*
X145211558Y-89876662D01*
X145203331Y-89869143D01*
X145064464Y-89730276D01*
X145064459Y-89730272D01*
X144892557Y-89605379D01*
X144703215Y-89508903D01*
X144501124Y-89443241D01*
X144435000Y-89432768D01*
X144435000Y-90480854D01*
X144368343Y-90442370D01*
X144247535Y-90410000D01*
X144122465Y-90410000D01*
X144001657Y-90442370D01*
X143935000Y-90480854D01*
X143935000Y-89432768D01*
X143934999Y-89432768D01*
X143868875Y-89443241D01*
X143666784Y-89508903D01*
X143477442Y-89605379D01*
X143305540Y-89730272D01*
X143305535Y-89730276D01*
X143155276Y-89880535D01*
X143155272Y-89880540D01*
X143035627Y-90045218D01*
X142980297Y-90087884D01*
X142910684Y-90093863D01*
X142848889Y-90061257D01*
X142834991Y-90045218D01*
X142715109Y-89880214D01*
X142715105Y-89880209D01*
X142564786Y-89729890D01*
X142392820Y-89604951D01*
X142203414Y-89508444D01*
X142203413Y-89508443D01*
X142203412Y-89508443D01*
X142001243Y-89442754D01*
X142001241Y-89442753D01*
X142001240Y-89442753D01*
X141839957Y-89417208D01*
X141791287Y-89409500D01*
X141578713Y-89409500D01*
X141539202Y-89415757D01*
X141368759Y-89442753D01*
X141368754Y-89442754D01*
X141338866Y-89452465D01*
X141269025Y-89454458D01*
X141212871Y-89422214D01*
X140160339Y-88369682D01*
X151100000Y-88369682D01*
X151100000Y-88574317D01*
X151132009Y-88776417D01*
X151195244Y-88971031D01*
X151288141Y-89153350D01*
X151288147Y-89153359D01*
X151320523Y-89197921D01*
X151320524Y-89197922D01*
X152000000Y-88518446D01*
X152000000Y-88524661D01*
X152027259Y-88626394D01*
X152079920Y-88717606D01*
X152154394Y-88792080D01*
X152245606Y-88844741D01*
X152347339Y-88872000D01*
X152353553Y-88872000D01*
X151674076Y-89551474D01*
X151718650Y-89583859D01*
X151900968Y-89676755D01*
X152095582Y-89739990D01*
X152297683Y-89772000D01*
X152502317Y-89772000D01*
X152704417Y-89739990D01*
X152899031Y-89676755D01*
X153081349Y-89583859D01*
X153125921Y-89551474D01*
X152446447Y-88872000D01*
X152452661Y-88872000D01*
X152554394Y-88844741D01*
X152645606Y-88792080D01*
X152720080Y-88717606D01*
X152772741Y-88626394D01*
X152800000Y-88524661D01*
X152800000Y-88518447D01*
X153479474Y-89197921D01*
X153511859Y-89153349D01*
X153604755Y-88971031D01*
X153667990Y-88776417D01*
X153700000Y-88574317D01*
X153700000Y-88369682D01*
X153667990Y-88167582D01*
X153604755Y-87972968D01*
X153511859Y-87790650D01*
X153479474Y-87746077D01*
X153479474Y-87746076D01*
X152800000Y-88425551D01*
X152800000Y-88419339D01*
X152772741Y-88317606D01*
X152720080Y-88226394D01*
X152645606Y-88151920D01*
X152554394Y-88099259D01*
X152452661Y-88072000D01*
X152446446Y-88072000D01*
X153125922Y-87392524D01*
X153125921Y-87392523D01*
X153081359Y-87360147D01*
X153081350Y-87360141D01*
X152961866Y-87299261D01*
X152899031Y-87267244D01*
X152704417Y-87204009D01*
X152638999Y-87193648D01*
X157957500Y-87193648D01*
X157957500Y-87398351D01*
X157989522Y-87600534D01*
X158052781Y-87795223D01*
X158093542Y-87875219D01*
X158127309Y-87941491D01*
X158145715Y-87977613D01*
X158266028Y-88143213D01*
X158410786Y-88287971D01*
X158520899Y-88367971D01*
X158576390Y-88408287D01*
X158644799Y-88443143D01*
X158758776Y-88501218D01*
X158758778Y-88501218D01*
X158758781Y-88501220D01*
X158830925Y-88524661D01*
X158953465Y-88564477D01*
X159015592Y-88574317D01*
X159155648Y-88596500D01*
X159155649Y-88596500D01*
X159360351Y-88596500D01*
X159360352Y-88596500D01*
X159562534Y-88564477D01*
X159757219Y-88501220D01*
X159939610Y-88408287D01*
X160064423Y-88317606D01*
X160105213Y-88287971D01*
X160105215Y-88287968D01*
X160105219Y-88287966D01*
X160249966Y-88143219D01*
X160249968Y-88143215D01*
X160249971Y-88143213D01*
X160312164Y-88057610D01*
X160370287Y-87977610D01*
X160463220Y-87795219D01*
X160526477Y-87600534D01*
X160558500Y-87398352D01*
X160558500Y-87273648D01*
X163037500Y-87273648D01*
X163037500Y-87478351D01*
X163069522Y-87680534D01*
X163132781Y-87875223D01*
X163225715Y-88057613D01*
X163346028Y-88223213D01*
X163490786Y-88367971D01*
X163594258Y-88443146D01*
X163656390Y-88488287D01*
X163772607Y-88547503D01*
X163838776Y-88581218D01*
X163838778Y-88581218D01*
X163838781Y-88581220D01*
X163923387Y-88608710D01*
X164033465Y-88644477D01*
X164134557Y-88660488D01*
X164235648Y-88676500D01*
X164235649Y-88676500D01*
X164440351Y-88676500D01*
X164440352Y-88676500D01*
X164642534Y-88644477D01*
X164837219Y-88581220D01*
X165019610Y-88488287D01*
X165114510Y-88419339D01*
X165185213Y-88367971D01*
X165185215Y-88367968D01*
X165185219Y-88367966D01*
X165329966Y-88223219D01*
X165329968Y-88223215D01*
X165329971Y-88223213D01*
X165405958Y-88118624D01*
X165450287Y-88057610D01*
X165543220Y-87875219D01*
X165606477Y-87680534D01*
X165638500Y-87478352D01*
X165638500Y-87273648D01*
X165606477Y-87071466D01*
X165545428Y-86883575D01*
X169115000Y-86883575D01*
X169115000Y-87106424D01*
X169144085Y-87327354D01*
X169144088Y-87327367D01*
X169201763Y-87542618D01*
X169287045Y-87748502D01*
X169287054Y-87748520D01*
X169398464Y-87941491D01*
X169398473Y-87941504D01*
X169449040Y-88007403D01*
X169449043Y-88007403D01*
X170250387Y-87206059D01*
X170255889Y-87226591D01*
X170334881Y-87363408D01*
X170446592Y-87475119D01*
X170583409Y-87554111D01*
X170603940Y-87559612D01*
X169802595Y-88360955D01*
X169802595Y-88360956D01*
X169868507Y-88411533D01*
X170061485Y-88522949D01*
X170061497Y-88522954D01*
X170267381Y-88608236D01*
X170482632Y-88665911D01*
X170482645Y-88665914D01*
X170703575Y-88695000D01*
X170926425Y-88695000D01*
X171147354Y-88665914D01*
X171147367Y-88665911D01*
X171362618Y-88608236D01*
X171568502Y-88522954D01*
X171568514Y-88522949D01*
X171761498Y-88411530D01*
X171827403Y-88360957D01*
X171827404Y-88360956D01*
X171026059Y-87559612D01*
X171046591Y-87554111D01*
X171183408Y-87475119D01*
X171295119Y-87363408D01*
X171374111Y-87226591D01*
X171379612Y-87206059D01*
X172180956Y-88007404D01*
X172180957Y-88007403D01*
X172231530Y-87941498D01*
X172342949Y-87748514D01*
X172342954Y-87748502D01*
X172428236Y-87542618D01*
X172485911Y-87327367D01*
X172485914Y-87327354D01*
X172515000Y-87106424D01*
X172515000Y-86883575D01*
X172514997Y-86883549D01*
X183084500Y-86883549D01*
X183084500Y-87106450D01*
X183084501Y-87106466D01*
X183113594Y-87327452D01*
X183113595Y-87327457D01*
X183113596Y-87327463D01*
X183171290Y-87542780D01*
X183171293Y-87542790D01*
X183256593Y-87748722D01*
X183256595Y-87748726D01*
X183368052Y-87941774D01*
X183368057Y-87941780D01*
X183368058Y-87941782D01*
X183503751Y-88118622D01*
X183503757Y-88118629D01*
X183661370Y-88276242D01*
X183661377Y-88276248D01*
X183676655Y-88287971D01*
X183838226Y-88411948D01*
X184031274Y-88523405D01*
X184130431Y-88564477D01*
X184236074Y-88608236D01*
X184237219Y-88608710D01*
X184452537Y-88666404D01*
X184673543Y-88695500D01*
X184673550Y-88695500D01*
X184896450Y-88695500D01*
X184896457Y-88695500D01*
X185117463Y-88666404D01*
X185332781Y-88608710D01*
X185538726Y-88523405D01*
X185731774Y-88411948D01*
X185908624Y-88276247D01*
X186066247Y-88118624D01*
X186201948Y-87941774D01*
X186313405Y-87748726D01*
X186398710Y-87542781D01*
X186456404Y-87327463D01*
X186485500Y-87106457D01*
X186485500Y-86883543D01*
X186456404Y-86662537D01*
X186398710Y-86447219D01*
X186381890Y-86406613D01*
X186322700Y-86263715D01*
X186313405Y-86241274D01*
X186201948Y-86048226D01*
X186066247Y-85871376D01*
X186066242Y-85871370D01*
X185908629Y-85713757D01*
X185908623Y-85713752D01*
X185789893Y-85622648D01*
X187294500Y-85622648D01*
X187294500Y-85827351D01*
X187326522Y-86029534D01*
X187389781Y-86224223D01*
X187453691Y-86349653D01*
X187476797Y-86395000D01*
X187482715Y-86406613D01*
X187603028Y-86572213D01*
X187747786Y-86716971D01*
X187902749Y-86829556D01*
X187913390Y-86837287D01*
X188029607Y-86896503D01*
X188095776Y-86930218D01*
X188095778Y-86930218D01*
X188095781Y-86930220D01*
X188200137Y-86964127D01*
X188290465Y-86993477D01*
X188391557Y-87009488D01*
X188492648Y-87025500D01*
X188492649Y-87025500D01*
X188697351Y-87025500D01*
X188697352Y-87025500D01*
X188899534Y-86993477D01*
X189094219Y-86930220D01*
X189276610Y-86837287D01*
X189378295Y-86763409D01*
X189442213Y-86716971D01*
X189442215Y-86716968D01*
X189442219Y-86716966D01*
X189586966Y-86572219D01*
X189586968Y-86572215D01*
X189586971Y-86572213D01*
X189639732Y-86499590D01*
X189707287Y-86406610D01*
X189800220Y-86224219D01*
X189863477Y-86029534D01*
X189895500Y-85827352D01*
X189895500Y-85622648D01*
X189863477Y-85420466D01*
X189860849Y-85412379D01*
X189832001Y-85323594D01*
X189800220Y-85225781D01*
X189800218Y-85225778D01*
X189800218Y-85225776D01*
X189763674Y-85154056D01*
X189707287Y-85043390D01*
X189656447Y-84973414D01*
X189586971Y-84877786D01*
X189442213Y-84733028D01*
X189276613Y-84612715D01*
X189276612Y-84612714D01*
X189276610Y-84612713D01*
X189219653Y-84583691D01*
X189094223Y-84519781D01*
X188899534Y-84456522D01*
X188724995Y-84428878D01*
X188697352Y-84424500D01*
X188492648Y-84424500D01*
X188468329Y-84428351D01*
X188290465Y-84456522D01*
X188095776Y-84519781D01*
X187913386Y-84612715D01*
X187747786Y-84733028D01*
X187603028Y-84877786D01*
X187482715Y-85043386D01*
X187389781Y-85225776D01*
X187326522Y-85420465D01*
X187294500Y-85622648D01*
X185789893Y-85622648D01*
X185731782Y-85578058D01*
X185731780Y-85578057D01*
X185731774Y-85578052D01*
X185538726Y-85466595D01*
X185538722Y-85466593D01*
X185332790Y-85381293D01*
X185332783Y-85381291D01*
X185332781Y-85381290D01*
X185117463Y-85323596D01*
X185117457Y-85323595D01*
X185117452Y-85323594D01*
X184896466Y-85294501D01*
X184896463Y-85294500D01*
X184896457Y-85294500D01*
X184673543Y-85294500D01*
X184673537Y-85294500D01*
X184673533Y-85294501D01*
X184452547Y-85323594D01*
X184452540Y-85323595D01*
X184452537Y-85323596D01*
X184237219Y-85381290D01*
X184237209Y-85381293D01*
X184031277Y-85466593D01*
X184031273Y-85466595D01*
X183838226Y-85578052D01*
X183838217Y-85578058D01*
X183661377Y-85713751D01*
X183661370Y-85713757D01*
X183503757Y-85871370D01*
X183503751Y-85871377D01*
X183368058Y-86048217D01*
X183368052Y-86048226D01*
X183256595Y-86241273D01*
X183256593Y-86241277D01*
X183171293Y-86447209D01*
X183171290Y-86447219D01*
X183123228Y-86626592D01*
X183113597Y-86662534D01*
X183113594Y-86662547D01*
X183084501Y-86883533D01*
X183084500Y-86883549D01*
X172514997Y-86883549D01*
X172485914Y-86662645D01*
X172485911Y-86662632D01*
X172428236Y-86447381D01*
X172342954Y-86241497D01*
X172342949Y-86241485D01*
X172231533Y-86048507D01*
X172180956Y-85982595D01*
X172180955Y-85982595D01*
X171379612Y-86783939D01*
X171374111Y-86763409D01*
X171295119Y-86626592D01*
X171183408Y-86514881D01*
X171046591Y-86435889D01*
X171026058Y-86430387D01*
X171827403Y-85629043D01*
X171827403Y-85629040D01*
X171761504Y-85578473D01*
X171761491Y-85578464D01*
X171568520Y-85467054D01*
X171568502Y-85467045D01*
X171362618Y-85381763D01*
X171147367Y-85324088D01*
X171147354Y-85324085D01*
X170926425Y-85295000D01*
X170703575Y-85295000D01*
X170482645Y-85324085D01*
X170482632Y-85324088D01*
X170267381Y-85381763D01*
X170061497Y-85467045D01*
X170061479Y-85467054D01*
X169868511Y-85578462D01*
X169802595Y-85629042D01*
X170603941Y-86430387D01*
X170583409Y-86435889D01*
X170446592Y-86514881D01*
X170334881Y-86626592D01*
X170255889Y-86763409D01*
X170250387Y-86783940D01*
X169449042Y-85982595D01*
X169398462Y-86048511D01*
X169287054Y-86241479D01*
X169287045Y-86241497D01*
X169201763Y-86447381D01*
X169144088Y-86662632D01*
X169144085Y-86662645D01*
X169115000Y-86883575D01*
X165545428Y-86883575D01*
X165543220Y-86876781D01*
X165450287Y-86694390D01*
X165427145Y-86662537D01*
X165329971Y-86528786D01*
X165185213Y-86384028D01*
X165019613Y-86263715D01*
X165019612Y-86263714D01*
X165019610Y-86263713D01*
X164942099Y-86224219D01*
X164837223Y-86170781D01*
X164642534Y-86107522D01*
X164467995Y-86079878D01*
X164440352Y-86075500D01*
X164235648Y-86075500D01*
X164211329Y-86079351D01*
X164033465Y-86107522D01*
X163838776Y-86170781D01*
X163656386Y-86263715D01*
X163490786Y-86384028D01*
X163346028Y-86528786D01*
X163225715Y-86694386D01*
X163132781Y-86876776D01*
X163069522Y-87071465D01*
X163037500Y-87273648D01*
X160558500Y-87273648D01*
X160558500Y-87193648D01*
X160526477Y-86991466D01*
X160463220Y-86796781D01*
X160463218Y-86796778D01*
X160463218Y-86796776D01*
X160394874Y-86662645D01*
X160370287Y-86614390D01*
X160362556Y-86603749D01*
X160249971Y-86448786D01*
X160105213Y-86304028D01*
X159939613Y-86183715D01*
X159939612Y-86183714D01*
X159939610Y-86183713D01*
X159882653Y-86154691D01*
X159757223Y-86090781D01*
X159562534Y-86027522D01*
X159387995Y-85999878D01*
X159360352Y-85995500D01*
X159155648Y-85995500D01*
X159131329Y-85999351D01*
X158953465Y-86027522D01*
X158758776Y-86090781D01*
X158576386Y-86183715D01*
X158410786Y-86304028D01*
X158266028Y-86448786D01*
X158145715Y-86614386D01*
X158052781Y-86796776D01*
X157989522Y-86991465D01*
X157957500Y-87193648D01*
X152638999Y-87193648D01*
X152502317Y-87172000D01*
X152297683Y-87172000D01*
X152095582Y-87204009D01*
X151900968Y-87267244D01*
X151718644Y-87360143D01*
X151674077Y-87392523D01*
X151674077Y-87392524D01*
X152353554Y-88072000D01*
X152347339Y-88072000D01*
X152245606Y-88099259D01*
X152154394Y-88151920D01*
X152079920Y-88226394D01*
X152027259Y-88317606D01*
X152000000Y-88419339D01*
X152000000Y-88425553D01*
X151320524Y-87746077D01*
X151320523Y-87746077D01*
X151288143Y-87790644D01*
X151195244Y-87972968D01*
X151132009Y-88167582D01*
X151100000Y-88369682D01*
X140160339Y-88369682D01*
X136139370Y-84348713D01*
X139619500Y-84348713D01*
X139619500Y-84561287D01*
X139652754Y-84771243D01*
X139687370Y-84877781D01*
X139718444Y-84973414D01*
X139814951Y-85162820D01*
X139939890Y-85334786D01*
X140090213Y-85485109D01*
X140262179Y-85610048D01*
X140262181Y-85610049D01*
X140262184Y-85610051D01*
X140451588Y-85706557D01*
X140653757Y-85772246D01*
X140863713Y-85805500D01*
X140863714Y-85805500D01*
X141076286Y-85805500D01*
X141076287Y-85805500D01*
X141286243Y-85772246D01*
X141488412Y-85706557D01*
X141677816Y-85610051D01*
X141764471Y-85547093D01*
X141849786Y-85485109D01*
X141849788Y-85485106D01*
X141849792Y-85485104D01*
X142000104Y-85334792D01*
X142000106Y-85334788D01*
X142000109Y-85334786D01*
X142125048Y-85162820D01*
X142125047Y-85162820D01*
X142125051Y-85162816D01*
X142129514Y-85154054D01*
X142177488Y-85103259D01*
X142245308Y-85086463D01*
X142311444Y-85108999D01*
X142350486Y-85154056D01*
X142354951Y-85162820D01*
X142479890Y-85334786D01*
X142630213Y-85485109D01*
X142802179Y-85610048D01*
X142802181Y-85610049D01*
X142802184Y-85610051D01*
X142991588Y-85706557D01*
X143193757Y-85772246D01*
X143403713Y-85805500D01*
X143403714Y-85805500D01*
X143616286Y-85805500D01*
X143616287Y-85805500D01*
X143826243Y-85772246D01*
X144028412Y-85706557D01*
X144217816Y-85610051D01*
X144304478Y-85547088D01*
X144389784Y-85485110D01*
X144389784Y-85485109D01*
X144389792Y-85485104D01*
X144503717Y-85371178D01*
X144565036Y-85337696D01*
X144634728Y-85342680D01*
X144690662Y-85384551D01*
X144707577Y-85415528D01*
X144756646Y-85547088D01*
X144756649Y-85547093D01*
X144842809Y-85662187D01*
X144842812Y-85662190D01*
X144957906Y-85748350D01*
X144957913Y-85748354D01*
X145092620Y-85798596D01*
X145092627Y-85798598D01*
X145152155Y-85804999D01*
X145152172Y-85805000D01*
X145800000Y-85805000D01*
X145800000Y-84888012D01*
X145857007Y-84920925D01*
X145984174Y-84955000D01*
X146115826Y-84955000D01*
X146242993Y-84920925D01*
X146300000Y-84888012D01*
X146300000Y-85805000D01*
X146947828Y-85805000D01*
X146947844Y-85804999D01*
X147007372Y-85798598D01*
X147007379Y-85798596D01*
X147142086Y-85748354D01*
X147142093Y-85748350D01*
X147257187Y-85662190D01*
X147257190Y-85662187D01*
X147301735Y-85602684D01*
X147301735Y-85602683D01*
X147343352Y-85547089D01*
X147343354Y-85547086D01*
X147393596Y-85412379D01*
X147393598Y-85412372D01*
X147399999Y-85352844D01*
X147400000Y-85352827D01*
X147400000Y-84705000D01*
X146483012Y-84705000D01*
X146515925Y-84647993D01*
X146550000Y-84520826D01*
X146550000Y-84389174D01*
X146515925Y-84262007D01*
X146483012Y-84205000D01*
X147400000Y-84205000D01*
X147400000Y-83557172D01*
X147399999Y-83557155D01*
X147393598Y-83497627D01*
X147393596Y-83497620D01*
X147346575Y-83371548D01*
X147343353Y-83362912D01*
X147343350Y-83362906D01*
X147257190Y-83247812D01*
X147257187Y-83247809D01*
X147142093Y-83161649D01*
X147142086Y-83161645D01*
X147007379Y-83111403D01*
X147007372Y-83111401D01*
X146947844Y-83105000D01*
X146300000Y-83105000D01*
X146300000Y-84021988D01*
X146242993Y-83989075D01*
X146115826Y-83955000D01*
X145984174Y-83955000D01*
X145857007Y-83989075D01*
X145800000Y-84021988D01*
X145800000Y-83105000D01*
X145152155Y-83105000D01*
X145092627Y-83111401D01*
X145092620Y-83111403D01*
X144957913Y-83161645D01*
X144957906Y-83161649D01*
X144842812Y-83247809D01*
X144842809Y-83247812D01*
X144756649Y-83362906D01*
X144756646Y-83362912D01*
X144707577Y-83494471D01*
X144665705Y-83550404D01*
X144600241Y-83574821D01*
X144531968Y-83559969D01*
X144503714Y-83538818D01*
X144389786Y-83424890D01*
X144217820Y-83299951D01*
X144028414Y-83203444D01*
X144028413Y-83203443D01*
X144028412Y-83203443D01*
X143826243Y-83137754D01*
X143826241Y-83137753D01*
X143826240Y-83137753D01*
X143664957Y-83112208D01*
X143616287Y-83104500D01*
X143403713Y-83104500D01*
X143355042Y-83112208D01*
X143193760Y-83137753D01*
X142991585Y-83203444D01*
X142802179Y-83299951D01*
X142630213Y-83424890D01*
X142479890Y-83575213D01*
X142354949Y-83747182D01*
X142350484Y-83755946D01*
X142302509Y-83806742D01*
X142234688Y-83823536D01*
X142168553Y-83800998D01*
X142129516Y-83755946D01*
X142125050Y-83747182D01*
X142000109Y-83575213D01*
X141849786Y-83424890D01*
X141677820Y-83299951D01*
X141488414Y-83203444D01*
X141488413Y-83203443D01*
X141488412Y-83203443D01*
X141286243Y-83137754D01*
X141286241Y-83137753D01*
X141286240Y-83137753D01*
X141124957Y-83112208D01*
X141076287Y-83104500D01*
X140863713Y-83104500D01*
X140815042Y-83112208D01*
X140653760Y-83137753D01*
X140451585Y-83203444D01*
X140262179Y-83299951D01*
X140090213Y-83424890D01*
X139939890Y-83575213D01*
X139814951Y-83747179D01*
X139718444Y-83936585D01*
X139652753Y-84138760D01*
X139651291Y-84147993D01*
X139619500Y-84348713D01*
X136139370Y-84348713D01*
X134086819Y-82296162D01*
X134072115Y-82269234D01*
X134055523Y-82243416D01*
X134054631Y-82237215D01*
X134053334Y-82234839D01*
X134050500Y-82208481D01*
X134050500Y-82193682D01*
X157958000Y-82193682D01*
X157958000Y-82398317D01*
X157990009Y-82600417D01*
X158053244Y-82795031D01*
X158146141Y-82977350D01*
X158146147Y-82977359D01*
X158178523Y-83021921D01*
X158178524Y-83021922D01*
X158858000Y-82342446D01*
X158858000Y-82348661D01*
X158885259Y-82450394D01*
X158937920Y-82541606D01*
X159012394Y-82616080D01*
X159103606Y-82668741D01*
X159205339Y-82696000D01*
X159211553Y-82696000D01*
X158532076Y-83375474D01*
X158576650Y-83407859D01*
X158758968Y-83500755D01*
X158953582Y-83563990D01*
X159155683Y-83596000D01*
X159360317Y-83596000D01*
X159562417Y-83563990D01*
X159757031Y-83500755D01*
X159939349Y-83407859D01*
X159983921Y-83375474D01*
X159304447Y-82696000D01*
X159310661Y-82696000D01*
X159412394Y-82668741D01*
X159503606Y-82616080D01*
X159578080Y-82541606D01*
X159630741Y-82450394D01*
X159658000Y-82348661D01*
X159658000Y-82342448D01*
X160337474Y-83021922D01*
X160337474Y-83021921D01*
X160369859Y-82977349D01*
X160462755Y-82795031D01*
X160525990Y-82600417D01*
X160558000Y-82398317D01*
X160558000Y-82193682D01*
X160525990Y-81991582D01*
X160462755Y-81796968D01*
X160369859Y-81614650D01*
X160337474Y-81570077D01*
X160337474Y-81570076D01*
X159658000Y-82249551D01*
X159658000Y-82243339D01*
X159630741Y-82141606D01*
X159578080Y-82050394D01*
X159503606Y-81975920D01*
X159412394Y-81923259D01*
X159310661Y-81896000D01*
X159304446Y-81896000D01*
X159983922Y-81216524D01*
X159983921Y-81216523D01*
X159939359Y-81184147D01*
X159939350Y-81184141D01*
X159757031Y-81091244D01*
X159562417Y-81028009D01*
X159360317Y-80996000D01*
X159155683Y-80996000D01*
X158953582Y-81028009D01*
X158758968Y-81091244D01*
X158576644Y-81184143D01*
X158532077Y-81216523D01*
X158532077Y-81216524D01*
X159211554Y-81896000D01*
X159205339Y-81896000D01*
X159103606Y-81923259D01*
X159012394Y-81975920D01*
X158937920Y-82050394D01*
X158885259Y-82141606D01*
X158858000Y-82243339D01*
X158858000Y-82249553D01*
X158178524Y-81570077D01*
X158178523Y-81570077D01*
X158146143Y-81614644D01*
X158053244Y-81796968D01*
X157990009Y-81991582D01*
X157958000Y-82193682D01*
X134050500Y-82193682D01*
X134050500Y-79931153D01*
X143344500Y-79931153D01*
X143344500Y-80088846D01*
X143375261Y-80243489D01*
X143375264Y-80243501D01*
X143435602Y-80389172D01*
X143435609Y-80389185D01*
X143523210Y-80520288D01*
X143523213Y-80520292D01*
X143634707Y-80631786D01*
X143634711Y-80631789D01*
X143765814Y-80719390D01*
X143765827Y-80719397D01*
X143911498Y-80779735D01*
X143911503Y-80779737D01*
X144066153Y-80810499D01*
X144066156Y-80810500D01*
X144066158Y-80810500D01*
X144223844Y-80810500D01*
X144223845Y-80810499D01*
X144378497Y-80779737D01*
X144453963Y-80748478D01*
X144522864Y-80719939D01*
X144570316Y-80710500D01*
X163401953Y-80710500D01*
X163468992Y-80730185D01*
X163489634Y-80746819D01*
X163490786Y-80747971D01*
X163576852Y-80810500D01*
X163656390Y-80868287D01*
X163772607Y-80927503D01*
X163838776Y-80961218D01*
X163838778Y-80961218D01*
X163838781Y-80961220D01*
X163943137Y-80995127D01*
X164033465Y-81024477D01*
X164134557Y-81040488D01*
X164235648Y-81056500D01*
X164235649Y-81056500D01*
X164440351Y-81056500D01*
X164440352Y-81056500D01*
X164642534Y-81024477D01*
X164837219Y-80961220D01*
X165019610Y-80868287D01*
X165112590Y-80800732D01*
X165185213Y-80747971D01*
X165185215Y-80747968D01*
X165185219Y-80747966D01*
X165329966Y-80603219D01*
X165329968Y-80603215D01*
X165329971Y-80603213D01*
X165382732Y-80530590D01*
X165450287Y-80437610D01*
X165543220Y-80255219D01*
X165606477Y-80060534D01*
X165638500Y-79858352D01*
X165638500Y-79653648D01*
X165634885Y-79630827D01*
X165606477Y-79451465D01*
X165560349Y-79309500D01*
X165543220Y-79256781D01*
X165543218Y-79256778D01*
X165543218Y-79256776D01*
X165509503Y-79190607D01*
X165450287Y-79074390D01*
X165442556Y-79063749D01*
X165329971Y-78908786D01*
X165185213Y-78764028D01*
X165019613Y-78643715D01*
X165019612Y-78643714D01*
X165019610Y-78643713D01*
X164962653Y-78614691D01*
X164837223Y-78550781D01*
X164642534Y-78487522D01*
X164467995Y-78459878D01*
X164440352Y-78455500D01*
X164235648Y-78455500D01*
X164211329Y-78459351D01*
X164033465Y-78487522D01*
X163838776Y-78550781D01*
X163656386Y-78643715D01*
X163490786Y-78764028D01*
X163346028Y-78908786D01*
X163225715Y-79074385D01*
X163166392Y-79190812D01*
X163141197Y-79240263D01*
X163140416Y-79241795D01*
X163092441Y-79292591D01*
X163029931Y-79309500D01*
X144570316Y-79309500D01*
X144522864Y-79300061D01*
X144378501Y-79240264D01*
X144378489Y-79240261D01*
X144223845Y-79209500D01*
X144223842Y-79209500D01*
X144066158Y-79209500D01*
X144066155Y-79209500D01*
X143911510Y-79240261D01*
X143911498Y-79240264D01*
X143765827Y-79300602D01*
X143765814Y-79300609D01*
X143634711Y-79388210D01*
X143634707Y-79388213D01*
X143523213Y-79499707D01*
X143523210Y-79499711D01*
X143435609Y-79630814D01*
X143435602Y-79630827D01*
X143375264Y-79776498D01*
X143375261Y-79776510D01*
X143344500Y-79931153D01*
X134050500Y-79931153D01*
X134050500Y-77459499D01*
X134070185Y-77392460D01*
X134122989Y-77346705D01*
X134174500Y-77335499D01*
X134685002Y-77335499D01*
X134685008Y-77335499D01*
X134787797Y-77324999D01*
X134954334Y-77269814D01*
X135103656Y-77177712D01*
X135227712Y-77053656D01*
X135319814Y-76904334D01*
X135374999Y-76737797D01*
X135385500Y-76635009D01*
X135385500Y-76596549D01*
X160859500Y-76596549D01*
X160859500Y-76819450D01*
X160859501Y-76819466D01*
X160888594Y-77040452D01*
X160888595Y-77040457D01*
X160888596Y-77040463D01*
X160946290Y-77255780D01*
X160946293Y-77255790D01*
X161031593Y-77461722D01*
X161031595Y-77461726D01*
X161143052Y-77654774D01*
X161143057Y-77654780D01*
X161143058Y-77654782D01*
X161278751Y-77831622D01*
X161278757Y-77831629D01*
X161436370Y-77989242D01*
X161436376Y-77989247D01*
X161613226Y-78124948D01*
X161806274Y-78236405D01*
X162012219Y-78321710D01*
X162227537Y-78379404D01*
X162448543Y-78408500D01*
X162448550Y-78408500D01*
X162671450Y-78408500D01*
X162671457Y-78408500D01*
X162892463Y-78379404D01*
X163107781Y-78321710D01*
X163313726Y-78236405D01*
X163506774Y-78124948D01*
X163683624Y-77989247D01*
X163841247Y-77831624D01*
X163976948Y-77654774D01*
X164088405Y-77461726D01*
X164173710Y-77255781D01*
X164231404Y-77040463D01*
X164260500Y-76819457D01*
X164260500Y-76596543D01*
X164231404Y-76375537D01*
X164173710Y-76160219D01*
X164088405Y-75954274D01*
X163976948Y-75761226D01*
X163937867Y-75710294D01*
X163841248Y-75584377D01*
X163841242Y-75584370D01*
X163683629Y-75426757D01*
X163683622Y-75426751D01*
X163506782Y-75291058D01*
X163506780Y-75291057D01*
X163506774Y-75291052D01*
X163313726Y-75179595D01*
X163313722Y-75179593D01*
X163107790Y-75094293D01*
X163107783Y-75094291D01*
X163107781Y-75094290D01*
X162892463Y-75036596D01*
X162892457Y-75036595D01*
X162892452Y-75036594D01*
X162671466Y-75007501D01*
X162671463Y-75007500D01*
X162671457Y-75007500D01*
X162448543Y-75007500D01*
X162448537Y-75007500D01*
X162448533Y-75007501D01*
X162227547Y-75036594D01*
X162227540Y-75036595D01*
X162227537Y-75036596D01*
X162012219Y-75094290D01*
X162012209Y-75094293D01*
X161806277Y-75179593D01*
X161806273Y-75179595D01*
X161613226Y-75291052D01*
X161613217Y-75291058D01*
X161436377Y-75426751D01*
X161436370Y-75426757D01*
X161278757Y-75584370D01*
X161278751Y-75584377D01*
X161143058Y-75761217D01*
X161143052Y-75761226D01*
X161031595Y-75954273D01*
X161031593Y-75954277D01*
X160946293Y-76160209D01*
X160946290Y-76160219D01*
X160888597Y-76375534D01*
X160888594Y-76375547D01*
X160859501Y-76596533D01*
X160859500Y-76596549D01*
X135385500Y-76596549D01*
X135385499Y-73264992D01*
X135374999Y-73162203D01*
X135319814Y-72995666D01*
X135274797Y-72922682D01*
X155672000Y-72922682D01*
X155672000Y-73127317D01*
X155704009Y-73329417D01*
X155767244Y-73524031D01*
X155860141Y-73706350D01*
X155860147Y-73706359D01*
X155892523Y-73750921D01*
X155892524Y-73750922D01*
X156572000Y-73071446D01*
X156572000Y-73077661D01*
X156599259Y-73179394D01*
X156651920Y-73270606D01*
X156726394Y-73345080D01*
X156817606Y-73397741D01*
X156919339Y-73425000D01*
X156925553Y-73425000D01*
X156246076Y-74104474D01*
X156290650Y-74136859D01*
X156472968Y-74229755D01*
X156667582Y-74292990D01*
X156869683Y-74325000D01*
X157074317Y-74325000D01*
X157276417Y-74292990D01*
X157471031Y-74229755D01*
X157653349Y-74136859D01*
X157697921Y-74104474D01*
X157018447Y-73425000D01*
X157024661Y-73425000D01*
X157126394Y-73397741D01*
X157217606Y-73345080D01*
X157292080Y-73270606D01*
X157344741Y-73179394D01*
X157372000Y-73077661D01*
X157372000Y-73071448D01*
X158051474Y-73750922D01*
X158051474Y-73750921D01*
X158083859Y-73706349D01*
X158176755Y-73524031D01*
X158239990Y-73329417D01*
X158272000Y-73127317D01*
X158272000Y-72922682D01*
X158239990Y-72720582D01*
X158176755Y-72525968D01*
X158083859Y-72343650D01*
X158051474Y-72299077D01*
X158051474Y-72299076D01*
X157372000Y-72978551D01*
X157372000Y-72972339D01*
X157344741Y-72870606D01*
X157292080Y-72779394D01*
X157217606Y-72704920D01*
X157126394Y-72652259D01*
X157024661Y-72625000D01*
X157018446Y-72625000D01*
X157697922Y-71945524D01*
X157697921Y-71945523D01*
X157653359Y-71913147D01*
X157653350Y-71913141D01*
X157471031Y-71820244D01*
X157276417Y-71757009D01*
X157074317Y-71725000D01*
X156869683Y-71725000D01*
X156667582Y-71757009D01*
X156472968Y-71820244D01*
X156290644Y-71913143D01*
X156246077Y-71945523D01*
X156246077Y-71945524D01*
X156925554Y-72625000D01*
X156919339Y-72625000D01*
X156817606Y-72652259D01*
X156726394Y-72704920D01*
X156651920Y-72779394D01*
X156599259Y-72870606D01*
X156572000Y-72972339D01*
X156572000Y-72978553D01*
X155892524Y-72299077D01*
X155892523Y-72299077D01*
X155860143Y-72343644D01*
X155767244Y-72525968D01*
X155704009Y-72720582D01*
X155672000Y-72922682D01*
X135274797Y-72922682D01*
X135227712Y-72846344D01*
X135103656Y-72722288D01*
X134954334Y-72630186D01*
X134787797Y-72575001D01*
X134787795Y-72575000D01*
X134685010Y-72564500D01*
X133284998Y-72564500D01*
X133284981Y-72564501D01*
X133182203Y-72575000D01*
X133182200Y-72575001D01*
X133015668Y-72630185D01*
X133015663Y-72630187D01*
X132866342Y-72722289D01*
X132802681Y-72785951D01*
X132741358Y-72819436D01*
X132671666Y-72814452D01*
X132627319Y-72785951D01*
X132563657Y-72722289D01*
X132563656Y-72722288D01*
X132414334Y-72630186D01*
X132247797Y-72575001D01*
X132247795Y-72575000D01*
X132145010Y-72564500D01*
X130744998Y-72564500D01*
X130744981Y-72564501D01*
X130642203Y-72575000D01*
X130642200Y-72575001D01*
X130475668Y-72630185D01*
X130475663Y-72630187D01*
X130326342Y-72722289D01*
X130262681Y-72785951D01*
X130201358Y-72819436D01*
X130131666Y-72814452D01*
X130087319Y-72785951D01*
X130023657Y-72722289D01*
X130023656Y-72722288D01*
X129874334Y-72630186D01*
X129707797Y-72575001D01*
X129707795Y-72575000D01*
X129605010Y-72564500D01*
X128204998Y-72564500D01*
X128204981Y-72564501D01*
X128102203Y-72575000D01*
X128102200Y-72575001D01*
X127935668Y-72630185D01*
X127935663Y-72630187D01*
X127786342Y-72722289D01*
X127722681Y-72785951D01*
X127661358Y-72819436D01*
X127591666Y-72814452D01*
X127547319Y-72785951D01*
X127483657Y-72722289D01*
X127483656Y-72722288D01*
X127334334Y-72630186D01*
X127167797Y-72575001D01*
X127167795Y-72575000D01*
X127065010Y-72564500D01*
X125664998Y-72564500D01*
X125664981Y-72564501D01*
X125562203Y-72575000D01*
X125562200Y-72575001D01*
X125395668Y-72630185D01*
X125395663Y-72630187D01*
X125246342Y-72722289D01*
X125182681Y-72785951D01*
X125121358Y-72819436D01*
X125051666Y-72814452D01*
X125007319Y-72785951D01*
X124943657Y-72722289D01*
X124943656Y-72722288D01*
X124794334Y-72630186D01*
X124627797Y-72575001D01*
X124627795Y-72575000D01*
X124525010Y-72564500D01*
X123124998Y-72564500D01*
X123124981Y-72564501D01*
X123022203Y-72575000D01*
X123022200Y-72575001D01*
X122855668Y-72630185D01*
X122855663Y-72630187D01*
X122706342Y-72722289D01*
X122642681Y-72785951D01*
X122581358Y-72819436D01*
X122511666Y-72814452D01*
X122467319Y-72785951D01*
X122403657Y-72722289D01*
X122403656Y-72722288D01*
X122254334Y-72630186D01*
X122087797Y-72575001D01*
X122087795Y-72575000D01*
X121985010Y-72564500D01*
X120584998Y-72564500D01*
X120584981Y-72564501D01*
X120482203Y-72575000D01*
X120482200Y-72575001D01*
X120315668Y-72630185D01*
X120315663Y-72630187D01*
X120166345Y-72722287D01*
X120102327Y-72786305D01*
X120041003Y-72819789D01*
X119971312Y-72814804D01*
X119926965Y-72786304D01*
X119863345Y-72722684D01*
X119714124Y-72630643D01*
X119714119Y-72630641D01*
X119547697Y-72575494D01*
X119547690Y-72575493D01*
X119444986Y-72565000D01*
X118995000Y-72565000D01*
X118995000Y-75249314D01*
X118990606Y-75244920D01*
X118899394Y-75192259D01*
X118797661Y-75165000D01*
X118692339Y-75165000D01*
X118590606Y-75192259D01*
X118499394Y-75244920D01*
X118495000Y-75249314D01*
X118495000Y-72565000D01*
X118045028Y-72565000D01*
X118045012Y-72565001D01*
X117942302Y-72575494D01*
X117775880Y-72630641D01*
X117775875Y-72630643D01*
X117626657Y-72722682D01*
X117563034Y-72786305D01*
X117501710Y-72819789D01*
X117432019Y-72814804D01*
X117387672Y-72786304D01*
X117323657Y-72722289D01*
X117323656Y-72722288D01*
X117174334Y-72630186D01*
X117007797Y-72575001D01*
X117007795Y-72575000D01*
X116905010Y-72564500D01*
X115504998Y-72564500D01*
X115504981Y-72564501D01*
X115402203Y-72575000D01*
X115402200Y-72575001D01*
X115235668Y-72630185D01*
X115235663Y-72630187D01*
X115086342Y-72722289D01*
X114962289Y-72846342D01*
X114870187Y-72995663D01*
X114870186Y-72995666D01*
X114815001Y-73162203D01*
X114815001Y-73162204D01*
X114815000Y-73162204D01*
X114804500Y-73264983D01*
X111960500Y-73264983D01*
X111960500Y-71017682D01*
X113000000Y-71017682D01*
X113000000Y-71222317D01*
X113032009Y-71424417D01*
X113095244Y-71619031D01*
X113188141Y-71801350D01*
X113188147Y-71801359D01*
X113220523Y-71845921D01*
X113220524Y-71845922D01*
X113900000Y-71166446D01*
X113900000Y-71172661D01*
X113927259Y-71274394D01*
X113979920Y-71365606D01*
X114054394Y-71440080D01*
X114145606Y-71492741D01*
X114247339Y-71520000D01*
X114253553Y-71520000D01*
X113574076Y-72199474D01*
X113618650Y-72231859D01*
X113800968Y-72324755D01*
X113995582Y-72387990D01*
X114197683Y-72420000D01*
X114402317Y-72420000D01*
X114604417Y-72387990D01*
X114799031Y-72324755D01*
X114981349Y-72231859D01*
X115025921Y-72199474D01*
X114346447Y-71520000D01*
X114352661Y-71520000D01*
X114454394Y-71492741D01*
X114545606Y-71440080D01*
X114620080Y-71365606D01*
X114672741Y-71274394D01*
X114700000Y-71172661D01*
X114700000Y-71166448D01*
X115379474Y-71845922D01*
X115379474Y-71845921D01*
X115411859Y-71801349D01*
X115504755Y-71619031D01*
X115567990Y-71424417D01*
X115600000Y-71222317D01*
X115600000Y-71017682D01*
X115567990Y-70815582D01*
X115504755Y-70620968D01*
X115411859Y-70438650D01*
X115379474Y-70394077D01*
X115379474Y-70394076D01*
X114700000Y-71073551D01*
X114700000Y-71067339D01*
X114672741Y-70965606D01*
X114620080Y-70874394D01*
X114545606Y-70799920D01*
X114454394Y-70747259D01*
X114352661Y-70720000D01*
X114346446Y-70720000D01*
X115025922Y-70040524D01*
X115025921Y-70040523D01*
X114981359Y-70008147D01*
X114981350Y-70008141D01*
X114799031Y-69915244D01*
X114604417Y-69852009D01*
X114402317Y-69820000D01*
X114197683Y-69820000D01*
X113995582Y-69852009D01*
X113800968Y-69915244D01*
X113618644Y-70008143D01*
X113574077Y-70040523D01*
X113574077Y-70040524D01*
X114253554Y-70720000D01*
X114247339Y-70720000D01*
X114145606Y-70747259D01*
X114054394Y-70799920D01*
X113979920Y-70874394D01*
X113927259Y-70965606D01*
X113900000Y-71067339D01*
X113900000Y-71073553D01*
X113220524Y-70394077D01*
X113220523Y-70394077D01*
X113188143Y-70438644D01*
X113095244Y-70620968D01*
X113032009Y-70815582D01*
X113000000Y-71017682D01*
X111960500Y-71017682D01*
X111960500Y-68477648D01*
X135859500Y-68477648D01*
X135859500Y-68682351D01*
X135891522Y-68884534D01*
X135954781Y-69079223D01*
X136047715Y-69261613D01*
X136168028Y-69427213D01*
X136312786Y-69571971D01*
X136478385Y-69692284D01*
X136478387Y-69692285D01*
X136478390Y-69692287D01*
X136571630Y-69739795D01*
X136622426Y-69787770D01*
X136639221Y-69855591D01*
X136616684Y-69921725D01*
X136571630Y-69960765D01*
X136478644Y-70008143D01*
X136434077Y-70040523D01*
X136434077Y-70040524D01*
X137113554Y-70720000D01*
X137107339Y-70720000D01*
X137005606Y-70747259D01*
X136914394Y-70799920D01*
X136839920Y-70874394D01*
X136787259Y-70965606D01*
X136760000Y-71067339D01*
X136760000Y-71073553D01*
X136080524Y-70394077D01*
X136080523Y-70394077D01*
X136048143Y-70438644D01*
X135955244Y-70620968D01*
X135892009Y-70815582D01*
X135860000Y-71017682D01*
X135860000Y-71222317D01*
X135892009Y-71424417D01*
X135955244Y-71619031D01*
X136048141Y-71801350D01*
X136048147Y-71801359D01*
X136080523Y-71845921D01*
X136080524Y-71845922D01*
X136760000Y-71166446D01*
X136760000Y-71172661D01*
X136787259Y-71274394D01*
X136839920Y-71365606D01*
X136914394Y-71440080D01*
X137005606Y-71492741D01*
X137107339Y-71520000D01*
X137113553Y-71520000D01*
X136434076Y-72199474D01*
X136478650Y-72231859D01*
X136660968Y-72324755D01*
X136855582Y-72387990D01*
X137057683Y-72420000D01*
X137262317Y-72420000D01*
X137464417Y-72387990D01*
X137659031Y-72324755D01*
X137841349Y-72231859D01*
X137885921Y-72199474D01*
X137885922Y-72199474D01*
X137766912Y-72080464D01*
X137206447Y-71520000D01*
X137212661Y-71520000D01*
X137314394Y-71492741D01*
X137405606Y-71440080D01*
X137480080Y-71365606D01*
X137532741Y-71274394D01*
X137560000Y-71172661D01*
X137560000Y-71166448D01*
X138239474Y-71845922D01*
X138239474Y-71845921D01*
X138271859Y-71801349D01*
X138364755Y-71619031D01*
X138427990Y-71424417D01*
X138460000Y-71222317D01*
X138460000Y-71017682D01*
X138427990Y-70815582D01*
X138364755Y-70620968D01*
X138271859Y-70438650D01*
X138239474Y-70394077D01*
X138239474Y-70394076D01*
X137560000Y-71073551D01*
X137560000Y-71067339D01*
X137532741Y-70965606D01*
X137480080Y-70874394D01*
X137405606Y-70799920D01*
X137314394Y-70747259D01*
X137212661Y-70720000D01*
X137206446Y-70720000D01*
X137885922Y-70040524D01*
X137885921Y-70040523D01*
X137841359Y-70008147D01*
X137841350Y-70008141D01*
X137748369Y-69960765D01*
X137697573Y-69912790D01*
X137680778Y-69844969D01*
X137703315Y-69778835D01*
X137748370Y-69739795D01*
X137841610Y-69692287D01*
X137891144Y-69656298D01*
X138007213Y-69571971D01*
X138007215Y-69571968D01*
X138007219Y-69571966D01*
X138151966Y-69427219D01*
X138151968Y-69427215D01*
X138151971Y-69427213D01*
X138208259Y-69349738D01*
X138272287Y-69261610D01*
X138365220Y-69079219D01*
X138428477Y-68884534D01*
X138460500Y-68682352D01*
X138460500Y-68477648D01*
X138428477Y-68275466D01*
X138365220Y-68080781D01*
X138365218Y-68080778D01*
X138365218Y-68080776D01*
X138331503Y-68014607D01*
X138272287Y-67898390D01*
X138258748Y-67879755D01*
X138151971Y-67732786D01*
X138007213Y-67588028D01*
X137841613Y-67467715D01*
X137841612Y-67467714D01*
X137841610Y-67467713D01*
X137784653Y-67438691D01*
X137659223Y-67374781D01*
X137464534Y-67311522D01*
X137289995Y-67283878D01*
X137262352Y-67279500D01*
X137057648Y-67279500D01*
X137033329Y-67283351D01*
X136855465Y-67311522D01*
X136660776Y-67374781D01*
X136478386Y-67467715D01*
X136312786Y-67588028D01*
X136168028Y-67732786D01*
X136047715Y-67898386D01*
X135954781Y-68080776D01*
X135891522Y-68275465D01*
X135859500Y-68477648D01*
X111960500Y-68477648D01*
X111960500Y-62786153D01*
X138899500Y-62786153D01*
X138899500Y-68658846D01*
X138930261Y-68813489D01*
X138930264Y-68813501D01*
X138990602Y-68959172D01*
X138990609Y-68959185D01*
X139078210Y-69090288D01*
X139078213Y-69090292D01*
X139189707Y-69201786D01*
X139189711Y-69201789D01*
X139320814Y-69289390D01*
X139320827Y-69289397D01*
X139466498Y-69349735D01*
X139466503Y-69349737D01*
X139621153Y-69380499D01*
X139621156Y-69380500D01*
X139621158Y-69380500D01*
X139778844Y-69380500D01*
X139778845Y-69380499D01*
X139933497Y-69349737D01*
X140079179Y-69289394D01*
X140210289Y-69201789D01*
X140321789Y-69090289D01*
X140409394Y-68959179D01*
X140469737Y-68813497D01*
X140500500Y-68658842D01*
X140500500Y-65302648D01*
X155671500Y-65302648D01*
X155671500Y-65507351D01*
X155703522Y-65709534D01*
X155766781Y-65904223D01*
X155859715Y-66086613D01*
X155980028Y-66252213D01*
X156124786Y-66396971D01*
X156279749Y-66509556D01*
X156290390Y-66517287D01*
X156399109Y-66572682D01*
X156472776Y-66610218D01*
X156472778Y-66610218D01*
X156472781Y-66610220D01*
X156577137Y-66644127D01*
X156667465Y-66673477D01*
X156768557Y-66689488D01*
X156869648Y-66705500D01*
X156869649Y-66705500D01*
X157074351Y-66705500D01*
X157074352Y-66705500D01*
X157276534Y-66673477D01*
X157471219Y-66610220D01*
X157544891Y-66572682D01*
X187295000Y-66572682D01*
X187295000Y-66777317D01*
X187327009Y-66979417D01*
X187390244Y-67174031D01*
X187483141Y-67356350D01*
X187483147Y-67356359D01*
X187515523Y-67400921D01*
X187515524Y-67400922D01*
X188195000Y-66721446D01*
X188195000Y-66727661D01*
X188222259Y-66829394D01*
X188274920Y-66920606D01*
X188349394Y-66995080D01*
X188440606Y-67047741D01*
X188542339Y-67075000D01*
X188548553Y-67075000D01*
X187869076Y-67754474D01*
X187913650Y-67786859D01*
X188095968Y-67879755D01*
X188290582Y-67942990D01*
X188492683Y-67975000D01*
X188697317Y-67975000D01*
X188899417Y-67942990D01*
X189094031Y-67879755D01*
X189276349Y-67786859D01*
X189320921Y-67754474D01*
X188641447Y-67075000D01*
X188647661Y-67075000D01*
X188749394Y-67047741D01*
X188840606Y-66995080D01*
X188915080Y-66920606D01*
X188967741Y-66829394D01*
X188995000Y-66727661D01*
X188995000Y-66721447D01*
X189674474Y-67400921D01*
X189706859Y-67356349D01*
X189799755Y-67174031D01*
X189862990Y-66979417D01*
X189895000Y-66777317D01*
X189895000Y-66572682D01*
X189862990Y-66370582D01*
X189799755Y-66175968D01*
X189706859Y-65993650D01*
X189674474Y-65949077D01*
X189674474Y-65949076D01*
X188995000Y-66628551D01*
X188995000Y-66622339D01*
X188967741Y-66520606D01*
X188915080Y-66429394D01*
X188840606Y-66354920D01*
X188749394Y-66302259D01*
X188647661Y-66275000D01*
X188641446Y-66275000D01*
X189320922Y-65595524D01*
X189320921Y-65595523D01*
X189276359Y-65563147D01*
X189276350Y-65563141D01*
X189094031Y-65470244D01*
X188899417Y-65407009D01*
X188697317Y-65375000D01*
X188492683Y-65375000D01*
X188290582Y-65407009D01*
X188095968Y-65470244D01*
X187913644Y-65563143D01*
X187869077Y-65595523D01*
X187869077Y-65595524D01*
X188548554Y-66275000D01*
X188542339Y-66275000D01*
X188440606Y-66302259D01*
X188349394Y-66354920D01*
X188274920Y-66429394D01*
X188222259Y-66520606D01*
X188195000Y-66622339D01*
X188195000Y-66628553D01*
X187515524Y-65949077D01*
X187515523Y-65949077D01*
X187483143Y-65993644D01*
X187390244Y-66175968D01*
X187327009Y-66370582D01*
X187295000Y-66572682D01*
X157544891Y-66572682D01*
X157653610Y-66517287D01*
X157819219Y-66396966D01*
X157963966Y-66252219D01*
X157963968Y-66252215D01*
X157963971Y-66252213D01*
X158019365Y-66175968D01*
X158084287Y-66086610D01*
X158177220Y-65904219D01*
X158240477Y-65709534D01*
X158272500Y-65507352D01*
X158272500Y-65302648D01*
X158240477Y-65100466D01*
X158177220Y-64905781D01*
X158177218Y-64905778D01*
X158177218Y-64905776D01*
X158143503Y-64839607D01*
X158084287Y-64723390D01*
X158076556Y-64712749D01*
X157963971Y-64557786D01*
X157819213Y-64413028D01*
X157653613Y-64292715D01*
X157653612Y-64292714D01*
X157653610Y-64292713D01*
X157596653Y-64263691D01*
X157471223Y-64199781D01*
X157276534Y-64136522D01*
X157101995Y-64108878D01*
X157074352Y-64104500D01*
X156869648Y-64104500D01*
X156845329Y-64108351D01*
X156667465Y-64136522D01*
X156472776Y-64199781D01*
X156290386Y-64292715D01*
X156124786Y-64413028D01*
X155980028Y-64557786D01*
X155859715Y-64723386D01*
X155766781Y-64905776D01*
X155703522Y-65100465D01*
X155671500Y-65302648D01*
X140500500Y-65302648D01*
X140500500Y-63247939D01*
X140520185Y-63180900D01*
X140536814Y-63160263D01*
X140689093Y-63007984D01*
X160859500Y-63007984D01*
X160859500Y-65008015D01*
X160870000Y-65110795D01*
X160870001Y-65110796D01*
X160925186Y-65277335D01*
X160925187Y-65277337D01*
X161017286Y-65426651D01*
X161017289Y-65426655D01*
X161141344Y-65550710D01*
X161141348Y-65550713D01*
X161290662Y-65642812D01*
X161290664Y-65642813D01*
X161290666Y-65642814D01*
X161457203Y-65697999D01*
X161559992Y-65708500D01*
X161559997Y-65708500D01*
X163560003Y-65708500D01*
X163560008Y-65708500D01*
X163662797Y-65697999D01*
X163829334Y-65642814D01*
X163978655Y-65550711D01*
X164102711Y-65426655D01*
X164194814Y-65277334D01*
X164249999Y-65110797D01*
X164260500Y-65008008D01*
X164260500Y-63007992D01*
X164249999Y-62905203D01*
X164194814Y-62738666D01*
X164169604Y-62697795D01*
X164102713Y-62589348D01*
X164102710Y-62589344D01*
X163978655Y-62465289D01*
X163978651Y-62465286D01*
X163829337Y-62373187D01*
X163829335Y-62373186D01*
X163746065Y-62345593D01*
X163662797Y-62318001D01*
X163662795Y-62318000D01*
X163560015Y-62307500D01*
X163560008Y-62307500D01*
X161559992Y-62307500D01*
X161559984Y-62307500D01*
X161457204Y-62318000D01*
X161457203Y-62318001D01*
X161290664Y-62373186D01*
X161290662Y-62373187D01*
X161141348Y-62465286D01*
X161141344Y-62465289D01*
X161017289Y-62589344D01*
X161017286Y-62589348D01*
X160925187Y-62738662D01*
X160925186Y-62738664D01*
X160870001Y-62905203D01*
X160870000Y-62905204D01*
X160859500Y-63007984D01*
X140689093Y-63007984D01*
X142213502Y-61483575D01*
X169115000Y-61483575D01*
X169115000Y-61706424D01*
X169144085Y-61927354D01*
X169144088Y-61927367D01*
X169201763Y-62142618D01*
X169287045Y-62348502D01*
X169287054Y-62348520D01*
X169398464Y-62541491D01*
X169398473Y-62541504D01*
X169449040Y-62607403D01*
X169449043Y-62607403D01*
X170250387Y-61806059D01*
X170255889Y-61826591D01*
X170334881Y-61963408D01*
X170446592Y-62075119D01*
X170583409Y-62154111D01*
X170603940Y-62159612D01*
X169802595Y-62960955D01*
X169802595Y-62960956D01*
X169868507Y-63011533D01*
X170061485Y-63122949D01*
X170061497Y-63122954D01*
X170267381Y-63208236D01*
X170482632Y-63265911D01*
X170482645Y-63265914D01*
X170703575Y-63295000D01*
X170926425Y-63295000D01*
X171147354Y-63265914D01*
X171147367Y-63265911D01*
X171362618Y-63208236D01*
X171568502Y-63122954D01*
X171568514Y-63122949D01*
X171761498Y-63011530D01*
X171827403Y-62960957D01*
X171827404Y-62960956D01*
X171026059Y-62159612D01*
X171046591Y-62154111D01*
X171183408Y-62075119D01*
X171295119Y-61963408D01*
X171374111Y-61826591D01*
X171379612Y-61806060D01*
X172180956Y-62607404D01*
X172180957Y-62607403D01*
X172231530Y-62541498D01*
X172342949Y-62348514D01*
X172342954Y-62348502D01*
X172428236Y-62142618D01*
X172485911Y-61927367D01*
X172485914Y-61927354D01*
X172515000Y-61706424D01*
X172515000Y-61483575D01*
X172485914Y-61262645D01*
X172485911Y-61262632D01*
X172428236Y-61047381D01*
X172342954Y-60841497D01*
X172342949Y-60841485D01*
X172234609Y-60653834D01*
X172234608Y-60653832D01*
X172231533Y-60648507D01*
X172190462Y-60594983D01*
X183084500Y-60594983D01*
X183084500Y-62595001D01*
X183084501Y-62595018D01*
X183095000Y-62697796D01*
X183095001Y-62697799D01*
X183150185Y-62864331D01*
X183150187Y-62864336D01*
X183175394Y-62905203D01*
X183242288Y-63013656D01*
X183366344Y-63137712D01*
X183515666Y-63229814D01*
X183682203Y-63284999D01*
X183784991Y-63295500D01*
X185785008Y-63295499D01*
X185887797Y-63284999D01*
X186054334Y-63229814D01*
X186203656Y-63137712D01*
X186327712Y-63013656D01*
X186419814Y-62864334D01*
X186474999Y-62697797D01*
X186485500Y-62595009D01*
X186485499Y-61572648D01*
X187294500Y-61572648D01*
X187294500Y-61777351D01*
X187326522Y-61979534D01*
X187389781Y-62174223D01*
X187453691Y-62299653D01*
X187481745Y-62354711D01*
X187482715Y-62356613D01*
X187603028Y-62522213D01*
X187747786Y-62666971D01*
X187846468Y-62738666D01*
X187913390Y-62787287D01*
X188029607Y-62846503D01*
X188095776Y-62880218D01*
X188095778Y-62880218D01*
X188095781Y-62880220D01*
X188172671Y-62905203D01*
X188290465Y-62943477D01*
X188391557Y-62959488D01*
X188492648Y-62975500D01*
X188492649Y-62975500D01*
X188697351Y-62975500D01*
X188697352Y-62975500D01*
X188899534Y-62943477D01*
X189094219Y-62880220D01*
X189276610Y-62787287D01*
X189399781Y-62697799D01*
X189442213Y-62666971D01*
X189442215Y-62666968D01*
X189442219Y-62666966D01*
X189586966Y-62522219D01*
X189586968Y-62522215D01*
X189586971Y-62522213D01*
X189695243Y-62373187D01*
X189707287Y-62356610D01*
X189800220Y-62174219D01*
X189863477Y-61979534D01*
X189895500Y-61777352D01*
X189895500Y-61572648D01*
X189863477Y-61370466D01*
X189800220Y-61175781D01*
X189800218Y-61175778D01*
X189800218Y-61175776D01*
X189766503Y-61109607D01*
X189707287Y-60993390D01*
X189699556Y-60982749D01*
X189586971Y-60827786D01*
X189442213Y-60683028D01*
X189276613Y-60562715D01*
X189276612Y-60562714D01*
X189276610Y-60562713D01*
X189219653Y-60533691D01*
X189094223Y-60469781D01*
X188899534Y-60406522D01*
X188724995Y-60378878D01*
X188697352Y-60374500D01*
X188492648Y-60374500D01*
X188468329Y-60378351D01*
X188290465Y-60406522D01*
X188095776Y-60469781D01*
X187913386Y-60562715D01*
X187747786Y-60683028D01*
X187603028Y-60827786D01*
X187482715Y-60993386D01*
X187389781Y-61175776D01*
X187326522Y-61370465D01*
X187294500Y-61572648D01*
X186485499Y-61572648D01*
X186485499Y-60594992D01*
X186474999Y-60492203D01*
X186419814Y-60325666D01*
X186327712Y-60176344D01*
X186203656Y-60052288D01*
X186054334Y-59960186D01*
X185887797Y-59905001D01*
X185887795Y-59905000D01*
X185785010Y-59894500D01*
X183784998Y-59894500D01*
X183784981Y-59894501D01*
X183682203Y-59905000D01*
X183682200Y-59905001D01*
X183515668Y-59960185D01*
X183515663Y-59960187D01*
X183366342Y-60052289D01*
X183242289Y-60176342D01*
X183150187Y-60325663D01*
X183150185Y-60325668D01*
X183134004Y-60374500D01*
X183095001Y-60492203D01*
X183095001Y-60492204D01*
X183095000Y-60492204D01*
X183084500Y-60594983D01*
X172190462Y-60594983D01*
X172180956Y-60582595D01*
X172180955Y-60582595D01*
X171379612Y-61383939D01*
X171374111Y-61363409D01*
X171295119Y-61226592D01*
X171183408Y-61114881D01*
X171046591Y-61035889D01*
X171026058Y-61030387D01*
X171827403Y-60229043D01*
X171827403Y-60229040D01*
X171761504Y-60178473D01*
X171761491Y-60178464D01*
X171568520Y-60067054D01*
X171568502Y-60067045D01*
X171362618Y-59981763D01*
X171147367Y-59924088D01*
X171147354Y-59924085D01*
X170926425Y-59895000D01*
X170703575Y-59895000D01*
X170482645Y-59924085D01*
X170482632Y-59924088D01*
X170267381Y-59981763D01*
X170061497Y-60067045D01*
X170061479Y-60067054D01*
X169868511Y-60178462D01*
X169802595Y-60229042D01*
X170603941Y-61030387D01*
X170583409Y-61035889D01*
X170446592Y-61114881D01*
X170334881Y-61226592D01*
X170255889Y-61363409D01*
X170250387Y-61383940D01*
X169449042Y-60582595D01*
X169398462Y-60648511D01*
X169287054Y-60841479D01*
X169287045Y-60841497D01*
X169201763Y-61047381D01*
X169144088Y-61262632D01*
X169144085Y-61262645D01*
X169115000Y-61483575D01*
X142213502Y-61483575D01*
X145059327Y-58637749D01*
X145120648Y-58604266D01*
X145166399Y-58602959D01*
X145308713Y-58625500D01*
X145308715Y-58625500D01*
X145521286Y-58625500D01*
X145521287Y-58625500D01*
X145731243Y-58592246D01*
X145933412Y-58526557D01*
X146122816Y-58430051D01*
X146172721Y-58393793D01*
X146294786Y-58305109D01*
X146294788Y-58305106D01*
X146294792Y-58305104D01*
X146445104Y-58154792D01*
X146445106Y-58154788D01*
X146445109Y-58154786D01*
X146559109Y-57997876D01*
X146570051Y-57982816D01*
X146666557Y-57793412D01*
X146732246Y-57591243D01*
X146765500Y-57381287D01*
X146765500Y-56918713D01*
X146732246Y-56708757D01*
X146666557Y-56506588D01*
X146599501Y-56374983D01*
X158943500Y-56374983D01*
X158943500Y-57925001D01*
X158943501Y-57925018D01*
X158954000Y-58027796D01*
X158954001Y-58027799D01*
X158999894Y-58166294D01*
X159009186Y-58194334D01*
X159101288Y-58343656D01*
X159225344Y-58467712D01*
X159374666Y-58559814D01*
X159541203Y-58614999D01*
X159643991Y-58625500D01*
X160944008Y-58625499D01*
X161046797Y-58614999D01*
X161213334Y-58559814D01*
X161362656Y-58467712D01*
X161486712Y-58343656D01*
X161578814Y-58194334D01*
X161578814Y-58194331D01*
X161582178Y-58188879D01*
X161634126Y-58142154D01*
X161703088Y-58130931D01*
X161767170Y-58158774D01*
X161775398Y-58166294D01*
X161914213Y-58305109D01*
X162086179Y-58430048D01*
X162086181Y-58430049D01*
X162086184Y-58430051D01*
X162275588Y-58526557D01*
X162477757Y-58592246D01*
X162687713Y-58625500D01*
X162687714Y-58625500D01*
X162900286Y-58625500D01*
X162900287Y-58625500D01*
X163110243Y-58592246D01*
X163312412Y-58526557D01*
X163501816Y-58430051D01*
X163551721Y-58393793D01*
X163673786Y-58305109D01*
X163673788Y-58305106D01*
X163673792Y-58305104D01*
X163824104Y-58154792D01*
X163824106Y-58154788D01*
X163824109Y-58154786D01*
X163938109Y-57997876D01*
X163949051Y-57982816D01*
X164045557Y-57793412D01*
X164111246Y-57591243D01*
X164144500Y-57381287D01*
X164144500Y-56918713D01*
X164111246Y-56708757D01*
X164045557Y-56506588D01*
X163949051Y-56317184D01*
X163949049Y-56317181D01*
X163949048Y-56317179D01*
X163824109Y-56145213D01*
X163673786Y-55994890D01*
X163501820Y-55869951D01*
X163312414Y-55773444D01*
X163312413Y-55773443D01*
X163312412Y-55773443D01*
X163110243Y-55707754D01*
X163110241Y-55707753D01*
X163110240Y-55707753D01*
X162948957Y-55682208D01*
X162900287Y-55674500D01*
X162687713Y-55674500D01*
X162639042Y-55682208D01*
X162477760Y-55707753D01*
X162275585Y-55773444D01*
X162086179Y-55869951D01*
X161914215Y-55994889D01*
X161775398Y-56133706D01*
X161714075Y-56167190D01*
X161644383Y-56162206D01*
X161588450Y-56120334D01*
X161582178Y-56111120D01*
X161536900Y-56037713D01*
X161486712Y-55956344D01*
X161362656Y-55832288D01*
X161213334Y-55740186D01*
X161046797Y-55685001D01*
X161046795Y-55685000D01*
X160944010Y-55674500D01*
X159643998Y-55674500D01*
X159643981Y-55674501D01*
X159541203Y-55685000D01*
X159541200Y-55685001D01*
X159374668Y-55740185D01*
X159374663Y-55740187D01*
X159225342Y-55832289D01*
X159101289Y-55956342D01*
X159009187Y-56105663D01*
X159009185Y-56105668D01*
X159006313Y-56114336D01*
X158954001Y-56272203D01*
X158954001Y-56272204D01*
X158954000Y-56272204D01*
X158943500Y-56374983D01*
X146599501Y-56374983D01*
X146570051Y-56317184D01*
X146570049Y-56317181D01*
X146570048Y-56317179D01*
X146445109Y-56145213D01*
X146294786Y-55994890D01*
X146122820Y-55869951D01*
X145933414Y-55773444D01*
X145933413Y-55773443D01*
X145933412Y-55773443D01*
X145731243Y-55707754D01*
X145731241Y-55707753D01*
X145731240Y-55707753D01*
X145569957Y-55682208D01*
X145521287Y-55674500D01*
X145308713Y-55674500D01*
X145260042Y-55682208D01*
X145098760Y-55707753D01*
X144896585Y-55773444D01*
X144707179Y-55869951D01*
X144535215Y-55994889D01*
X144396398Y-56133706D01*
X144335075Y-56167190D01*
X144265383Y-56162206D01*
X144209450Y-56120334D01*
X144203178Y-56111120D01*
X144157900Y-56037713D01*
X144107712Y-55956344D01*
X143983656Y-55832288D01*
X143834334Y-55740186D01*
X143667797Y-55685001D01*
X143667795Y-55685000D01*
X143565010Y-55674500D01*
X142264998Y-55674500D01*
X142264981Y-55674501D01*
X142162203Y-55685000D01*
X142162200Y-55685001D01*
X141995668Y-55740185D01*
X141995663Y-55740187D01*
X141846342Y-55832289D01*
X141722289Y-55956342D01*
X141630187Y-56105663D01*
X141630185Y-56105668D01*
X141627313Y-56114336D01*
X141575001Y-56272203D01*
X141575001Y-56272204D01*
X141575000Y-56272204D01*
X141564500Y-56374983D01*
X141564500Y-57925001D01*
X141564501Y-57925018D01*
X141575000Y-58027796D01*
X141575001Y-58027799D01*
X141620894Y-58166294D01*
X141630186Y-58194334D01*
X141722288Y-58343656D01*
X141846344Y-58467712D01*
X141995666Y-58559814D01*
X142162203Y-58614999D01*
X142264991Y-58625500D01*
X142508059Y-58625499D01*
X142575098Y-58645183D01*
X142620853Y-58697987D01*
X142630797Y-58767146D01*
X142601772Y-58830701D01*
X142595740Y-58837180D01*
X139949347Y-61483575D01*
X139189711Y-62243211D01*
X139133960Y-62298962D01*
X139078209Y-62354712D01*
X138990609Y-62485814D01*
X138990602Y-62485827D01*
X138930264Y-62631498D01*
X138930261Y-62631510D01*
X138899500Y-62786153D01*
X111960500Y-62786153D01*
X111960500Y-56302135D01*
X112999500Y-56302135D01*
X112999500Y-57997870D01*
X112999501Y-57997876D01*
X113005908Y-58057483D01*
X113056202Y-58192328D01*
X113056206Y-58192335D01*
X113142452Y-58307544D01*
X113142455Y-58307547D01*
X113257664Y-58393793D01*
X113257671Y-58393797D01*
X113392517Y-58444091D01*
X113392516Y-58444091D01*
X113399444Y-58444835D01*
X113452127Y-58450500D01*
X115147872Y-58450499D01*
X115207483Y-58444091D01*
X115342331Y-58393796D01*
X115457546Y-58307546D01*
X115543796Y-58192331D01*
X115594091Y-58057483D01*
X115600500Y-57997873D01*
X115600499Y-57047648D01*
X135859500Y-57047648D01*
X135859500Y-57252351D01*
X135891522Y-57454534D01*
X135954781Y-57649223D01*
X136047715Y-57831613D01*
X136168028Y-57997213D01*
X136312786Y-58141971D01*
X136467749Y-58254556D01*
X136478390Y-58262287D01*
X136562423Y-58305104D01*
X136571080Y-58309515D01*
X136621876Y-58357490D01*
X136638671Y-58425311D01*
X136616134Y-58491446D01*
X136571080Y-58530485D01*
X136478386Y-58577715D01*
X136312786Y-58698028D01*
X136168028Y-58842786D01*
X136047715Y-59008386D01*
X135954781Y-59190776D01*
X135891522Y-59385465D01*
X135859500Y-59587648D01*
X135859500Y-59792351D01*
X135891522Y-59994534D01*
X135954781Y-60189223D01*
X136047715Y-60371613D01*
X136168028Y-60537213D01*
X136312786Y-60681971D01*
X136467749Y-60794556D01*
X136478390Y-60802287D01*
X136555344Y-60841497D01*
X136660776Y-60895218D01*
X136660778Y-60895218D01*
X136660781Y-60895220D01*
X136765137Y-60929127D01*
X136855465Y-60958477D01*
X136956557Y-60974488D01*
X137057648Y-60990500D01*
X137057649Y-60990500D01*
X137262351Y-60990500D01*
X137262352Y-60990500D01*
X137464534Y-60958477D01*
X137659219Y-60895220D01*
X137841610Y-60802287D01*
X137934590Y-60734732D01*
X138007213Y-60681971D01*
X138007215Y-60681968D01*
X138007219Y-60681966D01*
X138151966Y-60537219D01*
X138151968Y-60537215D01*
X138151971Y-60537213D01*
X138270187Y-60374500D01*
X138272287Y-60371610D01*
X138365220Y-60189219D01*
X138428477Y-59994534D01*
X138460500Y-59792352D01*
X138460500Y-59587648D01*
X138428477Y-59385466D01*
X138365220Y-59190781D01*
X138365218Y-59190778D01*
X138365218Y-59190776D01*
X138331503Y-59124607D01*
X138272287Y-59008390D01*
X138264556Y-58997749D01*
X138151971Y-58842786D01*
X138007213Y-58698028D01*
X137841614Y-58577715D01*
X137806477Y-58559812D01*
X137748917Y-58530483D01*
X137698123Y-58482511D01*
X137681328Y-58414690D01*
X137703865Y-58348555D01*
X137748917Y-58309516D01*
X137841610Y-58262287D01*
X137862770Y-58246913D01*
X138007213Y-58141971D01*
X138007215Y-58141968D01*
X138007219Y-58141966D01*
X138151966Y-57997219D01*
X138151968Y-57997215D01*
X138151971Y-57997213D01*
X138204732Y-57924590D01*
X138272287Y-57831610D01*
X138365220Y-57649219D01*
X138428477Y-57454534D01*
X138460500Y-57252352D01*
X138460500Y-57047648D01*
X138428477Y-56845466D01*
X138365220Y-56650781D01*
X138365218Y-56650778D01*
X138365218Y-56650776D01*
X138331503Y-56584607D01*
X138272287Y-56468390D01*
X138243036Y-56428129D01*
X138151971Y-56302786D01*
X138007213Y-56158028D01*
X137841613Y-56037715D01*
X137841612Y-56037714D01*
X137841610Y-56037713D01*
X137757577Y-55994896D01*
X137659223Y-55944781D01*
X137464534Y-55881522D01*
X137289995Y-55853878D01*
X137262352Y-55849500D01*
X137057648Y-55849500D01*
X137033329Y-55853351D01*
X136855465Y-55881522D01*
X136660776Y-55944781D01*
X136478386Y-56037715D01*
X136312786Y-56158028D01*
X136168028Y-56302786D01*
X136047715Y-56468386D01*
X135954781Y-56650776D01*
X135891522Y-56845465D01*
X135859500Y-57047648D01*
X115600499Y-57047648D01*
X115600499Y-56302128D01*
X115594091Y-56242517D01*
X115543796Y-56107669D01*
X115543795Y-56107668D01*
X115543793Y-56107664D01*
X115457547Y-55992455D01*
X115457544Y-55992452D01*
X115342335Y-55906206D01*
X115342328Y-55906202D01*
X115207482Y-55855908D01*
X115207483Y-55855908D01*
X115147883Y-55849501D01*
X115147881Y-55849500D01*
X115147873Y-55849500D01*
X115147864Y-55849500D01*
X113452129Y-55849500D01*
X113452123Y-55849501D01*
X113392516Y-55855908D01*
X113257671Y-55906202D01*
X113257664Y-55906206D01*
X113142455Y-55992452D01*
X113142452Y-55992455D01*
X113056206Y-56107664D01*
X113056202Y-56107671D01*
X113005908Y-56242517D01*
X113002717Y-56272203D01*
X112999501Y-56302123D01*
X112999500Y-56302135D01*
X111960500Y-56302135D01*
X111960500Y-53741713D01*
X112441500Y-53741713D01*
X112441500Y-53954286D01*
X112474753Y-54164239D01*
X112474753Y-54164241D01*
X112474754Y-54164243D01*
X112494931Y-54226342D01*
X112540444Y-54366414D01*
X112636951Y-54555820D01*
X112761890Y-54727786D01*
X112912213Y-54878109D01*
X113084179Y-55003048D01*
X113084181Y-55003049D01*
X113084184Y-55003051D01*
X113273588Y-55099557D01*
X113475757Y-55165246D01*
X113685713Y-55198500D01*
X113685714Y-55198500D01*
X113898286Y-55198500D01*
X113898287Y-55198500D01*
X114108243Y-55165246D01*
X114177688Y-55142682D01*
X178992380Y-55142682D01*
X178992380Y-55347317D01*
X179024389Y-55549417D01*
X179087624Y-55744031D01*
X179180521Y-55926350D01*
X179180527Y-55926359D01*
X179212903Y-55970921D01*
X179212904Y-55970922D01*
X179892380Y-55291446D01*
X179892380Y-55297661D01*
X179919639Y-55399394D01*
X179972300Y-55490606D01*
X180046774Y-55565080D01*
X180137986Y-55617741D01*
X180239719Y-55645000D01*
X180245933Y-55645000D01*
X179566456Y-56324474D01*
X179611030Y-56356859D01*
X179793348Y-56449755D01*
X179987962Y-56512990D01*
X180190063Y-56545000D01*
X180394697Y-56545000D01*
X180596797Y-56512990D01*
X180791411Y-56449755D01*
X180973729Y-56356859D01*
X181018301Y-56324474D01*
X180338827Y-55645000D01*
X180345041Y-55645000D01*
X180446774Y-55617741D01*
X180537986Y-55565080D01*
X180612460Y-55490606D01*
X180665121Y-55399394D01*
X180692380Y-55297661D01*
X180692380Y-55291448D01*
X181371853Y-55970921D01*
X181409660Y-55967946D01*
X181478038Y-55982310D01*
X181527795Y-56031361D01*
X181537094Y-56052556D01*
X181555357Y-56107669D01*
X181557566Y-56114333D01*
X181557567Y-56114336D01*
X181590168Y-56167190D01*
X181649668Y-56263656D01*
X181773724Y-56387712D01*
X181923046Y-56479814D01*
X182089583Y-56534999D01*
X182192371Y-56545500D01*
X183392388Y-56545499D01*
X183495177Y-56534999D01*
X183661714Y-56479814D01*
X183811036Y-56387712D01*
X183935092Y-56263656D01*
X184027194Y-56114334D01*
X184082379Y-55947797D01*
X184092880Y-55845009D01*
X184092879Y-54644992D01*
X184082379Y-54542203D01*
X184027194Y-54375666D01*
X183935092Y-54226344D01*
X183811036Y-54102288D01*
X183661714Y-54010186D01*
X183495177Y-53955001D01*
X183495175Y-53955000D01*
X183392390Y-53944500D01*
X182192378Y-53944500D01*
X182192361Y-53944501D01*
X182089583Y-53955000D01*
X182089580Y-53955001D01*
X181923048Y-54010185D01*
X181923043Y-54010187D01*
X181773722Y-54102289D01*
X181649669Y-54226342D01*
X181557567Y-54375663D01*
X181557565Y-54375668D01*
X181537097Y-54437438D01*
X181497324Y-54494883D01*
X181432808Y-54521706D01*
X181409663Y-54522052D01*
X181371854Y-54519076D01*
X180692380Y-55198551D01*
X180692380Y-55192339D01*
X180665121Y-55090606D01*
X180612460Y-54999394D01*
X180537986Y-54924920D01*
X180446774Y-54872259D01*
X180345041Y-54845000D01*
X180338826Y-54845000D01*
X181018302Y-54165524D01*
X181018301Y-54165523D01*
X180973739Y-54133147D01*
X180973730Y-54133141D01*
X180791411Y-54040244D01*
X180596797Y-53977009D01*
X180394697Y-53945000D01*
X180190063Y-53945000D01*
X179987962Y-53977009D01*
X179793348Y-54040244D01*
X179611024Y-54133143D01*
X179566457Y-54165523D01*
X179566457Y-54165524D01*
X180245934Y-54845000D01*
X180239719Y-54845000D01*
X180137986Y-54872259D01*
X180046774Y-54924920D01*
X179972300Y-54999394D01*
X179919639Y-55090606D01*
X179892380Y-55192339D01*
X179892380Y-55198553D01*
X179212904Y-54519077D01*
X179212903Y-54519077D01*
X179180523Y-54563644D01*
X179087624Y-54745968D01*
X179024389Y-54940582D01*
X178992380Y-55142682D01*
X114177688Y-55142682D01*
X114310412Y-55099557D01*
X114499816Y-55003051D01*
X114607355Y-54924920D01*
X114671786Y-54878109D01*
X114671788Y-54878106D01*
X114671792Y-54878104D01*
X114822104Y-54727792D01*
X114822106Y-54727788D01*
X114822109Y-54727786D01*
X114947048Y-54555820D01*
X114947047Y-54555820D01*
X114947051Y-54555816D01*
X115043557Y-54366412D01*
X115109246Y-54164243D01*
X115142500Y-53954287D01*
X115142500Y-53741713D01*
X187625500Y-53741713D01*
X187625500Y-53954286D01*
X187658753Y-54164239D01*
X187658753Y-54164241D01*
X187658754Y-54164243D01*
X187678931Y-54226342D01*
X187724444Y-54366414D01*
X187820951Y-54555820D01*
X187945890Y-54727786D01*
X188096213Y-54878109D01*
X188268179Y-55003048D01*
X188268181Y-55003049D01*
X188268184Y-55003051D01*
X188457588Y-55099557D01*
X188659757Y-55165246D01*
X188869713Y-55198500D01*
X188869714Y-55198500D01*
X189082286Y-55198500D01*
X189082287Y-55198500D01*
X189292243Y-55165246D01*
X189494412Y-55099557D01*
X189683816Y-55003051D01*
X189791355Y-54924920D01*
X189855786Y-54878109D01*
X189855788Y-54878106D01*
X189855792Y-54878104D01*
X190006104Y-54727792D01*
X190006106Y-54727788D01*
X190006109Y-54727786D01*
X190131048Y-54555820D01*
X190131047Y-54555820D01*
X190131051Y-54555816D01*
X190227557Y-54366412D01*
X190293246Y-54164243D01*
X190326500Y-53954287D01*
X190326500Y-53741713D01*
X190293246Y-53531757D01*
X190227557Y-53329588D01*
X190131051Y-53140184D01*
X190131049Y-53140181D01*
X190131048Y-53140179D01*
X190006109Y-52968213D01*
X189855786Y-52817890D01*
X189683820Y-52692951D01*
X189494414Y-52596444D01*
X189494413Y-52596443D01*
X189494412Y-52596443D01*
X189292243Y-52530754D01*
X189292241Y-52530753D01*
X189292240Y-52530753D01*
X189130957Y-52505208D01*
X189082287Y-52497500D01*
X188869713Y-52497500D01*
X188821042Y-52505208D01*
X188659760Y-52530753D01*
X188457585Y-52596444D01*
X188268179Y-52692951D01*
X188096213Y-52817890D01*
X187945890Y-52968213D01*
X187820951Y-53140179D01*
X187724444Y-53329585D01*
X187658753Y-53531760D01*
X187625500Y-53741713D01*
X115142500Y-53741713D01*
X115109246Y-53531757D01*
X115043557Y-53329588D01*
X114947051Y-53140184D01*
X114947049Y-53140181D01*
X114947048Y-53140179D01*
X114822109Y-52968213D01*
X114671786Y-52817890D01*
X114499820Y-52692951D01*
X114310414Y-52596444D01*
X114310413Y-52596443D01*
X114310412Y-52596443D01*
X114108243Y-52530754D01*
X114108241Y-52530753D01*
X114108240Y-52530753D01*
X113946957Y-52505208D01*
X113898287Y-52497500D01*
X113685713Y-52497500D01*
X113637042Y-52505208D01*
X113475760Y-52530753D01*
X113273585Y-52596444D01*
X113084179Y-52692951D01*
X112912213Y-52817890D01*
X112761890Y-52968213D01*
X112636951Y-53140179D01*
X112540444Y-53329585D01*
X112474753Y-53531760D01*
X112441500Y-53741713D01*
X111960500Y-53741713D01*
X111960500Y-51973500D01*
X111980185Y-51906461D01*
X112032989Y-51860706D01*
X112084500Y-51849500D01*
X190835500Y-51849500D01*
X190902539Y-51869185D01*
G37*
%TD.AperFunction*%
%TD*%
M02*
