M48
; DRILL file {KiCad 9.0.6} date 2025-11-16T23:41:58-0800
; FORMAT={-:-/ absolute / metric / decimal}
; #@! TF.CreationDate,2025-11-16T23:41:58-08:00
; #@! TF.GenerationSoftware,Kicad,Pcbnew,9.0.6
; #@! TF.FileFunction,Plated,1,4,PTH
FMAT,2
METRIC
; #@! TA.AperFunction,Plated,PTH,ViaDrill
T1C0.300
; #@! TA.AperFunction,Plated,PTH,ComponentDrill
T2C0.800
; #@! TA.AperFunction,Plated,PTH,ComponentDrill
T3C0.950
; #@! TA.AperFunction,Plated,PTH,ComponentDrill
T4C1.000
; #@! TA.AperFunction,Plated,PTH,ComponentDrill
T5C1.200
%
G90
G05
T1
X136.153Y-83.82
X139.7Y-90.932
X155.956Y-64.008
X162.052Y-84.328
T2
X117.475Y-57.15
X117.475Y-71.12
X119.0Y-76.2
X119.0Y-91.44
X121.54Y-76.2
X121.54Y-91.44
X124.08Y-76.2
X124.08Y-91.44
X126.62Y-76.2
X126.62Y-91.44
X129.16Y-76.2
X129.16Y-91.44
X131.7Y-76.2
X131.7Y-91.44
X134.24Y-76.2
X134.24Y-91.44
X136.78Y-76.2
X136.78Y-91.44
X140.335Y-57.15
X140.335Y-59.69
X140.335Y-68.58
X140.335Y-71.12
X156.972Y-56.468
X156.972Y-61.468
X157.734Y-71.755
X157.734Y-79.375
X157.988Y-86.36
X157.988Y-91.36
X164.084Y-57.952
X164.084Y-60.452
X174.244Y-87.924
X174.244Y-90.424
X183.388Y-86.606
X183.388Y-91.606
T3
X144.86Y-88.9
X147.36Y-63.5
X147.36Y-76.2
X147.36Y-88.9
X149.86Y-63.5
X149.86Y-76.2
X149.86Y-88.9
T4
X164.592Y-85.344
X164.592Y-87.884
X164.592Y-90.424
T5
X164.084Y-67.31
X164.084Y-80.01
X171.45Y-56.896
X171.45Y-82.296
X185.42Y-56.896
X185.42Y-82.296
M30
