%TF.GenerationSoftware,KiCad,Pcbnew,9.0.6*%
%TF.CreationDate,2025-11-19T13:25:57-08:00*%
%TF.ProjectId,schematic,73636865-6d61-4746-9963-2e6b69636164,rev?*%
%TF.SameCoordinates,Original*%
%TF.FileFunction,Copper,L4,Bot*%
%TF.FilePolarity,Positive*%
%FSLAX46Y46*%
G04 Gerber Fmt 4.6, Leading zero omitted, Abs format (unit mm)*
G04 Created by KiCad (PCBNEW 9.0.6) date 2025-11-19 13:25:57*
%MOMM*%
%LPD*%
G01*
G04 APERTURE LIST*
G04 Aperture macros list*
%AMRoundRect*
0 Rectangle with rounded corners*
0 $1 Rounding radius*
0 $2 $3 $4 $5 $6 $7 $8 $9 X,Y pos of 4 corners*
0 Add a 4 corners polygon primitive as box body*
4,1,4,$2,$3,$4,$5,$6,$7,$8,$9,$2,$3,0*
0 Add four circle primitives for the rounded corners*
1,1,$1+$1,$2,$3*
1,1,$1+$1,$4,$5*
1,1,$1+$1,$6,$7*
1,1,$1+$1,$8,$9*
0 Add four rect primitives between the rounded corners*
20,1,$1+$1,$2,$3,$4,$5,0*
20,1,$1+$1,$4,$5,$6,$7,0*
20,1,$1+$1,$6,$7,$8,$9,0*
20,1,$1+$1,$8,$9,$2,$3,0*%
G04 Aperture macros list end*
%TA.AperFunction,ComponentPad*%
%ADD10C,1.600000*%
%TD*%
%TA.AperFunction,ComponentPad*%
%ADD11RoundRect,0.250000X-0.600000X-0.725000X0.600000X-0.725000X0.600000X0.725000X-0.600000X0.725000X0*%
%TD*%
%TA.AperFunction,ComponentPad*%
%ADD12O,1.700000X1.950000*%
%TD*%
%TA.AperFunction,ComponentPad*%
%ADD13RoundRect,0.250000X0.550000X0.550000X-0.550000X0.550000X-0.550000X-0.550000X0.550000X-0.550000X0*%
%TD*%
%TA.AperFunction,ComponentPad*%
%ADD14R,1.600000X1.600000*%
%TD*%
%TA.AperFunction,ComponentPad*%
%ADD15RoundRect,0.250000X-0.650000X1.635000X-0.650000X-1.635000X0.650000X-1.635000X0.650000X1.635000X0*%
%TD*%
%TA.AperFunction,ComponentPad*%
%ADD16RoundRect,0.250000X0.650000X-1.635000X0.650000X1.635000X-0.650000X1.635000X-0.650000X-1.635000X0*%
%TD*%
%TA.AperFunction,ComponentPad*%
%ADD17R,1.700000X1.700000*%
%TD*%
%TA.AperFunction,ComponentPad*%
%ADD18C,1.700000*%
%TD*%
%TA.AperFunction,ComponentPad*%
%ADD19RoundRect,0.250000X0.600000X0.725000X-0.600000X0.725000X-0.600000X-0.725000X0.600000X-0.725000X0*%
%TD*%
%TA.AperFunction,ComponentPad*%
%ADD20RoundRect,0.250000X-0.950000X0.950000X-0.950000X-0.950000X0.950000X-0.950000X0.950000X0.950000X0*%
%TD*%
%TA.AperFunction,ComponentPad*%
%ADD21C,2.400000*%
%TD*%
%TA.AperFunction,ComponentPad*%
%ADD22RoundRect,0.250001X-0.949999X0.949999X-0.949999X-0.949999X0.949999X-0.949999X0.949999X0.949999X0*%
%TD*%
%TA.AperFunction,ViaPad*%
%ADD23C,0.600000*%
%TD*%
%TA.AperFunction,Conductor*%
%ADD24C,0.600000*%
%TD*%
%TA.AperFunction,Conductor*%
%ADD25C,0.400000*%
%TD*%
G04 APERTURE END LIST*
D10*
%TO.P,C5,1*%
%TO.N,Net-(U2-VCC)*%
X76835000Y-63500000D03*
%TO.P,C5,2*%
%TO.N,GND*%
X76835000Y-58500000D03*
%TD*%
%TO.P,R5,1*%
%TO.N,BATT CHARGE*%
X83185000Y-53340000D03*
%TO.P,R5,2*%
%TO.N,+5V*%
X83185000Y-45720000D03*
%TD*%
D11*
%TO.P,J1,1,Pin_1*%
%TO.N,Net-(IN5822-K)*%
X86507000Y-27051000D03*
D12*
%TO.P,J1,2,Pin_2*%
%TO.N,VD*%
X89007000Y-27051000D03*
%TD*%
D13*
%TO.P,C4,1*%
%TO.N,VD*%
X109005380Y-25146000D03*
D10*
%TO.P,C4,2*%
%TO.N,GND*%
X106505380Y-25146000D03*
%TD*%
D14*
%TO.P,U3,1,IN+*%
%TO.N,+5V*%
X40513000Y-27051000D03*
D10*
%TO.P,U3,2,IN-*%
%TO.N,GND*%
X40513000Y-41021000D03*
%TO.P,U3,3,OUT+*%
%TO.N,Net-(Q1-D)*%
X63373000Y-27051000D03*
%TO.P,U3,4,OUT-*%
%TO.N,GND*%
X63373000Y-41021000D03*
%TO.P,U3,5,B+*%
%TO.N,+BATT*%
X63373000Y-29591000D03*
%TO.P,U3,6,B-*%
%TO.N,-BATT*%
X63373000Y-38481000D03*
%TD*%
%TO.P,R1,1*%
%TO.N,+5V*%
X85090000Y-35560000D03*
%TO.P,R1,2*%
%TO.N,GND*%
X85090000Y-43180000D03*
%TD*%
D15*
%TO.P,U1,1,5V*%
%TO.N,+5VA*%
X42418000Y-44851000D03*
%TO.P,U1,2,GND*%
%TO.N,GND*%
X44958000Y-44851000D03*
%TO.P,U1,3,3V3*%
%TO.N,unconnected-(U1-3V3-Pad3)*%
X47498000Y-44851000D03*
%TO.P,U1,4,D4*%
%TO.N,BATT CHARGE*%
X50038000Y-44851000D03*
%TO.P,U1,5,D3*%
%TO.N,BATT LEVEL*%
X52578000Y-44851000D03*
%TO.P,U1,6,D2*%
%TO.N,unconnected-(U1-D2-Pad6)*%
X55118000Y-44851000D03*
%TO.P,U1,7,D1*%
%TO.N,LED*%
X57658000Y-44851000D03*
%TO.P,U1,8,D0*%
%TO.N,MIC*%
X60198000Y-44851000D03*
D16*
%TO.P,U1,9,D5*%
%TO.N,unconnected-(U1-D5-Pad9)*%
X42418000Y-61321000D03*
%TO.P,U1,10,D6*%
%TO.N,unconnected-(U1-D6-Pad10)*%
X44958000Y-61321000D03*
%TO.P,U1,11,D7*%
%TO.N,unconnected-(U1-D7-Pad11)*%
X47498000Y-61321000D03*
%TO.P,U1,12,D8*%
%TO.N,unconnected-(U1-D8-Pad12)*%
X50038000Y-61321000D03*
%TO.P,U1,13,D9*%
%TO.N,unconnected-(U1-D9-Pad13)*%
X52578000Y-61321000D03*
%TO.P,U1,14,D10*%
%TO.N,unconnected-(U1-D10-Pad14)*%
X55118000Y-61321000D03*
%TO.P,U1,15,D20*%
%TO.N,unconnected-(U1-D20-Pad15)*%
X57658000Y-61321000D03*
%TO.P,U1,16,D21*%
%TO.N,unconnected-(U1-D21-Pad16)*%
X60198000Y-61321000D03*
%TD*%
D12*
%TO.P,J2,1,Pin_1*%
%TO.N,+BATT*%
X69128000Y-27051000D03*
D11*
%TO.P,J2,2,Pin_2*%
%TO.N,-BATT*%
X71628000Y-27051000D03*
%TD*%
D17*
%TO.P,U5,1,GND*%
%TO.N,GND*%
X92075000Y-62357000D03*
D18*
%TO.P,U5,2,DIN*%
%TO.N,Net-(U5-DIN)*%
X89535000Y-62357000D03*
%TO.P,U5,3,VDD*%
%TO.N,+5VA*%
X86995000Y-62357000D03*
%TD*%
D10*
%TO.P,R4,1*%
%TO.N,GND*%
X80010000Y-53340000D03*
%TO.P,R4,2*%
%TO.N,BATT LEVEL*%
X80010000Y-45720000D03*
%TD*%
D13*
%TO.P,C1,1*%
%TO.N,+5VA*%
X110323000Y-63246000D03*
D10*
%TO.P,C1,2*%
%TO.N,GND*%
X107823000Y-63246000D03*
%TD*%
%TO.P,R6,1*%
%TO.N,GND*%
X76835000Y-45720000D03*
%TO.P,R6,2*%
%TO.N,BATT CHARGE*%
X76835000Y-53340000D03*
%TD*%
D17*
%TO.P,U6,1,ADJ*%
%TO.N,GND*%
X70993000Y-54356000D03*
D18*
%TO.P,U6,2,VO*%
%TO.N,Net-(U2-VCC)*%
X68453000Y-54356000D03*
%TO.P,U6,3,VI*%
%TO.N,+5VA*%
X65913000Y-54356000D03*
%TD*%
D10*
%TO.P,R3,1*%
%TO.N,BATT LEVEL*%
X81915000Y-43180000D03*
%TO.P,R3,2*%
%TO.N,+BATT*%
X81915000Y-35560000D03*
%TD*%
%TO.P,C3,1*%
%TO.N,VD*%
X114808000Y-31576000D03*
%TO.P,C3,2*%
%TO.N,GND*%
X114808000Y-36576000D03*
%TD*%
%TO.P,R2,1*%
%TO.N,LED*%
X92075000Y-49657000D03*
%TO.P,R2,2*%
%TO.N,Net-(U5-DIN)*%
X92075000Y-57277000D03*
%TD*%
%TO.P,C6,1*%
%TO.N,+5VA*%
X88265000Y-57150000D03*
%TO.P,C6,2*%
%TO.N,GND*%
X88265000Y-52150000D03*
%TD*%
%TO.P,C2,1*%
%TO.N,+5VA*%
X114808000Y-55626000D03*
%TO.P,C2,2*%
%TO.N,GND*%
X114808000Y-60626000D03*
%TD*%
D19*
%TO.P,U2,1,VCC*%
%TO.N,Net-(U2-VCC)*%
X71628000Y-60786000D03*
D12*
%TO.P,U2,2,GND*%
%TO.N,GND*%
X69128000Y-60786000D03*
%TO.P,U2,3,OUT*%
%TO.N,MIC*%
X66628000Y-60786000D03*
%TD*%
D20*
%TO.P,U4,1,IN+*%
%TO.N,VD*%
X110998000Y-31496000D03*
D21*
%TO.P,U4,2,IN-*%
%TO.N,GND*%
X97028000Y-31496000D03*
%TO.P,U4,3,OUT+*%
%TO.N,+5VA*%
X110998000Y-56896000D03*
%TO.P,U4,4,OUT-*%
%TO.N,GND*%
X97028000Y-56896000D03*
%TD*%
D22*
%TO.P,IN5822,1,K*%
%TO.N,Net-(IN5822-K)*%
X90805000Y-33909000D03*
D21*
%TO.P,IN5822,2,A*%
%TO.N,+5V*%
X90805000Y-46609000D03*
%TD*%
D23*
%TO.N,+5VA*%
X62230000Y-42545000D03*
%TO.N,BATT LEVEL*%
X74422000Y-49022000D03*
X74422000Y-50292000D03*
%TO.N,+BATT*%
X75565000Y-33020000D03*
X75565000Y-30480000D03*
%TO.N,-BATT*%
X65913000Y-38481000D03*
%TD*%
D24*
%TO.N,+5VA*%
X62230000Y-42545000D02*
X62230000Y-50673000D01*
X62230000Y-50673000D02*
X65913000Y-54356000D01*
D25*
%TO.N,BATT LEVEL*%
X74422000Y-49022000D02*
X74422000Y-50292000D01*
%TO.N,MIC*%
X59563000Y-52451000D02*
X66628000Y-59516000D01*
X59563000Y-46101000D02*
X60198000Y-45466000D01*
X66628000Y-59516000D02*
X66628000Y-60786000D01*
X59563000Y-52451000D02*
X59563000Y-46101000D01*
%TO.N,+BATT*%
X75565000Y-30480000D02*
X75565000Y-33020000D01*
D24*
%TO.N,-BATT*%
X71628000Y-27051000D02*
X71628000Y-32766000D01*
X71628000Y-32766000D02*
X65913000Y-38481000D01*
%TD*%
%TA.AperFunction,Conductor*%
%TO.N,GND*%
G36*
X117115539Y-21770185D02*
G01*
X117161294Y-21822989D01*
X117172500Y-21874500D01*
X117172500Y-66260500D01*
X117152815Y-66327539D01*
X117100011Y-66373294D01*
X117048500Y-66384500D01*
X38297500Y-66384500D01*
X38230461Y-66364815D01*
X38184706Y-66312011D01*
X38173500Y-66260500D01*
X38173500Y-64409713D01*
X38654500Y-64409713D01*
X38654500Y-64622286D01*
X38687753Y-64832239D01*
X38753444Y-65034414D01*
X38849951Y-65223820D01*
X38974890Y-65395786D01*
X39125213Y-65546109D01*
X39297179Y-65671048D01*
X39297181Y-65671049D01*
X39297184Y-65671051D01*
X39486588Y-65767557D01*
X39688757Y-65833246D01*
X39898713Y-65866500D01*
X39898714Y-65866500D01*
X40111286Y-65866500D01*
X40111287Y-65866500D01*
X40321243Y-65833246D01*
X40523412Y-65767557D01*
X40712816Y-65671051D01*
X40754788Y-65640557D01*
X40884786Y-65546109D01*
X40884788Y-65546106D01*
X40884792Y-65546104D01*
X41035104Y-65395792D01*
X41035106Y-65395788D01*
X41035109Y-65395786D01*
X41160048Y-65223820D01*
X41160047Y-65223820D01*
X41160051Y-65223816D01*
X41256557Y-65034412D01*
X41322246Y-64832243D01*
X41355500Y-64622287D01*
X41355500Y-64409713D01*
X41322246Y-64199757D01*
X41256557Y-63997588D01*
X41160051Y-63808184D01*
X41160049Y-63808181D01*
X41160048Y-63808179D01*
X41035109Y-63636213D01*
X40884786Y-63485890D01*
X40712820Y-63360951D01*
X40523414Y-63264444D01*
X40523413Y-63264443D01*
X40523412Y-63264443D01*
X40321243Y-63198754D01*
X40321241Y-63198753D01*
X40321240Y-63198753D01*
X40159957Y-63173208D01*
X40111287Y-63165500D01*
X39898713Y-63165500D01*
X39850042Y-63173208D01*
X39688760Y-63198753D01*
X39486585Y-63264444D01*
X39297179Y-63360951D01*
X39125213Y-63485890D01*
X38974890Y-63636213D01*
X38849951Y-63808179D01*
X38753444Y-63997585D01*
X38687753Y-64199760D01*
X38654500Y-64409713D01*
X38173500Y-64409713D01*
X38173500Y-59635983D01*
X41017500Y-59635983D01*
X41017500Y-63006001D01*
X41017501Y-63006018D01*
X41028000Y-63108796D01*
X41028001Y-63108799D01*
X41083185Y-63275331D01*
X41083187Y-63275336D01*
X41097574Y-63298661D01*
X41175288Y-63424656D01*
X41299344Y-63548712D01*
X41448666Y-63640814D01*
X41615203Y-63695999D01*
X41717991Y-63706500D01*
X43118008Y-63706499D01*
X43220797Y-63695999D01*
X43387334Y-63640814D01*
X43536656Y-63548712D01*
X43600319Y-63485049D01*
X43661642Y-63451564D01*
X43731334Y-63456548D01*
X43775681Y-63485049D01*
X43839344Y-63548712D01*
X43988666Y-63640814D01*
X44155203Y-63695999D01*
X44257991Y-63706500D01*
X45658008Y-63706499D01*
X45760797Y-63695999D01*
X45927334Y-63640814D01*
X46076656Y-63548712D01*
X46140319Y-63485049D01*
X46201642Y-63451564D01*
X46271334Y-63456548D01*
X46315681Y-63485049D01*
X46379344Y-63548712D01*
X46528666Y-63640814D01*
X46695203Y-63695999D01*
X46797991Y-63706500D01*
X48198008Y-63706499D01*
X48300797Y-63695999D01*
X48467334Y-63640814D01*
X48616656Y-63548712D01*
X48680319Y-63485049D01*
X48741642Y-63451564D01*
X48811334Y-63456548D01*
X48855681Y-63485049D01*
X48919344Y-63548712D01*
X49068666Y-63640814D01*
X49235203Y-63695999D01*
X49337991Y-63706500D01*
X50738008Y-63706499D01*
X50840797Y-63695999D01*
X51007334Y-63640814D01*
X51156656Y-63548712D01*
X51220319Y-63485049D01*
X51281642Y-63451564D01*
X51351334Y-63456548D01*
X51395681Y-63485049D01*
X51459344Y-63548712D01*
X51608666Y-63640814D01*
X51775203Y-63695999D01*
X51877991Y-63706500D01*
X53278008Y-63706499D01*
X53380797Y-63695999D01*
X53547334Y-63640814D01*
X53696656Y-63548712D01*
X53760319Y-63485049D01*
X53821642Y-63451564D01*
X53891334Y-63456548D01*
X53935681Y-63485049D01*
X53999344Y-63548712D01*
X54148666Y-63640814D01*
X54315203Y-63695999D01*
X54417991Y-63706500D01*
X55818008Y-63706499D01*
X55920797Y-63695999D01*
X56087334Y-63640814D01*
X56236656Y-63548712D01*
X56300319Y-63485049D01*
X56361642Y-63451564D01*
X56431334Y-63456548D01*
X56475681Y-63485049D01*
X56539344Y-63548712D01*
X56688666Y-63640814D01*
X56855203Y-63695999D01*
X56957991Y-63706500D01*
X58358008Y-63706499D01*
X58460797Y-63695999D01*
X58627334Y-63640814D01*
X58776656Y-63548712D01*
X58840319Y-63485049D01*
X58901642Y-63451564D01*
X58971334Y-63456548D01*
X59015681Y-63485049D01*
X59079344Y-63548712D01*
X59228666Y-63640814D01*
X59395203Y-63695999D01*
X59497991Y-63706500D01*
X60898008Y-63706499D01*
X61000797Y-63695999D01*
X61167334Y-63640814D01*
X61316656Y-63548712D01*
X61440712Y-63424656D01*
X61457371Y-63397648D01*
X75534500Y-63397648D01*
X75534500Y-63602352D01*
X75535483Y-63608557D01*
X75566522Y-63804534D01*
X75629781Y-63999223D01*
X75722715Y-64181613D01*
X75843028Y-64347213D01*
X75987786Y-64491971D01*
X76142749Y-64604556D01*
X76153390Y-64612287D01*
X76269607Y-64671503D01*
X76335776Y-64705218D01*
X76335778Y-64705218D01*
X76335781Y-64705220D01*
X76440137Y-64739127D01*
X76530465Y-64768477D01*
X76631557Y-64784488D01*
X76732648Y-64800500D01*
X76732649Y-64800500D01*
X76937351Y-64800500D01*
X76937352Y-64800500D01*
X77139534Y-64768477D01*
X77334219Y-64705220D01*
X77516610Y-64612287D01*
X77621614Y-64535998D01*
X77682213Y-64491971D01*
X77682215Y-64491968D01*
X77682219Y-64491966D01*
X77826966Y-64347219D01*
X77947287Y-64181610D01*
X78040220Y-63999219D01*
X78103477Y-63804534D01*
X78135500Y-63602352D01*
X78135500Y-63397648D01*
X78111272Y-63244680D01*
X78103477Y-63195465D01*
X78069731Y-63091606D01*
X78040220Y-63000781D01*
X78040218Y-63000778D01*
X78040218Y-63000776D01*
X77975244Y-62873259D01*
X77947287Y-62818390D01*
X77902757Y-62757099D01*
X77826971Y-62652786D01*
X77682213Y-62508028D01*
X77516613Y-62387715D01*
X77516612Y-62387714D01*
X77516610Y-62387713D01*
X77455010Y-62356326D01*
X77334223Y-62294781D01*
X77198597Y-62250713D01*
X85644500Y-62250713D01*
X85644500Y-62463286D01*
X85673438Y-62645998D01*
X85677754Y-62673243D01*
X85742743Y-62873259D01*
X85743444Y-62875414D01*
X85839951Y-63064820D01*
X85964890Y-63236786D01*
X86115213Y-63387109D01*
X86287179Y-63512048D01*
X86287181Y-63512049D01*
X86287184Y-63512051D01*
X86476588Y-63608557D01*
X86678757Y-63674246D01*
X86888713Y-63707500D01*
X86888714Y-63707500D01*
X87101286Y-63707500D01*
X87101287Y-63707500D01*
X87311243Y-63674246D01*
X87513412Y-63608557D01*
X87702816Y-63512051D01*
X87789478Y-63449088D01*
X87874786Y-63387109D01*
X87874788Y-63387106D01*
X87874792Y-63387104D01*
X88025104Y-63236792D01*
X88025106Y-63236788D01*
X88025109Y-63236786D01*
X88150048Y-63064820D01*
X88150047Y-63064820D01*
X88150051Y-63064816D01*
X88154514Y-63056054D01*
X88202488Y-63005259D01*
X88270308Y-62988463D01*
X88336444Y-63010999D01*
X88375486Y-63056056D01*
X88379951Y-63064820D01*
X88504890Y-63236786D01*
X88655213Y-63387109D01*
X88827179Y-63512048D01*
X88827181Y-63512049D01*
X88827184Y-63512051D01*
X89016588Y-63608557D01*
X89218757Y-63674246D01*
X89428713Y-63707500D01*
X89428714Y-63707500D01*
X89641286Y-63707500D01*
X89641287Y-63707500D01*
X89851243Y-63674246D01*
X90053412Y-63608557D01*
X90242816Y-63512051D01*
X90329478Y-63449088D01*
X90414784Y-63387110D01*
X90414784Y-63387109D01*
X90414792Y-63387104D01*
X90528717Y-63273178D01*
X90590036Y-63239696D01*
X90659728Y-63244680D01*
X90715662Y-63286551D01*
X90732577Y-63317528D01*
X90781646Y-63449088D01*
X90781649Y-63449093D01*
X90867809Y-63564187D01*
X90867812Y-63564190D01*
X90982906Y-63650350D01*
X90982913Y-63650354D01*
X91117620Y-63700596D01*
X91117627Y-63700598D01*
X91177155Y-63706999D01*
X91177172Y-63707000D01*
X91825000Y-63707000D01*
X91825000Y-62790012D01*
X91882007Y-62822925D01*
X92009174Y-62857000D01*
X92140826Y-62857000D01*
X92267993Y-62822925D01*
X92325000Y-62790012D01*
X92325000Y-63707000D01*
X92972828Y-63707000D01*
X92972844Y-63706999D01*
X93032372Y-63700598D01*
X93032379Y-63700596D01*
X93167086Y-63650354D01*
X93167093Y-63650350D01*
X93282187Y-63564190D01*
X93282190Y-63564187D01*
X93368350Y-63449093D01*
X93368354Y-63449086D01*
X93418596Y-63314379D01*
X93418598Y-63314372D01*
X93424999Y-63254844D01*
X93425000Y-63254827D01*
X93425000Y-63143682D01*
X106523000Y-63143682D01*
X106523000Y-63348317D01*
X106555009Y-63550417D01*
X106618244Y-63745031D01*
X106711141Y-63927350D01*
X106711147Y-63927359D01*
X106743523Y-63971921D01*
X106743524Y-63971922D01*
X107423000Y-63292446D01*
X107423000Y-63298661D01*
X107450259Y-63400394D01*
X107502920Y-63491606D01*
X107577394Y-63566080D01*
X107668606Y-63618741D01*
X107770339Y-63646000D01*
X107776553Y-63646000D01*
X107097076Y-64325474D01*
X107141650Y-64357859D01*
X107323968Y-64450755D01*
X107518582Y-64513990D01*
X107720683Y-64546000D01*
X107925317Y-64546000D01*
X108127417Y-64513990D01*
X108322031Y-64450755D01*
X108504349Y-64357859D01*
X108548921Y-64325474D01*
X107869447Y-63646000D01*
X107875661Y-63646000D01*
X107977394Y-63618741D01*
X108068606Y-63566080D01*
X108143080Y-63491606D01*
X108195741Y-63400394D01*
X108223000Y-63298661D01*
X108223000Y-63292447D01*
X108902473Y-63971921D01*
X108940280Y-63968946D01*
X109008658Y-63983310D01*
X109058415Y-64032361D01*
X109067714Y-64053556D01*
X109074078Y-64072760D01*
X109088186Y-64115333D01*
X109088187Y-64115336D01*
X109123069Y-64171888D01*
X109180288Y-64264656D01*
X109304344Y-64388712D01*
X109453666Y-64480814D01*
X109620203Y-64535999D01*
X109722991Y-64546500D01*
X110923008Y-64546499D01*
X111025797Y-64535999D01*
X111192334Y-64480814D01*
X111341656Y-64388712D01*
X111447655Y-64282713D01*
X113838500Y-64282713D01*
X113838500Y-64495286D01*
X113871753Y-64705239D01*
X113937444Y-64907414D01*
X114033951Y-65096820D01*
X114158890Y-65268786D01*
X114309213Y-65419109D01*
X114481179Y-65544048D01*
X114481181Y-65544049D01*
X114481184Y-65544051D01*
X114670588Y-65640557D01*
X114872757Y-65706246D01*
X115082713Y-65739500D01*
X115082714Y-65739500D01*
X115295286Y-65739500D01*
X115295287Y-65739500D01*
X115505243Y-65706246D01*
X115707412Y-65640557D01*
X115896816Y-65544051D01*
X115918789Y-65528086D01*
X116068786Y-65419109D01*
X116068788Y-65419106D01*
X116068792Y-65419104D01*
X116219104Y-65268792D01*
X116219106Y-65268788D01*
X116219109Y-65268786D01*
X116344048Y-65096820D01*
X116344047Y-65096820D01*
X116344051Y-65096816D01*
X116440557Y-64907412D01*
X116506246Y-64705243D01*
X116539500Y-64495287D01*
X116539500Y-64282713D01*
X116506246Y-64072757D01*
X116440557Y-63870588D01*
X116344051Y-63681184D01*
X116344049Y-63681181D01*
X116344048Y-63681179D01*
X116219109Y-63509213D01*
X116068786Y-63358890D01*
X115896820Y-63233951D01*
X115707414Y-63137444D01*
X115707413Y-63137443D01*
X115707412Y-63137443D01*
X115505243Y-63071754D01*
X115505241Y-63071753D01*
X115505240Y-63071753D01*
X115343957Y-63046208D01*
X115295287Y-63038500D01*
X115082713Y-63038500D01*
X115034042Y-63046208D01*
X114872760Y-63071753D01*
X114670585Y-63137444D01*
X114481179Y-63233951D01*
X114309213Y-63358890D01*
X114158890Y-63509213D01*
X114033951Y-63681179D01*
X113937444Y-63870585D01*
X113871753Y-64072760D01*
X113838500Y-64282713D01*
X111447655Y-64282713D01*
X111465712Y-64264656D01*
X111557814Y-64115334D01*
X111612999Y-63948797D01*
X111623500Y-63846009D01*
X111623499Y-62645992D01*
X111612999Y-62543203D01*
X111557814Y-62376666D01*
X111465712Y-62227344D01*
X111341656Y-62103288D01*
X111192334Y-62011186D01*
X111025797Y-61956001D01*
X111025795Y-61956000D01*
X110923010Y-61945500D01*
X109722998Y-61945500D01*
X109722981Y-61945501D01*
X109620203Y-61956000D01*
X109620200Y-61956001D01*
X109453668Y-62011185D01*
X109453663Y-62011187D01*
X109304342Y-62103289D01*
X109180289Y-62227342D01*
X109088187Y-62376663D01*
X109088185Y-62376668D01*
X109067717Y-62438438D01*
X109027944Y-62495883D01*
X108963428Y-62522706D01*
X108940283Y-62523052D01*
X108902474Y-62520076D01*
X108223000Y-63199551D01*
X108223000Y-63193339D01*
X108195741Y-63091606D01*
X108143080Y-63000394D01*
X108068606Y-62925920D01*
X107977394Y-62873259D01*
X107875661Y-62846000D01*
X107869446Y-62846000D01*
X108548922Y-62166524D01*
X108548921Y-62166523D01*
X108504359Y-62134147D01*
X108504350Y-62134141D01*
X108322031Y-62041244D01*
X108127417Y-61978009D01*
X107925317Y-61946000D01*
X107720683Y-61946000D01*
X107518582Y-61978009D01*
X107323968Y-62041244D01*
X107141644Y-62134143D01*
X107097077Y-62166523D01*
X107097077Y-62166524D01*
X107776554Y-62846000D01*
X107770339Y-62846000D01*
X107668606Y-62873259D01*
X107577394Y-62925920D01*
X107502920Y-63000394D01*
X107450259Y-63091606D01*
X107423000Y-63193339D01*
X107423000Y-63199553D01*
X106743524Y-62520077D01*
X106743523Y-62520077D01*
X106711143Y-62564644D01*
X106618244Y-62746968D01*
X106555009Y-62941582D01*
X106523000Y-63143682D01*
X93425000Y-63143682D01*
X93425000Y-62607000D01*
X92508012Y-62607000D01*
X92540925Y-62549993D01*
X92575000Y-62422826D01*
X92575000Y-62291174D01*
X92540925Y-62164007D01*
X92508012Y-62107000D01*
X93425000Y-62107000D01*
X93425000Y-61459172D01*
X93424999Y-61459155D01*
X93418598Y-61399627D01*
X93418596Y-61399620D01*
X93368354Y-61264913D01*
X93368350Y-61264906D01*
X93282190Y-61149812D01*
X93282187Y-61149809D01*
X93167093Y-61063649D01*
X93167086Y-61063645D01*
X93032379Y-61013403D01*
X93032372Y-61013401D01*
X92972844Y-61007000D01*
X92325000Y-61007000D01*
X92325000Y-61923988D01*
X92267993Y-61891075D01*
X92140826Y-61857000D01*
X92009174Y-61857000D01*
X91882007Y-61891075D01*
X91825000Y-61923988D01*
X91825000Y-61007000D01*
X91177155Y-61007000D01*
X91117627Y-61013401D01*
X91117620Y-61013403D01*
X90982913Y-61063645D01*
X90982906Y-61063649D01*
X90867812Y-61149809D01*
X90867809Y-61149812D01*
X90781649Y-61264906D01*
X90781646Y-61264912D01*
X90732577Y-61396471D01*
X90690705Y-61452404D01*
X90625241Y-61476821D01*
X90556968Y-61461969D01*
X90528714Y-61440818D01*
X90414786Y-61326890D01*
X90242820Y-61201951D01*
X90053414Y-61105444D01*
X90053413Y-61105443D01*
X90053412Y-61105443D01*
X89851243Y-61039754D01*
X89851241Y-61039753D01*
X89851240Y-61039753D01*
X89689957Y-61014208D01*
X89641287Y-61006500D01*
X89428713Y-61006500D01*
X89380042Y-61014208D01*
X89218760Y-61039753D01*
X89016585Y-61105444D01*
X88827179Y-61201951D01*
X88655213Y-61326890D01*
X88504890Y-61477213D01*
X88379949Y-61649182D01*
X88375484Y-61657946D01*
X88327509Y-61708742D01*
X88259688Y-61725536D01*
X88193553Y-61702998D01*
X88154516Y-61657946D01*
X88150050Y-61649182D01*
X88025109Y-61477213D01*
X87874786Y-61326890D01*
X87702820Y-61201951D01*
X87513414Y-61105444D01*
X87513413Y-61105443D01*
X87513412Y-61105443D01*
X87311243Y-61039754D01*
X87311241Y-61039753D01*
X87311240Y-61039753D01*
X87149957Y-61014208D01*
X87101287Y-61006500D01*
X86888713Y-61006500D01*
X86840042Y-61014208D01*
X86678760Y-61039753D01*
X86476585Y-61105444D01*
X86287179Y-61201951D01*
X86115213Y-61326890D01*
X85964890Y-61477213D01*
X85839951Y-61649179D01*
X85743444Y-61838585D01*
X85677753Y-62040760D01*
X85644500Y-62250713D01*
X77198597Y-62250713D01*
X77139534Y-62231522D01*
X76964995Y-62203878D01*
X76937352Y-62199500D01*
X76732648Y-62199500D01*
X76708329Y-62203351D01*
X76530465Y-62231522D01*
X76335776Y-62294781D01*
X76153386Y-62387715D01*
X75987786Y-62508028D01*
X75843028Y-62652786D01*
X75722715Y-62818386D01*
X75629781Y-63000776D01*
X75566522Y-63195465D01*
X75540312Y-63360951D01*
X75534500Y-63397648D01*
X61457371Y-63397648D01*
X61532814Y-63275334D01*
X61587999Y-63108797D01*
X61598500Y-63006009D01*
X61598499Y-59635992D01*
X61597978Y-59630896D01*
X61587999Y-59533203D01*
X61587998Y-59533200D01*
X61578968Y-59505949D01*
X61532814Y-59366666D01*
X61440712Y-59217344D01*
X61316656Y-59093288D01*
X61167334Y-59001186D01*
X61000797Y-58946001D01*
X61000795Y-58946000D01*
X60898010Y-58935500D01*
X59497998Y-58935500D01*
X59497981Y-58935501D01*
X59395203Y-58946000D01*
X59395200Y-58946001D01*
X59228668Y-59001185D01*
X59228663Y-59001187D01*
X59079342Y-59093289D01*
X59015681Y-59156951D01*
X58954358Y-59190436D01*
X58884666Y-59185452D01*
X58840319Y-59156951D01*
X58776657Y-59093289D01*
X58776656Y-59093288D01*
X58627334Y-59001186D01*
X58460797Y-58946001D01*
X58460795Y-58946000D01*
X58358010Y-58935500D01*
X56957998Y-58935500D01*
X56957981Y-58935501D01*
X56855203Y-58946000D01*
X56855200Y-58946001D01*
X56688668Y-59001185D01*
X56688663Y-59001187D01*
X56539342Y-59093289D01*
X56475681Y-59156951D01*
X56414358Y-59190436D01*
X56344666Y-59185452D01*
X56300319Y-59156951D01*
X56236657Y-59093289D01*
X56236656Y-59093288D01*
X56087334Y-59001186D01*
X55920797Y-58946001D01*
X55920795Y-58946000D01*
X55818010Y-58935500D01*
X54417998Y-58935500D01*
X54417981Y-58935501D01*
X54315203Y-58946000D01*
X54315200Y-58946001D01*
X54148668Y-59001185D01*
X54148663Y-59001187D01*
X53999342Y-59093289D01*
X53935681Y-59156951D01*
X53874358Y-59190436D01*
X53804666Y-59185452D01*
X53760319Y-59156951D01*
X53696657Y-59093289D01*
X53696656Y-59093288D01*
X53547334Y-59001186D01*
X53380797Y-58946001D01*
X53380795Y-58946000D01*
X53278010Y-58935500D01*
X51877998Y-58935500D01*
X51877981Y-58935501D01*
X51775203Y-58946000D01*
X51775200Y-58946001D01*
X51608668Y-59001185D01*
X51608663Y-59001187D01*
X51459342Y-59093289D01*
X51395681Y-59156951D01*
X51334358Y-59190436D01*
X51264666Y-59185452D01*
X51220319Y-59156951D01*
X51156657Y-59093289D01*
X51156656Y-59093288D01*
X51007334Y-59001186D01*
X50840797Y-58946001D01*
X50840795Y-58946000D01*
X50738010Y-58935500D01*
X49337998Y-58935500D01*
X49337981Y-58935501D01*
X49235203Y-58946000D01*
X49235200Y-58946001D01*
X49068668Y-59001185D01*
X49068663Y-59001187D01*
X48919342Y-59093289D01*
X48855681Y-59156951D01*
X48794358Y-59190436D01*
X48724666Y-59185452D01*
X48680319Y-59156951D01*
X48616657Y-59093289D01*
X48616656Y-59093288D01*
X48467334Y-59001186D01*
X48300797Y-58946001D01*
X48300795Y-58946000D01*
X48198010Y-58935500D01*
X46797998Y-58935500D01*
X46797981Y-58935501D01*
X46695203Y-58946000D01*
X46695200Y-58946001D01*
X46528668Y-59001185D01*
X46528663Y-59001187D01*
X46379342Y-59093289D01*
X46315681Y-59156951D01*
X46254358Y-59190436D01*
X46184666Y-59185452D01*
X46140319Y-59156951D01*
X46076657Y-59093289D01*
X46076656Y-59093288D01*
X45927334Y-59001186D01*
X45760797Y-58946001D01*
X45760795Y-58946000D01*
X45658010Y-58935500D01*
X44257998Y-58935500D01*
X44257981Y-58935501D01*
X44155203Y-58946000D01*
X44155200Y-58946001D01*
X43988668Y-59001185D01*
X43988663Y-59001187D01*
X43839342Y-59093289D01*
X43775681Y-59156951D01*
X43714358Y-59190436D01*
X43644666Y-59185452D01*
X43600319Y-59156951D01*
X43536657Y-59093289D01*
X43536656Y-59093288D01*
X43387334Y-59001186D01*
X43220797Y-58946001D01*
X43220795Y-58946000D01*
X43118010Y-58935500D01*
X41717998Y-58935500D01*
X41717981Y-58935501D01*
X41615203Y-58946000D01*
X41615200Y-58946001D01*
X41448668Y-59001185D01*
X41448663Y-59001187D01*
X41299342Y-59093289D01*
X41175289Y-59217342D01*
X41083187Y-59366663D01*
X41083185Y-59366668D01*
X41058433Y-59441366D01*
X41028001Y-59533203D01*
X41028001Y-59533204D01*
X41028000Y-59533204D01*
X41017500Y-59635983D01*
X38173500Y-59635983D01*
X38173500Y-43165983D01*
X41017500Y-43165983D01*
X41017500Y-46536001D01*
X41017501Y-46536018D01*
X41028000Y-46638796D01*
X41028001Y-46638799D01*
X41055058Y-46720450D01*
X41083186Y-46805334D01*
X41175288Y-46954656D01*
X41299344Y-47078712D01*
X41448666Y-47170814D01*
X41615203Y-47225999D01*
X41717991Y-47236500D01*
X43118008Y-47236499D01*
X43220797Y-47225999D01*
X43387334Y-47170814D01*
X43536656Y-47078712D01*
X43600675Y-47014692D01*
X43661994Y-46981210D01*
X43731686Y-46986194D01*
X43776034Y-47014695D01*
X43839654Y-47078315D01*
X43988875Y-47170356D01*
X43988880Y-47170358D01*
X44155302Y-47225505D01*
X44155309Y-47225506D01*
X44258019Y-47235999D01*
X44707999Y-47235999D01*
X44708000Y-47235998D01*
X44708000Y-45781686D01*
X44712394Y-45786080D01*
X44803606Y-45838741D01*
X44905339Y-45866000D01*
X45010661Y-45866000D01*
X45112394Y-45838741D01*
X45203606Y-45786080D01*
X45208000Y-45781686D01*
X45208000Y-47235999D01*
X45657972Y-47235999D01*
X45657986Y-47235998D01*
X45760697Y-47225505D01*
X45927119Y-47170358D01*
X45927124Y-47170356D01*
X46076342Y-47078317D01*
X46139964Y-47014695D01*
X46201287Y-46981210D01*
X46270979Y-46986194D01*
X46315327Y-47014695D01*
X46379344Y-47078712D01*
X46528666Y-47170814D01*
X46695203Y-47225999D01*
X46797991Y-47236500D01*
X48198008Y-47236499D01*
X48300797Y-47225999D01*
X48467334Y-47170814D01*
X48616656Y-47078712D01*
X48680319Y-47015049D01*
X48741642Y-46981564D01*
X48811334Y-46986548D01*
X48855681Y-47015049D01*
X48919344Y-47078712D01*
X49068666Y-47170814D01*
X49235203Y-47225999D01*
X49337991Y-47236500D01*
X50738008Y-47236499D01*
X50840797Y-47225999D01*
X51007334Y-47170814D01*
X51156656Y-47078712D01*
X51220319Y-47015049D01*
X51281642Y-46981564D01*
X51351334Y-46986548D01*
X51395681Y-47015049D01*
X51459344Y-47078712D01*
X51608666Y-47170814D01*
X51775203Y-47225999D01*
X51877991Y-47236500D01*
X53278008Y-47236499D01*
X53380797Y-47225999D01*
X53547334Y-47170814D01*
X53696656Y-47078712D01*
X53760319Y-47015049D01*
X53821642Y-46981564D01*
X53891334Y-46986548D01*
X53935681Y-47015049D01*
X53999344Y-47078712D01*
X54148666Y-47170814D01*
X54315203Y-47225999D01*
X54417991Y-47236500D01*
X55818008Y-47236499D01*
X55920797Y-47225999D01*
X56087334Y-47170814D01*
X56236656Y-47078712D01*
X56300319Y-47015049D01*
X56361642Y-46981564D01*
X56431334Y-46986548D01*
X56475681Y-47015049D01*
X56539344Y-47078712D01*
X56688666Y-47170814D01*
X56855203Y-47225999D01*
X56957991Y-47236500D01*
X58358008Y-47236499D01*
X58460797Y-47225999D01*
X58627334Y-47170814D01*
X58673404Y-47142397D01*
X58740796Y-47123958D01*
X58807459Y-47144881D01*
X58852229Y-47198523D01*
X58862500Y-47247937D01*
X58862500Y-52382006D01*
X58862500Y-52519994D01*
X58862500Y-52519996D01*
X58862499Y-52519996D01*
X58889418Y-52655322D01*
X58889421Y-52655332D01*
X58942222Y-52782807D01*
X59018887Y-52897545D01*
X59018888Y-52897546D01*
X65662542Y-59541199D01*
X65696027Y-59602522D01*
X65691043Y-59672214D01*
X65662543Y-59716561D01*
X65597889Y-59781215D01*
X65472951Y-59953179D01*
X65376444Y-60142585D01*
X65310753Y-60344760D01*
X65301069Y-60405905D01*
X65277500Y-60554713D01*
X65277500Y-61017287D01*
X65284842Y-61063645D01*
X65306747Y-61201949D01*
X65310754Y-61227243D01*
X65366765Y-61399627D01*
X65376444Y-61429414D01*
X65472951Y-61618820D01*
X65597890Y-61790786D01*
X65748213Y-61941109D01*
X65920179Y-62066048D01*
X65920181Y-62066049D01*
X65920184Y-62066051D01*
X66109588Y-62162557D01*
X66311757Y-62228246D01*
X66521713Y-62261500D01*
X66521714Y-62261500D01*
X66734286Y-62261500D01*
X66734287Y-62261500D01*
X66944243Y-62228246D01*
X67146412Y-62162557D01*
X67335816Y-62066051D01*
X67370626Y-62040760D01*
X67507786Y-61941109D01*
X67507788Y-61941106D01*
X67507792Y-61941104D01*
X67658104Y-61790792D01*
X67777991Y-61625779D01*
X67833320Y-61583115D01*
X67902933Y-61577136D01*
X67964729Y-61609741D01*
X67978627Y-61625781D01*
X68098272Y-61790459D01*
X68098276Y-61790464D01*
X68248535Y-61940723D01*
X68248540Y-61940727D01*
X68420442Y-62065620D01*
X68609782Y-62162095D01*
X68811871Y-62227757D01*
X68878000Y-62238231D01*
X68878000Y-61190145D01*
X68944657Y-61228630D01*
X69065465Y-61261000D01*
X69190535Y-61261000D01*
X69311343Y-61228630D01*
X69378000Y-61190145D01*
X69378000Y-62238230D01*
X69444126Y-62227757D01*
X69444129Y-62227757D01*
X69646217Y-62162095D01*
X69835557Y-62065620D01*
X70007458Y-61940728D01*
X70146330Y-61801856D01*
X70207653Y-61768371D01*
X70277345Y-61773355D01*
X70333279Y-61815226D01*
X70339551Y-61824440D01*
X70343185Y-61830331D01*
X70343186Y-61830334D01*
X70435288Y-61979656D01*
X70559344Y-62103712D01*
X70708666Y-62195814D01*
X70875203Y-62250999D01*
X70977991Y-62261500D01*
X72278008Y-62261499D01*
X72380797Y-62250999D01*
X72547334Y-62195814D01*
X72696656Y-62103712D01*
X72820712Y-61979656D01*
X72912814Y-61830334D01*
X72967999Y-61663797D01*
X72978500Y-61561009D01*
X72978499Y-60523682D01*
X113508000Y-60523682D01*
X113508000Y-60728317D01*
X113540009Y-60930417D01*
X113603244Y-61125031D01*
X113696141Y-61307350D01*
X113696147Y-61307359D01*
X113728523Y-61351921D01*
X113728524Y-61351922D01*
X114408000Y-60672446D01*
X114408000Y-60678661D01*
X114435259Y-60780394D01*
X114487920Y-60871606D01*
X114562394Y-60946080D01*
X114653606Y-60998741D01*
X114755339Y-61026000D01*
X114761553Y-61026000D01*
X114082076Y-61705474D01*
X114126650Y-61737859D01*
X114308968Y-61830755D01*
X114503582Y-61893990D01*
X114705683Y-61926000D01*
X114910317Y-61926000D01*
X115112417Y-61893990D01*
X115307031Y-61830755D01*
X115489349Y-61737859D01*
X115533921Y-61705474D01*
X114854447Y-61026000D01*
X114860661Y-61026000D01*
X114962394Y-60998741D01*
X115053606Y-60946080D01*
X115128080Y-60871606D01*
X115180741Y-60780394D01*
X115208000Y-60678661D01*
X115208000Y-60672447D01*
X115887474Y-61351921D01*
X115919859Y-61307349D01*
X116012755Y-61125031D01*
X116075990Y-60930417D01*
X116108000Y-60728317D01*
X116108000Y-60523682D01*
X116075990Y-60321582D01*
X116012755Y-60126968D01*
X115919859Y-59944650D01*
X115887474Y-59900077D01*
X115887474Y-59900076D01*
X115208000Y-60579551D01*
X115208000Y-60573339D01*
X115180741Y-60471606D01*
X115128080Y-60380394D01*
X115053606Y-60305920D01*
X114962394Y-60253259D01*
X114860661Y-60226000D01*
X114854446Y-60226000D01*
X115533922Y-59546524D01*
X115533921Y-59546523D01*
X115489359Y-59514147D01*
X115489350Y-59514141D01*
X115307031Y-59421244D01*
X115112417Y-59358009D01*
X114910317Y-59326000D01*
X114705683Y-59326000D01*
X114503582Y-59358009D01*
X114308968Y-59421244D01*
X114126644Y-59514143D01*
X114082077Y-59546523D01*
X114082077Y-59546524D01*
X114761554Y-60226000D01*
X114755339Y-60226000D01*
X114653606Y-60253259D01*
X114562394Y-60305920D01*
X114487920Y-60380394D01*
X114435259Y-60471606D01*
X114408000Y-60573339D01*
X114408000Y-60579553D01*
X113728524Y-59900077D01*
X113728523Y-59900077D01*
X113696143Y-59944644D01*
X113603244Y-60126968D01*
X113540009Y-60321582D01*
X113508000Y-60523682D01*
X72978499Y-60523682D01*
X72978499Y-60180116D01*
X72998184Y-60113078D01*
X73050988Y-60067323D01*
X73120146Y-60057379D01*
X73126688Y-60058499D01*
X73130195Y-60059197D01*
X73141768Y-60061500D01*
X73141771Y-60061500D01*
X73314231Y-60061500D01*
X73314232Y-60061499D01*
X73483374Y-60027855D01*
X73642705Y-59961858D01*
X73786099Y-59866045D01*
X73908045Y-59744099D01*
X74003858Y-59600705D01*
X74012652Y-59579474D01*
X74051883Y-59484763D01*
X74051883Y-59484762D01*
X74058706Y-59468289D01*
X74069855Y-59441374D01*
X74103500Y-59272229D01*
X74103500Y-59099771D01*
X74103500Y-59099768D01*
X74103499Y-59099766D01*
X74083890Y-59001185D01*
X74069855Y-58930626D01*
X74057169Y-58900000D01*
X74003861Y-58771301D01*
X74003854Y-58771288D01*
X73908045Y-58627901D01*
X73908042Y-58627897D01*
X73786099Y-58505954D01*
X73771078Y-58495918D01*
X73642711Y-58410145D01*
X73642698Y-58410138D01*
X73612626Y-58397682D01*
X75535000Y-58397682D01*
X75535000Y-58602317D01*
X75567009Y-58804417D01*
X75630244Y-58999031D01*
X75723141Y-59181350D01*
X75723147Y-59181359D01*
X75755523Y-59225921D01*
X75755524Y-59225922D01*
X76435000Y-58546446D01*
X76435000Y-58552661D01*
X76462259Y-58654394D01*
X76514920Y-58745606D01*
X76589394Y-58820080D01*
X76680606Y-58872741D01*
X76782339Y-58900000D01*
X76788553Y-58900000D01*
X76109076Y-59579474D01*
X76153650Y-59611859D01*
X76335968Y-59704755D01*
X76530582Y-59767990D01*
X76732683Y-59800000D01*
X76937317Y-59800000D01*
X77139417Y-59767990D01*
X77334031Y-59704755D01*
X77516349Y-59611859D01*
X77560922Y-59579474D01*
X76881447Y-58900000D01*
X76887661Y-58900000D01*
X76989394Y-58872741D01*
X77080606Y-58820080D01*
X77155080Y-58745606D01*
X77207741Y-58654394D01*
X77235000Y-58552661D01*
X77235000Y-58546447D01*
X77914474Y-59225921D01*
X77946859Y-59181349D01*
X78039755Y-58999031D01*
X78102990Y-58804417D01*
X78135000Y-58602317D01*
X78135000Y-58397682D01*
X78102990Y-58195582D01*
X78039755Y-58000968D01*
X77946859Y-57818650D01*
X77914474Y-57774077D01*
X77914474Y-57774076D01*
X77235000Y-58453551D01*
X77235000Y-58447339D01*
X77207741Y-58345606D01*
X77155080Y-58254394D01*
X77080606Y-58179920D01*
X76989394Y-58127259D01*
X76887661Y-58100000D01*
X76881446Y-58100000D01*
X77560922Y-57420524D01*
X77560921Y-57420523D01*
X77516359Y-57388147D01*
X77516350Y-57388141D01*
X77334031Y-57295244D01*
X77139417Y-57232009D01*
X76937317Y-57200000D01*
X76732683Y-57200000D01*
X76530582Y-57232009D01*
X76335968Y-57295244D01*
X76153644Y-57388143D01*
X76109077Y-57420523D01*
X76109077Y-57420524D01*
X76788554Y-58100000D01*
X76782339Y-58100000D01*
X76680606Y-58127259D01*
X76589394Y-58179920D01*
X76514920Y-58254394D01*
X76462259Y-58345606D01*
X76435000Y-58447339D01*
X76435000Y-58453553D01*
X75755524Y-57774077D01*
X75755523Y-57774077D01*
X75723143Y-57818644D01*
X75630244Y-58000968D01*
X75567009Y-58195582D01*
X75535000Y-58397682D01*
X73612626Y-58397682D01*
X73483378Y-58344146D01*
X73483366Y-58344143D01*
X73314232Y-58310500D01*
X73314229Y-58310500D01*
X73141771Y-58310500D01*
X73141768Y-58310500D01*
X72972633Y-58344143D01*
X72972621Y-58344146D01*
X72813301Y-58410138D01*
X72813288Y-58410145D01*
X72669901Y-58505954D01*
X72669897Y-58505957D01*
X72547957Y-58627897D01*
X72547954Y-58627901D01*
X72452145Y-58771288D01*
X72452138Y-58771301D01*
X72386146Y-58930621D01*
X72386143Y-58930633D01*
X72352500Y-59099766D01*
X72352500Y-59186500D01*
X72332815Y-59253539D01*
X72280011Y-59299294D01*
X72228500Y-59310500D01*
X70977998Y-59310500D01*
X70977981Y-59310501D01*
X70875203Y-59321000D01*
X70875200Y-59321001D01*
X70708668Y-59376185D01*
X70708663Y-59376187D01*
X70559342Y-59468289D01*
X70435289Y-59592342D01*
X70339551Y-59747559D01*
X70287603Y-59794283D01*
X70218640Y-59805506D01*
X70154558Y-59777662D01*
X70146331Y-59770143D01*
X70007464Y-59631276D01*
X70007459Y-59631272D01*
X69835557Y-59506379D01*
X69646215Y-59409903D01*
X69444124Y-59344241D01*
X69378000Y-59333768D01*
X69378000Y-60381854D01*
X69311343Y-60343370D01*
X69190535Y-60311000D01*
X69065465Y-60311000D01*
X68944657Y-60343370D01*
X68878000Y-60381854D01*
X68878000Y-59333768D01*
X68877999Y-59333768D01*
X68811875Y-59344241D01*
X68609784Y-59409903D01*
X68420442Y-59506379D01*
X68248540Y-59631272D01*
X68248535Y-59631276D01*
X68098276Y-59781535D01*
X68098272Y-59781540D01*
X67978627Y-59946218D01*
X67923297Y-59988884D01*
X67853684Y-59994863D01*
X67791889Y-59962257D01*
X67777991Y-59946218D01*
X67658109Y-59781214D01*
X67658105Y-59781209D01*
X67507792Y-59630896D01*
X67505456Y-59629199D01*
X67379245Y-59537502D01*
X67336581Y-59482174D01*
X67328728Y-59449327D01*
X67328500Y-59447019D01*
X67328500Y-59447007D01*
X67301580Y-59311672D01*
X67285242Y-59272229D01*
X67248778Y-59184195D01*
X67248771Y-59184182D01*
X67188037Y-59093288D01*
X67172112Y-59069454D01*
X65150306Y-57047648D01*
X86964500Y-57047648D01*
X86964500Y-57252351D01*
X86996522Y-57454534D01*
X87059781Y-57649223D01*
X87123398Y-57774076D01*
X87146106Y-57818644D01*
X87152715Y-57831613D01*
X87273028Y-57997213D01*
X87417786Y-58141971D01*
X87572526Y-58254394D01*
X87583390Y-58262287D01*
X87682003Y-58312533D01*
X87765776Y-58355218D01*
X87765778Y-58355218D01*
X87765781Y-58355220D01*
X87870137Y-58389127D01*
X87960465Y-58418477D01*
X88061557Y-58434488D01*
X88162648Y-58450500D01*
X88162649Y-58450500D01*
X88367351Y-58450500D01*
X88367352Y-58450500D01*
X88569534Y-58418477D01*
X88764219Y-58355220D01*
X88946610Y-58262287D01*
X89039590Y-58194732D01*
X89112213Y-58141971D01*
X89112215Y-58141968D01*
X89112219Y-58141966D01*
X89256966Y-57997219D01*
X89256968Y-57997215D01*
X89256971Y-57997213D01*
X89321494Y-57908403D01*
X89377287Y-57831610D01*
X89470220Y-57649219D01*
X89533477Y-57454534D01*
X89565500Y-57252352D01*
X89565500Y-57174648D01*
X90774500Y-57174648D01*
X90774500Y-57379351D01*
X90806522Y-57581534D01*
X90869781Y-57776223D01*
X90962715Y-57958613D01*
X91083028Y-58124213D01*
X91227786Y-58268971D01*
X91346500Y-58355220D01*
X91393390Y-58389287D01*
X91507323Y-58447339D01*
X91575776Y-58482218D01*
X91575778Y-58482218D01*
X91575781Y-58482220D01*
X91660387Y-58509710D01*
X91770465Y-58545477D01*
X91815823Y-58552661D01*
X91972648Y-58577500D01*
X91972649Y-58577500D01*
X92177351Y-58577500D01*
X92177352Y-58577500D01*
X92379534Y-58545477D01*
X92574219Y-58482220D01*
X92756610Y-58389287D01*
X92849590Y-58321732D01*
X92922213Y-58268971D01*
X92922215Y-58268968D01*
X92922219Y-58268966D01*
X93066966Y-58124219D01*
X93066968Y-58124215D01*
X93066971Y-58124213D01*
X93142958Y-58019624D01*
X93187287Y-57958610D01*
X93280220Y-57776219D01*
X93343477Y-57581534D01*
X93375500Y-57379352D01*
X93375500Y-57174648D01*
X93343477Y-56972466D01*
X93282428Y-56784575D01*
X95328000Y-56784575D01*
X95328000Y-57007424D01*
X95357085Y-57228354D01*
X95357088Y-57228367D01*
X95414763Y-57443618D01*
X95500045Y-57649502D01*
X95500054Y-57649520D01*
X95611464Y-57842491D01*
X95611473Y-57842504D01*
X95662040Y-57908403D01*
X95662043Y-57908403D01*
X96463387Y-57107059D01*
X96468889Y-57127591D01*
X96547881Y-57264408D01*
X96659592Y-57376119D01*
X96796409Y-57455111D01*
X96816940Y-57460612D01*
X96015595Y-58261955D01*
X96015595Y-58261956D01*
X96081507Y-58312533D01*
X96274485Y-58423949D01*
X96274497Y-58423954D01*
X96480381Y-58509236D01*
X96695632Y-58566911D01*
X96695645Y-58566914D01*
X96916575Y-58596000D01*
X97139425Y-58596000D01*
X97360354Y-58566914D01*
X97360367Y-58566911D01*
X97575618Y-58509236D01*
X97781502Y-58423954D01*
X97781514Y-58423949D01*
X97974498Y-58312530D01*
X98040403Y-58261957D01*
X98040404Y-58261956D01*
X97239059Y-57460612D01*
X97259591Y-57455111D01*
X97396408Y-57376119D01*
X97508119Y-57264408D01*
X97587111Y-57127591D01*
X97592612Y-57107059D01*
X98393956Y-57908404D01*
X98393957Y-57908403D01*
X98444530Y-57842498D01*
X98555949Y-57649514D01*
X98555954Y-57649502D01*
X98641236Y-57443618D01*
X98698911Y-57228367D01*
X98698914Y-57228354D01*
X98728000Y-57007424D01*
X98728000Y-56784575D01*
X98727997Y-56784549D01*
X109297500Y-56784549D01*
X109297500Y-57007450D01*
X109297501Y-57007466D01*
X109326594Y-57228452D01*
X109326595Y-57228457D01*
X109326596Y-57228463D01*
X109384290Y-57443780D01*
X109384293Y-57443790D01*
X109469593Y-57649722D01*
X109469595Y-57649726D01*
X109581052Y-57842774D01*
X109581057Y-57842780D01*
X109581058Y-57842782D01*
X109716751Y-58019622D01*
X109716757Y-58019629D01*
X109874370Y-58177242D01*
X109874377Y-58177248D01*
X109984770Y-58261955D01*
X110051226Y-58312948D01*
X110244274Y-58424405D01*
X110299642Y-58447339D01*
X110449074Y-58509236D01*
X110450219Y-58509710D01*
X110665537Y-58567404D01*
X110886543Y-58596500D01*
X110886550Y-58596500D01*
X111109450Y-58596500D01*
X111109457Y-58596500D01*
X111330463Y-58567404D01*
X111545781Y-58509710D01*
X111751726Y-58424405D01*
X111944774Y-58312948D01*
X112121624Y-58177247D01*
X112279247Y-58019624D01*
X112414948Y-57842774D01*
X112526405Y-57649726D01*
X112611710Y-57443781D01*
X112669404Y-57228463D01*
X112698500Y-57007457D01*
X112698500Y-56784543D01*
X112669404Y-56563537D01*
X112611710Y-56348219D01*
X112594890Y-56307613D01*
X112535700Y-56164715D01*
X112526405Y-56142274D01*
X112414948Y-55949226D01*
X112279247Y-55772376D01*
X112279242Y-55772370D01*
X112121629Y-55614757D01*
X112121623Y-55614752D01*
X112002893Y-55523648D01*
X113507500Y-55523648D01*
X113507500Y-55728351D01*
X113539522Y-55930534D01*
X113602781Y-56125223D01*
X113622903Y-56164713D01*
X113693252Y-56302781D01*
X113695715Y-56307613D01*
X113816028Y-56473213D01*
X113960786Y-56617971D01*
X114115749Y-56730556D01*
X114126390Y-56738287D01*
X114242607Y-56797503D01*
X114308776Y-56831218D01*
X114308778Y-56831218D01*
X114308781Y-56831220D01*
X114352623Y-56845465D01*
X114503465Y-56894477D01*
X114604557Y-56910488D01*
X114705648Y-56926500D01*
X114705649Y-56926500D01*
X114910351Y-56926500D01*
X114910352Y-56926500D01*
X115112534Y-56894477D01*
X115307219Y-56831220D01*
X115489610Y-56738287D01*
X115610060Y-56650776D01*
X115655213Y-56617971D01*
X115655215Y-56617968D01*
X115655219Y-56617966D01*
X115799966Y-56473219D01*
X115799968Y-56473215D01*
X115799971Y-56473213D01*
X115890790Y-56348209D01*
X115920287Y-56307610D01*
X116013220Y-56125219D01*
X116076477Y-55930534D01*
X116108500Y-55728352D01*
X116108500Y-55523648D01*
X116076477Y-55321466D01*
X116073849Y-55313379D01*
X116045001Y-55224594D01*
X116013220Y-55126781D01*
X116013218Y-55126778D01*
X116013218Y-55126776D01*
X115976674Y-55055056D01*
X115920287Y-54944390D01*
X115869447Y-54874414D01*
X115799971Y-54778786D01*
X115655213Y-54634028D01*
X115489613Y-54513715D01*
X115489612Y-54513714D01*
X115489610Y-54513713D01*
X115432653Y-54484691D01*
X115307223Y-54420781D01*
X115112534Y-54357522D01*
X114937995Y-54329878D01*
X114910352Y-54325500D01*
X114705648Y-54325500D01*
X114681329Y-54329351D01*
X114503465Y-54357522D01*
X114308776Y-54420781D01*
X114126386Y-54513715D01*
X113960786Y-54634028D01*
X113816028Y-54778786D01*
X113695715Y-54944386D01*
X113602781Y-55126776D01*
X113539522Y-55321465D01*
X113507500Y-55523648D01*
X112002893Y-55523648D01*
X111944782Y-55479058D01*
X111944780Y-55479057D01*
X111944774Y-55479052D01*
X111751726Y-55367595D01*
X111751722Y-55367593D01*
X111545790Y-55282293D01*
X111545783Y-55282291D01*
X111545781Y-55282290D01*
X111330463Y-55224596D01*
X111330457Y-55224595D01*
X111330452Y-55224594D01*
X111109466Y-55195501D01*
X111109463Y-55195500D01*
X111109457Y-55195500D01*
X110886543Y-55195500D01*
X110886537Y-55195500D01*
X110886533Y-55195501D01*
X110665547Y-55224594D01*
X110665540Y-55224595D01*
X110665537Y-55224596D01*
X110450219Y-55282290D01*
X110450209Y-55282293D01*
X110244277Y-55367593D01*
X110244273Y-55367595D01*
X110051226Y-55479052D01*
X110051217Y-55479058D01*
X109874377Y-55614751D01*
X109874370Y-55614757D01*
X109716757Y-55772370D01*
X109716751Y-55772377D01*
X109581058Y-55949217D01*
X109581052Y-55949226D01*
X109469595Y-56142273D01*
X109469593Y-56142277D01*
X109384293Y-56348209D01*
X109384290Y-56348219D01*
X109336228Y-56527592D01*
X109326597Y-56563534D01*
X109326594Y-56563547D01*
X109297501Y-56784533D01*
X109297500Y-56784549D01*
X98727997Y-56784549D01*
X98698914Y-56563645D01*
X98698911Y-56563632D01*
X98641236Y-56348381D01*
X98555954Y-56142497D01*
X98555949Y-56142485D01*
X98444533Y-55949507D01*
X98393956Y-55883595D01*
X98393955Y-55883595D01*
X97592612Y-56684939D01*
X97587111Y-56664409D01*
X97508119Y-56527592D01*
X97396408Y-56415881D01*
X97259591Y-56336889D01*
X97239058Y-56331387D01*
X98040403Y-55530043D01*
X98040403Y-55530040D01*
X97974504Y-55479473D01*
X97974491Y-55479464D01*
X97781520Y-55368054D01*
X97781502Y-55368045D01*
X97575618Y-55282763D01*
X97360367Y-55225088D01*
X97360354Y-55225085D01*
X97139425Y-55196000D01*
X96916575Y-55196000D01*
X96695645Y-55225085D01*
X96695632Y-55225088D01*
X96480381Y-55282763D01*
X96274497Y-55368045D01*
X96274479Y-55368054D01*
X96081511Y-55479462D01*
X96015595Y-55530042D01*
X96816941Y-56331387D01*
X96796409Y-56336889D01*
X96659592Y-56415881D01*
X96547881Y-56527592D01*
X96468889Y-56664409D01*
X96463387Y-56684940D01*
X95662042Y-55883595D01*
X95611462Y-55949511D01*
X95500054Y-56142479D01*
X95500045Y-56142497D01*
X95414763Y-56348381D01*
X95357088Y-56563632D01*
X95357085Y-56563645D01*
X95328000Y-56784575D01*
X93282428Y-56784575D01*
X93280220Y-56777781D01*
X93187287Y-56595390D01*
X93164145Y-56563537D01*
X93066971Y-56429786D01*
X92922213Y-56285028D01*
X92756613Y-56164715D01*
X92756612Y-56164714D01*
X92756610Y-56164713D01*
X92679099Y-56125219D01*
X92574223Y-56071781D01*
X92379534Y-56008522D01*
X92204995Y-55980878D01*
X92177352Y-55976500D01*
X91972648Y-55976500D01*
X91948329Y-55980351D01*
X91770465Y-56008522D01*
X91575776Y-56071781D01*
X91393386Y-56164715D01*
X91227786Y-56285028D01*
X91083028Y-56429786D01*
X90962715Y-56595386D01*
X90869781Y-56777776D01*
X90806522Y-56972465D01*
X90774500Y-57174648D01*
X89565500Y-57174648D01*
X89565500Y-57047648D01*
X89533477Y-56845466D01*
X89524824Y-56818836D01*
X89470218Y-56650776D01*
X89407452Y-56527592D01*
X89377287Y-56468390D01*
X89349236Y-56429781D01*
X89256971Y-56302786D01*
X89112213Y-56158028D01*
X88946613Y-56037715D01*
X88946612Y-56037714D01*
X88946610Y-56037713D01*
X88889320Y-56008522D01*
X88764223Y-55944781D01*
X88569534Y-55881522D01*
X88394995Y-55853878D01*
X88367352Y-55849500D01*
X88162648Y-55849500D01*
X88138329Y-55853351D01*
X87960465Y-55881522D01*
X87765776Y-55944781D01*
X87583386Y-56037715D01*
X87417786Y-56158028D01*
X87273028Y-56302786D01*
X87152715Y-56468386D01*
X87059781Y-56650776D01*
X86996522Y-56845465D01*
X86964500Y-57047648D01*
X65150306Y-57047648D01*
X60299819Y-52197161D01*
X60266334Y-52135838D01*
X60263500Y-52109480D01*
X60263500Y-47360499D01*
X60283185Y-47293460D01*
X60335989Y-47247705D01*
X60387500Y-47236499D01*
X60898002Y-47236499D01*
X60898008Y-47236499D01*
X61000797Y-47225999D01*
X61167334Y-47170814D01*
X61240405Y-47125743D01*
X61307795Y-47107304D01*
X61374459Y-47128226D01*
X61419229Y-47181868D01*
X61429500Y-47231283D01*
X61429500Y-50751846D01*
X61460261Y-50906489D01*
X61460264Y-50906501D01*
X61520602Y-51052172D01*
X61520609Y-51052185D01*
X61608210Y-51183288D01*
X61608213Y-51183292D01*
X64533155Y-54108233D01*
X64566640Y-54169556D01*
X64567948Y-54215310D01*
X64562500Y-54249711D01*
X64562500Y-54249713D01*
X64562500Y-54462287D01*
X64595754Y-54672243D01*
X64630370Y-54778781D01*
X64661444Y-54874414D01*
X64757951Y-55063820D01*
X64882890Y-55235786D01*
X65033213Y-55386109D01*
X65205179Y-55511048D01*
X65205181Y-55511049D01*
X65205184Y-55511051D01*
X65394588Y-55607557D01*
X65596757Y-55673246D01*
X65806713Y-55706500D01*
X65806714Y-55706500D01*
X66019286Y-55706500D01*
X66019287Y-55706500D01*
X66229243Y-55673246D01*
X66431412Y-55607557D01*
X66620816Y-55511051D01*
X66707471Y-55448093D01*
X66792786Y-55386109D01*
X66792788Y-55386106D01*
X66792792Y-55386104D01*
X66943104Y-55235792D01*
X66943106Y-55235788D01*
X66943109Y-55235786D01*
X67068048Y-55063820D01*
X67068047Y-55063820D01*
X67068051Y-55063816D01*
X67072514Y-55055054D01*
X67120488Y-55004259D01*
X67188308Y-54987463D01*
X67254444Y-55009999D01*
X67293486Y-55055056D01*
X67297951Y-55063820D01*
X67422890Y-55235786D01*
X67573213Y-55386109D01*
X67745179Y-55511048D01*
X67745181Y-55511049D01*
X67745184Y-55511051D01*
X67934588Y-55607557D01*
X68136757Y-55673246D01*
X68346713Y-55706500D01*
X68346714Y-55706500D01*
X68559286Y-55706500D01*
X68559287Y-55706500D01*
X68769243Y-55673246D01*
X68971412Y-55607557D01*
X69160816Y-55511051D01*
X69247478Y-55448088D01*
X69332784Y-55386110D01*
X69332784Y-55386109D01*
X69332792Y-55386104D01*
X69446717Y-55272178D01*
X69508036Y-55238696D01*
X69577728Y-55243680D01*
X69633662Y-55285551D01*
X69650577Y-55316528D01*
X69699646Y-55448088D01*
X69699649Y-55448093D01*
X69785809Y-55563187D01*
X69785812Y-55563190D01*
X69900906Y-55649350D01*
X69900913Y-55649354D01*
X70035620Y-55699596D01*
X70035627Y-55699598D01*
X70095155Y-55705999D01*
X70095172Y-55706000D01*
X70743000Y-55706000D01*
X70743000Y-54789012D01*
X70800007Y-54821925D01*
X70927174Y-54856000D01*
X71058826Y-54856000D01*
X71185993Y-54821925D01*
X71243000Y-54789012D01*
X71243000Y-55706000D01*
X71890828Y-55706000D01*
X71890844Y-55705999D01*
X71950372Y-55699598D01*
X71950379Y-55699596D01*
X72085086Y-55649354D01*
X72085093Y-55649350D01*
X72200187Y-55563190D01*
X72200190Y-55563187D01*
X72244735Y-55503684D01*
X72244735Y-55503683D01*
X72286352Y-55448089D01*
X72286354Y-55448086D01*
X72336596Y-55313379D01*
X72336598Y-55313372D01*
X72342999Y-55253844D01*
X72343000Y-55253827D01*
X72343000Y-54606000D01*
X71426012Y-54606000D01*
X71458925Y-54548993D01*
X71493000Y-54421826D01*
X71493000Y-54290174D01*
X71458925Y-54163007D01*
X71426012Y-54106000D01*
X72343000Y-54106000D01*
X72343000Y-53458172D01*
X72342999Y-53458155D01*
X72336598Y-53398627D01*
X72336596Y-53398620D01*
X72290903Y-53276109D01*
X72286354Y-53263913D01*
X72286350Y-53263906D01*
X72266693Y-53237648D01*
X75534500Y-53237648D01*
X75534500Y-53442351D01*
X75566522Y-53644534D01*
X75629781Y-53839223D01*
X75693691Y-53964653D01*
X75722585Y-54021359D01*
X75722715Y-54021613D01*
X75843028Y-54187213D01*
X75987786Y-54331971D01*
X76142749Y-54444556D01*
X76153390Y-54452287D01*
X76269607Y-54511503D01*
X76335776Y-54545218D01*
X76335778Y-54545218D01*
X76335781Y-54545220D01*
X76440137Y-54579127D01*
X76530465Y-54608477D01*
X76631557Y-54624488D01*
X76732648Y-54640500D01*
X76732649Y-54640500D01*
X76937351Y-54640500D01*
X76937352Y-54640500D01*
X77139534Y-54608477D01*
X77334219Y-54545220D01*
X77516610Y-54452287D01*
X77647044Y-54357522D01*
X77682213Y-54331971D01*
X77682215Y-54331968D01*
X77682219Y-54331966D01*
X77826966Y-54187219D01*
X77826968Y-54187215D01*
X77826971Y-54187213D01*
X77885975Y-54106000D01*
X77947287Y-54021610D01*
X78040220Y-53839219D01*
X78103477Y-53644534D01*
X78135500Y-53442352D01*
X78135500Y-53237682D01*
X78710000Y-53237682D01*
X78710000Y-53442317D01*
X78742009Y-53644417D01*
X78805244Y-53839031D01*
X78898141Y-54021350D01*
X78898147Y-54021359D01*
X78930523Y-54065921D01*
X78930524Y-54065922D01*
X79610000Y-53386446D01*
X79610000Y-53392661D01*
X79637259Y-53494394D01*
X79689920Y-53585606D01*
X79764394Y-53660080D01*
X79855606Y-53712741D01*
X79957339Y-53740000D01*
X79963553Y-53740000D01*
X79284076Y-54419474D01*
X79328650Y-54451859D01*
X79510968Y-54544755D01*
X79705582Y-54607990D01*
X79907683Y-54640000D01*
X80112317Y-54640000D01*
X80314417Y-54607990D01*
X80509031Y-54544755D01*
X80691349Y-54451859D01*
X80735921Y-54419474D01*
X80056447Y-53740000D01*
X80062661Y-53740000D01*
X80164394Y-53712741D01*
X80255606Y-53660080D01*
X80330080Y-53585606D01*
X80382741Y-53494394D01*
X80410000Y-53392661D01*
X80410000Y-53386447D01*
X81089474Y-54065921D01*
X81121859Y-54021349D01*
X81214755Y-53839031D01*
X81277990Y-53644417D01*
X81310000Y-53442317D01*
X81310000Y-53237682D01*
X81309995Y-53237648D01*
X81884500Y-53237648D01*
X81884500Y-53442351D01*
X81916522Y-53644534D01*
X81979781Y-53839223D01*
X82043691Y-53964653D01*
X82072585Y-54021359D01*
X82072715Y-54021613D01*
X82193028Y-54187213D01*
X82337786Y-54331971D01*
X82492749Y-54444556D01*
X82503390Y-54452287D01*
X82619607Y-54511503D01*
X82685776Y-54545218D01*
X82685778Y-54545218D01*
X82685781Y-54545220D01*
X82790137Y-54579127D01*
X82880465Y-54608477D01*
X82981557Y-54624488D01*
X83082648Y-54640500D01*
X83082649Y-54640500D01*
X83287351Y-54640500D01*
X83287352Y-54640500D01*
X83489534Y-54608477D01*
X83684219Y-54545220D01*
X83866610Y-54452287D01*
X83997044Y-54357522D01*
X84032213Y-54331971D01*
X84032215Y-54331968D01*
X84032219Y-54331966D01*
X84176966Y-54187219D01*
X84176968Y-54187215D01*
X84176971Y-54187213D01*
X84235975Y-54106000D01*
X84297287Y-54021610D01*
X84390220Y-53839219D01*
X84453477Y-53644534D01*
X84485500Y-53442352D01*
X84485500Y-53237648D01*
X84453477Y-53035466D01*
X84390220Y-52840781D01*
X84390218Y-52840778D01*
X84390218Y-52840776D01*
X84297419Y-52658650D01*
X84297287Y-52658390D01*
X84265092Y-52614077D01*
X84176971Y-52492786D01*
X84032213Y-52348028D01*
X83866613Y-52227715D01*
X83866612Y-52227714D01*
X83866610Y-52227713D01*
X83774834Y-52180951D01*
X83720569Y-52153301D01*
X83684223Y-52134782D01*
X83684222Y-52134781D01*
X83684219Y-52134780D01*
X83604035Y-52108726D01*
X83489534Y-52071522D01*
X83339013Y-52047682D01*
X86965000Y-52047682D01*
X86965000Y-52252317D01*
X86997009Y-52454417D01*
X87060244Y-52649031D01*
X87153141Y-52831350D01*
X87153147Y-52831359D01*
X87185523Y-52875921D01*
X87185524Y-52875922D01*
X87865000Y-52196446D01*
X87865000Y-52202661D01*
X87892259Y-52304394D01*
X87944920Y-52395606D01*
X88019394Y-52470080D01*
X88110606Y-52522741D01*
X88212339Y-52550000D01*
X88218553Y-52550000D01*
X87539076Y-53229474D01*
X87583650Y-53261859D01*
X87765968Y-53354755D01*
X87960582Y-53417990D01*
X88162683Y-53450000D01*
X88367317Y-53450000D01*
X88569417Y-53417990D01*
X88764031Y-53354755D01*
X88946349Y-53261859D01*
X88990921Y-53229474D01*
X88311447Y-52550000D01*
X88317661Y-52550000D01*
X88419394Y-52522741D01*
X88510606Y-52470080D01*
X88585080Y-52395606D01*
X88637741Y-52304394D01*
X88665000Y-52202661D01*
X88665000Y-52196447D01*
X89344474Y-52875921D01*
X89376859Y-52831349D01*
X89469755Y-52649031D01*
X89532990Y-52454417D01*
X89565000Y-52252317D01*
X89565000Y-52047682D01*
X89532990Y-51845582D01*
X89469755Y-51650968D01*
X89376859Y-51468650D01*
X89344474Y-51424077D01*
X89344474Y-51424076D01*
X88665000Y-52103551D01*
X88665000Y-52097339D01*
X88637741Y-51995606D01*
X88585080Y-51904394D01*
X88510606Y-51829920D01*
X88419394Y-51777259D01*
X88317661Y-51750000D01*
X88311446Y-51750000D01*
X88990922Y-51070524D01*
X88990921Y-51070523D01*
X88946359Y-51038147D01*
X88946350Y-51038141D01*
X88764031Y-50945244D01*
X88569417Y-50882009D01*
X88367317Y-50850000D01*
X88162683Y-50850000D01*
X87960582Y-50882009D01*
X87765968Y-50945244D01*
X87583644Y-51038143D01*
X87539077Y-51070523D01*
X87539077Y-51070524D01*
X88218554Y-51750000D01*
X88212339Y-51750000D01*
X88110606Y-51777259D01*
X88019394Y-51829920D01*
X87944920Y-51904394D01*
X87892259Y-51995606D01*
X87865000Y-52097339D01*
X87865000Y-52103553D01*
X87185524Y-51424077D01*
X87185523Y-51424077D01*
X87153143Y-51468644D01*
X87060244Y-51650968D01*
X86997009Y-51845582D01*
X86965000Y-52047682D01*
X83339013Y-52047682D01*
X83314995Y-52043878D01*
X83287352Y-52039500D01*
X83082648Y-52039500D01*
X83058329Y-52043351D01*
X82880465Y-52071522D01*
X82685776Y-52134781D01*
X82503386Y-52227715D01*
X82337786Y-52348028D01*
X82193028Y-52492786D01*
X82072715Y-52658386D01*
X81979781Y-52840776D01*
X81916522Y-53035465D01*
X81884500Y-53237648D01*
X81309995Y-53237648D01*
X81277990Y-53035582D01*
X81214755Y-52840968D01*
X81121859Y-52658650D01*
X81089474Y-52614077D01*
X81089474Y-52614076D01*
X80410000Y-53293551D01*
X80410000Y-53287339D01*
X80382741Y-53185606D01*
X80330080Y-53094394D01*
X80255606Y-53019920D01*
X80164394Y-52967259D01*
X80062661Y-52940000D01*
X80056446Y-52940000D01*
X80735922Y-52260524D01*
X80735921Y-52260523D01*
X80691359Y-52228147D01*
X80691350Y-52228141D01*
X80509031Y-52135244D01*
X80314417Y-52072009D01*
X80112317Y-52040000D01*
X79907683Y-52040000D01*
X79705582Y-52072009D01*
X79510968Y-52135244D01*
X79328644Y-52228143D01*
X79284077Y-52260523D01*
X79284077Y-52260524D01*
X79963554Y-52940000D01*
X79957339Y-52940000D01*
X79855606Y-52967259D01*
X79764394Y-53019920D01*
X79689920Y-53094394D01*
X79637259Y-53185606D01*
X79610000Y-53287339D01*
X79610000Y-53293553D01*
X78930524Y-52614077D01*
X78930523Y-52614077D01*
X78898143Y-52658644D01*
X78805244Y-52840968D01*
X78742009Y-53035582D01*
X78710000Y-53237682D01*
X78135500Y-53237682D01*
X78135500Y-53237648D01*
X78114402Y-53104443D01*
X78103477Y-53035465D01*
X78051638Y-52875922D01*
X78040220Y-52840781D01*
X78040218Y-52840778D01*
X78040218Y-52840776D01*
X77947419Y-52658650D01*
X77947287Y-52658390D01*
X77915092Y-52614077D01*
X77826971Y-52492786D01*
X77682213Y-52348028D01*
X77516613Y-52227715D01*
X77516612Y-52227714D01*
X77516610Y-52227713D01*
X77456648Y-52197161D01*
X77334223Y-52134781D01*
X77139534Y-52071522D01*
X76964995Y-52043878D01*
X76937352Y-52039500D01*
X76732648Y-52039500D01*
X76708329Y-52043351D01*
X76530465Y-52071522D01*
X76335776Y-52134781D01*
X76153386Y-52227715D01*
X75987786Y-52348028D01*
X75843028Y-52492786D01*
X75722715Y-52658386D01*
X75629781Y-52840776D01*
X75566522Y-53035465D01*
X75534500Y-53237648D01*
X72266693Y-53237648D01*
X72200190Y-53148812D01*
X72200187Y-53148809D01*
X72085093Y-53062649D01*
X72085086Y-53062645D01*
X71950379Y-53012403D01*
X71950372Y-53012401D01*
X71890844Y-53006000D01*
X71243000Y-53006000D01*
X71243000Y-53922988D01*
X71185993Y-53890075D01*
X71058826Y-53856000D01*
X70927174Y-53856000D01*
X70800007Y-53890075D01*
X70743000Y-53922988D01*
X70743000Y-53006000D01*
X70095155Y-53006000D01*
X70035627Y-53012401D01*
X70035620Y-53012403D01*
X69900913Y-53062645D01*
X69900906Y-53062649D01*
X69785812Y-53148809D01*
X69785809Y-53148812D01*
X69699649Y-53263906D01*
X69699646Y-53263912D01*
X69650577Y-53395471D01*
X69608705Y-53451404D01*
X69543241Y-53475821D01*
X69474968Y-53460969D01*
X69446714Y-53439818D01*
X69332786Y-53325890D01*
X69160820Y-53200951D01*
X68971414Y-53104444D01*
X68971413Y-53104443D01*
X68971412Y-53104443D01*
X68769243Y-53038754D01*
X68769241Y-53038753D01*
X68769240Y-53038753D01*
X68607957Y-53013208D01*
X68559287Y-53005500D01*
X68346713Y-53005500D01*
X68298042Y-53013208D01*
X68136760Y-53038753D01*
X68136757Y-53038754D01*
X67965516Y-53094394D01*
X67934585Y-53104444D01*
X67745179Y-53200951D01*
X67573213Y-53325890D01*
X67422890Y-53476213D01*
X67297949Y-53648182D01*
X67293484Y-53656946D01*
X67245509Y-53707742D01*
X67177688Y-53724536D01*
X67111553Y-53701998D01*
X67072516Y-53656946D01*
X67068050Y-53648182D01*
X66943109Y-53476213D01*
X66792786Y-53325890D01*
X66620820Y-53200951D01*
X66431414Y-53104444D01*
X66431413Y-53104443D01*
X66431412Y-53104443D01*
X66229243Y-53038754D01*
X66229241Y-53038753D01*
X66229240Y-53038753D01*
X66067957Y-53013208D01*
X66019287Y-53005500D01*
X65806713Y-53005500D01*
X65806711Y-53005500D01*
X65772310Y-53010948D01*
X65703016Y-53001992D01*
X65665233Y-52976155D01*
X63066819Y-50377741D01*
X63033334Y-50316418D01*
X63030500Y-50290060D01*
X63030500Y-48943153D01*
X73621500Y-48943153D01*
X73621500Y-49100846D01*
X73652261Y-49255489D01*
X73652264Y-49255501D01*
X73712061Y-49399864D01*
X73721500Y-49447316D01*
X73721500Y-49866684D01*
X73712061Y-49914136D01*
X73652264Y-50058498D01*
X73652261Y-50058510D01*
X73621500Y-50213153D01*
X73621500Y-50370846D01*
X73652261Y-50525489D01*
X73652264Y-50525501D01*
X73712602Y-50671172D01*
X73712609Y-50671185D01*
X73800210Y-50802288D01*
X73800213Y-50802292D01*
X73911707Y-50913786D01*
X73911711Y-50913789D01*
X74042814Y-51001390D01*
X74042827Y-51001397D01*
X74165442Y-51052185D01*
X74188503Y-51061737D01*
X74343153Y-51092499D01*
X74343156Y-51092500D01*
X74343158Y-51092500D01*
X74500844Y-51092500D01*
X74500845Y-51092499D01*
X74655497Y-51061737D01*
X74801179Y-51001394D01*
X74932289Y-50913789D01*
X75043789Y-50802289D01*
X75131394Y-50671179D01*
X75191737Y-50525497D01*
X75222500Y-50370842D01*
X75222500Y-50213158D01*
X75222500Y-50213155D01*
X75222499Y-50213153D01*
X75191738Y-50058510D01*
X75191737Y-50058503D01*
X75191735Y-50058498D01*
X75131939Y-49914136D01*
X75122500Y-49866684D01*
X75122500Y-49554648D01*
X90774500Y-49554648D01*
X90774500Y-49759351D01*
X90806522Y-49961534D01*
X90869781Y-50156223D01*
X90962715Y-50338613D01*
X91083028Y-50504213D01*
X91227786Y-50648971D01*
X91369379Y-50751842D01*
X91393390Y-50769287D01*
X91509607Y-50828503D01*
X91575776Y-50862218D01*
X91575778Y-50862218D01*
X91575781Y-50862220D01*
X91680137Y-50896127D01*
X91770465Y-50925477D01*
X91871557Y-50941488D01*
X91972648Y-50957500D01*
X91972649Y-50957500D01*
X92177351Y-50957500D01*
X92177352Y-50957500D01*
X92379534Y-50925477D01*
X92574219Y-50862220D01*
X92756610Y-50769287D01*
X92891637Y-50671185D01*
X92922213Y-50648971D01*
X92922215Y-50648968D01*
X92922219Y-50648966D01*
X93066966Y-50504219D01*
X93066968Y-50504215D01*
X93066971Y-50504213D01*
X93119732Y-50431590D01*
X93187287Y-50338610D01*
X93280220Y-50156219D01*
X93343477Y-49961534D01*
X93375500Y-49759352D01*
X93375500Y-49554648D01*
X93343477Y-49352466D01*
X93280220Y-49157781D01*
X93280218Y-49157778D01*
X93280218Y-49157776D01*
X93246503Y-49091607D01*
X93187287Y-48975390D01*
X93163866Y-48943153D01*
X93066971Y-48809786D01*
X92922213Y-48665028D01*
X92756613Y-48544715D01*
X92756612Y-48544714D01*
X92756610Y-48544713D01*
X92691832Y-48511707D01*
X92574223Y-48451781D01*
X92379534Y-48388522D01*
X92204995Y-48360878D01*
X92177352Y-48356500D01*
X91972648Y-48356500D01*
X91948329Y-48360351D01*
X91770465Y-48388522D01*
X91575776Y-48451781D01*
X91393386Y-48544715D01*
X91227786Y-48665028D01*
X91083028Y-48809786D01*
X90962715Y-48975386D01*
X90869781Y-49157776D01*
X90806522Y-49352465D01*
X90774500Y-49554648D01*
X75122500Y-49554648D01*
X75122500Y-49447316D01*
X75131939Y-49399864D01*
X75191735Y-49255501D01*
X75191737Y-49255497D01*
X75222500Y-49100842D01*
X75222500Y-48943158D01*
X75222500Y-48943155D01*
X75222499Y-48943153D01*
X75191738Y-48788510D01*
X75191737Y-48788503D01*
X75140595Y-48665034D01*
X75131397Y-48642827D01*
X75131390Y-48642814D01*
X75043789Y-48511711D01*
X75043786Y-48511707D01*
X74932292Y-48400213D01*
X74932288Y-48400210D01*
X74801185Y-48312609D01*
X74801172Y-48312602D01*
X74655501Y-48252264D01*
X74655489Y-48252261D01*
X74500845Y-48221500D01*
X74500842Y-48221500D01*
X74343158Y-48221500D01*
X74343155Y-48221500D01*
X74188510Y-48252261D01*
X74188498Y-48252264D01*
X74042827Y-48312602D01*
X74042814Y-48312609D01*
X73911711Y-48400210D01*
X73911707Y-48400213D01*
X73800213Y-48511707D01*
X73800210Y-48511711D01*
X73712609Y-48642814D01*
X73712602Y-48642827D01*
X73652264Y-48788498D01*
X73652261Y-48788510D01*
X73621500Y-48943153D01*
X63030500Y-48943153D01*
X63030500Y-45617682D01*
X75535000Y-45617682D01*
X75535000Y-45822317D01*
X75567009Y-46024417D01*
X75630244Y-46219031D01*
X75723141Y-46401350D01*
X75723147Y-46401359D01*
X75755523Y-46445921D01*
X75755524Y-46445922D01*
X76435000Y-45766446D01*
X76435000Y-45772661D01*
X76462259Y-45874394D01*
X76514920Y-45965606D01*
X76589394Y-46040080D01*
X76680606Y-46092741D01*
X76782339Y-46120000D01*
X76788553Y-46120000D01*
X76109076Y-46799474D01*
X76153650Y-46831859D01*
X76335968Y-46924755D01*
X76530582Y-46987990D01*
X76732683Y-47020000D01*
X76937317Y-47020000D01*
X77139417Y-46987990D01*
X77334031Y-46924755D01*
X77516349Y-46831859D01*
X77560921Y-46799474D01*
X76881447Y-46120000D01*
X76887661Y-46120000D01*
X76989394Y-46092741D01*
X77080606Y-46040080D01*
X77155080Y-45965606D01*
X77207741Y-45874394D01*
X77235000Y-45772661D01*
X77235000Y-45766447D01*
X77914474Y-46445921D01*
X77946859Y-46401349D01*
X78039755Y-46219031D01*
X78102990Y-46024417D01*
X78135000Y-45822317D01*
X78135000Y-45617682D01*
X78134995Y-45617648D01*
X78709500Y-45617648D01*
X78709500Y-45822351D01*
X78741522Y-46024534D01*
X78804781Y-46219223D01*
X78833990Y-46276547D01*
X78897585Y-46401359D01*
X78897715Y-46401613D01*
X79018028Y-46567213D01*
X79162786Y-46711971D01*
X79283226Y-46799474D01*
X79328390Y-46832287D01*
X79444607Y-46891503D01*
X79510776Y-46925218D01*
X79510778Y-46925218D01*
X79510781Y-46925220D01*
X79601376Y-46954656D01*
X79705465Y-46988477D01*
X79733189Y-46992868D01*
X79907648Y-47020500D01*
X79907649Y-47020500D01*
X80112351Y-47020500D01*
X80112352Y-47020500D01*
X80314534Y-46988477D01*
X80509219Y-46925220D01*
X80691610Y-46832287D01*
X80845520Y-46720466D01*
X80857213Y-46711971D01*
X80857215Y-46711968D01*
X80857219Y-46711966D01*
X81001966Y-46567219D01*
X81001968Y-46567215D01*
X81001971Y-46567213D01*
X81054732Y-46494590D01*
X81122287Y-46401610D01*
X81215220Y-46219219D01*
X81278477Y-46024534D01*
X81310500Y-45822352D01*
X81310500Y-45617648D01*
X81289549Y-45485370D01*
X81278477Y-45415465D01*
X81244731Y-45311606D01*
X81215220Y-45220781D01*
X81215218Y-45220778D01*
X81215218Y-45220776D01*
X81150244Y-45093259D01*
X81122287Y-45038390D01*
X81114556Y-45027749D01*
X81001971Y-44872786D01*
X80857213Y-44728028D01*
X80691613Y-44607715D01*
X80691612Y-44607714D01*
X80691610Y-44607713D01*
X80634653Y-44578691D01*
X80509223Y-44514781D01*
X80314534Y-44451522D01*
X80139995Y-44423878D01*
X80112352Y-44419500D01*
X79907648Y-44419500D01*
X79883329Y-44423351D01*
X79705465Y-44451522D01*
X79510776Y-44514781D01*
X79328386Y-44607715D01*
X79162786Y-44728028D01*
X79018028Y-44872786D01*
X78897715Y-45038386D01*
X78804781Y-45220776D01*
X78741522Y-45415465D01*
X78709500Y-45617648D01*
X78134995Y-45617648D01*
X78102990Y-45415582D01*
X78039755Y-45220968D01*
X77946859Y-45038650D01*
X77914474Y-44994077D01*
X77914474Y-44994076D01*
X77235000Y-45673551D01*
X77235000Y-45667339D01*
X77207741Y-45565606D01*
X77155080Y-45474394D01*
X77080606Y-45399920D01*
X76989394Y-45347259D01*
X76887661Y-45320000D01*
X76881446Y-45320000D01*
X77560922Y-44640524D01*
X77560921Y-44640523D01*
X77516359Y-44608147D01*
X77516350Y-44608141D01*
X77334031Y-44515244D01*
X77139417Y-44452009D01*
X76937317Y-44420000D01*
X76732683Y-44420000D01*
X76530582Y-44452009D01*
X76335968Y-44515244D01*
X76153644Y-44608143D01*
X76109077Y-44640523D01*
X76109077Y-44640524D01*
X76788554Y-45320000D01*
X76782339Y-45320000D01*
X76680606Y-45347259D01*
X76589394Y-45399920D01*
X76514920Y-45474394D01*
X76462259Y-45565606D01*
X76435000Y-45667339D01*
X76435000Y-45673553D01*
X75755524Y-44994077D01*
X75755523Y-44994077D01*
X75723143Y-45038644D01*
X75630244Y-45220968D01*
X75567009Y-45415582D01*
X75535000Y-45617682D01*
X63030500Y-45617682D01*
X63030500Y-43077648D01*
X80614500Y-43077648D01*
X80614500Y-43282351D01*
X80646522Y-43484534D01*
X80709781Y-43679223D01*
X80773691Y-43804653D01*
X80802585Y-43861359D01*
X80802715Y-43861613D01*
X80923028Y-44027213D01*
X81067786Y-44171971D01*
X81188226Y-44259474D01*
X81233390Y-44292287D01*
X81325193Y-44339063D01*
X81415776Y-44385218D01*
X81415778Y-44385218D01*
X81415781Y-44385220D01*
X81487359Y-44408477D01*
X81610465Y-44448477D01*
X81711557Y-44464488D01*
X81812648Y-44480500D01*
X81812649Y-44480500D01*
X82017351Y-44480500D01*
X82017352Y-44480500D01*
X82219534Y-44448477D01*
X82384932Y-44394735D01*
X82454768Y-44392740D01*
X82514601Y-44428820D01*
X82545430Y-44491521D01*
X82537466Y-44560935D01*
X82496131Y-44612985D01*
X82337787Y-44728028D01*
X82337782Y-44728032D01*
X82193028Y-44872786D01*
X82072715Y-45038386D01*
X81979781Y-45220776D01*
X81916522Y-45415465D01*
X81884500Y-45617648D01*
X81884500Y-45822351D01*
X81916522Y-46024534D01*
X81979781Y-46219223D01*
X82008990Y-46276547D01*
X82072585Y-46401359D01*
X82072715Y-46401613D01*
X82193028Y-46567213D01*
X82337786Y-46711971D01*
X82458226Y-46799474D01*
X82503390Y-46832287D01*
X82619607Y-46891503D01*
X82685776Y-46925218D01*
X82685778Y-46925218D01*
X82685781Y-46925220D01*
X82776376Y-46954656D01*
X82880465Y-46988477D01*
X82908189Y-46992868D01*
X83082648Y-47020500D01*
X83082649Y-47020500D01*
X83287351Y-47020500D01*
X83287352Y-47020500D01*
X83489534Y-46988477D01*
X83684219Y-46925220D01*
X83866610Y-46832287D01*
X84020520Y-46720466D01*
X84032213Y-46711971D01*
X84032215Y-46711968D01*
X84032219Y-46711966D01*
X84176966Y-46567219D01*
X84227584Y-46497549D01*
X89104500Y-46497549D01*
X89104500Y-46720450D01*
X89104501Y-46720466D01*
X89133594Y-46941452D01*
X89133595Y-46941457D01*
X89133596Y-46941463D01*
X89191290Y-47156780D01*
X89191293Y-47156790D01*
X89276593Y-47362722D01*
X89276595Y-47362726D01*
X89388052Y-47555774D01*
X89388057Y-47555780D01*
X89388058Y-47555782D01*
X89523751Y-47732622D01*
X89523757Y-47732629D01*
X89681370Y-47890242D01*
X89681376Y-47890247D01*
X89858226Y-48025948D01*
X90051274Y-48137405D01*
X90181140Y-48191197D01*
X90254297Y-48221500D01*
X90257219Y-48222710D01*
X90472537Y-48280404D01*
X90693543Y-48309500D01*
X90693550Y-48309500D01*
X90916450Y-48309500D01*
X90916457Y-48309500D01*
X91137463Y-48280404D01*
X91352781Y-48222710D01*
X91558726Y-48137405D01*
X91751774Y-48025948D01*
X91928624Y-47890247D01*
X92086247Y-47732624D01*
X92221948Y-47555774D01*
X92333405Y-47362726D01*
X92418710Y-47156781D01*
X92476404Y-46941463D01*
X92505500Y-46720457D01*
X92505500Y-46497543D01*
X92476404Y-46276537D01*
X92418710Y-46061219D01*
X92333405Y-45855274D01*
X92221948Y-45662226D01*
X92147809Y-45565606D01*
X92086248Y-45485377D01*
X92086242Y-45485370D01*
X91928629Y-45327757D01*
X91928622Y-45327751D01*
X91751782Y-45192058D01*
X91751780Y-45192057D01*
X91751774Y-45192052D01*
X91558726Y-45080595D01*
X91558722Y-45080593D01*
X91352790Y-44995293D01*
X91352783Y-44995291D01*
X91352781Y-44995290D01*
X91137463Y-44937596D01*
X91137457Y-44937595D01*
X91137452Y-44937594D01*
X90916466Y-44908501D01*
X90916463Y-44908500D01*
X90916457Y-44908500D01*
X90693543Y-44908500D01*
X90693537Y-44908500D01*
X90693533Y-44908501D01*
X90472547Y-44937594D01*
X90472540Y-44937595D01*
X90472537Y-44937596D01*
X90261750Y-44994076D01*
X90257219Y-44995290D01*
X90257209Y-44995293D01*
X90051277Y-45080593D01*
X90051273Y-45080595D01*
X89858226Y-45192052D01*
X89858217Y-45192058D01*
X89681377Y-45327751D01*
X89681370Y-45327757D01*
X89523757Y-45485370D01*
X89523751Y-45485377D01*
X89388058Y-45662217D01*
X89388052Y-45662226D01*
X89276595Y-45855273D01*
X89276593Y-45855277D01*
X89191293Y-46061209D01*
X89191290Y-46061219D01*
X89133597Y-46276534D01*
X89133594Y-46276547D01*
X89104501Y-46497533D01*
X89104500Y-46497549D01*
X84227584Y-46497549D01*
X84283492Y-46420599D01*
X84297285Y-46401613D01*
X84297415Y-46401359D01*
X84390220Y-46219219D01*
X84453477Y-46024534D01*
X84485500Y-45822352D01*
X84485500Y-45617648D01*
X84464549Y-45485370D01*
X84453477Y-45415465D01*
X84419731Y-45311606D01*
X84390220Y-45220781D01*
X84390218Y-45220778D01*
X84390218Y-45220776D01*
X84325244Y-45093259D01*
X84297287Y-45038390D01*
X84289556Y-45027749D01*
X84176971Y-44872786D01*
X84032213Y-44728028D01*
X83866613Y-44607715D01*
X83866612Y-44607714D01*
X83866610Y-44607713D01*
X83809653Y-44578691D01*
X83684223Y-44514781D01*
X83489534Y-44451522D01*
X83314995Y-44423878D01*
X83287352Y-44419500D01*
X83082648Y-44419500D01*
X83023805Y-44428820D01*
X82880464Y-44451523D01*
X82880461Y-44451523D01*
X82715071Y-44505263D01*
X82645230Y-44507258D01*
X82585397Y-44471178D01*
X82554569Y-44408477D01*
X82562534Y-44339063D01*
X82603866Y-44287014D01*
X82762219Y-44171966D01*
X82906966Y-44027219D01*
X82906968Y-44027215D01*
X82906971Y-44027213D01*
X82959732Y-43954590D01*
X83027287Y-43861610D01*
X83120220Y-43679219D01*
X83183477Y-43484534D01*
X83215500Y-43282352D01*
X83215500Y-43077682D01*
X83790000Y-43077682D01*
X83790000Y-43282317D01*
X83822009Y-43484417D01*
X83885244Y-43679031D01*
X83978141Y-43861350D01*
X83978147Y-43861359D01*
X84010523Y-43905921D01*
X84010524Y-43905922D01*
X84690000Y-43226446D01*
X84690000Y-43232661D01*
X84717259Y-43334394D01*
X84769920Y-43425606D01*
X84844394Y-43500080D01*
X84935606Y-43552741D01*
X85037339Y-43580000D01*
X85043553Y-43580000D01*
X84364076Y-44259474D01*
X84408650Y-44291859D01*
X84590968Y-44384755D01*
X84785582Y-44447990D01*
X84987683Y-44480000D01*
X85192317Y-44480000D01*
X85394417Y-44447990D01*
X85589031Y-44384755D01*
X85771349Y-44291859D01*
X85815921Y-44259474D01*
X85136447Y-43580000D01*
X85142661Y-43580000D01*
X85244394Y-43552741D01*
X85335606Y-43500080D01*
X85410080Y-43425606D01*
X85462741Y-43334394D01*
X85490000Y-43232661D01*
X85490000Y-43226447D01*
X86169474Y-43905921D01*
X86201859Y-43861349D01*
X86294755Y-43679031D01*
X86357990Y-43484417D01*
X86390000Y-43282317D01*
X86390000Y-43077682D01*
X86357990Y-42875582D01*
X86294755Y-42680968D01*
X86201859Y-42498650D01*
X86169474Y-42454077D01*
X86169474Y-42454076D01*
X85490000Y-43133551D01*
X85490000Y-43127339D01*
X85462741Y-43025606D01*
X85410080Y-42934394D01*
X85335606Y-42859920D01*
X85244394Y-42807259D01*
X85142661Y-42780000D01*
X85136446Y-42780000D01*
X85815922Y-42100524D01*
X85815921Y-42100523D01*
X85771359Y-42068147D01*
X85771350Y-42068141D01*
X85589031Y-41975244D01*
X85394417Y-41912009D01*
X85192317Y-41880000D01*
X84987683Y-41880000D01*
X84785582Y-41912009D01*
X84590968Y-41975244D01*
X84408644Y-42068143D01*
X84364077Y-42100523D01*
X84364077Y-42100524D01*
X85043554Y-42780000D01*
X85037339Y-42780000D01*
X84935606Y-42807259D01*
X84844394Y-42859920D01*
X84769920Y-42934394D01*
X84717259Y-43025606D01*
X84690000Y-43127339D01*
X84690000Y-43133553D01*
X84010524Y-42454077D01*
X84010523Y-42454077D01*
X83978143Y-42498644D01*
X83885244Y-42680968D01*
X83822009Y-42875582D01*
X83790000Y-43077682D01*
X83215500Y-43077682D01*
X83215500Y-43077648D01*
X83207257Y-43025606D01*
X83183477Y-42875465D01*
X83152458Y-42780000D01*
X83120220Y-42680781D01*
X83120218Y-42680778D01*
X83120218Y-42680776D01*
X83086503Y-42614607D01*
X83027287Y-42498390D01*
X83003755Y-42466001D01*
X82906971Y-42332786D01*
X82762213Y-42188028D01*
X82596613Y-42067715D01*
X82596612Y-42067714D01*
X82596610Y-42067713D01*
X82531832Y-42034707D01*
X82414223Y-41974781D01*
X82219534Y-41911522D01*
X82044995Y-41883878D01*
X82017352Y-41879500D01*
X81812648Y-41879500D01*
X81788329Y-41883351D01*
X81610465Y-41911522D01*
X81415776Y-41974781D01*
X81233386Y-42067715D01*
X81067786Y-42188028D01*
X80923028Y-42332786D01*
X80802715Y-42498386D01*
X80709781Y-42680776D01*
X80646522Y-42875465D01*
X80614500Y-43077648D01*
X63030500Y-43077648D01*
X63030500Y-42466155D01*
X63030499Y-42466149D01*
X63027584Y-42451495D01*
X63033811Y-42381904D01*
X63076674Y-42326726D01*
X63142564Y-42303482D01*
X63168599Y-42304831D01*
X63270683Y-42321000D01*
X63475317Y-42321000D01*
X63677417Y-42288990D01*
X63872031Y-42225755D01*
X64054349Y-42132859D01*
X64098921Y-42100474D01*
X63419446Y-41421000D01*
X63425661Y-41421000D01*
X63527394Y-41393741D01*
X63618606Y-41341080D01*
X63693080Y-41266606D01*
X63745741Y-41175394D01*
X63773000Y-41073661D01*
X63773000Y-41067447D01*
X64452474Y-41746921D01*
X64484859Y-41702349D01*
X64577755Y-41520031D01*
X64640990Y-41325417D01*
X64673000Y-41123317D01*
X64673000Y-40918682D01*
X64640990Y-40716582D01*
X64577755Y-40521968D01*
X64484859Y-40339650D01*
X64452474Y-40295077D01*
X64452474Y-40295076D01*
X63773000Y-40974551D01*
X63773000Y-40968339D01*
X63745741Y-40866606D01*
X63693080Y-40775394D01*
X63618606Y-40700920D01*
X63527394Y-40648259D01*
X63425661Y-40621000D01*
X63419446Y-40621000D01*
X64098922Y-39941524D01*
X64098921Y-39941523D01*
X64054359Y-39909147D01*
X64054350Y-39909141D01*
X63961369Y-39861765D01*
X63910573Y-39813790D01*
X63893778Y-39745969D01*
X63916315Y-39679835D01*
X63961370Y-39640795D01*
X64054610Y-39593287D01*
X64104144Y-39557298D01*
X64220213Y-39472971D01*
X64220215Y-39472968D01*
X64220219Y-39472966D01*
X64364966Y-39328219D01*
X64364968Y-39328215D01*
X64364971Y-39328213D01*
X64421259Y-39250738D01*
X64485287Y-39162610D01*
X64578220Y-38980219D01*
X64641477Y-38785534D01*
X64673500Y-38583352D01*
X64673500Y-38402153D01*
X65112500Y-38402153D01*
X65112500Y-38559846D01*
X65143261Y-38714489D01*
X65143264Y-38714501D01*
X65203602Y-38860172D01*
X65203609Y-38860185D01*
X65291210Y-38991288D01*
X65291213Y-38991292D01*
X65402707Y-39102786D01*
X65402711Y-39102789D01*
X65533814Y-39190390D01*
X65533827Y-39190397D01*
X65679498Y-39250735D01*
X65679503Y-39250737D01*
X65834153Y-39281499D01*
X65834156Y-39281500D01*
X65834158Y-39281500D01*
X65991844Y-39281500D01*
X65991845Y-39281499D01*
X66146497Y-39250737D01*
X66292179Y-39190394D01*
X66423289Y-39102789D01*
X67147430Y-38378648D01*
X68005545Y-37520534D01*
X70068431Y-35457648D01*
X80614500Y-35457648D01*
X80614500Y-35662351D01*
X80646522Y-35864534D01*
X80709781Y-36059223D01*
X80769283Y-36176000D01*
X80792948Y-36222446D01*
X80802715Y-36241613D01*
X80923028Y-36407213D01*
X81067786Y-36551971D01*
X81173343Y-36628661D01*
X81233390Y-36672287D01*
X81347431Y-36730394D01*
X81415776Y-36765218D01*
X81415778Y-36765218D01*
X81415781Y-36765220D01*
X81520137Y-36799127D01*
X81610465Y-36828477D01*
X81711557Y-36844488D01*
X81812648Y-36860500D01*
X81812649Y-36860500D01*
X82017351Y-36860500D01*
X82017352Y-36860500D01*
X82219534Y-36828477D01*
X82414219Y-36765220D01*
X82596610Y-36672287D01*
X82689590Y-36604732D01*
X82762213Y-36551971D01*
X82762215Y-36551968D01*
X82762219Y-36551966D01*
X82906966Y-36407219D01*
X82906968Y-36407215D01*
X82906971Y-36407213D01*
X83016890Y-36255920D01*
X83027287Y-36241610D01*
X83120220Y-36059219D01*
X83183477Y-35864534D01*
X83215500Y-35662352D01*
X83215500Y-35457648D01*
X83789500Y-35457648D01*
X83789500Y-35662351D01*
X83821522Y-35864534D01*
X83884781Y-36059223D01*
X83944283Y-36176000D01*
X83967948Y-36222446D01*
X83977715Y-36241613D01*
X84098028Y-36407213D01*
X84242786Y-36551971D01*
X84348343Y-36628661D01*
X84408390Y-36672287D01*
X84522431Y-36730394D01*
X84590776Y-36765218D01*
X84590778Y-36765218D01*
X84590781Y-36765220D01*
X84695137Y-36799127D01*
X84785465Y-36828477D01*
X84886557Y-36844488D01*
X84987648Y-36860500D01*
X84987649Y-36860500D01*
X85192351Y-36860500D01*
X85192352Y-36860500D01*
X85394534Y-36828477D01*
X85589219Y-36765220D01*
X85771610Y-36672287D01*
X85864590Y-36604732D01*
X85937213Y-36551971D01*
X85937215Y-36551968D01*
X85937219Y-36551966D01*
X86015503Y-36473682D01*
X113508000Y-36473682D01*
X113508000Y-36678317D01*
X113540009Y-36880417D01*
X113603244Y-37075031D01*
X113696141Y-37257350D01*
X113696147Y-37257359D01*
X113728523Y-37301921D01*
X113728524Y-37301922D01*
X114408000Y-36622446D01*
X114408000Y-36628661D01*
X114435259Y-36730394D01*
X114487920Y-36821606D01*
X114562394Y-36896080D01*
X114653606Y-36948741D01*
X114755339Y-36976000D01*
X114761553Y-36976000D01*
X114082076Y-37655474D01*
X114126650Y-37687859D01*
X114308968Y-37780755D01*
X114503582Y-37843990D01*
X114705683Y-37876000D01*
X114910317Y-37876000D01*
X115112417Y-37843990D01*
X115307031Y-37780755D01*
X115489349Y-37687859D01*
X115533921Y-37655474D01*
X114854447Y-36976000D01*
X114860661Y-36976000D01*
X114962394Y-36948741D01*
X115053606Y-36896080D01*
X115128080Y-36821606D01*
X115180741Y-36730394D01*
X115208000Y-36628661D01*
X115208000Y-36622447D01*
X115887474Y-37301921D01*
X115919859Y-37257349D01*
X116012755Y-37075031D01*
X116075990Y-36880417D01*
X116108000Y-36678317D01*
X116108000Y-36473682D01*
X116075990Y-36271582D01*
X116012755Y-36076968D01*
X115919859Y-35894650D01*
X115887474Y-35850077D01*
X115887474Y-35850076D01*
X115208000Y-36529551D01*
X115208000Y-36523339D01*
X115180741Y-36421606D01*
X115128080Y-36330394D01*
X115053606Y-36255920D01*
X114962394Y-36203259D01*
X114860661Y-36176000D01*
X114854446Y-36176000D01*
X115533922Y-35496524D01*
X115533921Y-35496523D01*
X115489359Y-35464147D01*
X115489350Y-35464141D01*
X115307031Y-35371244D01*
X115112417Y-35308009D01*
X114910317Y-35276000D01*
X114705683Y-35276000D01*
X114503582Y-35308009D01*
X114308968Y-35371244D01*
X114126644Y-35464143D01*
X114082077Y-35496523D01*
X114082077Y-35496524D01*
X114761554Y-36176000D01*
X114755339Y-36176000D01*
X114653606Y-36203259D01*
X114562394Y-36255920D01*
X114487920Y-36330394D01*
X114435259Y-36421606D01*
X114408000Y-36523339D01*
X114408000Y-36529553D01*
X113728524Y-35850077D01*
X113728523Y-35850077D01*
X113696143Y-35894644D01*
X113603244Y-36076968D01*
X113540009Y-36271582D01*
X113508000Y-36473682D01*
X86015503Y-36473682D01*
X86081966Y-36407219D01*
X86081970Y-36407213D01*
X86090167Y-36395932D01*
X86090167Y-36395931D01*
X86191890Y-36255920D01*
X86202287Y-36241610D01*
X86295220Y-36059219D01*
X86358477Y-35864534D01*
X86390500Y-35662352D01*
X86390500Y-35457648D01*
X86389560Y-35451711D01*
X86358477Y-35255465D01*
X86295218Y-35060776D01*
X86217891Y-34909015D01*
X86202287Y-34878390D01*
X86194556Y-34867749D01*
X86081971Y-34712786D01*
X85937213Y-34568028D01*
X85771613Y-34447715D01*
X85771612Y-34447714D01*
X85771610Y-34447713D01*
X85714653Y-34418691D01*
X85589223Y-34354781D01*
X85394534Y-34291522D01*
X85219995Y-34263878D01*
X85192352Y-34259500D01*
X84987648Y-34259500D01*
X84963329Y-34263351D01*
X84785465Y-34291522D01*
X84590776Y-34354781D01*
X84408386Y-34447715D01*
X84242786Y-34568028D01*
X84098028Y-34712786D01*
X83977715Y-34878386D01*
X83884781Y-35060776D01*
X83821522Y-35255465D01*
X83789500Y-35457648D01*
X83215500Y-35457648D01*
X83214560Y-35451711D01*
X83183477Y-35255465D01*
X83120218Y-35060776D01*
X83042891Y-34909015D01*
X83027287Y-34878390D01*
X83019556Y-34867749D01*
X82906971Y-34712786D01*
X82762213Y-34568028D01*
X82596613Y-34447715D01*
X82596612Y-34447714D01*
X82596610Y-34447713D01*
X82539653Y-34418691D01*
X82414223Y-34354781D01*
X82219534Y-34291522D01*
X82044995Y-34263878D01*
X82017352Y-34259500D01*
X81812648Y-34259500D01*
X81788329Y-34263351D01*
X81610465Y-34291522D01*
X81415776Y-34354781D01*
X81233386Y-34447715D01*
X81067786Y-34568028D01*
X80923028Y-34712786D01*
X80802715Y-34878386D01*
X80709781Y-35060776D01*
X80646522Y-35255465D01*
X80614500Y-35457648D01*
X70068431Y-35457648D01*
X70160984Y-35365095D01*
X72249786Y-33276292D01*
X72249789Y-33276289D01*
X72337394Y-33145179D01*
X72397738Y-32999497D01*
X72428500Y-32844842D01*
X72428500Y-32687157D01*
X72428500Y-30401153D01*
X74764500Y-30401153D01*
X74764500Y-30558846D01*
X74795261Y-30713489D01*
X74795264Y-30713501D01*
X74855061Y-30857864D01*
X74864500Y-30905316D01*
X74864500Y-32594684D01*
X74855061Y-32642136D01*
X74795264Y-32786498D01*
X74795261Y-32786510D01*
X74764500Y-32941153D01*
X74764500Y-33098846D01*
X74795261Y-33253489D01*
X74795264Y-33253501D01*
X74855602Y-33399172D01*
X74855609Y-33399185D01*
X74943210Y-33530288D01*
X74943213Y-33530292D01*
X75054707Y-33641786D01*
X75054711Y-33641789D01*
X75185814Y-33729390D01*
X75185827Y-33729397D01*
X75331498Y-33789735D01*
X75331503Y-33789737D01*
X75486153Y-33820499D01*
X75486156Y-33820500D01*
X75486158Y-33820500D01*
X75643844Y-33820500D01*
X75643845Y-33820499D01*
X75798497Y-33789737D01*
X75944179Y-33729394D01*
X76075289Y-33641789D01*
X76186789Y-33530289D01*
X76274394Y-33399179D01*
X76334737Y-33253497D01*
X76365500Y-33098842D01*
X76365500Y-32941158D01*
X76360228Y-32914656D01*
X76359100Y-32908984D01*
X89104500Y-32908984D01*
X89104500Y-34909015D01*
X89115000Y-35011795D01*
X89115001Y-35011796D01*
X89170186Y-35178335D01*
X89170187Y-35178337D01*
X89262286Y-35327651D01*
X89262289Y-35327655D01*
X89386344Y-35451710D01*
X89386348Y-35451713D01*
X89535662Y-35543812D01*
X89535664Y-35543813D01*
X89535666Y-35543814D01*
X89702203Y-35598999D01*
X89804992Y-35609500D01*
X89804997Y-35609500D01*
X91805003Y-35609500D01*
X91805008Y-35609500D01*
X91907797Y-35598999D01*
X92074334Y-35543814D01*
X92223655Y-35451711D01*
X92347711Y-35327655D01*
X92439814Y-35178334D01*
X92494999Y-35011797D01*
X92505500Y-34909008D01*
X92505500Y-32908992D01*
X92494999Y-32806203D01*
X92439814Y-32639666D01*
X92414604Y-32598795D01*
X92347713Y-32490348D01*
X92347710Y-32490344D01*
X92223655Y-32366289D01*
X92223651Y-32366286D01*
X92074337Y-32274187D01*
X92074335Y-32274186D01*
X91991065Y-32246593D01*
X91907797Y-32219001D01*
X91907795Y-32219000D01*
X91805015Y-32208500D01*
X91805008Y-32208500D01*
X89804992Y-32208500D01*
X89804984Y-32208500D01*
X89702204Y-32219000D01*
X89702203Y-32219001D01*
X89535664Y-32274186D01*
X89535662Y-32274187D01*
X89386348Y-32366286D01*
X89386344Y-32366289D01*
X89262289Y-32490344D01*
X89262286Y-32490348D01*
X89170187Y-32639662D01*
X89170186Y-32639664D01*
X89115001Y-32806203D01*
X89115000Y-32806204D01*
X89104500Y-32908984D01*
X76359100Y-32908984D01*
X76342714Y-32826606D01*
X76334737Y-32786503D01*
X76332548Y-32781218D01*
X76274939Y-32642136D01*
X76265500Y-32594684D01*
X76265500Y-31384575D01*
X95328000Y-31384575D01*
X95328000Y-31607424D01*
X95357085Y-31828354D01*
X95357088Y-31828367D01*
X95414763Y-32043618D01*
X95500045Y-32249502D01*
X95500054Y-32249520D01*
X95611464Y-32442491D01*
X95611473Y-32442504D01*
X95662040Y-32508403D01*
X95662043Y-32508403D01*
X96463387Y-31707059D01*
X96468889Y-31727591D01*
X96547881Y-31864408D01*
X96659592Y-31976119D01*
X96796409Y-32055111D01*
X96816940Y-32060612D01*
X96015595Y-32861955D01*
X96015595Y-32861956D01*
X96081507Y-32912533D01*
X96274485Y-33023949D01*
X96274497Y-33023954D01*
X96480381Y-33109236D01*
X96695632Y-33166911D01*
X96695645Y-33166914D01*
X96916575Y-33196000D01*
X97139425Y-33196000D01*
X97360354Y-33166914D01*
X97360367Y-33166911D01*
X97575618Y-33109236D01*
X97781502Y-33023954D01*
X97781514Y-33023949D01*
X97974498Y-32912530D01*
X98040403Y-32861957D01*
X98040404Y-32861956D01*
X97239059Y-32060612D01*
X97259591Y-32055111D01*
X97396408Y-31976119D01*
X97508119Y-31864408D01*
X97587111Y-31727591D01*
X97592612Y-31707059D01*
X98393956Y-32508404D01*
X98393957Y-32508403D01*
X98444530Y-32442498D01*
X98555949Y-32249514D01*
X98555954Y-32249502D01*
X98641236Y-32043618D01*
X98698911Y-31828367D01*
X98698914Y-31828354D01*
X98728000Y-31607424D01*
X98728000Y-31384575D01*
X98698914Y-31163645D01*
X98698911Y-31163632D01*
X98641236Y-30948381D01*
X98555954Y-30742497D01*
X98555949Y-30742485D01*
X98447609Y-30554834D01*
X98447608Y-30554832D01*
X98444533Y-30549507D01*
X98403462Y-30495983D01*
X109297500Y-30495983D01*
X109297500Y-32496001D01*
X109297501Y-32496018D01*
X109308000Y-32598796D01*
X109308001Y-32598799D01*
X109363185Y-32765331D01*
X109363187Y-32765336D01*
X109376240Y-32786498D01*
X109455288Y-32914656D01*
X109579344Y-33038712D01*
X109728666Y-33130814D01*
X109895203Y-33185999D01*
X109997991Y-33196500D01*
X111998008Y-33196499D01*
X112100797Y-33185999D01*
X112267334Y-33130814D01*
X112416656Y-33038712D01*
X112540712Y-32914656D01*
X112632814Y-32765334D01*
X112687999Y-32598797D01*
X112698500Y-32496009D01*
X112698499Y-31473648D01*
X113507500Y-31473648D01*
X113507500Y-31678351D01*
X113539522Y-31880534D01*
X113602781Y-32075223D01*
X113695715Y-32257613D01*
X113816028Y-32423213D01*
X113960786Y-32567971D01*
X114115749Y-32680556D01*
X114126390Y-32688287D01*
X114242607Y-32747503D01*
X114308776Y-32781218D01*
X114308778Y-32781218D01*
X114308781Y-32781220D01*
X114385671Y-32806203D01*
X114503465Y-32844477D01*
X114604557Y-32860488D01*
X114705648Y-32876500D01*
X114705649Y-32876500D01*
X114910351Y-32876500D01*
X114910352Y-32876500D01*
X115112534Y-32844477D01*
X115307219Y-32781220D01*
X115489610Y-32688287D01*
X115612781Y-32598799D01*
X115655213Y-32567971D01*
X115655215Y-32567968D01*
X115655219Y-32567966D01*
X115799966Y-32423219D01*
X115799968Y-32423215D01*
X115799971Y-32423213D01*
X115908243Y-32274187D01*
X115920287Y-32257610D01*
X116013220Y-32075219D01*
X116076477Y-31880534D01*
X116108500Y-31678352D01*
X116108500Y-31473648D01*
X116076477Y-31271466D01*
X116013220Y-31076781D01*
X116013218Y-31076778D01*
X116013218Y-31076776D01*
X115979503Y-31010607D01*
X115920287Y-30894390D01*
X115904375Y-30872489D01*
X115799971Y-30728786D01*
X115655213Y-30584028D01*
X115489613Y-30463715D01*
X115489612Y-30463714D01*
X115489610Y-30463713D01*
X115432653Y-30434691D01*
X115307223Y-30370781D01*
X115112534Y-30307522D01*
X114937995Y-30279878D01*
X114910352Y-30275500D01*
X114705648Y-30275500D01*
X114681329Y-30279351D01*
X114503465Y-30307522D01*
X114308776Y-30370781D01*
X114126386Y-30463715D01*
X113960786Y-30584028D01*
X113816028Y-30728786D01*
X113695715Y-30894386D01*
X113602781Y-31076776D01*
X113539522Y-31271465D01*
X113507500Y-31473648D01*
X112698499Y-31473648D01*
X112698499Y-30495992D01*
X112687999Y-30393203D01*
X112632814Y-30226666D01*
X112540712Y-30077344D01*
X112416656Y-29953288D01*
X112267334Y-29861186D01*
X112100797Y-29806001D01*
X112100795Y-29806000D01*
X111998010Y-29795500D01*
X109997998Y-29795500D01*
X109997981Y-29795501D01*
X109895203Y-29806000D01*
X109895200Y-29806001D01*
X109728668Y-29861185D01*
X109728663Y-29861187D01*
X109579342Y-29953289D01*
X109455289Y-30077342D01*
X109363187Y-30226663D01*
X109363185Y-30226668D01*
X109347004Y-30275500D01*
X109308001Y-30393203D01*
X109308001Y-30393204D01*
X109308000Y-30393204D01*
X109297500Y-30495983D01*
X98403462Y-30495983D01*
X98393956Y-30483595D01*
X98393955Y-30483595D01*
X97592612Y-31284939D01*
X97587111Y-31264409D01*
X97508119Y-31127592D01*
X97396408Y-31015881D01*
X97259591Y-30936889D01*
X97239058Y-30931387D01*
X98040403Y-30130043D01*
X98040403Y-30130040D01*
X97974504Y-30079473D01*
X97974491Y-30079464D01*
X97781520Y-29968054D01*
X97781502Y-29968045D01*
X97575618Y-29882763D01*
X97360367Y-29825088D01*
X97360354Y-29825085D01*
X97139425Y-29796000D01*
X96916575Y-29796000D01*
X96695645Y-29825085D01*
X96695632Y-29825088D01*
X96480381Y-29882763D01*
X96274497Y-29968045D01*
X96274479Y-29968054D01*
X96081511Y-30079462D01*
X96015595Y-30130042D01*
X96816941Y-30931387D01*
X96796409Y-30936889D01*
X96659592Y-31015881D01*
X96547881Y-31127592D01*
X96468889Y-31264409D01*
X96463387Y-31284940D01*
X95662042Y-30483595D01*
X95611462Y-30549511D01*
X95500054Y-30742479D01*
X95500045Y-30742497D01*
X95414763Y-30948381D01*
X95357088Y-31163632D01*
X95357085Y-31163645D01*
X95328000Y-31384575D01*
X76265500Y-31384575D01*
X76265500Y-30905316D01*
X76274939Y-30857864D01*
X76334735Y-30713501D01*
X76334737Y-30713497D01*
X76365500Y-30558842D01*
X76365500Y-30401158D01*
X76365500Y-30401155D01*
X76365499Y-30401153D01*
X76359457Y-30370780D01*
X76334737Y-30246503D01*
X76286497Y-30130040D01*
X76274397Y-30100827D01*
X76274390Y-30100814D01*
X76186789Y-29969711D01*
X76186786Y-29969707D01*
X76075292Y-29858213D01*
X76075288Y-29858210D01*
X75944185Y-29770609D01*
X75944172Y-29770602D01*
X75798501Y-29710264D01*
X75798489Y-29710261D01*
X75643845Y-29679500D01*
X75643842Y-29679500D01*
X75486158Y-29679500D01*
X75486155Y-29679500D01*
X75331510Y-29710261D01*
X75331498Y-29710264D01*
X75185827Y-29770602D01*
X75185814Y-29770609D01*
X75054711Y-29858210D01*
X75054707Y-29858213D01*
X74943213Y-29969707D01*
X74943210Y-29969711D01*
X74855609Y-30100814D01*
X74855602Y-30100827D01*
X74795264Y-30246498D01*
X74795261Y-30246510D01*
X74764500Y-30401153D01*
X72428500Y-30401153D01*
X72428500Y-28589732D01*
X72448185Y-28522693D01*
X72500989Y-28476938D01*
X72513495Y-28472026D01*
X72547334Y-28460814D01*
X72696656Y-28368712D01*
X72820712Y-28244656D01*
X72912814Y-28095334D01*
X72967999Y-27928797D01*
X72978500Y-27826009D01*
X72978499Y-26275992D01*
X72978498Y-26275983D01*
X85156500Y-26275983D01*
X85156500Y-27826001D01*
X85156501Y-27826018D01*
X85167000Y-27928796D01*
X85167001Y-27928799D01*
X85212894Y-28067294D01*
X85222186Y-28095334D01*
X85314288Y-28244656D01*
X85438344Y-28368712D01*
X85587666Y-28460814D01*
X85754203Y-28515999D01*
X85856991Y-28526500D01*
X87157008Y-28526499D01*
X87259797Y-28515999D01*
X87426334Y-28460814D01*
X87575656Y-28368712D01*
X87699712Y-28244656D01*
X87791814Y-28095334D01*
X87791814Y-28095331D01*
X87795178Y-28089879D01*
X87847126Y-28043154D01*
X87916088Y-28031931D01*
X87980170Y-28059774D01*
X87988398Y-28067294D01*
X88127213Y-28206109D01*
X88299179Y-28331048D01*
X88299181Y-28331049D01*
X88299184Y-28331051D01*
X88488588Y-28427557D01*
X88690757Y-28493246D01*
X88900713Y-28526500D01*
X88900714Y-28526500D01*
X89113286Y-28526500D01*
X89113287Y-28526500D01*
X89323243Y-28493246D01*
X89525412Y-28427557D01*
X89714816Y-28331051D01*
X89764721Y-28294793D01*
X89886786Y-28206109D01*
X89886788Y-28206106D01*
X89886792Y-28206104D01*
X90037104Y-28055792D01*
X90037106Y-28055788D01*
X90037109Y-28055786D01*
X90151109Y-27898876D01*
X90162051Y-27883816D01*
X90258557Y-27694412D01*
X90324246Y-27492243D01*
X90357500Y-27282287D01*
X90357500Y-26819713D01*
X90324246Y-26609757D01*
X90258557Y-26407588D01*
X90162051Y-26218184D01*
X90162049Y-26218181D01*
X90162048Y-26218179D01*
X90037109Y-26046213D01*
X89886786Y-25895890D01*
X89714820Y-25770951D01*
X89525414Y-25674444D01*
X89525413Y-25674443D01*
X89525412Y-25674443D01*
X89323243Y-25608754D01*
X89323241Y-25608753D01*
X89323240Y-25608753D01*
X89161957Y-25583208D01*
X89113287Y-25575500D01*
X88900713Y-25575500D01*
X88852042Y-25583208D01*
X88690760Y-25608753D01*
X88488585Y-25674444D01*
X88299179Y-25770951D01*
X88127215Y-25895889D01*
X87988398Y-26034706D01*
X87927075Y-26068190D01*
X87857383Y-26063206D01*
X87801450Y-26021334D01*
X87795178Y-26012120D01*
X87749900Y-25938713D01*
X87699712Y-25857344D01*
X87575656Y-25733288D01*
X87426334Y-25641186D01*
X87259797Y-25586001D01*
X87259795Y-25586000D01*
X87157010Y-25575500D01*
X85856998Y-25575500D01*
X85856981Y-25575501D01*
X85754203Y-25586000D01*
X85754200Y-25586001D01*
X85587668Y-25641185D01*
X85587663Y-25641187D01*
X85438342Y-25733289D01*
X85314289Y-25857342D01*
X85222187Y-26006663D01*
X85222185Y-26006668D01*
X85204835Y-26059028D01*
X85167001Y-26173203D01*
X85167001Y-26173204D01*
X85167000Y-26173204D01*
X85156500Y-26275983D01*
X72978498Y-26275983D01*
X72974261Y-26234508D01*
X72967999Y-26173203D01*
X72967998Y-26173200D01*
X72933201Y-26068190D01*
X72912814Y-26006666D01*
X72820712Y-25857344D01*
X72696656Y-25733288D01*
X72547334Y-25641186D01*
X72380797Y-25586001D01*
X72380795Y-25586000D01*
X72278010Y-25575500D01*
X70977998Y-25575500D01*
X70977981Y-25575501D01*
X70875203Y-25586000D01*
X70875200Y-25586001D01*
X70708668Y-25641185D01*
X70708663Y-25641187D01*
X70559342Y-25733289D01*
X70435289Y-25857342D01*
X70339821Y-26012121D01*
X70287873Y-26058845D01*
X70218910Y-26070068D01*
X70154828Y-26042224D01*
X70146601Y-26034705D01*
X70007786Y-25895890D01*
X69835820Y-25770951D01*
X69646414Y-25674444D01*
X69646413Y-25674443D01*
X69646412Y-25674443D01*
X69444243Y-25608754D01*
X69444241Y-25608753D01*
X69444240Y-25608753D01*
X69282957Y-25583208D01*
X69234287Y-25575500D01*
X69021713Y-25575500D01*
X68973042Y-25583208D01*
X68811760Y-25608753D01*
X68609585Y-25674444D01*
X68420179Y-25770951D01*
X68248213Y-25895890D01*
X68097890Y-26046213D01*
X67972951Y-26218179D01*
X67876444Y-26407585D01*
X67810753Y-26609760D01*
X67777500Y-26819713D01*
X67777500Y-27282286D01*
X67810753Y-27492239D01*
X67876444Y-27694414D01*
X67972951Y-27883820D01*
X68097890Y-28055786D01*
X68248213Y-28206109D01*
X68420179Y-28331048D01*
X68420181Y-28331049D01*
X68420184Y-28331051D01*
X68609588Y-28427557D01*
X68811757Y-28493246D01*
X69021713Y-28526500D01*
X69021714Y-28526500D01*
X69234286Y-28526500D01*
X69234287Y-28526500D01*
X69444243Y-28493246D01*
X69646412Y-28427557D01*
X69835816Y-28331051D01*
X69938813Y-28256220D01*
X70007784Y-28206110D01*
X70007784Y-28206109D01*
X70007792Y-28206104D01*
X70146604Y-28067291D01*
X70207923Y-28033809D01*
X70277615Y-28038793D01*
X70333549Y-28080664D01*
X70339821Y-28089878D01*
X70343185Y-28095333D01*
X70343186Y-28095334D01*
X70435288Y-28244656D01*
X70559344Y-28368712D01*
X70708666Y-28460814D01*
X70742500Y-28472025D01*
X70799947Y-28511796D01*
X70826772Y-28576311D01*
X70827500Y-28589732D01*
X70827500Y-32383059D01*
X70807815Y-32450098D01*
X70791181Y-32470740D01*
X65291213Y-37970707D01*
X65291210Y-37970711D01*
X65203609Y-38101814D01*
X65203602Y-38101827D01*
X65143264Y-38247498D01*
X65143261Y-38247510D01*
X65112500Y-38402153D01*
X64673500Y-38402153D01*
X64673500Y-38378648D01*
X64641477Y-38176465D01*
X64578218Y-37981776D01*
X64544503Y-37915607D01*
X64485287Y-37799390D01*
X64471748Y-37780755D01*
X64364971Y-37633786D01*
X64220213Y-37489028D01*
X64054613Y-37368715D01*
X64054612Y-37368714D01*
X64054610Y-37368713D01*
X63997653Y-37339691D01*
X63872223Y-37275781D01*
X63677534Y-37212522D01*
X63502995Y-37184878D01*
X63475352Y-37180500D01*
X63270648Y-37180500D01*
X63246329Y-37184351D01*
X63068465Y-37212522D01*
X62873776Y-37275781D01*
X62691386Y-37368715D01*
X62525786Y-37489028D01*
X62381028Y-37633786D01*
X62260715Y-37799386D01*
X62167781Y-37981776D01*
X62104522Y-38176465D01*
X62072500Y-38378648D01*
X62072500Y-38583351D01*
X62104522Y-38785534D01*
X62167781Y-38980223D01*
X62260715Y-39162613D01*
X62381028Y-39328213D01*
X62525786Y-39472971D01*
X62691385Y-39593284D01*
X62691387Y-39593285D01*
X62691390Y-39593287D01*
X62784630Y-39640795D01*
X62835426Y-39688770D01*
X62852221Y-39756591D01*
X62829684Y-39822725D01*
X62784630Y-39861765D01*
X62691644Y-39909143D01*
X62647077Y-39941523D01*
X62647077Y-39941524D01*
X63326554Y-40621000D01*
X63320339Y-40621000D01*
X63218606Y-40648259D01*
X63127394Y-40700920D01*
X63052920Y-40775394D01*
X63000259Y-40866606D01*
X62973000Y-40968339D01*
X62973000Y-40974553D01*
X62293524Y-40295077D01*
X62293523Y-40295077D01*
X62261143Y-40339644D01*
X62168244Y-40521968D01*
X62105009Y-40716582D01*
X62073000Y-40918682D01*
X62073000Y-41123317D01*
X62105009Y-41325417D01*
X62168244Y-41520031D01*
X62196152Y-41574802D01*
X62209048Y-41643472D01*
X62182772Y-41708212D01*
X62125665Y-41748469D01*
X62109859Y-41752714D01*
X61996508Y-41775261D01*
X61996498Y-41775264D01*
X61850827Y-41835602D01*
X61850814Y-41835609D01*
X61719711Y-41923210D01*
X61719707Y-41923213D01*
X61608213Y-42034707D01*
X61608210Y-42034711D01*
X61520609Y-42165814D01*
X61520602Y-42165827D01*
X61460264Y-42311498D01*
X61460261Y-42311510D01*
X61429501Y-42466149D01*
X61429500Y-42466155D01*
X61429500Y-42470716D01*
X61409815Y-42537755D01*
X61357011Y-42583510D01*
X61287853Y-42593454D01*
X61240404Y-42576255D01*
X61167340Y-42531189D01*
X61167335Y-42531187D01*
X61167334Y-42531186D01*
X61000797Y-42476001D01*
X61000795Y-42476000D01*
X60898010Y-42465500D01*
X59497998Y-42465500D01*
X59497981Y-42465501D01*
X59395203Y-42476000D01*
X59395200Y-42476001D01*
X59228668Y-42531185D01*
X59228663Y-42531187D01*
X59079342Y-42623289D01*
X59015681Y-42686951D01*
X58954358Y-42720436D01*
X58884666Y-42715452D01*
X58840319Y-42686951D01*
X58776657Y-42623289D01*
X58776656Y-42623288D01*
X58627334Y-42531186D01*
X58460797Y-42476001D01*
X58460795Y-42476000D01*
X58358010Y-42465500D01*
X56957998Y-42465500D01*
X56957981Y-42465501D01*
X56855203Y-42476000D01*
X56855200Y-42476001D01*
X56688668Y-42531185D01*
X56688663Y-42531187D01*
X56539342Y-42623289D01*
X56475681Y-42686951D01*
X56414358Y-42720436D01*
X56344666Y-42715452D01*
X56300319Y-42686951D01*
X56236657Y-42623289D01*
X56236656Y-42623288D01*
X56087334Y-42531186D01*
X55920797Y-42476001D01*
X55920795Y-42476000D01*
X55818010Y-42465500D01*
X54417998Y-42465500D01*
X54417981Y-42465501D01*
X54315203Y-42476000D01*
X54315200Y-42476001D01*
X54148668Y-42531185D01*
X54148663Y-42531187D01*
X53999342Y-42623289D01*
X53935681Y-42686951D01*
X53874358Y-42720436D01*
X53804666Y-42715452D01*
X53760319Y-42686951D01*
X53696657Y-42623289D01*
X53696656Y-42623288D01*
X53547334Y-42531186D01*
X53380797Y-42476001D01*
X53380795Y-42476000D01*
X53278010Y-42465500D01*
X51877998Y-42465500D01*
X51877981Y-42465501D01*
X51775203Y-42476000D01*
X51775200Y-42476001D01*
X51608668Y-42531185D01*
X51608663Y-42531187D01*
X51459342Y-42623289D01*
X51395681Y-42686951D01*
X51334358Y-42720436D01*
X51264666Y-42715452D01*
X51220319Y-42686951D01*
X51156657Y-42623289D01*
X51156656Y-42623288D01*
X51007334Y-42531186D01*
X50840797Y-42476001D01*
X50840795Y-42476000D01*
X50738010Y-42465500D01*
X49337998Y-42465500D01*
X49337981Y-42465501D01*
X49235203Y-42476000D01*
X49235200Y-42476001D01*
X49068668Y-42531185D01*
X49068663Y-42531187D01*
X48919342Y-42623289D01*
X48855681Y-42686951D01*
X48794358Y-42720436D01*
X48724666Y-42715452D01*
X48680319Y-42686951D01*
X48616657Y-42623289D01*
X48616656Y-42623288D01*
X48467334Y-42531186D01*
X48300797Y-42476001D01*
X48300795Y-42476000D01*
X48198010Y-42465500D01*
X46797998Y-42465500D01*
X46797981Y-42465501D01*
X46695203Y-42476000D01*
X46695200Y-42476001D01*
X46528668Y-42531185D01*
X46528663Y-42531187D01*
X46379345Y-42623287D01*
X46315327Y-42687305D01*
X46254003Y-42720789D01*
X46184312Y-42715804D01*
X46139965Y-42687304D01*
X46076345Y-42623684D01*
X45927124Y-42531643D01*
X45927119Y-42531641D01*
X45760697Y-42476494D01*
X45760690Y-42476493D01*
X45657986Y-42466000D01*
X45208000Y-42466000D01*
X45208000Y-45150314D01*
X45203606Y-45145920D01*
X45112394Y-45093259D01*
X45010661Y-45066000D01*
X44905339Y-45066000D01*
X44803606Y-45093259D01*
X44712394Y-45145920D01*
X44708000Y-45150314D01*
X44708000Y-42466000D01*
X44258028Y-42466000D01*
X44258012Y-42466001D01*
X44155302Y-42476494D01*
X43988880Y-42531641D01*
X43988875Y-42531643D01*
X43839657Y-42623682D01*
X43776034Y-42687305D01*
X43714710Y-42720789D01*
X43645019Y-42715804D01*
X43600672Y-42687304D01*
X43536657Y-42623289D01*
X43536656Y-42623288D01*
X43387334Y-42531186D01*
X43220797Y-42476001D01*
X43220795Y-42476000D01*
X43118010Y-42465500D01*
X41717998Y-42465500D01*
X41717981Y-42465501D01*
X41615203Y-42476000D01*
X41615200Y-42476001D01*
X41448668Y-42531185D01*
X41448663Y-42531187D01*
X41299342Y-42623289D01*
X41175289Y-42747342D01*
X41083187Y-42896663D01*
X41083186Y-42896666D01*
X41028001Y-43063203D01*
X41028001Y-43063204D01*
X41028000Y-43063204D01*
X41017500Y-43165983D01*
X38173500Y-43165983D01*
X38173500Y-40918682D01*
X39213000Y-40918682D01*
X39213000Y-41123317D01*
X39245009Y-41325417D01*
X39308244Y-41520031D01*
X39401141Y-41702350D01*
X39401147Y-41702359D01*
X39433523Y-41746921D01*
X39433524Y-41746922D01*
X40113000Y-41067446D01*
X40113000Y-41073661D01*
X40140259Y-41175394D01*
X40192920Y-41266606D01*
X40267394Y-41341080D01*
X40358606Y-41393741D01*
X40460339Y-41421000D01*
X40466553Y-41421000D01*
X39787076Y-42100474D01*
X39831650Y-42132859D01*
X40013968Y-42225755D01*
X40208582Y-42288990D01*
X40410683Y-42321000D01*
X40615317Y-42321000D01*
X40817417Y-42288990D01*
X41012031Y-42225755D01*
X41194349Y-42132859D01*
X41238921Y-42100474D01*
X40559447Y-41421000D01*
X40565661Y-41421000D01*
X40667394Y-41393741D01*
X40758606Y-41341080D01*
X40833080Y-41266606D01*
X40885741Y-41175394D01*
X40913000Y-41073661D01*
X40913000Y-41067447D01*
X41592474Y-41746921D01*
X41624859Y-41702349D01*
X41717755Y-41520031D01*
X41780990Y-41325417D01*
X41813000Y-41123317D01*
X41813000Y-40918682D01*
X41780990Y-40716582D01*
X41717755Y-40521968D01*
X41624859Y-40339650D01*
X41592474Y-40295077D01*
X41592474Y-40295076D01*
X40913000Y-40974551D01*
X40913000Y-40968339D01*
X40885741Y-40866606D01*
X40833080Y-40775394D01*
X40758606Y-40700920D01*
X40667394Y-40648259D01*
X40565661Y-40621000D01*
X40559446Y-40621000D01*
X41238922Y-39941524D01*
X41238921Y-39941523D01*
X41194359Y-39909147D01*
X41194350Y-39909141D01*
X41012031Y-39816244D01*
X40817417Y-39753009D01*
X40615317Y-39721000D01*
X40410683Y-39721000D01*
X40208582Y-39753009D01*
X40013968Y-39816244D01*
X39831644Y-39909143D01*
X39787077Y-39941523D01*
X39787077Y-39941524D01*
X40466554Y-40621000D01*
X40460339Y-40621000D01*
X40358606Y-40648259D01*
X40267394Y-40700920D01*
X40192920Y-40775394D01*
X40140259Y-40866606D01*
X40113000Y-40968339D01*
X40113000Y-40974553D01*
X39433524Y-40295077D01*
X39433523Y-40295077D01*
X39401143Y-40339644D01*
X39308244Y-40521968D01*
X39245009Y-40716582D01*
X39213000Y-40918682D01*
X38173500Y-40918682D01*
X38173500Y-26203135D01*
X39212500Y-26203135D01*
X39212500Y-27898870D01*
X39212501Y-27898876D01*
X39218908Y-27958483D01*
X39269202Y-28093328D01*
X39269206Y-28093335D01*
X39355452Y-28208544D01*
X39355455Y-28208547D01*
X39470664Y-28294793D01*
X39470671Y-28294797D01*
X39605517Y-28345091D01*
X39605516Y-28345091D01*
X39612444Y-28345835D01*
X39665127Y-28351500D01*
X41360872Y-28351499D01*
X41420483Y-28345091D01*
X41555331Y-28294796D01*
X41670546Y-28208546D01*
X41756796Y-28093331D01*
X41807091Y-27958483D01*
X41813500Y-27898873D01*
X41813499Y-26948648D01*
X62072500Y-26948648D01*
X62072500Y-27153351D01*
X62104522Y-27355534D01*
X62167781Y-27550223D01*
X62260715Y-27732613D01*
X62381028Y-27898213D01*
X62525786Y-28042971D01*
X62680749Y-28155556D01*
X62691390Y-28163287D01*
X62775423Y-28206104D01*
X62784080Y-28210515D01*
X62834876Y-28258490D01*
X62851671Y-28326311D01*
X62829134Y-28392446D01*
X62784080Y-28431485D01*
X62691386Y-28478715D01*
X62525786Y-28599028D01*
X62381028Y-28743786D01*
X62260715Y-28909386D01*
X62167781Y-29091776D01*
X62104522Y-29286465D01*
X62072500Y-29488648D01*
X62072500Y-29693352D01*
X62075179Y-29710264D01*
X62104522Y-29895534D01*
X62167781Y-30090223D01*
X62188071Y-30130043D01*
X62247414Y-30246510D01*
X62260715Y-30272613D01*
X62381028Y-30438213D01*
X62525786Y-30582971D01*
X62680749Y-30695556D01*
X62691390Y-30703287D01*
X62768344Y-30742497D01*
X62873776Y-30796218D01*
X62873778Y-30796218D01*
X62873781Y-30796220D01*
X62978137Y-30830127D01*
X63068465Y-30859477D01*
X63150619Y-30872489D01*
X63270648Y-30891500D01*
X63270649Y-30891500D01*
X63475351Y-30891500D01*
X63475352Y-30891500D01*
X63677534Y-30859477D01*
X63872219Y-30796220D01*
X64054610Y-30703287D01*
X64147590Y-30635732D01*
X64220213Y-30582971D01*
X64220215Y-30582968D01*
X64220219Y-30582966D01*
X64364966Y-30438219D01*
X64364968Y-30438215D01*
X64364971Y-30438213D01*
X64483187Y-30275500D01*
X64485287Y-30272610D01*
X64578220Y-30090219D01*
X64641477Y-29895534D01*
X64673500Y-29693352D01*
X64673500Y-29488648D01*
X64641477Y-29286466D01*
X64578220Y-29091781D01*
X64578218Y-29091778D01*
X64578218Y-29091776D01*
X64544503Y-29025607D01*
X64485287Y-28909390D01*
X64477556Y-28898749D01*
X64364971Y-28743786D01*
X64220213Y-28599028D01*
X64054614Y-28478715D01*
X64019477Y-28460812D01*
X63961917Y-28431483D01*
X63911123Y-28383511D01*
X63894328Y-28315690D01*
X63916865Y-28249555D01*
X63961917Y-28210516D01*
X64054610Y-28163287D01*
X64075770Y-28147913D01*
X64220213Y-28042971D01*
X64220215Y-28042968D01*
X64220219Y-28042966D01*
X64364966Y-27898219D01*
X64364968Y-27898215D01*
X64364971Y-27898213D01*
X64417732Y-27825590D01*
X64485287Y-27732610D01*
X64578220Y-27550219D01*
X64641477Y-27355534D01*
X64673500Y-27153352D01*
X64673500Y-26948648D01*
X64641477Y-26746466D01*
X64578220Y-26551781D01*
X64578218Y-26551778D01*
X64578218Y-26551776D01*
X64544503Y-26485607D01*
X64485287Y-26369390D01*
X64471748Y-26350755D01*
X64364971Y-26203786D01*
X64220213Y-26059028D01*
X64054613Y-25938715D01*
X64054612Y-25938714D01*
X64054610Y-25938713D01*
X63970577Y-25895896D01*
X63872223Y-25845781D01*
X63677534Y-25782522D01*
X63502995Y-25754878D01*
X63475352Y-25750500D01*
X63270648Y-25750500D01*
X63246329Y-25754351D01*
X63068465Y-25782522D01*
X62873776Y-25845781D01*
X62691386Y-25938715D01*
X62525786Y-26059028D01*
X62381028Y-26203786D01*
X62260715Y-26369386D01*
X62167781Y-26551776D01*
X62104522Y-26746465D01*
X62072500Y-26948648D01*
X41813499Y-26948648D01*
X41813499Y-26203128D01*
X41807091Y-26143517D01*
X41779696Y-26070068D01*
X41756797Y-26008671D01*
X41756793Y-26008664D01*
X41670547Y-25893455D01*
X41670544Y-25893452D01*
X41555335Y-25807206D01*
X41555328Y-25807202D01*
X41420482Y-25756908D01*
X41420483Y-25756908D01*
X41360883Y-25750501D01*
X41360881Y-25750500D01*
X41360873Y-25750500D01*
X41360864Y-25750500D01*
X39665129Y-25750500D01*
X39665123Y-25750501D01*
X39605516Y-25756908D01*
X39470671Y-25807202D01*
X39470664Y-25807206D01*
X39355455Y-25893452D01*
X39355452Y-25893455D01*
X39269206Y-26008664D01*
X39269202Y-26008671D01*
X39218908Y-26143517D01*
X39215717Y-26173203D01*
X39212501Y-26203123D01*
X39212500Y-26203135D01*
X38173500Y-26203135D01*
X38173500Y-23642713D01*
X38654500Y-23642713D01*
X38654500Y-23855286D01*
X38687753Y-24065239D01*
X38687753Y-24065241D01*
X38687754Y-24065243D01*
X38707931Y-24127342D01*
X38753444Y-24267414D01*
X38849951Y-24456820D01*
X38974890Y-24628786D01*
X39125213Y-24779109D01*
X39297179Y-24904048D01*
X39297181Y-24904049D01*
X39297184Y-24904051D01*
X39486588Y-25000557D01*
X39688757Y-25066246D01*
X39898713Y-25099500D01*
X39898714Y-25099500D01*
X40111286Y-25099500D01*
X40111287Y-25099500D01*
X40321243Y-25066246D01*
X40390688Y-25043682D01*
X105205380Y-25043682D01*
X105205380Y-25248317D01*
X105237389Y-25450417D01*
X105300624Y-25645031D01*
X105393521Y-25827350D01*
X105393527Y-25827359D01*
X105425903Y-25871921D01*
X105425904Y-25871922D01*
X106105380Y-25192446D01*
X106105380Y-25198661D01*
X106132639Y-25300394D01*
X106185300Y-25391606D01*
X106259774Y-25466080D01*
X106350986Y-25518741D01*
X106452719Y-25546000D01*
X106458933Y-25546000D01*
X105779456Y-26225474D01*
X105824030Y-26257859D01*
X106006348Y-26350755D01*
X106200962Y-26413990D01*
X106403063Y-26446000D01*
X106607697Y-26446000D01*
X106809797Y-26413990D01*
X107004411Y-26350755D01*
X107186729Y-26257859D01*
X107231301Y-26225474D01*
X106551827Y-25546000D01*
X106558041Y-25546000D01*
X106659774Y-25518741D01*
X106750986Y-25466080D01*
X106825460Y-25391606D01*
X106878121Y-25300394D01*
X106905380Y-25198661D01*
X106905380Y-25192447D01*
X107584853Y-25871921D01*
X107622660Y-25868946D01*
X107691038Y-25883310D01*
X107740795Y-25932361D01*
X107750094Y-25953556D01*
X107769501Y-26012121D01*
X107770566Y-26015333D01*
X107770567Y-26015336D01*
X107803168Y-26068190D01*
X107862668Y-26164656D01*
X107986724Y-26288712D01*
X108136046Y-26380814D01*
X108302583Y-26435999D01*
X108405371Y-26446500D01*
X109605388Y-26446499D01*
X109708177Y-26435999D01*
X109874714Y-26380814D01*
X110024036Y-26288712D01*
X110148092Y-26164656D01*
X110240194Y-26015334D01*
X110295379Y-25848797D01*
X110305880Y-25746009D01*
X110305879Y-24545992D01*
X110295379Y-24443203D01*
X110240194Y-24276666D01*
X110148092Y-24127344D01*
X110024036Y-24003288D01*
X109874714Y-23911186D01*
X109708177Y-23856001D01*
X109708175Y-23856000D01*
X109605390Y-23845500D01*
X108405378Y-23845500D01*
X108405361Y-23845501D01*
X108302583Y-23856000D01*
X108302580Y-23856001D01*
X108136048Y-23911185D01*
X108136043Y-23911187D01*
X107986722Y-24003289D01*
X107862669Y-24127342D01*
X107770567Y-24276663D01*
X107770565Y-24276668D01*
X107750097Y-24338438D01*
X107710324Y-24395883D01*
X107645808Y-24422706D01*
X107622663Y-24423052D01*
X107584854Y-24420076D01*
X106905380Y-25099551D01*
X106905380Y-25093339D01*
X106878121Y-24991606D01*
X106825460Y-24900394D01*
X106750986Y-24825920D01*
X106659774Y-24773259D01*
X106558041Y-24746000D01*
X106551826Y-24746000D01*
X107231302Y-24066524D01*
X107231301Y-24066523D01*
X107186739Y-24034147D01*
X107186730Y-24034141D01*
X107004411Y-23941244D01*
X106809797Y-23878009D01*
X106607697Y-23846000D01*
X106403063Y-23846000D01*
X106200962Y-23878009D01*
X106006348Y-23941244D01*
X105824024Y-24034143D01*
X105779457Y-24066523D01*
X105779457Y-24066524D01*
X106458934Y-24746000D01*
X106452719Y-24746000D01*
X106350986Y-24773259D01*
X106259774Y-24825920D01*
X106185300Y-24900394D01*
X106132639Y-24991606D01*
X106105380Y-25093339D01*
X106105380Y-25099553D01*
X105425904Y-24420077D01*
X105425903Y-24420077D01*
X105393523Y-24464644D01*
X105300624Y-24646968D01*
X105237389Y-24841582D01*
X105205380Y-25043682D01*
X40390688Y-25043682D01*
X40523412Y-25000557D01*
X40712816Y-24904051D01*
X40820355Y-24825920D01*
X40884786Y-24779109D01*
X40884788Y-24779106D01*
X40884792Y-24779104D01*
X41035104Y-24628792D01*
X41035106Y-24628788D01*
X41035109Y-24628786D01*
X41160048Y-24456820D01*
X41160047Y-24456820D01*
X41160051Y-24456816D01*
X41256557Y-24267412D01*
X41322246Y-24065243D01*
X41355500Y-23855287D01*
X41355500Y-23642713D01*
X113838500Y-23642713D01*
X113838500Y-23855286D01*
X113871753Y-24065239D01*
X113871753Y-24065241D01*
X113871754Y-24065243D01*
X113891931Y-24127342D01*
X113937444Y-24267414D01*
X114033951Y-24456820D01*
X114158890Y-24628786D01*
X114309213Y-24779109D01*
X114481179Y-24904048D01*
X114481181Y-24904049D01*
X114481184Y-24904051D01*
X114670588Y-25000557D01*
X114872757Y-25066246D01*
X115082713Y-25099500D01*
X115082714Y-25099500D01*
X115295286Y-25099500D01*
X115295287Y-25099500D01*
X115505243Y-25066246D01*
X115707412Y-25000557D01*
X115896816Y-24904051D01*
X116004355Y-24825920D01*
X116068786Y-24779109D01*
X116068788Y-24779106D01*
X116068792Y-24779104D01*
X116219104Y-24628792D01*
X116219106Y-24628788D01*
X116219109Y-24628786D01*
X116344048Y-24456820D01*
X116344047Y-24456820D01*
X116344051Y-24456816D01*
X116440557Y-24267412D01*
X116506246Y-24065243D01*
X116539500Y-23855287D01*
X116539500Y-23642713D01*
X116506246Y-23432757D01*
X116440557Y-23230588D01*
X116344051Y-23041184D01*
X116344049Y-23041181D01*
X116344048Y-23041179D01*
X116219109Y-22869213D01*
X116068786Y-22718890D01*
X115896820Y-22593951D01*
X115707414Y-22497444D01*
X115707413Y-22497443D01*
X115707412Y-22497443D01*
X115505243Y-22431754D01*
X115505241Y-22431753D01*
X115505240Y-22431753D01*
X115343957Y-22406208D01*
X115295287Y-22398500D01*
X115082713Y-22398500D01*
X115034042Y-22406208D01*
X114872760Y-22431753D01*
X114670585Y-22497444D01*
X114481179Y-22593951D01*
X114309213Y-22718890D01*
X114158890Y-22869213D01*
X114033951Y-23041179D01*
X113937444Y-23230585D01*
X113871753Y-23432760D01*
X113838500Y-23642713D01*
X41355500Y-23642713D01*
X41322246Y-23432757D01*
X41256557Y-23230588D01*
X41160051Y-23041184D01*
X41160049Y-23041181D01*
X41160048Y-23041179D01*
X41035109Y-22869213D01*
X40884786Y-22718890D01*
X40712820Y-22593951D01*
X40523414Y-22497444D01*
X40523413Y-22497443D01*
X40523412Y-22497443D01*
X40321243Y-22431754D01*
X40321241Y-22431753D01*
X40321240Y-22431753D01*
X40159957Y-22406208D01*
X40111287Y-22398500D01*
X39898713Y-22398500D01*
X39850042Y-22406208D01*
X39688760Y-22431753D01*
X39486585Y-22497444D01*
X39297179Y-22593951D01*
X39125213Y-22718890D01*
X38974890Y-22869213D01*
X38849951Y-23041179D01*
X38753444Y-23230585D01*
X38687753Y-23432760D01*
X38654500Y-23642713D01*
X38173500Y-23642713D01*
X38173500Y-21874500D01*
X38193185Y-21807461D01*
X38245989Y-21761706D01*
X38297500Y-21750500D01*
X117048500Y-21750500D01*
X117115539Y-21770185D01*
G37*
%TD.AperFunction*%
%TD*%
M02*
