%TF.GenerationSoftware,KiCad,Pcbnew,9.0.6*%
%TF.CreationDate,2025-11-18T17:24:44-08:00*%
%TF.ProjectId,schematic,73636865-6d61-4746-9963-2e6b69636164,rev?*%
%TF.SameCoordinates,Original*%
%TF.FileFunction,Copper,L4,Bot*%
%TF.FilePolarity,Positive*%
%FSLAX46Y46*%
G04 Gerber Fmt 4.6, Leading zero omitted, Abs format (unit mm)*
G04 Created by KiCad (PCBNEW 9.0.6) date 2025-11-18 17:24:44*
%MOMM*%
%LPD*%
G01*
G04 APERTURE LIST*
G04 Aperture macros list*
%AMRoundRect*
0 Rectangle with rounded corners*
0 $1 Rounding radius*
0 $2 $3 $4 $5 $6 $7 $8 $9 X,Y pos of 4 corners*
0 Add a 4 corners polygon primitive as box body*
4,1,4,$2,$3,$4,$5,$6,$7,$8,$9,$2,$3,0*
0 Add four circle primitives for the rounded corners*
1,1,$1+$1,$2,$3*
1,1,$1+$1,$4,$5*
1,1,$1+$1,$6,$7*
1,1,$1+$1,$8,$9*
0 Add four rect primitives between the rounded corners*
20,1,$1+$1,$2,$3,$4,$5,0*
20,1,$1+$1,$4,$5,$6,$7,0*
20,1,$1+$1,$6,$7,$8,$9,0*
20,1,$1+$1,$8,$9,$2,$3,0*%
G04 Aperture macros list end*
%TA.AperFunction,ComponentPad*%
%ADD10C,1.600000*%
%TD*%
%TA.AperFunction,ComponentPad*%
%ADD11RoundRect,0.250000X-0.600000X-0.725000X0.600000X-0.725000X0.600000X0.725000X-0.600000X0.725000X0*%
%TD*%
%TA.AperFunction,ComponentPad*%
%ADD12O,1.700000X1.950000*%
%TD*%
%TA.AperFunction,ComponentPad*%
%ADD13RoundRect,0.250000X0.550000X0.550000X-0.550000X0.550000X-0.550000X-0.550000X0.550000X-0.550000X0*%
%TD*%
%TA.AperFunction,ComponentPad*%
%ADD14R,1.600000X1.600000*%
%TD*%
%TA.AperFunction,ComponentPad*%
%ADD15RoundRect,0.250000X-0.650000X1.635000X-0.650000X-1.635000X0.650000X-1.635000X0.650000X1.635000X0*%
%TD*%
%TA.AperFunction,ComponentPad*%
%ADD16RoundRect,0.250000X0.650000X-1.635000X0.650000X1.635000X-0.650000X1.635000X-0.650000X-1.635000X0*%
%TD*%
%TA.AperFunction,ComponentPad*%
%ADD17R,1.700000X1.700000*%
%TD*%
%TA.AperFunction,ComponentPad*%
%ADD18C,1.700000*%
%TD*%
%TA.AperFunction,ComponentPad*%
%ADD19RoundRect,0.250000X0.600000X0.725000X-0.600000X0.725000X-0.600000X-0.725000X0.600000X-0.725000X0*%
%TD*%
%TA.AperFunction,ComponentPad*%
%ADD20RoundRect,0.250000X-0.950000X0.950000X-0.950000X-0.950000X0.950000X-0.950000X0.950000X0.950000X0*%
%TD*%
%TA.AperFunction,ComponentPad*%
%ADD21C,2.400000*%
%TD*%
%TA.AperFunction,ComponentPad*%
%ADD22RoundRect,0.250001X-0.949999X0.949999X-0.949999X-0.949999X0.949999X-0.949999X0.949999X0.949999X0*%
%TD*%
%TA.AperFunction,ViaPad*%
%ADD23C,0.600000*%
%TD*%
%TA.AperFunction,Conductor*%
%ADD24C,0.400000*%
%TD*%
%TA.AperFunction,Conductor*%
%ADD25C,0.600000*%
%TD*%
G04 APERTURE END LIST*
D10*
%TO.P,C5,1*%
%TO.N,Net-(U2-VCC)*%
X78613000Y-63373000D03*
%TO.P,C5,2*%
%TO.N,GND*%
X78613000Y-58373000D03*
%TD*%
D11*
%TO.P,J1,1,Pin_1*%
%TO.N,Net-(IN5822-K)*%
X86507000Y-27051000D03*
D12*
%TO.P,J1,2,Pin_2*%
%TO.N,VD*%
X89007000Y-27051000D03*
%TD*%
D13*
%TO.P,C4,1*%
%TO.N,VD*%
X109005380Y-25146000D03*
D10*
%TO.P,C4,2*%
%TO.N,GND*%
X106505380Y-25146000D03*
%TD*%
D14*
%TO.P,U3,1,IN+*%
%TO.N,+5V*%
X40513000Y-27051000D03*
D10*
%TO.P,U3,2,IN-*%
%TO.N,GND*%
X40513000Y-41021000D03*
%TO.P,U3,3,OUT+*%
%TO.N,Net-(Q1-D)*%
X63373000Y-27051000D03*
%TO.P,U3,4,OUT-*%
%TO.N,GND*%
X63373000Y-41021000D03*
%TO.P,U3,5,B+*%
%TO.N,+BATT*%
X63373000Y-29591000D03*
%TO.P,U3,6,B-*%
%TO.N,-BATT*%
X63373000Y-38481000D03*
%TD*%
%TO.P,R1,1*%
%TO.N,+5V*%
X83185000Y-35306000D03*
%TO.P,R1,2*%
%TO.N,GND*%
X83185000Y-42926000D03*
%TD*%
D15*
%TO.P,U1,1,5V*%
%TO.N,+5VA*%
X42418000Y-44851000D03*
%TO.P,U1,2,GND*%
%TO.N,GND*%
X44958000Y-44851000D03*
%TO.P,U1,3,3V3*%
%TO.N,unconnected-(U1-3V3-Pad3)*%
X47498000Y-44851000D03*
%TO.P,U1,4,D4*%
%TO.N,unconnected-(U1-D4-Pad4)*%
X50038000Y-44851000D03*
%TO.P,U1,5,D3*%
%TO.N,unconnected-(U1-D3-Pad5)*%
X52578000Y-44851000D03*
%TO.P,U1,6,D2*%
%TO.N,unconnected-(U1-D2-Pad6)*%
X55118000Y-44851000D03*
%TO.P,U1,7,D1*%
%TO.N,Net-(U1-D1)*%
X57658000Y-44851000D03*
%TO.P,U1,8,D0*%
%TO.N,Net-(U1-D0)*%
X60198000Y-44851000D03*
D16*
%TO.P,U1,9,D5*%
%TO.N,unconnected-(U1-D5-Pad9)*%
X42418000Y-61321000D03*
%TO.P,U1,10,D6*%
%TO.N,unconnected-(U1-D6-Pad10)*%
X44958000Y-61321000D03*
%TO.P,U1,11,D7*%
%TO.N,unconnected-(U1-D7-Pad11)*%
X47498000Y-61321000D03*
%TO.P,U1,12,D8*%
%TO.N,unconnected-(U1-D8-Pad12)*%
X50038000Y-61321000D03*
%TO.P,U1,13,D9*%
%TO.N,unconnected-(U1-D9-Pad13)*%
X52578000Y-61321000D03*
%TO.P,U1,14,D10*%
%TO.N,unconnected-(U1-D10-Pad14)*%
X55118000Y-61321000D03*
%TO.P,U1,15,D20*%
%TO.N,unconnected-(U1-D20-Pad15)*%
X57658000Y-61321000D03*
%TO.P,U1,16,D21*%
%TO.N,unconnected-(U1-D21-Pad16)*%
X60198000Y-61321000D03*
%TD*%
D12*
%TO.P,J2,1,Pin_1*%
%TO.N,+BATT*%
X69128000Y-27051000D03*
D11*
%TO.P,J2,2,Pin_2*%
%TO.N,-BATT*%
X71628000Y-27051000D03*
%TD*%
D17*
%TO.P,U5,1,GND*%
%TO.N,GND*%
X90297000Y-62357000D03*
D18*
%TO.P,U5,2,DIN*%
%TO.N,Net-(U5-DIN)*%
X87757000Y-62357000D03*
%TO.P,U5,3,VDD*%
%TO.N,+5VA*%
X85217000Y-62357000D03*
%TD*%
D13*
%TO.P,C1,1*%
%TO.N,+5VA*%
X110323000Y-63246000D03*
D10*
%TO.P,C1,2*%
%TO.N,GND*%
X107823000Y-63246000D03*
%TD*%
D17*
%TO.P,U6,1,ADJ*%
%TO.N,GND*%
X72263000Y-54356000D03*
D18*
%TO.P,U6,2,VO*%
%TO.N,Net-(U2-VCC)*%
X69723000Y-54356000D03*
%TO.P,U6,3,VI*%
%TO.N,+5VA*%
X67183000Y-54356000D03*
%TD*%
D10*
%TO.P,C3,1*%
%TO.N,VD*%
X114808000Y-31576000D03*
%TO.P,C3,2*%
%TO.N,GND*%
X114808000Y-36576000D03*
%TD*%
%TO.P,R2,1*%
%TO.N,Net-(U1-D1)*%
X90551000Y-49657000D03*
%TO.P,R2,2*%
%TO.N,Net-(U5-DIN)*%
X90551000Y-57277000D03*
%TD*%
%TO.P,C6,1*%
%TO.N,+5VA*%
X85471000Y-57197000D03*
%TO.P,C6,2*%
%TO.N,GND*%
X85471000Y-52197000D03*
%TD*%
%TO.P,C2,1*%
%TO.N,+5VA*%
X114808000Y-55626000D03*
%TO.P,C2,2*%
%TO.N,GND*%
X114808000Y-60626000D03*
%TD*%
D19*
%TO.P,U2,1,VCC*%
%TO.N,Net-(U2-VCC)*%
X72898000Y-60786000D03*
D12*
%TO.P,U2,2,GND*%
%TO.N,GND*%
X70398000Y-60786000D03*
%TO.P,U2,3,OUT*%
%TO.N,Net-(U1-D0)*%
X67898000Y-60786000D03*
%TD*%
D20*
%TO.P,U4,1,IN+*%
%TO.N,VD*%
X110998000Y-31496000D03*
D21*
%TO.P,U4,2,IN-*%
%TO.N,GND*%
X97028000Y-31496000D03*
%TO.P,U4,3,OUT+*%
%TO.N,+5VA*%
X110998000Y-56896000D03*
%TO.P,U4,4,OUT-*%
%TO.N,GND*%
X97028000Y-56896000D03*
%TD*%
D22*
%TO.P,IN5822,1,K*%
%TO.N,Net-(IN5822-K)*%
X88773000Y-33909000D03*
D21*
%TO.P,IN5822,2,A*%
%TO.N,+5V*%
X88773000Y-46609000D03*
%TD*%
D23*
%TO.N,Net-(U1-D1)*%
X70358000Y-49022000D03*
%TO.N,-BATT*%
X65913000Y-38481000D03*
%TD*%
D24*
%TO.N,Net-(U1-D1)*%
X70993000Y-49657000D02*
X90551000Y-49657000D01*
X70358000Y-49022000D02*
X70993000Y-49657000D01*
X90297000Y-49911000D02*
X90551000Y-49657000D01*
%TO.N,Net-(U1-D0)*%
X59563000Y-46101000D02*
X60198000Y-45466000D01*
X59563000Y-52451000D02*
X59563000Y-46101000D01*
X67898000Y-60786000D02*
X59563000Y-52451000D01*
D25*
%TO.N,-BATT*%
X65913000Y-32766000D02*
X71628000Y-27051000D01*
X65913000Y-38481000D02*
X65913000Y-32766000D01*
%TD*%
%TA.AperFunction,Conductor*%
%TO.N,GND*%
G36*
X117115539Y-21770185D02*
G01*
X117161294Y-21822989D01*
X117172500Y-21874500D01*
X117172500Y-66260500D01*
X117152815Y-66327539D01*
X117100011Y-66373294D01*
X117048500Y-66384500D01*
X38297500Y-66384500D01*
X38230461Y-66364815D01*
X38184706Y-66312011D01*
X38173500Y-66260500D01*
X38173500Y-64409713D01*
X38654500Y-64409713D01*
X38654500Y-64622287D01*
X38662611Y-64673500D01*
X38687753Y-64832239D01*
X38753444Y-65034414D01*
X38849951Y-65223820D01*
X38974890Y-65395786D01*
X39125213Y-65546109D01*
X39297179Y-65671048D01*
X39297181Y-65671049D01*
X39297184Y-65671051D01*
X39486588Y-65767557D01*
X39688757Y-65833246D01*
X39898713Y-65866500D01*
X39898714Y-65866500D01*
X40111286Y-65866500D01*
X40111287Y-65866500D01*
X40321243Y-65833246D01*
X40523412Y-65767557D01*
X40712816Y-65671051D01*
X40754788Y-65640557D01*
X40884786Y-65546109D01*
X40884788Y-65546106D01*
X40884792Y-65546104D01*
X41035104Y-65395792D01*
X41035106Y-65395788D01*
X41035109Y-65395786D01*
X41160048Y-65223820D01*
X41160047Y-65223820D01*
X41160051Y-65223816D01*
X41256557Y-65034412D01*
X41322246Y-64832243D01*
X41355500Y-64622287D01*
X41355500Y-64409713D01*
X41322246Y-64199757D01*
X41256557Y-63997588D01*
X41160051Y-63808184D01*
X41160049Y-63808181D01*
X41160048Y-63808179D01*
X41035109Y-63636213D01*
X40884786Y-63485890D01*
X40712820Y-63360951D01*
X40523414Y-63264444D01*
X40523413Y-63264443D01*
X40523412Y-63264443D01*
X40321243Y-63198754D01*
X40321241Y-63198753D01*
X40321240Y-63198753D01*
X40159957Y-63173208D01*
X40111287Y-63165500D01*
X39898713Y-63165500D01*
X39850042Y-63173208D01*
X39688760Y-63198753D01*
X39486585Y-63264444D01*
X39297179Y-63360951D01*
X39125213Y-63485890D01*
X38974890Y-63636213D01*
X38849951Y-63808179D01*
X38753444Y-63997585D01*
X38687753Y-64199760D01*
X38674615Y-64282713D01*
X38654500Y-64409713D01*
X38173500Y-64409713D01*
X38173500Y-59635983D01*
X41017500Y-59635983D01*
X41017500Y-63006001D01*
X41017501Y-63006018D01*
X41028000Y-63108796D01*
X41028001Y-63108799D01*
X41083185Y-63275331D01*
X41083187Y-63275336D01*
X41097574Y-63298661D01*
X41175288Y-63424656D01*
X41299344Y-63548712D01*
X41448666Y-63640814D01*
X41615203Y-63695999D01*
X41717991Y-63706500D01*
X43118008Y-63706499D01*
X43220797Y-63695999D01*
X43387334Y-63640814D01*
X43536656Y-63548712D01*
X43600319Y-63485049D01*
X43661642Y-63451564D01*
X43731334Y-63456548D01*
X43775681Y-63485049D01*
X43839344Y-63548712D01*
X43988666Y-63640814D01*
X44155203Y-63695999D01*
X44257991Y-63706500D01*
X45658008Y-63706499D01*
X45760797Y-63695999D01*
X45927334Y-63640814D01*
X46076656Y-63548712D01*
X46140319Y-63485049D01*
X46201642Y-63451564D01*
X46271334Y-63456548D01*
X46315681Y-63485049D01*
X46379344Y-63548712D01*
X46528666Y-63640814D01*
X46695203Y-63695999D01*
X46797991Y-63706500D01*
X48198008Y-63706499D01*
X48300797Y-63695999D01*
X48467334Y-63640814D01*
X48616656Y-63548712D01*
X48680319Y-63485049D01*
X48741642Y-63451564D01*
X48811334Y-63456548D01*
X48855681Y-63485049D01*
X48919344Y-63548712D01*
X49068666Y-63640814D01*
X49235203Y-63695999D01*
X49337991Y-63706500D01*
X50738008Y-63706499D01*
X50840797Y-63695999D01*
X51007334Y-63640814D01*
X51156656Y-63548712D01*
X51220319Y-63485049D01*
X51281642Y-63451564D01*
X51351334Y-63456548D01*
X51395681Y-63485049D01*
X51459344Y-63548712D01*
X51608666Y-63640814D01*
X51775203Y-63695999D01*
X51877991Y-63706500D01*
X53278008Y-63706499D01*
X53380797Y-63695999D01*
X53547334Y-63640814D01*
X53696656Y-63548712D01*
X53760319Y-63485049D01*
X53821642Y-63451564D01*
X53891334Y-63456548D01*
X53935681Y-63485049D01*
X53999344Y-63548712D01*
X54148666Y-63640814D01*
X54315203Y-63695999D01*
X54417991Y-63706500D01*
X55818008Y-63706499D01*
X55920797Y-63695999D01*
X56087334Y-63640814D01*
X56236656Y-63548712D01*
X56300319Y-63485049D01*
X56361642Y-63451564D01*
X56431334Y-63456548D01*
X56475681Y-63485049D01*
X56539344Y-63548712D01*
X56688666Y-63640814D01*
X56855203Y-63695999D01*
X56957991Y-63706500D01*
X58358008Y-63706499D01*
X58460797Y-63695999D01*
X58627334Y-63640814D01*
X58776656Y-63548712D01*
X58840319Y-63485049D01*
X58901642Y-63451564D01*
X58971334Y-63456548D01*
X59015681Y-63485049D01*
X59079344Y-63548712D01*
X59228666Y-63640814D01*
X59395203Y-63695999D01*
X59497991Y-63706500D01*
X60898008Y-63706499D01*
X61000797Y-63695999D01*
X61167334Y-63640814D01*
X61316656Y-63548712D01*
X61440712Y-63424656D01*
X61532814Y-63275334D01*
X61534367Y-63270648D01*
X77312500Y-63270648D01*
X77312500Y-63475351D01*
X77344522Y-63677534D01*
X77407781Y-63872223D01*
X77457065Y-63968946D01*
X77500177Y-64053559D01*
X77500715Y-64054613D01*
X77621028Y-64220213D01*
X77765786Y-64364971D01*
X77883860Y-64450755D01*
X77931390Y-64485287D01*
X78030916Y-64535998D01*
X78113776Y-64578218D01*
X78113778Y-64578218D01*
X78113781Y-64578220D01*
X78218137Y-64612127D01*
X78308465Y-64641477D01*
X78409557Y-64657488D01*
X78510648Y-64673500D01*
X78510649Y-64673500D01*
X78715351Y-64673500D01*
X78715352Y-64673500D01*
X78917534Y-64641477D01*
X79112219Y-64578220D01*
X79294610Y-64485287D01*
X79398630Y-64409713D01*
X79460213Y-64364971D01*
X79460215Y-64364968D01*
X79460219Y-64364966D01*
X79604966Y-64220219D01*
X79725287Y-64054610D01*
X79818220Y-63872219D01*
X79881477Y-63677534D01*
X79913500Y-63475352D01*
X79913500Y-63270648D01*
X79881477Y-63068466D01*
X79880292Y-63064820D01*
X79835161Y-62925920D01*
X79818220Y-62873781D01*
X79818218Y-62873778D01*
X79818218Y-62873776D01*
X79753605Y-62746968D01*
X79725287Y-62691390D01*
X79663975Y-62607000D01*
X79604971Y-62525786D01*
X79460217Y-62381032D01*
X79460212Y-62381028D01*
X79412242Y-62346175D01*
X79412219Y-62346160D01*
X79294609Y-62260712D01*
X79274985Y-62250713D01*
X83866500Y-62250713D01*
X83866500Y-62463286D01*
X83895438Y-62645998D01*
X83899754Y-62673243D01*
X83964911Y-62873776D01*
X83965444Y-62875414D01*
X84061951Y-63064820D01*
X84186890Y-63236786D01*
X84337213Y-63387109D01*
X84509179Y-63512048D01*
X84509181Y-63512049D01*
X84509184Y-63512051D01*
X84698588Y-63608557D01*
X84900757Y-63674246D01*
X85110713Y-63707500D01*
X85110714Y-63707500D01*
X85323286Y-63707500D01*
X85323287Y-63707500D01*
X85533243Y-63674246D01*
X85735412Y-63608557D01*
X85924816Y-63512051D01*
X86011478Y-63449088D01*
X86096786Y-63387109D01*
X86096788Y-63387106D01*
X86096792Y-63387104D01*
X86247104Y-63236792D01*
X86247106Y-63236788D01*
X86247109Y-63236786D01*
X86372048Y-63064820D01*
X86372047Y-63064820D01*
X86372051Y-63064816D01*
X86376514Y-63056054D01*
X86424488Y-63005259D01*
X86492308Y-62988463D01*
X86558444Y-63010999D01*
X86597486Y-63056056D01*
X86601951Y-63064820D01*
X86726890Y-63236786D01*
X86877213Y-63387109D01*
X87049179Y-63512048D01*
X87049181Y-63512049D01*
X87049184Y-63512051D01*
X87238588Y-63608557D01*
X87440757Y-63674246D01*
X87650713Y-63707500D01*
X87650714Y-63707500D01*
X87863286Y-63707500D01*
X87863287Y-63707500D01*
X88073243Y-63674246D01*
X88275412Y-63608557D01*
X88464816Y-63512051D01*
X88551478Y-63449088D01*
X88636784Y-63387110D01*
X88636784Y-63387109D01*
X88636792Y-63387104D01*
X88750717Y-63273178D01*
X88812036Y-63239696D01*
X88881728Y-63244680D01*
X88937662Y-63286551D01*
X88954577Y-63317528D01*
X89003646Y-63449088D01*
X89003649Y-63449093D01*
X89089809Y-63564187D01*
X89089812Y-63564190D01*
X89204906Y-63650350D01*
X89204913Y-63650354D01*
X89339620Y-63700596D01*
X89339627Y-63700598D01*
X89399155Y-63706999D01*
X89399172Y-63707000D01*
X90047000Y-63707000D01*
X90047000Y-62790012D01*
X90104007Y-62822925D01*
X90231174Y-62857000D01*
X90362826Y-62857000D01*
X90489993Y-62822925D01*
X90547000Y-62790012D01*
X90547000Y-63707000D01*
X91194828Y-63707000D01*
X91194844Y-63706999D01*
X91254372Y-63700598D01*
X91254379Y-63700596D01*
X91389086Y-63650354D01*
X91389093Y-63650350D01*
X91504187Y-63564190D01*
X91504190Y-63564187D01*
X91590350Y-63449093D01*
X91590354Y-63449086D01*
X91640596Y-63314379D01*
X91640598Y-63314372D01*
X91646999Y-63254844D01*
X91647000Y-63254827D01*
X91647000Y-63143682D01*
X106523000Y-63143682D01*
X106523000Y-63348317D01*
X106555009Y-63550417D01*
X106618244Y-63745031D01*
X106711141Y-63927350D01*
X106711147Y-63927359D01*
X106743523Y-63971921D01*
X106743524Y-63971922D01*
X107423000Y-63292446D01*
X107423000Y-63298661D01*
X107450259Y-63400394D01*
X107502920Y-63491606D01*
X107577394Y-63566080D01*
X107668606Y-63618741D01*
X107770339Y-63646000D01*
X107776553Y-63646000D01*
X107097076Y-64325474D01*
X107141650Y-64357859D01*
X107323968Y-64450755D01*
X107518582Y-64513990D01*
X107720683Y-64546000D01*
X107925317Y-64546000D01*
X108127417Y-64513990D01*
X108322031Y-64450755D01*
X108504349Y-64357859D01*
X108548921Y-64325474D01*
X107869447Y-63646000D01*
X107875661Y-63646000D01*
X107977394Y-63618741D01*
X108068606Y-63566080D01*
X108143080Y-63491606D01*
X108195741Y-63400394D01*
X108223000Y-63298661D01*
X108223000Y-63292447D01*
X108902473Y-63971921D01*
X108940280Y-63968946D01*
X109008658Y-63983310D01*
X109058415Y-64032361D01*
X109067714Y-64053556D01*
X109074078Y-64072760D01*
X109088186Y-64115333D01*
X109088187Y-64115336D01*
X109123069Y-64171888D01*
X109180288Y-64264656D01*
X109304344Y-64388712D01*
X109453666Y-64480814D01*
X109620203Y-64535999D01*
X109722991Y-64546500D01*
X110923008Y-64546499D01*
X111025797Y-64535999D01*
X111192334Y-64480814D01*
X111341656Y-64388712D01*
X111447655Y-64282713D01*
X113838500Y-64282713D01*
X113838500Y-64495286D01*
X113871753Y-64705239D01*
X113937444Y-64907414D01*
X114033951Y-65096820D01*
X114158890Y-65268786D01*
X114309213Y-65419109D01*
X114481179Y-65544048D01*
X114481181Y-65544049D01*
X114481184Y-65544051D01*
X114670588Y-65640557D01*
X114872757Y-65706246D01*
X115082713Y-65739500D01*
X115082714Y-65739500D01*
X115295286Y-65739500D01*
X115295287Y-65739500D01*
X115505243Y-65706246D01*
X115707412Y-65640557D01*
X115896816Y-65544051D01*
X115918789Y-65528086D01*
X116068786Y-65419109D01*
X116068788Y-65419106D01*
X116068792Y-65419104D01*
X116219104Y-65268792D01*
X116219106Y-65268788D01*
X116219109Y-65268786D01*
X116344048Y-65096820D01*
X116344047Y-65096820D01*
X116344051Y-65096816D01*
X116440557Y-64907412D01*
X116506246Y-64705243D01*
X116539500Y-64495287D01*
X116539500Y-64282713D01*
X116506246Y-64072757D01*
X116440557Y-63870588D01*
X116344051Y-63681184D01*
X116344049Y-63681181D01*
X116344048Y-63681179D01*
X116219109Y-63509213D01*
X116068786Y-63358890D01*
X115896820Y-63233951D01*
X115707414Y-63137444D01*
X115707413Y-63137443D01*
X115707412Y-63137443D01*
X115505243Y-63071754D01*
X115505241Y-63071753D01*
X115505240Y-63071753D01*
X115343957Y-63046208D01*
X115295287Y-63038500D01*
X115082713Y-63038500D01*
X115034042Y-63046208D01*
X114872760Y-63071753D01*
X114670585Y-63137444D01*
X114481179Y-63233951D01*
X114309213Y-63358890D01*
X114158890Y-63509213D01*
X114033951Y-63681179D01*
X113937444Y-63870585D01*
X113871753Y-64072760D01*
X113838500Y-64282713D01*
X111447655Y-64282713D01*
X111465712Y-64264656D01*
X111557814Y-64115334D01*
X111612999Y-63948797D01*
X111623500Y-63846009D01*
X111623499Y-62645992D01*
X111612999Y-62543203D01*
X111557814Y-62376666D01*
X111465712Y-62227344D01*
X111341656Y-62103288D01*
X111192334Y-62011186D01*
X111025797Y-61956001D01*
X111025795Y-61956000D01*
X110923010Y-61945500D01*
X109722998Y-61945500D01*
X109722981Y-61945501D01*
X109620203Y-61956000D01*
X109620200Y-61956001D01*
X109453668Y-62011185D01*
X109453663Y-62011187D01*
X109304342Y-62103289D01*
X109180289Y-62227342D01*
X109088187Y-62376663D01*
X109088185Y-62376668D01*
X109067717Y-62438438D01*
X109027944Y-62495883D01*
X108963428Y-62522706D01*
X108940283Y-62523052D01*
X108902474Y-62520076D01*
X108223000Y-63199551D01*
X108223000Y-63193339D01*
X108195741Y-63091606D01*
X108143080Y-63000394D01*
X108068606Y-62925920D01*
X107977394Y-62873259D01*
X107875661Y-62846000D01*
X107869446Y-62846000D01*
X108548922Y-62166524D01*
X108548921Y-62166523D01*
X108504359Y-62134147D01*
X108504350Y-62134141D01*
X108322031Y-62041244D01*
X108127417Y-61978009D01*
X107925317Y-61946000D01*
X107720683Y-61946000D01*
X107518582Y-61978009D01*
X107323968Y-62041244D01*
X107141644Y-62134143D01*
X107097077Y-62166523D01*
X107097077Y-62166524D01*
X107776554Y-62846000D01*
X107770339Y-62846000D01*
X107668606Y-62873259D01*
X107577394Y-62925920D01*
X107502920Y-63000394D01*
X107450259Y-63091606D01*
X107423000Y-63193339D01*
X107423000Y-63199553D01*
X106743524Y-62520077D01*
X106743523Y-62520077D01*
X106711143Y-62564644D01*
X106618244Y-62746968D01*
X106555009Y-62941582D01*
X106523000Y-63143682D01*
X91647000Y-63143682D01*
X91647000Y-62607000D01*
X90730012Y-62607000D01*
X90762925Y-62549993D01*
X90797000Y-62422826D01*
X90797000Y-62291174D01*
X90762925Y-62164007D01*
X90730012Y-62107000D01*
X91647000Y-62107000D01*
X91647000Y-61459172D01*
X91646999Y-61459155D01*
X91640598Y-61399627D01*
X91640596Y-61399620D01*
X91590354Y-61264913D01*
X91590350Y-61264906D01*
X91504190Y-61149812D01*
X91504187Y-61149809D01*
X91389093Y-61063649D01*
X91389086Y-61063645D01*
X91254379Y-61013403D01*
X91254372Y-61013401D01*
X91194844Y-61007000D01*
X90547000Y-61007000D01*
X90547000Y-61923988D01*
X90489993Y-61891075D01*
X90362826Y-61857000D01*
X90231174Y-61857000D01*
X90104007Y-61891075D01*
X90047000Y-61923988D01*
X90047000Y-61007000D01*
X89399155Y-61007000D01*
X89339627Y-61013401D01*
X89339620Y-61013403D01*
X89204913Y-61063645D01*
X89204906Y-61063649D01*
X89089812Y-61149809D01*
X89089809Y-61149812D01*
X89003649Y-61264906D01*
X89003646Y-61264912D01*
X88954577Y-61396471D01*
X88912705Y-61452404D01*
X88847241Y-61476821D01*
X88778968Y-61461969D01*
X88750714Y-61440818D01*
X88636786Y-61326890D01*
X88464820Y-61201951D01*
X88275414Y-61105444D01*
X88275413Y-61105443D01*
X88275412Y-61105443D01*
X88073243Y-61039754D01*
X88073241Y-61039753D01*
X88073240Y-61039753D01*
X87911957Y-61014208D01*
X87863287Y-61006500D01*
X87650713Y-61006500D01*
X87602042Y-61014208D01*
X87440760Y-61039753D01*
X87238585Y-61105444D01*
X87049179Y-61201951D01*
X86877213Y-61326890D01*
X86726890Y-61477213D01*
X86601949Y-61649182D01*
X86597484Y-61657946D01*
X86549509Y-61708742D01*
X86481688Y-61725536D01*
X86415553Y-61702998D01*
X86376516Y-61657946D01*
X86372050Y-61649182D01*
X86247109Y-61477213D01*
X86096786Y-61326890D01*
X85924820Y-61201951D01*
X85735414Y-61105444D01*
X85735413Y-61105443D01*
X85735412Y-61105443D01*
X85533243Y-61039754D01*
X85533241Y-61039753D01*
X85533240Y-61039753D01*
X85371957Y-61014208D01*
X85323287Y-61006500D01*
X85110713Y-61006500D01*
X85062042Y-61014208D01*
X84900760Y-61039753D01*
X84698585Y-61105444D01*
X84509179Y-61201951D01*
X84337213Y-61326890D01*
X84186890Y-61477213D01*
X84061951Y-61649179D01*
X83965444Y-61838585D01*
X83899753Y-62040760D01*
X83866500Y-62250713D01*
X79274985Y-62250713D01*
X79112223Y-62167781D01*
X78917534Y-62104522D01*
X78742995Y-62076878D01*
X78715352Y-62072500D01*
X78510648Y-62072500D01*
X78486329Y-62076351D01*
X78308465Y-62104522D01*
X78113776Y-62167781D01*
X77931386Y-62260715D01*
X77765786Y-62381028D01*
X77621028Y-62525786D01*
X77500715Y-62691386D01*
X77407781Y-62873776D01*
X77344522Y-63068465D01*
X77312500Y-63270648D01*
X61534367Y-63270648D01*
X61587999Y-63108797D01*
X61598500Y-63006009D01*
X61598499Y-59635992D01*
X61597978Y-59630896D01*
X61587999Y-59533203D01*
X61587998Y-59533200D01*
X61579110Y-59506379D01*
X61532814Y-59366666D01*
X61440712Y-59217344D01*
X61316656Y-59093288D01*
X61167334Y-59001186D01*
X61000797Y-58946001D01*
X61000795Y-58946000D01*
X60898010Y-58935500D01*
X59497998Y-58935500D01*
X59497981Y-58935501D01*
X59395203Y-58946000D01*
X59395200Y-58946001D01*
X59228668Y-59001185D01*
X59228663Y-59001187D01*
X59079342Y-59093289D01*
X59015681Y-59156951D01*
X58954358Y-59190436D01*
X58884666Y-59185452D01*
X58840319Y-59156951D01*
X58776657Y-59093289D01*
X58776656Y-59093288D01*
X58627334Y-59001186D01*
X58460797Y-58946001D01*
X58460795Y-58946000D01*
X58358010Y-58935500D01*
X56957998Y-58935500D01*
X56957981Y-58935501D01*
X56855203Y-58946000D01*
X56855200Y-58946001D01*
X56688668Y-59001185D01*
X56688663Y-59001187D01*
X56539342Y-59093289D01*
X56475681Y-59156951D01*
X56414358Y-59190436D01*
X56344666Y-59185452D01*
X56300319Y-59156951D01*
X56236657Y-59093289D01*
X56236656Y-59093288D01*
X56087334Y-59001186D01*
X55920797Y-58946001D01*
X55920795Y-58946000D01*
X55818010Y-58935500D01*
X54417998Y-58935500D01*
X54417981Y-58935501D01*
X54315203Y-58946000D01*
X54315200Y-58946001D01*
X54148668Y-59001185D01*
X54148663Y-59001187D01*
X53999342Y-59093289D01*
X53935681Y-59156951D01*
X53874358Y-59190436D01*
X53804666Y-59185452D01*
X53760319Y-59156951D01*
X53696657Y-59093289D01*
X53696656Y-59093288D01*
X53547334Y-59001186D01*
X53380797Y-58946001D01*
X53380795Y-58946000D01*
X53278010Y-58935500D01*
X51877998Y-58935500D01*
X51877981Y-58935501D01*
X51775203Y-58946000D01*
X51775200Y-58946001D01*
X51608668Y-59001185D01*
X51608663Y-59001187D01*
X51459342Y-59093289D01*
X51395681Y-59156951D01*
X51334358Y-59190436D01*
X51264666Y-59185452D01*
X51220319Y-59156951D01*
X51156657Y-59093289D01*
X51156656Y-59093288D01*
X51007334Y-59001186D01*
X50840797Y-58946001D01*
X50840795Y-58946000D01*
X50738010Y-58935500D01*
X49337998Y-58935500D01*
X49337981Y-58935501D01*
X49235203Y-58946000D01*
X49235200Y-58946001D01*
X49068668Y-59001185D01*
X49068663Y-59001187D01*
X48919342Y-59093289D01*
X48855681Y-59156951D01*
X48794358Y-59190436D01*
X48724666Y-59185452D01*
X48680319Y-59156951D01*
X48616657Y-59093289D01*
X48616656Y-59093288D01*
X48467334Y-59001186D01*
X48300797Y-58946001D01*
X48300795Y-58946000D01*
X48198010Y-58935500D01*
X46797998Y-58935500D01*
X46797981Y-58935501D01*
X46695203Y-58946000D01*
X46695200Y-58946001D01*
X46528668Y-59001185D01*
X46528663Y-59001187D01*
X46379342Y-59093289D01*
X46315681Y-59156951D01*
X46254358Y-59190436D01*
X46184666Y-59185452D01*
X46140319Y-59156951D01*
X46076657Y-59093289D01*
X46076656Y-59093288D01*
X45927334Y-59001186D01*
X45760797Y-58946001D01*
X45760795Y-58946000D01*
X45658010Y-58935500D01*
X44257998Y-58935500D01*
X44257981Y-58935501D01*
X44155203Y-58946000D01*
X44155200Y-58946001D01*
X43988668Y-59001185D01*
X43988663Y-59001187D01*
X43839342Y-59093289D01*
X43775681Y-59156951D01*
X43714358Y-59190436D01*
X43644666Y-59185452D01*
X43600319Y-59156951D01*
X43536657Y-59093289D01*
X43536656Y-59093288D01*
X43387334Y-59001186D01*
X43220797Y-58946001D01*
X43220795Y-58946000D01*
X43118010Y-58935500D01*
X41717998Y-58935500D01*
X41717981Y-58935501D01*
X41615203Y-58946000D01*
X41615200Y-58946001D01*
X41448668Y-59001185D01*
X41448663Y-59001187D01*
X41299342Y-59093289D01*
X41175289Y-59217342D01*
X41083187Y-59366663D01*
X41083185Y-59366668D01*
X41058433Y-59441366D01*
X41028001Y-59533203D01*
X41028001Y-59533204D01*
X41028000Y-59533204D01*
X41017500Y-59635983D01*
X38173500Y-59635983D01*
X38173500Y-43165983D01*
X41017500Y-43165983D01*
X41017500Y-46536001D01*
X41017501Y-46536018D01*
X41028000Y-46638796D01*
X41028001Y-46638799D01*
X41055058Y-46720450D01*
X41083186Y-46805334D01*
X41175288Y-46954656D01*
X41299344Y-47078712D01*
X41448666Y-47170814D01*
X41615203Y-47225999D01*
X41717991Y-47236500D01*
X43118008Y-47236499D01*
X43220797Y-47225999D01*
X43387334Y-47170814D01*
X43536656Y-47078712D01*
X43600675Y-47014692D01*
X43661994Y-46981210D01*
X43731686Y-46986194D01*
X43776034Y-47014695D01*
X43839654Y-47078315D01*
X43988875Y-47170356D01*
X43988880Y-47170358D01*
X44155302Y-47225505D01*
X44155309Y-47225506D01*
X44258019Y-47235999D01*
X44707999Y-47235999D01*
X44708000Y-47235998D01*
X44708000Y-45781686D01*
X44712394Y-45786080D01*
X44803606Y-45838741D01*
X44905339Y-45866000D01*
X45010661Y-45866000D01*
X45112394Y-45838741D01*
X45203606Y-45786080D01*
X45208000Y-45781686D01*
X45208000Y-47235999D01*
X45657972Y-47235999D01*
X45657986Y-47235998D01*
X45760697Y-47225505D01*
X45927119Y-47170358D01*
X45927124Y-47170356D01*
X46076342Y-47078317D01*
X46139964Y-47014695D01*
X46201287Y-46981210D01*
X46270979Y-46986194D01*
X46315327Y-47014695D01*
X46379344Y-47078712D01*
X46528666Y-47170814D01*
X46695203Y-47225999D01*
X46797991Y-47236500D01*
X48198008Y-47236499D01*
X48300797Y-47225999D01*
X48467334Y-47170814D01*
X48616656Y-47078712D01*
X48680319Y-47015049D01*
X48741642Y-46981564D01*
X48811334Y-46986548D01*
X48855681Y-47015049D01*
X48919344Y-47078712D01*
X49068666Y-47170814D01*
X49235203Y-47225999D01*
X49337991Y-47236500D01*
X50738008Y-47236499D01*
X50840797Y-47225999D01*
X51007334Y-47170814D01*
X51156656Y-47078712D01*
X51220319Y-47015049D01*
X51281642Y-46981564D01*
X51351334Y-46986548D01*
X51395681Y-47015049D01*
X51459344Y-47078712D01*
X51608666Y-47170814D01*
X51775203Y-47225999D01*
X51877991Y-47236500D01*
X53278008Y-47236499D01*
X53380797Y-47225999D01*
X53547334Y-47170814D01*
X53696656Y-47078712D01*
X53760319Y-47015049D01*
X53821642Y-46981564D01*
X53891334Y-46986548D01*
X53935681Y-47015049D01*
X53999344Y-47078712D01*
X54148666Y-47170814D01*
X54315203Y-47225999D01*
X54417991Y-47236500D01*
X55818008Y-47236499D01*
X55920797Y-47225999D01*
X56087334Y-47170814D01*
X56236656Y-47078712D01*
X56300319Y-47015049D01*
X56361642Y-46981564D01*
X56431334Y-46986548D01*
X56475681Y-47015049D01*
X56539344Y-47078712D01*
X56688666Y-47170814D01*
X56855203Y-47225999D01*
X56957991Y-47236500D01*
X58358008Y-47236499D01*
X58460797Y-47225999D01*
X58627334Y-47170814D01*
X58673404Y-47142397D01*
X58740796Y-47123958D01*
X58807459Y-47144881D01*
X58852229Y-47198523D01*
X58862500Y-47247937D01*
X58862500Y-52382006D01*
X58862500Y-52519994D01*
X58862500Y-52519996D01*
X58862499Y-52519996D01*
X58889418Y-52655322D01*
X58889421Y-52655332D01*
X58942222Y-52782807D01*
X59018887Y-52897545D01*
X59018888Y-52897546D01*
X66520401Y-60399058D01*
X66553886Y-60460381D01*
X66555193Y-60506137D01*
X66547500Y-60554707D01*
X66547500Y-60554713D01*
X66547500Y-61017287D01*
X66554842Y-61063645D01*
X66576747Y-61201949D01*
X66580754Y-61227243D01*
X66636765Y-61399627D01*
X66646444Y-61429414D01*
X66742951Y-61618820D01*
X66867890Y-61790786D01*
X67018213Y-61941109D01*
X67190179Y-62066048D01*
X67190181Y-62066049D01*
X67190184Y-62066051D01*
X67379588Y-62162557D01*
X67581757Y-62228246D01*
X67791713Y-62261500D01*
X67791714Y-62261500D01*
X68004286Y-62261500D01*
X68004287Y-62261500D01*
X68214243Y-62228246D01*
X68416412Y-62162557D01*
X68605816Y-62066051D01*
X68640626Y-62040760D01*
X68777786Y-61941109D01*
X68777788Y-61941106D01*
X68777792Y-61941104D01*
X68928104Y-61790792D01*
X69047991Y-61625779D01*
X69103320Y-61583115D01*
X69172933Y-61577136D01*
X69234729Y-61609741D01*
X69248627Y-61625781D01*
X69368272Y-61790459D01*
X69368276Y-61790464D01*
X69518535Y-61940723D01*
X69518540Y-61940727D01*
X69690442Y-62065620D01*
X69879782Y-62162095D01*
X70081871Y-62227757D01*
X70148000Y-62238231D01*
X70148000Y-61190145D01*
X70214657Y-61228630D01*
X70335465Y-61261000D01*
X70460535Y-61261000D01*
X70581343Y-61228630D01*
X70648000Y-61190145D01*
X70648000Y-62238230D01*
X70714126Y-62227757D01*
X70714129Y-62227757D01*
X70916217Y-62162095D01*
X71105557Y-62065620D01*
X71277458Y-61940728D01*
X71416330Y-61801856D01*
X71477653Y-61768371D01*
X71547345Y-61773355D01*
X71603279Y-61815226D01*
X71609551Y-61824440D01*
X71613185Y-61830331D01*
X71613186Y-61830334D01*
X71705288Y-61979656D01*
X71829344Y-62103712D01*
X71978666Y-62195814D01*
X72145203Y-62250999D01*
X72247991Y-62261500D01*
X73548008Y-62261499D01*
X73555703Y-62260713D01*
X73565895Y-62259671D01*
X73650797Y-62250999D01*
X73817334Y-62195814D01*
X73966656Y-62103712D01*
X74090712Y-61979656D01*
X74182814Y-61830334D01*
X74237999Y-61663797D01*
X74248500Y-61561009D01*
X74248499Y-60523682D01*
X113508000Y-60523682D01*
X113508000Y-60728317D01*
X113540009Y-60930417D01*
X113603244Y-61125031D01*
X113696141Y-61307350D01*
X113696147Y-61307359D01*
X113728523Y-61351921D01*
X113728524Y-61351922D01*
X114408000Y-60672446D01*
X114408000Y-60678661D01*
X114435259Y-60780394D01*
X114487920Y-60871606D01*
X114562394Y-60946080D01*
X114653606Y-60998741D01*
X114755339Y-61026000D01*
X114761553Y-61026000D01*
X114082076Y-61705474D01*
X114126650Y-61737859D01*
X114308968Y-61830755D01*
X114503582Y-61893990D01*
X114705683Y-61926000D01*
X114910317Y-61926000D01*
X115112417Y-61893990D01*
X115307031Y-61830755D01*
X115489349Y-61737859D01*
X115533921Y-61705474D01*
X114854447Y-61026000D01*
X114860661Y-61026000D01*
X114962394Y-60998741D01*
X115053606Y-60946080D01*
X115128080Y-60871606D01*
X115180741Y-60780394D01*
X115208000Y-60678661D01*
X115208000Y-60672447D01*
X115887474Y-61351921D01*
X115919859Y-61307349D01*
X116012755Y-61125031D01*
X116075990Y-60930417D01*
X116108000Y-60728317D01*
X116108000Y-60523682D01*
X116075990Y-60321582D01*
X116012755Y-60126968D01*
X115919859Y-59944650D01*
X115887474Y-59900077D01*
X115887474Y-59900076D01*
X115208000Y-60579551D01*
X115208000Y-60573339D01*
X115180741Y-60471606D01*
X115128080Y-60380394D01*
X115053606Y-60305920D01*
X114962394Y-60253259D01*
X114860661Y-60226000D01*
X114854446Y-60226000D01*
X115533922Y-59546524D01*
X115533921Y-59546523D01*
X115489359Y-59514147D01*
X115489350Y-59514141D01*
X115307031Y-59421244D01*
X115112417Y-59358009D01*
X114910317Y-59326000D01*
X114705683Y-59326000D01*
X114503582Y-59358009D01*
X114308968Y-59421244D01*
X114126644Y-59514143D01*
X114082077Y-59546523D01*
X114082077Y-59546524D01*
X114761554Y-60226000D01*
X114755339Y-60226000D01*
X114653606Y-60253259D01*
X114562394Y-60305920D01*
X114487920Y-60380394D01*
X114435259Y-60471606D01*
X114408000Y-60573339D01*
X114408000Y-60579553D01*
X113728524Y-59900077D01*
X113728523Y-59900077D01*
X113696143Y-59944644D01*
X113603244Y-60126968D01*
X113540009Y-60321582D01*
X113508000Y-60523682D01*
X74248499Y-60523682D01*
X74248499Y-60180116D01*
X74268184Y-60113078D01*
X74320988Y-60067323D01*
X74390146Y-60057379D01*
X74396688Y-60058499D01*
X74400195Y-60059197D01*
X74411768Y-60061500D01*
X74411771Y-60061500D01*
X74584231Y-60061500D01*
X74584232Y-60061499D01*
X74753374Y-60027855D01*
X74912705Y-59961858D01*
X75056099Y-59866045D01*
X75178045Y-59744099D01*
X75273858Y-59600705D01*
X75339855Y-59441374D01*
X75346206Y-59409444D01*
X75351860Y-59381024D01*
X75373499Y-59272233D01*
X75373500Y-59272231D01*
X75373500Y-59099768D01*
X75373499Y-59099766D01*
X75342913Y-58946000D01*
X75339855Y-58930626D01*
X75315584Y-58872031D01*
X75273861Y-58771301D01*
X75273854Y-58771288D01*
X75178045Y-58627901D01*
X75178042Y-58627897D01*
X75056102Y-58505957D01*
X75056098Y-58505954D01*
X74912711Y-58410145D01*
X74912702Y-58410140D01*
X74840846Y-58380377D01*
X74840844Y-58380376D01*
X74753378Y-58344146D01*
X74753366Y-58344143D01*
X74584232Y-58310500D01*
X74584229Y-58310500D01*
X74411771Y-58310500D01*
X74411768Y-58310500D01*
X74242633Y-58344143D01*
X74242621Y-58344146D01*
X74083301Y-58410138D01*
X74083288Y-58410145D01*
X73939901Y-58505954D01*
X73939897Y-58505957D01*
X73817957Y-58627897D01*
X73817954Y-58627901D01*
X73722145Y-58771288D01*
X73722138Y-58771301D01*
X73656146Y-58930621D01*
X73656143Y-58930633D01*
X73622500Y-59099766D01*
X73622500Y-59186500D01*
X73602815Y-59253539D01*
X73550011Y-59299294D01*
X73498500Y-59310500D01*
X72247998Y-59310500D01*
X72247981Y-59310501D01*
X72145203Y-59321000D01*
X72145200Y-59321001D01*
X71978668Y-59376185D01*
X71978663Y-59376187D01*
X71829342Y-59468289D01*
X71705289Y-59592342D01*
X71609551Y-59747559D01*
X71557603Y-59794283D01*
X71488640Y-59805506D01*
X71424558Y-59777662D01*
X71416331Y-59770143D01*
X71277464Y-59631276D01*
X71277459Y-59631272D01*
X71105557Y-59506379D01*
X70916215Y-59409903D01*
X70714124Y-59344241D01*
X70648000Y-59333768D01*
X70648000Y-60381854D01*
X70581343Y-60343370D01*
X70460535Y-60311000D01*
X70335465Y-60311000D01*
X70214657Y-60343370D01*
X70148000Y-60381854D01*
X70148000Y-59333768D01*
X70147999Y-59333768D01*
X70081875Y-59344241D01*
X69879784Y-59409903D01*
X69690442Y-59506379D01*
X69518540Y-59631272D01*
X69518535Y-59631276D01*
X69368276Y-59781535D01*
X69368272Y-59781540D01*
X69248627Y-59946218D01*
X69193297Y-59988884D01*
X69123684Y-59994863D01*
X69061889Y-59962257D01*
X69047991Y-59946218D01*
X68928109Y-59781214D01*
X68928105Y-59781209D01*
X68777786Y-59630890D01*
X68605820Y-59505951D01*
X68416414Y-59409444D01*
X68416413Y-59409443D01*
X68416412Y-59409443D01*
X68214243Y-59343754D01*
X68214241Y-59343753D01*
X68214240Y-59343753D01*
X68052957Y-59318208D01*
X68004287Y-59310500D01*
X67791713Y-59310500D01*
X67752202Y-59316757D01*
X67581759Y-59343753D01*
X67581754Y-59343754D01*
X67551866Y-59353465D01*
X67482025Y-59355458D01*
X67425871Y-59323214D01*
X66373339Y-58270682D01*
X77313000Y-58270682D01*
X77313000Y-58475317D01*
X77345009Y-58677417D01*
X77408244Y-58872031D01*
X77501141Y-59054350D01*
X77501147Y-59054359D01*
X77533523Y-59098921D01*
X77533524Y-59098922D01*
X78213000Y-58419446D01*
X78213000Y-58425661D01*
X78240259Y-58527394D01*
X78292920Y-58618606D01*
X78367394Y-58693080D01*
X78458606Y-58745741D01*
X78560339Y-58773000D01*
X78566553Y-58773000D01*
X77887076Y-59452474D01*
X77931650Y-59484859D01*
X78113968Y-59577755D01*
X78308582Y-59640990D01*
X78510683Y-59673000D01*
X78715317Y-59673000D01*
X78917417Y-59640990D01*
X79112031Y-59577755D01*
X79294349Y-59484859D01*
X79338921Y-59452474D01*
X78659447Y-58773000D01*
X78665661Y-58773000D01*
X78767394Y-58745741D01*
X78858606Y-58693080D01*
X78933080Y-58618606D01*
X78985741Y-58527394D01*
X79013000Y-58425661D01*
X79013000Y-58419447D01*
X79692474Y-59098921D01*
X79724859Y-59054349D01*
X79817755Y-58872031D01*
X79880990Y-58677417D01*
X79913000Y-58475317D01*
X79913000Y-58270682D01*
X79880990Y-58068582D01*
X79817755Y-57873968D01*
X79724859Y-57691650D01*
X79692474Y-57647077D01*
X79692474Y-57647076D01*
X79013000Y-58326551D01*
X79013000Y-58320339D01*
X78985741Y-58218606D01*
X78933080Y-58127394D01*
X78858606Y-58052920D01*
X78767394Y-58000259D01*
X78665661Y-57973000D01*
X78659446Y-57973000D01*
X79338922Y-57293524D01*
X79338921Y-57293523D01*
X79294359Y-57261147D01*
X79294350Y-57261141D01*
X79174866Y-57200261D01*
X79112031Y-57168244D01*
X78917417Y-57105009D01*
X78851999Y-57094648D01*
X84170500Y-57094648D01*
X84170500Y-57299351D01*
X84202522Y-57501534D01*
X84265781Y-57696223D01*
X84306542Y-57776219D01*
X84340309Y-57842491D01*
X84358715Y-57878613D01*
X84479028Y-58044213D01*
X84623786Y-58188971D01*
X84733899Y-58268971D01*
X84789390Y-58309287D01*
X84857799Y-58344143D01*
X84971776Y-58402218D01*
X84971778Y-58402218D01*
X84971781Y-58402220D01*
X85043925Y-58425661D01*
X85166465Y-58465477D01*
X85228592Y-58475317D01*
X85368648Y-58497500D01*
X85368649Y-58497500D01*
X85573351Y-58497500D01*
X85573352Y-58497500D01*
X85775534Y-58465477D01*
X85970219Y-58402220D01*
X86152610Y-58309287D01*
X86277423Y-58218606D01*
X86318213Y-58188971D01*
X86318215Y-58188968D01*
X86318219Y-58188966D01*
X86462966Y-58044219D01*
X86462968Y-58044215D01*
X86462971Y-58044213D01*
X86525164Y-57958610D01*
X86583287Y-57878610D01*
X86676220Y-57696219D01*
X86739477Y-57501534D01*
X86771500Y-57299352D01*
X86771500Y-57174648D01*
X89250500Y-57174648D01*
X89250500Y-57379351D01*
X89282522Y-57581534D01*
X89345781Y-57776223D01*
X89438715Y-57958613D01*
X89559028Y-58124213D01*
X89703786Y-58268971D01*
X89807258Y-58344146D01*
X89869390Y-58389287D01*
X89985607Y-58448503D01*
X90051776Y-58482218D01*
X90051778Y-58482218D01*
X90051781Y-58482220D01*
X90136387Y-58509710D01*
X90246465Y-58545477D01*
X90347557Y-58561488D01*
X90448648Y-58577500D01*
X90448649Y-58577500D01*
X90653351Y-58577500D01*
X90653352Y-58577500D01*
X90855534Y-58545477D01*
X91050219Y-58482220D01*
X91232610Y-58389287D01*
X91327510Y-58320339D01*
X91398213Y-58268971D01*
X91398215Y-58268968D01*
X91398219Y-58268966D01*
X91542966Y-58124219D01*
X91542968Y-58124215D01*
X91542971Y-58124213D01*
X91618958Y-58019624D01*
X91663287Y-57958610D01*
X91756220Y-57776219D01*
X91819477Y-57581534D01*
X91851500Y-57379352D01*
X91851500Y-57174648D01*
X91819477Y-56972466D01*
X91758428Y-56784575D01*
X95328000Y-56784575D01*
X95328000Y-57007424D01*
X95357085Y-57228354D01*
X95357088Y-57228367D01*
X95414763Y-57443618D01*
X95500045Y-57649502D01*
X95500054Y-57649520D01*
X95611464Y-57842491D01*
X95611473Y-57842504D01*
X95662040Y-57908403D01*
X95662043Y-57908403D01*
X96463387Y-57107059D01*
X96468889Y-57127591D01*
X96547881Y-57264408D01*
X96659592Y-57376119D01*
X96796409Y-57455111D01*
X96816940Y-57460612D01*
X96015595Y-58261955D01*
X96015595Y-58261956D01*
X96081507Y-58312533D01*
X96274485Y-58423949D01*
X96274497Y-58423954D01*
X96480381Y-58509236D01*
X96695632Y-58566911D01*
X96695645Y-58566914D01*
X96916575Y-58596000D01*
X97139425Y-58596000D01*
X97360354Y-58566914D01*
X97360367Y-58566911D01*
X97575618Y-58509236D01*
X97781502Y-58423954D01*
X97781514Y-58423949D01*
X97974498Y-58312530D01*
X98040403Y-58261957D01*
X98040404Y-58261956D01*
X97239059Y-57460612D01*
X97259591Y-57455111D01*
X97396408Y-57376119D01*
X97508119Y-57264408D01*
X97587111Y-57127591D01*
X97592612Y-57107059D01*
X98393956Y-57908404D01*
X98393957Y-57908403D01*
X98444530Y-57842498D01*
X98555949Y-57649514D01*
X98555954Y-57649502D01*
X98641236Y-57443618D01*
X98698911Y-57228367D01*
X98698914Y-57228354D01*
X98728000Y-57007424D01*
X98728000Y-56784575D01*
X98727997Y-56784549D01*
X109297500Y-56784549D01*
X109297500Y-57007450D01*
X109297501Y-57007466D01*
X109326594Y-57228452D01*
X109326595Y-57228457D01*
X109326596Y-57228463D01*
X109384290Y-57443780D01*
X109384293Y-57443790D01*
X109469593Y-57649722D01*
X109469595Y-57649726D01*
X109581052Y-57842774D01*
X109581057Y-57842780D01*
X109581058Y-57842782D01*
X109716751Y-58019622D01*
X109716757Y-58019629D01*
X109874370Y-58177242D01*
X109874377Y-58177248D01*
X109889655Y-58188971D01*
X110051226Y-58312948D01*
X110244274Y-58424405D01*
X110343431Y-58465477D01*
X110449074Y-58509236D01*
X110450219Y-58509710D01*
X110665537Y-58567404D01*
X110886543Y-58596500D01*
X110886550Y-58596500D01*
X111109450Y-58596500D01*
X111109457Y-58596500D01*
X111330463Y-58567404D01*
X111545781Y-58509710D01*
X111751726Y-58424405D01*
X111944774Y-58312948D01*
X112121624Y-58177247D01*
X112279247Y-58019624D01*
X112414948Y-57842774D01*
X112526405Y-57649726D01*
X112611710Y-57443781D01*
X112669404Y-57228463D01*
X112698500Y-57007457D01*
X112698500Y-56784543D01*
X112669404Y-56563537D01*
X112611710Y-56348219D01*
X112594890Y-56307613D01*
X112535700Y-56164715D01*
X112526405Y-56142274D01*
X112414948Y-55949226D01*
X112279247Y-55772376D01*
X112279242Y-55772370D01*
X112121629Y-55614757D01*
X112121623Y-55614752D01*
X112002893Y-55523648D01*
X113507500Y-55523648D01*
X113507500Y-55728351D01*
X113539522Y-55930534D01*
X113602781Y-56125223D01*
X113666691Y-56250653D01*
X113689797Y-56296000D01*
X113695715Y-56307613D01*
X113816028Y-56473213D01*
X113960786Y-56617971D01*
X114115749Y-56730556D01*
X114126390Y-56738287D01*
X114242607Y-56797503D01*
X114308776Y-56831218D01*
X114308778Y-56831218D01*
X114308781Y-56831220D01*
X114413137Y-56865127D01*
X114503465Y-56894477D01*
X114604557Y-56910488D01*
X114705648Y-56926500D01*
X114705649Y-56926500D01*
X114910351Y-56926500D01*
X114910352Y-56926500D01*
X115112534Y-56894477D01*
X115307219Y-56831220D01*
X115489610Y-56738287D01*
X115591295Y-56664409D01*
X115655213Y-56617971D01*
X115655215Y-56617968D01*
X115655219Y-56617966D01*
X115799966Y-56473219D01*
X115799968Y-56473215D01*
X115799971Y-56473213D01*
X115852732Y-56400590D01*
X115920287Y-56307610D01*
X116013220Y-56125219D01*
X116076477Y-55930534D01*
X116108500Y-55728352D01*
X116108500Y-55523648D01*
X116076477Y-55321466D01*
X116073849Y-55313379D01*
X116045001Y-55224594D01*
X116013220Y-55126781D01*
X116013218Y-55126778D01*
X116013218Y-55126776D01*
X115976674Y-55055056D01*
X115920287Y-54944390D01*
X115869447Y-54874414D01*
X115799971Y-54778786D01*
X115655213Y-54634028D01*
X115489613Y-54513715D01*
X115489612Y-54513714D01*
X115489610Y-54513713D01*
X115432653Y-54484691D01*
X115307223Y-54420781D01*
X115112534Y-54357522D01*
X114937995Y-54329878D01*
X114910352Y-54325500D01*
X114705648Y-54325500D01*
X114681329Y-54329351D01*
X114503465Y-54357522D01*
X114308776Y-54420781D01*
X114126386Y-54513715D01*
X113960786Y-54634028D01*
X113816028Y-54778786D01*
X113695715Y-54944386D01*
X113602781Y-55126776D01*
X113539522Y-55321465D01*
X113507500Y-55523648D01*
X112002893Y-55523648D01*
X111944782Y-55479058D01*
X111944780Y-55479057D01*
X111944774Y-55479052D01*
X111751726Y-55367595D01*
X111751722Y-55367593D01*
X111545790Y-55282293D01*
X111545783Y-55282291D01*
X111545781Y-55282290D01*
X111330463Y-55224596D01*
X111330457Y-55224595D01*
X111330452Y-55224594D01*
X111109466Y-55195501D01*
X111109463Y-55195500D01*
X111109457Y-55195500D01*
X110886543Y-55195500D01*
X110886537Y-55195500D01*
X110886533Y-55195501D01*
X110665547Y-55224594D01*
X110665540Y-55224595D01*
X110665537Y-55224596D01*
X110450219Y-55282290D01*
X110450209Y-55282293D01*
X110244277Y-55367593D01*
X110244273Y-55367595D01*
X110051226Y-55479052D01*
X110051217Y-55479058D01*
X109874377Y-55614751D01*
X109874370Y-55614757D01*
X109716757Y-55772370D01*
X109716751Y-55772377D01*
X109581058Y-55949217D01*
X109581052Y-55949226D01*
X109469595Y-56142273D01*
X109469593Y-56142277D01*
X109384293Y-56348209D01*
X109384290Y-56348219D01*
X109336228Y-56527592D01*
X109326597Y-56563534D01*
X109326594Y-56563547D01*
X109297501Y-56784533D01*
X109297500Y-56784549D01*
X98727997Y-56784549D01*
X98698914Y-56563645D01*
X98698911Y-56563632D01*
X98641236Y-56348381D01*
X98555954Y-56142497D01*
X98555949Y-56142485D01*
X98444533Y-55949507D01*
X98393956Y-55883595D01*
X98393955Y-55883595D01*
X97592612Y-56684939D01*
X97587111Y-56664409D01*
X97508119Y-56527592D01*
X97396408Y-56415881D01*
X97259591Y-56336889D01*
X97239058Y-56331387D01*
X98040403Y-55530043D01*
X98040403Y-55530040D01*
X97974504Y-55479473D01*
X97974491Y-55479464D01*
X97781520Y-55368054D01*
X97781502Y-55368045D01*
X97575618Y-55282763D01*
X97360367Y-55225088D01*
X97360354Y-55225085D01*
X97139425Y-55196000D01*
X96916575Y-55196000D01*
X96695645Y-55225085D01*
X96695632Y-55225088D01*
X96480381Y-55282763D01*
X96274497Y-55368045D01*
X96274479Y-55368054D01*
X96081511Y-55479462D01*
X96015595Y-55530042D01*
X96816941Y-56331387D01*
X96796409Y-56336889D01*
X96659592Y-56415881D01*
X96547881Y-56527592D01*
X96468889Y-56664409D01*
X96463387Y-56684940D01*
X95662042Y-55883595D01*
X95611462Y-55949511D01*
X95500054Y-56142479D01*
X95500045Y-56142497D01*
X95414763Y-56348381D01*
X95357088Y-56563632D01*
X95357085Y-56563645D01*
X95328000Y-56784575D01*
X91758428Y-56784575D01*
X91756220Y-56777781D01*
X91663287Y-56595390D01*
X91640145Y-56563537D01*
X91542971Y-56429786D01*
X91398213Y-56285028D01*
X91232613Y-56164715D01*
X91232612Y-56164714D01*
X91232610Y-56164713D01*
X91155099Y-56125219D01*
X91050223Y-56071781D01*
X90855534Y-56008522D01*
X90680995Y-55980878D01*
X90653352Y-55976500D01*
X90448648Y-55976500D01*
X90424329Y-55980351D01*
X90246465Y-56008522D01*
X90051776Y-56071781D01*
X89869386Y-56164715D01*
X89703786Y-56285028D01*
X89559028Y-56429786D01*
X89438715Y-56595386D01*
X89345781Y-56777776D01*
X89282522Y-56972465D01*
X89250500Y-57174648D01*
X86771500Y-57174648D01*
X86771500Y-57094648D01*
X86739477Y-56892466D01*
X86676220Y-56697781D01*
X86676218Y-56697778D01*
X86676218Y-56697776D01*
X86607874Y-56563645D01*
X86583287Y-56515390D01*
X86575556Y-56504749D01*
X86462971Y-56349786D01*
X86318213Y-56205028D01*
X86152613Y-56084715D01*
X86152612Y-56084714D01*
X86152610Y-56084713D01*
X86095653Y-56055691D01*
X85970223Y-55991781D01*
X85775534Y-55928522D01*
X85600995Y-55900878D01*
X85573352Y-55896500D01*
X85368648Y-55896500D01*
X85344329Y-55900351D01*
X85166465Y-55928522D01*
X84971776Y-55991781D01*
X84789386Y-56084715D01*
X84623786Y-56205028D01*
X84479028Y-56349786D01*
X84358715Y-56515386D01*
X84265781Y-56697776D01*
X84202522Y-56892465D01*
X84170500Y-57094648D01*
X78851999Y-57094648D01*
X78715317Y-57073000D01*
X78510683Y-57073000D01*
X78308582Y-57105009D01*
X78113968Y-57168244D01*
X77931644Y-57261143D01*
X77887077Y-57293523D01*
X77887077Y-57293524D01*
X78566554Y-57973000D01*
X78560339Y-57973000D01*
X78458606Y-58000259D01*
X78367394Y-58052920D01*
X78292920Y-58127394D01*
X78240259Y-58218606D01*
X78213000Y-58320339D01*
X78213000Y-58326553D01*
X77533524Y-57647077D01*
X77533523Y-57647077D01*
X77501143Y-57691644D01*
X77408244Y-57873968D01*
X77345009Y-58068582D01*
X77313000Y-58270682D01*
X66373339Y-58270682D01*
X62352370Y-54249713D01*
X65832500Y-54249713D01*
X65832500Y-54462287D01*
X65865754Y-54672243D01*
X65900370Y-54778781D01*
X65931444Y-54874414D01*
X66027951Y-55063820D01*
X66152890Y-55235786D01*
X66303213Y-55386109D01*
X66475179Y-55511048D01*
X66475181Y-55511049D01*
X66475184Y-55511051D01*
X66664588Y-55607557D01*
X66866757Y-55673246D01*
X67076713Y-55706500D01*
X67076714Y-55706500D01*
X67289286Y-55706500D01*
X67289287Y-55706500D01*
X67499243Y-55673246D01*
X67701412Y-55607557D01*
X67890816Y-55511051D01*
X67977471Y-55448093D01*
X68062786Y-55386109D01*
X68062788Y-55386106D01*
X68062792Y-55386104D01*
X68213104Y-55235792D01*
X68213106Y-55235788D01*
X68213109Y-55235786D01*
X68338048Y-55063820D01*
X68338047Y-55063820D01*
X68338051Y-55063816D01*
X68342514Y-55055054D01*
X68390488Y-55004259D01*
X68458308Y-54987463D01*
X68524444Y-55009999D01*
X68563486Y-55055056D01*
X68567951Y-55063820D01*
X68692890Y-55235786D01*
X68843213Y-55386109D01*
X69015179Y-55511048D01*
X69015181Y-55511049D01*
X69015184Y-55511051D01*
X69204588Y-55607557D01*
X69406757Y-55673246D01*
X69616713Y-55706500D01*
X69616714Y-55706500D01*
X69829286Y-55706500D01*
X69829287Y-55706500D01*
X70039243Y-55673246D01*
X70241412Y-55607557D01*
X70430816Y-55511051D01*
X70517478Y-55448088D01*
X70602784Y-55386110D01*
X70602784Y-55386109D01*
X70602792Y-55386104D01*
X70716717Y-55272178D01*
X70778036Y-55238696D01*
X70847728Y-55243680D01*
X70903662Y-55285551D01*
X70920577Y-55316528D01*
X70969646Y-55448088D01*
X70969649Y-55448093D01*
X71055809Y-55563187D01*
X71055812Y-55563190D01*
X71170906Y-55649350D01*
X71170913Y-55649354D01*
X71305620Y-55699596D01*
X71305627Y-55699598D01*
X71365155Y-55705999D01*
X71365172Y-55706000D01*
X72013000Y-55706000D01*
X72013000Y-54789012D01*
X72070007Y-54821925D01*
X72197174Y-54856000D01*
X72328826Y-54856000D01*
X72455993Y-54821925D01*
X72513000Y-54789012D01*
X72513000Y-55706000D01*
X73160828Y-55706000D01*
X73160844Y-55705999D01*
X73220372Y-55699598D01*
X73220379Y-55699596D01*
X73355086Y-55649354D01*
X73355093Y-55649350D01*
X73470187Y-55563190D01*
X73470190Y-55563187D01*
X73514735Y-55503684D01*
X73514735Y-55503683D01*
X73556352Y-55448089D01*
X73556354Y-55448086D01*
X73606596Y-55313379D01*
X73606598Y-55313372D01*
X73612999Y-55253844D01*
X73613000Y-55253827D01*
X73613000Y-54606000D01*
X72696012Y-54606000D01*
X72728925Y-54548993D01*
X72763000Y-54421826D01*
X72763000Y-54290174D01*
X72728925Y-54163007D01*
X72696012Y-54106000D01*
X73613000Y-54106000D01*
X73613000Y-53458172D01*
X73612999Y-53458155D01*
X73606598Y-53398627D01*
X73606596Y-53398620D01*
X73559575Y-53272548D01*
X73556353Y-53263912D01*
X73556350Y-53263906D01*
X73470190Y-53148812D01*
X73470187Y-53148809D01*
X73355093Y-53062649D01*
X73355086Y-53062645D01*
X73220379Y-53012403D01*
X73220372Y-53012401D01*
X73160844Y-53006000D01*
X72513000Y-53006000D01*
X72513000Y-53922988D01*
X72455993Y-53890075D01*
X72328826Y-53856000D01*
X72197174Y-53856000D01*
X72070007Y-53890075D01*
X72013000Y-53922988D01*
X72013000Y-53006000D01*
X71365155Y-53006000D01*
X71305627Y-53012401D01*
X71305620Y-53012403D01*
X71170913Y-53062645D01*
X71170906Y-53062649D01*
X71055812Y-53148809D01*
X71055809Y-53148812D01*
X70969649Y-53263906D01*
X70969646Y-53263912D01*
X70920577Y-53395471D01*
X70878705Y-53451404D01*
X70813241Y-53475821D01*
X70744968Y-53460969D01*
X70716714Y-53439818D01*
X70602786Y-53325890D01*
X70430820Y-53200951D01*
X70241414Y-53104444D01*
X70241413Y-53104443D01*
X70241412Y-53104443D01*
X70039243Y-53038754D01*
X70039241Y-53038753D01*
X70039240Y-53038753D01*
X69877957Y-53013208D01*
X69829287Y-53005500D01*
X69616713Y-53005500D01*
X69568042Y-53013208D01*
X69406760Y-53038753D01*
X69204585Y-53104444D01*
X69015179Y-53200951D01*
X68843213Y-53325890D01*
X68692890Y-53476213D01*
X68567949Y-53648182D01*
X68563484Y-53656946D01*
X68515509Y-53707742D01*
X68447688Y-53724536D01*
X68381553Y-53701998D01*
X68342516Y-53656946D01*
X68338050Y-53648182D01*
X68213109Y-53476213D01*
X68062786Y-53325890D01*
X67890820Y-53200951D01*
X67701414Y-53104444D01*
X67701413Y-53104443D01*
X67701412Y-53104443D01*
X67499243Y-53038754D01*
X67499241Y-53038753D01*
X67499240Y-53038753D01*
X67337957Y-53013208D01*
X67289287Y-53005500D01*
X67076713Y-53005500D01*
X67028042Y-53013208D01*
X66866760Y-53038753D01*
X66664585Y-53104444D01*
X66475179Y-53200951D01*
X66303213Y-53325890D01*
X66152890Y-53476213D01*
X66027951Y-53648179D01*
X65931444Y-53837585D01*
X65865753Y-54039760D01*
X65864291Y-54048993D01*
X65832500Y-54249713D01*
X62352370Y-54249713D01*
X60299819Y-52197162D01*
X60285115Y-52170234D01*
X60268523Y-52144416D01*
X60267631Y-52138215D01*
X60266334Y-52135839D01*
X60263500Y-52109481D01*
X60263500Y-52094682D01*
X84171000Y-52094682D01*
X84171000Y-52299317D01*
X84203009Y-52501417D01*
X84266244Y-52696031D01*
X84359141Y-52878350D01*
X84359147Y-52878359D01*
X84391523Y-52922921D01*
X84391524Y-52922922D01*
X85071000Y-52243446D01*
X85071000Y-52249661D01*
X85098259Y-52351394D01*
X85150920Y-52442606D01*
X85225394Y-52517080D01*
X85316606Y-52569741D01*
X85418339Y-52597000D01*
X85424553Y-52597000D01*
X84745076Y-53276474D01*
X84789650Y-53308859D01*
X84971968Y-53401755D01*
X85166582Y-53464990D01*
X85368683Y-53497000D01*
X85573317Y-53497000D01*
X85775417Y-53464990D01*
X85970031Y-53401755D01*
X86152349Y-53308859D01*
X86196921Y-53276474D01*
X85517447Y-52597000D01*
X85523661Y-52597000D01*
X85625394Y-52569741D01*
X85716606Y-52517080D01*
X85791080Y-52442606D01*
X85843741Y-52351394D01*
X85871000Y-52249661D01*
X85871000Y-52243447D01*
X86550474Y-52922921D01*
X86582859Y-52878349D01*
X86675755Y-52696031D01*
X86738990Y-52501417D01*
X86771000Y-52299317D01*
X86771000Y-52094682D01*
X86738990Y-51892582D01*
X86675755Y-51697968D01*
X86582859Y-51515650D01*
X86550474Y-51471077D01*
X86550474Y-51471076D01*
X85871000Y-52150551D01*
X85871000Y-52144339D01*
X85843741Y-52042606D01*
X85791080Y-51951394D01*
X85716606Y-51876920D01*
X85625394Y-51824259D01*
X85523661Y-51797000D01*
X85517446Y-51797000D01*
X86196922Y-51117524D01*
X86196921Y-51117523D01*
X86152359Y-51085147D01*
X86152350Y-51085141D01*
X85970031Y-50992244D01*
X85775417Y-50929009D01*
X85573317Y-50897000D01*
X85368683Y-50897000D01*
X85166582Y-50929009D01*
X84971968Y-50992244D01*
X84789644Y-51085143D01*
X84745077Y-51117523D01*
X84745077Y-51117524D01*
X85424554Y-51797000D01*
X85418339Y-51797000D01*
X85316606Y-51824259D01*
X85225394Y-51876920D01*
X85150920Y-51951394D01*
X85098259Y-52042606D01*
X85071000Y-52144339D01*
X85071000Y-52150553D01*
X84391524Y-51471077D01*
X84391523Y-51471077D01*
X84359143Y-51515644D01*
X84266244Y-51697968D01*
X84203009Y-51892582D01*
X84171000Y-52094682D01*
X60263500Y-52094682D01*
X60263500Y-48943153D01*
X69557500Y-48943153D01*
X69557500Y-49100846D01*
X69588261Y-49255489D01*
X69588264Y-49255501D01*
X69648602Y-49401172D01*
X69648609Y-49401185D01*
X69736210Y-49532288D01*
X69736213Y-49532292D01*
X69847707Y-49643786D01*
X69847711Y-49643789D01*
X69978814Y-49731390D01*
X69978827Y-49731397D01*
X70123185Y-49791191D01*
X70163414Y-49818071D01*
X70546453Y-50201111D01*
X70546454Y-50201112D01*
X70661192Y-50277777D01*
X70788667Y-50330578D01*
X70788672Y-50330580D01*
X70788676Y-50330580D01*
X70788677Y-50330581D01*
X70924003Y-50357500D01*
X70924006Y-50357500D01*
X70924007Y-50357500D01*
X89389256Y-50357500D01*
X89456295Y-50377185D01*
X89489575Y-50408616D01*
X89559030Y-50504215D01*
X89703786Y-50648971D01*
X89858749Y-50761556D01*
X89869390Y-50769287D01*
X89985607Y-50828503D01*
X90051776Y-50862218D01*
X90051778Y-50862218D01*
X90051781Y-50862220D01*
X90156137Y-50896127D01*
X90246465Y-50925477D01*
X90347557Y-50941488D01*
X90448648Y-50957500D01*
X90448649Y-50957500D01*
X90653351Y-50957500D01*
X90653352Y-50957500D01*
X90855534Y-50925477D01*
X91050219Y-50862220D01*
X91232610Y-50769287D01*
X91325590Y-50701732D01*
X91398213Y-50648971D01*
X91398215Y-50648968D01*
X91398219Y-50648966D01*
X91542966Y-50504219D01*
X91542968Y-50504215D01*
X91542971Y-50504213D01*
X91612425Y-50408616D01*
X91663287Y-50338610D01*
X91756220Y-50156219D01*
X91819477Y-49961534D01*
X91851500Y-49759352D01*
X91851500Y-49554648D01*
X91847958Y-49532288D01*
X91819477Y-49352465D01*
X91756218Y-49157776D01*
X91722503Y-49091607D01*
X91663287Y-48975390D01*
X91638543Y-48941332D01*
X91542971Y-48809786D01*
X91398213Y-48665028D01*
X91232613Y-48544715D01*
X91232612Y-48544714D01*
X91232610Y-48544713D01*
X91167832Y-48511707D01*
X91050223Y-48451781D01*
X90855534Y-48388522D01*
X90680995Y-48360878D01*
X90653352Y-48356500D01*
X90448648Y-48356500D01*
X90424329Y-48360351D01*
X90246465Y-48388522D01*
X90051776Y-48451781D01*
X89869386Y-48544715D01*
X89703786Y-48665028D01*
X89559030Y-48809784D01*
X89489575Y-48905384D01*
X89434245Y-48948051D01*
X89389256Y-48956500D01*
X71334519Y-48956500D01*
X71305078Y-48947855D01*
X71275092Y-48941332D01*
X71270076Y-48937577D01*
X71267480Y-48936815D01*
X71246838Y-48920181D01*
X71154071Y-48827414D01*
X71127191Y-48787185D01*
X71067397Y-48642827D01*
X71067390Y-48642814D01*
X70979789Y-48511711D01*
X70979786Y-48511707D01*
X70868292Y-48400213D01*
X70868288Y-48400210D01*
X70737185Y-48312609D01*
X70737172Y-48312602D01*
X70591501Y-48252264D01*
X70591489Y-48252261D01*
X70436845Y-48221500D01*
X70436842Y-48221500D01*
X70279158Y-48221500D01*
X70279155Y-48221500D01*
X70124510Y-48252261D01*
X70124498Y-48252264D01*
X69978827Y-48312602D01*
X69978814Y-48312609D01*
X69847711Y-48400210D01*
X69847707Y-48400213D01*
X69736213Y-48511707D01*
X69736210Y-48511711D01*
X69648609Y-48642814D01*
X69648602Y-48642827D01*
X69588264Y-48788498D01*
X69588261Y-48788510D01*
X69557500Y-48943153D01*
X60263500Y-48943153D01*
X60263500Y-47360499D01*
X60283185Y-47293460D01*
X60335989Y-47247705D01*
X60387500Y-47236499D01*
X60898002Y-47236499D01*
X60898008Y-47236499D01*
X61000797Y-47225999D01*
X61167334Y-47170814D01*
X61316656Y-47078712D01*
X61440712Y-46954656D01*
X61532814Y-46805334D01*
X61587999Y-46638797D01*
X61598500Y-46536009D01*
X61598500Y-46497549D01*
X87072500Y-46497549D01*
X87072500Y-46720450D01*
X87072501Y-46720466D01*
X87101594Y-46941452D01*
X87101595Y-46941457D01*
X87101596Y-46941463D01*
X87159290Y-47156780D01*
X87159293Y-47156790D01*
X87244593Y-47362722D01*
X87244595Y-47362726D01*
X87356052Y-47555774D01*
X87356057Y-47555780D01*
X87356058Y-47555782D01*
X87491751Y-47732622D01*
X87491757Y-47732629D01*
X87649370Y-47890242D01*
X87649376Y-47890247D01*
X87826226Y-48025948D01*
X88019274Y-48137405D01*
X88149140Y-48191197D01*
X88222297Y-48221500D01*
X88225219Y-48222710D01*
X88440537Y-48280404D01*
X88661543Y-48309500D01*
X88661550Y-48309500D01*
X88884450Y-48309500D01*
X88884457Y-48309500D01*
X89105463Y-48280404D01*
X89320781Y-48222710D01*
X89526726Y-48137405D01*
X89719774Y-48025948D01*
X89896624Y-47890247D01*
X90054247Y-47732624D01*
X90189948Y-47555774D01*
X90301405Y-47362726D01*
X90386710Y-47156781D01*
X90444404Y-46941463D01*
X90473500Y-46720457D01*
X90473500Y-46497543D01*
X90444404Y-46276537D01*
X90386710Y-46061219D01*
X90301405Y-45855274D01*
X90189948Y-45662226D01*
X90150867Y-45611294D01*
X90054248Y-45485377D01*
X90054242Y-45485370D01*
X89896629Y-45327757D01*
X89896622Y-45327751D01*
X89719782Y-45192058D01*
X89719780Y-45192057D01*
X89719774Y-45192052D01*
X89526726Y-45080595D01*
X89526722Y-45080593D01*
X89320790Y-44995293D01*
X89320783Y-44995291D01*
X89320781Y-44995290D01*
X89105463Y-44937596D01*
X89105457Y-44937595D01*
X89105452Y-44937594D01*
X88884466Y-44908501D01*
X88884463Y-44908500D01*
X88884457Y-44908500D01*
X88661543Y-44908500D01*
X88661537Y-44908500D01*
X88661533Y-44908501D01*
X88440547Y-44937594D01*
X88440540Y-44937595D01*
X88440537Y-44937596D01*
X88225219Y-44995290D01*
X88225209Y-44995293D01*
X88019277Y-45080593D01*
X88019273Y-45080595D01*
X87826226Y-45192052D01*
X87826217Y-45192058D01*
X87649377Y-45327751D01*
X87649370Y-45327757D01*
X87491757Y-45485370D01*
X87491751Y-45485377D01*
X87356058Y-45662217D01*
X87356052Y-45662226D01*
X87244595Y-45855273D01*
X87244593Y-45855277D01*
X87159293Y-46061209D01*
X87159290Y-46061219D01*
X87101597Y-46276534D01*
X87101594Y-46276547D01*
X87072501Y-46497533D01*
X87072500Y-46497549D01*
X61598500Y-46497549D01*
X61598499Y-43165992D01*
X61587999Y-43063203D01*
X61532814Y-42896666D01*
X61487797Y-42823682D01*
X81885000Y-42823682D01*
X81885000Y-43028317D01*
X81917009Y-43230417D01*
X81980244Y-43425031D01*
X82073141Y-43607350D01*
X82073147Y-43607359D01*
X82105523Y-43651921D01*
X82105524Y-43651922D01*
X82785000Y-42972446D01*
X82785000Y-42978661D01*
X82812259Y-43080394D01*
X82864920Y-43171606D01*
X82939394Y-43246080D01*
X83030606Y-43298741D01*
X83132339Y-43326000D01*
X83138553Y-43326000D01*
X82459076Y-44005474D01*
X82503650Y-44037859D01*
X82685968Y-44130755D01*
X82880582Y-44193990D01*
X83082683Y-44226000D01*
X83287317Y-44226000D01*
X83489417Y-44193990D01*
X83684031Y-44130755D01*
X83866349Y-44037859D01*
X83910921Y-44005474D01*
X83231447Y-43326000D01*
X83237661Y-43326000D01*
X83339394Y-43298741D01*
X83430606Y-43246080D01*
X83505080Y-43171606D01*
X83557741Y-43080394D01*
X83585000Y-42978661D01*
X83585000Y-42972447D01*
X84264474Y-43651921D01*
X84296859Y-43607349D01*
X84389755Y-43425031D01*
X84452990Y-43230417D01*
X84485000Y-43028317D01*
X84485000Y-42823682D01*
X84452990Y-42621582D01*
X84389755Y-42426968D01*
X84296859Y-42244650D01*
X84264474Y-42200077D01*
X84264474Y-42200076D01*
X83585000Y-42879551D01*
X83585000Y-42873339D01*
X83557741Y-42771606D01*
X83505080Y-42680394D01*
X83430606Y-42605920D01*
X83339394Y-42553259D01*
X83237661Y-42526000D01*
X83231446Y-42526000D01*
X83910922Y-41846524D01*
X83910921Y-41846523D01*
X83866359Y-41814147D01*
X83866350Y-41814141D01*
X83684031Y-41721244D01*
X83489417Y-41658009D01*
X83287317Y-41626000D01*
X83082683Y-41626000D01*
X82880582Y-41658009D01*
X82685968Y-41721244D01*
X82503644Y-41814143D01*
X82459077Y-41846523D01*
X82459077Y-41846524D01*
X83138554Y-42526000D01*
X83132339Y-42526000D01*
X83030606Y-42553259D01*
X82939394Y-42605920D01*
X82864920Y-42680394D01*
X82812259Y-42771606D01*
X82785000Y-42873339D01*
X82785000Y-42879553D01*
X82105524Y-42200077D01*
X82105523Y-42200077D01*
X82073143Y-42244644D01*
X81980244Y-42426968D01*
X81917009Y-42621582D01*
X81885000Y-42823682D01*
X61487797Y-42823682D01*
X61440712Y-42747344D01*
X61316656Y-42623288D01*
X61167334Y-42531186D01*
X61000797Y-42476001D01*
X61000795Y-42476000D01*
X60898010Y-42465500D01*
X59497998Y-42465500D01*
X59497981Y-42465501D01*
X59395203Y-42476000D01*
X59395200Y-42476001D01*
X59228668Y-42531185D01*
X59228663Y-42531187D01*
X59079342Y-42623289D01*
X59015681Y-42686951D01*
X58954358Y-42720436D01*
X58884666Y-42715452D01*
X58840319Y-42686951D01*
X58776657Y-42623289D01*
X58776656Y-42623288D01*
X58627334Y-42531186D01*
X58460797Y-42476001D01*
X58460795Y-42476000D01*
X58358010Y-42465500D01*
X56957998Y-42465500D01*
X56957981Y-42465501D01*
X56855203Y-42476000D01*
X56855200Y-42476001D01*
X56688668Y-42531185D01*
X56688663Y-42531187D01*
X56539342Y-42623289D01*
X56475681Y-42686951D01*
X56414358Y-42720436D01*
X56344666Y-42715452D01*
X56300319Y-42686951D01*
X56236657Y-42623289D01*
X56236656Y-42623288D01*
X56087334Y-42531186D01*
X55920797Y-42476001D01*
X55920795Y-42476000D01*
X55818010Y-42465500D01*
X54417998Y-42465500D01*
X54417981Y-42465501D01*
X54315203Y-42476000D01*
X54315200Y-42476001D01*
X54148668Y-42531185D01*
X54148663Y-42531187D01*
X53999342Y-42623289D01*
X53935681Y-42686951D01*
X53874358Y-42720436D01*
X53804666Y-42715452D01*
X53760319Y-42686951D01*
X53696657Y-42623289D01*
X53696656Y-42623288D01*
X53547334Y-42531186D01*
X53380797Y-42476001D01*
X53380795Y-42476000D01*
X53278010Y-42465500D01*
X51877998Y-42465500D01*
X51877981Y-42465501D01*
X51775203Y-42476000D01*
X51775200Y-42476001D01*
X51608668Y-42531185D01*
X51608663Y-42531187D01*
X51459342Y-42623289D01*
X51395681Y-42686951D01*
X51334358Y-42720436D01*
X51264666Y-42715452D01*
X51220319Y-42686951D01*
X51156657Y-42623289D01*
X51156656Y-42623288D01*
X51007334Y-42531186D01*
X50840797Y-42476001D01*
X50840795Y-42476000D01*
X50738010Y-42465500D01*
X49337998Y-42465500D01*
X49337981Y-42465501D01*
X49235203Y-42476000D01*
X49235200Y-42476001D01*
X49068668Y-42531185D01*
X49068663Y-42531187D01*
X48919342Y-42623289D01*
X48855681Y-42686951D01*
X48794358Y-42720436D01*
X48724666Y-42715452D01*
X48680319Y-42686951D01*
X48616657Y-42623289D01*
X48616656Y-42623288D01*
X48467334Y-42531186D01*
X48300797Y-42476001D01*
X48300795Y-42476000D01*
X48198010Y-42465500D01*
X46797998Y-42465500D01*
X46797981Y-42465501D01*
X46695203Y-42476000D01*
X46695200Y-42476001D01*
X46528668Y-42531185D01*
X46528663Y-42531187D01*
X46379345Y-42623287D01*
X46315327Y-42687305D01*
X46254003Y-42720789D01*
X46184312Y-42715804D01*
X46139965Y-42687304D01*
X46076345Y-42623684D01*
X45927124Y-42531643D01*
X45927119Y-42531641D01*
X45760697Y-42476494D01*
X45760690Y-42476493D01*
X45657986Y-42466000D01*
X45208000Y-42466000D01*
X45208000Y-45150314D01*
X45203606Y-45145920D01*
X45112394Y-45093259D01*
X45010661Y-45066000D01*
X44905339Y-45066000D01*
X44803606Y-45093259D01*
X44712394Y-45145920D01*
X44708000Y-45150314D01*
X44708000Y-42466000D01*
X44258028Y-42466000D01*
X44258012Y-42466001D01*
X44155302Y-42476494D01*
X43988880Y-42531641D01*
X43988875Y-42531643D01*
X43839657Y-42623682D01*
X43776034Y-42687305D01*
X43714710Y-42720789D01*
X43645019Y-42715804D01*
X43600672Y-42687304D01*
X43536657Y-42623289D01*
X43536656Y-42623288D01*
X43387334Y-42531186D01*
X43220797Y-42476001D01*
X43220795Y-42476000D01*
X43118010Y-42465500D01*
X41717998Y-42465500D01*
X41717981Y-42465501D01*
X41615203Y-42476000D01*
X41615200Y-42476001D01*
X41448668Y-42531185D01*
X41448663Y-42531187D01*
X41299342Y-42623289D01*
X41175289Y-42747342D01*
X41083187Y-42896663D01*
X41083185Y-42896668D01*
X41056015Y-42978661D01*
X41028001Y-43063203D01*
X41028001Y-43063204D01*
X41028000Y-43063204D01*
X41017500Y-43165983D01*
X38173500Y-43165983D01*
X38173500Y-40918682D01*
X39213000Y-40918682D01*
X39213000Y-41123317D01*
X39245009Y-41325417D01*
X39308244Y-41520031D01*
X39401141Y-41702350D01*
X39401147Y-41702359D01*
X39433523Y-41746921D01*
X39433524Y-41746922D01*
X40113000Y-41067446D01*
X40113000Y-41073661D01*
X40140259Y-41175394D01*
X40192920Y-41266606D01*
X40267394Y-41341080D01*
X40358606Y-41393741D01*
X40460339Y-41421000D01*
X40466553Y-41421000D01*
X39787076Y-42100474D01*
X39831650Y-42132859D01*
X40013968Y-42225755D01*
X40208582Y-42288990D01*
X40410683Y-42321000D01*
X40615317Y-42321000D01*
X40817417Y-42288990D01*
X41012031Y-42225755D01*
X41194349Y-42132859D01*
X41238921Y-42100474D01*
X40559447Y-41421000D01*
X40565661Y-41421000D01*
X40667394Y-41393741D01*
X40758606Y-41341080D01*
X40833080Y-41266606D01*
X40885741Y-41175394D01*
X40913000Y-41073661D01*
X40913000Y-41067447D01*
X41592474Y-41746921D01*
X41624859Y-41702349D01*
X41717755Y-41520031D01*
X41780990Y-41325417D01*
X41813000Y-41123317D01*
X41813000Y-40918682D01*
X41780990Y-40716582D01*
X41717755Y-40521968D01*
X41624859Y-40339650D01*
X41592474Y-40295077D01*
X41592474Y-40295076D01*
X40913000Y-40974551D01*
X40913000Y-40968339D01*
X40885741Y-40866606D01*
X40833080Y-40775394D01*
X40758606Y-40700920D01*
X40667394Y-40648259D01*
X40565661Y-40621000D01*
X40559446Y-40621000D01*
X41238922Y-39941524D01*
X41238921Y-39941523D01*
X41194359Y-39909147D01*
X41194350Y-39909141D01*
X41012031Y-39816244D01*
X40817417Y-39753009D01*
X40615317Y-39721000D01*
X40410683Y-39721000D01*
X40208582Y-39753009D01*
X40013968Y-39816244D01*
X39831644Y-39909143D01*
X39787077Y-39941523D01*
X39787077Y-39941524D01*
X40466554Y-40621000D01*
X40460339Y-40621000D01*
X40358606Y-40648259D01*
X40267394Y-40700920D01*
X40192920Y-40775394D01*
X40140259Y-40866606D01*
X40113000Y-40968339D01*
X40113000Y-40974553D01*
X39433524Y-40295077D01*
X39433523Y-40295077D01*
X39401143Y-40339644D01*
X39308244Y-40521968D01*
X39245009Y-40716582D01*
X39213000Y-40918682D01*
X38173500Y-40918682D01*
X38173500Y-38378648D01*
X62072500Y-38378648D01*
X62072500Y-38583351D01*
X62104522Y-38785534D01*
X62167781Y-38980223D01*
X62260715Y-39162613D01*
X62381028Y-39328213D01*
X62525786Y-39472971D01*
X62691385Y-39593284D01*
X62691387Y-39593285D01*
X62691390Y-39593287D01*
X62784630Y-39640795D01*
X62835426Y-39688770D01*
X62852221Y-39756591D01*
X62829684Y-39822725D01*
X62784630Y-39861765D01*
X62691644Y-39909143D01*
X62647077Y-39941523D01*
X62647077Y-39941524D01*
X63326554Y-40621000D01*
X63320339Y-40621000D01*
X63218606Y-40648259D01*
X63127394Y-40700920D01*
X63052920Y-40775394D01*
X63000259Y-40866606D01*
X62973000Y-40968339D01*
X62973000Y-40974553D01*
X62293524Y-40295077D01*
X62293523Y-40295077D01*
X62261143Y-40339644D01*
X62168244Y-40521968D01*
X62105009Y-40716582D01*
X62073000Y-40918682D01*
X62073000Y-41123317D01*
X62105009Y-41325417D01*
X62168244Y-41520031D01*
X62261141Y-41702350D01*
X62261147Y-41702359D01*
X62293523Y-41746921D01*
X62293524Y-41746922D01*
X62973000Y-41067446D01*
X62973000Y-41073661D01*
X63000259Y-41175394D01*
X63052920Y-41266606D01*
X63127394Y-41341080D01*
X63218606Y-41393741D01*
X63320339Y-41421000D01*
X63326553Y-41421000D01*
X62647076Y-42100474D01*
X62691650Y-42132859D01*
X62873968Y-42225755D01*
X63068582Y-42288990D01*
X63270683Y-42321000D01*
X63475317Y-42321000D01*
X63677417Y-42288990D01*
X63872031Y-42225755D01*
X64054349Y-42132859D01*
X64098921Y-42100474D01*
X64098922Y-42100474D01*
X63979912Y-41981464D01*
X63419447Y-41421000D01*
X63425661Y-41421000D01*
X63527394Y-41393741D01*
X63618606Y-41341080D01*
X63693080Y-41266606D01*
X63745741Y-41175394D01*
X63773000Y-41073661D01*
X63773000Y-41067447D01*
X64452474Y-41746921D01*
X64484859Y-41702349D01*
X64577755Y-41520031D01*
X64640990Y-41325417D01*
X64673000Y-41123317D01*
X64673000Y-40918682D01*
X64640990Y-40716582D01*
X64577755Y-40521968D01*
X64484859Y-40339650D01*
X64452474Y-40295077D01*
X64452474Y-40295076D01*
X63773000Y-40974551D01*
X63773000Y-40968339D01*
X63745741Y-40866606D01*
X63693080Y-40775394D01*
X63618606Y-40700920D01*
X63527394Y-40648259D01*
X63425661Y-40621000D01*
X63419446Y-40621000D01*
X64098922Y-39941524D01*
X64098921Y-39941523D01*
X64054359Y-39909147D01*
X64054350Y-39909141D01*
X63961369Y-39861765D01*
X63910573Y-39813790D01*
X63893778Y-39745969D01*
X63916315Y-39679835D01*
X63961370Y-39640795D01*
X64054610Y-39593287D01*
X64104144Y-39557298D01*
X64220213Y-39472971D01*
X64220215Y-39472968D01*
X64220219Y-39472966D01*
X64364966Y-39328219D01*
X64364968Y-39328215D01*
X64364971Y-39328213D01*
X64421259Y-39250738D01*
X64485287Y-39162610D01*
X64578220Y-38980219D01*
X64641477Y-38785534D01*
X64673500Y-38583352D01*
X64673500Y-38378648D01*
X64641477Y-38176466D01*
X64578220Y-37981781D01*
X64578218Y-37981778D01*
X64578218Y-37981776D01*
X64544503Y-37915607D01*
X64485287Y-37799390D01*
X64471748Y-37780755D01*
X64364971Y-37633786D01*
X64220213Y-37489028D01*
X64054613Y-37368715D01*
X64054612Y-37368714D01*
X64054610Y-37368713D01*
X63997653Y-37339691D01*
X63872223Y-37275781D01*
X63677534Y-37212522D01*
X63502995Y-37184878D01*
X63475352Y-37180500D01*
X63270648Y-37180500D01*
X63246329Y-37184351D01*
X63068465Y-37212522D01*
X62873776Y-37275781D01*
X62691386Y-37368715D01*
X62525786Y-37489028D01*
X62381028Y-37633786D01*
X62260715Y-37799386D01*
X62167781Y-37981776D01*
X62104522Y-38176465D01*
X62072500Y-38378648D01*
X38173500Y-38378648D01*
X38173500Y-32687153D01*
X65112500Y-32687153D01*
X65112500Y-38559846D01*
X65143261Y-38714489D01*
X65143264Y-38714501D01*
X65203602Y-38860172D01*
X65203609Y-38860185D01*
X65291210Y-38991288D01*
X65291213Y-38991292D01*
X65402707Y-39102786D01*
X65402711Y-39102789D01*
X65533814Y-39190390D01*
X65533827Y-39190397D01*
X65679498Y-39250735D01*
X65679503Y-39250737D01*
X65834153Y-39281499D01*
X65834156Y-39281500D01*
X65834158Y-39281500D01*
X65991844Y-39281500D01*
X65991845Y-39281499D01*
X66146497Y-39250737D01*
X66292179Y-39190394D01*
X66423289Y-39102789D01*
X66534789Y-38991289D01*
X66622394Y-38860179D01*
X66682737Y-38714497D01*
X66713500Y-38559842D01*
X66713500Y-35203648D01*
X81884500Y-35203648D01*
X81884500Y-35408351D01*
X81916522Y-35610534D01*
X81979781Y-35805223D01*
X82072715Y-35987613D01*
X82193028Y-36153213D01*
X82337786Y-36297971D01*
X82492749Y-36410556D01*
X82503390Y-36418287D01*
X82612109Y-36473682D01*
X82685776Y-36511218D01*
X82685778Y-36511218D01*
X82685781Y-36511220D01*
X82790137Y-36545127D01*
X82880465Y-36574477D01*
X82981557Y-36590488D01*
X83082648Y-36606500D01*
X83082649Y-36606500D01*
X83287351Y-36606500D01*
X83287352Y-36606500D01*
X83489534Y-36574477D01*
X83684219Y-36511220D01*
X83757891Y-36473682D01*
X113508000Y-36473682D01*
X113508000Y-36678317D01*
X113540009Y-36880417D01*
X113603244Y-37075031D01*
X113696141Y-37257350D01*
X113696147Y-37257359D01*
X113728523Y-37301921D01*
X113728524Y-37301922D01*
X114408000Y-36622446D01*
X114408000Y-36628661D01*
X114435259Y-36730394D01*
X114487920Y-36821606D01*
X114562394Y-36896080D01*
X114653606Y-36948741D01*
X114755339Y-36976000D01*
X114761553Y-36976000D01*
X114082076Y-37655474D01*
X114126650Y-37687859D01*
X114308968Y-37780755D01*
X114503582Y-37843990D01*
X114705683Y-37876000D01*
X114910317Y-37876000D01*
X115112417Y-37843990D01*
X115307031Y-37780755D01*
X115489349Y-37687859D01*
X115533921Y-37655474D01*
X114854447Y-36976000D01*
X114860661Y-36976000D01*
X114962394Y-36948741D01*
X115053606Y-36896080D01*
X115128080Y-36821606D01*
X115180741Y-36730394D01*
X115208000Y-36628661D01*
X115208000Y-36622447D01*
X115887474Y-37301921D01*
X115919859Y-37257349D01*
X116012755Y-37075031D01*
X116075990Y-36880417D01*
X116108000Y-36678317D01*
X116108000Y-36473682D01*
X116075990Y-36271582D01*
X116012755Y-36076968D01*
X115919859Y-35894650D01*
X115887474Y-35850077D01*
X115887474Y-35850076D01*
X115208000Y-36529551D01*
X115208000Y-36523339D01*
X115180741Y-36421606D01*
X115128080Y-36330394D01*
X115053606Y-36255920D01*
X114962394Y-36203259D01*
X114860661Y-36176000D01*
X114854446Y-36176000D01*
X115533922Y-35496524D01*
X115533921Y-35496523D01*
X115489359Y-35464147D01*
X115489350Y-35464141D01*
X115307031Y-35371244D01*
X115112417Y-35308009D01*
X114910317Y-35276000D01*
X114705683Y-35276000D01*
X114503582Y-35308009D01*
X114308968Y-35371244D01*
X114126644Y-35464143D01*
X114082077Y-35496523D01*
X114082077Y-35496524D01*
X114761554Y-36176000D01*
X114755339Y-36176000D01*
X114653606Y-36203259D01*
X114562394Y-36255920D01*
X114487920Y-36330394D01*
X114435259Y-36421606D01*
X114408000Y-36523339D01*
X114408000Y-36529553D01*
X113728524Y-35850077D01*
X113728523Y-35850077D01*
X113696143Y-35894644D01*
X113603244Y-36076968D01*
X113540009Y-36271582D01*
X113508000Y-36473682D01*
X83757891Y-36473682D01*
X83866610Y-36418287D01*
X84032219Y-36297966D01*
X84176966Y-36153219D01*
X84176968Y-36153215D01*
X84176971Y-36153213D01*
X84232365Y-36076968D01*
X84297287Y-35987610D01*
X84390220Y-35805219D01*
X84453477Y-35610534D01*
X84485500Y-35408352D01*
X84485500Y-35203648D01*
X84453477Y-35001466D01*
X84390220Y-34806781D01*
X84390218Y-34806778D01*
X84390218Y-34806776D01*
X84356503Y-34740607D01*
X84297287Y-34624390D01*
X84289556Y-34613749D01*
X84176971Y-34458786D01*
X84032213Y-34314028D01*
X83866613Y-34193715D01*
X83866612Y-34193714D01*
X83866610Y-34193713D01*
X83809653Y-34164691D01*
X83684223Y-34100781D01*
X83489534Y-34037522D01*
X83314995Y-34009878D01*
X83287352Y-34005500D01*
X83082648Y-34005500D01*
X83058329Y-34009351D01*
X82880465Y-34037522D01*
X82685776Y-34100781D01*
X82503386Y-34193715D01*
X82337786Y-34314028D01*
X82193028Y-34458786D01*
X82072715Y-34624386D01*
X81979781Y-34806776D01*
X81916522Y-35001465D01*
X81884500Y-35203648D01*
X66713500Y-35203648D01*
X66713500Y-33148939D01*
X66733185Y-33081900D01*
X66749814Y-33061263D01*
X66902093Y-32908984D01*
X87072500Y-32908984D01*
X87072500Y-34909015D01*
X87083000Y-35011795D01*
X87083001Y-35011796D01*
X87138186Y-35178335D01*
X87138187Y-35178337D01*
X87230286Y-35327651D01*
X87230289Y-35327655D01*
X87354344Y-35451710D01*
X87354348Y-35451713D01*
X87503662Y-35543812D01*
X87503664Y-35543813D01*
X87503666Y-35543814D01*
X87670203Y-35598999D01*
X87772992Y-35609500D01*
X87772997Y-35609500D01*
X89773003Y-35609500D01*
X89773008Y-35609500D01*
X89875797Y-35598999D01*
X90042334Y-35543814D01*
X90191655Y-35451711D01*
X90315711Y-35327655D01*
X90407814Y-35178334D01*
X90462999Y-35011797D01*
X90473500Y-34909008D01*
X90473500Y-32908992D01*
X90462999Y-32806203D01*
X90407814Y-32639666D01*
X90382604Y-32598795D01*
X90315713Y-32490348D01*
X90315710Y-32490344D01*
X90191655Y-32366289D01*
X90191651Y-32366286D01*
X90042337Y-32274187D01*
X90042335Y-32274186D01*
X89959065Y-32246593D01*
X89875797Y-32219001D01*
X89875795Y-32219000D01*
X89773015Y-32208500D01*
X89773008Y-32208500D01*
X87772992Y-32208500D01*
X87772984Y-32208500D01*
X87670204Y-32219000D01*
X87670203Y-32219001D01*
X87503664Y-32274186D01*
X87503662Y-32274187D01*
X87354348Y-32366286D01*
X87354344Y-32366289D01*
X87230289Y-32490344D01*
X87230286Y-32490348D01*
X87138187Y-32639662D01*
X87138186Y-32639664D01*
X87083001Y-32806203D01*
X87083000Y-32806204D01*
X87072500Y-32908984D01*
X66902093Y-32908984D01*
X68426502Y-31384575D01*
X95328000Y-31384575D01*
X95328000Y-31607424D01*
X95357085Y-31828354D01*
X95357088Y-31828367D01*
X95414763Y-32043618D01*
X95500045Y-32249502D01*
X95500054Y-32249520D01*
X95611464Y-32442491D01*
X95611473Y-32442504D01*
X95662040Y-32508403D01*
X95662043Y-32508403D01*
X96463387Y-31707059D01*
X96468889Y-31727591D01*
X96547881Y-31864408D01*
X96659592Y-31976119D01*
X96796409Y-32055111D01*
X96816940Y-32060612D01*
X96015595Y-32861955D01*
X96015595Y-32861956D01*
X96081507Y-32912533D01*
X96274485Y-33023949D01*
X96274497Y-33023954D01*
X96480381Y-33109236D01*
X96695632Y-33166911D01*
X96695645Y-33166914D01*
X96916575Y-33196000D01*
X97139425Y-33196000D01*
X97360354Y-33166914D01*
X97360367Y-33166911D01*
X97575618Y-33109236D01*
X97781502Y-33023954D01*
X97781514Y-33023949D01*
X97974498Y-32912530D01*
X98040403Y-32861957D01*
X98040404Y-32861956D01*
X97239059Y-32060612D01*
X97259591Y-32055111D01*
X97396408Y-31976119D01*
X97508119Y-31864408D01*
X97587111Y-31727591D01*
X97592612Y-31707059D01*
X98393956Y-32508404D01*
X98393957Y-32508403D01*
X98444530Y-32442498D01*
X98555949Y-32249514D01*
X98555954Y-32249502D01*
X98641236Y-32043618D01*
X98698911Y-31828367D01*
X98698914Y-31828354D01*
X98728000Y-31607424D01*
X98728000Y-31384575D01*
X98698914Y-31163645D01*
X98698911Y-31163632D01*
X98641236Y-30948381D01*
X98555954Y-30742497D01*
X98555949Y-30742485D01*
X98447609Y-30554834D01*
X98447608Y-30554832D01*
X98444533Y-30549507D01*
X98403462Y-30495983D01*
X109297500Y-30495983D01*
X109297500Y-32496001D01*
X109297501Y-32496018D01*
X109308000Y-32598796D01*
X109308001Y-32598799D01*
X109363185Y-32765331D01*
X109363187Y-32765336D01*
X109388394Y-32806203D01*
X109455288Y-32914656D01*
X109579344Y-33038712D01*
X109728666Y-33130814D01*
X109895203Y-33185999D01*
X109997991Y-33196500D01*
X111998008Y-33196499D01*
X112100797Y-33185999D01*
X112267334Y-33130814D01*
X112416656Y-33038712D01*
X112540712Y-32914656D01*
X112632814Y-32765334D01*
X112687999Y-32598797D01*
X112698500Y-32496009D01*
X112698499Y-31473648D01*
X113507500Y-31473648D01*
X113507500Y-31678351D01*
X113539522Y-31880534D01*
X113602781Y-32075223D01*
X113666691Y-32200653D01*
X113694745Y-32255711D01*
X113695715Y-32257613D01*
X113816028Y-32423213D01*
X113960786Y-32567971D01*
X114059468Y-32639666D01*
X114126390Y-32688287D01*
X114242607Y-32747503D01*
X114308776Y-32781218D01*
X114308778Y-32781218D01*
X114308781Y-32781220D01*
X114385671Y-32806203D01*
X114503465Y-32844477D01*
X114604557Y-32860488D01*
X114705648Y-32876500D01*
X114705649Y-32876500D01*
X114910351Y-32876500D01*
X114910352Y-32876500D01*
X115112534Y-32844477D01*
X115307219Y-32781220D01*
X115489610Y-32688287D01*
X115612781Y-32598799D01*
X115655213Y-32567971D01*
X115655215Y-32567968D01*
X115655219Y-32567966D01*
X115799966Y-32423219D01*
X115799968Y-32423215D01*
X115799971Y-32423213D01*
X115908243Y-32274187D01*
X115920287Y-32257610D01*
X116013220Y-32075219D01*
X116076477Y-31880534D01*
X116108500Y-31678352D01*
X116108500Y-31473648D01*
X116076477Y-31271466D01*
X116013220Y-31076781D01*
X116013218Y-31076778D01*
X116013218Y-31076776D01*
X115979503Y-31010607D01*
X115920287Y-30894390D01*
X115912556Y-30883749D01*
X115799971Y-30728786D01*
X115655213Y-30584028D01*
X115489613Y-30463715D01*
X115489612Y-30463714D01*
X115489610Y-30463713D01*
X115432653Y-30434691D01*
X115307223Y-30370781D01*
X115112534Y-30307522D01*
X114937995Y-30279878D01*
X114910352Y-30275500D01*
X114705648Y-30275500D01*
X114681329Y-30279351D01*
X114503465Y-30307522D01*
X114308776Y-30370781D01*
X114126386Y-30463715D01*
X113960786Y-30584028D01*
X113816028Y-30728786D01*
X113695715Y-30894386D01*
X113602781Y-31076776D01*
X113539522Y-31271465D01*
X113507500Y-31473648D01*
X112698499Y-31473648D01*
X112698499Y-30495992D01*
X112687999Y-30393203D01*
X112632814Y-30226666D01*
X112540712Y-30077344D01*
X112416656Y-29953288D01*
X112267334Y-29861186D01*
X112100797Y-29806001D01*
X112100795Y-29806000D01*
X111998010Y-29795500D01*
X109997998Y-29795500D01*
X109997981Y-29795501D01*
X109895203Y-29806000D01*
X109895200Y-29806001D01*
X109728668Y-29861185D01*
X109728663Y-29861187D01*
X109579342Y-29953289D01*
X109455289Y-30077342D01*
X109363187Y-30226663D01*
X109363185Y-30226668D01*
X109347004Y-30275500D01*
X109308001Y-30393203D01*
X109308001Y-30393204D01*
X109308000Y-30393204D01*
X109297500Y-30495983D01*
X98403462Y-30495983D01*
X98393956Y-30483595D01*
X98393955Y-30483595D01*
X97592612Y-31284939D01*
X97587111Y-31264409D01*
X97508119Y-31127592D01*
X97396408Y-31015881D01*
X97259591Y-30936889D01*
X97239058Y-30931387D01*
X98040403Y-30130043D01*
X98040403Y-30130040D01*
X97974504Y-30079473D01*
X97974491Y-30079464D01*
X97781520Y-29968054D01*
X97781502Y-29968045D01*
X97575618Y-29882763D01*
X97360367Y-29825088D01*
X97360354Y-29825085D01*
X97139425Y-29796000D01*
X96916575Y-29796000D01*
X96695645Y-29825085D01*
X96695632Y-29825088D01*
X96480381Y-29882763D01*
X96274497Y-29968045D01*
X96274479Y-29968054D01*
X96081511Y-30079462D01*
X96015595Y-30130042D01*
X96816941Y-30931387D01*
X96796409Y-30936889D01*
X96659592Y-31015881D01*
X96547881Y-31127592D01*
X96468889Y-31264409D01*
X96463387Y-31284940D01*
X95662042Y-30483595D01*
X95611462Y-30549511D01*
X95500054Y-30742479D01*
X95500045Y-30742497D01*
X95414763Y-30948381D01*
X95357088Y-31163632D01*
X95357085Y-31163645D01*
X95328000Y-31384575D01*
X68426502Y-31384575D01*
X71248259Y-28562817D01*
X71309582Y-28529333D01*
X71335940Y-28526499D01*
X72278002Y-28526499D01*
X72278008Y-28526499D01*
X72380797Y-28515999D01*
X72547334Y-28460814D01*
X72696656Y-28368712D01*
X72820712Y-28244656D01*
X72912814Y-28095334D01*
X72967999Y-27928797D01*
X72978500Y-27826009D01*
X72978499Y-26275992D01*
X72978498Y-26275983D01*
X85156500Y-26275983D01*
X85156500Y-27826001D01*
X85156501Y-27826018D01*
X85167000Y-27928796D01*
X85167001Y-27928799D01*
X85212894Y-28067294D01*
X85222186Y-28095334D01*
X85314288Y-28244656D01*
X85438344Y-28368712D01*
X85587666Y-28460814D01*
X85754203Y-28515999D01*
X85856991Y-28526500D01*
X87157008Y-28526499D01*
X87259797Y-28515999D01*
X87426334Y-28460814D01*
X87575656Y-28368712D01*
X87699712Y-28244656D01*
X87791814Y-28095334D01*
X87791814Y-28095331D01*
X87795178Y-28089879D01*
X87847126Y-28043154D01*
X87916088Y-28031931D01*
X87980170Y-28059774D01*
X87988398Y-28067294D01*
X88127213Y-28206109D01*
X88299179Y-28331048D01*
X88299181Y-28331049D01*
X88299184Y-28331051D01*
X88488588Y-28427557D01*
X88690757Y-28493246D01*
X88900713Y-28526500D01*
X88900714Y-28526500D01*
X89113286Y-28526500D01*
X89113287Y-28526500D01*
X89323243Y-28493246D01*
X89525412Y-28427557D01*
X89714816Y-28331051D01*
X89764721Y-28294793D01*
X89886786Y-28206109D01*
X89886788Y-28206106D01*
X89886792Y-28206104D01*
X90037104Y-28055792D01*
X90037106Y-28055788D01*
X90037109Y-28055786D01*
X90151109Y-27898876D01*
X90162051Y-27883816D01*
X90258557Y-27694412D01*
X90324246Y-27492243D01*
X90357500Y-27282287D01*
X90357500Y-26819713D01*
X90324246Y-26609757D01*
X90258557Y-26407588D01*
X90162051Y-26218184D01*
X90162049Y-26218181D01*
X90162048Y-26218179D01*
X90037109Y-26046213D01*
X89886786Y-25895890D01*
X89714820Y-25770951D01*
X89525414Y-25674444D01*
X89525413Y-25674443D01*
X89525412Y-25674443D01*
X89323243Y-25608754D01*
X89323241Y-25608753D01*
X89323240Y-25608753D01*
X89161957Y-25583208D01*
X89113287Y-25575500D01*
X88900713Y-25575500D01*
X88852042Y-25583208D01*
X88690760Y-25608753D01*
X88488585Y-25674444D01*
X88299179Y-25770951D01*
X88127215Y-25895889D01*
X87988398Y-26034706D01*
X87927075Y-26068190D01*
X87857383Y-26063206D01*
X87801450Y-26021334D01*
X87795178Y-26012120D01*
X87749900Y-25938713D01*
X87699712Y-25857344D01*
X87575656Y-25733288D01*
X87426334Y-25641186D01*
X87259797Y-25586001D01*
X87259795Y-25586000D01*
X87157010Y-25575500D01*
X85856998Y-25575500D01*
X85856981Y-25575501D01*
X85754203Y-25586000D01*
X85754200Y-25586001D01*
X85587668Y-25641185D01*
X85587663Y-25641187D01*
X85438342Y-25733289D01*
X85314289Y-25857342D01*
X85222187Y-26006663D01*
X85222185Y-26006668D01*
X85204835Y-26059028D01*
X85167001Y-26173203D01*
X85167001Y-26173204D01*
X85167000Y-26173204D01*
X85156500Y-26275983D01*
X72978498Y-26275983D01*
X72974261Y-26234508D01*
X72967999Y-26173203D01*
X72967998Y-26173200D01*
X72933201Y-26068190D01*
X72912814Y-26006666D01*
X72820712Y-25857344D01*
X72696656Y-25733288D01*
X72547334Y-25641186D01*
X72380797Y-25586001D01*
X72380795Y-25586000D01*
X72278010Y-25575500D01*
X70977998Y-25575500D01*
X70977981Y-25575501D01*
X70875203Y-25586000D01*
X70875200Y-25586001D01*
X70708668Y-25641185D01*
X70708663Y-25641187D01*
X70559342Y-25733289D01*
X70435289Y-25857342D01*
X70339821Y-26012121D01*
X70287873Y-26058845D01*
X70218910Y-26070068D01*
X70154828Y-26042224D01*
X70146601Y-26034705D01*
X70007786Y-25895890D01*
X69835820Y-25770951D01*
X69646414Y-25674444D01*
X69646413Y-25674443D01*
X69646412Y-25674443D01*
X69444243Y-25608754D01*
X69444241Y-25608753D01*
X69444240Y-25608753D01*
X69282957Y-25583208D01*
X69234287Y-25575500D01*
X69021713Y-25575500D01*
X68973042Y-25583208D01*
X68811760Y-25608753D01*
X68609585Y-25674444D01*
X68420179Y-25770951D01*
X68248213Y-25895890D01*
X68097890Y-26046213D01*
X67972951Y-26218179D01*
X67876444Y-26407585D01*
X67810753Y-26609760D01*
X67777500Y-26819713D01*
X67777500Y-27282286D01*
X67810753Y-27492239D01*
X67876444Y-27694414D01*
X67972951Y-27883820D01*
X68097890Y-28055786D01*
X68248213Y-28206109D01*
X68420179Y-28331048D01*
X68420181Y-28331049D01*
X68420184Y-28331051D01*
X68494094Y-28368710D01*
X68609583Y-28427555D01*
X68609585Y-28427555D01*
X68609588Y-28427557D01*
X68711936Y-28460812D01*
X68801902Y-28490044D01*
X68859577Y-28529482D01*
X68886775Y-28593841D01*
X68874860Y-28662687D01*
X68851264Y-28695656D01*
X66162347Y-31384575D01*
X65402711Y-32144211D01*
X65346960Y-32199962D01*
X65291209Y-32255712D01*
X65203609Y-32386814D01*
X65203602Y-32386827D01*
X65143264Y-32532498D01*
X65143261Y-32532510D01*
X65112500Y-32687153D01*
X38173500Y-32687153D01*
X38173500Y-26203135D01*
X39212500Y-26203135D01*
X39212500Y-27898870D01*
X39212501Y-27898876D01*
X39218908Y-27958483D01*
X39269202Y-28093328D01*
X39269206Y-28093335D01*
X39355452Y-28208544D01*
X39355455Y-28208547D01*
X39470664Y-28294793D01*
X39470671Y-28294797D01*
X39605517Y-28345091D01*
X39605516Y-28345091D01*
X39612444Y-28345835D01*
X39665127Y-28351500D01*
X41360872Y-28351499D01*
X41420483Y-28345091D01*
X41555331Y-28294796D01*
X41670546Y-28208546D01*
X41756796Y-28093331D01*
X41807091Y-27958483D01*
X41813500Y-27898873D01*
X41813499Y-26948648D01*
X62072500Y-26948648D01*
X62072500Y-27153351D01*
X62104522Y-27355534D01*
X62167781Y-27550223D01*
X62260715Y-27732613D01*
X62381028Y-27898213D01*
X62525786Y-28042971D01*
X62680749Y-28155556D01*
X62691390Y-28163287D01*
X62775423Y-28206104D01*
X62784080Y-28210515D01*
X62834876Y-28258490D01*
X62851671Y-28326311D01*
X62829134Y-28392446D01*
X62784080Y-28431485D01*
X62691386Y-28478715D01*
X62525786Y-28599028D01*
X62381028Y-28743786D01*
X62260715Y-28909386D01*
X62167781Y-29091776D01*
X62104522Y-29286465D01*
X62072500Y-29488648D01*
X62072500Y-29693351D01*
X62104522Y-29895534D01*
X62167781Y-30090223D01*
X62260715Y-30272613D01*
X62381028Y-30438213D01*
X62525786Y-30582971D01*
X62680749Y-30695556D01*
X62691390Y-30703287D01*
X62768344Y-30742497D01*
X62873776Y-30796218D01*
X62873778Y-30796218D01*
X62873781Y-30796220D01*
X62978137Y-30830127D01*
X63068465Y-30859477D01*
X63169557Y-30875488D01*
X63270648Y-30891500D01*
X63270649Y-30891500D01*
X63475351Y-30891500D01*
X63475352Y-30891500D01*
X63677534Y-30859477D01*
X63872219Y-30796220D01*
X64054610Y-30703287D01*
X64147590Y-30635732D01*
X64220213Y-30582971D01*
X64220215Y-30582968D01*
X64220219Y-30582966D01*
X64364966Y-30438219D01*
X64364968Y-30438215D01*
X64364971Y-30438213D01*
X64483187Y-30275500D01*
X64485287Y-30272610D01*
X64578220Y-30090219D01*
X64641477Y-29895534D01*
X64673500Y-29693352D01*
X64673500Y-29488648D01*
X64641477Y-29286466D01*
X64578220Y-29091781D01*
X64578218Y-29091778D01*
X64578218Y-29091776D01*
X64544503Y-29025607D01*
X64485287Y-28909390D01*
X64477556Y-28898749D01*
X64364971Y-28743786D01*
X64220213Y-28599028D01*
X64054614Y-28478715D01*
X64019477Y-28460812D01*
X63961917Y-28431483D01*
X63911123Y-28383511D01*
X63894328Y-28315690D01*
X63916865Y-28249555D01*
X63961917Y-28210516D01*
X64054610Y-28163287D01*
X64075770Y-28147913D01*
X64220213Y-28042971D01*
X64220215Y-28042968D01*
X64220219Y-28042966D01*
X64364966Y-27898219D01*
X64364968Y-27898215D01*
X64364971Y-27898213D01*
X64417732Y-27825590D01*
X64485287Y-27732610D01*
X64578220Y-27550219D01*
X64641477Y-27355534D01*
X64673500Y-27153352D01*
X64673500Y-26948648D01*
X64641477Y-26746466D01*
X64578220Y-26551781D01*
X64578218Y-26551778D01*
X64578218Y-26551776D01*
X64544503Y-26485607D01*
X64485287Y-26369390D01*
X64471748Y-26350755D01*
X64364971Y-26203786D01*
X64220213Y-26059028D01*
X64054613Y-25938715D01*
X64054612Y-25938714D01*
X64054610Y-25938713D01*
X63970577Y-25895896D01*
X63872223Y-25845781D01*
X63677534Y-25782522D01*
X63502995Y-25754878D01*
X63475352Y-25750500D01*
X63270648Y-25750500D01*
X63246329Y-25754351D01*
X63068465Y-25782522D01*
X62873776Y-25845781D01*
X62691386Y-25938715D01*
X62525786Y-26059028D01*
X62381028Y-26203786D01*
X62260715Y-26369386D01*
X62167781Y-26551776D01*
X62104522Y-26746465D01*
X62072500Y-26948648D01*
X41813499Y-26948648D01*
X41813499Y-26203128D01*
X41807091Y-26143517D01*
X41779696Y-26070068D01*
X41756797Y-26008671D01*
X41756793Y-26008664D01*
X41670547Y-25893455D01*
X41670544Y-25893452D01*
X41555335Y-25807206D01*
X41555328Y-25807202D01*
X41420482Y-25756908D01*
X41420483Y-25756908D01*
X41360883Y-25750501D01*
X41360881Y-25750500D01*
X41360873Y-25750500D01*
X41360864Y-25750500D01*
X39665129Y-25750500D01*
X39665123Y-25750501D01*
X39605516Y-25756908D01*
X39470671Y-25807202D01*
X39470664Y-25807206D01*
X39355455Y-25893452D01*
X39355452Y-25893455D01*
X39269206Y-26008664D01*
X39269202Y-26008671D01*
X39218908Y-26143517D01*
X39215717Y-26173203D01*
X39212501Y-26203123D01*
X39212500Y-26203135D01*
X38173500Y-26203135D01*
X38173500Y-23642713D01*
X38654500Y-23642713D01*
X38654500Y-23855286D01*
X38687753Y-24065239D01*
X38687753Y-24065241D01*
X38687754Y-24065243D01*
X38707931Y-24127342D01*
X38753444Y-24267414D01*
X38849951Y-24456820D01*
X38974890Y-24628786D01*
X39125213Y-24779109D01*
X39297179Y-24904048D01*
X39297181Y-24904049D01*
X39297184Y-24904051D01*
X39486588Y-25000557D01*
X39688757Y-25066246D01*
X39898713Y-25099500D01*
X39898714Y-25099500D01*
X40111286Y-25099500D01*
X40111287Y-25099500D01*
X40321243Y-25066246D01*
X40390688Y-25043682D01*
X105205380Y-25043682D01*
X105205380Y-25248317D01*
X105237389Y-25450417D01*
X105300624Y-25645031D01*
X105393521Y-25827350D01*
X105393527Y-25827359D01*
X105425903Y-25871921D01*
X105425904Y-25871922D01*
X106105380Y-25192446D01*
X106105380Y-25198661D01*
X106132639Y-25300394D01*
X106185300Y-25391606D01*
X106259774Y-25466080D01*
X106350986Y-25518741D01*
X106452719Y-25546000D01*
X106458933Y-25546000D01*
X105779456Y-26225474D01*
X105824030Y-26257859D01*
X106006348Y-26350755D01*
X106200962Y-26413990D01*
X106403063Y-26446000D01*
X106607697Y-26446000D01*
X106809797Y-26413990D01*
X107004411Y-26350755D01*
X107186729Y-26257859D01*
X107231301Y-26225474D01*
X106551827Y-25546000D01*
X106558041Y-25546000D01*
X106659774Y-25518741D01*
X106750986Y-25466080D01*
X106825460Y-25391606D01*
X106878121Y-25300394D01*
X106905380Y-25198661D01*
X106905380Y-25192447D01*
X107584853Y-25871921D01*
X107622660Y-25868946D01*
X107691038Y-25883310D01*
X107740795Y-25932361D01*
X107750094Y-25953556D01*
X107769501Y-26012121D01*
X107770566Y-26015333D01*
X107770567Y-26015336D01*
X107803168Y-26068190D01*
X107862668Y-26164656D01*
X107986724Y-26288712D01*
X108136046Y-26380814D01*
X108302583Y-26435999D01*
X108405371Y-26446500D01*
X109605388Y-26446499D01*
X109708177Y-26435999D01*
X109874714Y-26380814D01*
X110024036Y-26288712D01*
X110148092Y-26164656D01*
X110240194Y-26015334D01*
X110295379Y-25848797D01*
X110305880Y-25746009D01*
X110305879Y-24545992D01*
X110295379Y-24443203D01*
X110240194Y-24276666D01*
X110148092Y-24127344D01*
X110024036Y-24003288D01*
X109874714Y-23911186D01*
X109708177Y-23856001D01*
X109708175Y-23856000D01*
X109605390Y-23845500D01*
X108405378Y-23845500D01*
X108405361Y-23845501D01*
X108302583Y-23856000D01*
X108302580Y-23856001D01*
X108136048Y-23911185D01*
X108136043Y-23911187D01*
X107986722Y-24003289D01*
X107862669Y-24127342D01*
X107770567Y-24276663D01*
X107770565Y-24276668D01*
X107750097Y-24338438D01*
X107710324Y-24395883D01*
X107645808Y-24422706D01*
X107622663Y-24423052D01*
X107584854Y-24420076D01*
X106905380Y-25099551D01*
X106905380Y-25093339D01*
X106878121Y-24991606D01*
X106825460Y-24900394D01*
X106750986Y-24825920D01*
X106659774Y-24773259D01*
X106558041Y-24746000D01*
X106551826Y-24746000D01*
X107231302Y-24066524D01*
X107231301Y-24066523D01*
X107186739Y-24034147D01*
X107186730Y-24034141D01*
X107004411Y-23941244D01*
X106809797Y-23878009D01*
X106607697Y-23846000D01*
X106403063Y-23846000D01*
X106200962Y-23878009D01*
X106006348Y-23941244D01*
X105824024Y-24034143D01*
X105779457Y-24066523D01*
X105779457Y-24066524D01*
X106458934Y-24746000D01*
X106452719Y-24746000D01*
X106350986Y-24773259D01*
X106259774Y-24825920D01*
X106185300Y-24900394D01*
X106132639Y-24991606D01*
X106105380Y-25093339D01*
X106105380Y-25099553D01*
X105425904Y-24420077D01*
X105425903Y-24420077D01*
X105393523Y-24464644D01*
X105300624Y-24646968D01*
X105237389Y-24841582D01*
X105205380Y-25043682D01*
X40390688Y-25043682D01*
X40523412Y-25000557D01*
X40712816Y-24904051D01*
X40820355Y-24825920D01*
X40884786Y-24779109D01*
X40884788Y-24779106D01*
X40884792Y-24779104D01*
X41035104Y-24628792D01*
X41035106Y-24628788D01*
X41035109Y-24628786D01*
X41160048Y-24456820D01*
X41160047Y-24456820D01*
X41160051Y-24456816D01*
X41256557Y-24267412D01*
X41322246Y-24065243D01*
X41355500Y-23855287D01*
X41355500Y-23642713D01*
X113838500Y-23642713D01*
X113838500Y-23855286D01*
X113871753Y-24065239D01*
X113871753Y-24065241D01*
X113871754Y-24065243D01*
X113891931Y-24127342D01*
X113937444Y-24267414D01*
X114033951Y-24456820D01*
X114158890Y-24628786D01*
X114309213Y-24779109D01*
X114481179Y-24904048D01*
X114481181Y-24904049D01*
X114481184Y-24904051D01*
X114670588Y-25000557D01*
X114872757Y-25066246D01*
X115082713Y-25099500D01*
X115082714Y-25099500D01*
X115295286Y-25099500D01*
X115295287Y-25099500D01*
X115505243Y-25066246D01*
X115707412Y-25000557D01*
X115896816Y-24904051D01*
X116004355Y-24825920D01*
X116068786Y-24779109D01*
X116068788Y-24779106D01*
X116068792Y-24779104D01*
X116219104Y-24628792D01*
X116219106Y-24628788D01*
X116219109Y-24628786D01*
X116344048Y-24456820D01*
X116344047Y-24456820D01*
X116344051Y-24456816D01*
X116440557Y-24267412D01*
X116506246Y-24065243D01*
X116539500Y-23855287D01*
X116539500Y-23642713D01*
X116506246Y-23432757D01*
X116440557Y-23230588D01*
X116344051Y-23041184D01*
X116344049Y-23041181D01*
X116344048Y-23041179D01*
X116219109Y-22869213D01*
X116068786Y-22718890D01*
X115896820Y-22593951D01*
X115707414Y-22497444D01*
X115707413Y-22497443D01*
X115707412Y-22497443D01*
X115505243Y-22431754D01*
X115505241Y-22431753D01*
X115505240Y-22431753D01*
X115343957Y-22406208D01*
X115295287Y-22398500D01*
X115082713Y-22398500D01*
X115034042Y-22406208D01*
X114872760Y-22431753D01*
X114670585Y-22497444D01*
X114481179Y-22593951D01*
X114309213Y-22718890D01*
X114158890Y-22869213D01*
X114033951Y-23041179D01*
X113937444Y-23230585D01*
X113871753Y-23432760D01*
X113838500Y-23642713D01*
X41355500Y-23642713D01*
X41322246Y-23432757D01*
X41256557Y-23230588D01*
X41160051Y-23041184D01*
X41160049Y-23041181D01*
X41160048Y-23041179D01*
X41035109Y-22869213D01*
X40884786Y-22718890D01*
X40712820Y-22593951D01*
X40523414Y-22497444D01*
X40523413Y-22497443D01*
X40523412Y-22497443D01*
X40321243Y-22431754D01*
X40321241Y-22431753D01*
X40321240Y-22431753D01*
X40159957Y-22406208D01*
X40111287Y-22398500D01*
X39898713Y-22398500D01*
X39850042Y-22406208D01*
X39688760Y-22431753D01*
X39486585Y-22497444D01*
X39297179Y-22593951D01*
X39125213Y-22718890D01*
X38974890Y-22869213D01*
X38849951Y-23041179D01*
X38753444Y-23230585D01*
X38687753Y-23432760D01*
X38654500Y-23642713D01*
X38173500Y-23642713D01*
X38173500Y-21874500D01*
X38193185Y-21807461D01*
X38245989Y-21761706D01*
X38297500Y-21750500D01*
X117048500Y-21750500D01*
X117115539Y-21770185D01*
G37*
%TD.AperFunction*%
%TD*%
M02*
