M48
; DRILL file {KiCad 9.0.6} date 2025-11-19T13:26:01-0800
; FORMAT={-:-/ absolute / metric / decimal}
; #@! TF.CreationDate,2025-11-19T13:26:01-08:00
; #@! TF.GenerationSoftware,Kicad,Pcbnew,9.0.6
; #@! TF.FileFunction,Plated,1,4,PTH
FMAT,2
METRIC
; #@! TA.AperFunction,Plated,PTH,ViaDrill
T1C0.300
; #@! TA.AperFunction,Plated,PTH,ComponentDrill
T2C0.800
; #@! TA.AperFunction,Plated,PTH,ComponentDrill
T3C0.950
; #@! TA.AperFunction,Plated,PTH,ComponentDrill
T4C1.000
; #@! TA.AperFunction,Plated,PTH,ComponentDrill
T5C1.200
%
G90
G05
T1
X62.23Y-42.545
X65.913Y-38.481
X74.422Y-49.022
X74.422Y-50.292
X75.565Y-30.48
X75.565Y-33.02
T2
X40.513Y-27.051
X40.513Y-41.021
X42.418Y-45.466
X42.418Y-60.706
X44.958Y-45.466
X44.958Y-60.706
X47.498Y-45.466
X47.498Y-60.706
X50.038Y-45.466
X50.038Y-60.706
X52.578Y-45.466
X52.578Y-60.706
X55.118Y-45.466
X55.118Y-60.706
X57.658Y-45.466
X57.658Y-60.706
X60.198Y-45.466
X60.198Y-60.706
X63.373Y-27.051
X63.373Y-29.591
X63.373Y-38.481
X63.373Y-41.021
X76.835Y-45.72
X76.835Y-53.34
X76.835Y-58.5
X76.835Y-63.5
X80.01Y-45.72
X80.01Y-53.34
X81.915Y-35.56
X81.915Y-43.18
X83.185Y-45.72
X83.185Y-53.34
X85.09Y-35.56
X85.09Y-43.18
X88.265Y-52.15
X88.265Y-57.15
X92.075Y-49.657
X92.075Y-57.277
X106.505Y-25.146
X107.823Y-63.246
X109.005Y-25.146
X110.323Y-63.246
X114.808Y-31.576
X114.808Y-36.576
X114.808Y-55.626
X114.808Y-60.626
T3
X66.628Y-60.786
X69.128Y-27.051
X69.128Y-60.786
X71.628Y-27.051
X71.628Y-60.786
X86.507Y-27.051
X89.007Y-27.051
T4
X65.913Y-54.356
X68.453Y-54.356
X70.993Y-54.356
X86.995Y-62.357
X89.535Y-62.357
X92.075Y-62.357
T5
X90.805Y-33.909
X90.805Y-46.609
X97.028Y-31.496
X97.028Y-56.896
X110.998Y-31.496
X110.998Y-56.896
M30
