%TF.GenerationSoftware,KiCad,Pcbnew,9.0.6*%
%TF.CreationDate,2025-11-16T23:41:38-08:00*%
%TF.ProjectId,schematic,73636865-6d61-4746-9963-2e6b69636164,rev?*%
%TF.SameCoordinates,Original*%
%TF.FileFunction,Legend,Bot*%
%TF.FilePolarity,Positive*%
%FSLAX46Y46*%
G04 Gerber Fmt 4.6, Leading zero omitted, Abs format (unit mm)*
G04 Created by KiCad (PCBNEW 9.0.6) date 2025-11-16 23:41:38*
%MOMM*%
%LPD*%
G01*
G04 APERTURE LIST*
G04 APERTURE END LIST*
%LPC*%
G36*
X119654850Y-90170964D02*
G01*
X119705040Y-90176787D01*
X119722189Y-90184359D01*
X119745671Y-90189030D01*
X119770810Y-90205827D01*
X119790696Y-90214608D01*
X119804277Y-90228189D01*
X119826777Y-90243223D01*
X119841810Y-90265722D01*
X119855391Y-90279303D01*
X119864170Y-90299186D01*
X119880970Y-90324329D01*
X119885641Y-90347812D01*
X119893212Y-90364959D01*
X119899033Y-90415139D01*
X119900000Y-90420000D01*
X119900000Y-93690000D01*
X119899032Y-93694863D01*
X119893212Y-93745040D01*
X119885641Y-93762185D01*
X119880970Y-93785671D01*
X119864169Y-93810815D01*
X119855391Y-93830696D01*
X119841812Y-93844274D01*
X119826777Y-93866777D01*
X119804274Y-93881812D01*
X119790696Y-93895391D01*
X119770815Y-93904169D01*
X119745671Y-93920970D01*
X119722185Y-93925641D01*
X119705040Y-93933212D01*
X119654861Y-93939032D01*
X119650000Y-93940000D01*
X118350000Y-93940000D01*
X118345138Y-93939032D01*
X118294959Y-93933212D01*
X118277812Y-93925641D01*
X118254329Y-93920970D01*
X118229186Y-93904170D01*
X118209303Y-93895391D01*
X118195722Y-93881810D01*
X118173223Y-93866777D01*
X118158189Y-93844277D01*
X118144608Y-93830696D01*
X118135827Y-93810810D01*
X118119030Y-93785671D01*
X118114359Y-93762189D01*
X118106787Y-93745040D01*
X118100964Y-93694849D01*
X118100000Y-93690000D01*
X118100000Y-90420000D01*
X118100964Y-90415150D01*
X118106787Y-90364959D01*
X118114359Y-90347808D01*
X118119030Y-90324329D01*
X118135826Y-90299191D01*
X118144608Y-90279303D01*
X118158191Y-90265719D01*
X118173223Y-90243223D01*
X118195719Y-90228191D01*
X118209303Y-90214608D01*
X118229191Y-90205826D01*
X118254329Y-90189030D01*
X118277808Y-90184359D01*
X118294959Y-90176787D01*
X118345151Y-90170964D01*
X118350000Y-90170000D01*
X119650000Y-90170000D01*
X119654850Y-90170964D01*
G37*
G36*
X122194850Y-90170964D02*
G01*
X122245040Y-90176787D01*
X122262189Y-90184359D01*
X122285671Y-90189030D01*
X122310810Y-90205827D01*
X122330696Y-90214608D01*
X122344277Y-90228189D01*
X122366777Y-90243223D01*
X122381810Y-90265722D01*
X122395391Y-90279303D01*
X122404170Y-90299186D01*
X122420970Y-90324329D01*
X122425641Y-90347812D01*
X122433212Y-90364959D01*
X122439033Y-90415139D01*
X122440000Y-90420000D01*
X122440000Y-93690000D01*
X122439032Y-93694863D01*
X122433212Y-93745040D01*
X122425641Y-93762185D01*
X122420970Y-93785671D01*
X122404169Y-93810815D01*
X122395391Y-93830696D01*
X122381812Y-93844274D01*
X122366777Y-93866777D01*
X122344274Y-93881812D01*
X122330696Y-93895391D01*
X122310815Y-93904169D01*
X122285671Y-93920970D01*
X122262185Y-93925641D01*
X122245040Y-93933212D01*
X122194861Y-93939032D01*
X122190000Y-93940000D01*
X120890000Y-93940000D01*
X120885138Y-93939032D01*
X120834959Y-93933212D01*
X120817812Y-93925641D01*
X120794329Y-93920970D01*
X120769186Y-93904170D01*
X120749303Y-93895391D01*
X120735722Y-93881810D01*
X120713223Y-93866777D01*
X120698189Y-93844277D01*
X120684608Y-93830696D01*
X120675827Y-93810810D01*
X120659030Y-93785671D01*
X120654359Y-93762189D01*
X120646787Y-93745040D01*
X120640964Y-93694849D01*
X120640000Y-93690000D01*
X120640000Y-90420000D01*
X120640964Y-90415150D01*
X120646787Y-90364959D01*
X120654359Y-90347808D01*
X120659030Y-90324329D01*
X120675826Y-90299191D01*
X120684608Y-90279303D01*
X120698191Y-90265719D01*
X120713223Y-90243223D01*
X120735719Y-90228191D01*
X120749303Y-90214608D01*
X120769191Y-90205826D01*
X120794329Y-90189030D01*
X120817808Y-90184359D01*
X120834959Y-90176787D01*
X120885151Y-90170964D01*
X120890000Y-90170000D01*
X122190000Y-90170000D01*
X122194850Y-90170964D01*
G37*
G36*
X124734850Y-90170964D02*
G01*
X124785040Y-90176787D01*
X124802189Y-90184359D01*
X124825671Y-90189030D01*
X124850810Y-90205827D01*
X124870696Y-90214608D01*
X124884277Y-90228189D01*
X124906777Y-90243223D01*
X124921810Y-90265722D01*
X124935391Y-90279303D01*
X124944170Y-90299186D01*
X124960970Y-90324329D01*
X124965641Y-90347812D01*
X124973212Y-90364959D01*
X124979033Y-90415139D01*
X124980000Y-90420000D01*
X124980000Y-93690000D01*
X124979032Y-93694863D01*
X124973212Y-93745040D01*
X124965641Y-93762185D01*
X124960970Y-93785671D01*
X124944169Y-93810815D01*
X124935391Y-93830696D01*
X124921812Y-93844274D01*
X124906777Y-93866777D01*
X124884274Y-93881812D01*
X124870696Y-93895391D01*
X124850815Y-93904169D01*
X124825671Y-93920970D01*
X124802185Y-93925641D01*
X124785040Y-93933212D01*
X124734861Y-93939032D01*
X124730000Y-93940000D01*
X123430000Y-93940000D01*
X123425138Y-93939032D01*
X123374959Y-93933212D01*
X123357812Y-93925641D01*
X123334329Y-93920970D01*
X123309186Y-93904170D01*
X123289303Y-93895391D01*
X123275722Y-93881810D01*
X123253223Y-93866777D01*
X123238189Y-93844277D01*
X123224608Y-93830696D01*
X123215827Y-93810810D01*
X123199030Y-93785671D01*
X123194359Y-93762189D01*
X123186787Y-93745040D01*
X123180964Y-93694849D01*
X123180000Y-93690000D01*
X123180000Y-90420000D01*
X123180964Y-90415150D01*
X123186787Y-90364959D01*
X123194359Y-90347808D01*
X123199030Y-90324329D01*
X123215826Y-90299191D01*
X123224608Y-90279303D01*
X123238191Y-90265719D01*
X123253223Y-90243223D01*
X123275719Y-90228191D01*
X123289303Y-90214608D01*
X123309191Y-90205826D01*
X123334329Y-90189030D01*
X123357808Y-90184359D01*
X123374959Y-90176787D01*
X123425151Y-90170964D01*
X123430000Y-90170000D01*
X124730000Y-90170000D01*
X124734850Y-90170964D01*
G37*
G36*
X127274850Y-90170964D02*
G01*
X127325040Y-90176787D01*
X127342189Y-90184359D01*
X127365671Y-90189030D01*
X127390810Y-90205827D01*
X127410696Y-90214608D01*
X127424277Y-90228189D01*
X127446777Y-90243223D01*
X127461810Y-90265722D01*
X127475391Y-90279303D01*
X127484170Y-90299186D01*
X127500970Y-90324329D01*
X127505641Y-90347812D01*
X127513212Y-90364959D01*
X127519033Y-90415139D01*
X127520000Y-90420000D01*
X127520000Y-93690000D01*
X127519032Y-93694863D01*
X127513212Y-93745040D01*
X127505641Y-93762185D01*
X127500970Y-93785671D01*
X127484169Y-93810815D01*
X127475391Y-93830696D01*
X127461812Y-93844274D01*
X127446777Y-93866777D01*
X127424274Y-93881812D01*
X127410696Y-93895391D01*
X127390815Y-93904169D01*
X127365671Y-93920970D01*
X127342185Y-93925641D01*
X127325040Y-93933212D01*
X127274861Y-93939032D01*
X127270000Y-93940000D01*
X125970000Y-93940000D01*
X125965138Y-93939032D01*
X125914959Y-93933212D01*
X125897812Y-93925641D01*
X125874329Y-93920970D01*
X125849186Y-93904170D01*
X125829303Y-93895391D01*
X125815722Y-93881810D01*
X125793223Y-93866777D01*
X125778189Y-93844277D01*
X125764608Y-93830696D01*
X125755827Y-93810810D01*
X125739030Y-93785671D01*
X125734359Y-93762189D01*
X125726787Y-93745040D01*
X125720964Y-93694849D01*
X125720000Y-93690000D01*
X125720000Y-90420000D01*
X125720964Y-90415150D01*
X125726787Y-90364959D01*
X125734359Y-90347808D01*
X125739030Y-90324329D01*
X125755826Y-90299191D01*
X125764608Y-90279303D01*
X125778191Y-90265719D01*
X125793223Y-90243223D01*
X125815719Y-90228191D01*
X125829303Y-90214608D01*
X125849191Y-90205826D01*
X125874329Y-90189030D01*
X125897808Y-90184359D01*
X125914959Y-90176787D01*
X125965151Y-90170964D01*
X125970000Y-90170000D01*
X127270000Y-90170000D01*
X127274850Y-90170964D01*
G37*
G36*
X129814850Y-90170964D02*
G01*
X129865040Y-90176787D01*
X129882189Y-90184359D01*
X129905671Y-90189030D01*
X129930810Y-90205827D01*
X129950696Y-90214608D01*
X129964277Y-90228189D01*
X129986777Y-90243223D01*
X130001810Y-90265722D01*
X130015391Y-90279303D01*
X130024170Y-90299186D01*
X130040970Y-90324329D01*
X130045641Y-90347812D01*
X130053212Y-90364959D01*
X130059033Y-90415139D01*
X130060000Y-90420000D01*
X130060000Y-93690000D01*
X130059032Y-93694863D01*
X130053212Y-93745040D01*
X130045641Y-93762185D01*
X130040970Y-93785671D01*
X130024169Y-93810815D01*
X130015391Y-93830696D01*
X130001812Y-93844274D01*
X129986777Y-93866777D01*
X129964274Y-93881812D01*
X129950696Y-93895391D01*
X129930815Y-93904169D01*
X129905671Y-93920970D01*
X129882185Y-93925641D01*
X129865040Y-93933212D01*
X129814861Y-93939032D01*
X129810000Y-93940000D01*
X128510000Y-93940000D01*
X128505138Y-93939032D01*
X128454959Y-93933212D01*
X128437812Y-93925641D01*
X128414329Y-93920970D01*
X128389186Y-93904170D01*
X128369303Y-93895391D01*
X128355722Y-93881810D01*
X128333223Y-93866777D01*
X128318189Y-93844277D01*
X128304608Y-93830696D01*
X128295827Y-93810810D01*
X128279030Y-93785671D01*
X128274359Y-93762189D01*
X128266787Y-93745040D01*
X128260964Y-93694849D01*
X128260000Y-93690000D01*
X128260000Y-90420000D01*
X128260964Y-90415150D01*
X128266787Y-90364959D01*
X128274359Y-90347808D01*
X128279030Y-90324329D01*
X128295826Y-90299191D01*
X128304608Y-90279303D01*
X128318191Y-90265719D01*
X128333223Y-90243223D01*
X128355719Y-90228191D01*
X128369303Y-90214608D01*
X128389191Y-90205826D01*
X128414329Y-90189030D01*
X128437808Y-90184359D01*
X128454959Y-90176787D01*
X128505151Y-90170964D01*
X128510000Y-90170000D01*
X129810000Y-90170000D01*
X129814850Y-90170964D01*
G37*
G36*
X132354850Y-90170964D02*
G01*
X132405040Y-90176787D01*
X132422189Y-90184359D01*
X132445671Y-90189030D01*
X132470810Y-90205827D01*
X132490696Y-90214608D01*
X132504277Y-90228189D01*
X132526777Y-90243223D01*
X132541810Y-90265722D01*
X132555391Y-90279303D01*
X132564170Y-90299186D01*
X132580970Y-90324329D01*
X132585641Y-90347812D01*
X132593212Y-90364959D01*
X132599033Y-90415139D01*
X132600000Y-90420000D01*
X132600000Y-93690000D01*
X132599032Y-93694863D01*
X132593212Y-93745040D01*
X132585641Y-93762185D01*
X132580970Y-93785671D01*
X132564169Y-93810815D01*
X132555391Y-93830696D01*
X132541812Y-93844274D01*
X132526777Y-93866777D01*
X132504274Y-93881812D01*
X132490696Y-93895391D01*
X132470815Y-93904169D01*
X132445671Y-93920970D01*
X132422185Y-93925641D01*
X132405040Y-93933212D01*
X132354861Y-93939032D01*
X132350000Y-93940000D01*
X131050000Y-93940000D01*
X131045138Y-93939032D01*
X130994959Y-93933212D01*
X130977812Y-93925641D01*
X130954329Y-93920970D01*
X130929186Y-93904170D01*
X130909303Y-93895391D01*
X130895722Y-93881810D01*
X130873223Y-93866777D01*
X130858189Y-93844277D01*
X130844608Y-93830696D01*
X130835827Y-93810810D01*
X130819030Y-93785671D01*
X130814359Y-93762189D01*
X130806787Y-93745040D01*
X130800964Y-93694849D01*
X130800000Y-93690000D01*
X130800000Y-90420000D01*
X130800964Y-90415150D01*
X130806787Y-90364959D01*
X130814359Y-90347808D01*
X130819030Y-90324329D01*
X130835826Y-90299191D01*
X130844608Y-90279303D01*
X130858191Y-90265719D01*
X130873223Y-90243223D01*
X130895719Y-90228191D01*
X130909303Y-90214608D01*
X130929191Y-90205826D01*
X130954329Y-90189030D01*
X130977808Y-90184359D01*
X130994959Y-90176787D01*
X131045151Y-90170964D01*
X131050000Y-90170000D01*
X132350000Y-90170000D01*
X132354850Y-90170964D01*
G37*
G36*
X134894850Y-90170964D02*
G01*
X134945040Y-90176787D01*
X134962189Y-90184359D01*
X134985671Y-90189030D01*
X135010810Y-90205827D01*
X135030696Y-90214608D01*
X135044277Y-90228189D01*
X135066777Y-90243223D01*
X135081810Y-90265722D01*
X135095391Y-90279303D01*
X135104170Y-90299186D01*
X135120970Y-90324329D01*
X135125641Y-90347812D01*
X135133212Y-90364959D01*
X135139033Y-90415139D01*
X135140000Y-90420000D01*
X135140000Y-93690000D01*
X135139032Y-93694863D01*
X135133212Y-93745040D01*
X135125641Y-93762185D01*
X135120970Y-93785671D01*
X135104169Y-93810815D01*
X135095391Y-93830696D01*
X135081812Y-93844274D01*
X135066777Y-93866777D01*
X135044274Y-93881812D01*
X135030696Y-93895391D01*
X135010815Y-93904169D01*
X134985671Y-93920970D01*
X134962185Y-93925641D01*
X134945040Y-93933212D01*
X134894861Y-93939032D01*
X134890000Y-93940000D01*
X133590000Y-93940000D01*
X133585138Y-93939032D01*
X133534959Y-93933212D01*
X133517812Y-93925641D01*
X133494329Y-93920970D01*
X133469186Y-93904170D01*
X133449303Y-93895391D01*
X133435722Y-93881810D01*
X133413223Y-93866777D01*
X133398189Y-93844277D01*
X133384608Y-93830696D01*
X133375827Y-93810810D01*
X133359030Y-93785671D01*
X133354359Y-93762189D01*
X133346787Y-93745040D01*
X133340964Y-93694849D01*
X133340000Y-93690000D01*
X133340000Y-90420000D01*
X133340964Y-90415150D01*
X133346787Y-90364959D01*
X133354359Y-90347808D01*
X133359030Y-90324329D01*
X133375826Y-90299191D01*
X133384608Y-90279303D01*
X133398191Y-90265719D01*
X133413223Y-90243223D01*
X133435719Y-90228191D01*
X133449303Y-90214608D01*
X133469191Y-90205826D01*
X133494329Y-90189030D01*
X133517808Y-90184359D01*
X133534959Y-90176787D01*
X133585151Y-90170964D01*
X133590000Y-90170000D01*
X134890000Y-90170000D01*
X134894850Y-90170964D01*
G37*
G36*
X137434850Y-90170964D02*
G01*
X137485040Y-90176787D01*
X137502189Y-90184359D01*
X137525671Y-90189030D01*
X137550810Y-90205827D01*
X137570696Y-90214608D01*
X137584277Y-90228189D01*
X137606777Y-90243223D01*
X137621810Y-90265722D01*
X137635391Y-90279303D01*
X137644170Y-90299186D01*
X137660970Y-90324329D01*
X137665641Y-90347812D01*
X137673212Y-90364959D01*
X137679033Y-90415139D01*
X137680000Y-90420000D01*
X137680000Y-93690000D01*
X137679032Y-93694863D01*
X137673212Y-93745040D01*
X137665641Y-93762185D01*
X137660970Y-93785671D01*
X137644169Y-93810815D01*
X137635391Y-93830696D01*
X137621812Y-93844274D01*
X137606777Y-93866777D01*
X137584274Y-93881812D01*
X137570696Y-93895391D01*
X137550815Y-93904169D01*
X137525671Y-93920970D01*
X137502185Y-93925641D01*
X137485040Y-93933212D01*
X137434861Y-93939032D01*
X137430000Y-93940000D01*
X136130000Y-93940000D01*
X136125138Y-93939032D01*
X136074959Y-93933212D01*
X136057812Y-93925641D01*
X136034329Y-93920970D01*
X136009186Y-93904170D01*
X135989303Y-93895391D01*
X135975722Y-93881810D01*
X135953223Y-93866777D01*
X135938189Y-93844277D01*
X135924608Y-93830696D01*
X135915827Y-93810810D01*
X135899030Y-93785671D01*
X135894359Y-93762189D01*
X135886787Y-93745040D01*
X135880964Y-93694849D01*
X135880000Y-93690000D01*
X135880000Y-90420000D01*
X135880964Y-90415150D01*
X135886787Y-90364959D01*
X135894359Y-90347808D01*
X135899030Y-90324329D01*
X135915826Y-90299191D01*
X135924608Y-90279303D01*
X135938191Y-90265719D01*
X135953223Y-90243223D01*
X135975719Y-90228191D01*
X135989303Y-90214608D01*
X136009191Y-90205826D01*
X136034329Y-90189030D01*
X136057808Y-90184359D01*
X136074959Y-90176787D01*
X136125151Y-90170964D01*
X136130000Y-90170000D01*
X137430000Y-90170000D01*
X137434850Y-90170964D01*
G37*
G36*
X113921790Y-91640393D02*
G01*
X114085952Y-91693733D01*
X114239748Y-91772096D01*
X114379393Y-91873553D01*
X114501447Y-91995607D01*
X114602904Y-92135252D01*
X114681267Y-92289048D01*
X114734607Y-92453210D01*
X114761609Y-92623695D01*
X114761609Y-92796305D01*
X114734607Y-92966790D01*
X114681267Y-93130952D01*
X114602904Y-93284748D01*
X114501447Y-93424393D01*
X114379393Y-93546447D01*
X114239748Y-93647904D01*
X114085952Y-93726267D01*
X113921790Y-93779607D01*
X113751305Y-93806609D01*
X113578695Y-93806609D01*
X113408210Y-93779607D01*
X113244048Y-93726267D01*
X113090252Y-93647904D01*
X112950607Y-93546447D01*
X112828553Y-93424393D01*
X112727096Y-93284748D01*
X112648733Y-93130952D01*
X112595393Y-92966790D01*
X112568391Y-92796305D01*
X112568391Y-92623695D01*
X112595393Y-92453210D01*
X112648733Y-92289048D01*
X112727096Y-92135252D01*
X112828553Y-91995607D01*
X112950607Y-91873553D01*
X113090252Y-91772096D01*
X113244048Y-91693733D01*
X113408210Y-91640393D01*
X113578695Y-91613391D01*
X113751305Y-91613391D01*
X113921790Y-91640393D01*
G37*
G36*
X189486790Y-91640393D02*
G01*
X189650952Y-91693733D01*
X189804748Y-91772096D01*
X189944393Y-91873553D01*
X190066447Y-91995607D01*
X190167904Y-92135252D01*
X190246267Y-92289048D01*
X190299607Y-92453210D01*
X190326609Y-92623695D01*
X190326609Y-92796305D01*
X190299607Y-92966790D01*
X190246267Y-93130952D01*
X190167904Y-93284748D01*
X190066447Y-93424393D01*
X189944393Y-93546447D01*
X189804748Y-93647904D01*
X189650952Y-93726267D01*
X189486790Y-93779607D01*
X189316305Y-93806609D01*
X189143695Y-93806609D01*
X188973210Y-93779607D01*
X188809048Y-93726267D01*
X188655252Y-93647904D01*
X188515607Y-93546447D01*
X188393553Y-93424393D01*
X188292096Y-93284748D01*
X188213733Y-93130952D01*
X188160393Y-92966790D01*
X188133391Y-92796305D01*
X188133391Y-92623695D01*
X188160393Y-92453210D01*
X188213733Y-92289048D01*
X188292096Y-92135252D01*
X188393553Y-91995607D01*
X188515607Y-91873553D01*
X188655252Y-91772096D01*
X188809048Y-91693733D01*
X188973210Y-91640393D01*
X189143695Y-91613391D01*
X189316305Y-91613391D01*
X189486790Y-91640393D01*
G37*
G36*
X183620228Y-90840827D02*
G01*
X183765117Y-90900842D01*
X183895515Y-90987971D01*
X184006408Y-91098864D01*
X184093537Y-91229262D01*
X184153552Y-91374151D01*
X184184148Y-91527965D01*
X184184148Y-91684793D01*
X184153552Y-91838607D01*
X184093537Y-91983496D01*
X184006408Y-92113894D01*
X183895515Y-92224787D01*
X183765117Y-92311916D01*
X183620228Y-92371931D01*
X183466414Y-92402527D01*
X183309586Y-92402527D01*
X183155772Y-92371931D01*
X183010883Y-92311916D01*
X182880485Y-92224787D01*
X182769592Y-92113894D01*
X182682463Y-91983496D01*
X182622448Y-91838607D01*
X182591852Y-91684793D01*
X182591852Y-91527965D01*
X182622448Y-91374151D01*
X182682463Y-91229262D01*
X182769592Y-91098864D01*
X182880485Y-90987971D01*
X183010883Y-90900842D01*
X183155772Y-90840827D01*
X183309586Y-90810231D01*
X183466414Y-90810231D01*
X183620228Y-90840827D01*
G37*
G36*
X158220228Y-90594448D02*
G01*
X158365117Y-90654463D01*
X158495515Y-90741592D01*
X158606408Y-90852485D01*
X158693537Y-90982883D01*
X158753552Y-91127772D01*
X158784148Y-91281586D01*
X158784148Y-91438414D01*
X158753552Y-91592228D01*
X158693537Y-91737117D01*
X158606408Y-91867515D01*
X158495515Y-91978408D01*
X158365117Y-92065537D01*
X158220228Y-92125552D01*
X158066414Y-92156148D01*
X157909586Y-92156148D01*
X157755772Y-92125552D01*
X157610883Y-92065537D01*
X157480485Y-91978408D01*
X157369592Y-91867515D01*
X157282463Y-91737117D01*
X157222448Y-91592228D01*
X157191852Y-91438414D01*
X157191852Y-91281586D01*
X157222448Y-91127772D01*
X157282463Y-90982883D01*
X157369592Y-90852485D01*
X157480485Y-90741592D01*
X157610883Y-90654463D01*
X157755772Y-90594448D01*
X157909586Y-90563852D01*
X158066414Y-90563852D01*
X158220228Y-90594448D01*
G37*
G36*
X165442000Y-91274000D02*
G01*
X163742000Y-91274000D01*
X163742000Y-89574000D01*
X165442000Y-89574000D01*
X165442000Y-91274000D01*
G37*
G36*
X174798850Y-89624964D02*
G01*
X174849040Y-89630787D01*
X174866189Y-89638359D01*
X174889671Y-89643030D01*
X174914810Y-89659827D01*
X174934696Y-89668608D01*
X174948277Y-89682189D01*
X174970777Y-89697223D01*
X174985810Y-89719722D01*
X174999391Y-89733303D01*
X175008170Y-89753186D01*
X175024970Y-89778329D01*
X175029641Y-89801812D01*
X175037212Y-89818959D01*
X175043033Y-89869139D01*
X175044000Y-89874000D01*
X175044000Y-90974000D01*
X175043032Y-90978863D01*
X175037212Y-91029040D01*
X175029641Y-91046185D01*
X175024970Y-91069671D01*
X175008169Y-91094815D01*
X174999391Y-91114696D01*
X174985812Y-91128274D01*
X174970777Y-91150777D01*
X174948274Y-91165812D01*
X174934696Y-91179391D01*
X174914815Y-91188169D01*
X174889671Y-91204970D01*
X174866185Y-91209641D01*
X174849040Y-91217212D01*
X174798861Y-91223032D01*
X174794000Y-91224000D01*
X173694000Y-91224000D01*
X173689138Y-91223032D01*
X173638959Y-91217212D01*
X173621812Y-91209641D01*
X173598329Y-91204970D01*
X173573186Y-91188170D01*
X173553303Y-91179391D01*
X173539722Y-91165810D01*
X173517223Y-91150777D01*
X173502189Y-91128277D01*
X173488608Y-91114696D01*
X173479827Y-91094810D01*
X173463030Y-91069671D01*
X173458359Y-91046189D01*
X173450787Y-91029040D01*
X173444964Y-90978849D01*
X173444000Y-90974000D01*
X173444000Y-89874000D01*
X173444964Y-89869150D01*
X173450787Y-89818959D01*
X173458359Y-89801808D01*
X173463030Y-89778329D01*
X173479826Y-89753191D01*
X173488608Y-89733303D01*
X173502191Y-89719719D01*
X173517223Y-89697223D01*
X173539719Y-89682191D01*
X173553303Y-89668608D01*
X173573191Y-89659826D01*
X173598329Y-89643030D01*
X173621808Y-89638359D01*
X173638959Y-89630787D01*
X173689151Y-89624964D01*
X173694000Y-89624000D01*
X174794000Y-89624000D01*
X174798850Y-89624964D01*
G37*
G36*
X143441428Y-89901912D02*
G01*
X143554623Y-89948799D01*
X143656496Y-90016868D01*
X143743132Y-90103504D01*
X143811201Y-90205377D01*
X143858088Y-90318572D01*
X143881990Y-90438739D01*
X143881990Y-90561261D01*
X143858088Y-90681428D01*
X143811201Y-90794623D01*
X143743132Y-90896496D01*
X143656496Y-90983132D01*
X143554623Y-91051201D01*
X143441428Y-91098088D01*
X143321261Y-91121990D01*
X143198739Y-91121990D01*
X143078572Y-91098088D01*
X142965377Y-91051201D01*
X142863504Y-90983132D01*
X142776868Y-90896496D01*
X142708799Y-90794623D01*
X142661912Y-90681428D01*
X142638010Y-90561261D01*
X142638010Y-90438739D01*
X142661912Y-90318572D01*
X142708799Y-90205377D01*
X142776868Y-90103504D01*
X142863504Y-90016868D01*
X142965377Y-89948799D01*
X143078572Y-89901912D01*
X143198739Y-89878010D01*
X143321261Y-89878010D01*
X143441428Y-89901912D01*
G37*
G36*
X145464850Y-87925964D02*
G01*
X145515040Y-87931787D01*
X145532189Y-87939359D01*
X145555671Y-87944030D01*
X145580810Y-87960827D01*
X145600696Y-87969608D01*
X145614277Y-87983189D01*
X145636777Y-87998223D01*
X145651810Y-88020722D01*
X145665391Y-88034303D01*
X145674170Y-88054186D01*
X145690970Y-88079329D01*
X145695641Y-88102812D01*
X145703212Y-88119959D01*
X145709033Y-88170139D01*
X145710000Y-88175000D01*
X145710000Y-89625000D01*
X145709032Y-89629863D01*
X145703212Y-89680040D01*
X145695641Y-89697185D01*
X145690970Y-89720671D01*
X145674169Y-89745815D01*
X145665391Y-89765696D01*
X145651812Y-89779274D01*
X145636777Y-89801777D01*
X145614274Y-89816812D01*
X145600696Y-89830391D01*
X145580815Y-89839169D01*
X145555671Y-89855970D01*
X145532185Y-89860641D01*
X145515040Y-89868212D01*
X145464861Y-89874032D01*
X145460000Y-89875000D01*
X144260000Y-89875000D01*
X144255138Y-89874032D01*
X144204959Y-89868212D01*
X144187812Y-89860641D01*
X144164329Y-89855970D01*
X144139186Y-89839170D01*
X144119303Y-89830391D01*
X144105722Y-89816810D01*
X144083223Y-89801777D01*
X144068189Y-89779277D01*
X144054608Y-89765696D01*
X144045827Y-89745810D01*
X144029030Y-89720671D01*
X144024359Y-89697189D01*
X144016787Y-89680040D01*
X144010964Y-89629849D01*
X144010000Y-89625000D01*
X144010000Y-88175000D01*
X144010964Y-88170150D01*
X144016787Y-88119959D01*
X144024359Y-88102808D01*
X144029030Y-88079329D01*
X144045826Y-88054191D01*
X144054608Y-88034303D01*
X144068191Y-88020719D01*
X144083223Y-87998223D01*
X144105719Y-87983191D01*
X144119303Y-87969608D01*
X144139191Y-87960826D01*
X144164329Y-87944030D01*
X144187808Y-87939359D01*
X144204959Y-87931787D01*
X144255151Y-87925964D01*
X144260000Y-87925000D01*
X145460000Y-87925000D01*
X145464850Y-87925964D01*
G37*
G36*
X147606742Y-87961601D02*
G01*
X147760687Y-88025367D01*
X147899234Y-88117941D01*
X148017059Y-88235766D01*
X148109633Y-88374313D01*
X148173399Y-88528258D01*
X148205907Y-88691685D01*
X148210000Y-88775000D01*
X148210000Y-89025000D01*
X148205907Y-89108315D01*
X148173399Y-89271742D01*
X148109633Y-89425687D01*
X148017059Y-89564234D01*
X147899234Y-89682059D01*
X147760687Y-89774633D01*
X147606742Y-89838399D01*
X147443315Y-89870907D01*
X147276685Y-89870907D01*
X147113258Y-89838399D01*
X146959313Y-89774633D01*
X146820766Y-89682059D01*
X146702941Y-89564234D01*
X146610367Y-89425687D01*
X146546601Y-89271742D01*
X146514093Y-89108315D01*
X146510000Y-89025000D01*
X146510000Y-88775000D01*
X146514093Y-88691685D01*
X146546601Y-88528258D01*
X146610367Y-88374313D01*
X146702941Y-88235766D01*
X146820766Y-88117941D01*
X146959313Y-88025367D01*
X147113258Y-87961601D01*
X147276685Y-87929093D01*
X147443315Y-87929093D01*
X147606742Y-87961601D01*
G37*
G36*
X150106742Y-87961601D02*
G01*
X150260687Y-88025367D01*
X150399234Y-88117941D01*
X150517059Y-88235766D01*
X150609633Y-88374313D01*
X150673399Y-88528258D01*
X150705907Y-88691685D01*
X150710000Y-88775000D01*
X150710000Y-89025000D01*
X150705907Y-89108315D01*
X150673399Y-89271742D01*
X150609633Y-89425687D01*
X150517059Y-89564234D01*
X150399234Y-89682059D01*
X150260687Y-89774633D01*
X150106742Y-89838399D01*
X149943315Y-89870907D01*
X149776685Y-89870907D01*
X149613258Y-89838399D01*
X149459313Y-89774633D01*
X149320766Y-89682059D01*
X149202941Y-89564234D01*
X149110367Y-89425687D01*
X149046601Y-89271742D01*
X149014093Y-89108315D01*
X149010000Y-89025000D01*
X149010000Y-88775000D01*
X149014093Y-88691685D01*
X149046601Y-88528258D01*
X149110367Y-88374313D01*
X149202941Y-88235766D01*
X149320766Y-88117941D01*
X149459313Y-88025367D01*
X149613258Y-87961601D01*
X149776685Y-87929093D01*
X149943315Y-87929093D01*
X150106742Y-87961601D01*
G37*
G36*
X164838742Y-87070601D02*
G01*
X164992687Y-87134367D01*
X165131234Y-87226941D01*
X165249059Y-87344766D01*
X165341633Y-87483313D01*
X165405399Y-87637258D01*
X165437907Y-87800685D01*
X165437907Y-87967315D01*
X165405399Y-88130742D01*
X165341633Y-88284687D01*
X165249059Y-88423234D01*
X165131234Y-88541059D01*
X164992687Y-88633633D01*
X164838742Y-88697399D01*
X164675315Y-88729907D01*
X164508685Y-88729907D01*
X164345258Y-88697399D01*
X164191313Y-88633633D01*
X164052766Y-88541059D01*
X163934941Y-88423234D01*
X163842367Y-88284687D01*
X163778601Y-88130742D01*
X163746093Y-87967315D01*
X163746093Y-87800685D01*
X163778601Y-87637258D01*
X163842367Y-87483313D01*
X163934941Y-87344766D01*
X164052766Y-87226941D01*
X164191313Y-87134367D01*
X164345258Y-87070601D01*
X164508685Y-87038093D01*
X164675315Y-87038093D01*
X164838742Y-87070601D01*
G37*
G36*
X174476228Y-87158448D02*
G01*
X174621117Y-87218463D01*
X174751515Y-87305592D01*
X174862408Y-87416485D01*
X174949537Y-87546883D01*
X175009552Y-87691772D01*
X175040148Y-87845586D01*
X175040148Y-88002414D01*
X175009552Y-88156228D01*
X174949537Y-88301117D01*
X174862408Y-88431515D01*
X174751515Y-88542408D01*
X174621117Y-88629537D01*
X174476228Y-88689552D01*
X174322414Y-88720148D01*
X174165586Y-88720148D01*
X174011772Y-88689552D01*
X173866883Y-88629537D01*
X173736485Y-88542408D01*
X173625592Y-88431515D01*
X173538463Y-88301117D01*
X173478448Y-88156228D01*
X173447852Y-88002414D01*
X173447852Y-87845586D01*
X173478448Y-87691772D01*
X173538463Y-87546883D01*
X173625592Y-87416485D01*
X173736485Y-87305592D01*
X173866883Y-87218463D01*
X174011772Y-87158448D01*
X174165586Y-87127852D01*
X174322414Y-87127852D01*
X174476228Y-87158448D01*
G37*
G36*
X183620228Y-85840827D02*
G01*
X183765117Y-85900842D01*
X183895515Y-85987971D01*
X184006408Y-86098864D01*
X184093537Y-86229262D01*
X184153552Y-86374151D01*
X184184148Y-86527965D01*
X184184148Y-86684793D01*
X184153552Y-86838607D01*
X184093537Y-86983496D01*
X184006408Y-87113894D01*
X183895515Y-87224787D01*
X183765117Y-87311916D01*
X183620228Y-87371931D01*
X183466414Y-87402527D01*
X183309586Y-87402527D01*
X183155772Y-87371931D01*
X183010883Y-87311916D01*
X182880485Y-87224787D01*
X182769592Y-87113894D01*
X182682463Y-86983496D01*
X182622448Y-86838607D01*
X182591852Y-86684793D01*
X182591852Y-86527965D01*
X182622448Y-86374151D01*
X182682463Y-86229262D01*
X182769592Y-86098864D01*
X182880485Y-85987971D01*
X183010883Y-85900842D01*
X183155772Y-85840827D01*
X183309586Y-85810231D01*
X183466414Y-85810231D01*
X183620228Y-85840827D01*
G37*
G36*
X158220228Y-85594448D02*
G01*
X158365117Y-85654463D01*
X158495515Y-85741592D01*
X158606408Y-85852485D01*
X158693537Y-85982883D01*
X158753552Y-86127772D01*
X158784148Y-86281586D01*
X158784148Y-86438414D01*
X158753552Y-86592228D01*
X158693537Y-86737117D01*
X158606408Y-86867515D01*
X158495515Y-86978408D01*
X158365117Y-87065537D01*
X158220228Y-87125552D01*
X158066414Y-87156148D01*
X157909586Y-87156148D01*
X157755772Y-87125552D01*
X157610883Y-87065537D01*
X157480485Y-86978408D01*
X157369592Y-86867515D01*
X157282463Y-86737117D01*
X157222448Y-86592228D01*
X157191852Y-86438414D01*
X157191852Y-86281586D01*
X157222448Y-86127772D01*
X157282463Y-85982883D01*
X157369592Y-85852485D01*
X157480485Y-85741592D01*
X157610883Y-85654463D01*
X157755772Y-85594448D01*
X157909586Y-85563852D01*
X158066414Y-85563852D01*
X158220228Y-85594448D01*
G37*
G36*
X164838742Y-84530601D02*
G01*
X164992687Y-84594367D01*
X165131234Y-84686941D01*
X165249059Y-84804766D01*
X165341633Y-84943313D01*
X165405399Y-85097258D01*
X165437907Y-85260685D01*
X165437907Y-85427315D01*
X165405399Y-85590742D01*
X165341633Y-85744687D01*
X165249059Y-85883234D01*
X165131234Y-86001059D01*
X164992687Y-86093633D01*
X164838742Y-86157399D01*
X164675315Y-86189907D01*
X164508685Y-86189907D01*
X164345258Y-86157399D01*
X164191313Y-86093633D01*
X164052766Y-86001059D01*
X163934941Y-85883234D01*
X163842367Y-85744687D01*
X163778601Y-85590742D01*
X163746093Y-85427315D01*
X163746093Y-85260685D01*
X163778601Y-85097258D01*
X163842367Y-84943313D01*
X163934941Y-84804766D01*
X164052766Y-84686941D01*
X164191313Y-84594367D01*
X164345258Y-84530601D01*
X164508685Y-84498093D01*
X164675315Y-84498093D01*
X164838742Y-84530601D01*
G37*
G36*
X171730134Y-81129156D02*
G01*
X171909220Y-81187345D01*
X172076998Y-81272832D01*
X172229338Y-81383513D01*
X172362487Y-81516662D01*
X172473168Y-81669002D01*
X172558655Y-81836780D01*
X172616844Y-82015866D01*
X172646301Y-82201849D01*
X172646301Y-82390151D01*
X172616844Y-82576134D01*
X172558655Y-82755220D01*
X172473168Y-82922998D01*
X172362487Y-83075338D01*
X172229338Y-83208487D01*
X172076998Y-83319168D01*
X171909220Y-83404655D01*
X171730134Y-83462844D01*
X171544151Y-83492301D01*
X171355849Y-83492301D01*
X171169866Y-83462844D01*
X170990780Y-83404655D01*
X170823002Y-83319168D01*
X170670662Y-83208487D01*
X170537513Y-83075338D01*
X170426832Y-82922998D01*
X170341345Y-82755220D01*
X170283156Y-82576134D01*
X170253699Y-82390151D01*
X170253699Y-82201849D01*
X170283156Y-82015866D01*
X170341345Y-81836780D01*
X170426832Y-81669002D01*
X170537513Y-81516662D01*
X170670662Y-81383513D01*
X170823002Y-81272832D01*
X170990780Y-81187345D01*
X171169866Y-81129156D01*
X171355849Y-81099699D01*
X171544151Y-81099699D01*
X171730134Y-81129156D01*
G37*
G36*
X185700134Y-81129156D02*
G01*
X185879220Y-81187345D01*
X186046998Y-81272832D01*
X186199338Y-81383513D01*
X186332487Y-81516662D01*
X186443168Y-81669002D01*
X186528655Y-81836780D01*
X186586844Y-82015866D01*
X186616301Y-82201849D01*
X186616301Y-82390151D01*
X186586844Y-82576134D01*
X186528655Y-82755220D01*
X186443168Y-82922998D01*
X186332487Y-83075338D01*
X186199338Y-83208487D01*
X186046998Y-83319168D01*
X185879220Y-83404655D01*
X185700134Y-83462844D01*
X185514151Y-83492301D01*
X185325849Y-83492301D01*
X185139866Y-83462844D01*
X184960780Y-83404655D01*
X184793002Y-83319168D01*
X184640662Y-83208487D01*
X184507513Y-83075338D01*
X184396832Y-82922998D01*
X184311345Y-82755220D01*
X184253156Y-82576134D01*
X184223699Y-82390151D01*
X184223699Y-82201849D01*
X184253156Y-82015866D01*
X184311345Y-81836780D01*
X184396832Y-81669002D01*
X184507513Y-81516662D01*
X184640662Y-81383513D01*
X184793002Y-81272832D01*
X184960780Y-81187345D01*
X185139866Y-81129156D01*
X185325849Y-81099699D01*
X185514151Y-81099699D01*
X185700134Y-81129156D01*
G37*
G36*
X164364134Y-78843156D02*
G01*
X164543220Y-78901345D01*
X164710998Y-78986832D01*
X164863338Y-79097513D01*
X164996487Y-79230662D01*
X165107168Y-79383002D01*
X165192655Y-79550780D01*
X165250844Y-79729866D01*
X165280301Y-79915849D01*
X165280301Y-80104151D01*
X165250844Y-80290134D01*
X165192655Y-80469220D01*
X165107168Y-80636998D01*
X164996487Y-80789338D01*
X164863338Y-80922487D01*
X164710998Y-81033168D01*
X164543220Y-81118655D01*
X164364134Y-81176844D01*
X164178151Y-81206301D01*
X163989849Y-81206301D01*
X163803866Y-81176844D01*
X163624780Y-81118655D01*
X163457002Y-81033168D01*
X163304662Y-80922487D01*
X163171513Y-80789338D01*
X163060832Y-80636998D01*
X162975345Y-80469220D01*
X162917156Y-80290134D01*
X162887699Y-80104151D01*
X162887699Y-79915849D01*
X162917156Y-79729866D01*
X162975345Y-79550780D01*
X163060832Y-79383002D01*
X163171513Y-79230662D01*
X163304662Y-79097513D01*
X163457002Y-78986832D01*
X163624780Y-78901345D01*
X163803866Y-78843156D01*
X163989849Y-78813699D01*
X164178151Y-78813699D01*
X164364134Y-78843156D01*
G37*
G36*
X157966228Y-78609448D02*
G01*
X158111117Y-78669463D01*
X158241515Y-78756592D01*
X158352408Y-78867485D01*
X158439537Y-78997883D01*
X158499552Y-79142772D01*
X158530148Y-79296586D01*
X158530148Y-79453414D01*
X158499552Y-79607228D01*
X158439537Y-79752117D01*
X158352408Y-79882515D01*
X158241515Y-79993408D01*
X158111117Y-80080537D01*
X157966228Y-80140552D01*
X157812414Y-80171148D01*
X157655586Y-80171148D01*
X157501772Y-80140552D01*
X157356883Y-80080537D01*
X157226485Y-79993408D01*
X157115592Y-79882515D01*
X157028463Y-79752117D01*
X156968448Y-79607228D01*
X156937852Y-79453414D01*
X156937852Y-79296586D01*
X156968448Y-79142772D01*
X157028463Y-78997883D01*
X157115592Y-78867485D01*
X157226485Y-78756592D01*
X157356883Y-78669463D01*
X157501772Y-78609448D01*
X157655586Y-78578852D01*
X157812414Y-78578852D01*
X157966228Y-78609448D01*
G37*
G36*
X119654850Y-73700964D02*
G01*
X119705040Y-73706787D01*
X119722189Y-73714359D01*
X119745671Y-73719030D01*
X119770810Y-73735827D01*
X119790696Y-73744608D01*
X119804277Y-73758189D01*
X119826777Y-73773223D01*
X119841810Y-73795722D01*
X119855391Y-73809303D01*
X119864170Y-73829186D01*
X119880970Y-73854329D01*
X119885641Y-73877812D01*
X119893212Y-73894959D01*
X119899033Y-73945139D01*
X119900000Y-73950000D01*
X119900000Y-77220000D01*
X119899032Y-77224863D01*
X119893212Y-77275040D01*
X119885641Y-77292185D01*
X119880970Y-77315671D01*
X119864169Y-77340815D01*
X119855391Y-77360696D01*
X119841812Y-77374274D01*
X119826777Y-77396777D01*
X119804274Y-77411812D01*
X119790696Y-77425391D01*
X119770815Y-77434169D01*
X119745671Y-77450970D01*
X119722185Y-77455641D01*
X119705040Y-77463212D01*
X119654861Y-77469032D01*
X119650000Y-77470000D01*
X118350000Y-77470000D01*
X118345138Y-77469032D01*
X118294959Y-77463212D01*
X118277812Y-77455641D01*
X118254329Y-77450970D01*
X118229186Y-77434170D01*
X118209303Y-77425391D01*
X118195722Y-77411810D01*
X118173223Y-77396777D01*
X118158189Y-77374277D01*
X118144608Y-77360696D01*
X118135827Y-77340810D01*
X118119030Y-77315671D01*
X118114359Y-77292189D01*
X118106787Y-77275040D01*
X118100964Y-77224849D01*
X118100000Y-77220000D01*
X118100000Y-73950000D01*
X118100964Y-73945150D01*
X118106787Y-73894959D01*
X118114359Y-73877808D01*
X118119030Y-73854329D01*
X118135826Y-73829191D01*
X118144608Y-73809303D01*
X118158191Y-73795719D01*
X118173223Y-73773223D01*
X118195719Y-73758191D01*
X118209303Y-73744608D01*
X118229191Y-73735826D01*
X118254329Y-73719030D01*
X118277808Y-73714359D01*
X118294959Y-73706787D01*
X118345151Y-73700964D01*
X118350000Y-73700000D01*
X119650000Y-73700000D01*
X119654850Y-73700964D01*
G37*
G36*
X122194850Y-73700964D02*
G01*
X122245040Y-73706787D01*
X122262189Y-73714359D01*
X122285671Y-73719030D01*
X122310810Y-73735827D01*
X122330696Y-73744608D01*
X122344277Y-73758189D01*
X122366777Y-73773223D01*
X122381810Y-73795722D01*
X122395391Y-73809303D01*
X122404170Y-73829186D01*
X122420970Y-73854329D01*
X122425641Y-73877812D01*
X122433212Y-73894959D01*
X122439033Y-73945139D01*
X122440000Y-73950000D01*
X122440000Y-77220000D01*
X122439032Y-77224863D01*
X122433212Y-77275040D01*
X122425641Y-77292185D01*
X122420970Y-77315671D01*
X122404169Y-77340815D01*
X122395391Y-77360696D01*
X122381812Y-77374274D01*
X122366777Y-77396777D01*
X122344274Y-77411812D01*
X122330696Y-77425391D01*
X122310815Y-77434169D01*
X122285671Y-77450970D01*
X122262185Y-77455641D01*
X122245040Y-77463212D01*
X122194861Y-77469032D01*
X122190000Y-77470000D01*
X120890000Y-77470000D01*
X120885138Y-77469032D01*
X120834959Y-77463212D01*
X120817812Y-77455641D01*
X120794329Y-77450970D01*
X120769186Y-77434170D01*
X120749303Y-77425391D01*
X120735722Y-77411810D01*
X120713223Y-77396777D01*
X120698189Y-77374277D01*
X120684608Y-77360696D01*
X120675827Y-77340810D01*
X120659030Y-77315671D01*
X120654359Y-77292189D01*
X120646787Y-77275040D01*
X120640964Y-77224849D01*
X120640000Y-77220000D01*
X120640000Y-73950000D01*
X120640964Y-73945150D01*
X120646787Y-73894959D01*
X120654359Y-73877808D01*
X120659030Y-73854329D01*
X120675826Y-73829191D01*
X120684608Y-73809303D01*
X120698191Y-73795719D01*
X120713223Y-73773223D01*
X120735719Y-73758191D01*
X120749303Y-73744608D01*
X120769191Y-73735826D01*
X120794329Y-73719030D01*
X120817808Y-73714359D01*
X120834959Y-73706787D01*
X120885151Y-73700964D01*
X120890000Y-73700000D01*
X122190000Y-73700000D01*
X122194850Y-73700964D01*
G37*
G36*
X124734850Y-73700964D02*
G01*
X124785040Y-73706787D01*
X124802189Y-73714359D01*
X124825671Y-73719030D01*
X124850810Y-73735827D01*
X124870696Y-73744608D01*
X124884277Y-73758189D01*
X124906777Y-73773223D01*
X124921810Y-73795722D01*
X124935391Y-73809303D01*
X124944170Y-73829186D01*
X124960970Y-73854329D01*
X124965641Y-73877812D01*
X124973212Y-73894959D01*
X124979033Y-73945139D01*
X124980000Y-73950000D01*
X124980000Y-77220000D01*
X124979032Y-77224863D01*
X124973212Y-77275040D01*
X124965641Y-77292185D01*
X124960970Y-77315671D01*
X124944169Y-77340815D01*
X124935391Y-77360696D01*
X124921812Y-77374274D01*
X124906777Y-77396777D01*
X124884274Y-77411812D01*
X124870696Y-77425391D01*
X124850815Y-77434169D01*
X124825671Y-77450970D01*
X124802185Y-77455641D01*
X124785040Y-77463212D01*
X124734861Y-77469032D01*
X124730000Y-77470000D01*
X123430000Y-77470000D01*
X123425138Y-77469032D01*
X123374959Y-77463212D01*
X123357812Y-77455641D01*
X123334329Y-77450970D01*
X123309186Y-77434170D01*
X123289303Y-77425391D01*
X123275722Y-77411810D01*
X123253223Y-77396777D01*
X123238189Y-77374277D01*
X123224608Y-77360696D01*
X123215827Y-77340810D01*
X123199030Y-77315671D01*
X123194359Y-77292189D01*
X123186787Y-77275040D01*
X123180964Y-77224849D01*
X123180000Y-77220000D01*
X123180000Y-73950000D01*
X123180964Y-73945150D01*
X123186787Y-73894959D01*
X123194359Y-73877808D01*
X123199030Y-73854329D01*
X123215826Y-73829191D01*
X123224608Y-73809303D01*
X123238191Y-73795719D01*
X123253223Y-73773223D01*
X123275719Y-73758191D01*
X123289303Y-73744608D01*
X123309191Y-73735826D01*
X123334329Y-73719030D01*
X123357808Y-73714359D01*
X123374959Y-73706787D01*
X123425151Y-73700964D01*
X123430000Y-73700000D01*
X124730000Y-73700000D01*
X124734850Y-73700964D01*
G37*
G36*
X127274850Y-73700964D02*
G01*
X127325040Y-73706787D01*
X127342189Y-73714359D01*
X127365671Y-73719030D01*
X127390810Y-73735827D01*
X127410696Y-73744608D01*
X127424277Y-73758189D01*
X127446777Y-73773223D01*
X127461810Y-73795722D01*
X127475391Y-73809303D01*
X127484170Y-73829186D01*
X127500970Y-73854329D01*
X127505641Y-73877812D01*
X127513212Y-73894959D01*
X127519033Y-73945139D01*
X127520000Y-73950000D01*
X127520000Y-77220000D01*
X127519032Y-77224863D01*
X127513212Y-77275040D01*
X127505641Y-77292185D01*
X127500970Y-77315671D01*
X127484169Y-77340815D01*
X127475391Y-77360696D01*
X127461812Y-77374274D01*
X127446777Y-77396777D01*
X127424274Y-77411812D01*
X127410696Y-77425391D01*
X127390815Y-77434169D01*
X127365671Y-77450970D01*
X127342185Y-77455641D01*
X127325040Y-77463212D01*
X127274861Y-77469032D01*
X127270000Y-77470000D01*
X125970000Y-77470000D01*
X125965138Y-77469032D01*
X125914959Y-77463212D01*
X125897812Y-77455641D01*
X125874329Y-77450970D01*
X125849186Y-77434170D01*
X125829303Y-77425391D01*
X125815722Y-77411810D01*
X125793223Y-77396777D01*
X125778189Y-77374277D01*
X125764608Y-77360696D01*
X125755827Y-77340810D01*
X125739030Y-77315671D01*
X125734359Y-77292189D01*
X125726787Y-77275040D01*
X125720964Y-77224849D01*
X125720000Y-77220000D01*
X125720000Y-73950000D01*
X125720964Y-73945150D01*
X125726787Y-73894959D01*
X125734359Y-73877808D01*
X125739030Y-73854329D01*
X125755826Y-73829191D01*
X125764608Y-73809303D01*
X125778191Y-73795719D01*
X125793223Y-73773223D01*
X125815719Y-73758191D01*
X125829303Y-73744608D01*
X125849191Y-73735826D01*
X125874329Y-73719030D01*
X125897808Y-73714359D01*
X125914959Y-73706787D01*
X125965151Y-73700964D01*
X125970000Y-73700000D01*
X127270000Y-73700000D01*
X127274850Y-73700964D01*
G37*
G36*
X129814850Y-73700964D02*
G01*
X129865040Y-73706787D01*
X129882189Y-73714359D01*
X129905671Y-73719030D01*
X129930810Y-73735827D01*
X129950696Y-73744608D01*
X129964277Y-73758189D01*
X129986777Y-73773223D01*
X130001810Y-73795722D01*
X130015391Y-73809303D01*
X130024170Y-73829186D01*
X130040970Y-73854329D01*
X130045641Y-73877812D01*
X130053212Y-73894959D01*
X130059033Y-73945139D01*
X130060000Y-73950000D01*
X130060000Y-77220000D01*
X130059032Y-77224863D01*
X130053212Y-77275040D01*
X130045641Y-77292185D01*
X130040970Y-77315671D01*
X130024169Y-77340815D01*
X130015391Y-77360696D01*
X130001812Y-77374274D01*
X129986777Y-77396777D01*
X129964274Y-77411812D01*
X129950696Y-77425391D01*
X129930815Y-77434169D01*
X129905671Y-77450970D01*
X129882185Y-77455641D01*
X129865040Y-77463212D01*
X129814861Y-77469032D01*
X129810000Y-77470000D01*
X128510000Y-77470000D01*
X128505138Y-77469032D01*
X128454959Y-77463212D01*
X128437812Y-77455641D01*
X128414329Y-77450970D01*
X128389186Y-77434170D01*
X128369303Y-77425391D01*
X128355722Y-77411810D01*
X128333223Y-77396777D01*
X128318189Y-77374277D01*
X128304608Y-77360696D01*
X128295827Y-77340810D01*
X128279030Y-77315671D01*
X128274359Y-77292189D01*
X128266787Y-77275040D01*
X128260964Y-77224849D01*
X128260000Y-77220000D01*
X128260000Y-73950000D01*
X128260964Y-73945150D01*
X128266787Y-73894959D01*
X128274359Y-73877808D01*
X128279030Y-73854329D01*
X128295826Y-73829191D01*
X128304608Y-73809303D01*
X128318191Y-73795719D01*
X128333223Y-73773223D01*
X128355719Y-73758191D01*
X128369303Y-73744608D01*
X128389191Y-73735826D01*
X128414329Y-73719030D01*
X128437808Y-73714359D01*
X128454959Y-73706787D01*
X128505151Y-73700964D01*
X128510000Y-73700000D01*
X129810000Y-73700000D01*
X129814850Y-73700964D01*
G37*
G36*
X132354850Y-73700964D02*
G01*
X132405040Y-73706787D01*
X132422189Y-73714359D01*
X132445671Y-73719030D01*
X132470810Y-73735827D01*
X132490696Y-73744608D01*
X132504277Y-73758189D01*
X132526777Y-73773223D01*
X132541810Y-73795722D01*
X132555391Y-73809303D01*
X132564170Y-73829186D01*
X132580970Y-73854329D01*
X132585641Y-73877812D01*
X132593212Y-73894959D01*
X132599033Y-73945139D01*
X132600000Y-73950000D01*
X132600000Y-77220000D01*
X132599032Y-77224863D01*
X132593212Y-77275040D01*
X132585641Y-77292185D01*
X132580970Y-77315671D01*
X132564169Y-77340815D01*
X132555391Y-77360696D01*
X132541812Y-77374274D01*
X132526777Y-77396777D01*
X132504274Y-77411812D01*
X132490696Y-77425391D01*
X132470815Y-77434169D01*
X132445671Y-77450970D01*
X132422185Y-77455641D01*
X132405040Y-77463212D01*
X132354861Y-77469032D01*
X132350000Y-77470000D01*
X131050000Y-77470000D01*
X131045138Y-77469032D01*
X130994959Y-77463212D01*
X130977812Y-77455641D01*
X130954329Y-77450970D01*
X130929186Y-77434170D01*
X130909303Y-77425391D01*
X130895722Y-77411810D01*
X130873223Y-77396777D01*
X130858189Y-77374277D01*
X130844608Y-77360696D01*
X130835827Y-77340810D01*
X130819030Y-77315671D01*
X130814359Y-77292189D01*
X130806787Y-77275040D01*
X130800964Y-77224849D01*
X130800000Y-77220000D01*
X130800000Y-73950000D01*
X130800964Y-73945150D01*
X130806787Y-73894959D01*
X130814359Y-73877808D01*
X130819030Y-73854329D01*
X130835826Y-73829191D01*
X130844608Y-73809303D01*
X130858191Y-73795719D01*
X130873223Y-73773223D01*
X130895719Y-73758191D01*
X130909303Y-73744608D01*
X130929191Y-73735826D01*
X130954329Y-73719030D01*
X130977808Y-73714359D01*
X130994959Y-73706787D01*
X131045151Y-73700964D01*
X131050000Y-73700000D01*
X132350000Y-73700000D01*
X132354850Y-73700964D01*
G37*
G36*
X134894850Y-73700964D02*
G01*
X134945040Y-73706787D01*
X134962189Y-73714359D01*
X134985671Y-73719030D01*
X135010810Y-73735827D01*
X135030696Y-73744608D01*
X135044277Y-73758189D01*
X135066777Y-73773223D01*
X135081810Y-73795722D01*
X135095391Y-73809303D01*
X135104170Y-73829186D01*
X135120970Y-73854329D01*
X135125641Y-73877812D01*
X135133212Y-73894959D01*
X135139033Y-73945139D01*
X135140000Y-73950000D01*
X135140000Y-77220000D01*
X135139032Y-77224863D01*
X135133212Y-77275040D01*
X135125641Y-77292185D01*
X135120970Y-77315671D01*
X135104169Y-77340815D01*
X135095391Y-77360696D01*
X135081812Y-77374274D01*
X135066777Y-77396777D01*
X135044274Y-77411812D01*
X135030696Y-77425391D01*
X135010815Y-77434169D01*
X134985671Y-77450970D01*
X134962185Y-77455641D01*
X134945040Y-77463212D01*
X134894861Y-77469032D01*
X134890000Y-77470000D01*
X133590000Y-77470000D01*
X133585138Y-77469032D01*
X133534959Y-77463212D01*
X133517812Y-77455641D01*
X133494329Y-77450970D01*
X133469186Y-77434170D01*
X133449303Y-77425391D01*
X133435722Y-77411810D01*
X133413223Y-77396777D01*
X133398189Y-77374277D01*
X133384608Y-77360696D01*
X133375827Y-77340810D01*
X133359030Y-77315671D01*
X133354359Y-77292189D01*
X133346787Y-77275040D01*
X133340964Y-77224849D01*
X133340000Y-77220000D01*
X133340000Y-73950000D01*
X133340964Y-73945150D01*
X133346787Y-73894959D01*
X133354359Y-73877808D01*
X133359030Y-73854329D01*
X133375826Y-73829191D01*
X133384608Y-73809303D01*
X133398191Y-73795719D01*
X133413223Y-73773223D01*
X133435719Y-73758191D01*
X133449303Y-73744608D01*
X133469191Y-73735826D01*
X133494329Y-73719030D01*
X133517808Y-73714359D01*
X133534959Y-73706787D01*
X133585151Y-73700964D01*
X133590000Y-73700000D01*
X134890000Y-73700000D01*
X134894850Y-73700964D01*
G37*
G36*
X137434850Y-73700964D02*
G01*
X137485040Y-73706787D01*
X137502189Y-73714359D01*
X137525671Y-73719030D01*
X137550810Y-73735827D01*
X137570696Y-73744608D01*
X137584277Y-73758189D01*
X137606777Y-73773223D01*
X137621810Y-73795722D01*
X137635391Y-73809303D01*
X137644170Y-73829186D01*
X137660970Y-73854329D01*
X137665641Y-73877812D01*
X137673212Y-73894959D01*
X137679033Y-73945139D01*
X137680000Y-73950000D01*
X137680000Y-77220000D01*
X137679032Y-77224863D01*
X137673212Y-77275040D01*
X137665641Y-77292185D01*
X137660970Y-77315671D01*
X137644169Y-77340815D01*
X137635391Y-77360696D01*
X137621812Y-77374274D01*
X137606777Y-77396777D01*
X137584274Y-77411812D01*
X137570696Y-77425391D01*
X137550815Y-77434169D01*
X137525671Y-77450970D01*
X137502185Y-77455641D01*
X137485040Y-77463212D01*
X137434861Y-77469032D01*
X137430000Y-77470000D01*
X136130000Y-77470000D01*
X136125138Y-77469032D01*
X136074959Y-77463212D01*
X136057812Y-77455641D01*
X136034329Y-77450970D01*
X136009186Y-77434170D01*
X135989303Y-77425391D01*
X135975722Y-77411810D01*
X135953223Y-77396777D01*
X135938189Y-77374277D01*
X135924608Y-77360696D01*
X135915827Y-77340810D01*
X135899030Y-77315671D01*
X135894359Y-77292189D01*
X135886787Y-77275040D01*
X135880964Y-77224849D01*
X135880000Y-77220000D01*
X135880000Y-73950000D01*
X135880964Y-73945150D01*
X135886787Y-73894959D01*
X135894359Y-73877808D01*
X135899030Y-73854329D01*
X135915826Y-73829191D01*
X135924608Y-73809303D01*
X135938191Y-73795719D01*
X135953223Y-73773223D01*
X135975719Y-73758191D01*
X135989303Y-73744608D01*
X136009191Y-73735826D01*
X136034329Y-73719030D01*
X136057808Y-73714359D01*
X136074959Y-73706787D01*
X136125151Y-73700964D01*
X136130000Y-73700000D01*
X137430000Y-73700000D01*
X137434850Y-73700964D01*
G37*
G36*
X147964850Y-75225964D02*
G01*
X148015040Y-75231787D01*
X148032189Y-75239359D01*
X148055671Y-75244030D01*
X148080810Y-75260827D01*
X148100696Y-75269608D01*
X148114277Y-75283189D01*
X148136777Y-75298223D01*
X148151810Y-75320722D01*
X148165391Y-75334303D01*
X148174170Y-75354186D01*
X148190970Y-75379329D01*
X148195641Y-75402812D01*
X148203212Y-75419959D01*
X148209033Y-75470139D01*
X148210000Y-75475000D01*
X148210000Y-76925000D01*
X148209032Y-76929863D01*
X148203212Y-76980040D01*
X148195641Y-76997185D01*
X148190970Y-77020671D01*
X148174169Y-77045815D01*
X148165391Y-77065696D01*
X148151812Y-77079274D01*
X148136777Y-77101777D01*
X148114274Y-77116812D01*
X148100696Y-77130391D01*
X148080815Y-77139169D01*
X148055671Y-77155970D01*
X148032185Y-77160641D01*
X148015040Y-77168212D01*
X147964861Y-77174032D01*
X147960000Y-77175000D01*
X146760000Y-77175000D01*
X146755138Y-77174032D01*
X146704959Y-77168212D01*
X146687812Y-77160641D01*
X146664329Y-77155970D01*
X146639186Y-77139170D01*
X146619303Y-77130391D01*
X146605722Y-77116810D01*
X146583223Y-77101777D01*
X146568189Y-77079277D01*
X146554608Y-77065696D01*
X146545827Y-77045810D01*
X146529030Y-77020671D01*
X146524359Y-76997189D01*
X146516787Y-76980040D01*
X146510964Y-76929849D01*
X146510000Y-76925000D01*
X146510000Y-75475000D01*
X146510964Y-75470150D01*
X146516787Y-75419959D01*
X146524359Y-75402808D01*
X146529030Y-75379329D01*
X146545826Y-75354191D01*
X146554608Y-75334303D01*
X146568191Y-75320719D01*
X146583223Y-75298223D01*
X146605719Y-75283191D01*
X146619303Y-75269608D01*
X146639191Y-75260826D01*
X146664329Y-75244030D01*
X146687808Y-75239359D01*
X146704959Y-75231787D01*
X146755151Y-75225964D01*
X146760000Y-75225000D01*
X147960000Y-75225000D01*
X147964850Y-75225964D01*
G37*
G36*
X150106742Y-75261601D02*
G01*
X150260687Y-75325367D01*
X150399234Y-75417941D01*
X150517059Y-75535766D01*
X150609633Y-75674313D01*
X150673399Y-75828258D01*
X150705907Y-75991685D01*
X150710000Y-76075000D01*
X150710000Y-76325000D01*
X150705907Y-76408315D01*
X150673399Y-76571742D01*
X150609633Y-76725687D01*
X150517059Y-76864234D01*
X150399234Y-76982059D01*
X150260687Y-77074633D01*
X150106742Y-77138399D01*
X149943315Y-77170907D01*
X149776685Y-77170907D01*
X149613258Y-77138399D01*
X149459313Y-77074633D01*
X149320766Y-76982059D01*
X149202941Y-76864234D01*
X149110367Y-76725687D01*
X149046601Y-76571742D01*
X149014093Y-76408315D01*
X149010000Y-76325000D01*
X149010000Y-76075000D01*
X149014093Y-75991685D01*
X149046601Y-75828258D01*
X149110367Y-75674313D01*
X149202941Y-75535766D01*
X149320766Y-75417941D01*
X149459313Y-75325367D01*
X149613258Y-75261601D01*
X149776685Y-75229093D01*
X149943315Y-75229093D01*
X150106742Y-75261601D01*
G37*
G36*
X157966228Y-70989448D02*
G01*
X158111117Y-71049463D01*
X158241515Y-71136592D01*
X158352408Y-71247485D01*
X158439537Y-71377883D01*
X158499552Y-71522772D01*
X158530148Y-71676586D01*
X158530148Y-71833414D01*
X158499552Y-71987228D01*
X158439537Y-72132117D01*
X158352408Y-72262515D01*
X158241515Y-72373408D01*
X158111117Y-72460537D01*
X157966228Y-72520552D01*
X157812414Y-72551148D01*
X157655586Y-72551148D01*
X157501772Y-72520552D01*
X157356883Y-72460537D01*
X157226485Y-72373408D01*
X157115592Y-72262515D01*
X157028463Y-72132117D01*
X156968448Y-71987228D01*
X156937852Y-71833414D01*
X156937852Y-71676586D01*
X156968448Y-71522772D01*
X157028463Y-71377883D01*
X157115592Y-71247485D01*
X157226485Y-71136592D01*
X157356883Y-71049463D01*
X157501772Y-70989448D01*
X157655586Y-70958852D01*
X157812414Y-70958852D01*
X157966228Y-70989448D01*
G37*
G36*
X117707228Y-70354448D02*
G01*
X117852117Y-70414463D01*
X117982515Y-70501592D01*
X118093408Y-70612485D01*
X118180537Y-70742883D01*
X118240552Y-70887772D01*
X118271148Y-71041586D01*
X118271148Y-71198414D01*
X118240552Y-71352228D01*
X118180537Y-71497117D01*
X118093408Y-71627515D01*
X117982515Y-71738408D01*
X117852117Y-71825537D01*
X117707228Y-71885552D01*
X117553414Y-71916148D01*
X117396586Y-71916148D01*
X117242772Y-71885552D01*
X117097883Y-71825537D01*
X116967485Y-71738408D01*
X116856592Y-71627515D01*
X116769463Y-71497117D01*
X116709448Y-71352228D01*
X116678852Y-71198414D01*
X116678852Y-71041586D01*
X116709448Y-70887772D01*
X116769463Y-70742883D01*
X116856592Y-70612485D01*
X116967485Y-70501592D01*
X117097883Y-70414463D01*
X117242772Y-70354448D01*
X117396586Y-70323852D01*
X117553414Y-70323852D01*
X117707228Y-70354448D01*
G37*
G36*
X140567228Y-70354448D02*
G01*
X140712117Y-70414463D01*
X140842515Y-70501592D01*
X140953408Y-70612485D01*
X141040537Y-70742883D01*
X141100552Y-70887772D01*
X141131148Y-71041586D01*
X141131148Y-71198414D01*
X141100552Y-71352228D01*
X141040537Y-71497117D01*
X140953408Y-71627515D01*
X140842515Y-71738408D01*
X140712117Y-71825537D01*
X140567228Y-71885552D01*
X140413414Y-71916148D01*
X140256586Y-71916148D01*
X140102772Y-71885552D01*
X139957883Y-71825537D01*
X139827485Y-71738408D01*
X139716592Y-71627515D01*
X139629463Y-71497117D01*
X139569448Y-71352228D01*
X139538852Y-71198414D01*
X139538852Y-71041586D01*
X139569448Y-70887772D01*
X139629463Y-70742883D01*
X139716592Y-70612485D01*
X139827485Y-70501592D01*
X139957883Y-70414463D01*
X140102772Y-70354448D01*
X140256586Y-70323852D01*
X140413414Y-70323852D01*
X140567228Y-70354448D01*
G37*
G36*
X140567228Y-67814448D02*
G01*
X140712117Y-67874463D01*
X140842515Y-67961592D01*
X140953408Y-68072485D01*
X141040537Y-68202883D01*
X141100552Y-68347772D01*
X141131148Y-68501586D01*
X141131148Y-68658414D01*
X141100552Y-68812228D01*
X141040537Y-68957117D01*
X140953408Y-69087515D01*
X140842515Y-69198408D01*
X140712117Y-69285537D01*
X140567228Y-69345552D01*
X140413414Y-69376148D01*
X140256586Y-69376148D01*
X140102772Y-69345552D01*
X139957883Y-69285537D01*
X139827485Y-69198408D01*
X139716592Y-69087515D01*
X139629463Y-68957117D01*
X139569448Y-68812228D01*
X139538852Y-68658414D01*
X139538852Y-68501586D01*
X139569448Y-68347772D01*
X139629463Y-68202883D01*
X139716592Y-68072485D01*
X139827485Y-67961592D01*
X139957883Y-67874463D01*
X140102772Y-67814448D01*
X140256586Y-67783852D01*
X140413414Y-67783852D01*
X140567228Y-67814448D01*
G37*
G36*
X165038848Y-66110964D02*
G01*
X165089040Y-66116787D01*
X165106189Y-66124359D01*
X165129670Y-66129030D01*
X165154807Y-66145826D01*
X165174695Y-66154608D01*
X165188278Y-66168191D01*
X165210776Y-66183224D01*
X165225808Y-66205721D01*
X165239391Y-66219304D01*
X165248171Y-66239189D01*
X165264970Y-66264330D01*
X165269640Y-66287811D01*
X165277212Y-66304959D01*
X165283036Y-66355163D01*
X165283999Y-66360002D01*
X165283999Y-66363458D01*
X165284000Y-66363467D01*
X165284000Y-67783852D01*
X165284000Y-68259999D01*
X165283034Y-68264851D01*
X165277212Y-68315040D01*
X165269641Y-68332185D01*
X165264970Y-68355670D01*
X165248170Y-68380812D01*
X165239391Y-68400695D01*
X165225810Y-68414275D01*
X165210776Y-68436776D01*
X165188275Y-68451810D01*
X165174695Y-68465391D01*
X165154812Y-68474170D01*
X165129670Y-68490970D01*
X165106187Y-68495640D01*
X165089040Y-68503212D01*
X165038836Y-68509036D01*
X165033998Y-68509999D01*
X165030541Y-68509999D01*
X165030533Y-68510000D01*
X163137467Y-68510000D01*
X163137466Y-68509999D01*
X163134001Y-68510000D01*
X163129149Y-68509035D01*
X163078959Y-68503212D01*
X163061812Y-68495640D01*
X163038330Y-68490970D01*
X163013189Y-68474171D01*
X162993304Y-68465391D01*
X162979721Y-68451808D01*
X162957224Y-68436776D01*
X162942191Y-68414278D01*
X162928608Y-68400695D01*
X162919826Y-68380807D01*
X162903030Y-68355670D01*
X162898360Y-68332191D01*
X162890787Y-68315040D01*
X162884963Y-68264836D01*
X162884001Y-68259998D01*
X162884000Y-68256540D01*
X162884000Y-68256532D01*
X162884000Y-66363467D01*
X162884000Y-66363466D01*
X162884000Y-66360001D01*
X162884964Y-66355151D01*
X162890787Y-66304959D01*
X162898359Y-66287808D01*
X162903030Y-66264330D01*
X162919825Y-66239193D01*
X162928608Y-66219304D01*
X162942193Y-66205718D01*
X162957224Y-66183224D01*
X162979718Y-66168193D01*
X162993304Y-66154608D01*
X163013193Y-66145825D01*
X163038330Y-66129030D01*
X163061807Y-66124360D01*
X163078959Y-66116787D01*
X163129165Y-66110963D01*
X163134002Y-66110001D01*
X163137458Y-66110000D01*
X163137467Y-66110000D01*
X165030533Y-66110000D01*
X165033999Y-66110000D01*
X165038848Y-66110964D01*
G37*
G36*
X147964850Y-62525964D02*
G01*
X148015040Y-62531787D01*
X148032189Y-62539359D01*
X148055671Y-62544030D01*
X148080810Y-62560827D01*
X148100696Y-62569608D01*
X148114277Y-62583189D01*
X148136777Y-62598223D01*
X148151810Y-62620722D01*
X148165391Y-62634303D01*
X148174170Y-62654186D01*
X148190970Y-62679329D01*
X148195641Y-62702812D01*
X148203212Y-62719959D01*
X148209033Y-62770139D01*
X148210000Y-62775000D01*
X148210000Y-64225000D01*
X148209032Y-64229863D01*
X148203212Y-64280040D01*
X148195641Y-64297185D01*
X148190970Y-64320671D01*
X148174169Y-64345815D01*
X148165391Y-64365696D01*
X148151812Y-64379274D01*
X148136777Y-64401777D01*
X148114274Y-64416812D01*
X148100696Y-64430391D01*
X148080815Y-64439169D01*
X148055671Y-64455970D01*
X148032185Y-64460641D01*
X148015040Y-64468212D01*
X147964861Y-64474032D01*
X147960000Y-64475000D01*
X146760000Y-64475000D01*
X146755138Y-64474032D01*
X146704959Y-64468212D01*
X146687812Y-64460641D01*
X146664329Y-64455970D01*
X146639186Y-64439170D01*
X146619303Y-64430391D01*
X146605722Y-64416810D01*
X146583223Y-64401777D01*
X146568189Y-64379277D01*
X146554608Y-64365696D01*
X146545827Y-64345810D01*
X146529030Y-64320671D01*
X146524359Y-64297189D01*
X146516787Y-64280040D01*
X146510964Y-64229849D01*
X146510000Y-64225000D01*
X146510000Y-62775000D01*
X146510964Y-62770150D01*
X146516787Y-62719959D01*
X146524359Y-62702808D01*
X146529030Y-62679329D01*
X146545826Y-62654191D01*
X146554608Y-62634303D01*
X146568191Y-62620719D01*
X146583223Y-62598223D01*
X146605719Y-62583191D01*
X146619303Y-62569608D01*
X146639191Y-62560826D01*
X146664329Y-62544030D01*
X146687808Y-62539359D01*
X146704959Y-62531787D01*
X146755151Y-62525964D01*
X146760000Y-62525000D01*
X147960000Y-62525000D01*
X147964850Y-62525964D01*
G37*
G36*
X150106742Y-62561601D02*
G01*
X150260687Y-62625367D01*
X150399234Y-62717941D01*
X150517059Y-62835766D01*
X150609633Y-62974313D01*
X150673399Y-63128258D01*
X150705907Y-63291685D01*
X150710000Y-63375000D01*
X150710000Y-63625000D01*
X150705907Y-63708315D01*
X150673399Y-63871742D01*
X150609633Y-64025687D01*
X150517059Y-64164234D01*
X150399234Y-64282059D01*
X150260687Y-64374633D01*
X150106742Y-64438399D01*
X149943315Y-64470907D01*
X149776685Y-64470907D01*
X149613258Y-64438399D01*
X149459313Y-64374633D01*
X149320766Y-64282059D01*
X149202941Y-64164234D01*
X149110367Y-64025687D01*
X149046601Y-63871742D01*
X149014093Y-63708315D01*
X149010000Y-63625000D01*
X149010000Y-63375000D01*
X149014093Y-63291685D01*
X149046601Y-63128258D01*
X149110367Y-62974313D01*
X149202941Y-62835766D01*
X149320766Y-62717941D01*
X149459313Y-62625367D01*
X149613258Y-62561601D01*
X149776685Y-62529093D01*
X149943315Y-62529093D01*
X150106742Y-62561601D01*
G37*
G36*
X157204228Y-60702448D02*
G01*
X157349117Y-60762463D01*
X157479515Y-60849592D01*
X157590408Y-60960485D01*
X157677537Y-61090883D01*
X157737552Y-61235772D01*
X157768148Y-61389586D01*
X157768148Y-61546414D01*
X157737552Y-61700228D01*
X157677537Y-61845117D01*
X157590408Y-61975515D01*
X157479515Y-62086408D01*
X157349117Y-62173537D01*
X157204228Y-62233552D01*
X157050414Y-62264148D01*
X156893586Y-62264148D01*
X156739772Y-62233552D01*
X156594883Y-62173537D01*
X156464485Y-62086408D01*
X156353592Y-61975515D01*
X156266463Y-61845117D01*
X156206448Y-61700228D01*
X156175852Y-61546414D01*
X156175852Y-61389586D01*
X156206448Y-61235772D01*
X156266463Y-61090883D01*
X156353592Y-60960485D01*
X156464485Y-60849592D01*
X156594883Y-60762463D01*
X156739772Y-60702448D01*
X156893586Y-60671852D01*
X157050414Y-60671852D01*
X157204228Y-60702448D01*
G37*
G36*
X164638850Y-59652964D02*
G01*
X164689040Y-59658787D01*
X164706189Y-59666359D01*
X164729671Y-59671030D01*
X164754810Y-59687827D01*
X164774696Y-59696608D01*
X164788277Y-59710189D01*
X164810777Y-59725223D01*
X164825810Y-59747722D01*
X164839391Y-59761303D01*
X164848170Y-59781186D01*
X164864970Y-59806329D01*
X164869641Y-59829812D01*
X164877212Y-59846959D01*
X164883033Y-59897139D01*
X164884000Y-59902000D01*
X164884000Y-61002000D01*
X164883032Y-61006863D01*
X164877212Y-61057040D01*
X164869641Y-61074185D01*
X164864970Y-61097671D01*
X164848169Y-61122815D01*
X164839391Y-61142696D01*
X164825812Y-61156274D01*
X164810777Y-61178777D01*
X164788274Y-61193812D01*
X164774696Y-61207391D01*
X164754815Y-61216169D01*
X164729671Y-61232970D01*
X164706185Y-61237641D01*
X164689040Y-61245212D01*
X164638861Y-61251032D01*
X164634000Y-61252000D01*
X163534000Y-61252000D01*
X163529138Y-61251032D01*
X163478959Y-61245212D01*
X163461812Y-61237641D01*
X163438329Y-61232970D01*
X163413186Y-61216170D01*
X163393303Y-61207391D01*
X163379722Y-61193810D01*
X163357223Y-61178777D01*
X163342189Y-61156277D01*
X163328608Y-61142696D01*
X163319827Y-61122810D01*
X163303030Y-61097671D01*
X163298359Y-61074189D01*
X163290787Y-61057040D01*
X163284964Y-61006849D01*
X163284000Y-61002000D01*
X163284000Y-59902000D01*
X163284964Y-59897150D01*
X163290787Y-59846959D01*
X163298359Y-59829808D01*
X163303030Y-59806329D01*
X163319826Y-59781191D01*
X163328608Y-59761303D01*
X163342191Y-59747719D01*
X163357223Y-59725223D01*
X163379719Y-59710191D01*
X163393303Y-59696608D01*
X163413191Y-59687826D01*
X163438329Y-59671030D01*
X163461808Y-59666359D01*
X163478959Y-59658787D01*
X163529151Y-59652964D01*
X163534000Y-59652000D01*
X164634000Y-59652000D01*
X164638850Y-59652964D01*
G37*
G36*
X140567228Y-58924448D02*
G01*
X140712117Y-58984463D01*
X140842515Y-59071592D01*
X140953408Y-59182485D01*
X141040537Y-59312883D01*
X141100552Y-59457772D01*
X141131148Y-59611586D01*
X141131148Y-59768414D01*
X141100552Y-59922228D01*
X141040537Y-60067117D01*
X140953408Y-60197515D01*
X140842515Y-60308408D01*
X140712117Y-60395537D01*
X140567228Y-60455552D01*
X140413414Y-60486148D01*
X140256586Y-60486148D01*
X140102772Y-60455552D01*
X139957883Y-60395537D01*
X139827485Y-60308408D01*
X139716592Y-60197515D01*
X139629463Y-60067117D01*
X139569448Y-59922228D01*
X139538852Y-59768414D01*
X139538852Y-59611586D01*
X139569448Y-59457772D01*
X139629463Y-59312883D01*
X139716592Y-59182485D01*
X139827485Y-59071592D01*
X139957883Y-58984463D01*
X140102772Y-58924448D01*
X140256586Y-58893852D01*
X140413414Y-58893852D01*
X140567228Y-58924448D01*
G37*
G36*
X164316228Y-57186448D02*
G01*
X164461117Y-57246463D01*
X164591515Y-57333592D01*
X164702408Y-57444485D01*
X164789537Y-57574883D01*
X164849552Y-57719772D01*
X164880148Y-57873586D01*
X164880148Y-58030414D01*
X164849552Y-58184228D01*
X164789537Y-58329117D01*
X164702408Y-58459515D01*
X164591515Y-58570408D01*
X164461117Y-58657537D01*
X164316228Y-58717552D01*
X164162414Y-58748148D01*
X164005586Y-58748148D01*
X163851772Y-58717552D01*
X163706883Y-58657537D01*
X163576485Y-58570408D01*
X163465592Y-58459515D01*
X163378463Y-58329117D01*
X163318448Y-58184228D01*
X163287852Y-58030414D01*
X163287852Y-57873586D01*
X163318448Y-57719772D01*
X163378463Y-57574883D01*
X163465592Y-57444485D01*
X163576485Y-57333592D01*
X163706883Y-57246463D01*
X163851772Y-57186448D01*
X164005586Y-57155852D01*
X164162414Y-57155852D01*
X164316228Y-57186448D01*
G37*
G36*
X186374850Y-55696964D02*
G01*
X186425040Y-55702787D01*
X186442189Y-55710359D01*
X186465671Y-55715030D01*
X186490810Y-55731827D01*
X186510696Y-55740608D01*
X186524277Y-55754189D01*
X186546777Y-55769223D01*
X186561810Y-55791722D01*
X186575391Y-55805303D01*
X186584170Y-55825186D01*
X186600970Y-55850329D01*
X186605641Y-55873812D01*
X186613212Y-55890959D01*
X186619033Y-55941139D01*
X186620000Y-55946000D01*
X186620000Y-57846000D01*
X186619032Y-57850863D01*
X186613212Y-57901040D01*
X186605641Y-57918185D01*
X186600970Y-57941671D01*
X186584169Y-57966815D01*
X186575391Y-57986696D01*
X186561812Y-58000274D01*
X186546777Y-58022777D01*
X186524274Y-58037812D01*
X186510696Y-58051391D01*
X186490815Y-58060169D01*
X186465671Y-58076970D01*
X186442185Y-58081641D01*
X186425040Y-58089212D01*
X186374861Y-58095032D01*
X186370000Y-58096000D01*
X184470000Y-58096000D01*
X184465138Y-58095032D01*
X184414959Y-58089212D01*
X184397812Y-58081641D01*
X184374329Y-58076970D01*
X184349186Y-58060170D01*
X184329303Y-58051391D01*
X184315722Y-58037810D01*
X184293223Y-58022777D01*
X184278189Y-58000277D01*
X184264608Y-57986696D01*
X184255827Y-57966810D01*
X184239030Y-57941671D01*
X184234359Y-57918189D01*
X184226787Y-57901040D01*
X184220964Y-57850849D01*
X184220000Y-57846000D01*
X184220000Y-55946000D01*
X184220964Y-55941150D01*
X184226787Y-55890959D01*
X184234359Y-55873808D01*
X184239030Y-55850329D01*
X184255826Y-55825191D01*
X184264608Y-55805303D01*
X184278191Y-55791719D01*
X184293223Y-55769223D01*
X184315719Y-55754191D01*
X184329303Y-55740608D01*
X184349191Y-55731826D01*
X184374329Y-55715030D01*
X184397808Y-55710359D01*
X184414959Y-55702787D01*
X184465151Y-55696964D01*
X184470000Y-55696000D01*
X186370000Y-55696000D01*
X186374850Y-55696964D01*
G37*
G36*
X171730134Y-55729156D02*
G01*
X171909220Y-55787345D01*
X172076998Y-55872832D01*
X172229338Y-55983513D01*
X172362487Y-56116662D01*
X172473168Y-56269002D01*
X172558655Y-56436780D01*
X172616844Y-56615866D01*
X172646301Y-56801849D01*
X172646301Y-56990151D01*
X172616844Y-57176134D01*
X172558655Y-57355220D01*
X172473168Y-57522998D01*
X172362487Y-57675338D01*
X172229338Y-57808487D01*
X172076998Y-57919168D01*
X171909220Y-58004655D01*
X171730134Y-58062844D01*
X171544151Y-58092301D01*
X171355849Y-58092301D01*
X171169866Y-58062844D01*
X170990780Y-58004655D01*
X170823002Y-57919168D01*
X170670662Y-57808487D01*
X170537513Y-57675338D01*
X170426832Y-57522998D01*
X170341345Y-57355220D01*
X170283156Y-57176134D01*
X170253699Y-56990151D01*
X170253699Y-56801849D01*
X170283156Y-56615866D01*
X170341345Y-56436780D01*
X170426832Y-56269002D01*
X170537513Y-56116662D01*
X170670662Y-55983513D01*
X170823002Y-55872832D01*
X170990780Y-55787345D01*
X171169866Y-55729156D01*
X171355849Y-55699699D01*
X171544151Y-55699699D01*
X171730134Y-55729156D01*
G37*
G36*
X118275000Y-57950000D02*
G01*
X116675000Y-57950000D01*
X116675000Y-56350000D01*
X118275000Y-56350000D01*
X118275000Y-57950000D01*
G37*
G36*
X140567228Y-56384448D02*
G01*
X140712117Y-56444463D01*
X140842515Y-56531592D01*
X140953408Y-56642485D01*
X141040537Y-56772883D01*
X141100552Y-56917772D01*
X141131148Y-57071586D01*
X141131148Y-57228414D01*
X141100552Y-57382228D01*
X141040537Y-57527117D01*
X140953408Y-57657515D01*
X140842515Y-57768408D01*
X140712117Y-57855537D01*
X140567228Y-57915552D01*
X140413414Y-57946148D01*
X140256586Y-57946148D01*
X140102772Y-57915552D01*
X139957883Y-57855537D01*
X139827485Y-57768408D01*
X139716592Y-57657515D01*
X139629463Y-57527117D01*
X139569448Y-57382228D01*
X139538852Y-57228414D01*
X139538852Y-57071586D01*
X139569448Y-56917772D01*
X139629463Y-56772883D01*
X139716592Y-56642485D01*
X139827485Y-56531592D01*
X139957883Y-56444463D01*
X140102772Y-56384448D01*
X140256586Y-56353852D01*
X140413414Y-56353852D01*
X140567228Y-56384448D01*
G37*
G36*
X113921790Y-55445393D02*
G01*
X114085952Y-55498733D01*
X114239748Y-55577096D01*
X114379393Y-55678553D01*
X114501447Y-55800607D01*
X114602904Y-55940252D01*
X114681267Y-56094048D01*
X114734607Y-56258210D01*
X114761609Y-56428695D01*
X114761609Y-56601305D01*
X114734607Y-56771790D01*
X114681267Y-56935952D01*
X114602904Y-57089748D01*
X114501447Y-57229393D01*
X114379393Y-57351447D01*
X114239748Y-57452904D01*
X114085952Y-57531267D01*
X113921790Y-57584607D01*
X113751305Y-57611609D01*
X113578695Y-57611609D01*
X113408210Y-57584607D01*
X113244048Y-57531267D01*
X113090252Y-57452904D01*
X112950607Y-57351447D01*
X112828553Y-57229393D01*
X112727096Y-57089748D01*
X112648733Y-56935952D01*
X112595393Y-56771790D01*
X112568391Y-56601305D01*
X112568391Y-56428695D01*
X112595393Y-56258210D01*
X112648733Y-56094048D01*
X112727096Y-55940252D01*
X112828553Y-55800607D01*
X112950607Y-55678553D01*
X113090252Y-55577096D01*
X113244048Y-55498733D01*
X113408210Y-55445393D01*
X113578695Y-55418391D01*
X113751305Y-55418391D01*
X113921790Y-55445393D01*
G37*
G36*
X189486790Y-55445393D02*
G01*
X189650952Y-55498733D01*
X189804748Y-55577096D01*
X189944393Y-55678553D01*
X190066447Y-55800607D01*
X190167904Y-55940252D01*
X190246267Y-56094048D01*
X190299607Y-56258210D01*
X190326609Y-56428695D01*
X190326609Y-56601305D01*
X190299607Y-56771790D01*
X190246267Y-56935952D01*
X190167904Y-57089748D01*
X190066447Y-57229393D01*
X189944393Y-57351447D01*
X189804748Y-57452904D01*
X189650952Y-57531267D01*
X189486790Y-57584607D01*
X189316305Y-57611609D01*
X189143695Y-57611609D01*
X188973210Y-57584607D01*
X188809048Y-57531267D01*
X188655252Y-57452904D01*
X188515607Y-57351447D01*
X188393553Y-57229393D01*
X188292096Y-57089748D01*
X188213733Y-56935952D01*
X188160393Y-56771790D01*
X188133391Y-56601305D01*
X188133391Y-56428695D01*
X188160393Y-56258210D01*
X188213733Y-56094048D01*
X188292096Y-55940252D01*
X188393553Y-55800607D01*
X188515607Y-55678553D01*
X188655252Y-55577096D01*
X188809048Y-55498733D01*
X188973210Y-55445393D01*
X189143695Y-55418391D01*
X189316305Y-55418391D01*
X189486790Y-55445393D01*
G37*
G36*
X157204228Y-55702448D02*
G01*
X157349117Y-55762463D01*
X157479515Y-55849592D01*
X157590408Y-55960485D01*
X157677537Y-56090883D01*
X157737552Y-56235772D01*
X157768148Y-56389586D01*
X157768148Y-56546414D01*
X157737552Y-56700228D01*
X157677537Y-56845117D01*
X157590408Y-56975515D01*
X157479515Y-57086408D01*
X157349117Y-57173537D01*
X157204228Y-57233552D01*
X157050414Y-57264148D01*
X156893586Y-57264148D01*
X156739772Y-57233552D01*
X156594883Y-57173537D01*
X156464485Y-57086408D01*
X156353592Y-56975515D01*
X156266463Y-56845117D01*
X156206448Y-56700228D01*
X156175852Y-56546414D01*
X156175852Y-56389586D01*
X156206448Y-56235772D01*
X156266463Y-56090883D01*
X156353592Y-55960485D01*
X156464485Y-55849592D01*
X156594883Y-55762463D01*
X156739772Y-55702448D01*
X156893586Y-55671852D01*
X157050414Y-55671852D01*
X157204228Y-55702448D01*
G37*
%LPD*%
M02*
