M48
; DRILL file {KiCad 9.0.6} date 2025-11-18T17:24:46-0800
; FORMAT={-:-/ absolute / metric / decimal}
; #@! TF.CreationDate,2025-11-18T17:24:46-08:00
; #@! TF.GenerationSoftware,Kicad,Pcbnew,9.0.6
; #@! TF.FileFunction,Plated,1,4,PTH
FMAT,2
METRIC
; #@! TA.AperFunction,Plated,PTH,ViaDrill
T1C0.300
; #@! TA.AperFunction,Plated,PTH,ComponentDrill
T2C0.800
; #@! TA.AperFunction,Plated,PTH,ComponentDrill
T3C0.950
; #@! TA.AperFunction,Plated,PTH,ComponentDrill
T4C1.000
; #@! TA.AperFunction,Plated,PTH,ComponentDrill
T5C1.200
%
G90
G05
T1
X65.913Y-38.481
X70.358Y-49.022
T2
X40.513Y-27.051
X40.513Y-41.021
X42.418Y-45.466
X42.418Y-60.706
X44.958Y-45.466
X44.958Y-60.706
X47.498Y-45.466
X47.498Y-60.706
X50.038Y-45.466
X50.038Y-60.706
X52.578Y-45.466
X52.578Y-60.706
X55.118Y-45.466
X55.118Y-60.706
X57.658Y-45.466
X57.658Y-60.706
X60.198Y-45.466
X60.198Y-60.706
X63.373Y-27.051
X63.373Y-29.591
X63.373Y-38.481
X63.373Y-41.021
X78.613Y-58.373
X78.613Y-63.373
X83.185Y-35.306
X83.185Y-42.926
X85.471Y-52.197
X85.471Y-57.197
X90.551Y-49.657
X90.551Y-57.277
X106.505Y-25.146
X107.823Y-63.246
X109.005Y-25.146
X110.323Y-63.246
X114.808Y-31.576
X114.808Y-36.576
X114.808Y-55.626
X114.808Y-60.626
T3
X67.898Y-60.786
X69.128Y-27.051
X70.398Y-60.786
X71.628Y-27.051
X72.898Y-60.786
X86.507Y-27.051
X89.007Y-27.051
T4
X67.183Y-54.356
X69.723Y-54.356
X72.263Y-54.356
X85.217Y-62.357
X87.757Y-62.357
X90.297Y-62.357
T5
X88.773Y-33.909
X88.773Y-46.609
X97.028Y-31.496
X97.028Y-56.896
X110.998Y-31.496
X110.998Y-56.896
M30
