M48
; DRILL file {KiCad 9.0.6} date 2025-11-18T16:34:43-0800
; FORMAT={-:-/ absolute / metric / decimal}
; #@! TF.CreationDate,2025-11-18T16:34:43-08:00
; #@! TF.GenerationSoftware,Kicad,Pcbnew,9.0.6
; #@! TF.FileFunction,Plated,1,4,PTH
FMAT,2
METRIC
; #@! TA.AperFunction,Plated,PTH,ViaDrill
T1C0.300
; #@! TA.AperFunction,Plated,PTH,ComponentDrill
T2C0.800
; #@! TA.AperFunction,Plated,PTH,ComponentDrill
T3C0.950
; #@! TA.AperFunction,Plated,PTH,ComponentDrill
T4C1.000
; #@! TA.AperFunction,Plated,PTH,ComponentDrill
T5C1.200
%
G90
G05
T1
X139.7Y-68.58
X144.145Y-80.01
T2
X114.3Y-57.15
X114.3Y-71.12
X116.205Y-75.565
X116.205Y-90.805
X118.745Y-75.565
X118.745Y-90.805
X121.285Y-75.565
X121.285Y-90.805
X123.825Y-75.565
X123.825Y-90.805
X126.365Y-75.565
X126.365Y-90.805
X128.905Y-75.565
X128.905Y-90.805
X131.445Y-75.565
X131.445Y-90.805
X133.985Y-75.565
X133.985Y-90.805
X137.16Y-57.15
X137.16Y-59.69
X137.16Y-68.58
X137.16Y-71.12
X152.4Y-88.472
X152.4Y-93.472
X156.972Y-65.405
X156.972Y-73.025
X159.258Y-82.296
X159.258Y-87.296
X164.338Y-79.756
X164.338Y-87.376
X180.292Y-55.245
X181.61Y-93.345
X182.792Y-55.245
X184.11Y-93.345
X188.595Y-61.675
X188.595Y-66.675
X188.595Y-85.725
X188.595Y-90.725
T3
X141.685Y-90.885
X142.915Y-57.15
X144.185Y-90.885
X145.415Y-57.15
X146.685Y-90.885
X160.294Y-57.15
X162.794Y-57.15
T4
X140.97Y-84.455
X143.51Y-84.455
X146.05Y-84.455
X159.004Y-92.456
X161.544Y-92.456
X164.084Y-92.456
T5
X162.56Y-64.008
X162.56Y-76.708
X170.815Y-61.595
X170.815Y-86.995
X184.785Y-61.595
X184.785Y-86.995
M30
