%TF.GenerationSoftware,KiCad,Pcbnew,9.0.6*%
%TF.CreationDate,2025-11-16T23:41:38-08:00*%
%TF.ProjectId,schematic,73636865-6d61-4746-9963-2e6b69636164,rev?*%
%TF.SameCoordinates,Original*%
%TF.FileFunction,Legend,Top*%
%TF.FilePolarity,Positive*%
%FSLAX46Y46*%
G04 Gerber Fmt 4.6, Leading zero omitted, Abs format (unit mm)*
G04 Created by KiCad (PCBNEW 9.0.6) date 2025-11-16 23:41:38*
%MOMM*%
%LPD*%
G01*
G04 APERTURE LIST*
%ADD10C,0.150000*%
%ADD11C,0.100000*%
%ADD12C,0.250000*%
%ADD13C,0.120000*%
G04 APERTURE END LIST*
D10*
X162207411Y-84798819D02*
X162540744Y-85798819D01*
X162540744Y-85798819D02*
X162874077Y-84798819D01*
X162207411Y-88338819D02*
X162207411Y-87338819D01*
X162207411Y-87338819D02*
X162445506Y-87338819D01*
X162445506Y-87338819D02*
X162588363Y-87386438D01*
X162588363Y-87386438D02*
X162683601Y-87481676D01*
X162683601Y-87481676D02*
X162731220Y-87576914D01*
X162731220Y-87576914D02*
X162778839Y-87767390D01*
X162778839Y-87767390D02*
X162778839Y-87910247D01*
X162778839Y-87910247D02*
X162731220Y-88100723D01*
X162731220Y-88100723D02*
X162683601Y-88195961D01*
X162683601Y-88195961D02*
X162588363Y-88291200D01*
X162588363Y-88291200D02*
X162445506Y-88338819D01*
X162445506Y-88338819D02*
X162207411Y-88338819D01*
X162731220Y-89926438D02*
X162635982Y-89878819D01*
X162635982Y-89878819D02*
X162493125Y-89878819D01*
X162493125Y-89878819D02*
X162350268Y-89926438D01*
X162350268Y-89926438D02*
X162255030Y-90021676D01*
X162255030Y-90021676D02*
X162207411Y-90116914D01*
X162207411Y-90116914D02*
X162159792Y-90307390D01*
X162159792Y-90307390D02*
X162159792Y-90450247D01*
X162159792Y-90450247D02*
X162207411Y-90640723D01*
X162207411Y-90640723D02*
X162255030Y-90735961D01*
X162255030Y-90735961D02*
X162350268Y-90831200D01*
X162350268Y-90831200D02*
X162493125Y-90878819D01*
X162493125Y-90878819D02*
X162588363Y-90878819D01*
X162588363Y-90878819D02*
X162731220Y-90831200D01*
X162731220Y-90831200D02*
X162778839Y-90783580D01*
X162778839Y-90783580D02*
X162778839Y-90450247D01*
X162778839Y-90450247D02*
X162588363Y-90450247D01*
X146085160Y-81102200D02*
X146228017Y-81149819D01*
X146228017Y-81149819D02*
X146466112Y-81149819D01*
X146466112Y-81149819D02*
X146561350Y-81102200D01*
X146561350Y-81102200D02*
X146608969Y-81054580D01*
X146608969Y-81054580D02*
X146656588Y-80959342D01*
X146656588Y-80959342D02*
X146656588Y-80864104D01*
X146656588Y-80864104D02*
X146608969Y-80768866D01*
X146608969Y-80768866D02*
X146561350Y-80721247D01*
X146561350Y-80721247D02*
X146466112Y-80673628D01*
X146466112Y-80673628D02*
X146275636Y-80626009D01*
X146275636Y-80626009D02*
X146180398Y-80578390D01*
X146180398Y-80578390D02*
X146132779Y-80530771D01*
X146132779Y-80530771D02*
X146085160Y-80435533D01*
X146085160Y-80435533D02*
X146085160Y-80340295D01*
X146085160Y-80340295D02*
X146132779Y-80245057D01*
X146132779Y-80245057D02*
X146180398Y-80197438D01*
X146180398Y-80197438D02*
X146275636Y-80149819D01*
X146275636Y-80149819D02*
X146513731Y-80149819D01*
X146513731Y-80149819D02*
X146656588Y-80197438D01*
X146989922Y-80483152D02*
X147180398Y-81149819D01*
X147180398Y-81149819D02*
X147370874Y-80673628D01*
X147370874Y-80673628D02*
X147561350Y-81149819D01*
X147561350Y-81149819D02*
X147751826Y-80483152D01*
X148132779Y-81149819D02*
X148132779Y-80483152D01*
X148132779Y-80149819D02*
X148085160Y-80197438D01*
X148085160Y-80197438D02*
X148132779Y-80245057D01*
X148132779Y-80245057D02*
X148180398Y-80197438D01*
X148180398Y-80197438D02*
X148132779Y-80149819D01*
X148132779Y-80149819D02*
X148132779Y-80245057D01*
X148466112Y-80483152D02*
X148847064Y-80483152D01*
X148608969Y-80149819D02*
X148608969Y-81006961D01*
X148608969Y-81006961D02*
X148656588Y-81102200D01*
X148656588Y-81102200D02*
X148751826Y-81149819D01*
X148751826Y-81149819D02*
X148847064Y-81149819D01*
X149608969Y-81102200D02*
X149513731Y-81149819D01*
X149513731Y-81149819D02*
X149323255Y-81149819D01*
X149323255Y-81149819D02*
X149228017Y-81102200D01*
X149228017Y-81102200D02*
X149180398Y-81054580D01*
X149180398Y-81054580D02*
X149132779Y-80959342D01*
X149132779Y-80959342D02*
X149132779Y-80673628D01*
X149132779Y-80673628D02*
X149180398Y-80578390D01*
X149180398Y-80578390D02*
X149228017Y-80530771D01*
X149228017Y-80530771D02*
X149323255Y-80483152D01*
X149323255Y-80483152D02*
X149513731Y-80483152D01*
X149513731Y-80483152D02*
X149608969Y-80530771D01*
X150037541Y-81149819D02*
X150037541Y-80149819D01*
X150466112Y-81149819D02*
X150466112Y-80626009D01*
X150466112Y-80626009D02*
X150418493Y-80530771D01*
X150418493Y-80530771D02*
X150323255Y-80483152D01*
X150323255Y-80483152D02*
X150180398Y-80483152D01*
X150180398Y-80483152D02*
X150085160Y-80530771D01*
X150085160Y-80530771D02*
X150037541Y-80578390D01*
X147482112Y-67926009D02*
X147624969Y-67973628D01*
X147624969Y-67973628D02*
X147672588Y-68021247D01*
X147672588Y-68021247D02*
X147720207Y-68116485D01*
X147720207Y-68116485D02*
X147720207Y-68259342D01*
X147720207Y-68259342D02*
X147672588Y-68354580D01*
X147672588Y-68354580D02*
X147624969Y-68402200D01*
X147624969Y-68402200D02*
X147529731Y-68449819D01*
X147529731Y-68449819D02*
X147148779Y-68449819D01*
X147148779Y-68449819D02*
X147148779Y-67449819D01*
X147148779Y-67449819D02*
X147482112Y-67449819D01*
X147482112Y-67449819D02*
X147577350Y-67497438D01*
X147577350Y-67497438D02*
X147624969Y-67545057D01*
X147624969Y-67545057D02*
X147672588Y-67640295D01*
X147672588Y-67640295D02*
X147672588Y-67735533D01*
X147672588Y-67735533D02*
X147624969Y-67830771D01*
X147624969Y-67830771D02*
X147577350Y-67878390D01*
X147577350Y-67878390D02*
X147482112Y-67926009D01*
X147482112Y-67926009D02*
X147148779Y-67926009D01*
X148577350Y-68449819D02*
X148577350Y-67926009D01*
X148577350Y-67926009D02*
X148529731Y-67830771D01*
X148529731Y-67830771D02*
X148434493Y-67783152D01*
X148434493Y-67783152D02*
X148244017Y-67783152D01*
X148244017Y-67783152D02*
X148148779Y-67830771D01*
X148577350Y-68402200D02*
X148482112Y-68449819D01*
X148482112Y-68449819D02*
X148244017Y-68449819D01*
X148244017Y-68449819D02*
X148148779Y-68402200D01*
X148148779Y-68402200D02*
X148101160Y-68306961D01*
X148101160Y-68306961D02*
X148101160Y-68211723D01*
X148101160Y-68211723D02*
X148148779Y-68116485D01*
X148148779Y-68116485D02*
X148244017Y-68068866D01*
X148244017Y-68068866D02*
X148482112Y-68068866D01*
X148482112Y-68068866D02*
X148577350Y-68021247D01*
X148910684Y-67783152D02*
X149291636Y-67783152D01*
X149053541Y-67449819D02*
X149053541Y-68306961D01*
X149053541Y-68306961D02*
X149101160Y-68402200D01*
X149101160Y-68402200D02*
X149196398Y-68449819D01*
X149196398Y-68449819D02*
X149291636Y-68449819D01*
X149482113Y-67783152D02*
X149863065Y-67783152D01*
X149624970Y-67449819D02*
X149624970Y-68306961D01*
X149624970Y-68306961D02*
X149672589Y-68402200D01*
X149672589Y-68402200D02*
X149767827Y-68449819D01*
X149767827Y-68449819D02*
X149863065Y-68449819D01*
D11*
X128143095Y-62457419D02*
X128143095Y-63266942D01*
X128143095Y-63266942D02*
X128190714Y-63362180D01*
X128190714Y-63362180D02*
X128238333Y-63409800D01*
X128238333Y-63409800D02*
X128333571Y-63457419D01*
X128333571Y-63457419D02*
X128524047Y-63457419D01*
X128524047Y-63457419D02*
X128619285Y-63409800D01*
X128619285Y-63409800D02*
X128666904Y-63362180D01*
X128666904Y-63362180D02*
X128714523Y-63266942D01*
X128714523Y-63266942D02*
X128714523Y-62457419D01*
X129095476Y-62457419D02*
X129714523Y-62457419D01*
X129714523Y-62457419D02*
X129381190Y-62838371D01*
X129381190Y-62838371D02*
X129524047Y-62838371D01*
X129524047Y-62838371D02*
X129619285Y-62885990D01*
X129619285Y-62885990D02*
X129666904Y-62933609D01*
X129666904Y-62933609D02*
X129714523Y-63028847D01*
X129714523Y-63028847D02*
X129714523Y-63266942D01*
X129714523Y-63266942D02*
X129666904Y-63362180D01*
X129666904Y-63362180D02*
X129619285Y-63409800D01*
X129619285Y-63409800D02*
X129524047Y-63457419D01*
X129524047Y-63457419D02*
X129238333Y-63457419D01*
X129238333Y-63457419D02*
X129143095Y-63409800D01*
X129143095Y-63409800D02*
X129095476Y-63362180D01*
D10*
X126000238Y-64954819D02*
X126000238Y-63954819D01*
X126000238Y-64431009D02*
X126571666Y-64431009D01*
X126571666Y-64954819D02*
X126571666Y-63954819D01*
X126952619Y-63954819D02*
X127190714Y-64954819D01*
X127190714Y-64954819D02*
X127381190Y-64240533D01*
X127381190Y-64240533D02*
X127571666Y-64954819D01*
X127571666Y-64954819D02*
X127809762Y-63954819D01*
X128190714Y-64573866D02*
X128952619Y-64573866D01*
X129333571Y-63954819D02*
X129952618Y-63954819D01*
X129952618Y-63954819D02*
X129619285Y-64335771D01*
X129619285Y-64335771D02*
X129762142Y-64335771D01*
X129762142Y-64335771D02*
X129857380Y-64383390D01*
X129857380Y-64383390D02*
X129904999Y-64431009D01*
X129904999Y-64431009D02*
X129952618Y-64526247D01*
X129952618Y-64526247D02*
X129952618Y-64764342D01*
X129952618Y-64764342D02*
X129904999Y-64859580D01*
X129904999Y-64859580D02*
X129857380Y-64907200D01*
X129857380Y-64907200D02*
X129762142Y-64954819D01*
X129762142Y-64954819D02*
X129476428Y-64954819D01*
X129476428Y-64954819D02*
X129381190Y-64907200D01*
X129381190Y-64907200D02*
X129333571Y-64859580D01*
X130285952Y-63954819D02*
X130952618Y-63954819D01*
X130952618Y-63954819D02*
X130524047Y-64954819D01*
X131238333Y-63954819D02*
X131857380Y-63954819D01*
X131857380Y-63954819D02*
X131524047Y-64335771D01*
X131524047Y-64335771D02*
X131666904Y-64335771D01*
X131666904Y-64335771D02*
X131762142Y-64383390D01*
X131762142Y-64383390D02*
X131809761Y-64431009D01*
X131809761Y-64431009D02*
X131857380Y-64526247D01*
X131857380Y-64526247D02*
X131857380Y-64764342D01*
X131857380Y-64764342D02*
X131809761Y-64859580D01*
X131809761Y-64859580D02*
X131762142Y-64907200D01*
X131762142Y-64907200D02*
X131666904Y-64954819D01*
X131666904Y-64954819D02*
X131381190Y-64954819D01*
X131381190Y-64954819D02*
X131285952Y-64907200D01*
X131285952Y-64907200D02*
X131238333Y-64859580D01*
D11*
X137332544Y-59673609D02*
X137475401Y-59721228D01*
X137475401Y-59721228D02*
X137523020Y-59768847D01*
X137523020Y-59768847D02*
X137570639Y-59864085D01*
X137570639Y-59864085D02*
X137570639Y-60006942D01*
X137570639Y-60006942D02*
X137523020Y-60102180D01*
X137523020Y-60102180D02*
X137475401Y-60149800D01*
X137475401Y-60149800D02*
X137380163Y-60197419D01*
X137380163Y-60197419D02*
X136999211Y-60197419D01*
X136999211Y-60197419D02*
X136999211Y-59197419D01*
X136999211Y-59197419D02*
X137332544Y-59197419D01*
X137332544Y-59197419D02*
X137427782Y-59245038D01*
X137427782Y-59245038D02*
X137475401Y-59292657D01*
X137475401Y-59292657D02*
X137523020Y-59387895D01*
X137523020Y-59387895D02*
X137523020Y-59483133D01*
X137523020Y-59483133D02*
X137475401Y-59578371D01*
X137475401Y-59578371D02*
X137427782Y-59625990D01*
X137427782Y-59625990D02*
X137332544Y-59673609D01*
X137332544Y-59673609D02*
X136999211Y-59673609D01*
X137999211Y-59816466D02*
X138761116Y-59816466D01*
X138380163Y-60197419D02*
X138380163Y-59435514D01*
X135332544Y-70627419D02*
X135523020Y-70627419D01*
X135523020Y-70627419D02*
X135618258Y-70675038D01*
X135618258Y-70675038D02*
X135713496Y-70770276D01*
X135713496Y-70770276D02*
X135761115Y-70960752D01*
X135761115Y-70960752D02*
X135761115Y-71294085D01*
X135761115Y-71294085D02*
X135713496Y-71484561D01*
X135713496Y-71484561D02*
X135618258Y-71579800D01*
X135618258Y-71579800D02*
X135523020Y-71627419D01*
X135523020Y-71627419D02*
X135332544Y-71627419D01*
X135332544Y-71627419D02*
X135237306Y-71579800D01*
X135237306Y-71579800D02*
X135142068Y-71484561D01*
X135142068Y-71484561D02*
X135094449Y-71294085D01*
X135094449Y-71294085D02*
X135094449Y-70960752D01*
X135094449Y-70960752D02*
X135142068Y-70770276D01*
X135142068Y-70770276D02*
X135237306Y-70675038D01*
X135237306Y-70675038D02*
X135332544Y-70627419D01*
X136189687Y-70627419D02*
X136189687Y-71436942D01*
X136189687Y-71436942D02*
X136237306Y-71532180D01*
X136237306Y-71532180D02*
X136284925Y-71579800D01*
X136284925Y-71579800D02*
X136380163Y-71627419D01*
X136380163Y-71627419D02*
X136570639Y-71627419D01*
X136570639Y-71627419D02*
X136665877Y-71579800D01*
X136665877Y-71579800D02*
X136713496Y-71532180D01*
X136713496Y-71532180D02*
X136761115Y-71436942D01*
X136761115Y-71436942D02*
X136761115Y-70627419D01*
X137094449Y-70627419D02*
X137665877Y-70627419D01*
X137380163Y-71627419D02*
X137380163Y-70627419D01*
X137999211Y-71246466D02*
X138761116Y-71246466D01*
X118906027Y-70627419D02*
X119239360Y-71627419D01*
X119239360Y-71627419D02*
X119572693Y-70627419D01*
X119906027Y-71627419D02*
X119906027Y-70627419D01*
X120382217Y-71627419D02*
X120382217Y-70627419D01*
X120382217Y-70627419D02*
X120953645Y-71627419D01*
X120953645Y-71627419D02*
X120953645Y-70627419D01*
X121429836Y-71246466D02*
X122191741Y-71246466D01*
X137332544Y-68563609D02*
X137475401Y-68611228D01*
X137475401Y-68611228D02*
X137523020Y-68658847D01*
X137523020Y-68658847D02*
X137570639Y-68754085D01*
X137570639Y-68754085D02*
X137570639Y-68896942D01*
X137570639Y-68896942D02*
X137523020Y-68992180D01*
X137523020Y-68992180D02*
X137475401Y-69039800D01*
X137475401Y-69039800D02*
X137380163Y-69087419D01*
X137380163Y-69087419D02*
X136999211Y-69087419D01*
X136999211Y-69087419D02*
X136999211Y-68087419D01*
X136999211Y-68087419D02*
X137332544Y-68087419D01*
X137332544Y-68087419D02*
X137427782Y-68135038D01*
X137427782Y-68135038D02*
X137475401Y-68182657D01*
X137475401Y-68182657D02*
X137523020Y-68277895D01*
X137523020Y-68277895D02*
X137523020Y-68373133D01*
X137523020Y-68373133D02*
X137475401Y-68468371D01*
X137475401Y-68468371D02*
X137427782Y-68515990D01*
X137427782Y-68515990D02*
X137332544Y-68563609D01*
X137332544Y-68563609D02*
X136999211Y-68563609D01*
X137999211Y-68706466D02*
X138761116Y-68706466D01*
X118906027Y-56657419D02*
X119239360Y-57657419D01*
X119239360Y-57657419D02*
X119572693Y-56657419D01*
X119906027Y-57657419D02*
X119906027Y-56657419D01*
X120382217Y-57657419D02*
X120382217Y-56657419D01*
X120382217Y-56657419D02*
X120953645Y-57657419D01*
X120953645Y-57657419D02*
X120953645Y-56657419D01*
X121429836Y-57276466D02*
X122191741Y-57276466D01*
X121810788Y-57657419D02*
X121810788Y-56895514D01*
X135332544Y-56657419D02*
X135523020Y-56657419D01*
X135523020Y-56657419D02*
X135618258Y-56705038D01*
X135618258Y-56705038D02*
X135713496Y-56800276D01*
X135713496Y-56800276D02*
X135761115Y-56990752D01*
X135761115Y-56990752D02*
X135761115Y-57324085D01*
X135761115Y-57324085D02*
X135713496Y-57514561D01*
X135713496Y-57514561D02*
X135618258Y-57609800D01*
X135618258Y-57609800D02*
X135523020Y-57657419D01*
X135523020Y-57657419D02*
X135332544Y-57657419D01*
X135332544Y-57657419D02*
X135237306Y-57609800D01*
X135237306Y-57609800D02*
X135142068Y-57514561D01*
X135142068Y-57514561D02*
X135094449Y-57324085D01*
X135094449Y-57324085D02*
X135094449Y-56990752D01*
X135094449Y-56990752D02*
X135142068Y-56800276D01*
X135142068Y-56800276D02*
X135237306Y-56705038D01*
X135237306Y-56705038D02*
X135332544Y-56657419D01*
X136189687Y-56657419D02*
X136189687Y-57466942D01*
X136189687Y-57466942D02*
X136237306Y-57562180D01*
X136237306Y-57562180D02*
X136284925Y-57609800D01*
X136284925Y-57609800D02*
X136380163Y-57657419D01*
X136380163Y-57657419D02*
X136570639Y-57657419D01*
X136570639Y-57657419D02*
X136665877Y-57609800D01*
X136665877Y-57609800D02*
X136713496Y-57562180D01*
X136713496Y-57562180D02*
X136761115Y-57466942D01*
X136761115Y-57466942D02*
X136761115Y-56657419D01*
X137094449Y-56657419D02*
X137665877Y-56657419D01*
X137380163Y-57657419D02*
X137380163Y-56657419D01*
X137999211Y-57276466D02*
X138761116Y-57276466D01*
X138380163Y-57657419D02*
X138380163Y-56895514D01*
D10*
X146598095Y-83954819D02*
X146598095Y-84764342D01*
X146598095Y-84764342D02*
X146645714Y-84859580D01*
X146645714Y-84859580D02*
X146693333Y-84907200D01*
X146693333Y-84907200D02*
X146788571Y-84954819D01*
X146788571Y-84954819D02*
X146979047Y-84954819D01*
X146979047Y-84954819D02*
X147074285Y-84907200D01*
X147074285Y-84907200D02*
X147121904Y-84859580D01*
X147121904Y-84859580D02*
X147169523Y-84764342D01*
X147169523Y-84764342D02*
X147169523Y-83954819D01*
X147598095Y-84050057D02*
X147645714Y-84002438D01*
X147645714Y-84002438D02*
X147740952Y-83954819D01*
X147740952Y-83954819D02*
X147979047Y-83954819D01*
X147979047Y-83954819D02*
X148074285Y-84002438D01*
X148074285Y-84002438D02*
X148121904Y-84050057D01*
X148121904Y-84050057D02*
X148169523Y-84145295D01*
X148169523Y-84145295D02*
X148169523Y-84240533D01*
X148169523Y-84240533D02*
X148121904Y-84383390D01*
X148121904Y-84383390D02*
X147550476Y-84954819D01*
X147550476Y-84954819D02*
X148169523Y-84954819D01*
X144217143Y-93754819D02*
X144217143Y-92754819D01*
X144217143Y-92754819D02*
X144550476Y-93469104D01*
X144550476Y-93469104D02*
X144883809Y-92754819D01*
X144883809Y-92754819D02*
X144883809Y-93754819D01*
X145312381Y-93469104D02*
X145788571Y-93469104D01*
X145217143Y-93754819D02*
X145550476Y-92754819D01*
X145550476Y-92754819D02*
X145883809Y-93754819D01*
X146121905Y-92754819D02*
X146788571Y-93754819D01*
X146788571Y-92754819D02*
X146121905Y-93754819D01*
X147598095Y-93088152D02*
X147598095Y-93754819D01*
X147360000Y-92707200D02*
X147121905Y-93421485D01*
X147121905Y-93421485D02*
X147740952Y-93421485D01*
X148550476Y-93088152D02*
X148550476Y-93754819D01*
X148312381Y-92707200D02*
X148074286Y-93421485D01*
X148074286Y-93421485D02*
X148693333Y-93421485D01*
X149502857Y-92754819D02*
X149312381Y-92754819D01*
X149312381Y-92754819D02*
X149217143Y-92802438D01*
X149217143Y-92802438D02*
X149169524Y-92850057D01*
X149169524Y-92850057D02*
X149074286Y-92992914D01*
X149074286Y-92992914D02*
X149026667Y-93183390D01*
X149026667Y-93183390D02*
X149026667Y-93564342D01*
X149026667Y-93564342D02*
X149074286Y-93659580D01*
X149074286Y-93659580D02*
X149121905Y-93707200D01*
X149121905Y-93707200D02*
X149217143Y-93754819D01*
X149217143Y-93754819D02*
X149407619Y-93754819D01*
X149407619Y-93754819D02*
X149502857Y-93707200D01*
X149502857Y-93707200D02*
X149550476Y-93659580D01*
X149550476Y-93659580D02*
X149598095Y-93564342D01*
X149598095Y-93564342D02*
X149598095Y-93326247D01*
X149598095Y-93326247D02*
X149550476Y-93231009D01*
X149550476Y-93231009D02*
X149502857Y-93183390D01*
X149502857Y-93183390D02*
X149407619Y-93135771D01*
X149407619Y-93135771D02*
X149217143Y-93135771D01*
X149217143Y-93135771D02*
X149121905Y-93183390D01*
X149121905Y-93183390D02*
X149074286Y-93231009D01*
X149074286Y-93231009D02*
X149026667Y-93326247D01*
X150455238Y-92754819D02*
X150264762Y-92754819D01*
X150264762Y-92754819D02*
X150169524Y-92802438D01*
X150169524Y-92802438D02*
X150121905Y-92850057D01*
X150121905Y-92850057D02*
X150026667Y-92992914D01*
X150026667Y-92992914D02*
X149979048Y-93183390D01*
X149979048Y-93183390D02*
X149979048Y-93564342D01*
X149979048Y-93564342D02*
X150026667Y-93659580D01*
X150026667Y-93659580D02*
X150074286Y-93707200D01*
X150074286Y-93707200D02*
X150169524Y-93754819D01*
X150169524Y-93754819D02*
X150360000Y-93754819D01*
X150360000Y-93754819D02*
X150455238Y-93707200D01*
X150455238Y-93707200D02*
X150502857Y-93659580D01*
X150502857Y-93659580D02*
X150550476Y-93564342D01*
X150550476Y-93564342D02*
X150550476Y-93326247D01*
X150550476Y-93326247D02*
X150502857Y-93231009D01*
X150502857Y-93231009D02*
X150455238Y-93183390D01*
X150455238Y-93183390D02*
X150360000Y-93135771D01*
X150360000Y-93135771D02*
X150169524Y-93135771D01*
X150169524Y-93135771D02*
X150074286Y-93183390D01*
X150074286Y-93183390D02*
X150026667Y-93231009D01*
X150026667Y-93231009D02*
X149979048Y-93326247D01*
X163830095Y-92418819D02*
X163830095Y-93228342D01*
X163830095Y-93228342D02*
X163877714Y-93323580D01*
X163877714Y-93323580D02*
X163925333Y-93371200D01*
X163925333Y-93371200D02*
X164020571Y-93418819D01*
X164020571Y-93418819D02*
X164211047Y-93418819D01*
X164211047Y-93418819D02*
X164306285Y-93371200D01*
X164306285Y-93371200D02*
X164353904Y-93323580D01*
X164353904Y-93323580D02*
X164401523Y-93228342D01*
X164401523Y-93228342D02*
X164401523Y-92418819D01*
X165353904Y-92418819D02*
X164877714Y-92418819D01*
X164877714Y-92418819D02*
X164830095Y-92895009D01*
X164830095Y-92895009D02*
X164877714Y-92847390D01*
X164877714Y-92847390D02*
X164972952Y-92799771D01*
X164972952Y-92799771D02*
X165211047Y-92799771D01*
X165211047Y-92799771D02*
X165306285Y-92847390D01*
X165306285Y-92847390D02*
X165353904Y-92895009D01*
X165353904Y-92895009D02*
X165401523Y-92990247D01*
X165401523Y-92990247D02*
X165401523Y-93228342D01*
X165401523Y-93228342D02*
X165353904Y-93323580D01*
X165353904Y-93323580D02*
X165306285Y-93371200D01*
X165306285Y-93371200D02*
X165211047Y-93418819D01*
X165211047Y-93418819D02*
X164972952Y-93418819D01*
X164972952Y-93418819D02*
X164877714Y-93371200D01*
X164877714Y-93371200D02*
X164830095Y-93323580D01*
X166586819Y-91193523D02*
X167586819Y-90955428D01*
X167586819Y-90955428D02*
X166872533Y-90764952D01*
X166872533Y-90764952D02*
X167586819Y-90574476D01*
X167586819Y-90574476D02*
X166586819Y-90336381D01*
X167539200Y-90003047D02*
X167586819Y-89860190D01*
X167586819Y-89860190D02*
X167586819Y-89622095D01*
X167586819Y-89622095D02*
X167539200Y-89526857D01*
X167539200Y-89526857D02*
X167491580Y-89479238D01*
X167491580Y-89479238D02*
X167396342Y-89431619D01*
X167396342Y-89431619D02*
X167301104Y-89431619D01*
X167301104Y-89431619D02*
X167205866Y-89479238D01*
X167205866Y-89479238D02*
X167158247Y-89526857D01*
X167158247Y-89526857D02*
X167110628Y-89622095D01*
X167110628Y-89622095D02*
X167063009Y-89812571D01*
X167063009Y-89812571D02*
X167015390Y-89907809D01*
X167015390Y-89907809D02*
X166967771Y-89955428D01*
X166967771Y-89955428D02*
X166872533Y-90003047D01*
X166872533Y-90003047D02*
X166777295Y-90003047D01*
X166777295Y-90003047D02*
X166682057Y-89955428D01*
X166682057Y-89955428D02*
X166634438Y-89907809D01*
X166634438Y-89907809D02*
X166586819Y-89812571D01*
X166586819Y-89812571D02*
X166586819Y-89574476D01*
X166586819Y-89574476D02*
X166634438Y-89431619D01*
X166682057Y-89050666D02*
X166634438Y-89003047D01*
X166634438Y-89003047D02*
X166586819Y-88907809D01*
X166586819Y-88907809D02*
X166586819Y-88669714D01*
X166586819Y-88669714D02*
X166634438Y-88574476D01*
X166634438Y-88574476D02*
X166682057Y-88526857D01*
X166682057Y-88526857D02*
X166777295Y-88479238D01*
X166777295Y-88479238D02*
X166872533Y-88479238D01*
X166872533Y-88479238D02*
X167015390Y-88526857D01*
X167015390Y-88526857D02*
X167586819Y-89098285D01*
X167586819Y-89098285D02*
X167586819Y-88479238D01*
X167015390Y-87907809D02*
X166967771Y-88003047D01*
X166967771Y-88003047D02*
X166920152Y-88050666D01*
X166920152Y-88050666D02*
X166824914Y-88098285D01*
X166824914Y-88098285D02*
X166777295Y-88098285D01*
X166777295Y-88098285D02*
X166682057Y-88050666D01*
X166682057Y-88050666D02*
X166634438Y-88003047D01*
X166634438Y-88003047D02*
X166586819Y-87907809D01*
X166586819Y-87907809D02*
X166586819Y-87717333D01*
X166586819Y-87717333D02*
X166634438Y-87622095D01*
X166634438Y-87622095D02*
X166682057Y-87574476D01*
X166682057Y-87574476D02*
X166777295Y-87526857D01*
X166777295Y-87526857D02*
X166824914Y-87526857D01*
X166824914Y-87526857D02*
X166920152Y-87574476D01*
X166920152Y-87574476D02*
X166967771Y-87622095D01*
X166967771Y-87622095D02*
X167015390Y-87717333D01*
X167015390Y-87717333D02*
X167015390Y-87907809D01*
X167015390Y-87907809D02*
X167063009Y-88003047D01*
X167063009Y-88003047D02*
X167110628Y-88050666D01*
X167110628Y-88050666D02*
X167205866Y-88098285D01*
X167205866Y-88098285D02*
X167396342Y-88098285D01*
X167396342Y-88098285D02*
X167491580Y-88050666D01*
X167491580Y-88050666D02*
X167539200Y-88003047D01*
X167539200Y-88003047D02*
X167586819Y-87907809D01*
X167586819Y-87907809D02*
X167586819Y-87717333D01*
X167586819Y-87717333D02*
X167539200Y-87622095D01*
X167539200Y-87622095D02*
X167491580Y-87574476D01*
X167491580Y-87574476D02*
X167396342Y-87526857D01*
X167396342Y-87526857D02*
X167205866Y-87526857D01*
X167205866Y-87526857D02*
X167110628Y-87574476D01*
X167110628Y-87574476D02*
X167063009Y-87622095D01*
X167063009Y-87622095D02*
X167015390Y-87717333D01*
X167586819Y-86574476D02*
X167586819Y-87145904D01*
X167586819Y-86860190D02*
X166586819Y-86860190D01*
X166586819Y-86860190D02*
X166729676Y-86955428D01*
X166729676Y-86955428D02*
X166824914Y-87050666D01*
X166824914Y-87050666D02*
X166872533Y-87145904D01*
X166682057Y-86193523D02*
X166634438Y-86145904D01*
X166634438Y-86145904D02*
X166586819Y-86050666D01*
X166586819Y-86050666D02*
X166586819Y-85812571D01*
X166586819Y-85812571D02*
X166634438Y-85717333D01*
X166634438Y-85717333D02*
X166682057Y-85669714D01*
X166682057Y-85669714D02*
X166777295Y-85622095D01*
X166777295Y-85622095D02*
X166872533Y-85622095D01*
X166872533Y-85622095D02*
X167015390Y-85669714D01*
X167015390Y-85669714D02*
X167586819Y-86241142D01*
X167586819Y-86241142D02*
X167586819Y-85622095D01*
X167063009Y-84860190D02*
X167110628Y-84717333D01*
X167110628Y-84717333D02*
X167158247Y-84669714D01*
X167158247Y-84669714D02*
X167253485Y-84622095D01*
X167253485Y-84622095D02*
X167396342Y-84622095D01*
X167396342Y-84622095D02*
X167491580Y-84669714D01*
X167491580Y-84669714D02*
X167539200Y-84717333D01*
X167539200Y-84717333D02*
X167586819Y-84812571D01*
X167586819Y-84812571D02*
X167586819Y-85193523D01*
X167586819Y-85193523D02*
X166586819Y-85193523D01*
X166586819Y-85193523D02*
X166586819Y-84860190D01*
X166586819Y-84860190D02*
X166634438Y-84764952D01*
X166634438Y-84764952D02*
X166682057Y-84717333D01*
X166682057Y-84717333D02*
X166777295Y-84669714D01*
X166777295Y-84669714D02*
X166872533Y-84669714D01*
X166872533Y-84669714D02*
X166967771Y-84717333D01*
X166967771Y-84717333D02*
X167015390Y-84764952D01*
X167015390Y-84764952D02*
X167063009Y-84860190D01*
X167063009Y-84860190D02*
X167063009Y-85193523D01*
X148276666Y-71254819D02*
X148276666Y-71969104D01*
X148276666Y-71969104D02*
X148229047Y-72111961D01*
X148229047Y-72111961D02*
X148133809Y-72207200D01*
X148133809Y-72207200D02*
X147990952Y-72254819D01*
X147990952Y-72254819D02*
X147895714Y-72254819D01*
X149276666Y-72254819D02*
X148705238Y-72254819D01*
X148990952Y-72254819D02*
X148990952Y-71254819D01*
X148990952Y-71254819D02*
X148895714Y-71397676D01*
X148895714Y-71397676D02*
X148800476Y-71492914D01*
X148800476Y-71492914D02*
X148705238Y-71540533D01*
X170203580Y-89340666D02*
X170251200Y-89388285D01*
X170251200Y-89388285D02*
X170298819Y-89531142D01*
X170298819Y-89531142D02*
X170298819Y-89626380D01*
X170298819Y-89626380D02*
X170251200Y-89769237D01*
X170251200Y-89769237D02*
X170155961Y-89864475D01*
X170155961Y-89864475D02*
X170060723Y-89912094D01*
X170060723Y-89912094D02*
X169870247Y-89959713D01*
X169870247Y-89959713D02*
X169727390Y-89959713D01*
X169727390Y-89959713D02*
X169536914Y-89912094D01*
X169536914Y-89912094D02*
X169441676Y-89864475D01*
X169441676Y-89864475D02*
X169346438Y-89769237D01*
X169346438Y-89769237D02*
X169298819Y-89626380D01*
X169298819Y-89626380D02*
X169298819Y-89531142D01*
X169298819Y-89531142D02*
X169346438Y-89388285D01*
X169346438Y-89388285D02*
X169394057Y-89340666D01*
X169632152Y-88483523D02*
X170298819Y-88483523D01*
X169251200Y-88721618D02*
X169965485Y-88959713D01*
X169965485Y-88959713D02*
X169965485Y-88340666D01*
X178432152Y-90816857D02*
X179098819Y-90816857D01*
X178051200Y-91054952D02*
X178765485Y-91293047D01*
X178765485Y-91293047D02*
X178765485Y-90674000D01*
X178098819Y-90388285D02*
X178098819Y-89721619D01*
X178098819Y-89721619D02*
X179098819Y-90150190D01*
X178098819Y-89150190D02*
X178098819Y-89054952D01*
X178098819Y-89054952D02*
X178146438Y-88959714D01*
X178146438Y-88959714D02*
X178194057Y-88912095D01*
X178194057Y-88912095D02*
X178289295Y-88864476D01*
X178289295Y-88864476D02*
X178479771Y-88816857D01*
X178479771Y-88816857D02*
X178717866Y-88816857D01*
X178717866Y-88816857D02*
X178908342Y-88864476D01*
X178908342Y-88864476D02*
X179003580Y-88912095D01*
X179003580Y-88912095D02*
X179051200Y-88959714D01*
X179051200Y-88959714D02*
X179098819Y-89054952D01*
X179098819Y-89054952D02*
X179098819Y-89150190D01*
X179098819Y-89150190D02*
X179051200Y-89245428D01*
X179051200Y-89245428D02*
X179003580Y-89293047D01*
X179003580Y-89293047D02*
X178908342Y-89340666D01*
X178908342Y-89340666D02*
X178717866Y-89388285D01*
X178717866Y-89388285D02*
X178479771Y-89388285D01*
X178479771Y-89388285D02*
X178289295Y-89340666D01*
X178289295Y-89340666D02*
X178194057Y-89293047D01*
X178194057Y-89293047D02*
X178146438Y-89245428D01*
X178146438Y-89245428D02*
X178098819Y-89150190D01*
X178432152Y-87959714D02*
X179098819Y-87959714D01*
X178432152Y-88388285D02*
X178955961Y-88388285D01*
X178955961Y-88388285D02*
X179051200Y-88340666D01*
X179051200Y-88340666D02*
X179098819Y-88245428D01*
X179098819Y-88245428D02*
X179098819Y-88102571D01*
X179098819Y-88102571D02*
X179051200Y-88007333D01*
X179051200Y-88007333D02*
X179003580Y-87959714D01*
X178575009Y-87150190D02*
X178575009Y-87483523D01*
X179098819Y-87483523D02*
X178098819Y-87483523D01*
X178098819Y-87483523D02*
X178098819Y-87007333D01*
X160558819Y-75731666D02*
X160082628Y-76064999D01*
X160558819Y-76303094D02*
X159558819Y-76303094D01*
X159558819Y-76303094D02*
X159558819Y-75922142D01*
X159558819Y-75922142D02*
X159606438Y-75826904D01*
X159606438Y-75826904D02*
X159654057Y-75779285D01*
X159654057Y-75779285D02*
X159749295Y-75731666D01*
X159749295Y-75731666D02*
X159892152Y-75731666D01*
X159892152Y-75731666D02*
X159987390Y-75779285D01*
X159987390Y-75779285D02*
X160035009Y-75826904D01*
X160035009Y-75826904D02*
X160082628Y-75922142D01*
X160082628Y-75922142D02*
X160082628Y-76303094D01*
X160558819Y-74779285D02*
X160558819Y-75350713D01*
X160558819Y-75064999D02*
X159558819Y-75064999D01*
X159558819Y-75064999D02*
X159701676Y-75160237D01*
X159701676Y-75160237D02*
X159796914Y-75255475D01*
X159796914Y-75255475D02*
X159844533Y-75350713D01*
X155818819Y-76160238D02*
X155818819Y-76731666D01*
X155818819Y-76445952D02*
X154818819Y-76445952D01*
X154818819Y-76445952D02*
X154961676Y-76541190D01*
X154961676Y-76541190D02*
X155056914Y-76636428D01*
X155056914Y-76636428D02*
X155104533Y-76731666D01*
X154818819Y-75541190D02*
X154818819Y-75445952D01*
X154818819Y-75445952D02*
X154866438Y-75350714D01*
X154866438Y-75350714D02*
X154914057Y-75303095D01*
X154914057Y-75303095D02*
X155009295Y-75255476D01*
X155009295Y-75255476D02*
X155199771Y-75207857D01*
X155199771Y-75207857D02*
X155437866Y-75207857D01*
X155437866Y-75207857D02*
X155628342Y-75255476D01*
X155628342Y-75255476D02*
X155723580Y-75303095D01*
X155723580Y-75303095D02*
X155771200Y-75350714D01*
X155771200Y-75350714D02*
X155818819Y-75445952D01*
X155818819Y-75445952D02*
X155818819Y-75541190D01*
X155818819Y-75541190D02*
X155771200Y-75636428D01*
X155771200Y-75636428D02*
X155723580Y-75684047D01*
X155723580Y-75684047D02*
X155628342Y-75731666D01*
X155628342Y-75731666D02*
X155437866Y-75779285D01*
X155437866Y-75779285D02*
X155199771Y-75779285D01*
X155199771Y-75779285D02*
X155009295Y-75731666D01*
X155009295Y-75731666D02*
X154914057Y-75684047D01*
X154914057Y-75684047D02*
X154866438Y-75636428D01*
X154866438Y-75636428D02*
X154818819Y-75541190D01*
X155818819Y-74779285D02*
X154818819Y-74779285D01*
X155437866Y-74684047D02*
X155818819Y-74398333D01*
X155152152Y-74398333D02*
X155533104Y-74779285D01*
D11*
X128078095Y-81747419D02*
X128078095Y-82556942D01*
X128078095Y-82556942D02*
X128125714Y-82652180D01*
X128125714Y-82652180D02*
X128173333Y-82699800D01*
X128173333Y-82699800D02*
X128268571Y-82747419D01*
X128268571Y-82747419D02*
X128459047Y-82747419D01*
X128459047Y-82747419D02*
X128554285Y-82699800D01*
X128554285Y-82699800D02*
X128601904Y-82652180D01*
X128601904Y-82652180D02*
X128649523Y-82556942D01*
X128649523Y-82556942D02*
X128649523Y-81747419D01*
X129649523Y-82747419D02*
X129078095Y-82747419D01*
X129363809Y-82747419D02*
X129363809Y-81747419D01*
X129363809Y-81747419D02*
X129268571Y-81890276D01*
X129268571Y-81890276D02*
X129173333Y-81985514D01*
X129173333Y-81985514D02*
X129078095Y-82033133D01*
D10*
X125101905Y-83721009D02*
X125435238Y-83721009D01*
X125578095Y-84244819D02*
X125101905Y-84244819D01*
X125101905Y-84244819D02*
X125101905Y-83244819D01*
X125101905Y-83244819D02*
X125578095Y-83244819D01*
X125959048Y-84197200D02*
X126101905Y-84244819D01*
X126101905Y-84244819D02*
X126340000Y-84244819D01*
X126340000Y-84244819D02*
X126435238Y-84197200D01*
X126435238Y-84197200D02*
X126482857Y-84149580D01*
X126482857Y-84149580D02*
X126530476Y-84054342D01*
X126530476Y-84054342D02*
X126530476Y-83959104D01*
X126530476Y-83959104D02*
X126482857Y-83863866D01*
X126482857Y-83863866D02*
X126435238Y-83816247D01*
X126435238Y-83816247D02*
X126340000Y-83768628D01*
X126340000Y-83768628D02*
X126149524Y-83721009D01*
X126149524Y-83721009D02*
X126054286Y-83673390D01*
X126054286Y-83673390D02*
X126006667Y-83625771D01*
X126006667Y-83625771D02*
X125959048Y-83530533D01*
X125959048Y-83530533D02*
X125959048Y-83435295D01*
X125959048Y-83435295D02*
X126006667Y-83340057D01*
X126006667Y-83340057D02*
X126054286Y-83292438D01*
X126054286Y-83292438D02*
X126149524Y-83244819D01*
X126149524Y-83244819D02*
X126387619Y-83244819D01*
X126387619Y-83244819D02*
X126530476Y-83292438D01*
X126959048Y-84244819D02*
X126959048Y-83244819D01*
X126959048Y-83244819D02*
X127340000Y-83244819D01*
X127340000Y-83244819D02*
X127435238Y-83292438D01*
X127435238Y-83292438D02*
X127482857Y-83340057D01*
X127482857Y-83340057D02*
X127530476Y-83435295D01*
X127530476Y-83435295D02*
X127530476Y-83578152D01*
X127530476Y-83578152D02*
X127482857Y-83673390D01*
X127482857Y-83673390D02*
X127435238Y-83721009D01*
X127435238Y-83721009D02*
X127340000Y-83768628D01*
X127340000Y-83768628D02*
X126959048Y-83768628D01*
X127863810Y-83244819D02*
X128482857Y-83244819D01*
X128482857Y-83244819D02*
X128149524Y-83625771D01*
X128149524Y-83625771D02*
X128292381Y-83625771D01*
X128292381Y-83625771D02*
X128387619Y-83673390D01*
X128387619Y-83673390D02*
X128435238Y-83721009D01*
X128435238Y-83721009D02*
X128482857Y-83816247D01*
X128482857Y-83816247D02*
X128482857Y-84054342D01*
X128482857Y-84054342D02*
X128435238Y-84149580D01*
X128435238Y-84149580D02*
X128387619Y-84197200D01*
X128387619Y-84197200D02*
X128292381Y-84244819D01*
X128292381Y-84244819D02*
X128006667Y-84244819D01*
X128006667Y-84244819D02*
X127911429Y-84197200D01*
X127911429Y-84197200D02*
X127863810Y-84149580D01*
X128863810Y-83340057D02*
X128911429Y-83292438D01*
X128911429Y-83292438D02*
X129006667Y-83244819D01*
X129006667Y-83244819D02*
X129244762Y-83244819D01*
X129244762Y-83244819D02*
X129340000Y-83292438D01*
X129340000Y-83292438D02*
X129387619Y-83340057D01*
X129387619Y-83340057D02*
X129435238Y-83435295D01*
X129435238Y-83435295D02*
X129435238Y-83530533D01*
X129435238Y-83530533D02*
X129387619Y-83673390D01*
X129387619Y-83673390D02*
X128816191Y-84244819D01*
X128816191Y-84244819D02*
X129435238Y-84244819D01*
X129863810Y-83863866D02*
X130625715Y-83863866D01*
X131673333Y-84149580D02*
X131625714Y-84197200D01*
X131625714Y-84197200D02*
X131482857Y-84244819D01*
X131482857Y-84244819D02*
X131387619Y-84244819D01*
X131387619Y-84244819D02*
X131244762Y-84197200D01*
X131244762Y-84197200D02*
X131149524Y-84101961D01*
X131149524Y-84101961D02*
X131101905Y-84006723D01*
X131101905Y-84006723D02*
X131054286Y-83816247D01*
X131054286Y-83816247D02*
X131054286Y-83673390D01*
X131054286Y-83673390D02*
X131101905Y-83482914D01*
X131101905Y-83482914D02*
X131149524Y-83387676D01*
X131149524Y-83387676D02*
X131244762Y-83292438D01*
X131244762Y-83292438D02*
X131387619Y-83244819D01*
X131387619Y-83244819D02*
X131482857Y-83244819D01*
X131482857Y-83244819D02*
X131625714Y-83292438D01*
X131625714Y-83292438D02*
X131673333Y-83340057D01*
X132006667Y-83244819D02*
X132625714Y-83244819D01*
X132625714Y-83244819D02*
X132292381Y-83625771D01*
X132292381Y-83625771D02*
X132435238Y-83625771D01*
X132435238Y-83625771D02*
X132530476Y-83673390D01*
X132530476Y-83673390D02*
X132578095Y-83721009D01*
X132578095Y-83721009D02*
X132625714Y-83816247D01*
X132625714Y-83816247D02*
X132625714Y-84054342D01*
X132625714Y-84054342D02*
X132578095Y-84149580D01*
X132578095Y-84149580D02*
X132530476Y-84197200D01*
X132530476Y-84197200D02*
X132435238Y-84244819D01*
X132435238Y-84244819D02*
X132149524Y-84244819D01*
X132149524Y-84244819D02*
X132054286Y-84197200D01*
X132054286Y-84197200D02*
X132006667Y-84149580D01*
X148276666Y-58554819D02*
X148276666Y-59269104D01*
X148276666Y-59269104D02*
X148229047Y-59411961D01*
X148229047Y-59411961D02*
X148133809Y-59507200D01*
X148133809Y-59507200D02*
X147990952Y-59554819D01*
X147990952Y-59554819D02*
X147895714Y-59554819D01*
X148705238Y-58650057D02*
X148752857Y-58602438D01*
X148752857Y-58602438D02*
X148848095Y-58554819D01*
X148848095Y-58554819D02*
X149086190Y-58554819D01*
X149086190Y-58554819D02*
X149181428Y-58602438D01*
X149181428Y-58602438D02*
X149229047Y-58650057D01*
X149229047Y-58650057D02*
X149276666Y-58745295D01*
X149276666Y-58745295D02*
X149276666Y-58840533D01*
X149276666Y-58840533D02*
X149229047Y-58983390D01*
X149229047Y-58983390D02*
X148657619Y-59554819D01*
X148657619Y-59554819D02*
X149276666Y-59554819D01*
X163917333Y-55731580D02*
X163869714Y-55779200D01*
X163869714Y-55779200D02*
X163726857Y-55826819D01*
X163726857Y-55826819D02*
X163631619Y-55826819D01*
X163631619Y-55826819D02*
X163488762Y-55779200D01*
X163488762Y-55779200D02*
X163393524Y-55683961D01*
X163393524Y-55683961D02*
X163345905Y-55588723D01*
X163345905Y-55588723D02*
X163298286Y-55398247D01*
X163298286Y-55398247D02*
X163298286Y-55255390D01*
X163298286Y-55255390D02*
X163345905Y-55064914D01*
X163345905Y-55064914D02*
X163393524Y-54969676D01*
X163393524Y-54969676D02*
X163488762Y-54874438D01*
X163488762Y-54874438D02*
X163631619Y-54826819D01*
X163631619Y-54826819D02*
X163726857Y-54826819D01*
X163726857Y-54826819D02*
X163869714Y-54874438D01*
X163869714Y-54874438D02*
X163917333Y-54922057D01*
X164869714Y-55826819D02*
X164298286Y-55826819D01*
X164584000Y-55826819D02*
X164584000Y-54826819D01*
X164584000Y-54826819D02*
X164488762Y-54969676D01*
X164488762Y-54969676D02*
X164393524Y-55064914D01*
X164393524Y-55064914D02*
X164298286Y-55112533D01*
X162536380Y-63446819D02*
X161964952Y-63446819D01*
X162250666Y-63446819D02*
X162250666Y-62446819D01*
X162250666Y-62446819D02*
X162155428Y-62589676D01*
X162155428Y-62589676D02*
X162060190Y-62684914D01*
X162060190Y-62684914D02*
X161964952Y-62732533D01*
X163155428Y-62446819D02*
X163250666Y-62446819D01*
X163250666Y-62446819D02*
X163345904Y-62494438D01*
X163345904Y-62494438D02*
X163393523Y-62542057D01*
X163393523Y-62542057D02*
X163441142Y-62637295D01*
X163441142Y-62637295D02*
X163488761Y-62827771D01*
X163488761Y-62827771D02*
X163488761Y-63065866D01*
X163488761Y-63065866D02*
X163441142Y-63256342D01*
X163441142Y-63256342D02*
X163393523Y-63351580D01*
X163393523Y-63351580D02*
X163345904Y-63399200D01*
X163345904Y-63399200D02*
X163250666Y-63446819D01*
X163250666Y-63446819D02*
X163155428Y-63446819D01*
X163155428Y-63446819D02*
X163060190Y-63399200D01*
X163060190Y-63399200D02*
X163012571Y-63351580D01*
X163012571Y-63351580D02*
X162964952Y-63256342D01*
X162964952Y-63256342D02*
X162917333Y-63065866D01*
X162917333Y-63065866D02*
X162917333Y-62827771D01*
X162917333Y-62827771D02*
X162964952Y-62637295D01*
X162964952Y-62637295D02*
X163012571Y-62542057D01*
X163012571Y-62542057D02*
X163060190Y-62494438D01*
X163060190Y-62494438D02*
X163155428Y-62446819D01*
X164107809Y-62446819D02*
X164203047Y-62446819D01*
X164203047Y-62446819D02*
X164298285Y-62494438D01*
X164298285Y-62494438D02*
X164345904Y-62542057D01*
X164345904Y-62542057D02*
X164393523Y-62637295D01*
X164393523Y-62637295D02*
X164441142Y-62827771D01*
X164441142Y-62827771D02*
X164441142Y-63065866D01*
X164441142Y-63065866D02*
X164393523Y-63256342D01*
X164393523Y-63256342D02*
X164345904Y-63351580D01*
X164345904Y-63351580D02*
X164298285Y-63399200D01*
X164298285Y-63399200D02*
X164203047Y-63446819D01*
X164203047Y-63446819D02*
X164107809Y-63446819D01*
X164107809Y-63446819D02*
X164012571Y-63399200D01*
X164012571Y-63399200D02*
X163964952Y-63351580D01*
X163964952Y-63351580D02*
X163917333Y-63256342D01*
X163917333Y-63256342D02*
X163869714Y-63065866D01*
X163869714Y-63065866D02*
X163869714Y-62827771D01*
X163869714Y-62827771D02*
X163917333Y-62637295D01*
X163917333Y-62637295D02*
X163964952Y-62542057D01*
X163964952Y-62542057D02*
X164012571Y-62494438D01*
X164012571Y-62494438D02*
X164107809Y-62446819D01*
X165298285Y-62780152D02*
X165298285Y-63446819D01*
X164869714Y-62780152D02*
X164869714Y-63303961D01*
X164869714Y-63303961D02*
X164917333Y-63399200D01*
X164917333Y-63399200D02*
X165012571Y-63446819D01*
X165012571Y-63446819D02*
X165155428Y-63446819D01*
X165155428Y-63446819D02*
X165250666Y-63399200D01*
X165250666Y-63399200D02*
X165298285Y-63351580D01*
X166107809Y-62923009D02*
X165774476Y-62923009D01*
X165774476Y-63446819D02*
X165774476Y-62446819D01*
X165774476Y-62446819D02*
X166250666Y-62446819D01*
X181247580Y-89273045D02*
X181295200Y-89320664D01*
X181295200Y-89320664D02*
X181342819Y-89463521D01*
X181342819Y-89463521D02*
X181342819Y-89558759D01*
X181342819Y-89558759D02*
X181295200Y-89701616D01*
X181295200Y-89701616D02*
X181199961Y-89796854D01*
X181199961Y-89796854D02*
X181104723Y-89844473D01*
X181104723Y-89844473D02*
X180914247Y-89892092D01*
X180914247Y-89892092D02*
X180771390Y-89892092D01*
X180771390Y-89892092D02*
X180580914Y-89844473D01*
X180580914Y-89844473D02*
X180485676Y-89796854D01*
X180485676Y-89796854D02*
X180390438Y-89701616D01*
X180390438Y-89701616D02*
X180342819Y-89558759D01*
X180342819Y-89558759D02*
X180342819Y-89463521D01*
X180342819Y-89463521D02*
X180390438Y-89320664D01*
X180390438Y-89320664D02*
X180438057Y-89273045D01*
X180342819Y-88939711D02*
X180342819Y-88320664D01*
X180342819Y-88320664D02*
X180723771Y-88653997D01*
X180723771Y-88653997D02*
X180723771Y-88511140D01*
X180723771Y-88511140D02*
X180771390Y-88415902D01*
X180771390Y-88415902D02*
X180819009Y-88368283D01*
X180819009Y-88368283D02*
X180914247Y-88320664D01*
X180914247Y-88320664D02*
X181152342Y-88320664D01*
X181152342Y-88320664D02*
X181247580Y-88368283D01*
X181247580Y-88368283D02*
X181295200Y-88415902D01*
X181295200Y-88415902D02*
X181342819Y-88511140D01*
X181342819Y-88511140D02*
X181342819Y-88796854D01*
X181342819Y-88796854D02*
X181295200Y-88892092D01*
X181295200Y-88892092D02*
X181247580Y-88939711D01*
X186342819Y-90653998D02*
X186342819Y-91225426D01*
X186342819Y-90939712D02*
X185342819Y-90939712D01*
X185342819Y-90939712D02*
X185485676Y-91034950D01*
X185485676Y-91034950D02*
X185580914Y-91130188D01*
X185580914Y-91130188D02*
X185628533Y-91225426D01*
X185342819Y-90034950D02*
X185342819Y-89939712D01*
X185342819Y-89939712D02*
X185390438Y-89844474D01*
X185390438Y-89844474D02*
X185438057Y-89796855D01*
X185438057Y-89796855D02*
X185533295Y-89749236D01*
X185533295Y-89749236D02*
X185723771Y-89701617D01*
X185723771Y-89701617D02*
X185961866Y-89701617D01*
X185961866Y-89701617D02*
X186152342Y-89749236D01*
X186152342Y-89749236D02*
X186247580Y-89796855D01*
X186247580Y-89796855D02*
X186295200Y-89844474D01*
X186295200Y-89844474D02*
X186342819Y-89939712D01*
X186342819Y-89939712D02*
X186342819Y-90034950D01*
X186342819Y-90034950D02*
X186295200Y-90130188D01*
X186295200Y-90130188D02*
X186247580Y-90177807D01*
X186247580Y-90177807D02*
X186152342Y-90225426D01*
X186152342Y-90225426D02*
X185961866Y-90273045D01*
X185961866Y-90273045D02*
X185723771Y-90273045D01*
X185723771Y-90273045D02*
X185533295Y-90225426D01*
X185533295Y-90225426D02*
X185438057Y-90177807D01*
X185438057Y-90177807D02*
X185390438Y-90130188D01*
X185390438Y-90130188D02*
X185342819Y-90034950D01*
X185342819Y-89082569D02*
X185342819Y-88987331D01*
X185342819Y-88987331D02*
X185390438Y-88892093D01*
X185390438Y-88892093D02*
X185438057Y-88844474D01*
X185438057Y-88844474D02*
X185533295Y-88796855D01*
X185533295Y-88796855D02*
X185723771Y-88749236D01*
X185723771Y-88749236D02*
X185961866Y-88749236D01*
X185961866Y-88749236D02*
X186152342Y-88796855D01*
X186152342Y-88796855D02*
X186247580Y-88844474D01*
X186247580Y-88844474D02*
X186295200Y-88892093D01*
X186295200Y-88892093D02*
X186342819Y-88987331D01*
X186342819Y-88987331D02*
X186342819Y-89082569D01*
X186342819Y-89082569D02*
X186295200Y-89177807D01*
X186295200Y-89177807D02*
X186247580Y-89225426D01*
X186247580Y-89225426D02*
X186152342Y-89273045D01*
X186152342Y-89273045D02*
X185961866Y-89320664D01*
X185961866Y-89320664D02*
X185723771Y-89320664D01*
X185723771Y-89320664D02*
X185533295Y-89273045D01*
X185533295Y-89273045D02*
X185438057Y-89225426D01*
X185438057Y-89225426D02*
X185390438Y-89177807D01*
X185390438Y-89177807D02*
X185342819Y-89082569D01*
X185676152Y-88320664D02*
X186342819Y-88320664D01*
X185771390Y-88320664D02*
X185723771Y-88273045D01*
X185723771Y-88273045D02*
X185676152Y-88177807D01*
X185676152Y-88177807D02*
X185676152Y-88034950D01*
X185676152Y-88034950D02*
X185723771Y-87939712D01*
X185723771Y-87939712D02*
X185819009Y-87892093D01*
X185819009Y-87892093D02*
X186342819Y-87892093D01*
X185819009Y-87082569D02*
X185819009Y-87415902D01*
X186342819Y-87415902D02*
X185342819Y-87415902D01*
X185342819Y-87415902D02*
X185342819Y-86939712D01*
X157821333Y-93831580D02*
X157773714Y-93879200D01*
X157773714Y-93879200D02*
X157630857Y-93926819D01*
X157630857Y-93926819D02*
X157535619Y-93926819D01*
X157535619Y-93926819D02*
X157392762Y-93879200D01*
X157392762Y-93879200D02*
X157297524Y-93783961D01*
X157297524Y-93783961D02*
X157249905Y-93688723D01*
X157249905Y-93688723D02*
X157202286Y-93498247D01*
X157202286Y-93498247D02*
X157202286Y-93355390D01*
X157202286Y-93355390D02*
X157249905Y-93164914D01*
X157249905Y-93164914D02*
X157297524Y-93069676D01*
X157297524Y-93069676D02*
X157392762Y-92974438D01*
X157392762Y-92974438D02*
X157535619Y-92926819D01*
X157535619Y-92926819D02*
X157630857Y-92926819D01*
X157630857Y-92926819D02*
X157773714Y-92974438D01*
X157773714Y-92974438D02*
X157821333Y-93022057D01*
X158678476Y-92926819D02*
X158488000Y-92926819D01*
X158488000Y-92926819D02*
X158392762Y-92974438D01*
X158392762Y-92974438D02*
X158345143Y-93022057D01*
X158345143Y-93022057D02*
X158249905Y-93164914D01*
X158249905Y-93164914D02*
X158202286Y-93355390D01*
X158202286Y-93355390D02*
X158202286Y-93736342D01*
X158202286Y-93736342D02*
X158249905Y-93831580D01*
X158249905Y-93831580D02*
X158297524Y-93879200D01*
X158297524Y-93879200D02*
X158392762Y-93926819D01*
X158392762Y-93926819D02*
X158583238Y-93926819D01*
X158583238Y-93926819D02*
X158678476Y-93879200D01*
X158678476Y-93879200D02*
X158726095Y-93831580D01*
X158726095Y-93831580D02*
X158773714Y-93736342D01*
X158773714Y-93736342D02*
X158773714Y-93498247D01*
X158773714Y-93498247D02*
X158726095Y-93403009D01*
X158726095Y-93403009D02*
X158678476Y-93355390D01*
X158678476Y-93355390D02*
X158583238Y-93307771D01*
X158583238Y-93307771D02*
X158392762Y-93307771D01*
X158392762Y-93307771D02*
X158297524Y-93355390D01*
X158297524Y-93355390D02*
X158249905Y-93403009D01*
X158249905Y-93403009D02*
X158202286Y-93498247D01*
X160728819Y-90447619D02*
X160728819Y-91019047D01*
X160728819Y-90733333D02*
X159728819Y-90733333D01*
X159728819Y-90733333D02*
X159871676Y-90828571D01*
X159871676Y-90828571D02*
X159966914Y-90923809D01*
X159966914Y-90923809D02*
X160014533Y-91019047D01*
X159728819Y-89828571D02*
X159728819Y-89733333D01*
X159728819Y-89733333D02*
X159776438Y-89638095D01*
X159776438Y-89638095D02*
X159824057Y-89590476D01*
X159824057Y-89590476D02*
X159919295Y-89542857D01*
X159919295Y-89542857D02*
X160109771Y-89495238D01*
X160109771Y-89495238D02*
X160347866Y-89495238D01*
X160347866Y-89495238D02*
X160538342Y-89542857D01*
X160538342Y-89542857D02*
X160633580Y-89590476D01*
X160633580Y-89590476D02*
X160681200Y-89638095D01*
X160681200Y-89638095D02*
X160728819Y-89733333D01*
X160728819Y-89733333D02*
X160728819Y-89828571D01*
X160728819Y-89828571D02*
X160681200Y-89923809D01*
X160681200Y-89923809D02*
X160633580Y-89971428D01*
X160633580Y-89971428D02*
X160538342Y-90019047D01*
X160538342Y-90019047D02*
X160347866Y-90066666D01*
X160347866Y-90066666D02*
X160109771Y-90066666D01*
X160109771Y-90066666D02*
X159919295Y-90019047D01*
X159919295Y-90019047D02*
X159824057Y-89971428D01*
X159824057Y-89971428D02*
X159776438Y-89923809D01*
X159776438Y-89923809D02*
X159728819Y-89828571D01*
X159728819Y-88876190D02*
X159728819Y-88780952D01*
X159728819Y-88780952D02*
X159776438Y-88685714D01*
X159776438Y-88685714D02*
X159824057Y-88638095D01*
X159824057Y-88638095D02*
X159919295Y-88590476D01*
X159919295Y-88590476D02*
X160109771Y-88542857D01*
X160109771Y-88542857D02*
X160347866Y-88542857D01*
X160347866Y-88542857D02*
X160538342Y-88590476D01*
X160538342Y-88590476D02*
X160633580Y-88638095D01*
X160633580Y-88638095D02*
X160681200Y-88685714D01*
X160681200Y-88685714D02*
X160728819Y-88780952D01*
X160728819Y-88780952D02*
X160728819Y-88876190D01*
X160728819Y-88876190D02*
X160681200Y-88971428D01*
X160681200Y-88971428D02*
X160633580Y-89019047D01*
X160633580Y-89019047D02*
X160538342Y-89066666D01*
X160538342Y-89066666D02*
X160347866Y-89114285D01*
X160347866Y-89114285D02*
X160109771Y-89114285D01*
X160109771Y-89114285D02*
X159919295Y-89066666D01*
X159919295Y-89066666D02*
X159824057Y-89019047D01*
X159824057Y-89019047D02*
X159776438Y-88971428D01*
X159776438Y-88971428D02*
X159728819Y-88876190D01*
X160062152Y-88114285D02*
X160728819Y-88114285D01*
X160157390Y-88114285D02*
X160109771Y-88066666D01*
X160109771Y-88066666D02*
X160062152Y-87971428D01*
X160062152Y-87971428D02*
X160062152Y-87828571D01*
X160062152Y-87828571D02*
X160109771Y-87733333D01*
X160109771Y-87733333D02*
X160205009Y-87685714D01*
X160205009Y-87685714D02*
X160728819Y-87685714D01*
X160205009Y-86876190D02*
X160205009Y-87209523D01*
X160728819Y-87209523D02*
X159728819Y-87209523D01*
X159728819Y-87209523D02*
X159728819Y-86733333D01*
X154831580Y-59134666D02*
X154879200Y-59182285D01*
X154879200Y-59182285D02*
X154926819Y-59325142D01*
X154926819Y-59325142D02*
X154926819Y-59420380D01*
X154926819Y-59420380D02*
X154879200Y-59563237D01*
X154879200Y-59563237D02*
X154783961Y-59658475D01*
X154783961Y-59658475D02*
X154688723Y-59706094D01*
X154688723Y-59706094D02*
X154498247Y-59753713D01*
X154498247Y-59753713D02*
X154355390Y-59753713D01*
X154355390Y-59753713D02*
X154164914Y-59706094D01*
X154164914Y-59706094D02*
X154069676Y-59658475D01*
X154069676Y-59658475D02*
X153974438Y-59563237D01*
X153974438Y-59563237D02*
X153926819Y-59420380D01*
X153926819Y-59420380D02*
X153926819Y-59325142D01*
X153926819Y-59325142D02*
X153974438Y-59182285D01*
X153974438Y-59182285D02*
X154022057Y-59134666D01*
X154022057Y-58753713D02*
X153974438Y-58706094D01*
X153974438Y-58706094D02*
X153926819Y-58610856D01*
X153926819Y-58610856D02*
X153926819Y-58372761D01*
X153926819Y-58372761D02*
X153974438Y-58277523D01*
X153974438Y-58277523D02*
X154022057Y-58229904D01*
X154022057Y-58229904D02*
X154117295Y-58182285D01*
X154117295Y-58182285D02*
X154212533Y-58182285D01*
X154212533Y-58182285D02*
X154355390Y-58229904D01*
X154355390Y-58229904D02*
X154926819Y-58801332D01*
X154926819Y-58801332D02*
X154926819Y-58182285D01*
X159926819Y-60515619D02*
X159926819Y-61087047D01*
X159926819Y-60801333D02*
X158926819Y-60801333D01*
X158926819Y-60801333D02*
X159069676Y-60896571D01*
X159069676Y-60896571D02*
X159164914Y-60991809D01*
X159164914Y-60991809D02*
X159212533Y-61087047D01*
X158926819Y-59896571D02*
X158926819Y-59801333D01*
X158926819Y-59801333D02*
X158974438Y-59706095D01*
X158974438Y-59706095D02*
X159022057Y-59658476D01*
X159022057Y-59658476D02*
X159117295Y-59610857D01*
X159117295Y-59610857D02*
X159307771Y-59563238D01*
X159307771Y-59563238D02*
X159545866Y-59563238D01*
X159545866Y-59563238D02*
X159736342Y-59610857D01*
X159736342Y-59610857D02*
X159831580Y-59658476D01*
X159831580Y-59658476D02*
X159879200Y-59706095D01*
X159879200Y-59706095D02*
X159926819Y-59801333D01*
X159926819Y-59801333D02*
X159926819Y-59896571D01*
X159926819Y-59896571D02*
X159879200Y-59991809D01*
X159879200Y-59991809D02*
X159831580Y-60039428D01*
X159831580Y-60039428D02*
X159736342Y-60087047D01*
X159736342Y-60087047D02*
X159545866Y-60134666D01*
X159545866Y-60134666D02*
X159307771Y-60134666D01*
X159307771Y-60134666D02*
X159117295Y-60087047D01*
X159117295Y-60087047D02*
X159022057Y-60039428D01*
X159022057Y-60039428D02*
X158974438Y-59991809D01*
X158974438Y-59991809D02*
X158926819Y-59896571D01*
X158926819Y-58944190D02*
X158926819Y-58848952D01*
X158926819Y-58848952D02*
X158974438Y-58753714D01*
X158974438Y-58753714D02*
X159022057Y-58706095D01*
X159022057Y-58706095D02*
X159117295Y-58658476D01*
X159117295Y-58658476D02*
X159307771Y-58610857D01*
X159307771Y-58610857D02*
X159545866Y-58610857D01*
X159545866Y-58610857D02*
X159736342Y-58658476D01*
X159736342Y-58658476D02*
X159831580Y-58706095D01*
X159831580Y-58706095D02*
X159879200Y-58753714D01*
X159879200Y-58753714D02*
X159926819Y-58848952D01*
X159926819Y-58848952D02*
X159926819Y-58944190D01*
X159926819Y-58944190D02*
X159879200Y-59039428D01*
X159879200Y-59039428D02*
X159831580Y-59087047D01*
X159831580Y-59087047D02*
X159736342Y-59134666D01*
X159736342Y-59134666D02*
X159545866Y-59182285D01*
X159545866Y-59182285D02*
X159307771Y-59182285D01*
X159307771Y-59182285D02*
X159117295Y-59134666D01*
X159117295Y-59134666D02*
X159022057Y-59087047D01*
X159022057Y-59087047D02*
X158974438Y-59039428D01*
X158974438Y-59039428D02*
X158926819Y-58944190D01*
X159260152Y-58182285D02*
X159926819Y-58182285D01*
X159355390Y-58182285D02*
X159307771Y-58134666D01*
X159307771Y-58134666D02*
X159260152Y-58039428D01*
X159260152Y-58039428D02*
X159260152Y-57896571D01*
X159260152Y-57896571D02*
X159307771Y-57801333D01*
X159307771Y-57801333D02*
X159403009Y-57753714D01*
X159403009Y-57753714D02*
X159926819Y-57753714D01*
X159403009Y-56944190D02*
X159403009Y-57277523D01*
X159926819Y-57277523D02*
X158926819Y-57277523D01*
X158926819Y-57277523D02*
X158926819Y-56801333D01*
D11*
X177038095Y-68061419D02*
X177038095Y-68870942D01*
X177038095Y-68870942D02*
X177085714Y-68966180D01*
X177085714Y-68966180D02*
X177133333Y-69013800D01*
X177133333Y-69013800D02*
X177228571Y-69061419D01*
X177228571Y-69061419D02*
X177419047Y-69061419D01*
X177419047Y-69061419D02*
X177514285Y-69013800D01*
X177514285Y-69013800D02*
X177561904Y-68966180D01*
X177561904Y-68966180D02*
X177609523Y-68870942D01*
X177609523Y-68870942D02*
X177609523Y-68061419D01*
X178514285Y-68394752D02*
X178514285Y-69061419D01*
X178276190Y-68013800D02*
X178038095Y-68728085D01*
X178038095Y-68728085D02*
X178657142Y-68728085D01*
D10*
X175180952Y-70558819D02*
X175180952Y-69558819D01*
X175180952Y-69558819D02*
X175514285Y-70273104D01*
X175514285Y-70273104D02*
X175847618Y-69558819D01*
X175847618Y-69558819D02*
X175847618Y-70558819D01*
X176180952Y-69558819D02*
X176752380Y-69558819D01*
X176466666Y-70558819D02*
X176466666Y-69558819D01*
X176990476Y-69558819D02*
X177609523Y-69558819D01*
X177609523Y-69558819D02*
X177276190Y-69939771D01*
X177276190Y-69939771D02*
X177419047Y-69939771D01*
X177419047Y-69939771D02*
X177514285Y-69987390D01*
X177514285Y-69987390D02*
X177561904Y-70035009D01*
X177561904Y-70035009D02*
X177609523Y-70130247D01*
X177609523Y-70130247D02*
X177609523Y-70368342D01*
X177609523Y-70368342D02*
X177561904Y-70463580D01*
X177561904Y-70463580D02*
X177514285Y-70511200D01*
X177514285Y-70511200D02*
X177419047Y-70558819D01*
X177419047Y-70558819D02*
X177133333Y-70558819D01*
X177133333Y-70558819D02*
X177038095Y-70511200D01*
X177038095Y-70511200D02*
X176990476Y-70463580D01*
X178466666Y-69558819D02*
X178276190Y-69558819D01*
X178276190Y-69558819D02*
X178180952Y-69606438D01*
X178180952Y-69606438D02*
X178133333Y-69654057D01*
X178133333Y-69654057D02*
X178038095Y-69796914D01*
X178038095Y-69796914D02*
X177990476Y-69987390D01*
X177990476Y-69987390D02*
X177990476Y-70368342D01*
X177990476Y-70368342D02*
X178038095Y-70463580D01*
X178038095Y-70463580D02*
X178085714Y-70511200D01*
X178085714Y-70511200D02*
X178180952Y-70558819D01*
X178180952Y-70558819D02*
X178371428Y-70558819D01*
X178371428Y-70558819D02*
X178466666Y-70511200D01*
X178466666Y-70511200D02*
X178514285Y-70463580D01*
X178514285Y-70463580D02*
X178561904Y-70368342D01*
X178561904Y-70368342D02*
X178561904Y-70130247D01*
X178561904Y-70130247D02*
X178514285Y-70035009D01*
X178514285Y-70035009D02*
X178466666Y-69987390D01*
X178466666Y-69987390D02*
X178371428Y-69939771D01*
X178371428Y-69939771D02*
X178180952Y-69939771D01*
X178180952Y-69939771D02*
X178085714Y-69987390D01*
X178085714Y-69987390D02*
X178038095Y-70035009D01*
X178038095Y-70035009D02*
X177990476Y-70130247D01*
X179180952Y-69558819D02*
X179276190Y-69558819D01*
X179276190Y-69558819D02*
X179371428Y-69606438D01*
X179371428Y-69606438D02*
X179419047Y-69654057D01*
X179419047Y-69654057D02*
X179466666Y-69749295D01*
X179466666Y-69749295D02*
X179514285Y-69939771D01*
X179514285Y-69939771D02*
X179514285Y-70177866D01*
X179514285Y-70177866D02*
X179466666Y-70368342D01*
X179466666Y-70368342D02*
X179419047Y-70463580D01*
X179419047Y-70463580D02*
X179371428Y-70511200D01*
X179371428Y-70511200D02*
X179276190Y-70558819D01*
X179276190Y-70558819D02*
X179180952Y-70558819D01*
X179180952Y-70558819D02*
X179085714Y-70511200D01*
X179085714Y-70511200D02*
X179038095Y-70463580D01*
X179038095Y-70463580D02*
X178990476Y-70368342D01*
X178990476Y-70368342D02*
X178942857Y-70177866D01*
X178942857Y-70177866D02*
X178942857Y-69939771D01*
X178942857Y-69939771D02*
X178990476Y-69749295D01*
X178990476Y-69749295D02*
X179038095Y-69654057D01*
X179038095Y-69654057D02*
X179085714Y-69606438D01*
X179085714Y-69606438D02*
X179180952Y-69558819D01*
X180085714Y-69987390D02*
X179990476Y-69939771D01*
X179990476Y-69939771D02*
X179942857Y-69892152D01*
X179942857Y-69892152D02*
X179895238Y-69796914D01*
X179895238Y-69796914D02*
X179895238Y-69749295D01*
X179895238Y-69749295D02*
X179942857Y-69654057D01*
X179942857Y-69654057D02*
X179990476Y-69606438D01*
X179990476Y-69606438D02*
X180085714Y-69558819D01*
X180085714Y-69558819D02*
X180276190Y-69558819D01*
X180276190Y-69558819D02*
X180371428Y-69606438D01*
X180371428Y-69606438D02*
X180419047Y-69654057D01*
X180419047Y-69654057D02*
X180466666Y-69749295D01*
X180466666Y-69749295D02*
X180466666Y-69796914D01*
X180466666Y-69796914D02*
X180419047Y-69892152D01*
X180419047Y-69892152D02*
X180371428Y-69939771D01*
X180371428Y-69939771D02*
X180276190Y-69987390D01*
X180276190Y-69987390D02*
X180085714Y-69987390D01*
X180085714Y-69987390D02*
X179990476Y-70035009D01*
X179990476Y-70035009D02*
X179942857Y-70082628D01*
X179942857Y-70082628D02*
X179895238Y-70177866D01*
X179895238Y-70177866D02*
X179895238Y-70368342D01*
X179895238Y-70368342D02*
X179942857Y-70463580D01*
X179942857Y-70463580D02*
X179990476Y-70511200D01*
X179990476Y-70511200D02*
X180085714Y-70558819D01*
X180085714Y-70558819D02*
X180276190Y-70558819D01*
X180276190Y-70558819D02*
X180371428Y-70511200D01*
X180371428Y-70511200D02*
X180419047Y-70463580D01*
X180419047Y-70463580D02*
X180466666Y-70368342D01*
X180466666Y-70368342D02*
X180466666Y-70177866D01*
X180466666Y-70177866D02*
X180419047Y-70082628D01*
X180419047Y-70082628D02*
X180371428Y-70035009D01*
X180371428Y-70035009D02*
X180276190Y-69987390D01*
D12*
G36*
X174129191Y-56443944D02*
G01*
X174129191Y-56611959D01*
X172924000Y-56209618D01*
X172924000Y-56052960D01*
X174129191Y-55652158D01*
X174129191Y-55817755D01*
X173366421Y-56060068D01*
X173254704Y-56092666D01*
X173102346Y-56129970D01*
X173217096Y-56158206D01*
X173371330Y-56203976D01*
X174129191Y-56443944D01*
G37*
G36*
X172924000Y-57458334D02*
G01*
X172924000Y-56817489D01*
X173029366Y-56817489D01*
X173045779Y-57059363D01*
X174007412Y-57059363D01*
X174023825Y-56817489D01*
X174129191Y-56817489D01*
X174129191Y-57458334D01*
X174023825Y-57458334D01*
X174007412Y-57217339D01*
X173045779Y-57217339D01*
X173029366Y-57458334D01*
X172924000Y-57458334D01*
G37*
G36*
X172924000Y-58539988D02*
G01*
X172924000Y-58359883D01*
X173917946Y-57884489D01*
X173917946Y-57881851D01*
X173706664Y-57893415D01*
X173577740Y-57896505D01*
X172924000Y-57896505D01*
X172924000Y-57750766D01*
X174129191Y-57750766D01*
X174129191Y-57929185D01*
X173140154Y-58403041D01*
X173140154Y-58403993D01*
X173469662Y-58392636D01*
X174129191Y-58392636D01*
X174129191Y-58539988D01*
X172924000Y-58539988D01*
G37*
G36*
X173306777Y-58880780D02*
G01*
X173449219Y-58880780D01*
X173449219Y-59425710D01*
X173306777Y-59425710D01*
X173306777Y-58880780D01*
G37*
G36*
X183204672Y-79832364D02*
G01*
X183326790Y-79852905D01*
X183424704Y-79884109D01*
X183502512Y-79924334D01*
X183563577Y-79972793D01*
X183610363Y-80029627D01*
X183644258Y-80095898D01*
X183665461Y-80173490D01*
X183672949Y-80264953D01*
X183666038Y-80348035D01*
X183646249Y-80420241D01*
X183614259Y-80483520D01*
X183569723Y-80539315D01*
X183511309Y-80588452D01*
X183447109Y-80626090D01*
X183371080Y-80656950D01*
X183281361Y-80680431D01*
X183175810Y-80695538D01*
X183052035Y-80700926D01*
X182928324Y-80695489D01*
X182822740Y-80680236D01*
X182732906Y-80656513D01*
X182656690Y-80625307D01*
X182592248Y-80587207D01*
X182533608Y-80537559D01*
X182488950Y-80481442D01*
X182456920Y-80418052D01*
X182437140Y-80345986D01*
X182430242Y-80263341D01*
X182569387Y-80263341D01*
X182577180Y-80330446D01*
X182599291Y-80385533D01*
X182635498Y-80431335D01*
X182687796Y-80469237D01*
X182746448Y-80495018D01*
X182823803Y-80515648D01*
X182924166Y-80529574D01*
X183052401Y-80534743D01*
X183182136Y-80529470D01*
X183282858Y-80515314D01*
X183359766Y-80494427D01*
X183417447Y-80468431D01*
X183468932Y-80430288D01*
X183504523Y-80384741D01*
X183526193Y-80330482D01*
X183533804Y-80264953D01*
X183527340Y-80205154D01*
X183508824Y-80154382D01*
X183478376Y-80110612D01*
X183434541Y-80072685D01*
X183374463Y-80040457D01*
X183294145Y-80014802D01*
X183188678Y-79997495D01*
X183052401Y-79991059D01*
X182915429Y-79997481D01*
X182809492Y-80014746D01*
X182728886Y-80040322D01*
X182668659Y-80072424D01*
X182624773Y-80110159D01*
X182594330Y-80153652D01*
X182575838Y-80204042D01*
X182569387Y-80263341D01*
X182430242Y-80263341D01*
X182437737Y-80172455D01*
X182458972Y-80095292D01*
X182492950Y-80029319D01*
X182539905Y-79972672D01*
X182601271Y-79924313D01*
X182679560Y-79884126D01*
X182778185Y-79852923D01*
X182901295Y-79832371D01*
X183053647Y-79824876D01*
X183204672Y-79832364D01*
G37*
G36*
X183654191Y-81672744D02*
G01*
X182872956Y-81672744D01*
X182765090Y-81665259D01*
X182676519Y-81644458D01*
X182603838Y-81612078D01*
X182544327Y-81568770D01*
X182496176Y-81513358D01*
X182460795Y-81445887D01*
X182438303Y-81363835D01*
X182430242Y-81263808D01*
X182437898Y-81166275D01*
X182459182Y-81086730D01*
X182492510Y-81021762D01*
X182537644Y-80968806D01*
X182595715Y-80926359D01*
X182669098Y-80894147D01*
X182761204Y-80873146D01*
X182876254Y-80865497D01*
X183652506Y-80865497D01*
X183652506Y-81022667D01*
X182884826Y-81022667D01*
X182790818Y-81029224D01*
X182718798Y-81046904D01*
X182664206Y-81073550D01*
X182623472Y-81108269D01*
X182594307Y-81151545D01*
X182575970Y-81205173D01*
X182569387Y-81272015D01*
X182575832Y-81335508D01*
X182593882Y-81386937D01*
X182622806Y-81428927D01*
X182663515Y-81463074D01*
X182718434Y-81489724D01*
X182791225Y-81507930D01*
X182886512Y-81515574D01*
X183654191Y-81515574D01*
X183654191Y-81672744D01*
G37*
G36*
X182449000Y-82354401D02*
G01*
X182449000Y-82196425D01*
X183515046Y-82196425D01*
X183515046Y-81853728D01*
X183654191Y-81853728D01*
X183654191Y-82696219D01*
X183515046Y-82696219D01*
X183515046Y-82354401D01*
X182449000Y-82354401D01*
G37*
G36*
X182977883Y-83219021D02*
G01*
X182977883Y-82901823D01*
X183105524Y-82901823D01*
X183105524Y-83219021D01*
X183424408Y-83219021D01*
X183424408Y-83345856D01*
X183105524Y-83345856D01*
X183105524Y-83663128D01*
X182977883Y-83663128D01*
X182977883Y-83345856D01*
X182662297Y-83345856D01*
X182662297Y-83219021D01*
X182977883Y-83219021D01*
G37*
G36*
X183654191Y-56443944D02*
G01*
X183654191Y-56611959D01*
X182449000Y-56209618D01*
X182449000Y-56052960D01*
X183654191Y-55652158D01*
X183654191Y-55817755D01*
X182891421Y-56060068D01*
X182779704Y-56092666D01*
X182627346Y-56129970D01*
X182742096Y-56158206D01*
X182896330Y-56203976D01*
X183654191Y-56443944D01*
G37*
G36*
X182449000Y-57458334D02*
G01*
X182449000Y-56817489D01*
X182554366Y-56817489D01*
X182570779Y-57059363D01*
X183532412Y-57059363D01*
X183548825Y-56817489D01*
X183654191Y-56817489D01*
X183654191Y-57458334D01*
X183548825Y-57458334D01*
X183532412Y-57217339D01*
X182570779Y-57217339D01*
X182554366Y-57458334D01*
X182449000Y-57458334D01*
G37*
G36*
X182449000Y-58539988D02*
G01*
X182449000Y-58359883D01*
X183442946Y-57884489D01*
X183442946Y-57881851D01*
X183231664Y-57893415D01*
X183102740Y-57896505D01*
X182449000Y-57896505D01*
X182449000Y-57750766D01*
X183654191Y-57750766D01*
X183654191Y-57929185D01*
X182665154Y-58403041D01*
X182665154Y-58403993D01*
X182994662Y-58392636D01*
X183654191Y-58392636D01*
X183654191Y-58539988D01*
X182449000Y-58539988D01*
G37*
G36*
X182977883Y-59089021D02*
G01*
X182977883Y-58771823D01*
X183105524Y-58771823D01*
X183105524Y-59089021D01*
X183424408Y-59089021D01*
X183424408Y-59215856D01*
X183105524Y-59215856D01*
X183105524Y-59533128D01*
X182977883Y-59533128D01*
X182977883Y-59215856D01*
X182662297Y-59215856D01*
X182662297Y-59089021D01*
X182977883Y-59089021D01*
G37*
G36*
X173679672Y-79832364D02*
G01*
X173801790Y-79852905D01*
X173899704Y-79884109D01*
X173977512Y-79924334D01*
X174038577Y-79972793D01*
X174085363Y-80029627D01*
X174119258Y-80095898D01*
X174140461Y-80173490D01*
X174147949Y-80264953D01*
X174141038Y-80348035D01*
X174121249Y-80420241D01*
X174089259Y-80483520D01*
X174044723Y-80539315D01*
X173986309Y-80588452D01*
X173922109Y-80626090D01*
X173846080Y-80656950D01*
X173756361Y-80680431D01*
X173650810Y-80695538D01*
X173527035Y-80700926D01*
X173403324Y-80695489D01*
X173297740Y-80680236D01*
X173207906Y-80656513D01*
X173131690Y-80625307D01*
X173067248Y-80587207D01*
X173008608Y-80537559D01*
X172963950Y-80481442D01*
X172931920Y-80418052D01*
X172912140Y-80345986D01*
X172905242Y-80263341D01*
X173044387Y-80263341D01*
X173052180Y-80330446D01*
X173074291Y-80385533D01*
X173110498Y-80431335D01*
X173162796Y-80469237D01*
X173221448Y-80495018D01*
X173298803Y-80515648D01*
X173399166Y-80529574D01*
X173527401Y-80534743D01*
X173657136Y-80529470D01*
X173757858Y-80515314D01*
X173834766Y-80494427D01*
X173892447Y-80468431D01*
X173943932Y-80430288D01*
X173979523Y-80384741D01*
X174001193Y-80330482D01*
X174008804Y-80264953D01*
X174002340Y-80205154D01*
X173983824Y-80154382D01*
X173953376Y-80110612D01*
X173909541Y-80072685D01*
X173849463Y-80040457D01*
X173769145Y-80014802D01*
X173663678Y-79997495D01*
X173527401Y-79991059D01*
X173390429Y-79997481D01*
X173284492Y-80014746D01*
X173203886Y-80040322D01*
X173143659Y-80072424D01*
X173099773Y-80110159D01*
X173069330Y-80153652D01*
X173050838Y-80204042D01*
X173044387Y-80263341D01*
X172905242Y-80263341D01*
X172912737Y-80172455D01*
X172933972Y-80095292D01*
X172967950Y-80029319D01*
X173014905Y-79972672D01*
X173076271Y-79924313D01*
X173154560Y-79884126D01*
X173253185Y-79852923D01*
X173376295Y-79832371D01*
X173528647Y-79824876D01*
X173679672Y-79832364D01*
G37*
G36*
X174129191Y-81672744D02*
G01*
X173347956Y-81672744D01*
X173240090Y-81665259D01*
X173151519Y-81644458D01*
X173078838Y-81612078D01*
X173019327Y-81568770D01*
X172971176Y-81513358D01*
X172935795Y-81445887D01*
X172913303Y-81363835D01*
X172905242Y-81263808D01*
X172912898Y-81166275D01*
X172934182Y-81086730D01*
X172967510Y-81021762D01*
X173012644Y-80968806D01*
X173070715Y-80926359D01*
X173144098Y-80894147D01*
X173236204Y-80873146D01*
X173351254Y-80865497D01*
X174127506Y-80865497D01*
X174127506Y-81022667D01*
X173359826Y-81022667D01*
X173265818Y-81029224D01*
X173193798Y-81046904D01*
X173139206Y-81073550D01*
X173098472Y-81108269D01*
X173069307Y-81151545D01*
X173050970Y-81205173D01*
X173044387Y-81272015D01*
X173050832Y-81335508D01*
X173068882Y-81386937D01*
X173097806Y-81428927D01*
X173138515Y-81463074D01*
X173193434Y-81489724D01*
X173266225Y-81507930D01*
X173361512Y-81515574D01*
X174129191Y-81515574D01*
X174129191Y-81672744D01*
G37*
G36*
X172924000Y-82354401D02*
G01*
X172924000Y-82196425D01*
X173990046Y-82196425D01*
X173990046Y-81853728D01*
X174129191Y-81853728D01*
X174129191Y-82696219D01*
X173990046Y-82696219D01*
X173990046Y-82354401D01*
X172924000Y-82354401D01*
G37*
G36*
X173306777Y-83010780D02*
G01*
X173449219Y-83010780D01*
X173449219Y-83555710D01*
X173306777Y-83555710D01*
X173306777Y-83010780D01*
G37*
D10*
X157336261Y-69940057D02*
X157241023Y-69892438D01*
X157241023Y-69892438D02*
X157145785Y-69797200D01*
X157145785Y-69797200D02*
X157002928Y-69654342D01*
X157002928Y-69654342D02*
X156907690Y-69606723D01*
X156907690Y-69606723D02*
X156812452Y-69606723D01*
X156860071Y-69844819D02*
X156764833Y-69797200D01*
X156764833Y-69797200D02*
X156669595Y-69701961D01*
X156669595Y-69701961D02*
X156621976Y-69511485D01*
X156621976Y-69511485D02*
X156621976Y-69178152D01*
X156621976Y-69178152D02*
X156669595Y-68987676D01*
X156669595Y-68987676D02*
X156764833Y-68892438D01*
X156764833Y-68892438D02*
X156860071Y-68844819D01*
X156860071Y-68844819D02*
X157050547Y-68844819D01*
X157050547Y-68844819D02*
X157145785Y-68892438D01*
X157145785Y-68892438D02*
X157241023Y-68987676D01*
X157241023Y-68987676D02*
X157288642Y-69178152D01*
X157288642Y-69178152D02*
X157288642Y-69511485D01*
X157288642Y-69511485D02*
X157241023Y-69701961D01*
X157241023Y-69701961D02*
X157145785Y-69797200D01*
X157145785Y-69797200D02*
X157050547Y-69844819D01*
X157050547Y-69844819D02*
X156860071Y-69844819D01*
X158241023Y-69844819D02*
X157669595Y-69844819D01*
X157955309Y-69844819D02*
X157955309Y-68844819D01*
X157955309Y-68844819D02*
X157860071Y-68987676D01*
X157860071Y-68987676D02*
X157764833Y-69082914D01*
X157764833Y-69082914D02*
X157669595Y-69130533D01*
X154764833Y-64759104D02*
X155241023Y-64759104D01*
X154669595Y-65044819D02*
X155002928Y-64044819D01*
X155002928Y-64044819D02*
X155336261Y-65044819D01*
X155860071Y-64044819D02*
X156050547Y-64044819D01*
X156050547Y-64044819D02*
X156145785Y-64092438D01*
X156145785Y-64092438D02*
X156241023Y-64187676D01*
X156241023Y-64187676D02*
X156288642Y-64378152D01*
X156288642Y-64378152D02*
X156288642Y-64711485D01*
X156288642Y-64711485D02*
X156241023Y-64901961D01*
X156241023Y-64901961D02*
X156145785Y-64997200D01*
X156145785Y-64997200D02*
X156050547Y-65044819D01*
X156050547Y-65044819D02*
X155860071Y-65044819D01*
X155860071Y-65044819D02*
X155764833Y-64997200D01*
X155764833Y-64997200D02*
X155669595Y-64901961D01*
X155669595Y-64901961D02*
X155621976Y-64711485D01*
X155621976Y-64711485D02*
X155621976Y-64378152D01*
X155621976Y-64378152D02*
X155669595Y-64187676D01*
X155669595Y-64187676D02*
X155764833Y-64092438D01*
X155764833Y-64092438D02*
X155860071Y-64044819D01*
X156621976Y-64044819D02*
X157241023Y-64044819D01*
X157241023Y-64044819D02*
X156907690Y-64425771D01*
X156907690Y-64425771D02*
X157050547Y-64425771D01*
X157050547Y-64425771D02*
X157145785Y-64473390D01*
X157145785Y-64473390D02*
X157193404Y-64521009D01*
X157193404Y-64521009D02*
X157241023Y-64616247D01*
X157241023Y-64616247D02*
X157241023Y-64854342D01*
X157241023Y-64854342D02*
X157193404Y-64949580D01*
X157193404Y-64949580D02*
X157145785Y-64997200D01*
X157145785Y-64997200D02*
X157050547Y-65044819D01*
X157050547Y-65044819D02*
X156764833Y-65044819D01*
X156764833Y-65044819D02*
X156669595Y-64997200D01*
X156669595Y-64997200D02*
X156621976Y-64949580D01*
X158098166Y-64378152D02*
X158098166Y-65044819D01*
X157860071Y-63997200D02*
X157621976Y-64711485D01*
X157621976Y-64711485D02*
X158241023Y-64711485D01*
X158812452Y-64044819D02*
X158907690Y-64044819D01*
X158907690Y-64044819D02*
X159002928Y-64092438D01*
X159002928Y-64092438D02*
X159050547Y-64140057D01*
X159050547Y-64140057D02*
X159098166Y-64235295D01*
X159098166Y-64235295D02*
X159145785Y-64425771D01*
X159145785Y-64425771D02*
X159145785Y-64663866D01*
X159145785Y-64663866D02*
X159098166Y-64854342D01*
X159098166Y-64854342D02*
X159050547Y-64949580D01*
X159050547Y-64949580D02*
X159002928Y-64997200D01*
X159002928Y-64997200D02*
X158907690Y-65044819D01*
X158907690Y-65044819D02*
X158812452Y-65044819D01*
X158812452Y-65044819D02*
X158717214Y-64997200D01*
X158717214Y-64997200D02*
X158669595Y-64949580D01*
X158669595Y-64949580D02*
X158621976Y-64854342D01*
X158621976Y-64854342D02*
X158574357Y-64663866D01*
X158574357Y-64663866D02*
X158574357Y-64425771D01*
X158574357Y-64425771D02*
X158621976Y-64235295D01*
X158621976Y-64235295D02*
X158669595Y-64140057D01*
X158669595Y-64140057D02*
X158717214Y-64092438D01*
X158717214Y-64092438D02*
X158812452Y-64044819D01*
X160098166Y-65044819D02*
X159526738Y-65044819D01*
X159812452Y-65044819D02*
X159812452Y-64044819D01*
X159812452Y-64044819D02*
X159717214Y-64187676D01*
X159717214Y-64187676D02*
X159621976Y-64282914D01*
X159621976Y-64282914D02*
X159526738Y-64330533D01*
X168323819Y-76088570D02*
X167323819Y-76088570D01*
X168323819Y-75612380D02*
X167323819Y-75612380D01*
X167323819Y-75612380D02*
X168323819Y-75040952D01*
X168323819Y-75040952D02*
X167323819Y-75040952D01*
X167323819Y-74088571D02*
X167323819Y-74564761D01*
X167323819Y-74564761D02*
X167800009Y-74612380D01*
X167800009Y-74612380D02*
X167752390Y-74564761D01*
X167752390Y-74564761D02*
X167704771Y-74469523D01*
X167704771Y-74469523D02*
X167704771Y-74231428D01*
X167704771Y-74231428D02*
X167752390Y-74136190D01*
X167752390Y-74136190D02*
X167800009Y-74088571D01*
X167800009Y-74088571D02*
X167895247Y-74040952D01*
X167895247Y-74040952D02*
X168133342Y-74040952D01*
X168133342Y-74040952D02*
X168228580Y-74088571D01*
X168228580Y-74088571D02*
X168276200Y-74136190D01*
X168276200Y-74136190D02*
X168323819Y-74231428D01*
X168323819Y-74231428D02*
X168323819Y-74469523D01*
X168323819Y-74469523D02*
X168276200Y-74564761D01*
X168276200Y-74564761D02*
X168228580Y-74612380D01*
X167752390Y-73469523D02*
X167704771Y-73564761D01*
X167704771Y-73564761D02*
X167657152Y-73612380D01*
X167657152Y-73612380D02*
X167561914Y-73659999D01*
X167561914Y-73659999D02*
X167514295Y-73659999D01*
X167514295Y-73659999D02*
X167419057Y-73612380D01*
X167419057Y-73612380D02*
X167371438Y-73564761D01*
X167371438Y-73564761D02*
X167323819Y-73469523D01*
X167323819Y-73469523D02*
X167323819Y-73279047D01*
X167323819Y-73279047D02*
X167371438Y-73183809D01*
X167371438Y-73183809D02*
X167419057Y-73136190D01*
X167419057Y-73136190D02*
X167514295Y-73088571D01*
X167514295Y-73088571D02*
X167561914Y-73088571D01*
X167561914Y-73088571D02*
X167657152Y-73136190D01*
X167657152Y-73136190D02*
X167704771Y-73183809D01*
X167704771Y-73183809D02*
X167752390Y-73279047D01*
X167752390Y-73279047D02*
X167752390Y-73469523D01*
X167752390Y-73469523D02*
X167800009Y-73564761D01*
X167800009Y-73564761D02*
X167847628Y-73612380D01*
X167847628Y-73612380D02*
X167942866Y-73659999D01*
X167942866Y-73659999D02*
X168133342Y-73659999D01*
X168133342Y-73659999D02*
X168228580Y-73612380D01*
X168228580Y-73612380D02*
X168276200Y-73564761D01*
X168276200Y-73564761D02*
X168323819Y-73469523D01*
X168323819Y-73469523D02*
X168323819Y-73279047D01*
X168323819Y-73279047D02*
X168276200Y-73183809D01*
X168276200Y-73183809D02*
X168228580Y-73136190D01*
X168228580Y-73136190D02*
X168133342Y-73088571D01*
X168133342Y-73088571D02*
X167942866Y-73088571D01*
X167942866Y-73088571D02*
X167847628Y-73136190D01*
X167847628Y-73136190D02*
X167800009Y-73183809D01*
X167800009Y-73183809D02*
X167752390Y-73279047D01*
X167419057Y-72707618D02*
X167371438Y-72659999D01*
X167371438Y-72659999D02*
X167323819Y-72564761D01*
X167323819Y-72564761D02*
X167323819Y-72326666D01*
X167323819Y-72326666D02*
X167371438Y-72231428D01*
X167371438Y-72231428D02*
X167419057Y-72183809D01*
X167419057Y-72183809D02*
X167514295Y-72136190D01*
X167514295Y-72136190D02*
X167609533Y-72136190D01*
X167609533Y-72136190D02*
X167752390Y-72183809D01*
X167752390Y-72183809D02*
X168323819Y-72755237D01*
X168323819Y-72755237D02*
X168323819Y-72136190D01*
X167419057Y-71755237D02*
X167371438Y-71707618D01*
X167371438Y-71707618D02*
X167323819Y-71612380D01*
X167323819Y-71612380D02*
X167323819Y-71374285D01*
X167323819Y-71374285D02*
X167371438Y-71279047D01*
X167371438Y-71279047D02*
X167419057Y-71231428D01*
X167419057Y-71231428D02*
X167514295Y-71183809D01*
X167514295Y-71183809D02*
X167609533Y-71183809D01*
X167609533Y-71183809D02*
X167752390Y-71231428D01*
X167752390Y-71231428D02*
X168323819Y-71802856D01*
X168323819Y-71802856D02*
X168323819Y-71183809D01*
X166738819Y-67571904D02*
X165738819Y-67571904D01*
X166738819Y-67000476D02*
X166167390Y-67429047D01*
X165738819Y-67000476D02*
X166310247Y-67571904D01*
%TO.C,U3*%
D11*
X114935000Y-60960000D02*
X121285000Y-60960000D01*
X121285000Y-67310000D01*
X114935000Y-67310000D01*
X114935000Y-60960000D01*
X141605000Y-72390000D02*
X141605000Y-55880000D01*
X141605000Y-55880000D02*
X116205000Y-55880000D01*
X116205000Y-72390000D02*
X141605000Y-72390000D01*
X116205000Y-67310000D02*
X116205000Y-72390000D01*
X116205000Y-60960000D02*
X114935000Y-60960000D01*
X116205000Y-55880000D02*
X116205000Y-60960000D01*
X114935000Y-67310000D02*
X116205000Y-67310000D01*
X114935000Y-60960000D02*
X114935000Y-67310000D01*
D13*
%TO.C,U2*%
X152470000Y-92210000D02*
X152470000Y-85590000D01*
X152470000Y-88900000D02*
X151460000Y-88900000D01*
X152470000Y-85590000D02*
X149760000Y-85590000D01*
X151460000Y-91500000D02*
X143260000Y-91500000D01*
X151460000Y-87200000D02*
X151460000Y-91500000D01*
X149760000Y-86590000D02*
X148160000Y-86590000D01*
X149760000Y-85590000D02*
X149760000Y-86590000D01*
X148160000Y-86590000D02*
X148160000Y-85990000D01*
X148160000Y-85990000D02*
X146560000Y-85990000D01*
X146560000Y-86590000D02*
X144960000Y-86590000D01*
X146560000Y-85990000D02*
X146560000Y-86590000D01*
X144960000Y-86590000D02*
X144960000Y-85590000D01*
X144960000Y-85590000D02*
X142250000Y-85590000D01*
X143260000Y-89500000D02*
X143260000Y-87200000D01*
X143260000Y-87200000D02*
X151460000Y-87200000D01*
X143200000Y-85290000D02*
X141950000Y-85290000D01*
X142250000Y-92210000D02*
X152470000Y-92210000D01*
X142250000Y-88900000D02*
X143260000Y-88900000D01*
X142250000Y-85590000D02*
X142250000Y-92210000D01*
X141950000Y-85290000D02*
X141950000Y-86540000D01*
%TO.C,U5*%
X163212000Y-89154000D02*
X163212000Y-83964000D01*
X165972000Y-83964000D02*
X163212000Y-83964000D01*
X165972000Y-89154000D02*
X163212000Y-89154000D01*
X165972000Y-89154000D02*
X165972000Y-83964000D01*
X165972000Y-90424000D02*
X165972000Y-91804000D01*
X165972000Y-91804000D02*
X164592000Y-91804000D01*
%TO.C,J1*%
X144450000Y-72590000D02*
X144450000Y-73840000D01*
X144750000Y-72890000D02*
X144750000Y-79510000D01*
X144750000Y-76200000D02*
X145760000Y-76200000D01*
X144750000Y-79510000D02*
X152470000Y-79510000D01*
X145700000Y-72590000D02*
X144450000Y-72590000D01*
X145760000Y-74500000D02*
X145760000Y-78800000D01*
X145760000Y-78800000D02*
X151460000Y-78800000D01*
X147010000Y-72890000D02*
X144750000Y-72890000D01*
X147010000Y-73890000D02*
X147010000Y-72890000D01*
X148210000Y-73290000D02*
X148210000Y-73890000D01*
X148210000Y-73890000D02*
X147010000Y-73890000D01*
X149010000Y-73290000D02*
X148210000Y-73290000D01*
X149010000Y-73890000D02*
X149010000Y-73290000D01*
X150210000Y-72890000D02*
X150210000Y-73890000D01*
X150210000Y-73890000D02*
X149010000Y-73890000D01*
X151460000Y-74500000D02*
X145760000Y-74500000D01*
X151460000Y-78800000D02*
X151460000Y-74500000D01*
X152470000Y-72890000D02*
X150210000Y-72890000D01*
X152470000Y-76200000D02*
X151460000Y-76200000D01*
X152470000Y-79510000D02*
X152470000Y-72890000D01*
%TO.C,C4*%
X171014000Y-89134000D02*
X177474000Y-89134000D01*
X171014000Y-89174000D02*
X177474000Y-89174000D01*
X171015000Y-89094000D02*
X177473000Y-89094000D01*
X171016000Y-89054000D02*
X177472000Y-89054000D01*
X171018000Y-89014000D02*
X177470000Y-89014000D01*
X171020000Y-88974000D02*
X177468000Y-88974000D01*
X171023000Y-88934000D02*
X173204000Y-88934000D01*
X171026000Y-88894000D02*
X173204000Y-88894000D01*
X171030000Y-88854000D02*
X173204000Y-88854000D01*
X171034000Y-88814000D02*
X173204000Y-88814000D01*
X171039000Y-88774000D02*
X173204000Y-88774000D01*
X171044000Y-88734000D02*
X173204000Y-88734000D01*
X171049000Y-88694000D02*
X173204000Y-88694000D01*
X171056000Y-88654000D02*
X173204000Y-88654000D01*
X171062000Y-88614000D02*
X173204000Y-88614000D01*
X171070000Y-88574000D02*
X173204000Y-88574000D01*
X171077000Y-88534000D02*
X173204000Y-88534000D01*
X171085000Y-88494000D02*
X173204000Y-88494000D01*
X171094000Y-88454000D02*
X173204000Y-88454000D01*
X171104000Y-88414000D02*
X173204000Y-88414000D01*
X171113000Y-88374000D02*
X173204000Y-88374000D01*
X171124000Y-88334000D02*
X173204000Y-88334000D01*
X171135000Y-88294000D02*
X173204000Y-88294000D01*
X171146000Y-88254000D02*
X173204000Y-88254000D01*
X171158000Y-88214000D02*
X173204000Y-88214000D01*
X171171000Y-88174000D02*
X173204000Y-88174000D01*
X171184000Y-88134000D02*
X173204000Y-88134000D01*
X171197000Y-88094000D02*
X173204000Y-88094000D01*
X171212000Y-88054000D02*
X173204000Y-88054000D01*
X171227000Y-88014000D02*
X173204000Y-88014000D01*
X171242000Y-87974000D02*
X173204000Y-87974000D01*
X171258000Y-87934000D02*
X173204000Y-87934000D01*
X171275000Y-87894000D02*
X173204000Y-87894000D01*
X171292000Y-87854000D02*
X173204000Y-87854000D01*
X171310000Y-87814000D02*
X173204000Y-87814000D01*
X171329000Y-87774000D02*
X173204000Y-87774000D01*
X171348000Y-87734000D02*
X173204000Y-87734000D01*
X171368000Y-87694000D02*
X173204000Y-87694000D01*
X171389000Y-87654000D02*
X173204000Y-87654000D01*
X171410000Y-87614000D02*
X173204000Y-87614000D01*
X171432000Y-87574000D02*
X173204000Y-87574000D01*
X171455000Y-87534000D02*
X173204000Y-87534000D01*
X171479000Y-87494000D02*
X173204000Y-87494000D01*
X171503000Y-87454000D02*
X173204000Y-87454000D01*
X171528000Y-87414000D02*
X173204000Y-87414000D01*
X171554000Y-87374000D02*
X173204000Y-87374000D01*
X171581000Y-87334000D02*
X173204000Y-87334000D01*
X171608000Y-87294000D02*
X173204000Y-87294000D01*
X171637000Y-87254000D02*
X173204000Y-87254000D01*
X171667000Y-87214000D02*
X173204000Y-87214000D01*
X171697000Y-87174000D02*
X173204000Y-87174000D01*
X171728000Y-87134000D02*
X173204000Y-87134000D01*
X171761000Y-87094000D02*
X173204000Y-87094000D01*
X171794000Y-87054000D02*
X173204000Y-87054000D01*
X171829000Y-87014000D02*
X173204000Y-87014000D01*
X171865000Y-86974000D02*
X173204000Y-86974000D01*
X171902000Y-86934000D02*
X173204000Y-86934000D01*
X171940000Y-86894000D02*
X173204000Y-86894000D01*
X171980000Y-86854000D02*
X176508000Y-86854000D01*
X172021000Y-86814000D02*
X176467000Y-86814000D01*
X172063000Y-86774000D02*
X176425000Y-86774000D01*
X172090000Y-92359241D02*
X172720000Y-92359241D01*
X172107000Y-86734000D02*
X176381000Y-86734000D01*
X172153000Y-86694000D02*
X176335000Y-86694000D01*
X172200000Y-86654000D02*
X176288000Y-86654000D01*
X172249000Y-86614000D02*
X176239000Y-86614000D01*
X172301000Y-86574000D02*
X176187000Y-86574000D01*
X172354000Y-86534000D02*
X176134000Y-86534000D01*
X172405000Y-92674241D02*
X172405000Y-92044241D01*
X172410000Y-86494000D02*
X176078000Y-86494000D01*
X172469000Y-86454000D02*
X176019000Y-86454000D01*
X172530000Y-86414000D02*
X175958000Y-86414000D01*
X172595000Y-86374000D02*
X175893000Y-86374000D01*
X172663000Y-86334000D02*
X175825000Y-86334000D01*
X172735000Y-86294000D02*
X175753000Y-86294000D01*
X172812000Y-86254000D02*
X175676000Y-86254000D01*
X172894000Y-86214000D02*
X175594000Y-86214000D01*
X172983000Y-86174000D02*
X175505000Y-86174000D01*
X173079000Y-86134000D02*
X175409000Y-86134000D01*
X173186000Y-86094000D02*
X175302000Y-86094000D01*
X173305000Y-86054000D02*
X175183000Y-86054000D01*
X173443000Y-86014000D02*
X175045000Y-86014000D01*
X173611000Y-85974000D02*
X174877000Y-85974000D01*
X173842000Y-85934000D02*
X174646000Y-85934000D01*
X175284000Y-86894000D02*
X176548000Y-86894000D01*
X175284000Y-86934000D02*
X176586000Y-86934000D01*
X175284000Y-86974000D02*
X176623000Y-86974000D01*
X175284000Y-87014000D02*
X176659000Y-87014000D01*
X175284000Y-87054000D02*
X176694000Y-87054000D01*
X175284000Y-87094000D02*
X176727000Y-87094000D01*
X175284000Y-87134000D02*
X176760000Y-87134000D01*
X175284000Y-87174000D02*
X176791000Y-87174000D01*
X175284000Y-87214000D02*
X176821000Y-87214000D01*
X175284000Y-87254000D02*
X176851000Y-87254000D01*
X175284000Y-87294000D02*
X176880000Y-87294000D01*
X175284000Y-87334000D02*
X176907000Y-87334000D01*
X175284000Y-87374000D02*
X176934000Y-87374000D01*
X175284000Y-87414000D02*
X176960000Y-87414000D01*
X175284000Y-87454000D02*
X176985000Y-87454000D01*
X175284000Y-87494000D02*
X177009000Y-87494000D01*
X175284000Y-87534000D02*
X177033000Y-87534000D01*
X175284000Y-87574000D02*
X177056000Y-87574000D01*
X175284000Y-87614000D02*
X177078000Y-87614000D01*
X175284000Y-87654000D02*
X177099000Y-87654000D01*
X175284000Y-87694000D02*
X177120000Y-87694000D01*
X175284000Y-87734000D02*
X177140000Y-87734000D01*
X175284000Y-87774000D02*
X177159000Y-87774000D01*
X175284000Y-87814000D02*
X177178000Y-87814000D01*
X175284000Y-87854000D02*
X177196000Y-87854000D01*
X175284000Y-87894000D02*
X177213000Y-87894000D01*
X175284000Y-87934000D02*
X177230000Y-87934000D01*
X175284000Y-87974000D02*
X177246000Y-87974000D01*
X175284000Y-88014000D02*
X177261000Y-88014000D01*
X175284000Y-88054000D02*
X177276000Y-88054000D01*
X175284000Y-88094000D02*
X177291000Y-88094000D01*
X175284000Y-88134000D02*
X177304000Y-88134000D01*
X175284000Y-88174000D02*
X177317000Y-88174000D01*
X175284000Y-88214000D02*
X177330000Y-88214000D01*
X175284000Y-88254000D02*
X177342000Y-88254000D01*
X175284000Y-88294000D02*
X177353000Y-88294000D01*
X175284000Y-88334000D02*
X177364000Y-88334000D01*
X175284000Y-88374000D02*
X177375000Y-88374000D01*
X175284000Y-88414000D02*
X177384000Y-88414000D01*
X175284000Y-88454000D02*
X177394000Y-88454000D01*
X175284000Y-88494000D02*
X177403000Y-88494000D01*
X175284000Y-88534000D02*
X177411000Y-88534000D01*
X175284000Y-88574000D02*
X177418000Y-88574000D01*
X175284000Y-88614000D02*
X177426000Y-88614000D01*
X175284000Y-88654000D02*
X177432000Y-88654000D01*
X175284000Y-88694000D02*
X177439000Y-88694000D01*
X175284000Y-88734000D02*
X177444000Y-88734000D01*
X175284000Y-88774000D02*
X177449000Y-88774000D01*
X175284000Y-88814000D02*
X177454000Y-88814000D01*
X175284000Y-88854000D02*
X177458000Y-88854000D01*
X175284000Y-88894000D02*
X177462000Y-88894000D01*
X175284000Y-88934000D02*
X177465000Y-88934000D01*
X177514000Y-89174000D02*
G75*
G02*
X170974000Y-89174000I-3270000J0D01*
G01*
X170974000Y-89174000D02*
G75*
G02*
X177514000Y-89174000I3270000J0D01*
G01*
%TO.C,R1*%
X156364000Y-72295000D02*
X156364000Y-78835000D01*
X156364000Y-78835000D02*
X156694000Y-78835000D01*
X156694000Y-72295000D02*
X156364000Y-72295000D01*
X158774000Y-72295000D02*
X159104000Y-72295000D01*
X159104000Y-72295000D02*
X159104000Y-78835000D01*
X159104000Y-78835000D02*
X158774000Y-78835000D01*
D11*
%TO.C,U1*%
X115190000Y-80010000D02*
X115190000Y-87630000D01*
X115190000Y-87630000D02*
X116460000Y-87630000D01*
X116460000Y-74930000D02*
X116460000Y-79375000D01*
X116460000Y-80010000D02*
X115190000Y-80010000D01*
X116460000Y-88265000D02*
X116460000Y-92710000D01*
X116460000Y-92710000D02*
X139320000Y-92710000D01*
X139320000Y-74930000D02*
X116460000Y-74930000D01*
X139320000Y-92710000D02*
X139320000Y-74930000D01*
X115190000Y-87630000D02*
X120270000Y-87630000D01*
X120270000Y-80010000D01*
X115190000Y-80010000D01*
X115190000Y-87630000D01*
X138050000Y-86995000D02*
X139320000Y-86995000D01*
X139320000Y-80645000D01*
X138050000Y-80645000D01*
X138050000Y-86995000D01*
X122175000Y-81280000D02*
G75*
G02*
X120905000Y-81280000I-635000J0D01*
G01*
X120905000Y-81280000D02*
G75*
G02*
X122175000Y-81280000I635000J0D01*
G01*
X122175000Y-86360000D02*
G75*
G02*
X120905000Y-86360000I-635000J0D01*
G01*
X120905000Y-86360000D02*
G75*
G02*
X122175000Y-86360000I635000J0D01*
G01*
D13*
%TO.C,J2*%
X144450000Y-59890000D02*
X144450000Y-61140000D01*
X144750000Y-60190000D02*
X144750000Y-66810000D01*
X144750000Y-63500000D02*
X145760000Y-63500000D01*
X144750000Y-66810000D02*
X152470000Y-66810000D01*
X145700000Y-59890000D02*
X144450000Y-59890000D01*
X145760000Y-61800000D02*
X145760000Y-66100000D01*
X145760000Y-66100000D02*
X151460000Y-66100000D01*
X147010000Y-60190000D02*
X144750000Y-60190000D01*
X147010000Y-61190000D02*
X147010000Y-60190000D01*
X148210000Y-60590000D02*
X148210000Y-61190000D01*
X148210000Y-61190000D02*
X147010000Y-61190000D01*
X149010000Y-60590000D02*
X148210000Y-60590000D01*
X149010000Y-61190000D02*
X149010000Y-60590000D01*
X150210000Y-60190000D02*
X150210000Y-61190000D01*
X150210000Y-61190000D02*
X149010000Y-61190000D01*
X151460000Y-61800000D02*
X145760000Y-61800000D01*
X151460000Y-66100000D02*
X151460000Y-61800000D01*
X152470000Y-60190000D02*
X150210000Y-60190000D01*
X152470000Y-63500000D02*
X151460000Y-63500000D01*
X152470000Y-66810000D02*
X152470000Y-60190000D01*
%TO.C,C1*%
X161504000Y-59162000D02*
X166664000Y-59162000D01*
X161504000Y-59202000D02*
X166664000Y-59202000D01*
X161505000Y-59122000D02*
X166663000Y-59122000D01*
X161507000Y-59082000D02*
X166661000Y-59082000D01*
X161509000Y-59042000D02*
X166659000Y-59042000D01*
X161512000Y-59002000D02*
X166656000Y-59002000D01*
X161515000Y-58962000D02*
X163044000Y-58962000D01*
X161519000Y-58922000D02*
X163044000Y-58922000D01*
X161524000Y-58882000D02*
X163044000Y-58882000D01*
X161529000Y-58842000D02*
X163044000Y-58842000D01*
X161535000Y-58802000D02*
X163044000Y-58802000D01*
X161541000Y-58762000D02*
X163044000Y-58762000D01*
X161548000Y-58722000D02*
X163044000Y-58722000D01*
X161556000Y-58682000D02*
X163044000Y-58682000D01*
X161565000Y-58642000D02*
X163044000Y-58642000D01*
X161574000Y-58602000D02*
X163044000Y-58602000D01*
X161583000Y-58562000D02*
X163044000Y-58562000D01*
X161594000Y-58522000D02*
X163044000Y-58522000D01*
X161605000Y-58482000D02*
X163044000Y-58482000D01*
X161617000Y-58442000D02*
X163044000Y-58442000D01*
X161629000Y-58402000D02*
X163044000Y-58402000D01*
X161642000Y-58362000D02*
X163044000Y-58362000D01*
X161656000Y-58322000D02*
X163044000Y-58322000D01*
X161671000Y-58282000D02*
X163044000Y-58282000D01*
X161686000Y-58242000D02*
X163044000Y-58242000D01*
X161702000Y-58202000D02*
X163044000Y-58202000D01*
X161719000Y-58162000D02*
X163044000Y-58162000D01*
X161737000Y-58122000D02*
X163044000Y-58122000D01*
X161755000Y-58082000D02*
X163044000Y-58082000D01*
X161775000Y-58042000D02*
X163044000Y-58042000D01*
X161795000Y-58002000D02*
X163044000Y-58002000D01*
X161816000Y-57962000D02*
X163044000Y-57962000D01*
X161838000Y-57922000D02*
X163044000Y-57922000D01*
X161861000Y-57882000D02*
X163044000Y-57882000D01*
X161885000Y-57842000D02*
X163044000Y-57842000D01*
X161909000Y-57802000D02*
X163044000Y-57802000D01*
X161935000Y-57762000D02*
X163044000Y-57762000D01*
X161962000Y-57722000D02*
X163044000Y-57722000D01*
X161990000Y-57682000D02*
X163044000Y-57682000D01*
X162019000Y-57642000D02*
X163044000Y-57642000D01*
X162049000Y-57602000D02*
X163044000Y-57602000D01*
X162081000Y-57562000D02*
X163044000Y-57562000D01*
X162114000Y-57522000D02*
X163044000Y-57522000D01*
X162148000Y-57482000D02*
X163044000Y-57482000D01*
X162183000Y-57442000D02*
X163044000Y-57442000D01*
X162220000Y-57402000D02*
X163044000Y-57402000D01*
X162259000Y-57362000D02*
X163044000Y-57362000D01*
X162299000Y-57322000D02*
X163044000Y-57322000D01*
X162341000Y-57282000D02*
X163044000Y-57282000D01*
X162359000Y-61756775D02*
X162859000Y-61756775D01*
X162385000Y-57242000D02*
X163044000Y-57242000D01*
X162432000Y-57202000D02*
X163044000Y-57202000D01*
X162480000Y-57162000D02*
X163044000Y-57162000D01*
X162531000Y-57122000D02*
X163044000Y-57122000D01*
X162585000Y-57082000D02*
X163044000Y-57082000D01*
X162609000Y-62006775D02*
X162609000Y-61506775D01*
X162641000Y-57042000D02*
X163044000Y-57042000D01*
X162701000Y-57002000D02*
X163044000Y-57002000D01*
X162765000Y-56962000D02*
X163044000Y-56962000D01*
X162833000Y-56922000D02*
X163044000Y-56922000D01*
X162907000Y-56882000D02*
X165261000Y-56882000D01*
X162986000Y-56842000D02*
X165182000Y-56842000D01*
X163073000Y-56802000D02*
X165095000Y-56802000D01*
X163170000Y-56762000D02*
X164998000Y-56762000D01*
X163279000Y-56722000D02*
X164889000Y-56722000D01*
X163407000Y-56682000D02*
X164761000Y-56682000D01*
X163567000Y-56642000D02*
X164601000Y-56642000D01*
X163801000Y-56602000D02*
X164367000Y-56602000D01*
X165124000Y-56922000D02*
X165335000Y-56922000D01*
X165124000Y-56962000D02*
X165403000Y-56962000D01*
X165124000Y-57002000D02*
X165467000Y-57002000D01*
X165124000Y-57042000D02*
X165527000Y-57042000D01*
X165124000Y-57082000D02*
X165583000Y-57082000D01*
X165124000Y-57122000D02*
X165637000Y-57122000D01*
X165124000Y-57162000D02*
X165688000Y-57162000D01*
X165124000Y-57202000D02*
X165736000Y-57202000D01*
X165124000Y-57242000D02*
X165783000Y-57242000D01*
X165124000Y-57282000D02*
X165827000Y-57282000D01*
X165124000Y-57322000D02*
X165869000Y-57322000D01*
X165124000Y-57362000D02*
X165909000Y-57362000D01*
X165124000Y-57402000D02*
X165948000Y-57402000D01*
X165124000Y-57442000D02*
X165985000Y-57442000D01*
X165124000Y-57482000D02*
X166020000Y-57482000D01*
X165124000Y-57522000D02*
X166054000Y-57522000D01*
X165124000Y-57562000D02*
X166087000Y-57562000D01*
X165124000Y-57602000D02*
X166119000Y-57602000D01*
X165124000Y-57642000D02*
X166149000Y-57642000D01*
X165124000Y-57682000D02*
X166178000Y-57682000D01*
X165124000Y-57722000D02*
X166206000Y-57722000D01*
X165124000Y-57762000D02*
X166233000Y-57762000D01*
X165124000Y-57802000D02*
X166259000Y-57802000D01*
X165124000Y-57842000D02*
X166283000Y-57842000D01*
X165124000Y-57882000D02*
X166307000Y-57882000D01*
X165124000Y-57922000D02*
X166330000Y-57922000D01*
X165124000Y-57962000D02*
X166352000Y-57962000D01*
X165124000Y-58002000D02*
X166373000Y-58002000D01*
X165124000Y-58042000D02*
X166393000Y-58042000D01*
X165124000Y-58082000D02*
X166413000Y-58082000D01*
X165124000Y-58122000D02*
X166431000Y-58122000D01*
X165124000Y-58162000D02*
X166449000Y-58162000D01*
X165124000Y-58202000D02*
X166466000Y-58202000D01*
X165124000Y-58242000D02*
X166482000Y-58242000D01*
X165124000Y-58282000D02*
X166497000Y-58282000D01*
X165124000Y-58322000D02*
X166512000Y-58322000D01*
X165124000Y-58362000D02*
X166526000Y-58362000D01*
X165124000Y-58402000D02*
X166539000Y-58402000D01*
X165124000Y-58442000D02*
X166551000Y-58442000D01*
X165124000Y-58482000D02*
X166563000Y-58482000D01*
X165124000Y-58522000D02*
X166574000Y-58522000D01*
X165124000Y-58562000D02*
X166585000Y-58562000D01*
X165124000Y-58602000D02*
X166594000Y-58602000D01*
X165124000Y-58642000D02*
X166603000Y-58642000D01*
X165124000Y-58682000D02*
X166612000Y-58682000D01*
X165124000Y-58722000D02*
X166620000Y-58722000D01*
X165124000Y-58762000D02*
X166627000Y-58762000D01*
X165124000Y-58802000D02*
X166633000Y-58802000D01*
X165124000Y-58842000D02*
X166639000Y-58842000D01*
X165124000Y-58882000D02*
X166644000Y-58882000D01*
X165124000Y-58922000D02*
X166649000Y-58922000D01*
X165124000Y-58962000D02*
X166653000Y-58962000D01*
X166704000Y-59202000D02*
G75*
G02*
X161464000Y-59202000I-2620000J0D01*
G01*
X161464000Y-59202000D02*
G75*
G02*
X166704000Y-59202000I2620000J0D01*
G01*
%TO.C,C3*%
X182018000Y-86486379D02*
X182355000Y-86486379D01*
X182018000Y-91726379D02*
X182018000Y-86486379D01*
X182355000Y-91726379D02*
X182018000Y-91726379D01*
X184421000Y-86486379D02*
X184758000Y-86486379D01*
X184758000Y-86486379D02*
X184758000Y-91726379D01*
X184758000Y-91726379D02*
X184421000Y-91726379D01*
%TO.C,C6*%
X156618000Y-86240000D02*
X156955000Y-86240000D01*
X156618000Y-91480000D02*
X156618000Y-86240000D01*
X156955000Y-91480000D02*
X156618000Y-91480000D01*
X159021000Y-86240000D02*
X159358000Y-86240000D01*
X159358000Y-86240000D02*
X159358000Y-91480000D01*
X159358000Y-91480000D02*
X159021000Y-91480000D01*
%TO.C,C2*%
X155602000Y-56348000D02*
X155939000Y-56348000D01*
X155602000Y-61588000D02*
X155602000Y-56348000D01*
X155939000Y-61588000D02*
X155602000Y-61588000D01*
X158005000Y-56348000D02*
X158342000Y-56348000D01*
X158342000Y-56348000D02*
X158342000Y-61588000D01*
X158342000Y-61588000D02*
X158005000Y-61588000D01*
D11*
%TO.C,U4*%
X168910000Y-54778937D02*
X187180000Y-54778937D01*
X168910000Y-84778937D02*
X168910000Y-54778937D01*
X187180000Y-54778937D02*
X187180000Y-84778937D01*
X187180000Y-84778937D02*
X168910000Y-84778937D01*
D13*
%TO.C,Q1*%
X156671500Y-65430000D02*
X158191500Y-65430000D01*
X156671500Y-66430000D02*
X156671500Y-65430000D01*
X156671500Y-68550000D02*
X156671500Y-67550000D01*
X158191500Y-65430000D02*
X158191500Y-65480000D01*
X158191500Y-66600000D02*
X158191500Y-67380000D01*
X158191500Y-68500000D02*
X158191500Y-68550000D01*
X158191500Y-68550000D02*
X156671500Y-68550000D01*
X158731500Y-67370000D02*
X158491500Y-67040000D01*
X158971500Y-67040000D01*
X158731500Y-67370000D01*
G36*
X158731500Y-67370000D02*
G01*
X158491500Y-67040000D01*
X158971500Y-67040000D01*
X158731500Y-67370000D01*
G37*
%TO.C,IN5822*%
X164084000Y-68750000D02*
X164084000Y-68780000D01*
X164084000Y-78570000D02*
X164084000Y-78540000D01*
X166869000Y-70208000D02*
X161299000Y-70208000D01*
X166869000Y-70328000D02*
X161299000Y-70328000D01*
X166869000Y-70448000D02*
X161299000Y-70448000D01*
X166869000Y-68780000D02*
X161299000Y-68780000D01*
X161299000Y-78540000D01*
X166869000Y-78540000D01*
X166869000Y-68780000D01*
%TD*%
%LPC*%
G36*
X119654850Y-90170964D02*
G01*
X119705040Y-90176787D01*
X119722189Y-90184359D01*
X119745671Y-90189030D01*
X119770810Y-90205827D01*
X119790696Y-90214608D01*
X119804277Y-90228189D01*
X119826777Y-90243223D01*
X119841810Y-90265722D01*
X119855391Y-90279303D01*
X119864170Y-90299186D01*
X119880970Y-90324329D01*
X119885641Y-90347812D01*
X119893212Y-90364959D01*
X119899033Y-90415139D01*
X119900000Y-90420000D01*
X119900000Y-93690000D01*
X119899032Y-93694863D01*
X119893212Y-93745040D01*
X119885641Y-93762185D01*
X119880970Y-93785671D01*
X119864169Y-93810815D01*
X119855391Y-93830696D01*
X119841812Y-93844274D01*
X119826777Y-93866777D01*
X119804274Y-93881812D01*
X119790696Y-93895391D01*
X119770815Y-93904169D01*
X119745671Y-93920970D01*
X119722185Y-93925641D01*
X119705040Y-93933212D01*
X119654861Y-93939032D01*
X119650000Y-93940000D01*
X118350000Y-93940000D01*
X118345138Y-93939032D01*
X118294959Y-93933212D01*
X118277812Y-93925641D01*
X118254329Y-93920970D01*
X118229186Y-93904170D01*
X118209303Y-93895391D01*
X118195722Y-93881810D01*
X118173223Y-93866777D01*
X118158189Y-93844277D01*
X118144608Y-93830696D01*
X118135827Y-93810810D01*
X118119030Y-93785671D01*
X118114359Y-93762189D01*
X118106787Y-93745040D01*
X118100964Y-93694849D01*
X118100000Y-93690000D01*
X118100000Y-90420000D01*
X118100964Y-90415150D01*
X118106787Y-90364959D01*
X118114359Y-90347808D01*
X118119030Y-90324329D01*
X118135826Y-90299191D01*
X118144608Y-90279303D01*
X118158191Y-90265719D01*
X118173223Y-90243223D01*
X118195719Y-90228191D01*
X118209303Y-90214608D01*
X118229191Y-90205826D01*
X118254329Y-90189030D01*
X118277808Y-90184359D01*
X118294959Y-90176787D01*
X118345151Y-90170964D01*
X118350000Y-90170000D01*
X119650000Y-90170000D01*
X119654850Y-90170964D01*
G37*
G36*
X122194850Y-90170964D02*
G01*
X122245040Y-90176787D01*
X122262189Y-90184359D01*
X122285671Y-90189030D01*
X122310810Y-90205827D01*
X122330696Y-90214608D01*
X122344277Y-90228189D01*
X122366777Y-90243223D01*
X122381810Y-90265722D01*
X122395391Y-90279303D01*
X122404170Y-90299186D01*
X122420970Y-90324329D01*
X122425641Y-90347812D01*
X122433212Y-90364959D01*
X122439033Y-90415139D01*
X122440000Y-90420000D01*
X122440000Y-93690000D01*
X122439032Y-93694863D01*
X122433212Y-93745040D01*
X122425641Y-93762185D01*
X122420970Y-93785671D01*
X122404169Y-93810815D01*
X122395391Y-93830696D01*
X122381812Y-93844274D01*
X122366777Y-93866777D01*
X122344274Y-93881812D01*
X122330696Y-93895391D01*
X122310815Y-93904169D01*
X122285671Y-93920970D01*
X122262185Y-93925641D01*
X122245040Y-93933212D01*
X122194861Y-93939032D01*
X122190000Y-93940000D01*
X120890000Y-93940000D01*
X120885138Y-93939032D01*
X120834959Y-93933212D01*
X120817812Y-93925641D01*
X120794329Y-93920970D01*
X120769186Y-93904170D01*
X120749303Y-93895391D01*
X120735722Y-93881810D01*
X120713223Y-93866777D01*
X120698189Y-93844277D01*
X120684608Y-93830696D01*
X120675827Y-93810810D01*
X120659030Y-93785671D01*
X120654359Y-93762189D01*
X120646787Y-93745040D01*
X120640964Y-93694849D01*
X120640000Y-93690000D01*
X120640000Y-90420000D01*
X120640964Y-90415150D01*
X120646787Y-90364959D01*
X120654359Y-90347808D01*
X120659030Y-90324329D01*
X120675826Y-90299191D01*
X120684608Y-90279303D01*
X120698191Y-90265719D01*
X120713223Y-90243223D01*
X120735719Y-90228191D01*
X120749303Y-90214608D01*
X120769191Y-90205826D01*
X120794329Y-90189030D01*
X120817808Y-90184359D01*
X120834959Y-90176787D01*
X120885151Y-90170964D01*
X120890000Y-90170000D01*
X122190000Y-90170000D01*
X122194850Y-90170964D01*
G37*
G36*
X124734850Y-90170964D02*
G01*
X124785040Y-90176787D01*
X124802189Y-90184359D01*
X124825671Y-90189030D01*
X124850810Y-90205827D01*
X124870696Y-90214608D01*
X124884277Y-90228189D01*
X124906777Y-90243223D01*
X124921810Y-90265722D01*
X124935391Y-90279303D01*
X124944170Y-90299186D01*
X124960970Y-90324329D01*
X124965641Y-90347812D01*
X124973212Y-90364959D01*
X124979033Y-90415139D01*
X124980000Y-90420000D01*
X124980000Y-93690000D01*
X124979032Y-93694863D01*
X124973212Y-93745040D01*
X124965641Y-93762185D01*
X124960970Y-93785671D01*
X124944169Y-93810815D01*
X124935391Y-93830696D01*
X124921812Y-93844274D01*
X124906777Y-93866777D01*
X124884274Y-93881812D01*
X124870696Y-93895391D01*
X124850815Y-93904169D01*
X124825671Y-93920970D01*
X124802185Y-93925641D01*
X124785040Y-93933212D01*
X124734861Y-93939032D01*
X124730000Y-93940000D01*
X123430000Y-93940000D01*
X123425138Y-93939032D01*
X123374959Y-93933212D01*
X123357812Y-93925641D01*
X123334329Y-93920970D01*
X123309186Y-93904170D01*
X123289303Y-93895391D01*
X123275722Y-93881810D01*
X123253223Y-93866777D01*
X123238189Y-93844277D01*
X123224608Y-93830696D01*
X123215827Y-93810810D01*
X123199030Y-93785671D01*
X123194359Y-93762189D01*
X123186787Y-93745040D01*
X123180964Y-93694849D01*
X123180000Y-93690000D01*
X123180000Y-90420000D01*
X123180964Y-90415150D01*
X123186787Y-90364959D01*
X123194359Y-90347808D01*
X123199030Y-90324329D01*
X123215826Y-90299191D01*
X123224608Y-90279303D01*
X123238191Y-90265719D01*
X123253223Y-90243223D01*
X123275719Y-90228191D01*
X123289303Y-90214608D01*
X123309191Y-90205826D01*
X123334329Y-90189030D01*
X123357808Y-90184359D01*
X123374959Y-90176787D01*
X123425151Y-90170964D01*
X123430000Y-90170000D01*
X124730000Y-90170000D01*
X124734850Y-90170964D01*
G37*
G36*
X127274850Y-90170964D02*
G01*
X127325040Y-90176787D01*
X127342189Y-90184359D01*
X127365671Y-90189030D01*
X127390810Y-90205827D01*
X127410696Y-90214608D01*
X127424277Y-90228189D01*
X127446777Y-90243223D01*
X127461810Y-90265722D01*
X127475391Y-90279303D01*
X127484170Y-90299186D01*
X127500970Y-90324329D01*
X127505641Y-90347812D01*
X127513212Y-90364959D01*
X127519033Y-90415139D01*
X127520000Y-90420000D01*
X127520000Y-93690000D01*
X127519032Y-93694863D01*
X127513212Y-93745040D01*
X127505641Y-93762185D01*
X127500970Y-93785671D01*
X127484169Y-93810815D01*
X127475391Y-93830696D01*
X127461812Y-93844274D01*
X127446777Y-93866777D01*
X127424274Y-93881812D01*
X127410696Y-93895391D01*
X127390815Y-93904169D01*
X127365671Y-93920970D01*
X127342185Y-93925641D01*
X127325040Y-93933212D01*
X127274861Y-93939032D01*
X127270000Y-93940000D01*
X125970000Y-93940000D01*
X125965138Y-93939032D01*
X125914959Y-93933212D01*
X125897812Y-93925641D01*
X125874329Y-93920970D01*
X125849186Y-93904170D01*
X125829303Y-93895391D01*
X125815722Y-93881810D01*
X125793223Y-93866777D01*
X125778189Y-93844277D01*
X125764608Y-93830696D01*
X125755827Y-93810810D01*
X125739030Y-93785671D01*
X125734359Y-93762189D01*
X125726787Y-93745040D01*
X125720964Y-93694849D01*
X125720000Y-93690000D01*
X125720000Y-90420000D01*
X125720964Y-90415150D01*
X125726787Y-90364959D01*
X125734359Y-90347808D01*
X125739030Y-90324329D01*
X125755826Y-90299191D01*
X125764608Y-90279303D01*
X125778191Y-90265719D01*
X125793223Y-90243223D01*
X125815719Y-90228191D01*
X125829303Y-90214608D01*
X125849191Y-90205826D01*
X125874329Y-90189030D01*
X125897808Y-90184359D01*
X125914959Y-90176787D01*
X125965151Y-90170964D01*
X125970000Y-90170000D01*
X127270000Y-90170000D01*
X127274850Y-90170964D01*
G37*
G36*
X129814850Y-90170964D02*
G01*
X129865040Y-90176787D01*
X129882189Y-90184359D01*
X129905671Y-90189030D01*
X129930810Y-90205827D01*
X129950696Y-90214608D01*
X129964277Y-90228189D01*
X129986777Y-90243223D01*
X130001810Y-90265722D01*
X130015391Y-90279303D01*
X130024170Y-90299186D01*
X130040970Y-90324329D01*
X130045641Y-90347812D01*
X130053212Y-90364959D01*
X130059033Y-90415139D01*
X130060000Y-90420000D01*
X130060000Y-93690000D01*
X130059032Y-93694863D01*
X130053212Y-93745040D01*
X130045641Y-93762185D01*
X130040970Y-93785671D01*
X130024169Y-93810815D01*
X130015391Y-93830696D01*
X130001812Y-93844274D01*
X129986777Y-93866777D01*
X129964274Y-93881812D01*
X129950696Y-93895391D01*
X129930815Y-93904169D01*
X129905671Y-93920970D01*
X129882185Y-93925641D01*
X129865040Y-93933212D01*
X129814861Y-93939032D01*
X129810000Y-93940000D01*
X128510000Y-93940000D01*
X128505138Y-93939032D01*
X128454959Y-93933212D01*
X128437812Y-93925641D01*
X128414329Y-93920970D01*
X128389186Y-93904170D01*
X128369303Y-93895391D01*
X128355722Y-93881810D01*
X128333223Y-93866777D01*
X128318189Y-93844277D01*
X128304608Y-93830696D01*
X128295827Y-93810810D01*
X128279030Y-93785671D01*
X128274359Y-93762189D01*
X128266787Y-93745040D01*
X128260964Y-93694849D01*
X128260000Y-93690000D01*
X128260000Y-90420000D01*
X128260964Y-90415150D01*
X128266787Y-90364959D01*
X128274359Y-90347808D01*
X128279030Y-90324329D01*
X128295826Y-90299191D01*
X128304608Y-90279303D01*
X128318191Y-90265719D01*
X128333223Y-90243223D01*
X128355719Y-90228191D01*
X128369303Y-90214608D01*
X128389191Y-90205826D01*
X128414329Y-90189030D01*
X128437808Y-90184359D01*
X128454959Y-90176787D01*
X128505151Y-90170964D01*
X128510000Y-90170000D01*
X129810000Y-90170000D01*
X129814850Y-90170964D01*
G37*
G36*
X132354850Y-90170964D02*
G01*
X132405040Y-90176787D01*
X132422189Y-90184359D01*
X132445671Y-90189030D01*
X132470810Y-90205827D01*
X132490696Y-90214608D01*
X132504277Y-90228189D01*
X132526777Y-90243223D01*
X132541810Y-90265722D01*
X132555391Y-90279303D01*
X132564170Y-90299186D01*
X132580970Y-90324329D01*
X132585641Y-90347812D01*
X132593212Y-90364959D01*
X132599033Y-90415139D01*
X132600000Y-90420000D01*
X132600000Y-93690000D01*
X132599032Y-93694863D01*
X132593212Y-93745040D01*
X132585641Y-93762185D01*
X132580970Y-93785671D01*
X132564169Y-93810815D01*
X132555391Y-93830696D01*
X132541812Y-93844274D01*
X132526777Y-93866777D01*
X132504274Y-93881812D01*
X132490696Y-93895391D01*
X132470815Y-93904169D01*
X132445671Y-93920970D01*
X132422185Y-93925641D01*
X132405040Y-93933212D01*
X132354861Y-93939032D01*
X132350000Y-93940000D01*
X131050000Y-93940000D01*
X131045138Y-93939032D01*
X130994959Y-93933212D01*
X130977812Y-93925641D01*
X130954329Y-93920970D01*
X130929186Y-93904170D01*
X130909303Y-93895391D01*
X130895722Y-93881810D01*
X130873223Y-93866777D01*
X130858189Y-93844277D01*
X130844608Y-93830696D01*
X130835827Y-93810810D01*
X130819030Y-93785671D01*
X130814359Y-93762189D01*
X130806787Y-93745040D01*
X130800964Y-93694849D01*
X130800000Y-93690000D01*
X130800000Y-90420000D01*
X130800964Y-90415150D01*
X130806787Y-90364959D01*
X130814359Y-90347808D01*
X130819030Y-90324329D01*
X130835826Y-90299191D01*
X130844608Y-90279303D01*
X130858191Y-90265719D01*
X130873223Y-90243223D01*
X130895719Y-90228191D01*
X130909303Y-90214608D01*
X130929191Y-90205826D01*
X130954329Y-90189030D01*
X130977808Y-90184359D01*
X130994959Y-90176787D01*
X131045151Y-90170964D01*
X131050000Y-90170000D01*
X132350000Y-90170000D01*
X132354850Y-90170964D01*
G37*
G36*
X134894850Y-90170964D02*
G01*
X134945040Y-90176787D01*
X134962189Y-90184359D01*
X134985671Y-90189030D01*
X135010810Y-90205827D01*
X135030696Y-90214608D01*
X135044277Y-90228189D01*
X135066777Y-90243223D01*
X135081810Y-90265722D01*
X135095391Y-90279303D01*
X135104170Y-90299186D01*
X135120970Y-90324329D01*
X135125641Y-90347812D01*
X135133212Y-90364959D01*
X135139033Y-90415139D01*
X135140000Y-90420000D01*
X135140000Y-93690000D01*
X135139032Y-93694863D01*
X135133212Y-93745040D01*
X135125641Y-93762185D01*
X135120970Y-93785671D01*
X135104169Y-93810815D01*
X135095391Y-93830696D01*
X135081812Y-93844274D01*
X135066777Y-93866777D01*
X135044274Y-93881812D01*
X135030696Y-93895391D01*
X135010815Y-93904169D01*
X134985671Y-93920970D01*
X134962185Y-93925641D01*
X134945040Y-93933212D01*
X134894861Y-93939032D01*
X134890000Y-93940000D01*
X133590000Y-93940000D01*
X133585138Y-93939032D01*
X133534959Y-93933212D01*
X133517812Y-93925641D01*
X133494329Y-93920970D01*
X133469186Y-93904170D01*
X133449303Y-93895391D01*
X133435722Y-93881810D01*
X133413223Y-93866777D01*
X133398189Y-93844277D01*
X133384608Y-93830696D01*
X133375827Y-93810810D01*
X133359030Y-93785671D01*
X133354359Y-93762189D01*
X133346787Y-93745040D01*
X133340964Y-93694849D01*
X133340000Y-93690000D01*
X133340000Y-90420000D01*
X133340964Y-90415150D01*
X133346787Y-90364959D01*
X133354359Y-90347808D01*
X133359030Y-90324329D01*
X133375826Y-90299191D01*
X133384608Y-90279303D01*
X133398191Y-90265719D01*
X133413223Y-90243223D01*
X133435719Y-90228191D01*
X133449303Y-90214608D01*
X133469191Y-90205826D01*
X133494329Y-90189030D01*
X133517808Y-90184359D01*
X133534959Y-90176787D01*
X133585151Y-90170964D01*
X133590000Y-90170000D01*
X134890000Y-90170000D01*
X134894850Y-90170964D01*
G37*
G36*
X137434850Y-90170964D02*
G01*
X137485040Y-90176787D01*
X137502189Y-90184359D01*
X137525671Y-90189030D01*
X137550810Y-90205827D01*
X137570696Y-90214608D01*
X137584277Y-90228189D01*
X137606777Y-90243223D01*
X137621810Y-90265722D01*
X137635391Y-90279303D01*
X137644170Y-90299186D01*
X137660970Y-90324329D01*
X137665641Y-90347812D01*
X137673212Y-90364959D01*
X137679033Y-90415139D01*
X137680000Y-90420000D01*
X137680000Y-93690000D01*
X137679032Y-93694863D01*
X137673212Y-93745040D01*
X137665641Y-93762185D01*
X137660970Y-93785671D01*
X137644169Y-93810815D01*
X137635391Y-93830696D01*
X137621812Y-93844274D01*
X137606777Y-93866777D01*
X137584274Y-93881812D01*
X137570696Y-93895391D01*
X137550815Y-93904169D01*
X137525671Y-93920970D01*
X137502185Y-93925641D01*
X137485040Y-93933212D01*
X137434861Y-93939032D01*
X137430000Y-93940000D01*
X136130000Y-93940000D01*
X136125138Y-93939032D01*
X136074959Y-93933212D01*
X136057812Y-93925641D01*
X136034329Y-93920970D01*
X136009186Y-93904170D01*
X135989303Y-93895391D01*
X135975722Y-93881810D01*
X135953223Y-93866777D01*
X135938189Y-93844277D01*
X135924608Y-93830696D01*
X135915827Y-93810810D01*
X135899030Y-93785671D01*
X135894359Y-93762189D01*
X135886787Y-93745040D01*
X135880964Y-93694849D01*
X135880000Y-93690000D01*
X135880000Y-90420000D01*
X135880964Y-90415150D01*
X135886787Y-90364959D01*
X135894359Y-90347808D01*
X135899030Y-90324329D01*
X135915826Y-90299191D01*
X135924608Y-90279303D01*
X135938191Y-90265719D01*
X135953223Y-90243223D01*
X135975719Y-90228191D01*
X135989303Y-90214608D01*
X136009191Y-90205826D01*
X136034329Y-90189030D01*
X136057808Y-90184359D01*
X136074959Y-90176787D01*
X136125151Y-90170964D01*
X136130000Y-90170000D01*
X137430000Y-90170000D01*
X137434850Y-90170964D01*
G37*
G36*
X113921790Y-91640393D02*
G01*
X114085952Y-91693733D01*
X114239748Y-91772096D01*
X114379393Y-91873553D01*
X114501447Y-91995607D01*
X114602904Y-92135252D01*
X114681267Y-92289048D01*
X114734607Y-92453210D01*
X114761609Y-92623695D01*
X114761609Y-92796305D01*
X114734607Y-92966790D01*
X114681267Y-93130952D01*
X114602904Y-93284748D01*
X114501447Y-93424393D01*
X114379393Y-93546447D01*
X114239748Y-93647904D01*
X114085952Y-93726267D01*
X113921790Y-93779607D01*
X113751305Y-93806609D01*
X113578695Y-93806609D01*
X113408210Y-93779607D01*
X113244048Y-93726267D01*
X113090252Y-93647904D01*
X112950607Y-93546447D01*
X112828553Y-93424393D01*
X112727096Y-93284748D01*
X112648733Y-93130952D01*
X112595393Y-92966790D01*
X112568391Y-92796305D01*
X112568391Y-92623695D01*
X112595393Y-92453210D01*
X112648733Y-92289048D01*
X112727096Y-92135252D01*
X112828553Y-91995607D01*
X112950607Y-91873553D01*
X113090252Y-91772096D01*
X113244048Y-91693733D01*
X113408210Y-91640393D01*
X113578695Y-91613391D01*
X113751305Y-91613391D01*
X113921790Y-91640393D01*
G37*
G36*
X189486790Y-91640393D02*
G01*
X189650952Y-91693733D01*
X189804748Y-91772096D01*
X189944393Y-91873553D01*
X190066447Y-91995607D01*
X190167904Y-92135252D01*
X190246267Y-92289048D01*
X190299607Y-92453210D01*
X190326609Y-92623695D01*
X190326609Y-92796305D01*
X190299607Y-92966790D01*
X190246267Y-93130952D01*
X190167904Y-93284748D01*
X190066447Y-93424393D01*
X189944393Y-93546447D01*
X189804748Y-93647904D01*
X189650952Y-93726267D01*
X189486790Y-93779607D01*
X189316305Y-93806609D01*
X189143695Y-93806609D01*
X188973210Y-93779607D01*
X188809048Y-93726267D01*
X188655252Y-93647904D01*
X188515607Y-93546447D01*
X188393553Y-93424393D01*
X188292096Y-93284748D01*
X188213733Y-93130952D01*
X188160393Y-92966790D01*
X188133391Y-92796305D01*
X188133391Y-92623695D01*
X188160393Y-92453210D01*
X188213733Y-92289048D01*
X188292096Y-92135252D01*
X188393553Y-91995607D01*
X188515607Y-91873553D01*
X188655252Y-91772096D01*
X188809048Y-91693733D01*
X188973210Y-91640393D01*
X189143695Y-91613391D01*
X189316305Y-91613391D01*
X189486790Y-91640393D01*
G37*
G36*
X183620228Y-90840827D02*
G01*
X183765117Y-90900842D01*
X183895515Y-90987971D01*
X184006408Y-91098864D01*
X184093537Y-91229262D01*
X184153552Y-91374151D01*
X184184148Y-91527965D01*
X184184148Y-91684793D01*
X184153552Y-91838607D01*
X184093537Y-91983496D01*
X184006408Y-92113894D01*
X183895515Y-92224787D01*
X183765117Y-92311916D01*
X183620228Y-92371931D01*
X183466414Y-92402527D01*
X183309586Y-92402527D01*
X183155772Y-92371931D01*
X183010883Y-92311916D01*
X182880485Y-92224787D01*
X182769592Y-92113894D01*
X182682463Y-91983496D01*
X182622448Y-91838607D01*
X182591852Y-91684793D01*
X182591852Y-91527965D01*
X182622448Y-91374151D01*
X182682463Y-91229262D01*
X182769592Y-91098864D01*
X182880485Y-90987971D01*
X183010883Y-90900842D01*
X183155772Y-90840827D01*
X183309586Y-90810231D01*
X183466414Y-90810231D01*
X183620228Y-90840827D01*
G37*
G36*
X158220228Y-90594448D02*
G01*
X158365117Y-90654463D01*
X158495515Y-90741592D01*
X158606408Y-90852485D01*
X158693537Y-90982883D01*
X158753552Y-91127772D01*
X158784148Y-91281586D01*
X158784148Y-91438414D01*
X158753552Y-91592228D01*
X158693537Y-91737117D01*
X158606408Y-91867515D01*
X158495515Y-91978408D01*
X158365117Y-92065537D01*
X158220228Y-92125552D01*
X158066414Y-92156148D01*
X157909586Y-92156148D01*
X157755772Y-92125552D01*
X157610883Y-92065537D01*
X157480485Y-91978408D01*
X157369592Y-91867515D01*
X157282463Y-91737117D01*
X157222448Y-91592228D01*
X157191852Y-91438414D01*
X157191852Y-91281586D01*
X157222448Y-91127772D01*
X157282463Y-90982883D01*
X157369592Y-90852485D01*
X157480485Y-90741592D01*
X157610883Y-90654463D01*
X157755772Y-90594448D01*
X157909586Y-90563852D01*
X158066414Y-90563852D01*
X158220228Y-90594448D01*
G37*
G36*
X165442000Y-91274000D02*
G01*
X163742000Y-91274000D01*
X163742000Y-89574000D01*
X165442000Y-89574000D01*
X165442000Y-91274000D01*
G37*
G36*
X174798850Y-89624964D02*
G01*
X174849040Y-89630787D01*
X174866189Y-89638359D01*
X174889671Y-89643030D01*
X174914810Y-89659827D01*
X174934696Y-89668608D01*
X174948277Y-89682189D01*
X174970777Y-89697223D01*
X174985810Y-89719722D01*
X174999391Y-89733303D01*
X175008170Y-89753186D01*
X175024970Y-89778329D01*
X175029641Y-89801812D01*
X175037212Y-89818959D01*
X175043033Y-89869139D01*
X175044000Y-89874000D01*
X175044000Y-90974000D01*
X175043032Y-90978863D01*
X175037212Y-91029040D01*
X175029641Y-91046185D01*
X175024970Y-91069671D01*
X175008169Y-91094815D01*
X174999391Y-91114696D01*
X174985812Y-91128274D01*
X174970777Y-91150777D01*
X174948274Y-91165812D01*
X174934696Y-91179391D01*
X174914815Y-91188169D01*
X174889671Y-91204970D01*
X174866185Y-91209641D01*
X174849040Y-91217212D01*
X174798861Y-91223032D01*
X174794000Y-91224000D01*
X173694000Y-91224000D01*
X173689138Y-91223032D01*
X173638959Y-91217212D01*
X173621812Y-91209641D01*
X173598329Y-91204970D01*
X173573186Y-91188170D01*
X173553303Y-91179391D01*
X173539722Y-91165810D01*
X173517223Y-91150777D01*
X173502189Y-91128277D01*
X173488608Y-91114696D01*
X173479827Y-91094810D01*
X173463030Y-91069671D01*
X173458359Y-91046189D01*
X173450787Y-91029040D01*
X173444964Y-90978849D01*
X173444000Y-90974000D01*
X173444000Y-89874000D01*
X173444964Y-89869150D01*
X173450787Y-89818959D01*
X173458359Y-89801808D01*
X173463030Y-89778329D01*
X173479826Y-89753191D01*
X173488608Y-89733303D01*
X173502191Y-89719719D01*
X173517223Y-89697223D01*
X173539719Y-89682191D01*
X173553303Y-89668608D01*
X173573191Y-89659826D01*
X173598329Y-89643030D01*
X173621808Y-89638359D01*
X173638959Y-89630787D01*
X173689151Y-89624964D01*
X173694000Y-89624000D01*
X174794000Y-89624000D01*
X174798850Y-89624964D01*
G37*
G36*
X143441428Y-89901912D02*
G01*
X143554623Y-89948799D01*
X143656496Y-90016868D01*
X143743132Y-90103504D01*
X143811201Y-90205377D01*
X143858088Y-90318572D01*
X143881990Y-90438739D01*
X143881990Y-90561261D01*
X143858088Y-90681428D01*
X143811201Y-90794623D01*
X143743132Y-90896496D01*
X143656496Y-90983132D01*
X143554623Y-91051201D01*
X143441428Y-91098088D01*
X143321261Y-91121990D01*
X143198739Y-91121990D01*
X143078572Y-91098088D01*
X142965377Y-91051201D01*
X142863504Y-90983132D01*
X142776868Y-90896496D01*
X142708799Y-90794623D01*
X142661912Y-90681428D01*
X142638010Y-90561261D01*
X142638010Y-90438739D01*
X142661912Y-90318572D01*
X142708799Y-90205377D01*
X142776868Y-90103504D01*
X142863504Y-90016868D01*
X142965377Y-89948799D01*
X143078572Y-89901912D01*
X143198739Y-89878010D01*
X143321261Y-89878010D01*
X143441428Y-89901912D01*
G37*
G36*
X145464850Y-87925964D02*
G01*
X145515040Y-87931787D01*
X145532189Y-87939359D01*
X145555671Y-87944030D01*
X145580810Y-87960827D01*
X145600696Y-87969608D01*
X145614277Y-87983189D01*
X145636777Y-87998223D01*
X145651810Y-88020722D01*
X145665391Y-88034303D01*
X145674170Y-88054186D01*
X145690970Y-88079329D01*
X145695641Y-88102812D01*
X145703212Y-88119959D01*
X145709033Y-88170139D01*
X145710000Y-88175000D01*
X145710000Y-89625000D01*
X145709032Y-89629863D01*
X145703212Y-89680040D01*
X145695641Y-89697185D01*
X145690970Y-89720671D01*
X145674169Y-89745815D01*
X145665391Y-89765696D01*
X145651812Y-89779274D01*
X145636777Y-89801777D01*
X145614274Y-89816812D01*
X145600696Y-89830391D01*
X145580815Y-89839169D01*
X145555671Y-89855970D01*
X145532185Y-89860641D01*
X145515040Y-89868212D01*
X145464861Y-89874032D01*
X145460000Y-89875000D01*
X144260000Y-89875000D01*
X144255138Y-89874032D01*
X144204959Y-89868212D01*
X144187812Y-89860641D01*
X144164329Y-89855970D01*
X144139186Y-89839170D01*
X144119303Y-89830391D01*
X144105722Y-89816810D01*
X144083223Y-89801777D01*
X144068189Y-89779277D01*
X144054608Y-89765696D01*
X144045827Y-89745810D01*
X144029030Y-89720671D01*
X144024359Y-89697189D01*
X144016787Y-89680040D01*
X144010964Y-89629849D01*
X144010000Y-89625000D01*
X144010000Y-88175000D01*
X144010964Y-88170150D01*
X144016787Y-88119959D01*
X144024359Y-88102808D01*
X144029030Y-88079329D01*
X144045826Y-88054191D01*
X144054608Y-88034303D01*
X144068191Y-88020719D01*
X144083223Y-87998223D01*
X144105719Y-87983191D01*
X144119303Y-87969608D01*
X144139191Y-87960826D01*
X144164329Y-87944030D01*
X144187808Y-87939359D01*
X144204959Y-87931787D01*
X144255151Y-87925964D01*
X144260000Y-87925000D01*
X145460000Y-87925000D01*
X145464850Y-87925964D01*
G37*
G36*
X147606742Y-87961601D02*
G01*
X147760687Y-88025367D01*
X147899234Y-88117941D01*
X148017059Y-88235766D01*
X148109633Y-88374313D01*
X148173399Y-88528258D01*
X148205907Y-88691685D01*
X148210000Y-88775000D01*
X148210000Y-89025000D01*
X148205907Y-89108315D01*
X148173399Y-89271742D01*
X148109633Y-89425687D01*
X148017059Y-89564234D01*
X147899234Y-89682059D01*
X147760687Y-89774633D01*
X147606742Y-89838399D01*
X147443315Y-89870907D01*
X147276685Y-89870907D01*
X147113258Y-89838399D01*
X146959313Y-89774633D01*
X146820766Y-89682059D01*
X146702941Y-89564234D01*
X146610367Y-89425687D01*
X146546601Y-89271742D01*
X146514093Y-89108315D01*
X146510000Y-89025000D01*
X146510000Y-88775000D01*
X146514093Y-88691685D01*
X146546601Y-88528258D01*
X146610367Y-88374313D01*
X146702941Y-88235766D01*
X146820766Y-88117941D01*
X146959313Y-88025367D01*
X147113258Y-87961601D01*
X147276685Y-87929093D01*
X147443315Y-87929093D01*
X147606742Y-87961601D01*
G37*
G36*
X150106742Y-87961601D02*
G01*
X150260687Y-88025367D01*
X150399234Y-88117941D01*
X150517059Y-88235766D01*
X150609633Y-88374313D01*
X150673399Y-88528258D01*
X150705907Y-88691685D01*
X150710000Y-88775000D01*
X150710000Y-89025000D01*
X150705907Y-89108315D01*
X150673399Y-89271742D01*
X150609633Y-89425687D01*
X150517059Y-89564234D01*
X150399234Y-89682059D01*
X150260687Y-89774633D01*
X150106742Y-89838399D01*
X149943315Y-89870907D01*
X149776685Y-89870907D01*
X149613258Y-89838399D01*
X149459313Y-89774633D01*
X149320766Y-89682059D01*
X149202941Y-89564234D01*
X149110367Y-89425687D01*
X149046601Y-89271742D01*
X149014093Y-89108315D01*
X149010000Y-89025000D01*
X149010000Y-88775000D01*
X149014093Y-88691685D01*
X149046601Y-88528258D01*
X149110367Y-88374313D01*
X149202941Y-88235766D01*
X149320766Y-88117941D01*
X149459313Y-88025367D01*
X149613258Y-87961601D01*
X149776685Y-87929093D01*
X149943315Y-87929093D01*
X150106742Y-87961601D01*
G37*
G36*
X164838742Y-87070601D02*
G01*
X164992687Y-87134367D01*
X165131234Y-87226941D01*
X165249059Y-87344766D01*
X165341633Y-87483313D01*
X165405399Y-87637258D01*
X165437907Y-87800685D01*
X165437907Y-87967315D01*
X165405399Y-88130742D01*
X165341633Y-88284687D01*
X165249059Y-88423234D01*
X165131234Y-88541059D01*
X164992687Y-88633633D01*
X164838742Y-88697399D01*
X164675315Y-88729907D01*
X164508685Y-88729907D01*
X164345258Y-88697399D01*
X164191313Y-88633633D01*
X164052766Y-88541059D01*
X163934941Y-88423234D01*
X163842367Y-88284687D01*
X163778601Y-88130742D01*
X163746093Y-87967315D01*
X163746093Y-87800685D01*
X163778601Y-87637258D01*
X163842367Y-87483313D01*
X163934941Y-87344766D01*
X164052766Y-87226941D01*
X164191313Y-87134367D01*
X164345258Y-87070601D01*
X164508685Y-87038093D01*
X164675315Y-87038093D01*
X164838742Y-87070601D01*
G37*
G36*
X174476228Y-87158448D02*
G01*
X174621117Y-87218463D01*
X174751515Y-87305592D01*
X174862408Y-87416485D01*
X174949537Y-87546883D01*
X175009552Y-87691772D01*
X175040148Y-87845586D01*
X175040148Y-88002414D01*
X175009552Y-88156228D01*
X174949537Y-88301117D01*
X174862408Y-88431515D01*
X174751515Y-88542408D01*
X174621117Y-88629537D01*
X174476228Y-88689552D01*
X174322414Y-88720148D01*
X174165586Y-88720148D01*
X174011772Y-88689552D01*
X173866883Y-88629537D01*
X173736485Y-88542408D01*
X173625592Y-88431515D01*
X173538463Y-88301117D01*
X173478448Y-88156228D01*
X173447852Y-88002414D01*
X173447852Y-87845586D01*
X173478448Y-87691772D01*
X173538463Y-87546883D01*
X173625592Y-87416485D01*
X173736485Y-87305592D01*
X173866883Y-87218463D01*
X174011772Y-87158448D01*
X174165586Y-87127852D01*
X174322414Y-87127852D01*
X174476228Y-87158448D01*
G37*
G36*
X183620228Y-85840827D02*
G01*
X183765117Y-85900842D01*
X183895515Y-85987971D01*
X184006408Y-86098864D01*
X184093537Y-86229262D01*
X184153552Y-86374151D01*
X184184148Y-86527965D01*
X184184148Y-86684793D01*
X184153552Y-86838607D01*
X184093537Y-86983496D01*
X184006408Y-87113894D01*
X183895515Y-87224787D01*
X183765117Y-87311916D01*
X183620228Y-87371931D01*
X183466414Y-87402527D01*
X183309586Y-87402527D01*
X183155772Y-87371931D01*
X183010883Y-87311916D01*
X182880485Y-87224787D01*
X182769592Y-87113894D01*
X182682463Y-86983496D01*
X182622448Y-86838607D01*
X182591852Y-86684793D01*
X182591852Y-86527965D01*
X182622448Y-86374151D01*
X182682463Y-86229262D01*
X182769592Y-86098864D01*
X182880485Y-85987971D01*
X183010883Y-85900842D01*
X183155772Y-85840827D01*
X183309586Y-85810231D01*
X183466414Y-85810231D01*
X183620228Y-85840827D01*
G37*
G36*
X158220228Y-85594448D02*
G01*
X158365117Y-85654463D01*
X158495515Y-85741592D01*
X158606408Y-85852485D01*
X158693537Y-85982883D01*
X158753552Y-86127772D01*
X158784148Y-86281586D01*
X158784148Y-86438414D01*
X158753552Y-86592228D01*
X158693537Y-86737117D01*
X158606408Y-86867515D01*
X158495515Y-86978408D01*
X158365117Y-87065537D01*
X158220228Y-87125552D01*
X158066414Y-87156148D01*
X157909586Y-87156148D01*
X157755772Y-87125552D01*
X157610883Y-87065537D01*
X157480485Y-86978408D01*
X157369592Y-86867515D01*
X157282463Y-86737117D01*
X157222448Y-86592228D01*
X157191852Y-86438414D01*
X157191852Y-86281586D01*
X157222448Y-86127772D01*
X157282463Y-85982883D01*
X157369592Y-85852485D01*
X157480485Y-85741592D01*
X157610883Y-85654463D01*
X157755772Y-85594448D01*
X157909586Y-85563852D01*
X158066414Y-85563852D01*
X158220228Y-85594448D01*
G37*
G36*
X164838742Y-84530601D02*
G01*
X164992687Y-84594367D01*
X165131234Y-84686941D01*
X165249059Y-84804766D01*
X165341633Y-84943313D01*
X165405399Y-85097258D01*
X165437907Y-85260685D01*
X165437907Y-85427315D01*
X165405399Y-85590742D01*
X165341633Y-85744687D01*
X165249059Y-85883234D01*
X165131234Y-86001059D01*
X164992687Y-86093633D01*
X164838742Y-86157399D01*
X164675315Y-86189907D01*
X164508685Y-86189907D01*
X164345258Y-86157399D01*
X164191313Y-86093633D01*
X164052766Y-86001059D01*
X163934941Y-85883234D01*
X163842367Y-85744687D01*
X163778601Y-85590742D01*
X163746093Y-85427315D01*
X163746093Y-85260685D01*
X163778601Y-85097258D01*
X163842367Y-84943313D01*
X163934941Y-84804766D01*
X164052766Y-84686941D01*
X164191313Y-84594367D01*
X164345258Y-84530601D01*
X164508685Y-84498093D01*
X164675315Y-84498093D01*
X164838742Y-84530601D01*
G37*
G36*
X171730134Y-81129156D02*
G01*
X171909220Y-81187345D01*
X172076998Y-81272832D01*
X172229338Y-81383513D01*
X172362487Y-81516662D01*
X172473168Y-81669002D01*
X172558655Y-81836780D01*
X172616844Y-82015866D01*
X172646301Y-82201849D01*
X172646301Y-82390151D01*
X172616844Y-82576134D01*
X172558655Y-82755220D01*
X172473168Y-82922998D01*
X172362487Y-83075338D01*
X172229338Y-83208487D01*
X172076998Y-83319168D01*
X171909220Y-83404655D01*
X171730134Y-83462844D01*
X171544151Y-83492301D01*
X171355849Y-83492301D01*
X171169866Y-83462844D01*
X170990780Y-83404655D01*
X170823002Y-83319168D01*
X170670662Y-83208487D01*
X170537513Y-83075338D01*
X170426832Y-82922998D01*
X170341345Y-82755220D01*
X170283156Y-82576134D01*
X170253699Y-82390151D01*
X170253699Y-82201849D01*
X170283156Y-82015866D01*
X170341345Y-81836780D01*
X170426832Y-81669002D01*
X170537513Y-81516662D01*
X170670662Y-81383513D01*
X170823002Y-81272832D01*
X170990780Y-81187345D01*
X171169866Y-81129156D01*
X171355849Y-81099699D01*
X171544151Y-81099699D01*
X171730134Y-81129156D01*
G37*
G36*
X185700134Y-81129156D02*
G01*
X185879220Y-81187345D01*
X186046998Y-81272832D01*
X186199338Y-81383513D01*
X186332487Y-81516662D01*
X186443168Y-81669002D01*
X186528655Y-81836780D01*
X186586844Y-82015866D01*
X186616301Y-82201849D01*
X186616301Y-82390151D01*
X186586844Y-82576134D01*
X186528655Y-82755220D01*
X186443168Y-82922998D01*
X186332487Y-83075338D01*
X186199338Y-83208487D01*
X186046998Y-83319168D01*
X185879220Y-83404655D01*
X185700134Y-83462844D01*
X185514151Y-83492301D01*
X185325849Y-83492301D01*
X185139866Y-83462844D01*
X184960780Y-83404655D01*
X184793002Y-83319168D01*
X184640662Y-83208487D01*
X184507513Y-83075338D01*
X184396832Y-82922998D01*
X184311345Y-82755220D01*
X184253156Y-82576134D01*
X184223699Y-82390151D01*
X184223699Y-82201849D01*
X184253156Y-82015866D01*
X184311345Y-81836780D01*
X184396832Y-81669002D01*
X184507513Y-81516662D01*
X184640662Y-81383513D01*
X184793002Y-81272832D01*
X184960780Y-81187345D01*
X185139866Y-81129156D01*
X185325849Y-81099699D01*
X185514151Y-81099699D01*
X185700134Y-81129156D01*
G37*
G36*
X164364134Y-78843156D02*
G01*
X164543220Y-78901345D01*
X164710998Y-78986832D01*
X164863338Y-79097513D01*
X164996487Y-79230662D01*
X165107168Y-79383002D01*
X165192655Y-79550780D01*
X165250844Y-79729866D01*
X165280301Y-79915849D01*
X165280301Y-80104151D01*
X165250844Y-80290134D01*
X165192655Y-80469220D01*
X165107168Y-80636998D01*
X164996487Y-80789338D01*
X164863338Y-80922487D01*
X164710998Y-81033168D01*
X164543220Y-81118655D01*
X164364134Y-81176844D01*
X164178151Y-81206301D01*
X163989849Y-81206301D01*
X163803866Y-81176844D01*
X163624780Y-81118655D01*
X163457002Y-81033168D01*
X163304662Y-80922487D01*
X163171513Y-80789338D01*
X163060832Y-80636998D01*
X162975345Y-80469220D01*
X162917156Y-80290134D01*
X162887699Y-80104151D01*
X162887699Y-79915849D01*
X162917156Y-79729866D01*
X162975345Y-79550780D01*
X163060832Y-79383002D01*
X163171513Y-79230662D01*
X163304662Y-79097513D01*
X163457002Y-78986832D01*
X163624780Y-78901345D01*
X163803866Y-78843156D01*
X163989849Y-78813699D01*
X164178151Y-78813699D01*
X164364134Y-78843156D01*
G37*
G36*
X157966228Y-78609448D02*
G01*
X158111117Y-78669463D01*
X158241515Y-78756592D01*
X158352408Y-78867485D01*
X158439537Y-78997883D01*
X158499552Y-79142772D01*
X158530148Y-79296586D01*
X158530148Y-79453414D01*
X158499552Y-79607228D01*
X158439537Y-79752117D01*
X158352408Y-79882515D01*
X158241515Y-79993408D01*
X158111117Y-80080537D01*
X157966228Y-80140552D01*
X157812414Y-80171148D01*
X157655586Y-80171148D01*
X157501772Y-80140552D01*
X157356883Y-80080537D01*
X157226485Y-79993408D01*
X157115592Y-79882515D01*
X157028463Y-79752117D01*
X156968448Y-79607228D01*
X156937852Y-79453414D01*
X156937852Y-79296586D01*
X156968448Y-79142772D01*
X157028463Y-78997883D01*
X157115592Y-78867485D01*
X157226485Y-78756592D01*
X157356883Y-78669463D01*
X157501772Y-78609448D01*
X157655586Y-78578852D01*
X157812414Y-78578852D01*
X157966228Y-78609448D01*
G37*
G36*
X119654850Y-73700964D02*
G01*
X119705040Y-73706787D01*
X119722189Y-73714359D01*
X119745671Y-73719030D01*
X119770810Y-73735827D01*
X119790696Y-73744608D01*
X119804277Y-73758189D01*
X119826777Y-73773223D01*
X119841810Y-73795722D01*
X119855391Y-73809303D01*
X119864170Y-73829186D01*
X119880970Y-73854329D01*
X119885641Y-73877812D01*
X119893212Y-73894959D01*
X119899033Y-73945139D01*
X119900000Y-73950000D01*
X119900000Y-77220000D01*
X119899032Y-77224863D01*
X119893212Y-77275040D01*
X119885641Y-77292185D01*
X119880970Y-77315671D01*
X119864169Y-77340815D01*
X119855391Y-77360696D01*
X119841812Y-77374274D01*
X119826777Y-77396777D01*
X119804274Y-77411812D01*
X119790696Y-77425391D01*
X119770815Y-77434169D01*
X119745671Y-77450970D01*
X119722185Y-77455641D01*
X119705040Y-77463212D01*
X119654861Y-77469032D01*
X119650000Y-77470000D01*
X118350000Y-77470000D01*
X118345138Y-77469032D01*
X118294959Y-77463212D01*
X118277812Y-77455641D01*
X118254329Y-77450970D01*
X118229186Y-77434170D01*
X118209303Y-77425391D01*
X118195722Y-77411810D01*
X118173223Y-77396777D01*
X118158189Y-77374277D01*
X118144608Y-77360696D01*
X118135827Y-77340810D01*
X118119030Y-77315671D01*
X118114359Y-77292189D01*
X118106787Y-77275040D01*
X118100964Y-77224849D01*
X118100000Y-77220000D01*
X118100000Y-73950000D01*
X118100964Y-73945150D01*
X118106787Y-73894959D01*
X118114359Y-73877808D01*
X118119030Y-73854329D01*
X118135826Y-73829191D01*
X118144608Y-73809303D01*
X118158191Y-73795719D01*
X118173223Y-73773223D01*
X118195719Y-73758191D01*
X118209303Y-73744608D01*
X118229191Y-73735826D01*
X118254329Y-73719030D01*
X118277808Y-73714359D01*
X118294959Y-73706787D01*
X118345151Y-73700964D01*
X118350000Y-73700000D01*
X119650000Y-73700000D01*
X119654850Y-73700964D01*
G37*
G36*
X122194850Y-73700964D02*
G01*
X122245040Y-73706787D01*
X122262189Y-73714359D01*
X122285671Y-73719030D01*
X122310810Y-73735827D01*
X122330696Y-73744608D01*
X122344277Y-73758189D01*
X122366777Y-73773223D01*
X122381810Y-73795722D01*
X122395391Y-73809303D01*
X122404170Y-73829186D01*
X122420970Y-73854329D01*
X122425641Y-73877812D01*
X122433212Y-73894959D01*
X122439033Y-73945139D01*
X122440000Y-73950000D01*
X122440000Y-77220000D01*
X122439032Y-77224863D01*
X122433212Y-77275040D01*
X122425641Y-77292185D01*
X122420970Y-77315671D01*
X122404169Y-77340815D01*
X122395391Y-77360696D01*
X122381812Y-77374274D01*
X122366777Y-77396777D01*
X122344274Y-77411812D01*
X122330696Y-77425391D01*
X122310815Y-77434169D01*
X122285671Y-77450970D01*
X122262185Y-77455641D01*
X122245040Y-77463212D01*
X122194861Y-77469032D01*
X122190000Y-77470000D01*
X120890000Y-77470000D01*
X120885138Y-77469032D01*
X120834959Y-77463212D01*
X120817812Y-77455641D01*
X120794329Y-77450970D01*
X120769186Y-77434170D01*
X120749303Y-77425391D01*
X120735722Y-77411810D01*
X120713223Y-77396777D01*
X120698189Y-77374277D01*
X120684608Y-77360696D01*
X120675827Y-77340810D01*
X120659030Y-77315671D01*
X120654359Y-77292189D01*
X120646787Y-77275040D01*
X120640964Y-77224849D01*
X120640000Y-77220000D01*
X120640000Y-73950000D01*
X120640964Y-73945150D01*
X120646787Y-73894959D01*
X120654359Y-73877808D01*
X120659030Y-73854329D01*
X120675826Y-73829191D01*
X120684608Y-73809303D01*
X120698191Y-73795719D01*
X120713223Y-73773223D01*
X120735719Y-73758191D01*
X120749303Y-73744608D01*
X120769191Y-73735826D01*
X120794329Y-73719030D01*
X120817808Y-73714359D01*
X120834959Y-73706787D01*
X120885151Y-73700964D01*
X120890000Y-73700000D01*
X122190000Y-73700000D01*
X122194850Y-73700964D01*
G37*
G36*
X124734850Y-73700964D02*
G01*
X124785040Y-73706787D01*
X124802189Y-73714359D01*
X124825671Y-73719030D01*
X124850810Y-73735827D01*
X124870696Y-73744608D01*
X124884277Y-73758189D01*
X124906777Y-73773223D01*
X124921810Y-73795722D01*
X124935391Y-73809303D01*
X124944170Y-73829186D01*
X124960970Y-73854329D01*
X124965641Y-73877812D01*
X124973212Y-73894959D01*
X124979033Y-73945139D01*
X124980000Y-73950000D01*
X124980000Y-77220000D01*
X124979032Y-77224863D01*
X124973212Y-77275040D01*
X124965641Y-77292185D01*
X124960970Y-77315671D01*
X124944169Y-77340815D01*
X124935391Y-77360696D01*
X124921812Y-77374274D01*
X124906777Y-77396777D01*
X124884274Y-77411812D01*
X124870696Y-77425391D01*
X124850815Y-77434169D01*
X124825671Y-77450970D01*
X124802185Y-77455641D01*
X124785040Y-77463212D01*
X124734861Y-77469032D01*
X124730000Y-77470000D01*
X123430000Y-77470000D01*
X123425138Y-77469032D01*
X123374959Y-77463212D01*
X123357812Y-77455641D01*
X123334329Y-77450970D01*
X123309186Y-77434170D01*
X123289303Y-77425391D01*
X123275722Y-77411810D01*
X123253223Y-77396777D01*
X123238189Y-77374277D01*
X123224608Y-77360696D01*
X123215827Y-77340810D01*
X123199030Y-77315671D01*
X123194359Y-77292189D01*
X123186787Y-77275040D01*
X123180964Y-77224849D01*
X123180000Y-77220000D01*
X123180000Y-73950000D01*
X123180964Y-73945150D01*
X123186787Y-73894959D01*
X123194359Y-73877808D01*
X123199030Y-73854329D01*
X123215826Y-73829191D01*
X123224608Y-73809303D01*
X123238191Y-73795719D01*
X123253223Y-73773223D01*
X123275719Y-73758191D01*
X123289303Y-73744608D01*
X123309191Y-73735826D01*
X123334329Y-73719030D01*
X123357808Y-73714359D01*
X123374959Y-73706787D01*
X123425151Y-73700964D01*
X123430000Y-73700000D01*
X124730000Y-73700000D01*
X124734850Y-73700964D01*
G37*
G36*
X127274850Y-73700964D02*
G01*
X127325040Y-73706787D01*
X127342189Y-73714359D01*
X127365671Y-73719030D01*
X127390810Y-73735827D01*
X127410696Y-73744608D01*
X127424277Y-73758189D01*
X127446777Y-73773223D01*
X127461810Y-73795722D01*
X127475391Y-73809303D01*
X127484170Y-73829186D01*
X127500970Y-73854329D01*
X127505641Y-73877812D01*
X127513212Y-73894959D01*
X127519033Y-73945139D01*
X127520000Y-73950000D01*
X127520000Y-77220000D01*
X127519032Y-77224863D01*
X127513212Y-77275040D01*
X127505641Y-77292185D01*
X127500970Y-77315671D01*
X127484169Y-77340815D01*
X127475391Y-77360696D01*
X127461812Y-77374274D01*
X127446777Y-77396777D01*
X127424274Y-77411812D01*
X127410696Y-77425391D01*
X127390815Y-77434169D01*
X127365671Y-77450970D01*
X127342185Y-77455641D01*
X127325040Y-77463212D01*
X127274861Y-77469032D01*
X127270000Y-77470000D01*
X125970000Y-77470000D01*
X125965138Y-77469032D01*
X125914959Y-77463212D01*
X125897812Y-77455641D01*
X125874329Y-77450970D01*
X125849186Y-77434170D01*
X125829303Y-77425391D01*
X125815722Y-77411810D01*
X125793223Y-77396777D01*
X125778189Y-77374277D01*
X125764608Y-77360696D01*
X125755827Y-77340810D01*
X125739030Y-77315671D01*
X125734359Y-77292189D01*
X125726787Y-77275040D01*
X125720964Y-77224849D01*
X125720000Y-77220000D01*
X125720000Y-73950000D01*
X125720964Y-73945150D01*
X125726787Y-73894959D01*
X125734359Y-73877808D01*
X125739030Y-73854329D01*
X125755826Y-73829191D01*
X125764608Y-73809303D01*
X125778191Y-73795719D01*
X125793223Y-73773223D01*
X125815719Y-73758191D01*
X125829303Y-73744608D01*
X125849191Y-73735826D01*
X125874329Y-73719030D01*
X125897808Y-73714359D01*
X125914959Y-73706787D01*
X125965151Y-73700964D01*
X125970000Y-73700000D01*
X127270000Y-73700000D01*
X127274850Y-73700964D01*
G37*
G36*
X129814850Y-73700964D02*
G01*
X129865040Y-73706787D01*
X129882189Y-73714359D01*
X129905671Y-73719030D01*
X129930810Y-73735827D01*
X129950696Y-73744608D01*
X129964277Y-73758189D01*
X129986777Y-73773223D01*
X130001810Y-73795722D01*
X130015391Y-73809303D01*
X130024170Y-73829186D01*
X130040970Y-73854329D01*
X130045641Y-73877812D01*
X130053212Y-73894959D01*
X130059033Y-73945139D01*
X130060000Y-73950000D01*
X130060000Y-77220000D01*
X130059032Y-77224863D01*
X130053212Y-77275040D01*
X130045641Y-77292185D01*
X130040970Y-77315671D01*
X130024169Y-77340815D01*
X130015391Y-77360696D01*
X130001812Y-77374274D01*
X129986777Y-77396777D01*
X129964274Y-77411812D01*
X129950696Y-77425391D01*
X129930815Y-77434169D01*
X129905671Y-77450970D01*
X129882185Y-77455641D01*
X129865040Y-77463212D01*
X129814861Y-77469032D01*
X129810000Y-77470000D01*
X128510000Y-77470000D01*
X128505138Y-77469032D01*
X128454959Y-77463212D01*
X128437812Y-77455641D01*
X128414329Y-77450970D01*
X128389186Y-77434170D01*
X128369303Y-77425391D01*
X128355722Y-77411810D01*
X128333223Y-77396777D01*
X128318189Y-77374277D01*
X128304608Y-77360696D01*
X128295827Y-77340810D01*
X128279030Y-77315671D01*
X128274359Y-77292189D01*
X128266787Y-77275040D01*
X128260964Y-77224849D01*
X128260000Y-77220000D01*
X128260000Y-73950000D01*
X128260964Y-73945150D01*
X128266787Y-73894959D01*
X128274359Y-73877808D01*
X128279030Y-73854329D01*
X128295826Y-73829191D01*
X128304608Y-73809303D01*
X128318191Y-73795719D01*
X128333223Y-73773223D01*
X128355719Y-73758191D01*
X128369303Y-73744608D01*
X128389191Y-73735826D01*
X128414329Y-73719030D01*
X128437808Y-73714359D01*
X128454959Y-73706787D01*
X128505151Y-73700964D01*
X128510000Y-73700000D01*
X129810000Y-73700000D01*
X129814850Y-73700964D01*
G37*
G36*
X132354850Y-73700964D02*
G01*
X132405040Y-73706787D01*
X132422189Y-73714359D01*
X132445671Y-73719030D01*
X132470810Y-73735827D01*
X132490696Y-73744608D01*
X132504277Y-73758189D01*
X132526777Y-73773223D01*
X132541810Y-73795722D01*
X132555391Y-73809303D01*
X132564170Y-73829186D01*
X132580970Y-73854329D01*
X132585641Y-73877812D01*
X132593212Y-73894959D01*
X132599033Y-73945139D01*
X132600000Y-73950000D01*
X132600000Y-77220000D01*
X132599032Y-77224863D01*
X132593212Y-77275040D01*
X132585641Y-77292185D01*
X132580970Y-77315671D01*
X132564169Y-77340815D01*
X132555391Y-77360696D01*
X132541812Y-77374274D01*
X132526777Y-77396777D01*
X132504274Y-77411812D01*
X132490696Y-77425391D01*
X132470815Y-77434169D01*
X132445671Y-77450970D01*
X132422185Y-77455641D01*
X132405040Y-77463212D01*
X132354861Y-77469032D01*
X132350000Y-77470000D01*
X131050000Y-77470000D01*
X131045138Y-77469032D01*
X130994959Y-77463212D01*
X130977812Y-77455641D01*
X130954329Y-77450970D01*
X130929186Y-77434170D01*
X130909303Y-77425391D01*
X130895722Y-77411810D01*
X130873223Y-77396777D01*
X130858189Y-77374277D01*
X130844608Y-77360696D01*
X130835827Y-77340810D01*
X130819030Y-77315671D01*
X130814359Y-77292189D01*
X130806787Y-77275040D01*
X130800964Y-77224849D01*
X130800000Y-77220000D01*
X130800000Y-73950000D01*
X130800964Y-73945150D01*
X130806787Y-73894959D01*
X130814359Y-73877808D01*
X130819030Y-73854329D01*
X130835826Y-73829191D01*
X130844608Y-73809303D01*
X130858191Y-73795719D01*
X130873223Y-73773223D01*
X130895719Y-73758191D01*
X130909303Y-73744608D01*
X130929191Y-73735826D01*
X130954329Y-73719030D01*
X130977808Y-73714359D01*
X130994959Y-73706787D01*
X131045151Y-73700964D01*
X131050000Y-73700000D01*
X132350000Y-73700000D01*
X132354850Y-73700964D01*
G37*
G36*
X134894850Y-73700964D02*
G01*
X134945040Y-73706787D01*
X134962189Y-73714359D01*
X134985671Y-73719030D01*
X135010810Y-73735827D01*
X135030696Y-73744608D01*
X135044277Y-73758189D01*
X135066777Y-73773223D01*
X135081810Y-73795722D01*
X135095391Y-73809303D01*
X135104170Y-73829186D01*
X135120970Y-73854329D01*
X135125641Y-73877812D01*
X135133212Y-73894959D01*
X135139033Y-73945139D01*
X135140000Y-73950000D01*
X135140000Y-77220000D01*
X135139032Y-77224863D01*
X135133212Y-77275040D01*
X135125641Y-77292185D01*
X135120970Y-77315671D01*
X135104169Y-77340815D01*
X135095391Y-77360696D01*
X135081812Y-77374274D01*
X135066777Y-77396777D01*
X135044274Y-77411812D01*
X135030696Y-77425391D01*
X135010815Y-77434169D01*
X134985671Y-77450970D01*
X134962185Y-77455641D01*
X134945040Y-77463212D01*
X134894861Y-77469032D01*
X134890000Y-77470000D01*
X133590000Y-77470000D01*
X133585138Y-77469032D01*
X133534959Y-77463212D01*
X133517812Y-77455641D01*
X133494329Y-77450970D01*
X133469186Y-77434170D01*
X133449303Y-77425391D01*
X133435722Y-77411810D01*
X133413223Y-77396777D01*
X133398189Y-77374277D01*
X133384608Y-77360696D01*
X133375827Y-77340810D01*
X133359030Y-77315671D01*
X133354359Y-77292189D01*
X133346787Y-77275040D01*
X133340964Y-77224849D01*
X133340000Y-77220000D01*
X133340000Y-73950000D01*
X133340964Y-73945150D01*
X133346787Y-73894959D01*
X133354359Y-73877808D01*
X133359030Y-73854329D01*
X133375826Y-73829191D01*
X133384608Y-73809303D01*
X133398191Y-73795719D01*
X133413223Y-73773223D01*
X133435719Y-73758191D01*
X133449303Y-73744608D01*
X133469191Y-73735826D01*
X133494329Y-73719030D01*
X133517808Y-73714359D01*
X133534959Y-73706787D01*
X133585151Y-73700964D01*
X133590000Y-73700000D01*
X134890000Y-73700000D01*
X134894850Y-73700964D01*
G37*
G36*
X137434850Y-73700964D02*
G01*
X137485040Y-73706787D01*
X137502189Y-73714359D01*
X137525671Y-73719030D01*
X137550810Y-73735827D01*
X137570696Y-73744608D01*
X137584277Y-73758189D01*
X137606777Y-73773223D01*
X137621810Y-73795722D01*
X137635391Y-73809303D01*
X137644170Y-73829186D01*
X137660970Y-73854329D01*
X137665641Y-73877812D01*
X137673212Y-73894959D01*
X137679033Y-73945139D01*
X137680000Y-73950000D01*
X137680000Y-77220000D01*
X137679032Y-77224863D01*
X137673212Y-77275040D01*
X137665641Y-77292185D01*
X137660970Y-77315671D01*
X137644169Y-77340815D01*
X137635391Y-77360696D01*
X137621812Y-77374274D01*
X137606777Y-77396777D01*
X137584274Y-77411812D01*
X137570696Y-77425391D01*
X137550815Y-77434169D01*
X137525671Y-77450970D01*
X137502185Y-77455641D01*
X137485040Y-77463212D01*
X137434861Y-77469032D01*
X137430000Y-77470000D01*
X136130000Y-77470000D01*
X136125138Y-77469032D01*
X136074959Y-77463212D01*
X136057812Y-77455641D01*
X136034329Y-77450970D01*
X136009186Y-77434170D01*
X135989303Y-77425391D01*
X135975722Y-77411810D01*
X135953223Y-77396777D01*
X135938189Y-77374277D01*
X135924608Y-77360696D01*
X135915827Y-77340810D01*
X135899030Y-77315671D01*
X135894359Y-77292189D01*
X135886787Y-77275040D01*
X135880964Y-77224849D01*
X135880000Y-77220000D01*
X135880000Y-73950000D01*
X135880964Y-73945150D01*
X135886787Y-73894959D01*
X135894359Y-73877808D01*
X135899030Y-73854329D01*
X135915826Y-73829191D01*
X135924608Y-73809303D01*
X135938191Y-73795719D01*
X135953223Y-73773223D01*
X135975719Y-73758191D01*
X135989303Y-73744608D01*
X136009191Y-73735826D01*
X136034329Y-73719030D01*
X136057808Y-73714359D01*
X136074959Y-73706787D01*
X136125151Y-73700964D01*
X136130000Y-73700000D01*
X137430000Y-73700000D01*
X137434850Y-73700964D01*
G37*
G36*
X147964850Y-75225964D02*
G01*
X148015040Y-75231787D01*
X148032189Y-75239359D01*
X148055671Y-75244030D01*
X148080810Y-75260827D01*
X148100696Y-75269608D01*
X148114277Y-75283189D01*
X148136777Y-75298223D01*
X148151810Y-75320722D01*
X148165391Y-75334303D01*
X148174170Y-75354186D01*
X148190970Y-75379329D01*
X148195641Y-75402812D01*
X148203212Y-75419959D01*
X148209033Y-75470139D01*
X148210000Y-75475000D01*
X148210000Y-76925000D01*
X148209032Y-76929863D01*
X148203212Y-76980040D01*
X148195641Y-76997185D01*
X148190970Y-77020671D01*
X148174169Y-77045815D01*
X148165391Y-77065696D01*
X148151812Y-77079274D01*
X148136777Y-77101777D01*
X148114274Y-77116812D01*
X148100696Y-77130391D01*
X148080815Y-77139169D01*
X148055671Y-77155970D01*
X148032185Y-77160641D01*
X148015040Y-77168212D01*
X147964861Y-77174032D01*
X147960000Y-77175000D01*
X146760000Y-77175000D01*
X146755138Y-77174032D01*
X146704959Y-77168212D01*
X146687812Y-77160641D01*
X146664329Y-77155970D01*
X146639186Y-77139170D01*
X146619303Y-77130391D01*
X146605722Y-77116810D01*
X146583223Y-77101777D01*
X146568189Y-77079277D01*
X146554608Y-77065696D01*
X146545827Y-77045810D01*
X146529030Y-77020671D01*
X146524359Y-76997189D01*
X146516787Y-76980040D01*
X146510964Y-76929849D01*
X146510000Y-76925000D01*
X146510000Y-75475000D01*
X146510964Y-75470150D01*
X146516787Y-75419959D01*
X146524359Y-75402808D01*
X146529030Y-75379329D01*
X146545826Y-75354191D01*
X146554608Y-75334303D01*
X146568191Y-75320719D01*
X146583223Y-75298223D01*
X146605719Y-75283191D01*
X146619303Y-75269608D01*
X146639191Y-75260826D01*
X146664329Y-75244030D01*
X146687808Y-75239359D01*
X146704959Y-75231787D01*
X146755151Y-75225964D01*
X146760000Y-75225000D01*
X147960000Y-75225000D01*
X147964850Y-75225964D01*
G37*
G36*
X150106742Y-75261601D02*
G01*
X150260687Y-75325367D01*
X150399234Y-75417941D01*
X150517059Y-75535766D01*
X150609633Y-75674313D01*
X150673399Y-75828258D01*
X150705907Y-75991685D01*
X150710000Y-76075000D01*
X150710000Y-76325000D01*
X150705907Y-76408315D01*
X150673399Y-76571742D01*
X150609633Y-76725687D01*
X150517059Y-76864234D01*
X150399234Y-76982059D01*
X150260687Y-77074633D01*
X150106742Y-77138399D01*
X149943315Y-77170907D01*
X149776685Y-77170907D01*
X149613258Y-77138399D01*
X149459313Y-77074633D01*
X149320766Y-76982059D01*
X149202941Y-76864234D01*
X149110367Y-76725687D01*
X149046601Y-76571742D01*
X149014093Y-76408315D01*
X149010000Y-76325000D01*
X149010000Y-76075000D01*
X149014093Y-75991685D01*
X149046601Y-75828258D01*
X149110367Y-75674313D01*
X149202941Y-75535766D01*
X149320766Y-75417941D01*
X149459313Y-75325367D01*
X149613258Y-75261601D01*
X149776685Y-75229093D01*
X149943315Y-75229093D01*
X150106742Y-75261601D01*
G37*
G36*
X157966228Y-70989448D02*
G01*
X158111117Y-71049463D01*
X158241515Y-71136592D01*
X158352408Y-71247485D01*
X158439537Y-71377883D01*
X158499552Y-71522772D01*
X158530148Y-71676586D01*
X158530148Y-71833414D01*
X158499552Y-71987228D01*
X158439537Y-72132117D01*
X158352408Y-72262515D01*
X158241515Y-72373408D01*
X158111117Y-72460537D01*
X157966228Y-72520552D01*
X157812414Y-72551148D01*
X157655586Y-72551148D01*
X157501772Y-72520552D01*
X157356883Y-72460537D01*
X157226485Y-72373408D01*
X157115592Y-72262515D01*
X157028463Y-72132117D01*
X156968448Y-71987228D01*
X156937852Y-71833414D01*
X156937852Y-71676586D01*
X156968448Y-71522772D01*
X157028463Y-71377883D01*
X157115592Y-71247485D01*
X157226485Y-71136592D01*
X157356883Y-71049463D01*
X157501772Y-70989448D01*
X157655586Y-70958852D01*
X157812414Y-70958852D01*
X157966228Y-70989448D01*
G37*
G36*
X117707228Y-70354448D02*
G01*
X117852117Y-70414463D01*
X117982515Y-70501592D01*
X118093408Y-70612485D01*
X118180537Y-70742883D01*
X118240552Y-70887772D01*
X118271148Y-71041586D01*
X118271148Y-71198414D01*
X118240552Y-71352228D01*
X118180537Y-71497117D01*
X118093408Y-71627515D01*
X117982515Y-71738408D01*
X117852117Y-71825537D01*
X117707228Y-71885552D01*
X117553414Y-71916148D01*
X117396586Y-71916148D01*
X117242772Y-71885552D01*
X117097883Y-71825537D01*
X116967485Y-71738408D01*
X116856592Y-71627515D01*
X116769463Y-71497117D01*
X116709448Y-71352228D01*
X116678852Y-71198414D01*
X116678852Y-71041586D01*
X116709448Y-70887772D01*
X116769463Y-70742883D01*
X116856592Y-70612485D01*
X116967485Y-70501592D01*
X117097883Y-70414463D01*
X117242772Y-70354448D01*
X117396586Y-70323852D01*
X117553414Y-70323852D01*
X117707228Y-70354448D01*
G37*
G36*
X140567228Y-70354448D02*
G01*
X140712117Y-70414463D01*
X140842515Y-70501592D01*
X140953408Y-70612485D01*
X141040537Y-70742883D01*
X141100552Y-70887772D01*
X141131148Y-71041586D01*
X141131148Y-71198414D01*
X141100552Y-71352228D01*
X141040537Y-71497117D01*
X140953408Y-71627515D01*
X140842515Y-71738408D01*
X140712117Y-71825537D01*
X140567228Y-71885552D01*
X140413414Y-71916148D01*
X140256586Y-71916148D01*
X140102772Y-71885552D01*
X139957883Y-71825537D01*
X139827485Y-71738408D01*
X139716592Y-71627515D01*
X139629463Y-71497117D01*
X139569448Y-71352228D01*
X139538852Y-71198414D01*
X139538852Y-71041586D01*
X139569448Y-70887772D01*
X139629463Y-70742883D01*
X139716592Y-70612485D01*
X139827485Y-70501592D01*
X139957883Y-70414463D01*
X140102772Y-70354448D01*
X140256586Y-70323852D01*
X140413414Y-70323852D01*
X140567228Y-70354448D01*
G37*
G36*
X140567228Y-67814448D02*
G01*
X140712117Y-67874463D01*
X140842515Y-67961592D01*
X140953408Y-68072485D01*
X141040537Y-68202883D01*
X141100552Y-68347772D01*
X141131148Y-68501586D01*
X141131148Y-68658414D01*
X141100552Y-68812228D01*
X141040537Y-68957117D01*
X140953408Y-69087515D01*
X140842515Y-69198408D01*
X140712117Y-69285537D01*
X140567228Y-69345552D01*
X140413414Y-69376148D01*
X140256586Y-69376148D01*
X140102772Y-69345552D01*
X139957883Y-69285537D01*
X139827485Y-69198408D01*
X139716592Y-69087515D01*
X139629463Y-68957117D01*
X139569448Y-68812228D01*
X139538852Y-68658414D01*
X139538852Y-68501586D01*
X139569448Y-68347772D01*
X139629463Y-68202883D01*
X139716592Y-68072485D01*
X139827485Y-67961592D01*
X139957883Y-67874463D01*
X140102772Y-67814448D01*
X140256586Y-67783852D01*
X140413414Y-67783852D01*
X140567228Y-67814448D01*
G37*
G36*
X165038848Y-66110964D02*
G01*
X165089040Y-66116787D01*
X165106189Y-66124359D01*
X165129670Y-66129030D01*
X165154807Y-66145826D01*
X165174695Y-66154608D01*
X165188278Y-66168191D01*
X165210776Y-66183224D01*
X165225808Y-66205721D01*
X165239391Y-66219304D01*
X165248171Y-66239189D01*
X165264970Y-66264330D01*
X165269640Y-66287811D01*
X165277212Y-66304959D01*
X165283036Y-66355163D01*
X165283999Y-66360002D01*
X165283999Y-66363458D01*
X165284000Y-66363467D01*
X165284000Y-67640000D01*
X165284000Y-68259999D01*
X165283034Y-68264851D01*
X165277212Y-68315040D01*
X165269641Y-68332185D01*
X165264970Y-68355670D01*
X165248170Y-68380812D01*
X165239391Y-68400695D01*
X165225810Y-68414275D01*
X165210776Y-68436776D01*
X165188275Y-68451810D01*
X165174695Y-68465391D01*
X165154812Y-68474170D01*
X165129670Y-68490970D01*
X165106187Y-68495640D01*
X165089040Y-68503212D01*
X165038836Y-68509036D01*
X165033998Y-68509999D01*
X165030541Y-68509999D01*
X165030533Y-68510000D01*
X163137467Y-68510000D01*
X163137466Y-68509999D01*
X163134001Y-68510000D01*
X163129149Y-68509035D01*
X163078959Y-68503212D01*
X163061812Y-68495640D01*
X163038330Y-68490970D01*
X163013189Y-68474171D01*
X162993304Y-68465391D01*
X162979721Y-68451808D01*
X162957224Y-68436776D01*
X162942191Y-68414278D01*
X162928608Y-68400695D01*
X162919826Y-68380807D01*
X162903030Y-68355670D01*
X162898360Y-68332191D01*
X162890787Y-68315040D01*
X162884963Y-68264836D01*
X162884001Y-68259998D01*
X162884000Y-68256540D01*
X162884000Y-68256532D01*
X162884000Y-66363467D01*
X162884000Y-66363466D01*
X162884000Y-66360001D01*
X162884964Y-66355151D01*
X162890787Y-66304959D01*
X162898359Y-66287808D01*
X162903030Y-66264330D01*
X162919825Y-66239193D01*
X162928608Y-66219304D01*
X162942193Y-66205718D01*
X162957224Y-66183224D01*
X162979718Y-66168193D01*
X162993304Y-66154608D01*
X163013193Y-66145825D01*
X163038330Y-66129030D01*
X163061807Y-66124360D01*
X163078959Y-66116787D01*
X163129165Y-66110963D01*
X163134002Y-66110001D01*
X163137458Y-66110000D01*
X163137467Y-66110000D01*
X165030533Y-66110000D01*
X165033999Y-66110000D01*
X165038848Y-66110964D01*
G37*
G36*
X159013903Y-67651418D02*
G01*
X159062566Y-67683934D01*
X159095082Y-67732597D01*
X159106500Y-67790000D01*
X159106500Y-68090000D01*
X159095082Y-68147403D01*
X159062566Y-68196066D01*
X159013903Y-68228582D01*
X158956500Y-68240000D01*
X157781500Y-68240000D01*
X157724097Y-68228582D01*
X157675434Y-68196066D01*
X157642918Y-68147403D01*
X157631500Y-68090000D01*
X157631500Y-67790000D01*
X157642918Y-67732597D01*
X157675434Y-67683934D01*
X157724097Y-67651418D01*
X157781500Y-67640000D01*
X158956500Y-67640000D01*
X159013903Y-67651418D01*
G37*
G36*
X157138903Y-66701418D02*
G01*
X157187566Y-66733934D01*
X157220082Y-66782597D01*
X157231500Y-66840000D01*
X157231500Y-67140000D01*
X157220082Y-67197403D01*
X157187566Y-67246066D01*
X157138903Y-67278582D01*
X157081500Y-67290000D01*
X155906500Y-67290000D01*
X155849097Y-67278582D01*
X155800434Y-67246066D01*
X155767918Y-67197403D01*
X155756500Y-67140000D01*
X155756500Y-66840000D01*
X155767918Y-66782597D01*
X155800434Y-66733934D01*
X155849097Y-66701418D01*
X155906500Y-66690000D01*
X157081500Y-66690000D01*
X157138903Y-66701418D01*
G37*
G36*
X159013903Y-65751418D02*
G01*
X159062566Y-65783934D01*
X159095082Y-65832597D01*
X159106500Y-65890000D01*
X159106500Y-66190000D01*
X159095082Y-66247403D01*
X159062566Y-66296066D01*
X159013903Y-66328582D01*
X158956500Y-66340000D01*
X157781500Y-66340000D01*
X157724097Y-66328582D01*
X157675434Y-66296066D01*
X157642918Y-66247403D01*
X157631500Y-66190000D01*
X157631500Y-65890000D01*
X157642918Y-65832597D01*
X157675434Y-65783934D01*
X157724097Y-65751418D01*
X157781500Y-65740000D01*
X158956500Y-65740000D01*
X159013903Y-65751418D01*
G37*
G36*
X147964850Y-62525964D02*
G01*
X148015040Y-62531787D01*
X148032189Y-62539359D01*
X148055671Y-62544030D01*
X148080810Y-62560827D01*
X148100696Y-62569608D01*
X148114277Y-62583189D01*
X148136777Y-62598223D01*
X148151810Y-62620722D01*
X148165391Y-62634303D01*
X148174170Y-62654186D01*
X148190970Y-62679329D01*
X148195641Y-62702812D01*
X148203212Y-62719959D01*
X148209033Y-62770139D01*
X148210000Y-62775000D01*
X148210000Y-64225000D01*
X148209032Y-64229863D01*
X148203212Y-64280040D01*
X148195641Y-64297185D01*
X148190970Y-64320671D01*
X148174169Y-64345815D01*
X148165391Y-64365696D01*
X148151812Y-64379274D01*
X148136777Y-64401777D01*
X148114274Y-64416812D01*
X148100696Y-64430391D01*
X148080815Y-64439169D01*
X148055671Y-64455970D01*
X148032185Y-64460641D01*
X148015040Y-64468212D01*
X147964861Y-64474032D01*
X147960000Y-64475000D01*
X146760000Y-64475000D01*
X146755138Y-64474032D01*
X146704959Y-64468212D01*
X146687812Y-64460641D01*
X146664329Y-64455970D01*
X146639186Y-64439170D01*
X146619303Y-64430391D01*
X146605722Y-64416810D01*
X146583223Y-64401777D01*
X146568189Y-64379277D01*
X146554608Y-64365696D01*
X146545827Y-64345810D01*
X146529030Y-64320671D01*
X146524359Y-64297189D01*
X146516787Y-64280040D01*
X146510964Y-64229849D01*
X146510000Y-64225000D01*
X146510000Y-62775000D01*
X146510964Y-62770150D01*
X146516787Y-62719959D01*
X146524359Y-62702808D01*
X146529030Y-62679329D01*
X146545826Y-62654191D01*
X146554608Y-62634303D01*
X146568191Y-62620719D01*
X146583223Y-62598223D01*
X146605719Y-62583191D01*
X146619303Y-62569608D01*
X146639191Y-62560826D01*
X146664329Y-62544030D01*
X146687808Y-62539359D01*
X146704959Y-62531787D01*
X146755151Y-62525964D01*
X146760000Y-62525000D01*
X147960000Y-62525000D01*
X147964850Y-62525964D01*
G37*
G36*
X150106742Y-62561601D02*
G01*
X150260687Y-62625367D01*
X150399234Y-62717941D01*
X150517059Y-62835766D01*
X150609633Y-62974313D01*
X150673399Y-63128258D01*
X150705907Y-63291685D01*
X150710000Y-63375000D01*
X150710000Y-63625000D01*
X150705907Y-63708315D01*
X150673399Y-63871742D01*
X150609633Y-64025687D01*
X150517059Y-64164234D01*
X150399234Y-64282059D01*
X150260687Y-64374633D01*
X150106742Y-64438399D01*
X149943315Y-64470907D01*
X149776685Y-64470907D01*
X149613258Y-64438399D01*
X149459313Y-64374633D01*
X149320766Y-64282059D01*
X149202941Y-64164234D01*
X149110367Y-64025687D01*
X149046601Y-63871742D01*
X149014093Y-63708315D01*
X149010000Y-63625000D01*
X149010000Y-63375000D01*
X149014093Y-63291685D01*
X149046601Y-63128258D01*
X149110367Y-62974313D01*
X149202941Y-62835766D01*
X149320766Y-62717941D01*
X149459313Y-62625367D01*
X149613258Y-62561601D01*
X149776685Y-62529093D01*
X149943315Y-62529093D01*
X150106742Y-62561601D01*
G37*
G36*
X157204228Y-60702448D02*
G01*
X157349117Y-60762463D01*
X157479515Y-60849592D01*
X157590408Y-60960485D01*
X157677537Y-61090883D01*
X157737552Y-61235772D01*
X157768148Y-61389586D01*
X157768148Y-61546414D01*
X157737552Y-61700228D01*
X157677537Y-61845117D01*
X157590408Y-61975515D01*
X157479515Y-62086408D01*
X157349117Y-62173537D01*
X157204228Y-62233552D01*
X157050414Y-62264148D01*
X156893586Y-62264148D01*
X156739772Y-62233552D01*
X156594883Y-62173537D01*
X156464485Y-62086408D01*
X156353592Y-61975515D01*
X156266463Y-61845117D01*
X156206448Y-61700228D01*
X156175852Y-61546414D01*
X156175852Y-61389586D01*
X156206448Y-61235772D01*
X156266463Y-61090883D01*
X156353592Y-60960485D01*
X156464485Y-60849592D01*
X156594883Y-60762463D01*
X156739772Y-60702448D01*
X156893586Y-60671852D01*
X157050414Y-60671852D01*
X157204228Y-60702448D01*
G37*
G36*
X164638850Y-59652964D02*
G01*
X164689040Y-59658787D01*
X164706189Y-59666359D01*
X164729671Y-59671030D01*
X164754810Y-59687827D01*
X164774696Y-59696608D01*
X164788277Y-59710189D01*
X164810777Y-59725223D01*
X164825810Y-59747722D01*
X164839391Y-59761303D01*
X164848170Y-59781186D01*
X164864970Y-59806329D01*
X164869641Y-59829812D01*
X164877212Y-59846959D01*
X164883033Y-59897139D01*
X164884000Y-59902000D01*
X164884000Y-61002000D01*
X164883032Y-61006863D01*
X164877212Y-61057040D01*
X164869641Y-61074185D01*
X164864970Y-61097671D01*
X164848169Y-61122815D01*
X164839391Y-61142696D01*
X164825812Y-61156274D01*
X164810777Y-61178777D01*
X164788274Y-61193812D01*
X164774696Y-61207391D01*
X164754815Y-61216169D01*
X164729671Y-61232970D01*
X164706185Y-61237641D01*
X164689040Y-61245212D01*
X164638861Y-61251032D01*
X164634000Y-61252000D01*
X163534000Y-61252000D01*
X163529138Y-61251032D01*
X163478959Y-61245212D01*
X163461812Y-61237641D01*
X163438329Y-61232970D01*
X163413186Y-61216170D01*
X163393303Y-61207391D01*
X163379722Y-61193810D01*
X163357223Y-61178777D01*
X163342189Y-61156277D01*
X163328608Y-61142696D01*
X163319827Y-61122810D01*
X163303030Y-61097671D01*
X163298359Y-61074189D01*
X163290787Y-61057040D01*
X163284964Y-61006849D01*
X163284000Y-61002000D01*
X163284000Y-59902000D01*
X163284964Y-59897150D01*
X163290787Y-59846959D01*
X163298359Y-59829808D01*
X163303030Y-59806329D01*
X163319826Y-59781191D01*
X163328608Y-59761303D01*
X163342191Y-59747719D01*
X163357223Y-59725223D01*
X163379719Y-59710191D01*
X163393303Y-59696608D01*
X163413191Y-59687826D01*
X163438329Y-59671030D01*
X163461808Y-59666359D01*
X163478959Y-59658787D01*
X163529151Y-59652964D01*
X163534000Y-59652000D01*
X164634000Y-59652000D01*
X164638850Y-59652964D01*
G37*
G36*
X140567228Y-58924448D02*
G01*
X140712117Y-58984463D01*
X140842515Y-59071592D01*
X140953408Y-59182485D01*
X141040537Y-59312883D01*
X141100552Y-59457772D01*
X141131148Y-59611586D01*
X141131148Y-59768414D01*
X141100552Y-59922228D01*
X141040537Y-60067117D01*
X140953408Y-60197515D01*
X140842515Y-60308408D01*
X140712117Y-60395537D01*
X140567228Y-60455552D01*
X140413414Y-60486148D01*
X140256586Y-60486148D01*
X140102772Y-60455552D01*
X139957883Y-60395537D01*
X139827485Y-60308408D01*
X139716592Y-60197515D01*
X139629463Y-60067117D01*
X139569448Y-59922228D01*
X139538852Y-59768414D01*
X139538852Y-59611586D01*
X139569448Y-59457772D01*
X139629463Y-59312883D01*
X139716592Y-59182485D01*
X139827485Y-59071592D01*
X139957883Y-58984463D01*
X140102772Y-58924448D01*
X140256586Y-58893852D01*
X140413414Y-58893852D01*
X140567228Y-58924448D01*
G37*
G36*
X164316228Y-57186448D02*
G01*
X164461117Y-57246463D01*
X164591515Y-57333592D01*
X164702408Y-57444485D01*
X164789537Y-57574883D01*
X164849552Y-57719772D01*
X164880148Y-57873586D01*
X164880148Y-58030414D01*
X164849552Y-58184228D01*
X164789537Y-58329117D01*
X164702408Y-58459515D01*
X164591515Y-58570408D01*
X164461117Y-58657537D01*
X164316228Y-58717552D01*
X164162414Y-58748148D01*
X164005586Y-58748148D01*
X163851772Y-58717552D01*
X163706883Y-58657537D01*
X163576485Y-58570408D01*
X163465592Y-58459515D01*
X163378463Y-58329117D01*
X163318448Y-58184228D01*
X163287852Y-58030414D01*
X163287852Y-57873586D01*
X163318448Y-57719772D01*
X163378463Y-57574883D01*
X163465592Y-57444485D01*
X163576485Y-57333592D01*
X163706883Y-57246463D01*
X163851772Y-57186448D01*
X164005586Y-57155852D01*
X164162414Y-57155852D01*
X164316228Y-57186448D01*
G37*
G36*
X186374850Y-55696964D02*
G01*
X186425040Y-55702787D01*
X186442189Y-55710359D01*
X186465671Y-55715030D01*
X186490810Y-55731827D01*
X186510696Y-55740608D01*
X186524277Y-55754189D01*
X186546777Y-55769223D01*
X186561810Y-55791722D01*
X186575391Y-55805303D01*
X186584170Y-55825186D01*
X186600970Y-55850329D01*
X186605641Y-55873812D01*
X186613212Y-55890959D01*
X186619033Y-55941139D01*
X186620000Y-55946000D01*
X186620000Y-57846000D01*
X186619032Y-57850863D01*
X186613212Y-57901040D01*
X186605641Y-57918185D01*
X186600970Y-57941671D01*
X186584169Y-57966815D01*
X186575391Y-57986696D01*
X186561812Y-58000274D01*
X186546777Y-58022777D01*
X186524274Y-58037812D01*
X186510696Y-58051391D01*
X186490815Y-58060169D01*
X186465671Y-58076970D01*
X186442185Y-58081641D01*
X186425040Y-58089212D01*
X186374861Y-58095032D01*
X186370000Y-58096000D01*
X184470000Y-58096000D01*
X184465138Y-58095032D01*
X184414959Y-58089212D01*
X184397812Y-58081641D01*
X184374329Y-58076970D01*
X184349186Y-58060170D01*
X184329303Y-58051391D01*
X184315722Y-58037810D01*
X184293223Y-58022777D01*
X184278189Y-58000277D01*
X184264608Y-57986696D01*
X184255827Y-57966810D01*
X184239030Y-57941671D01*
X184234359Y-57918189D01*
X184226787Y-57901040D01*
X184220964Y-57850849D01*
X184220000Y-57846000D01*
X184220000Y-55946000D01*
X184220964Y-55941150D01*
X184226787Y-55890959D01*
X184234359Y-55873808D01*
X184239030Y-55850329D01*
X184255826Y-55825191D01*
X184264608Y-55805303D01*
X184278191Y-55791719D01*
X184293223Y-55769223D01*
X184315719Y-55754191D01*
X184329303Y-55740608D01*
X184349191Y-55731826D01*
X184374329Y-55715030D01*
X184397808Y-55710359D01*
X184414959Y-55702787D01*
X184465151Y-55696964D01*
X184470000Y-55696000D01*
X186370000Y-55696000D01*
X186374850Y-55696964D01*
G37*
G36*
X171730134Y-55729156D02*
G01*
X171909220Y-55787345D01*
X172076998Y-55872832D01*
X172229338Y-55983513D01*
X172362487Y-56116662D01*
X172473168Y-56269002D01*
X172558655Y-56436780D01*
X172616844Y-56615866D01*
X172646301Y-56801849D01*
X172646301Y-56990151D01*
X172616844Y-57176134D01*
X172558655Y-57355220D01*
X172473168Y-57522998D01*
X172362487Y-57675338D01*
X172229338Y-57808487D01*
X172076998Y-57919168D01*
X171909220Y-58004655D01*
X171730134Y-58062844D01*
X171544151Y-58092301D01*
X171355849Y-58092301D01*
X171169866Y-58062844D01*
X170990780Y-58004655D01*
X170823002Y-57919168D01*
X170670662Y-57808487D01*
X170537513Y-57675338D01*
X170426832Y-57522998D01*
X170341345Y-57355220D01*
X170283156Y-57176134D01*
X170253699Y-56990151D01*
X170253699Y-56801849D01*
X170283156Y-56615866D01*
X170341345Y-56436780D01*
X170426832Y-56269002D01*
X170537513Y-56116662D01*
X170670662Y-55983513D01*
X170823002Y-55872832D01*
X170990780Y-55787345D01*
X171169866Y-55729156D01*
X171355849Y-55699699D01*
X171544151Y-55699699D01*
X171730134Y-55729156D01*
G37*
G36*
X118275000Y-57950000D02*
G01*
X116675000Y-57950000D01*
X116675000Y-56350000D01*
X118275000Y-56350000D01*
X118275000Y-57950000D01*
G37*
G36*
X140567228Y-56384448D02*
G01*
X140712117Y-56444463D01*
X140842515Y-56531592D01*
X140953408Y-56642485D01*
X141040537Y-56772883D01*
X141100552Y-56917772D01*
X141131148Y-57071586D01*
X141131148Y-57228414D01*
X141100552Y-57382228D01*
X141040537Y-57527117D01*
X140953408Y-57657515D01*
X140842515Y-57768408D01*
X140712117Y-57855537D01*
X140567228Y-57915552D01*
X140413414Y-57946148D01*
X140256586Y-57946148D01*
X140102772Y-57915552D01*
X139957883Y-57855537D01*
X139827485Y-57768408D01*
X139716592Y-57657515D01*
X139629463Y-57527117D01*
X139569448Y-57382228D01*
X139538852Y-57228414D01*
X139538852Y-57071586D01*
X139569448Y-56917772D01*
X139629463Y-56772883D01*
X139716592Y-56642485D01*
X139827485Y-56531592D01*
X139957883Y-56444463D01*
X140102772Y-56384448D01*
X140256586Y-56353852D01*
X140413414Y-56353852D01*
X140567228Y-56384448D01*
G37*
G36*
X113921790Y-55445393D02*
G01*
X114085952Y-55498733D01*
X114239748Y-55577096D01*
X114379393Y-55678553D01*
X114501447Y-55800607D01*
X114602904Y-55940252D01*
X114681267Y-56094048D01*
X114734607Y-56258210D01*
X114761609Y-56428695D01*
X114761609Y-56601305D01*
X114734607Y-56771790D01*
X114681267Y-56935952D01*
X114602904Y-57089748D01*
X114501447Y-57229393D01*
X114379393Y-57351447D01*
X114239748Y-57452904D01*
X114085952Y-57531267D01*
X113921790Y-57584607D01*
X113751305Y-57611609D01*
X113578695Y-57611609D01*
X113408210Y-57584607D01*
X113244048Y-57531267D01*
X113090252Y-57452904D01*
X112950607Y-57351447D01*
X112828553Y-57229393D01*
X112727096Y-57089748D01*
X112648733Y-56935952D01*
X112595393Y-56771790D01*
X112568391Y-56601305D01*
X112568391Y-56428695D01*
X112595393Y-56258210D01*
X112648733Y-56094048D01*
X112727096Y-55940252D01*
X112828553Y-55800607D01*
X112950607Y-55678553D01*
X113090252Y-55577096D01*
X113244048Y-55498733D01*
X113408210Y-55445393D01*
X113578695Y-55418391D01*
X113751305Y-55418391D01*
X113921790Y-55445393D01*
G37*
G36*
X189486790Y-55445393D02*
G01*
X189650952Y-55498733D01*
X189804748Y-55577096D01*
X189944393Y-55678553D01*
X190066447Y-55800607D01*
X190167904Y-55940252D01*
X190246267Y-56094048D01*
X190299607Y-56258210D01*
X190326609Y-56428695D01*
X190326609Y-56601305D01*
X190299607Y-56771790D01*
X190246267Y-56935952D01*
X190167904Y-57089748D01*
X190066447Y-57229393D01*
X189944393Y-57351447D01*
X189804748Y-57452904D01*
X189650952Y-57531267D01*
X189486790Y-57584607D01*
X189316305Y-57611609D01*
X189143695Y-57611609D01*
X188973210Y-57584607D01*
X188809048Y-57531267D01*
X188655252Y-57452904D01*
X188515607Y-57351447D01*
X188393553Y-57229393D01*
X188292096Y-57089748D01*
X188213733Y-56935952D01*
X188160393Y-56771790D01*
X188133391Y-56601305D01*
X188133391Y-56428695D01*
X188160393Y-56258210D01*
X188213733Y-56094048D01*
X188292096Y-55940252D01*
X188393553Y-55800607D01*
X188515607Y-55678553D01*
X188655252Y-55577096D01*
X188809048Y-55498733D01*
X188973210Y-55445393D01*
X189143695Y-55418391D01*
X189316305Y-55418391D01*
X189486790Y-55445393D01*
G37*
G36*
X157204228Y-55702448D02*
G01*
X157349117Y-55762463D01*
X157479515Y-55849592D01*
X157590408Y-55960485D01*
X157677537Y-56090883D01*
X157737552Y-56235772D01*
X157768148Y-56389586D01*
X157768148Y-56546414D01*
X157737552Y-56700228D01*
X157677537Y-56845117D01*
X157590408Y-56975515D01*
X157479515Y-57086408D01*
X157349117Y-57173537D01*
X157204228Y-57233552D01*
X157050414Y-57264148D01*
X156893586Y-57264148D01*
X156739772Y-57233552D01*
X156594883Y-57173537D01*
X156464485Y-57086408D01*
X156353592Y-56975515D01*
X156266463Y-56845117D01*
X156206448Y-56700228D01*
X156175852Y-56546414D01*
X156175852Y-56389586D01*
X156206448Y-56235772D01*
X156266463Y-56090883D01*
X156353592Y-55960485D01*
X156464485Y-55849592D01*
X156594883Y-55762463D01*
X156739772Y-55702448D01*
X156893586Y-55671852D01*
X157050414Y-55671852D01*
X157204228Y-55702448D01*
G37*
%LPD*%
M02*
