%TF.GenerationSoftware,KiCad,Pcbnew,9.0.6*%
%TF.CreationDate,2025-11-18T17:24:44-08:00*%
%TF.ProjectId,schematic,73636865-6d61-4746-9963-2e6b69636164,rev?*%
%TF.SameCoordinates,Original*%
%TF.FileFunction,Soldermask,Top*%
%TF.FilePolarity,Negative*%
%FSLAX46Y46*%
G04 Gerber Fmt 4.6, Leading zero omitted, Abs format (unit mm)*
G04 Created by KiCad (PCBNEW 9.0.6) date 2025-11-18 17:24:44*
%MOMM*%
%LPD*%
G01*
G04 APERTURE LIST*
G04 APERTURE END LIST*
G36*
X40261790Y-63446393D02*
G01*
X40425952Y-63499733D01*
X40579748Y-63578096D01*
X40719393Y-63679553D01*
X40841447Y-63801607D01*
X40942904Y-63941252D01*
X41021267Y-64095048D01*
X41074607Y-64259210D01*
X41101609Y-64429695D01*
X41101609Y-64602305D01*
X41074607Y-64772790D01*
X41021267Y-64936952D01*
X40942904Y-65090748D01*
X40841447Y-65230393D01*
X40719393Y-65352447D01*
X40579748Y-65453904D01*
X40425952Y-65532267D01*
X40261790Y-65585607D01*
X40091305Y-65612609D01*
X39918695Y-65612609D01*
X39748210Y-65585607D01*
X39584048Y-65532267D01*
X39430252Y-65453904D01*
X39290607Y-65352447D01*
X39168553Y-65230393D01*
X39067096Y-65090748D01*
X38988733Y-64936952D01*
X38935393Y-64772790D01*
X38908391Y-64602305D01*
X38908391Y-64429695D01*
X38935393Y-64259210D01*
X38988733Y-64095048D01*
X39067096Y-63941252D01*
X39168553Y-63801607D01*
X39290607Y-63679553D01*
X39430252Y-63578096D01*
X39584048Y-63499733D01*
X39748210Y-63446393D01*
X39918695Y-63419391D01*
X40091305Y-63419391D01*
X40261790Y-63446393D01*
G37*
G36*
X115445790Y-63319393D02*
G01*
X115609952Y-63372733D01*
X115763748Y-63451096D01*
X115903393Y-63552553D01*
X116025447Y-63674607D01*
X116126904Y-63814252D01*
X116205267Y-63968048D01*
X116258607Y-64132210D01*
X116285609Y-64302695D01*
X116285609Y-64475305D01*
X116258607Y-64645790D01*
X116205267Y-64809952D01*
X116126904Y-64963748D01*
X116025447Y-65103393D01*
X115903393Y-65225447D01*
X115763748Y-65326904D01*
X115609952Y-65405267D01*
X115445790Y-65458607D01*
X115275305Y-65485609D01*
X115102695Y-65485609D01*
X114932210Y-65458607D01*
X114768048Y-65405267D01*
X114614252Y-65326904D01*
X114474607Y-65225447D01*
X114352553Y-65103393D01*
X114251096Y-64963748D01*
X114172733Y-64809952D01*
X114119393Y-64645790D01*
X114092391Y-64475305D01*
X114092391Y-64302695D01*
X114119393Y-64132210D01*
X114172733Y-63968048D01*
X114251096Y-63814252D01*
X114352553Y-63674607D01*
X114474607Y-63552553D01*
X114614252Y-63451096D01*
X114768048Y-63372733D01*
X114932210Y-63319393D01*
X115102695Y-63292391D01*
X115275305Y-63292391D01*
X115445790Y-63319393D01*
G37*
G36*
X78845228Y-62607448D02*
G01*
X78990117Y-62667463D01*
X79120515Y-62754592D01*
X79231408Y-62865485D01*
X79318537Y-62995883D01*
X79378552Y-63140772D01*
X79409148Y-63294586D01*
X79409148Y-63451414D01*
X79378552Y-63605228D01*
X79318537Y-63750117D01*
X79231408Y-63880515D01*
X79120515Y-63991408D01*
X78990117Y-64078537D01*
X78845228Y-64138552D01*
X78691414Y-64169148D01*
X78534586Y-64169148D01*
X78380772Y-64138552D01*
X78235883Y-64078537D01*
X78105485Y-63991408D01*
X77994592Y-63880515D01*
X77907463Y-63750117D01*
X77847448Y-63605228D01*
X77816852Y-63451414D01*
X77816852Y-63294586D01*
X77847448Y-63140772D01*
X77907463Y-62995883D01*
X77994592Y-62865485D01*
X78105485Y-62754592D01*
X78235883Y-62667463D01*
X78380772Y-62607448D01*
X78534586Y-62576852D01*
X78691414Y-62576852D01*
X78845228Y-62607448D01*
G37*
G36*
X110877850Y-62446964D02*
G01*
X110928040Y-62452787D01*
X110945189Y-62460359D01*
X110968671Y-62465030D01*
X110993810Y-62481827D01*
X111013696Y-62490608D01*
X111027277Y-62504189D01*
X111049777Y-62519223D01*
X111064810Y-62541722D01*
X111078391Y-62555303D01*
X111087170Y-62575186D01*
X111103970Y-62600329D01*
X111108641Y-62623812D01*
X111116212Y-62640959D01*
X111122033Y-62691139D01*
X111123000Y-62696000D01*
X111123000Y-63796000D01*
X111122032Y-63800863D01*
X111116212Y-63851040D01*
X111108641Y-63868185D01*
X111103970Y-63891671D01*
X111087169Y-63916815D01*
X111078391Y-63936696D01*
X111064812Y-63950274D01*
X111049777Y-63972777D01*
X111027274Y-63987812D01*
X111013696Y-64001391D01*
X110993815Y-64010169D01*
X110968671Y-64026970D01*
X110945185Y-64031641D01*
X110928040Y-64039212D01*
X110877861Y-64045032D01*
X110873000Y-64046000D01*
X109773000Y-64046000D01*
X109768138Y-64045032D01*
X109717959Y-64039212D01*
X109700812Y-64031641D01*
X109677329Y-64026970D01*
X109652186Y-64010170D01*
X109632303Y-64001391D01*
X109618722Y-63987810D01*
X109596223Y-63972777D01*
X109581189Y-63950277D01*
X109567608Y-63936696D01*
X109558827Y-63916810D01*
X109542030Y-63891671D01*
X109537359Y-63868189D01*
X109529787Y-63851040D01*
X109523964Y-63800849D01*
X109523000Y-63796000D01*
X109523000Y-62696000D01*
X109523964Y-62691150D01*
X109529787Y-62640959D01*
X109537359Y-62623808D01*
X109542030Y-62600329D01*
X109558826Y-62575191D01*
X109567608Y-62555303D01*
X109581191Y-62541719D01*
X109596223Y-62519223D01*
X109618719Y-62504191D01*
X109632303Y-62490608D01*
X109652191Y-62481826D01*
X109677329Y-62465030D01*
X109700808Y-62460359D01*
X109717959Y-62452787D01*
X109768151Y-62446964D01*
X109773000Y-62446000D01*
X110873000Y-62446000D01*
X110877850Y-62446964D01*
G37*
G36*
X108055228Y-62480448D02*
G01*
X108200117Y-62540463D01*
X108330515Y-62627592D01*
X108441408Y-62738485D01*
X108528537Y-62868883D01*
X108588552Y-63013772D01*
X108619148Y-63167586D01*
X108619148Y-63324414D01*
X108588552Y-63478228D01*
X108528537Y-63623117D01*
X108441408Y-63753515D01*
X108330515Y-63864408D01*
X108200117Y-63951537D01*
X108055228Y-64011552D01*
X107901414Y-64042148D01*
X107744586Y-64042148D01*
X107590772Y-64011552D01*
X107445883Y-63951537D01*
X107315485Y-63864408D01*
X107204592Y-63753515D01*
X107117463Y-63623117D01*
X107057448Y-63478228D01*
X107026852Y-63324414D01*
X107026852Y-63167586D01*
X107057448Y-63013772D01*
X107117463Y-62868883D01*
X107204592Y-62738485D01*
X107315485Y-62627592D01*
X107445883Y-62540463D01*
X107590772Y-62480448D01*
X107744586Y-62449852D01*
X107901414Y-62449852D01*
X108055228Y-62480448D01*
G37*
G36*
X91147000Y-63207000D02*
G01*
X89447000Y-63207000D01*
X89447000Y-61507000D01*
X91147000Y-61507000D01*
X91147000Y-63207000D01*
G37*
G36*
X43072850Y-59436964D02*
G01*
X43123040Y-59442787D01*
X43140189Y-59450359D01*
X43163671Y-59455030D01*
X43188810Y-59471827D01*
X43208696Y-59480608D01*
X43222277Y-59494189D01*
X43244777Y-59509223D01*
X43259810Y-59531722D01*
X43273391Y-59545303D01*
X43282170Y-59565186D01*
X43298970Y-59590329D01*
X43303641Y-59613812D01*
X43311212Y-59630959D01*
X43317033Y-59681139D01*
X43318000Y-59686000D01*
X43318000Y-62956000D01*
X43317032Y-62960863D01*
X43311212Y-63011040D01*
X43303641Y-63028185D01*
X43298970Y-63051671D01*
X43282169Y-63076815D01*
X43273391Y-63096696D01*
X43259812Y-63110274D01*
X43244777Y-63132777D01*
X43222274Y-63147812D01*
X43208696Y-63161391D01*
X43188815Y-63170169D01*
X43163671Y-63186970D01*
X43140185Y-63191641D01*
X43123040Y-63199212D01*
X43072861Y-63205032D01*
X43068000Y-63206000D01*
X41768000Y-63206000D01*
X41763138Y-63205032D01*
X41712959Y-63199212D01*
X41695812Y-63191641D01*
X41672329Y-63186970D01*
X41647186Y-63170170D01*
X41627303Y-63161391D01*
X41613722Y-63147810D01*
X41591223Y-63132777D01*
X41576189Y-63110277D01*
X41562608Y-63096696D01*
X41553827Y-63076810D01*
X41537030Y-63051671D01*
X41532359Y-63028189D01*
X41524787Y-63011040D01*
X41518964Y-62960849D01*
X41518000Y-62956000D01*
X41518000Y-59686000D01*
X41518964Y-59681150D01*
X41524787Y-59630959D01*
X41532359Y-59613808D01*
X41537030Y-59590329D01*
X41553826Y-59565191D01*
X41562608Y-59545303D01*
X41576191Y-59531719D01*
X41591223Y-59509223D01*
X41613719Y-59494191D01*
X41627303Y-59480608D01*
X41647191Y-59471826D01*
X41672329Y-59455030D01*
X41695808Y-59450359D01*
X41712959Y-59442787D01*
X41763151Y-59436964D01*
X41768000Y-59436000D01*
X43068000Y-59436000D01*
X43072850Y-59436964D01*
G37*
G36*
X45612850Y-59436964D02*
G01*
X45663040Y-59442787D01*
X45680189Y-59450359D01*
X45703671Y-59455030D01*
X45728810Y-59471827D01*
X45748696Y-59480608D01*
X45762277Y-59494189D01*
X45784777Y-59509223D01*
X45799810Y-59531722D01*
X45813391Y-59545303D01*
X45822170Y-59565186D01*
X45838970Y-59590329D01*
X45843641Y-59613812D01*
X45851212Y-59630959D01*
X45857033Y-59681139D01*
X45858000Y-59686000D01*
X45858000Y-62956000D01*
X45857032Y-62960863D01*
X45851212Y-63011040D01*
X45843641Y-63028185D01*
X45838970Y-63051671D01*
X45822169Y-63076815D01*
X45813391Y-63096696D01*
X45799812Y-63110274D01*
X45784777Y-63132777D01*
X45762274Y-63147812D01*
X45748696Y-63161391D01*
X45728815Y-63170169D01*
X45703671Y-63186970D01*
X45680185Y-63191641D01*
X45663040Y-63199212D01*
X45612861Y-63205032D01*
X45608000Y-63206000D01*
X44308000Y-63206000D01*
X44303138Y-63205032D01*
X44252959Y-63199212D01*
X44235812Y-63191641D01*
X44212329Y-63186970D01*
X44187186Y-63170170D01*
X44167303Y-63161391D01*
X44153722Y-63147810D01*
X44131223Y-63132777D01*
X44116189Y-63110277D01*
X44102608Y-63096696D01*
X44093827Y-63076810D01*
X44077030Y-63051671D01*
X44072359Y-63028189D01*
X44064787Y-63011040D01*
X44058964Y-62960849D01*
X44058000Y-62956000D01*
X44058000Y-59686000D01*
X44058964Y-59681150D01*
X44064787Y-59630959D01*
X44072359Y-59613808D01*
X44077030Y-59590329D01*
X44093826Y-59565191D01*
X44102608Y-59545303D01*
X44116191Y-59531719D01*
X44131223Y-59509223D01*
X44153719Y-59494191D01*
X44167303Y-59480608D01*
X44187191Y-59471826D01*
X44212329Y-59455030D01*
X44235808Y-59450359D01*
X44252959Y-59442787D01*
X44303151Y-59436964D01*
X44308000Y-59436000D01*
X45608000Y-59436000D01*
X45612850Y-59436964D01*
G37*
G36*
X48152850Y-59436964D02*
G01*
X48203040Y-59442787D01*
X48220189Y-59450359D01*
X48243671Y-59455030D01*
X48268810Y-59471827D01*
X48288696Y-59480608D01*
X48302277Y-59494189D01*
X48324777Y-59509223D01*
X48339810Y-59531722D01*
X48353391Y-59545303D01*
X48362170Y-59565186D01*
X48378970Y-59590329D01*
X48383641Y-59613812D01*
X48391212Y-59630959D01*
X48397033Y-59681139D01*
X48398000Y-59686000D01*
X48398000Y-62956000D01*
X48397032Y-62960863D01*
X48391212Y-63011040D01*
X48383641Y-63028185D01*
X48378970Y-63051671D01*
X48362169Y-63076815D01*
X48353391Y-63096696D01*
X48339812Y-63110274D01*
X48324777Y-63132777D01*
X48302274Y-63147812D01*
X48288696Y-63161391D01*
X48268815Y-63170169D01*
X48243671Y-63186970D01*
X48220185Y-63191641D01*
X48203040Y-63199212D01*
X48152861Y-63205032D01*
X48148000Y-63206000D01*
X46848000Y-63206000D01*
X46843138Y-63205032D01*
X46792959Y-63199212D01*
X46775812Y-63191641D01*
X46752329Y-63186970D01*
X46727186Y-63170170D01*
X46707303Y-63161391D01*
X46693722Y-63147810D01*
X46671223Y-63132777D01*
X46656189Y-63110277D01*
X46642608Y-63096696D01*
X46633827Y-63076810D01*
X46617030Y-63051671D01*
X46612359Y-63028189D01*
X46604787Y-63011040D01*
X46598964Y-62960849D01*
X46598000Y-62956000D01*
X46598000Y-59686000D01*
X46598964Y-59681150D01*
X46604787Y-59630959D01*
X46612359Y-59613808D01*
X46617030Y-59590329D01*
X46633826Y-59565191D01*
X46642608Y-59545303D01*
X46656191Y-59531719D01*
X46671223Y-59509223D01*
X46693719Y-59494191D01*
X46707303Y-59480608D01*
X46727191Y-59471826D01*
X46752329Y-59455030D01*
X46775808Y-59450359D01*
X46792959Y-59442787D01*
X46843151Y-59436964D01*
X46848000Y-59436000D01*
X48148000Y-59436000D01*
X48152850Y-59436964D01*
G37*
G36*
X50692850Y-59436964D02*
G01*
X50743040Y-59442787D01*
X50760189Y-59450359D01*
X50783671Y-59455030D01*
X50808810Y-59471827D01*
X50828696Y-59480608D01*
X50842277Y-59494189D01*
X50864777Y-59509223D01*
X50879810Y-59531722D01*
X50893391Y-59545303D01*
X50902170Y-59565186D01*
X50918970Y-59590329D01*
X50923641Y-59613812D01*
X50931212Y-59630959D01*
X50937033Y-59681139D01*
X50938000Y-59686000D01*
X50938000Y-62956000D01*
X50937032Y-62960863D01*
X50931212Y-63011040D01*
X50923641Y-63028185D01*
X50918970Y-63051671D01*
X50902169Y-63076815D01*
X50893391Y-63096696D01*
X50879812Y-63110274D01*
X50864777Y-63132777D01*
X50842274Y-63147812D01*
X50828696Y-63161391D01*
X50808815Y-63170169D01*
X50783671Y-63186970D01*
X50760185Y-63191641D01*
X50743040Y-63199212D01*
X50692861Y-63205032D01*
X50688000Y-63206000D01*
X49388000Y-63206000D01*
X49383138Y-63205032D01*
X49332959Y-63199212D01*
X49315812Y-63191641D01*
X49292329Y-63186970D01*
X49267186Y-63170170D01*
X49247303Y-63161391D01*
X49233722Y-63147810D01*
X49211223Y-63132777D01*
X49196189Y-63110277D01*
X49182608Y-63096696D01*
X49173827Y-63076810D01*
X49157030Y-63051671D01*
X49152359Y-63028189D01*
X49144787Y-63011040D01*
X49138964Y-62960849D01*
X49138000Y-62956000D01*
X49138000Y-59686000D01*
X49138964Y-59681150D01*
X49144787Y-59630959D01*
X49152359Y-59613808D01*
X49157030Y-59590329D01*
X49173826Y-59565191D01*
X49182608Y-59545303D01*
X49196191Y-59531719D01*
X49211223Y-59509223D01*
X49233719Y-59494191D01*
X49247303Y-59480608D01*
X49267191Y-59471826D01*
X49292329Y-59455030D01*
X49315808Y-59450359D01*
X49332959Y-59442787D01*
X49383151Y-59436964D01*
X49388000Y-59436000D01*
X50688000Y-59436000D01*
X50692850Y-59436964D01*
G37*
G36*
X53232850Y-59436964D02*
G01*
X53283040Y-59442787D01*
X53300189Y-59450359D01*
X53323671Y-59455030D01*
X53348810Y-59471827D01*
X53368696Y-59480608D01*
X53382277Y-59494189D01*
X53404777Y-59509223D01*
X53419810Y-59531722D01*
X53433391Y-59545303D01*
X53442170Y-59565186D01*
X53458970Y-59590329D01*
X53463641Y-59613812D01*
X53471212Y-59630959D01*
X53477033Y-59681139D01*
X53478000Y-59686000D01*
X53478000Y-62956000D01*
X53477032Y-62960863D01*
X53471212Y-63011040D01*
X53463641Y-63028185D01*
X53458970Y-63051671D01*
X53442169Y-63076815D01*
X53433391Y-63096696D01*
X53419812Y-63110274D01*
X53404777Y-63132777D01*
X53382274Y-63147812D01*
X53368696Y-63161391D01*
X53348815Y-63170169D01*
X53323671Y-63186970D01*
X53300185Y-63191641D01*
X53283040Y-63199212D01*
X53232861Y-63205032D01*
X53228000Y-63206000D01*
X51928000Y-63206000D01*
X51923138Y-63205032D01*
X51872959Y-63199212D01*
X51855812Y-63191641D01*
X51832329Y-63186970D01*
X51807186Y-63170170D01*
X51787303Y-63161391D01*
X51773722Y-63147810D01*
X51751223Y-63132777D01*
X51736189Y-63110277D01*
X51722608Y-63096696D01*
X51713827Y-63076810D01*
X51697030Y-63051671D01*
X51692359Y-63028189D01*
X51684787Y-63011040D01*
X51678964Y-62960849D01*
X51678000Y-62956000D01*
X51678000Y-59686000D01*
X51678964Y-59681150D01*
X51684787Y-59630959D01*
X51692359Y-59613808D01*
X51697030Y-59590329D01*
X51713826Y-59565191D01*
X51722608Y-59545303D01*
X51736191Y-59531719D01*
X51751223Y-59509223D01*
X51773719Y-59494191D01*
X51787303Y-59480608D01*
X51807191Y-59471826D01*
X51832329Y-59455030D01*
X51855808Y-59450359D01*
X51872959Y-59442787D01*
X51923151Y-59436964D01*
X51928000Y-59436000D01*
X53228000Y-59436000D01*
X53232850Y-59436964D01*
G37*
G36*
X55772850Y-59436964D02*
G01*
X55823040Y-59442787D01*
X55840189Y-59450359D01*
X55863671Y-59455030D01*
X55888810Y-59471827D01*
X55908696Y-59480608D01*
X55922277Y-59494189D01*
X55944777Y-59509223D01*
X55959810Y-59531722D01*
X55973391Y-59545303D01*
X55982170Y-59565186D01*
X55998970Y-59590329D01*
X56003641Y-59613812D01*
X56011212Y-59630959D01*
X56017033Y-59681139D01*
X56018000Y-59686000D01*
X56018000Y-62956000D01*
X56017032Y-62960863D01*
X56011212Y-63011040D01*
X56003641Y-63028185D01*
X55998970Y-63051671D01*
X55982169Y-63076815D01*
X55973391Y-63096696D01*
X55959812Y-63110274D01*
X55944777Y-63132777D01*
X55922274Y-63147812D01*
X55908696Y-63161391D01*
X55888815Y-63170169D01*
X55863671Y-63186970D01*
X55840185Y-63191641D01*
X55823040Y-63199212D01*
X55772861Y-63205032D01*
X55768000Y-63206000D01*
X54468000Y-63206000D01*
X54463138Y-63205032D01*
X54412959Y-63199212D01*
X54395812Y-63191641D01*
X54372329Y-63186970D01*
X54347186Y-63170170D01*
X54327303Y-63161391D01*
X54313722Y-63147810D01*
X54291223Y-63132777D01*
X54276189Y-63110277D01*
X54262608Y-63096696D01*
X54253827Y-63076810D01*
X54237030Y-63051671D01*
X54232359Y-63028189D01*
X54224787Y-63011040D01*
X54218964Y-62960849D01*
X54218000Y-62956000D01*
X54218000Y-59686000D01*
X54218964Y-59681150D01*
X54224787Y-59630959D01*
X54232359Y-59613808D01*
X54237030Y-59590329D01*
X54253826Y-59565191D01*
X54262608Y-59545303D01*
X54276191Y-59531719D01*
X54291223Y-59509223D01*
X54313719Y-59494191D01*
X54327303Y-59480608D01*
X54347191Y-59471826D01*
X54372329Y-59455030D01*
X54395808Y-59450359D01*
X54412959Y-59442787D01*
X54463151Y-59436964D01*
X54468000Y-59436000D01*
X55768000Y-59436000D01*
X55772850Y-59436964D01*
G37*
G36*
X58312850Y-59436964D02*
G01*
X58363040Y-59442787D01*
X58380189Y-59450359D01*
X58403671Y-59455030D01*
X58428810Y-59471827D01*
X58448696Y-59480608D01*
X58462277Y-59494189D01*
X58484777Y-59509223D01*
X58499810Y-59531722D01*
X58513391Y-59545303D01*
X58522170Y-59565186D01*
X58538970Y-59590329D01*
X58543641Y-59613812D01*
X58551212Y-59630959D01*
X58557033Y-59681139D01*
X58558000Y-59686000D01*
X58558000Y-62956000D01*
X58557032Y-62960863D01*
X58551212Y-63011040D01*
X58543641Y-63028185D01*
X58538970Y-63051671D01*
X58522169Y-63076815D01*
X58513391Y-63096696D01*
X58499812Y-63110274D01*
X58484777Y-63132777D01*
X58462274Y-63147812D01*
X58448696Y-63161391D01*
X58428815Y-63170169D01*
X58403671Y-63186970D01*
X58380185Y-63191641D01*
X58363040Y-63199212D01*
X58312861Y-63205032D01*
X58308000Y-63206000D01*
X57008000Y-63206000D01*
X57003138Y-63205032D01*
X56952959Y-63199212D01*
X56935812Y-63191641D01*
X56912329Y-63186970D01*
X56887186Y-63170170D01*
X56867303Y-63161391D01*
X56853722Y-63147810D01*
X56831223Y-63132777D01*
X56816189Y-63110277D01*
X56802608Y-63096696D01*
X56793827Y-63076810D01*
X56777030Y-63051671D01*
X56772359Y-63028189D01*
X56764787Y-63011040D01*
X56758964Y-62960849D01*
X56758000Y-62956000D01*
X56758000Y-59686000D01*
X56758964Y-59681150D01*
X56764787Y-59630959D01*
X56772359Y-59613808D01*
X56777030Y-59590329D01*
X56793826Y-59565191D01*
X56802608Y-59545303D01*
X56816191Y-59531719D01*
X56831223Y-59509223D01*
X56853719Y-59494191D01*
X56867303Y-59480608D01*
X56887191Y-59471826D01*
X56912329Y-59455030D01*
X56935808Y-59450359D01*
X56952959Y-59442787D01*
X57003151Y-59436964D01*
X57008000Y-59436000D01*
X58308000Y-59436000D01*
X58312850Y-59436964D01*
G37*
G36*
X60852850Y-59436964D02*
G01*
X60903040Y-59442787D01*
X60920189Y-59450359D01*
X60943671Y-59455030D01*
X60968810Y-59471827D01*
X60988696Y-59480608D01*
X61002277Y-59494189D01*
X61024777Y-59509223D01*
X61039810Y-59531722D01*
X61053391Y-59545303D01*
X61062170Y-59565186D01*
X61078970Y-59590329D01*
X61083641Y-59613812D01*
X61091212Y-59630959D01*
X61097033Y-59681139D01*
X61098000Y-59686000D01*
X61098000Y-62956000D01*
X61097032Y-62960863D01*
X61091212Y-63011040D01*
X61083641Y-63028185D01*
X61078970Y-63051671D01*
X61062169Y-63076815D01*
X61053391Y-63096696D01*
X61039812Y-63110274D01*
X61024777Y-63132777D01*
X61002274Y-63147812D01*
X60988696Y-63161391D01*
X60968815Y-63170169D01*
X60943671Y-63186970D01*
X60920185Y-63191641D01*
X60903040Y-63199212D01*
X60852861Y-63205032D01*
X60848000Y-63206000D01*
X59548000Y-63206000D01*
X59543138Y-63205032D01*
X59492959Y-63199212D01*
X59475812Y-63191641D01*
X59452329Y-63186970D01*
X59427186Y-63170170D01*
X59407303Y-63161391D01*
X59393722Y-63147810D01*
X59371223Y-63132777D01*
X59356189Y-63110277D01*
X59342608Y-63096696D01*
X59333827Y-63076810D01*
X59317030Y-63051671D01*
X59312359Y-63028189D01*
X59304787Y-63011040D01*
X59298964Y-62960849D01*
X59298000Y-62956000D01*
X59298000Y-59686000D01*
X59298964Y-59681150D01*
X59304787Y-59630959D01*
X59312359Y-59613808D01*
X59317030Y-59590329D01*
X59333826Y-59565191D01*
X59342608Y-59545303D01*
X59356191Y-59531719D01*
X59371223Y-59509223D01*
X59393719Y-59494191D01*
X59407303Y-59480608D01*
X59427191Y-59471826D01*
X59452329Y-59455030D01*
X59475808Y-59450359D01*
X59492959Y-59442787D01*
X59543151Y-59436964D01*
X59548000Y-59436000D01*
X60848000Y-59436000D01*
X60852850Y-59436964D01*
G37*
G36*
X85463742Y-61543601D02*
G01*
X85617687Y-61607367D01*
X85756234Y-61699941D01*
X85874059Y-61817766D01*
X85966633Y-61956313D01*
X86030399Y-62110258D01*
X86062907Y-62273685D01*
X86062907Y-62440315D01*
X86030399Y-62603742D01*
X85966633Y-62757687D01*
X85874059Y-62896234D01*
X85756234Y-63014059D01*
X85617687Y-63106633D01*
X85463742Y-63170399D01*
X85300315Y-63202907D01*
X85133685Y-63202907D01*
X84970258Y-63170399D01*
X84816313Y-63106633D01*
X84677766Y-63014059D01*
X84559941Y-62896234D01*
X84467367Y-62757687D01*
X84403601Y-62603742D01*
X84371093Y-62440315D01*
X84371093Y-62273685D01*
X84403601Y-62110258D01*
X84467367Y-61956313D01*
X84559941Y-61817766D01*
X84677766Y-61699941D01*
X84816313Y-61607367D01*
X84970258Y-61543601D01*
X85133685Y-61511093D01*
X85300315Y-61511093D01*
X85463742Y-61543601D01*
G37*
G36*
X88003742Y-61543601D02*
G01*
X88157687Y-61607367D01*
X88296234Y-61699941D01*
X88414059Y-61817766D01*
X88506633Y-61956313D01*
X88570399Y-62110258D01*
X88602907Y-62273685D01*
X88602907Y-62440315D01*
X88570399Y-62603742D01*
X88506633Y-62757687D01*
X88414059Y-62896234D01*
X88296234Y-63014059D01*
X88157687Y-63106633D01*
X88003742Y-63170399D01*
X87840315Y-63202907D01*
X87673685Y-63202907D01*
X87510258Y-63170399D01*
X87356313Y-63106633D01*
X87217766Y-63014059D01*
X87099941Y-62896234D01*
X87007367Y-62757687D01*
X86943601Y-62603742D01*
X86911093Y-62440315D01*
X86911093Y-62273685D01*
X86943601Y-62110258D01*
X87007367Y-61956313D01*
X87099941Y-61817766D01*
X87217766Y-61699941D01*
X87356313Y-61607367D01*
X87510258Y-61543601D01*
X87673685Y-61511093D01*
X87840315Y-61511093D01*
X88003742Y-61543601D01*
G37*
G36*
X73502850Y-59811964D02*
G01*
X73553040Y-59817787D01*
X73570189Y-59825359D01*
X73593671Y-59830030D01*
X73618810Y-59846827D01*
X73638696Y-59855608D01*
X73652277Y-59869189D01*
X73674777Y-59884223D01*
X73689810Y-59906722D01*
X73703391Y-59920303D01*
X73712170Y-59940186D01*
X73728970Y-59965329D01*
X73733641Y-59988812D01*
X73741212Y-60005959D01*
X73747033Y-60056139D01*
X73748000Y-60061000D01*
X73748000Y-61511000D01*
X73747032Y-61515863D01*
X73741212Y-61566040D01*
X73733641Y-61583185D01*
X73728970Y-61606671D01*
X73712169Y-61631815D01*
X73703391Y-61651696D01*
X73689812Y-61665274D01*
X73674777Y-61687777D01*
X73652274Y-61702812D01*
X73638696Y-61716391D01*
X73618815Y-61725169D01*
X73593671Y-61741970D01*
X73570185Y-61746641D01*
X73553040Y-61754212D01*
X73502861Y-61760032D01*
X73498000Y-61761000D01*
X72298000Y-61761000D01*
X72293138Y-61760032D01*
X72242959Y-61754212D01*
X72225812Y-61746641D01*
X72202329Y-61741970D01*
X72177186Y-61725170D01*
X72157303Y-61716391D01*
X72143722Y-61702810D01*
X72121223Y-61687777D01*
X72106189Y-61665277D01*
X72092608Y-61651696D01*
X72083827Y-61631810D01*
X72067030Y-61606671D01*
X72062359Y-61583189D01*
X72054787Y-61566040D01*
X72048964Y-61515849D01*
X72048000Y-61511000D01*
X72048000Y-60061000D01*
X72048964Y-60056150D01*
X72054787Y-60005959D01*
X72062359Y-59988808D01*
X72067030Y-59965329D01*
X72083826Y-59940191D01*
X72092608Y-59920303D01*
X72106191Y-59906719D01*
X72121223Y-59884223D01*
X72143719Y-59869191D01*
X72157303Y-59855608D01*
X72177191Y-59846826D01*
X72202329Y-59830030D01*
X72225808Y-59825359D01*
X72242959Y-59817787D01*
X72293151Y-59811964D01*
X72298000Y-59811000D01*
X73498000Y-59811000D01*
X73502850Y-59811964D01*
G37*
G36*
X68144742Y-59847601D02*
G01*
X68298687Y-59911367D01*
X68437234Y-60003941D01*
X68555059Y-60121766D01*
X68647633Y-60260313D01*
X68711399Y-60414258D01*
X68743907Y-60577685D01*
X68748000Y-60661000D01*
X68748000Y-60911000D01*
X68743907Y-60994315D01*
X68711399Y-61157742D01*
X68647633Y-61311687D01*
X68555059Y-61450234D01*
X68437234Y-61568059D01*
X68298687Y-61660633D01*
X68144742Y-61724399D01*
X67981315Y-61756907D01*
X67814685Y-61756907D01*
X67651258Y-61724399D01*
X67497313Y-61660633D01*
X67358766Y-61568059D01*
X67240941Y-61450234D01*
X67148367Y-61311687D01*
X67084601Y-61157742D01*
X67052093Y-60994315D01*
X67048000Y-60911000D01*
X67048000Y-60661000D01*
X67052093Y-60577685D01*
X67084601Y-60414258D01*
X67148367Y-60260313D01*
X67240941Y-60121766D01*
X67358766Y-60003941D01*
X67497313Y-59911367D01*
X67651258Y-59847601D01*
X67814685Y-59815093D01*
X67981315Y-59815093D01*
X68144742Y-59847601D01*
G37*
G36*
X70644742Y-59847601D02*
G01*
X70798687Y-59911367D01*
X70937234Y-60003941D01*
X71055059Y-60121766D01*
X71147633Y-60260313D01*
X71211399Y-60414258D01*
X71243907Y-60577685D01*
X71248000Y-60661000D01*
X71248000Y-60911000D01*
X71243907Y-60994315D01*
X71211399Y-61157742D01*
X71147633Y-61311687D01*
X71055059Y-61450234D01*
X70937234Y-61568059D01*
X70798687Y-61660633D01*
X70644742Y-61724399D01*
X70481315Y-61756907D01*
X70314685Y-61756907D01*
X70151258Y-61724399D01*
X69997313Y-61660633D01*
X69858766Y-61568059D01*
X69740941Y-61450234D01*
X69648367Y-61311687D01*
X69584601Y-61157742D01*
X69552093Y-60994315D01*
X69548000Y-60911000D01*
X69548000Y-60661000D01*
X69552093Y-60577685D01*
X69584601Y-60414258D01*
X69648367Y-60260313D01*
X69740941Y-60121766D01*
X69858766Y-60003941D01*
X69997313Y-59911367D01*
X70151258Y-59847601D01*
X70314685Y-59815093D01*
X70481315Y-59815093D01*
X70644742Y-59847601D01*
G37*
G36*
X115040228Y-59860448D02*
G01*
X115185117Y-59920463D01*
X115315515Y-60007592D01*
X115426408Y-60118485D01*
X115513537Y-60248883D01*
X115573552Y-60393772D01*
X115604148Y-60547586D01*
X115604148Y-60704414D01*
X115573552Y-60858228D01*
X115513537Y-61003117D01*
X115426408Y-61133515D01*
X115315515Y-61244408D01*
X115185117Y-61331537D01*
X115040228Y-61391552D01*
X114886414Y-61422148D01*
X114729586Y-61422148D01*
X114575772Y-61391552D01*
X114430883Y-61331537D01*
X114300485Y-61244408D01*
X114189592Y-61133515D01*
X114102463Y-61003117D01*
X114042448Y-60858228D01*
X114011852Y-60704414D01*
X114011852Y-60547586D01*
X114042448Y-60393772D01*
X114102463Y-60248883D01*
X114189592Y-60118485D01*
X114300485Y-60007592D01*
X114430883Y-59920463D01*
X114575772Y-59860448D01*
X114729586Y-59829852D01*
X114886414Y-59829852D01*
X115040228Y-59860448D01*
G37*
G36*
X74679428Y-58587912D02*
G01*
X74792623Y-58634799D01*
X74894496Y-58702868D01*
X74981132Y-58789504D01*
X75049201Y-58891377D01*
X75096088Y-59004572D01*
X75119990Y-59124739D01*
X75119990Y-59247261D01*
X75096088Y-59367428D01*
X75049201Y-59480623D01*
X74981132Y-59582496D01*
X74894496Y-59669132D01*
X74792623Y-59737201D01*
X74679428Y-59784088D01*
X74559261Y-59807990D01*
X74436739Y-59807990D01*
X74316572Y-59784088D01*
X74203377Y-59737201D01*
X74101504Y-59669132D01*
X74014868Y-59582496D01*
X73946799Y-59480623D01*
X73899912Y-59367428D01*
X73876010Y-59247261D01*
X73876010Y-59124739D01*
X73899912Y-59004572D01*
X73946799Y-58891377D01*
X74014868Y-58789504D01*
X74101504Y-58702868D01*
X74203377Y-58634799D01*
X74316572Y-58587912D01*
X74436739Y-58564010D01*
X74559261Y-58564010D01*
X74679428Y-58587912D01*
G37*
G36*
X78845228Y-57607448D02*
G01*
X78990117Y-57667463D01*
X79120515Y-57754592D01*
X79231408Y-57865485D01*
X79318537Y-57995883D01*
X79378552Y-58140772D01*
X79409148Y-58294586D01*
X79409148Y-58451414D01*
X79378552Y-58605228D01*
X79318537Y-58750117D01*
X79231408Y-58880515D01*
X79120515Y-58991408D01*
X78990117Y-59078537D01*
X78845228Y-59138552D01*
X78691414Y-59169148D01*
X78534586Y-59169148D01*
X78380772Y-59138552D01*
X78235883Y-59078537D01*
X78105485Y-58991408D01*
X77994592Y-58880515D01*
X77907463Y-58750117D01*
X77847448Y-58605228D01*
X77816852Y-58451414D01*
X77816852Y-58294586D01*
X77847448Y-58140772D01*
X77907463Y-57995883D01*
X77994592Y-57865485D01*
X78105485Y-57754592D01*
X78235883Y-57667463D01*
X78380772Y-57607448D01*
X78534586Y-57576852D01*
X78691414Y-57576852D01*
X78845228Y-57607448D01*
G37*
G36*
X97308134Y-55729156D02*
G01*
X97487220Y-55787345D01*
X97654998Y-55872832D01*
X97807338Y-55983513D01*
X97940487Y-56116662D01*
X98051168Y-56269002D01*
X98136655Y-56436780D01*
X98194844Y-56615866D01*
X98224301Y-56801849D01*
X98224301Y-56990151D01*
X98194844Y-57176134D01*
X98136655Y-57355220D01*
X98051168Y-57522998D01*
X97940487Y-57675338D01*
X97807338Y-57808487D01*
X97654998Y-57919168D01*
X97487220Y-58004655D01*
X97308134Y-58062844D01*
X97122151Y-58092301D01*
X96933849Y-58092301D01*
X96747866Y-58062844D01*
X96568780Y-58004655D01*
X96401002Y-57919168D01*
X96248662Y-57808487D01*
X96115513Y-57675338D01*
X96004832Y-57522998D01*
X95919345Y-57355220D01*
X95861156Y-57176134D01*
X95831699Y-56990151D01*
X95831699Y-56801849D01*
X95861156Y-56615866D01*
X95919345Y-56436780D01*
X96004832Y-56269002D01*
X96115513Y-56116662D01*
X96248662Y-55983513D01*
X96401002Y-55872832D01*
X96568780Y-55787345D01*
X96747866Y-55729156D01*
X96933849Y-55699699D01*
X97122151Y-55699699D01*
X97308134Y-55729156D01*
G37*
G36*
X111278134Y-55729156D02*
G01*
X111457220Y-55787345D01*
X111624998Y-55872832D01*
X111777338Y-55983513D01*
X111910487Y-56116662D01*
X112021168Y-56269002D01*
X112106655Y-56436780D01*
X112164844Y-56615866D01*
X112194301Y-56801849D01*
X112194301Y-56990151D01*
X112164844Y-57176134D01*
X112106655Y-57355220D01*
X112021168Y-57522998D01*
X111910487Y-57675338D01*
X111777338Y-57808487D01*
X111624998Y-57919168D01*
X111457220Y-58004655D01*
X111278134Y-58062844D01*
X111092151Y-58092301D01*
X110903849Y-58092301D01*
X110717866Y-58062844D01*
X110538780Y-58004655D01*
X110371002Y-57919168D01*
X110218662Y-57808487D01*
X110085513Y-57675338D01*
X109974832Y-57522998D01*
X109889345Y-57355220D01*
X109831156Y-57176134D01*
X109801699Y-56990151D01*
X109801699Y-56801849D01*
X109831156Y-56615866D01*
X109889345Y-56436780D01*
X109974832Y-56269002D01*
X110085513Y-56116662D01*
X110218662Y-55983513D01*
X110371002Y-55872832D01*
X110538780Y-55787345D01*
X110717866Y-55729156D01*
X110903849Y-55699699D01*
X111092151Y-55699699D01*
X111278134Y-55729156D01*
G37*
G36*
X90783228Y-56511448D02*
G01*
X90928117Y-56571463D01*
X91058515Y-56658592D01*
X91169408Y-56769485D01*
X91256537Y-56899883D01*
X91316552Y-57044772D01*
X91347148Y-57198586D01*
X91347148Y-57355414D01*
X91316552Y-57509228D01*
X91256537Y-57654117D01*
X91169408Y-57784515D01*
X91058515Y-57895408D01*
X90928117Y-57982537D01*
X90783228Y-58042552D01*
X90629414Y-58073148D01*
X90472586Y-58073148D01*
X90318772Y-58042552D01*
X90173883Y-57982537D01*
X90043485Y-57895408D01*
X89932592Y-57784515D01*
X89845463Y-57654117D01*
X89785448Y-57509228D01*
X89754852Y-57355414D01*
X89754852Y-57198586D01*
X89785448Y-57044772D01*
X89845463Y-56899883D01*
X89932592Y-56769485D01*
X90043485Y-56658592D01*
X90173883Y-56571463D01*
X90318772Y-56511448D01*
X90472586Y-56480852D01*
X90629414Y-56480852D01*
X90783228Y-56511448D01*
G37*
G36*
X85703228Y-56431448D02*
G01*
X85848117Y-56491463D01*
X85978515Y-56578592D01*
X86089408Y-56689485D01*
X86176537Y-56819883D01*
X86236552Y-56964772D01*
X86267148Y-57118586D01*
X86267148Y-57275414D01*
X86236552Y-57429228D01*
X86176537Y-57574117D01*
X86089408Y-57704515D01*
X85978515Y-57815408D01*
X85848117Y-57902537D01*
X85703228Y-57962552D01*
X85549414Y-57993148D01*
X85392586Y-57993148D01*
X85238772Y-57962552D01*
X85093883Y-57902537D01*
X84963485Y-57815408D01*
X84852592Y-57704515D01*
X84765463Y-57574117D01*
X84705448Y-57429228D01*
X84674852Y-57275414D01*
X84674852Y-57118586D01*
X84705448Y-56964772D01*
X84765463Y-56819883D01*
X84852592Y-56689485D01*
X84963485Y-56578592D01*
X85093883Y-56491463D01*
X85238772Y-56431448D01*
X85392586Y-56400852D01*
X85549414Y-56400852D01*
X85703228Y-56431448D01*
G37*
G36*
X115040228Y-54860448D02*
G01*
X115185117Y-54920463D01*
X115315515Y-55007592D01*
X115426408Y-55118485D01*
X115513537Y-55248883D01*
X115573552Y-55393772D01*
X115604148Y-55547586D01*
X115604148Y-55704414D01*
X115573552Y-55858228D01*
X115513537Y-56003117D01*
X115426408Y-56133515D01*
X115315515Y-56244408D01*
X115185117Y-56331537D01*
X115040228Y-56391552D01*
X114886414Y-56422148D01*
X114729586Y-56422148D01*
X114575772Y-56391552D01*
X114430883Y-56331537D01*
X114300485Y-56244408D01*
X114189592Y-56133515D01*
X114102463Y-56003117D01*
X114042448Y-55858228D01*
X114011852Y-55704414D01*
X114011852Y-55547586D01*
X114042448Y-55393772D01*
X114102463Y-55248883D01*
X114189592Y-55118485D01*
X114300485Y-55007592D01*
X114430883Y-54920463D01*
X114575772Y-54860448D01*
X114729586Y-54829852D01*
X114886414Y-54829852D01*
X115040228Y-54860448D01*
G37*
G36*
X73113000Y-55206000D02*
G01*
X71413000Y-55206000D01*
X71413000Y-53506000D01*
X73113000Y-53506000D01*
X73113000Y-55206000D01*
G37*
G36*
X67429742Y-53542601D02*
G01*
X67583687Y-53606367D01*
X67722234Y-53698941D01*
X67840059Y-53816766D01*
X67932633Y-53955313D01*
X67996399Y-54109258D01*
X68028907Y-54272685D01*
X68028907Y-54439315D01*
X67996399Y-54602742D01*
X67932633Y-54756687D01*
X67840059Y-54895234D01*
X67722234Y-55013059D01*
X67583687Y-55105633D01*
X67429742Y-55169399D01*
X67266315Y-55201907D01*
X67099685Y-55201907D01*
X66936258Y-55169399D01*
X66782313Y-55105633D01*
X66643766Y-55013059D01*
X66525941Y-54895234D01*
X66433367Y-54756687D01*
X66369601Y-54602742D01*
X66337093Y-54439315D01*
X66337093Y-54272685D01*
X66369601Y-54109258D01*
X66433367Y-53955313D01*
X66525941Y-53816766D01*
X66643766Y-53698941D01*
X66782313Y-53606367D01*
X66936258Y-53542601D01*
X67099685Y-53510093D01*
X67266315Y-53510093D01*
X67429742Y-53542601D01*
G37*
G36*
X69969742Y-53542601D02*
G01*
X70123687Y-53606367D01*
X70262234Y-53698941D01*
X70380059Y-53816766D01*
X70472633Y-53955313D01*
X70536399Y-54109258D01*
X70568907Y-54272685D01*
X70568907Y-54439315D01*
X70536399Y-54602742D01*
X70472633Y-54756687D01*
X70380059Y-54895234D01*
X70262234Y-55013059D01*
X70123687Y-55105633D01*
X69969742Y-55169399D01*
X69806315Y-55201907D01*
X69639685Y-55201907D01*
X69476258Y-55169399D01*
X69322313Y-55105633D01*
X69183766Y-55013059D01*
X69065941Y-54895234D01*
X68973367Y-54756687D01*
X68909601Y-54602742D01*
X68877093Y-54439315D01*
X68877093Y-54272685D01*
X68909601Y-54109258D01*
X68973367Y-53955313D01*
X69065941Y-53816766D01*
X69183766Y-53698941D01*
X69322313Y-53606367D01*
X69476258Y-53542601D01*
X69639685Y-53510093D01*
X69806315Y-53510093D01*
X69969742Y-53542601D01*
G37*
G36*
X85703228Y-51431448D02*
G01*
X85848117Y-51491463D01*
X85978515Y-51578592D01*
X86089408Y-51689485D01*
X86176537Y-51819883D01*
X86236552Y-51964772D01*
X86267148Y-52118586D01*
X86267148Y-52275414D01*
X86236552Y-52429228D01*
X86176537Y-52574117D01*
X86089408Y-52704515D01*
X85978515Y-52815408D01*
X85848117Y-52902537D01*
X85703228Y-52962552D01*
X85549414Y-52993148D01*
X85392586Y-52993148D01*
X85238772Y-52962552D01*
X85093883Y-52902537D01*
X84963485Y-52815408D01*
X84852592Y-52704515D01*
X84765463Y-52574117D01*
X84705448Y-52429228D01*
X84674852Y-52275414D01*
X84674852Y-52118586D01*
X84705448Y-51964772D01*
X84765463Y-51819883D01*
X84852592Y-51689485D01*
X84963485Y-51578592D01*
X85093883Y-51491463D01*
X85238772Y-51431448D01*
X85392586Y-51400852D01*
X85549414Y-51400852D01*
X85703228Y-51431448D01*
G37*
G36*
X90783228Y-48891448D02*
G01*
X90928117Y-48951463D01*
X91058515Y-49038592D01*
X91169408Y-49149485D01*
X91256537Y-49279883D01*
X91316552Y-49424772D01*
X91347148Y-49578586D01*
X91347148Y-49735414D01*
X91316552Y-49889228D01*
X91256537Y-50034117D01*
X91169408Y-50164515D01*
X91058515Y-50275408D01*
X90928117Y-50362537D01*
X90783228Y-50422552D01*
X90629414Y-50453148D01*
X90472586Y-50453148D01*
X90318772Y-50422552D01*
X90173883Y-50362537D01*
X90043485Y-50275408D01*
X89932592Y-50164515D01*
X89845463Y-50034117D01*
X89785448Y-49889228D01*
X89754852Y-49735414D01*
X89754852Y-49578586D01*
X89785448Y-49424772D01*
X89845463Y-49279883D01*
X89932592Y-49149485D01*
X90043485Y-49038592D01*
X90173883Y-48951463D01*
X90318772Y-48891448D01*
X90472586Y-48860852D01*
X90629414Y-48860852D01*
X90783228Y-48891448D01*
G37*
G36*
X89053134Y-45442156D02*
G01*
X89232220Y-45500345D01*
X89399998Y-45585832D01*
X89552338Y-45696513D01*
X89685487Y-45829662D01*
X89796168Y-45982002D01*
X89881655Y-46149780D01*
X89939844Y-46328866D01*
X89969301Y-46514849D01*
X89969301Y-46703151D01*
X89939844Y-46889134D01*
X89881655Y-47068220D01*
X89796168Y-47235998D01*
X89685487Y-47388338D01*
X89552338Y-47521487D01*
X89399998Y-47632168D01*
X89232220Y-47717655D01*
X89053134Y-47775844D01*
X88867151Y-47805301D01*
X88678849Y-47805301D01*
X88492866Y-47775844D01*
X88313780Y-47717655D01*
X88146002Y-47632168D01*
X87993662Y-47521487D01*
X87860513Y-47388338D01*
X87749832Y-47235998D01*
X87664345Y-47068220D01*
X87606156Y-46889134D01*
X87576699Y-46703151D01*
X87576699Y-46514849D01*
X87606156Y-46328866D01*
X87664345Y-46149780D01*
X87749832Y-45982002D01*
X87860513Y-45829662D01*
X87993662Y-45696513D01*
X88146002Y-45585832D01*
X88313780Y-45500345D01*
X88492866Y-45442156D01*
X88678849Y-45412699D01*
X88867151Y-45412699D01*
X89053134Y-45442156D01*
G37*
G36*
X43072850Y-42966964D02*
G01*
X43123040Y-42972787D01*
X43140189Y-42980359D01*
X43163671Y-42985030D01*
X43188810Y-43001827D01*
X43208696Y-43010608D01*
X43222277Y-43024189D01*
X43244777Y-43039223D01*
X43259810Y-43061722D01*
X43273391Y-43075303D01*
X43282170Y-43095186D01*
X43298970Y-43120329D01*
X43303641Y-43143812D01*
X43311212Y-43160959D01*
X43317033Y-43211139D01*
X43318000Y-43216000D01*
X43318000Y-46486000D01*
X43317032Y-46490863D01*
X43311212Y-46541040D01*
X43303641Y-46558185D01*
X43298970Y-46581671D01*
X43282169Y-46606815D01*
X43273391Y-46626696D01*
X43259812Y-46640274D01*
X43244777Y-46662777D01*
X43222274Y-46677812D01*
X43208696Y-46691391D01*
X43188815Y-46700169D01*
X43163671Y-46716970D01*
X43140185Y-46721641D01*
X43123040Y-46729212D01*
X43072861Y-46735032D01*
X43068000Y-46736000D01*
X41768000Y-46736000D01*
X41763138Y-46735032D01*
X41712959Y-46729212D01*
X41695812Y-46721641D01*
X41672329Y-46716970D01*
X41647186Y-46700170D01*
X41627303Y-46691391D01*
X41613722Y-46677810D01*
X41591223Y-46662777D01*
X41576189Y-46640277D01*
X41562608Y-46626696D01*
X41553827Y-46606810D01*
X41537030Y-46581671D01*
X41532359Y-46558189D01*
X41524787Y-46541040D01*
X41518964Y-46490849D01*
X41518000Y-46486000D01*
X41518000Y-43216000D01*
X41518964Y-43211150D01*
X41524787Y-43160959D01*
X41532359Y-43143808D01*
X41537030Y-43120329D01*
X41553826Y-43095191D01*
X41562608Y-43075303D01*
X41576191Y-43061719D01*
X41591223Y-43039223D01*
X41613719Y-43024191D01*
X41627303Y-43010608D01*
X41647191Y-43001826D01*
X41672329Y-42985030D01*
X41695808Y-42980359D01*
X41712959Y-42972787D01*
X41763151Y-42966964D01*
X41768000Y-42966000D01*
X43068000Y-42966000D01*
X43072850Y-42966964D01*
G37*
G36*
X45612850Y-42966964D02*
G01*
X45663040Y-42972787D01*
X45680189Y-42980359D01*
X45703671Y-42985030D01*
X45728810Y-43001827D01*
X45748696Y-43010608D01*
X45762277Y-43024189D01*
X45784777Y-43039223D01*
X45799810Y-43061722D01*
X45813391Y-43075303D01*
X45822170Y-43095186D01*
X45838970Y-43120329D01*
X45843641Y-43143812D01*
X45851212Y-43160959D01*
X45857033Y-43211139D01*
X45858000Y-43216000D01*
X45858000Y-46486000D01*
X45857032Y-46490863D01*
X45851212Y-46541040D01*
X45843641Y-46558185D01*
X45838970Y-46581671D01*
X45822169Y-46606815D01*
X45813391Y-46626696D01*
X45799812Y-46640274D01*
X45784777Y-46662777D01*
X45762274Y-46677812D01*
X45748696Y-46691391D01*
X45728815Y-46700169D01*
X45703671Y-46716970D01*
X45680185Y-46721641D01*
X45663040Y-46729212D01*
X45612861Y-46735032D01*
X45608000Y-46736000D01*
X44308000Y-46736000D01*
X44303138Y-46735032D01*
X44252959Y-46729212D01*
X44235812Y-46721641D01*
X44212329Y-46716970D01*
X44187186Y-46700170D01*
X44167303Y-46691391D01*
X44153722Y-46677810D01*
X44131223Y-46662777D01*
X44116189Y-46640277D01*
X44102608Y-46626696D01*
X44093827Y-46606810D01*
X44077030Y-46581671D01*
X44072359Y-46558189D01*
X44064787Y-46541040D01*
X44058964Y-46490849D01*
X44058000Y-46486000D01*
X44058000Y-43216000D01*
X44058964Y-43211150D01*
X44064787Y-43160959D01*
X44072359Y-43143808D01*
X44077030Y-43120329D01*
X44093826Y-43095191D01*
X44102608Y-43075303D01*
X44116191Y-43061719D01*
X44131223Y-43039223D01*
X44153719Y-43024191D01*
X44167303Y-43010608D01*
X44187191Y-43001826D01*
X44212329Y-42985030D01*
X44235808Y-42980359D01*
X44252959Y-42972787D01*
X44303151Y-42966964D01*
X44308000Y-42966000D01*
X45608000Y-42966000D01*
X45612850Y-42966964D01*
G37*
G36*
X48152850Y-42966964D02*
G01*
X48203040Y-42972787D01*
X48220189Y-42980359D01*
X48243671Y-42985030D01*
X48268810Y-43001827D01*
X48288696Y-43010608D01*
X48302277Y-43024189D01*
X48324777Y-43039223D01*
X48339810Y-43061722D01*
X48353391Y-43075303D01*
X48362170Y-43095186D01*
X48378970Y-43120329D01*
X48383641Y-43143812D01*
X48391212Y-43160959D01*
X48397033Y-43211139D01*
X48398000Y-43216000D01*
X48398000Y-46486000D01*
X48397032Y-46490863D01*
X48391212Y-46541040D01*
X48383641Y-46558185D01*
X48378970Y-46581671D01*
X48362169Y-46606815D01*
X48353391Y-46626696D01*
X48339812Y-46640274D01*
X48324777Y-46662777D01*
X48302274Y-46677812D01*
X48288696Y-46691391D01*
X48268815Y-46700169D01*
X48243671Y-46716970D01*
X48220185Y-46721641D01*
X48203040Y-46729212D01*
X48152861Y-46735032D01*
X48148000Y-46736000D01*
X46848000Y-46736000D01*
X46843138Y-46735032D01*
X46792959Y-46729212D01*
X46775812Y-46721641D01*
X46752329Y-46716970D01*
X46727186Y-46700170D01*
X46707303Y-46691391D01*
X46693722Y-46677810D01*
X46671223Y-46662777D01*
X46656189Y-46640277D01*
X46642608Y-46626696D01*
X46633827Y-46606810D01*
X46617030Y-46581671D01*
X46612359Y-46558189D01*
X46604787Y-46541040D01*
X46598964Y-46490849D01*
X46598000Y-46486000D01*
X46598000Y-43216000D01*
X46598964Y-43211150D01*
X46604787Y-43160959D01*
X46612359Y-43143808D01*
X46617030Y-43120329D01*
X46633826Y-43095191D01*
X46642608Y-43075303D01*
X46656191Y-43061719D01*
X46671223Y-43039223D01*
X46693719Y-43024191D01*
X46707303Y-43010608D01*
X46727191Y-43001826D01*
X46752329Y-42985030D01*
X46775808Y-42980359D01*
X46792959Y-42972787D01*
X46843151Y-42966964D01*
X46848000Y-42966000D01*
X48148000Y-42966000D01*
X48152850Y-42966964D01*
G37*
G36*
X50692850Y-42966964D02*
G01*
X50743040Y-42972787D01*
X50760189Y-42980359D01*
X50783671Y-42985030D01*
X50808810Y-43001827D01*
X50828696Y-43010608D01*
X50842277Y-43024189D01*
X50864777Y-43039223D01*
X50879810Y-43061722D01*
X50893391Y-43075303D01*
X50902170Y-43095186D01*
X50918970Y-43120329D01*
X50923641Y-43143812D01*
X50931212Y-43160959D01*
X50937033Y-43211139D01*
X50938000Y-43216000D01*
X50938000Y-46486000D01*
X50937032Y-46490863D01*
X50931212Y-46541040D01*
X50923641Y-46558185D01*
X50918970Y-46581671D01*
X50902169Y-46606815D01*
X50893391Y-46626696D01*
X50879812Y-46640274D01*
X50864777Y-46662777D01*
X50842274Y-46677812D01*
X50828696Y-46691391D01*
X50808815Y-46700169D01*
X50783671Y-46716970D01*
X50760185Y-46721641D01*
X50743040Y-46729212D01*
X50692861Y-46735032D01*
X50688000Y-46736000D01*
X49388000Y-46736000D01*
X49383138Y-46735032D01*
X49332959Y-46729212D01*
X49315812Y-46721641D01*
X49292329Y-46716970D01*
X49267186Y-46700170D01*
X49247303Y-46691391D01*
X49233722Y-46677810D01*
X49211223Y-46662777D01*
X49196189Y-46640277D01*
X49182608Y-46626696D01*
X49173827Y-46606810D01*
X49157030Y-46581671D01*
X49152359Y-46558189D01*
X49144787Y-46541040D01*
X49138964Y-46490849D01*
X49138000Y-46486000D01*
X49138000Y-43216000D01*
X49138964Y-43211150D01*
X49144787Y-43160959D01*
X49152359Y-43143808D01*
X49157030Y-43120329D01*
X49173826Y-43095191D01*
X49182608Y-43075303D01*
X49196191Y-43061719D01*
X49211223Y-43039223D01*
X49233719Y-43024191D01*
X49247303Y-43010608D01*
X49267191Y-43001826D01*
X49292329Y-42985030D01*
X49315808Y-42980359D01*
X49332959Y-42972787D01*
X49383151Y-42966964D01*
X49388000Y-42966000D01*
X50688000Y-42966000D01*
X50692850Y-42966964D01*
G37*
G36*
X53232850Y-42966964D02*
G01*
X53283040Y-42972787D01*
X53300189Y-42980359D01*
X53323671Y-42985030D01*
X53348810Y-43001827D01*
X53368696Y-43010608D01*
X53382277Y-43024189D01*
X53404777Y-43039223D01*
X53419810Y-43061722D01*
X53433391Y-43075303D01*
X53442170Y-43095186D01*
X53458970Y-43120329D01*
X53463641Y-43143812D01*
X53471212Y-43160959D01*
X53477033Y-43211139D01*
X53478000Y-43216000D01*
X53478000Y-46486000D01*
X53477032Y-46490863D01*
X53471212Y-46541040D01*
X53463641Y-46558185D01*
X53458970Y-46581671D01*
X53442169Y-46606815D01*
X53433391Y-46626696D01*
X53419812Y-46640274D01*
X53404777Y-46662777D01*
X53382274Y-46677812D01*
X53368696Y-46691391D01*
X53348815Y-46700169D01*
X53323671Y-46716970D01*
X53300185Y-46721641D01*
X53283040Y-46729212D01*
X53232861Y-46735032D01*
X53228000Y-46736000D01*
X51928000Y-46736000D01*
X51923138Y-46735032D01*
X51872959Y-46729212D01*
X51855812Y-46721641D01*
X51832329Y-46716970D01*
X51807186Y-46700170D01*
X51787303Y-46691391D01*
X51773722Y-46677810D01*
X51751223Y-46662777D01*
X51736189Y-46640277D01*
X51722608Y-46626696D01*
X51713827Y-46606810D01*
X51697030Y-46581671D01*
X51692359Y-46558189D01*
X51684787Y-46541040D01*
X51678964Y-46490849D01*
X51678000Y-46486000D01*
X51678000Y-43216000D01*
X51678964Y-43211150D01*
X51684787Y-43160959D01*
X51692359Y-43143808D01*
X51697030Y-43120329D01*
X51713826Y-43095191D01*
X51722608Y-43075303D01*
X51736191Y-43061719D01*
X51751223Y-43039223D01*
X51773719Y-43024191D01*
X51787303Y-43010608D01*
X51807191Y-43001826D01*
X51832329Y-42985030D01*
X51855808Y-42980359D01*
X51872959Y-42972787D01*
X51923151Y-42966964D01*
X51928000Y-42966000D01*
X53228000Y-42966000D01*
X53232850Y-42966964D01*
G37*
G36*
X55772850Y-42966964D02*
G01*
X55823040Y-42972787D01*
X55840189Y-42980359D01*
X55863671Y-42985030D01*
X55888810Y-43001827D01*
X55908696Y-43010608D01*
X55922277Y-43024189D01*
X55944777Y-43039223D01*
X55959810Y-43061722D01*
X55973391Y-43075303D01*
X55982170Y-43095186D01*
X55998970Y-43120329D01*
X56003641Y-43143812D01*
X56011212Y-43160959D01*
X56017033Y-43211139D01*
X56018000Y-43216000D01*
X56018000Y-46486000D01*
X56017032Y-46490863D01*
X56011212Y-46541040D01*
X56003641Y-46558185D01*
X55998970Y-46581671D01*
X55982169Y-46606815D01*
X55973391Y-46626696D01*
X55959812Y-46640274D01*
X55944777Y-46662777D01*
X55922274Y-46677812D01*
X55908696Y-46691391D01*
X55888815Y-46700169D01*
X55863671Y-46716970D01*
X55840185Y-46721641D01*
X55823040Y-46729212D01*
X55772861Y-46735032D01*
X55768000Y-46736000D01*
X54468000Y-46736000D01*
X54463138Y-46735032D01*
X54412959Y-46729212D01*
X54395812Y-46721641D01*
X54372329Y-46716970D01*
X54347186Y-46700170D01*
X54327303Y-46691391D01*
X54313722Y-46677810D01*
X54291223Y-46662777D01*
X54276189Y-46640277D01*
X54262608Y-46626696D01*
X54253827Y-46606810D01*
X54237030Y-46581671D01*
X54232359Y-46558189D01*
X54224787Y-46541040D01*
X54218964Y-46490849D01*
X54218000Y-46486000D01*
X54218000Y-43216000D01*
X54218964Y-43211150D01*
X54224787Y-43160959D01*
X54232359Y-43143808D01*
X54237030Y-43120329D01*
X54253826Y-43095191D01*
X54262608Y-43075303D01*
X54276191Y-43061719D01*
X54291223Y-43039223D01*
X54313719Y-43024191D01*
X54327303Y-43010608D01*
X54347191Y-43001826D01*
X54372329Y-42985030D01*
X54395808Y-42980359D01*
X54412959Y-42972787D01*
X54463151Y-42966964D01*
X54468000Y-42966000D01*
X55768000Y-42966000D01*
X55772850Y-42966964D01*
G37*
G36*
X58312850Y-42966964D02*
G01*
X58363040Y-42972787D01*
X58380189Y-42980359D01*
X58403671Y-42985030D01*
X58428810Y-43001827D01*
X58448696Y-43010608D01*
X58462277Y-43024189D01*
X58484777Y-43039223D01*
X58499810Y-43061722D01*
X58513391Y-43075303D01*
X58522170Y-43095186D01*
X58538970Y-43120329D01*
X58543641Y-43143812D01*
X58551212Y-43160959D01*
X58557033Y-43211139D01*
X58558000Y-43216000D01*
X58558000Y-46486000D01*
X58557032Y-46490863D01*
X58551212Y-46541040D01*
X58543641Y-46558185D01*
X58538970Y-46581671D01*
X58522169Y-46606815D01*
X58513391Y-46626696D01*
X58499812Y-46640274D01*
X58484777Y-46662777D01*
X58462274Y-46677812D01*
X58448696Y-46691391D01*
X58428815Y-46700169D01*
X58403671Y-46716970D01*
X58380185Y-46721641D01*
X58363040Y-46729212D01*
X58312861Y-46735032D01*
X58308000Y-46736000D01*
X57008000Y-46736000D01*
X57003138Y-46735032D01*
X56952959Y-46729212D01*
X56935812Y-46721641D01*
X56912329Y-46716970D01*
X56887186Y-46700170D01*
X56867303Y-46691391D01*
X56853722Y-46677810D01*
X56831223Y-46662777D01*
X56816189Y-46640277D01*
X56802608Y-46626696D01*
X56793827Y-46606810D01*
X56777030Y-46581671D01*
X56772359Y-46558189D01*
X56764787Y-46541040D01*
X56758964Y-46490849D01*
X56758000Y-46486000D01*
X56758000Y-43216000D01*
X56758964Y-43211150D01*
X56764787Y-43160959D01*
X56772359Y-43143808D01*
X56777030Y-43120329D01*
X56793826Y-43095191D01*
X56802608Y-43075303D01*
X56816191Y-43061719D01*
X56831223Y-43039223D01*
X56853719Y-43024191D01*
X56867303Y-43010608D01*
X56887191Y-43001826D01*
X56912329Y-42985030D01*
X56935808Y-42980359D01*
X56952959Y-42972787D01*
X57003151Y-42966964D01*
X57008000Y-42966000D01*
X58308000Y-42966000D01*
X58312850Y-42966964D01*
G37*
G36*
X60852850Y-42966964D02*
G01*
X60903040Y-42972787D01*
X60920189Y-42980359D01*
X60943671Y-42985030D01*
X60968810Y-43001827D01*
X60988696Y-43010608D01*
X61002277Y-43024189D01*
X61024777Y-43039223D01*
X61039810Y-43061722D01*
X61053391Y-43075303D01*
X61062170Y-43095186D01*
X61078970Y-43120329D01*
X61083641Y-43143812D01*
X61091212Y-43160959D01*
X61097033Y-43211139D01*
X61098000Y-43216000D01*
X61098000Y-46486000D01*
X61097032Y-46490863D01*
X61091212Y-46541040D01*
X61083641Y-46558185D01*
X61078970Y-46581671D01*
X61062169Y-46606815D01*
X61053391Y-46626696D01*
X61039812Y-46640274D01*
X61024777Y-46662777D01*
X61002274Y-46677812D01*
X60988696Y-46691391D01*
X60968815Y-46700169D01*
X60943671Y-46716970D01*
X60920185Y-46721641D01*
X60903040Y-46729212D01*
X60852861Y-46735032D01*
X60848000Y-46736000D01*
X59548000Y-46736000D01*
X59543138Y-46735032D01*
X59492959Y-46729212D01*
X59475812Y-46721641D01*
X59452329Y-46716970D01*
X59427186Y-46700170D01*
X59407303Y-46691391D01*
X59393722Y-46677810D01*
X59371223Y-46662777D01*
X59356189Y-46640277D01*
X59342608Y-46626696D01*
X59333827Y-46606810D01*
X59317030Y-46581671D01*
X59312359Y-46558189D01*
X59304787Y-46541040D01*
X59298964Y-46490849D01*
X59298000Y-46486000D01*
X59298000Y-43216000D01*
X59298964Y-43211150D01*
X59304787Y-43160959D01*
X59312359Y-43143808D01*
X59317030Y-43120329D01*
X59333826Y-43095191D01*
X59342608Y-43075303D01*
X59356191Y-43061719D01*
X59371223Y-43039223D01*
X59393719Y-43024191D01*
X59407303Y-43010608D01*
X59427191Y-43001826D01*
X59452329Y-42985030D01*
X59475808Y-42980359D01*
X59492959Y-42972787D01*
X59543151Y-42966964D01*
X59548000Y-42966000D01*
X60848000Y-42966000D01*
X60852850Y-42966964D01*
G37*
G36*
X83417228Y-42160448D02*
G01*
X83562117Y-42220463D01*
X83692515Y-42307592D01*
X83803408Y-42418485D01*
X83890537Y-42548883D01*
X83950552Y-42693772D01*
X83981148Y-42847586D01*
X83981148Y-43004414D01*
X83950552Y-43158228D01*
X83890537Y-43303117D01*
X83803408Y-43433515D01*
X83692515Y-43544408D01*
X83562117Y-43631537D01*
X83417228Y-43691552D01*
X83263414Y-43722148D01*
X83106586Y-43722148D01*
X82952772Y-43691552D01*
X82807883Y-43631537D01*
X82677485Y-43544408D01*
X82566592Y-43433515D01*
X82479463Y-43303117D01*
X82419448Y-43158228D01*
X82388852Y-43004414D01*
X82388852Y-42847586D01*
X82419448Y-42693772D01*
X82479463Y-42548883D01*
X82566592Y-42418485D01*
X82677485Y-42307592D01*
X82807883Y-42220463D01*
X82952772Y-42160448D01*
X83106586Y-42129852D01*
X83263414Y-42129852D01*
X83417228Y-42160448D01*
G37*
G36*
X40745228Y-40255448D02*
G01*
X40890117Y-40315463D01*
X41020515Y-40402592D01*
X41131408Y-40513485D01*
X41218537Y-40643883D01*
X41278552Y-40788772D01*
X41309148Y-40942586D01*
X41309148Y-41099414D01*
X41278552Y-41253228D01*
X41218537Y-41398117D01*
X41131408Y-41528515D01*
X41020515Y-41639408D01*
X40890117Y-41726537D01*
X40745228Y-41786552D01*
X40591414Y-41817148D01*
X40434586Y-41817148D01*
X40280772Y-41786552D01*
X40135883Y-41726537D01*
X40005485Y-41639408D01*
X39894592Y-41528515D01*
X39807463Y-41398117D01*
X39747448Y-41253228D01*
X39716852Y-41099414D01*
X39716852Y-40942586D01*
X39747448Y-40788772D01*
X39807463Y-40643883D01*
X39894592Y-40513485D01*
X40005485Y-40402592D01*
X40135883Y-40315463D01*
X40280772Y-40255448D01*
X40434586Y-40224852D01*
X40591414Y-40224852D01*
X40745228Y-40255448D01*
G37*
G36*
X63605228Y-40255448D02*
G01*
X63750117Y-40315463D01*
X63880515Y-40402592D01*
X63991408Y-40513485D01*
X64078537Y-40643883D01*
X64138552Y-40788772D01*
X64169148Y-40942586D01*
X64169148Y-41099414D01*
X64138552Y-41253228D01*
X64078537Y-41398117D01*
X63991408Y-41528515D01*
X63880515Y-41639408D01*
X63750117Y-41726537D01*
X63605228Y-41786552D01*
X63451414Y-41817148D01*
X63294586Y-41817148D01*
X63140772Y-41786552D01*
X62995883Y-41726537D01*
X62865485Y-41639408D01*
X62754592Y-41528515D01*
X62667463Y-41398117D01*
X62607448Y-41253228D01*
X62576852Y-41099414D01*
X62576852Y-40942586D01*
X62607448Y-40788772D01*
X62667463Y-40643883D01*
X62754592Y-40513485D01*
X62865485Y-40402592D01*
X62995883Y-40315463D01*
X63140772Y-40255448D01*
X63294586Y-40224852D01*
X63451414Y-40224852D01*
X63605228Y-40255448D01*
G37*
G36*
X63605228Y-37715448D02*
G01*
X63750117Y-37775463D01*
X63880515Y-37862592D01*
X63991408Y-37973485D01*
X64078537Y-38103883D01*
X64138552Y-38248772D01*
X64169148Y-38402586D01*
X64169148Y-38559414D01*
X64138552Y-38713228D01*
X64078537Y-38858117D01*
X63991408Y-38988515D01*
X63880515Y-39099408D01*
X63750117Y-39186537D01*
X63605228Y-39246552D01*
X63451414Y-39277148D01*
X63294586Y-39277148D01*
X63140772Y-39246552D01*
X62995883Y-39186537D01*
X62865485Y-39099408D01*
X62754592Y-38988515D01*
X62667463Y-38858117D01*
X62607448Y-38713228D01*
X62576852Y-38559414D01*
X62576852Y-38402586D01*
X62607448Y-38248772D01*
X62667463Y-38103883D01*
X62754592Y-37973485D01*
X62865485Y-37862592D01*
X62995883Y-37775463D01*
X63140772Y-37715448D01*
X63294586Y-37684852D01*
X63451414Y-37684852D01*
X63605228Y-37715448D01*
G37*
G36*
X115040228Y-35810448D02*
G01*
X115185117Y-35870463D01*
X115315515Y-35957592D01*
X115426408Y-36068485D01*
X115513537Y-36198883D01*
X115573552Y-36343772D01*
X115604148Y-36497586D01*
X115604148Y-36654414D01*
X115573552Y-36808228D01*
X115513537Y-36953117D01*
X115426408Y-37083515D01*
X115315515Y-37194408D01*
X115185117Y-37281537D01*
X115040228Y-37341552D01*
X114886414Y-37372148D01*
X114729586Y-37372148D01*
X114575772Y-37341552D01*
X114430883Y-37281537D01*
X114300485Y-37194408D01*
X114189592Y-37083515D01*
X114102463Y-36953117D01*
X114042448Y-36808228D01*
X114011852Y-36654414D01*
X114011852Y-36497586D01*
X114042448Y-36343772D01*
X114102463Y-36198883D01*
X114189592Y-36068485D01*
X114300485Y-35957592D01*
X114430883Y-35870463D01*
X114575772Y-35810448D01*
X114729586Y-35779852D01*
X114886414Y-35779852D01*
X115040228Y-35810448D01*
G37*
G36*
X83417228Y-34540448D02*
G01*
X83562117Y-34600463D01*
X83692515Y-34687592D01*
X83803408Y-34798485D01*
X83890537Y-34928883D01*
X83950552Y-35073772D01*
X83981148Y-35227586D01*
X83981148Y-35384414D01*
X83950552Y-35538228D01*
X83890537Y-35683117D01*
X83803408Y-35813515D01*
X83692515Y-35924408D01*
X83562117Y-36011537D01*
X83417228Y-36071552D01*
X83263414Y-36102148D01*
X83106586Y-36102148D01*
X82952772Y-36071552D01*
X82807883Y-36011537D01*
X82677485Y-35924408D01*
X82566592Y-35813515D01*
X82479463Y-35683117D01*
X82419448Y-35538228D01*
X82388852Y-35384414D01*
X82388852Y-35227586D01*
X82419448Y-35073772D01*
X82479463Y-34928883D01*
X82566592Y-34798485D01*
X82677485Y-34687592D01*
X82807883Y-34600463D01*
X82952772Y-34540448D01*
X83106586Y-34509852D01*
X83263414Y-34509852D01*
X83417228Y-34540448D01*
G37*
G36*
X89727848Y-32709964D02*
G01*
X89778040Y-32715787D01*
X89795189Y-32723359D01*
X89818670Y-32728030D01*
X89843807Y-32744826D01*
X89863695Y-32753608D01*
X89877278Y-32767191D01*
X89899776Y-32782224D01*
X89914808Y-32804721D01*
X89928391Y-32818304D01*
X89937171Y-32838189D01*
X89953970Y-32863330D01*
X89958640Y-32886811D01*
X89966212Y-32903959D01*
X89972036Y-32954163D01*
X89972999Y-32959002D01*
X89972999Y-32962458D01*
X89973000Y-32962467D01*
X89973000Y-34509852D01*
X89973000Y-34858999D01*
X89972034Y-34863851D01*
X89966212Y-34914040D01*
X89958641Y-34931185D01*
X89953970Y-34954670D01*
X89937170Y-34979812D01*
X89928391Y-34999695D01*
X89914810Y-35013275D01*
X89899776Y-35035776D01*
X89877275Y-35050810D01*
X89863695Y-35064391D01*
X89843812Y-35073170D01*
X89818670Y-35089970D01*
X89795187Y-35094640D01*
X89778040Y-35102212D01*
X89727836Y-35108036D01*
X89722998Y-35108999D01*
X89719541Y-35108999D01*
X89719533Y-35109000D01*
X87826467Y-35109000D01*
X87826466Y-35108999D01*
X87823001Y-35109000D01*
X87818149Y-35108035D01*
X87767959Y-35102212D01*
X87750812Y-35094640D01*
X87727330Y-35089970D01*
X87702189Y-35073171D01*
X87682304Y-35064391D01*
X87668721Y-35050808D01*
X87646224Y-35035776D01*
X87631191Y-35013278D01*
X87617608Y-34999695D01*
X87608826Y-34979807D01*
X87592030Y-34954670D01*
X87587360Y-34931191D01*
X87579787Y-34914040D01*
X87573963Y-34863836D01*
X87573001Y-34858998D01*
X87573000Y-34855540D01*
X87573000Y-34855532D01*
X87573000Y-32962467D01*
X87573000Y-32962466D01*
X87573000Y-32959001D01*
X87573964Y-32954151D01*
X87579787Y-32903959D01*
X87587359Y-32886808D01*
X87592030Y-32863330D01*
X87608825Y-32838193D01*
X87617608Y-32818304D01*
X87631193Y-32804718D01*
X87646224Y-32782224D01*
X87668718Y-32767193D01*
X87682304Y-32753608D01*
X87702193Y-32744825D01*
X87727330Y-32728030D01*
X87750807Y-32723360D01*
X87767959Y-32715787D01*
X87818165Y-32709963D01*
X87823002Y-32709001D01*
X87826458Y-32709000D01*
X87826467Y-32709000D01*
X89719533Y-32709000D01*
X89722999Y-32709000D01*
X89727848Y-32709964D01*
G37*
G36*
X111952850Y-30296964D02*
G01*
X112003040Y-30302787D01*
X112020189Y-30310359D01*
X112043671Y-30315030D01*
X112068810Y-30331827D01*
X112088696Y-30340608D01*
X112102277Y-30354189D01*
X112124777Y-30369223D01*
X112139810Y-30391722D01*
X112153391Y-30405303D01*
X112162170Y-30425186D01*
X112178970Y-30450329D01*
X112183641Y-30473812D01*
X112191212Y-30490959D01*
X112197033Y-30541139D01*
X112198000Y-30546000D01*
X112198000Y-32446000D01*
X112197032Y-32450863D01*
X112191212Y-32501040D01*
X112183641Y-32518185D01*
X112178970Y-32541671D01*
X112162169Y-32566815D01*
X112153391Y-32586696D01*
X112139812Y-32600274D01*
X112124777Y-32622777D01*
X112102274Y-32637812D01*
X112088696Y-32651391D01*
X112068815Y-32660169D01*
X112043671Y-32676970D01*
X112020185Y-32681641D01*
X112003040Y-32689212D01*
X111952861Y-32695032D01*
X111948000Y-32696000D01*
X110048000Y-32696000D01*
X110043138Y-32695032D01*
X109992959Y-32689212D01*
X109975812Y-32681641D01*
X109952329Y-32676970D01*
X109927186Y-32660170D01*
X109907303Y-32651391D01*
X109893722Y-32637810D01*
X109871223Y-32622777D01*
X109856189Y-32600277D01*
X109842608Y-32586696D01*
X109833827Y-32566810D01*
X109817030Y-32541671D01*
X109812359Y-32518189D01*
X109804787Y-32501040D01*
X109798964Y-32450849D01*
X109798000Y-32446000D01*
X109798000Y-30546000D01*
X109798964Y-30541150D01*
X109804787Y-30490959D01*
X109812359Y-30473808D01*
X109817030Y-30450329D01*
X109833826Y-30425191D01*
X109842608Y-30405303D01*
X109856191Y-30391719D01*
X109871223Y-30369223D01*
X109893719Y-30354191D01*
X109907303Y-30340608D01*
X109927191Y-30331826D01*
X109952329Y-30315030D01*
X109975808Y-30310359D01*
X109992959Y-30302787D01*
X110043151Y-30296964D01*
X110048000Y-30296000D01*
X111948000Y-30296000D01*
X111952850Y-30296964D01*
G37*
G36*
X97308134Y-30329156D02*
G01*
X97487220Y-30387345D01*
X97654998Y-30472832D01*
X97807338Y-30583513D01*
X97940487Y-30716662D01*
X98051168Y-30869002D01*
X98136655Y-31036780D01*
X98194844Y-31215866D01*
X98224301Y-31401849D01*
X98224301Y-31590151D01*
X98194844Y-31776134D01*
X98136655Y-31955220D01*
X98051168Y-32122998D01*
X97940487Y-32275338D01*
X97807338Y-32408487D01*
X97654998Y-32519168D01*
X97487220Y-32604655D01*
X97308134Y-32662844D01*
X97122151Y-32692301D01*
X96933849Y-32692301D01*
X96747866Y-32662844D01*
X96568780Y-32604655D01*
X96401002Y-32519168D01*
X96248662Y-32408487D01*
X96115513Y-32275338D01*
X96004832Y-32122998D01*
X95919345Y-31955220D01*
X95861156Y-31776134D01*
X95831699Y-31590151D01*
X95831699Y-31401849D01*
X95861156Y-31215866D01*
X95919345Y-31036780D01*
X96004832Y-30869002D01*
X96115513Y-30716662D01*
X96248662Y-30583513D01*
X96401002Y-30472832D01*
X96568780Y-30387345D01*
X96747866Y-30329156D01*
X96933849Y-30299699D01*
X97122151Y-30299699D01*
X97308134Y-30329156D01*
G37*
G36*
X115040228Y-30810448D02*
G01*
X115185117Y-30870463D01*
X115315515Y-30957592D01*
X115426408Y-31068485D01*
X115513537Y-31198883D01*
X115573552Y-31343772D01*
X115604148Y-31497586D01*
X115604148Y-31654414D01*
X115573552Y-31808228D01*
X115513537Y-31953117D01*
X115426408Y-32083515D01*
X115315515Y-32194408D01*
X115185117Y-32281537D01*
X115040228Y-32341552D01*
X114886414Y-32372148D01*
X114729586Y-32372148D01*
X114575772Y-32341552D01*
X114430883Y-32281537D01*
X114300485Y-32194408D01*
X114189592Y-32083515D01*
X114102463Y-31953117D01*
X114042448Y-31808228D01*
X114011852Y-31654414D01*
X114011852Y-31497586D01*
X114042448Y-31343772D01*
X114102463Y-31198883D01*
X114189592Y-31068485D01*
X114300485Y-30957592D01*
X114430883Y-30870463D01*
X114575772Y-30810448D01*
X114729586Y-30779852D01*
X114886414Y-30779852D01*
X115040228Y-30810448D01*
G37*
G36*
X63605228Y-28825448D02*
G01*
X63750117Y-28885463D01*
X63880515Y-28972592D01*
X63991408Y-29083485D01*
X64078537Y-29213883D01*
X64138552Y-29358772D01*
X64169148Y-29512586D01*
X64169148Y-29669414D01*
X64138552Y-29823228D01*
X64078537Y-29968117D01*
X63991408Y-30098515D01*
X63880515Y-30209408D01*
X63750117Y-30296537D01*
X63605228Y-30356552D01*
X63451414Y-30387148D01*
X63294586Y-30387148D01*
X63140772Y-30356552D01*
X62995883Y-30296537D01*
X62865485Y-30209408D01*
X62754592Y-30098515D01*
X62667463Y-29968117D01*
X62607448Y-29823228D01*
X62576852Y-29669414D01*
X62576852Y-29512586D01*
X62607448Y-29358772D01*
X62667463Y-29213883D01*
X62754592Y-29083485D01*
X62865485Y-28972592D01*
X62995883Y-28885463D01*
X63140772Y-28825448D01*
X63294586Y-28794852D01*
X63451414Y-28794852D01*
X63605228Y-28825448D01*
G37*
G36*
X80195403Y-28347418D02*
G01*
X80244066Y-28379934D01*
X80276582Y-28428597D01*
X80288000Y-28486000D01*
X80288000Y-28786000D01*
X80276582Y-28843403D01*
X80244066Y-28892066D01*
X80195403Y-28924582D01*
X80138000Y-28936000D01*
X78963000Y-28936000D01*
X78905597Y-28924582D01*
X78856934Y-28892066D01*
X78824418Y-28843403D01*
X78813000Y-28786000D01*
X78813000Y-28486000D01*
X78824418Y-28428597D01*
X78856934Y-28379934D01*
X78905597Y-28347418D01*
X78963000Y-28336000D01*
X80138000Y-28336000D01*
X80195403Y-28347418D01*
G37*
G36*
X72232850Y-26076964D02*
G01*
X72283040Y-26082787D01*
X72300189Y-26090359D01*
X72323671Y-26095030D01*
X72348810Y-26111827D01*
X72368696Y-26120608D01*
X72382277Y-26134189D01*
X72404777Y-26149223D01*
X72419810Y-26171722D01*
X72433391Y-26185303D01*
X72442170Y-26205186D01*
X72458970Y-26230329D01*
X72463641Y-26253812D01*
X72471212Y-26270959D01*
X72477033Y-26321139D01*
X72478000Y-26326000D01*
X72478000Y-27776000D01*
X72477032Y-27780863D01*
X72471212Y-27831040D01*
X72463641Y-27848185D01*
X72458970Y-27871671D01*
X72442169Y-27896815D01*
X72433391Y-27916696D01*
X72419812Y-27930274D01*
X72404777Y-27952777D01*
X72382274Y-27967812D01*
X72368696Y-27981391D01*
X72348815Y-27990169D01*
X72323671Y-28006970D01*
X72300185Y-28011641D01*
X72283040Y-28019212D01*
X72232861Y-28025032D01*
X72228000Y-28026000D01*
X71028000Y-28026000D01*
X71023138Y-28025032D01*
X70972959Y-28019212D01*
X70955812Y-28011641D01*
X70932329Y-28006970D01*
X70907186Y-27990170D01*
X70887303Y-27981391D01*
X70873722Y-27967810D01*
X70851223Y-27952777D01*
X70836189Y-27930277D01*
X70822608Y-27916696D01*
X70813827Y-27896810D01*
X70797030Y-27871671D01*
X70792359Y-27848189D01*
X70784787Y-27831040D01*
X70778964Y-27780849D01*
X70778000Y-27776000D01*
X70778000Y-26326000D01*
X70778964Y-26321150D01*
X70784787Y-26270959D01*
X70792359Y-26253808D01*
X70797030Y-26230329D01*
X70813826Y-26205191D01*
X70822608Y-26185303D01*
X70836191Y-26171719D01*
X70851223Y-26149223D01*
X70873719Y-26134191D01*
X70887303Y-26120608D01*
X70907191Y-26111826D01*
X70932329Y-26095030D01*
X70955808Y-26090359D01*
X70972959Y-26082787D01*
X71023151Y-26076964D01*
X71028000Y-26076000D01*
X72228000Y-26076000D01*
X72232850Y-26076964D01*
G37*
G36*
X87111850Y-26076964D02*
G01*
X87162040Y-26082787D01*
X87179189Y-26090359D01*
X87202671Y-26095030D01*
X87227810Y-26111827D01*
X87247696Y-26120608D01*
X87261277Y-26134189D01*
X87283777Y-26149223D01*
X87298810Y-26171722D01*
X87312391Y-26185303D01*
X87321170Y-26205186D01*
X87337970Y-26230329D01*
X87342641Y-26253812D01*
X87350212Y-26270959D01*
X87356033Y-26321139D01*
X87357000Y-26326000D01*
X87357000Y-27776000D01*
X87356032Y-27780863D01*
X87350212Y-27831040D01*
X87342641Y-27848185D01*
X87337970Y-27871671D01*
X87321169Y-27896815D01*
X87312391Y-27916696D01*
X87298812Y-27930274D01*
X87283777Y-27952777D01*
X87261274Y-27967812D01*
X87247696Y-27981391D01*
X87227815Y-27990169D01*
X87202671Y-28006970D01*
X87179185Y-28011641D01*
X87162040Y-28019212D01*
X87111861Y-28025032D01*
X87107000Y-28026000D01*
X85907000Y-28026000D01*
X85902138Y-28025032D01*
X85851959Y-28019212D01*
X85834812Y-28011641D01*
X85811329Y-28006970D01*
X85786186Y-27990170D01*
X85766303Y-27981391D01*
X85752722Y-27967810D01*
X85730223Y-27952777D01*
X85715189Y-27930277D01*
X85701608Y-27916696D01*
X85692827Y-27896810D01*
X85676030Y-27871671D01*
X85671359Y-27848189D01*
X85663787Y-27831040D01*
X85657964Y-27780849D01*
X85657000Y-27776000D01*
X85657000Y-26326000D01*
X85657964Y-26321150D01*
X85663787Y-26270959D01*
X85671359Y-26253808D01*
X85676030Y-26230329D01*
X85692826Y-26205191D01*
X85701608Y-26185303D01*
X85715191Y-26171719D01*
X85730223Y-26149223D01*
X85752719Y-26134191D01*
X85766303Y-26120608D01*
X85786191Y-26111826D01*
X85811329Y-26095030D01*
X85834808Y-26090359D01*
X85851959Y-26082787D01*
X85902151Y-26076964D01*
X85907000Y-26076000D01*
X87107000Y-26076000D01*
X87111850Y-26076964D01*
G37*
G36*
X69374742Y-26112601D02*
G01*
X69528687Y-26176367D01*
X69667234Y-26268941D01*
X69785059Y-26386766D01*
X69877633Y-26525313D01*
X69941399Y-26679258D01*
X69973907Y-26842685D01*
X69978000Y-26926000D01*
X69978000Y-27176000D01*
X69973907Y-27259315D01*
X69941399Y-27422742D01*
X69877633Y-27576687D01*
X69785059Y-27715234D01*
X69667234Y-27833059D01*
X69528687Y-27925633D01*
X69374742Y-27989399D01*
X69211315Y-28021907D01*
X69044685Y-28021907D01*
X68881258Y-27989399D01*
X68727313Y-27925633D01*
X68588766Y-27833059D01*
X68470941Y-27715234D01*
X68378367Y-27576687D01*
X68314601Y-27422742D01*
X68282093Y-27259315D01*
X68278000Y-27176000D01*
X68278000Y-26926000D01*
X68282093Y-26842685D01*
X68314601Y-26679258D01*
X68378367Y-26525313D01*
X68470941Y-26386766D01*
X68588766Y-26268941D01*
X68727313Y-26176367D01*
X68881258Y-26112601D01*
X69044685Y-26080093D01*
X69211315Y-26080093D01*
X69374742Y-26112601D01*
G37*
G36*
X89253742Y-26112601D02*
G01*
X89407687Y-26176367D01*
X89546234Y-26268941D01*
X89664059Y-26386766D01*
X89756633Y-26525313D01*
X89820399Y-26679258D01*
X89852907Y-26842685D01*
X89857000Y-26926000D01*
X89857000Y-27176000D01*
X89852907Y-27259315D01*
X89820399Y-27422742D01*
X89756633Y-27576687D01*
X89664059Y-27715234D01*
X89546234Y-27833059D01*
X89407687Y-27925633D01*
X89253742Y-27989399D01*
X89090315Y-28021907D01*
X88923685Y-28021907D01*
X88760258Y-27989399D01*
X88606313Y-27925633D01*
X88467766Y-27833059D01*
X88349941Y-27715234D01*
X88257367Y-27576687D01*
X88193601Y-27422742D01*
X88161093Y-27259315D01*
X88157000Y-27176000D01*
X88157000Y-26926000D01*
X88161093Y-26842685D01*
X88193601Y-26679258D01*
X88257367Y-26525313D01*
X88349941Y-26386766D01*
X88467766Y-26268941D01*
X88606313Y-26176367D01*
X88760258Y-26112601D01*
X88923685Y-26080093D01*
X89090315Y-26080093D01*
X89253742Y-26112601D01*
G37*
G36*
X78320403Y-27397418D02*
G01*
X78369066Y-27429934D01*
X78401582Y-27478597D01*
X78413000Y-27536000D01*
X78413000Y-27836000D01*
X78401582Y-27893403D01*
X78369066Y-27942066D01*
X78320403Y-27974582D01*
X78263000Y-27986000D01*
X77088000Y-27986000D01*
X77030597Y-27974582D01*
X76981934Y-27942066D01*
X76949418Y-27893403D01*
X76938000Y-27836000D01*
X76938000Y-27536000D01*
X76949418Y-27478597D01*
X76981934Y-27429934D01*
X77030597Y-27397418D01*
X77088000Y-27386000D01*
X78263000Y-27386000D01*
X78320403Y-27397418D01*
G37*
G36*
X41313000Y-27851000D02*
G01*
X39713000Y-27851000D01*
X39713000Y-26251000D01*
X41313000Y-26251000D01*
X41313000Y-27851000D01*
G37*
G36*
X63605228Y-26285448D02*
G01*
X63750117Y-26345463D01*
X63880515Y-26432592D01*
X63991408Y-26543485D01*
X64078537Y-26673883D01*
X64138552Y-26818772D01*
X64169148Y-26972586D01*
X64169148Y-27129414D01*
X64138552Y-27283228D01*
X64078537Y-27428117D01*
X63991408Y-27558515D01*
X63880515Y-27669408D01*
X63750117Y-27756537D01*
X63605228Y-27816552D01*
X63451414Y-27847148D01*
X63294586Y-27847148D01*
X63140772Y-27816552D01*
X62995883Y-27756537D01*
X62865485Y-27669408D01*
X62754592Y-27558515D01*
X62667463Y-27428117D01*
X62607448Y-27283228D01*
X62576852Y-27129414D01*
X62576852Y-26972586D01*
X62607448Y-26818772D01*
X62667463Y-26673883D01*
X62754592Y-26543485D01*
X62865485Y-26432592D01*
X62995883Y-26345463D01*
X63140772Y-26285448D01*
X63294586Y-26254852D01*
X63451414Y-26254852D01*
X63605228Y-26285448D01*
G37*
G36*
X80195403Y-26447418D02*
G01*
X80244066Y-26479934D01*
X80276582Y-26528597D01*
X80288000Y-26586000D01*
X80288000Y-26886000D01*
X80276582Y-26943403D01*
X80244066Y-26992066D01*
X80195403Y-27024582D01*
X80138000Y-27036000D01*
X78963000Y-27036000D01*
X78905597Y-27024582D01*
X78856934Y-26992066D01*
X78824418Y-26943403D01*
X78813000Y-26886000D01*
X78813000Y-26586000D01*
X78824418Y-26528597D01*
X78856934Y-26479934D01*
X78905597Y-26447418D01*
X78963000Y-26436000D01*
X80138000Y-26436000D01*
X80195403Y-26447418D01*
G37*
G36*
X109560230Y-24346964D02*
G01*
X109610420Y-24352787D01*
X109627569Y-24360359D01*
X109651051Y-24365030D01*
X109676190Y-24381827D01*
X109696076Y-24390608D01*
X109709657Y-24404189D01*
X109732157Y-24419223D01*
X109747190Y-24441722D01*
X109760771Y-24455303D01*
X109769550Y-24475186D01*
X109786350Y-24500329D01*
X109791021Y-24523812D01*
X109798592Y-24540959D01*
X109804413Y-24591139D01*
X109805380Y-24596000D01*
X109805380Y-25696000D01*
X109804412Y-25700863D01*
X109798592Y-25751040D01*
X109791021Y-25768185D01*
X109786350Y-25791671D01*
X109769549Y-25816815D01*
X109760771Y-25836696D01*
X109747192Y-25850274D01*
X109732157Y-25872777D01*
X109709654Y-25887812D01*
X109696076Y-25901391D01*
X109676195Y-25910169D01*
X109651051Y-25926970D01*
X109627565Y-25931641D01*
X109610420Y-25939212D01*
X109560241Y-25945032D01*
X109555380Y-25946000D01*
X108455380Y-25946000D01*
X108450518Y-25945032D01*
X108400339Y-25939212D01*
X108383192Y-25931641D01*
X108359709Y-25926970D01*
X108334566Y-25910170D01*
X108314683Y-25901391D01*
X108301102Y-25887810D01*
X108278603Y-25872777D01*
X108263569Y-25850277D01*
X108249988Y-25836696D01*
X108241207Y-25816810D01*
X108224410Y-25791671D01*
X108219739Y-25768189D01*
X108212167Y-25751040D01*
X108206344Y-25700849D01*
X108205380Y-25696000D01*
X108205380Y-24596000D01*
X108206344Y-24591150D01*
X108212167Y-24540959D01*
X108219739Y-24523808D01*
X108224410Y-24500329D01*
X108241206Y-24475191D01*
X108249988Y-24455303D01*
X108263571Y-24441719D01*
X108278603Y-24419223D01*
X108301099Y-24404191D01*
X108314683Y-24390608D01*
X108334571Y-24381826D01*
X108359709Y-24365030D01*
X108383188Y-24360359D01*
X108400339Y-24352787D01*
X108450531Y-24346964D01*
X108455380Y-24346000D01*
X109555380Y-24346000D01*
X109560230Y-24346964D01*
G37*
G36*
X106737608Y-24380448D02*
G01*
X106882497Y-24440463D01*
X107012895Y-24527592D01*
X107123788Y-24638485D01*
X107210917Y-24768883D01*
X107270932Y-24913772D01*
X107301528Y-25067586D01*
X107301528Y-25224414D01*
X107270932Y-25378228D01*
X107210917Y-25523117D01*
X107123788Y-25653515D01*
X107012895Y-25764408D01*
X106882497Y-25851537D01*
X106737608Y-25911552D01*
X106583794Y-25942148D01*
X106426966Y-25942148D01*
X106273152Y-25911552D01*
X106128263Y-25851537D01*
X105997865Y-25764408D01*
X105886972Y-25653515D01*
X105799843Y-25523117D01*
X105739828Y-25378228D01*
X105709232Y-25224414D01*
X105709232Y-25067586D01*
X105739828Y-24913772D01*
X105799843Y-24768883D01*
X105886972Y-24638485D01*
X105997865Y-24527592D01*
X106128263Y-24440463D01*
X106273152Y-24380448D01*
X106426966Y-24349852D01*
X106583794Y-24349852D01*
X106737608Y-24380448D01*
G37*
G36*
X40261790Y-22679393D02*
G01*
X40425952Y-22732733D01*
X40579748Y-22811096D01*
X40719393Y-22912553D01*
X40841447Y-23034607D01*
X40942904Y-23174252D01*
X41021267Y-23328048D01*
X41074607Y-23492210D01*
X41101609Y-23662695D01*
X41101609Y-23835305D01*
X41074607Y-24005790D01*
X41021267Y-24169952D01*
X40942904Y-24323748D01*
X40841447Y-24463393D01*
X40719393Y-24585447D01*
X40579748Y-24686904D01*
X40425952Y-24765267D01*
X40261790Y-24818607D01*
X40091305Y-24845609D01*
X39918695Y-24845609D01*
X39748210Y-24818607D01*
X39584048Y-24765267D01*
X39430252Y-24686904D01*
X39290607Y-24585447D01*
X39168553Y-24463393D01*
X39067096Y-24323748D01*
X38988733Y-24169952D01*
X38935393Y-24005790D01*
X38908391Y-23835305D01*
X38908391Y-23662695D01*
X38935393Y-23492210D01*
X38988733Y-23328048D01*
X39067096Y-23174252D01*
X39168553Y-23034607D01*
X39290607Y-22912553D01*
X39430252Y-22811096D01*
X39584048Y-22732733D01*
X39748210Y-22679393D01*
X39918695Y-22652391D01*
X40091305Y-22652391D01*
X40261790Y-22679393D01*
G37*
G36*
X115445790Y-22679393D02*
G01*
X115609952Y-22732733D01*
X115763748Y-22811096D01*
X115903393Y-22912553D01*
X116025447Y-23034607D01*
X116126904Y-23174252D01*
X116205267Y-23328048D01*
X116258607Y-23492210D01*
X116285609Y-23662695D01*
X116285609Y-23835305D01*
X116258607Y-24005790D01*
X116205267Y-24169952D01*
X116126904Y-24323748D01*
X116025447Y-24463393D01*
X115903393Y-24585447D01*
X115763748Y-24686904D01*
X115609952Y-24765267D01*
X115445790Y-24818607D01*
X115275305Y-24845609D01*
X115102695Y-24845609D01*
X114932210Y-24818607D01*
X114768048Y-24765267D01*
X114614252Y-24686904D01*
X114474607Y-24585447D01*
X114352553Y-24463393D01*
X114251096Y-24323748D01*
X114172733Y-24169952D01*
X114119393Y-24005790D01*
X114092391Y-23835305D01*
X114092391Y-23662695D01*
X114119393Y-23492210D01*
X114172733Y-23328048D01*
X114251096Y-23174252D01*
X114352553Y-23034607D01*
X114474607Y-22912553D01*
X114614252Y-22811096D01*
X114768048Y-22732733D01*
X114932210Y-22679393D01*
X115102695Y-22652391D01*
X115275305Y-22652391D01*
X115445790Y-22679393D01*
G37*
M02*
