%TF.GenerationSoftware,KiCad,Pcbnew,9.0.6*%
%TF.CreationDate,2025-11-18T16:34:36-08:00*%
%TF.ProjectId,schematic,73636865-6d61-4746-9963-2e6b69636164,rev?*%
%TF.SameCoordinates,Original*%
%TF.FileFunction,Soldermask,Bot*%
%TF.FilePolarity,Negative*%
%FSLAX46Y46*%
G04 Gerber Fmt 4.6, Leading zero omitted, Abs format (unit mm)*
G04 Created by KiCad (PCBNEW 9.0.6) date 2025-11-18 16:34:36*
%MOMM*%
%LPD*%
G01*
G04 APERTURE LIST*
G04 APERTURE END LIST*
G36*
X114048790Y-93545393D02*
G01*
X114212952Y-93598733D01*
X114366748Y-93677096D01*
X114506393Y-93778553D01*
X114628447Y-93900607D01*
X114729904Y-94040252D01*
X114808267Y-94194048D01*
X114861607Y-94358210D01*
X114888609Y-94528695D01*
X114888609Y-94701305D01*
X114861607Y-94871790D01*
X114808267Y-95035952D01*
X114729904Y-95189748D01*
X114628447Y-95329393D01*
X114506393Y-95451447D01*
X114366748Y-95552904D01*
X114212952Y-95631267D01*
X114048790Y-95684607D01*
X113878305Y-95711609D01*
X113705695Y-95711609D01*
X113535210Y-95684607D01*
X113371048Y-95631267D01*
X113217252Y-95552904D01*
X113077607Y-95451447D01*
X112955553Y-95329393D01*
X112854096Y-95189748D01*
X112775733Y-95035952D01*
X112722393Y-94871790D01*
X112695391Y-94701305D01*
X112695391Y-94528695D01*
X112722393Y-94358210D01*
X112775733Y-94194048D01*
X112854096Y-94040252D01*
X112955553Y-93900607D01*
X113077607Y-93778553D01*
X113217252Y-93677096D01*
X113371048Y-93598733D01*
X113535210Y-93545393D01*
X113705695Y-93518391D01*
X113878305Y-93518391D01*
X114048790Y-93545393D01*
G37*
G36*
X189232790Y-93418393D02*
G01*
X189396952Y-93471733D01*
X189550748Y-93550096D01*
X189690393Y-93651553D01*
X189812447Y-93773607D01*
X189913904Y-93913252D01*
X189992267Y-94067048D01*
X190045607Y-94231210D01*
X190072609Y-94401695D01*
X190072609Y-94574305D01*
X190045607Y-94744790D01*
X189992267Y-94908952D01*
X189913904Y-95062748D01*
X189812447Y-95202393D01*
X189690393Y-95324447D01*
X189550748Y-95425904D01*
X189396952Y-95504267D01*
X189232790Y-95557607D01*
X189062305Y-95584609D01*
X188889695Y-95584609D01*
X188719210Y-95557607D01*
X188555048Y-95504267D01*
X188401252Y-95425904D01*
X188261607Y-95324447D01*
X188139553Y-95202393D01*
X188038096Y-95062748D01*
X187959733Y-94908952D01*
X187906393Y-94744790D01*
X187879391Y-94574305D01*
X187879391Y-94401695D01*
X187906393Y-94231210D01*
X187959733Y-94067048D01*
X188038096Y-93913252D01*
X188139553Y-93773607D01*
X188261607Y-93651553D01*
X188401252Y-93550096D01*
X188555048Y-93471733D01*
X188719210Y-93418393D01*
X188889695Y-93391391D01*
X189062305Y-93391391D01*
X189232790Y-93418393D01*
G37*
G36*
X152632228Y-92706448D02*
G01*
X152777117Y-92766463D01*
X152907515Y-92853592D01*
X153018408Y-92964485D01*
X153105537Y-93094883D01*
X153165552Y-93239772D01*
X153196148Y-93393586D01*
X153196148Y-93550414D01*
X153165552Y-93704228D01*
X153105537Y-93849117D01*
X153018408Y-93979515D01*
X152907515Y-94090408D01*
X152777117Y-94177537D01*
X152632228Y-94237552D01*
X152478414Y-94268148D01*
X152321586Y-94268148D01*
X152167772Y-94237552D01*
X152022883Y-94177537D01*
X151892485Y-94090408D01*
X151781592Y-93979515D01*
X151694463Y-93849117D01*
X151634448Y-93704228D01*
X151603852Y-93550414D01*
X151603852Y-93393586D01*
X151634448Y-93239772D01*
X151694463Y-93094883D01*
X151781592Y-92964485D01*
X151892485Y-92853592D01*
X152022883Y-92766463D01*
X152167772Y-92706448D01*
X152321586Y-92675852D01*
X152478414Y-92675852D01*
X152632228Y-92706448D01*
G37*
G36*
X184664850Y-92545964D02*
G01*
X184715040Y-92551787D01*
X184732189Y-92559359D01*
X184755671Y-92564030D01*
X184780810Y-92580827D01*
X184800696Y-92589608D01*
X184814277Y-92603189D01*
X184836777Y-92618223D01*
X184851810Y-92640722D01*
X184865391Y-92654303D01*
X184874170Y-92674186D01*
X184890970Y-92699329D01*
X184895641Y-92722812D01*
X184903212Y-92739959D01*
X184909033Y-92790139D01*
X184910000Y-92795000D01*
X184910000Y-93895000D01*
X184909032Y-93899863D01*
X184903212Y-93950040D01*
X184895641Y-93967185D01*
X184890970Y-93990671D01*
X184874169Y-94015815D01*
X184865391Y-94035696D01*
X184851812Y-94049274D01*
X184836777Y-94071777D01*
X184814274Y-94086812D01*
X184800696Y-94100391D01*
X184780815Y-94109169D01*
X184755671Y-94125970D01*
X184732185Y-94130641D01*
X184715040Y-94138212D01*
X184664861Y-94144032D01*
X184660000Y-94145000D01*
X183560000Y-94145000D01*
X183555138Y-94144032D01*
X183504959Y-94138212D01*
X183487812Y-94130641D01*
X183464329Y-94125970D01*
X183439186Y-94109170D01*
X183419303Y-94100391D01*
X183405722Y-94086810D01*
X183383223Y-94071777D01*
X183368189Y-94049277D01*
X183354608Y-94035696D01*
X183345827Y-94015810D01*
X183329030Y-93990671D01*
X183324359Y-93967189D01*
X183316787Y-93950040D01*
X183310964Y-93899849D01*
X183310000Y-93895000D01*
X183310000Y-92795000D01*
X183310964Y-92790150D01*
X183316787Y-92739959D01*
X183324359Y-92722808D01*
X183329030Y-92699329D01*
X183345826Y-92674191D01*
X183354608Y-92654303D01*
X183368191Y-92640719D01*
X183383223Y-92618223D01*
X183405719Y-92603191D01*
X183419303Y-92589608D01*
X183439191Y-92580826D01*
X183464329Y-92564030D01*
X183487808Y-92559359D01*
X183504959Y-92551787D01*
X183555151Y-92545964D01*
X183560000Y-92545000D01*
X184660000Y-92545000D01*
X184664850Y-92545964D01*
G37*
G36*
X181842228Y-92579448D02*
G01*
X181987117Y-92639463D01*
X182117515Y-92726592D01*
X182228408Y-92837485D01*
X182315537Y-92967883D01*
X182375552Y-93112772D01*
X182406148Y-93266586D01*
X182406148Y-93423414D01*
X182375552Y-93577228D01*
X182315537Y-93722117D01*
X182228408Y-93852515D01*
X182117515Y-93963408D01*
X181987117Y-94050537D01*
X181842228Y-94110552D01*
X181688414Y-94141148D01*
X181531586Y-94141148D01*
X181377772Y-94110552D01*
X181232883Y-94050537D01*
X181102485Y-93963408D01*
X180991592Y-93852515D01*
X180904463Y-93722117D01*
X180844448Y-93577228D01*
X180813852Y-93423414D01*
X180813852Y-93266586D01*
X180844448Y-93112772D01*
X180904463Y-92967883D01*
X180991592Y-92837485D01*
X181102485Y-92726592D01*
X181232883Y-92639463D01*
X181377772Y-92579448D01*
X181531586Y-92548852D01*
X181688414Y-92548852D01*
X181842228Y-92579448D01*
G37*
G36*
X164934000Y-93306000D02*
G01*
X163234000Y-93306000D01*
X163234000Y-91606000D01*
X164934000Y-91606000D01*
X164934000Y-93306000D01*
G37*
G36*
X116859850Y-89535964D02*
G01*
X116910040Y-89541787D01*
X116927189Y-89549359D01*
X116950671Y-89554030D01*
X116975810Y-89570827D01*
X116995696Y-89579608D01*
X117009277Y-89593189D01*
X117031777Y-89608223D01*
X117046810Y-89630722D01*
X117060391Y-89644303D01*
X117069170Y-89664186D01*
X117085970Y-89689329D01*
X117090641Y-89712812D01*
X117098212Y-89729959D01*
X117104033Y-89780139D01*
X117105000Y-89785000D01*
X117105000Y-93055000D01*
X117104032Y-93059863D01*
X117098212Y-93110040D01*
X117090641Y-93127185D01*
X117085970Y-93150671D01*
X117069169Y-93175815D01*
X117060391Y-93195696D01*
X117046812Y-93209274D01*
X117031777Y-93231777D01*
X117009274Y-93246812D01*
X116995696Y-93260391D01*
X116975815Y-93269169D01*
X116950671Y-93285970D01*
X116927185Y-93290641D01*
X116910040Y-93298212D01*
X116859861Y-93304032D01*
X116855000Y-93305000D01*
X115555000Y-93305000D01*
X115550138Y-93304032D01*
X115499959Y-93298212D01*
X115482812Y-93290641D01*
X115459329Y-93285970D01*
X115434186Y-93269170D01*
X115414303Y-93260391D01*
X115400722Y-93246810D01*
X115378223Y-93231777D01*
X115363189Y-93209277D01*
X115349608Y-93195696D01*
X115340827Y-93175810D01*
X115324030Y-93150671D01*
X115319359Y-93127189D01*
X115311787Y-93110040D01*
X115305964Y-93059849D01*
X115305000Y-93055000D01*
X115305000Y-89785000D01*
X115305964Y-89780150D01*
X115311787Y-89729959D01*
X115319359Y-89712808D01*
X115324030Y-89689329D01*
X115340826Y-89664191D01*
X115349608Y-89644303D01*
X115363191Y-89630719D01*
X115378223Y-89608223D01*
X115400719Y-89593191D01*
X115414303Y-89579608D01*
X115434191Y-89570826D01*
X115459329Y-89554030D01*
X115482808Y-89549359D01*
X115499959Y-89541787D01*
X115550151Y-89535964D01*
X115555000Y-89535000D01*
X116855000Y-89535000D01*
X116859850Y-89535964D01*
G37*
G36*
X119399850Y-89535964D02*
G01*
X119450040Y-89541787D01*
X119467189Y-89549359D01*
X119490671Y-89554030D01*
X119515810Y-89570827D01*
X119535696Y-89579608D01*
X119549277Y-89593189D01*
X119571777Y-89608223D01*
X119586810Y-89630722D01*
X119600391Y-89644303D01*
X119609170Y-89664186D01*
X119625970Y-89689329D01*
X119630641Y-89712812D01*
X119638212Y-89729959D01*
X119644033Y-89780139D01*
X119645000Y-89785000D01*
X119645000Y-93055000D01*
X119644032Y-93059863D01*
X119638212Y-93110040D01*
X119630641Y-93127185D01*
X119625970Y-93150671D01*
X119609169Y-93175815D01*
X119600391Y-93195696D01*
X119586812Y-93209274D01*
X119571777Y-93231777D01*
X119549274Y-93246812D01*
X119535696Y-93260391D01*
X119515815Y-93269169D01*
X119490671Y-93285970D01*
X119467185Y-93290641D01*
X119450040Y-93298212D01*
X119399861Y-93304032D01*
X119395000Y-93305000D01*
X118095000Y-93305000D01*
X118090138Y-93304032D01*
X118039959Y-93298212D01*
X118022812Y-93290641D01*
X117999329Y-93285970D01*
X117974186Y-93269170D01*
X117954303Y-93260391D01*
X117940722Y-93246810D01*
X117918223Y-93231777D01*
X117903189Y-93209277D01*
X117889608Y-93195696D01*
X117880827Y-93175810D01*
X117864030Y-93150671D01*
X117859359Y-93127189D01*
X117851787Y-93110040D01*
X117845964Y-93059849D01*
X117845000Y-93055000D01*
X117845000Y-89785000D01*
X117845964Y-89780150D01*
X117851787Y-89729959D01*
X117859359Y-89712808D01*
X117864030Y-89689329D01*
X117880826Y-89664191D01*
X117889608Y-89644303D01*
X117903191Y-89630719D01*
X117918223Y-89608223D01*
X117940719Y-89593191D01*
X117954303Y-89579608D01*
X117974191Y-89570826D01*
X117999329Y-89554030D01*
X118022808Y-89549359D01*
X118039959Y-89541787D01*
X118090151Y-89535964D01*
X118095000Y-89535000D01*
X119395000Y-89535000D01*
X119399850Y-89535964D01*
G37*
G36*
X121939850Y-89535964D02*
G01*
X121990040Y-89541787D01*
X122007189Y-89549359D01*
X122030671Y-89554030D01*
X122055810Y-89570827D01*
X122075696Y-89579608D01*
X122089277Y-89593189D01*
X122111777Y-89608223D01*
X122126810Y-89630722D01*
X122140391Y-89644303D01*
X122149170Y-89664186D01*
X122165970Y-89689329D01*
X122170641Y-89712812D01*
X122178212Y-89729959D01*
X122184033Y-89780139D01*
X122185000Y-89785000D01*
X122185000Y-93055000D01*
X122184032Y-93059863D01*
X122178212Y-93110040D01*
X122170641Y-93127185D01*
X122165970Y-93150671D01*
X122149169Y-93175815D01*
X122140391Y-93195696D01*
X122126812Y-93209274D01*
X122111777Y-93231777D01*
X122089274Y-93246812D01*
X122075696Y-93260391D01*
X122055815Y-93269169D01*
X122030671Y-93285970D01*
X122007185Y-93290641D01*
X121990040Y-93298212D01*
X121939861Y-93304032D01*
X121935000Y-93305000D01*
X120635000Y-93305000D01*
X120630138Y-93304032D01*
X120579959Y-93298212D01*
X120562812Y-93290641D01*
X120539329Y-93285970D01*
X120514186Y-93269170D01*
X120494303Y-93260391D01*
X120480722Y-93246810D01*
X120458223Y-93231777D01*
X120443189Y-93209277D01*
X120429608Y-93195696D01*
X120420827Y-93175810D01*
X120404030Y-93150671D01*
X120399359Y-93127189D01*
X120391787Y-93110040D01*
X120385964Y-93059849D01*
X120385000Y-93055000D01*
X120385000Y-89785000D01*
X120385964Y-89780150D01*
X120391787Y-89729959D01*
X120399359Y-89712808D01*
X120404030Y-89689329D01*
X120420826Y-89664191D01*
X120429608Y-89644303D01*
X120443191Y-89630719D01*
X120458223Y-89608223D01*
X120480719Y-89593191D01*
X120494303Y-89579608D01*
X120514191Y-89570826D01*
X120539329Y-89554030D01*
X120562808Y-89549359D01*
X120579959Y-89541787D01*
X120630151Y-89535964D01*
X120635000Y-89535000D01*
X121935000Y-89535000D01*
X121939850Y-89535964D01*
G37*
G36*
X124479850Y-89535964D02*
G01*
X124530040Y-89541787D01*
X124547189Y-89549359D01*
X124570671Y-89554030D01*
X124595810Y-89570827D01*
X124615696Y-89579608D01*
X124629277Y-89593189D01*
X124651777Y-89608223D01*
X124666810Y-89630722D01*
X124680391Y-89644303D01*
X124689170Y-89664186D01*
X124705970Y-89689329D01*
X124710641Y-89712812D01*
X124718212Y-89729959D01*
X124724033Y-89780139D01*
X124725000Y-89785000D01*
X124725000Y-93055000D01*
X124724032Y-93059863D01*
X124718212Y-93110040D01*
X124710641Y-93127185D01*
X124705970Y-93150671D01*
X124689169Y-93175815D01*
X124680391Y-93195696D01*
X124666812Y-93209274D01*
X124651777Y-93231777D01*
X124629274Y-93246812D01*
X124615696Y-93260391D01*
X124595815Y-93269169D01*
X124570671Y-93285970D01*
X124547185Y-93290641D01*
X124530040Y-93298212D01*
X124479861Y-93304032D01*
X124475000Y-93305000D01*
X123175000Y-93305000D01*
X123170138Y-93304032D01*
X123119959Y-93298212D01*
X123102812Y-93290641D01*
X123079329Y-93285970D01*
X123054186Y-93269170D01*
X123034303Y-93260391D01*
X123020722Y-93246810D01*
X122998223Y-93231777D01*
X122983189Y-93209277D01*
X122969608Y-93195696D01*
X122960827Y-93175810D01*
X122944030Y-93150671D01*
X122939359Y-93127189D01*
X122931787Y-93110040D01*
X122925964Y-93059849D01*
X122925000Y-93055000D01*
X122925000Y-89785000D01*
X122925964Y-89780150D01*
X122931787Y-89729959D01*
X122939359Y-89712808D01*
X122944030Y-89689329D01*
X122960826Y-89664191D01*
X122969608Y-89644303D01*
X122983191Y-89630719D01*
X122998223Y-89608223D01*
X123020719Y-89593191D01*
X123034303Y-89579608D01*
X123054191Y-89570826D01*
X123079329Y-89554030D01*
X123102808Y-89549359D01*
X123119959Y-89541787D01*
X123170151Y-89535964D01*
X123175000Y-89535000D01*
X124475000Y-89535000D01*
X124479850Y-89535964D01*
G37*
G36*
X127019850Y-89535964D02*
G01*
X127070040Y-89541787D01*
X127087189Y-89549359D01*
X127110671Y-89554030D01*
X127135810Y-89570827D01*
X127155696Y-89579608D01*
X127169277Y-89593189D01*
X127191777Y-89608223D01*
X127206810Y-89630722D01*
X127220391Y-89644303D01*
X127229170Y-89664186D01*
X127245970Y-89689329D01*
X127250641Y-89712812D01*
X127258212Y-89729959D01*
X127264033Y-89780139D01*
X127265000Y-89785000D01*
X127265000Y-93055000D01*
X127264032Y-93059863D01*
X127258212Y-93110040D01*
X127250641Y-93127185D01*
X127245970Y-93150671D01*
X127229169Y-93175815D01*
X127220391Y-93195696D01*
X127206812Y-93209274D01*
X127191777Y-93231777D01*
X127169274Y-93246812D01*
X127155696Y-93260391D01*
X127135815Y-93269169D01*
X127110671Y-93285970D01*
X127087185Y-93290641D01*
X127070040Y-93298212D01*
X127019861Y-93304032D01*
X127015000Y-93305000D01*
X125715000Y-93305000D01*
X125710138Y-93304032D01*
X125659959Y-93298212D01*
X125642812Y-93290641D01*
X125619329Y-93285970D01*
X125594186Y-93269170D01*
X125574303Y-93260391D01*
X125560722Y-93246810D01*
X125538223Y-93231777D01*
X125523189Y-93209277D01*
X125509608Y-93195696D01*
X125500827Y-93175810D01*
X125484030Y-93150671D01*
X125479359Y-93127189D01*
X125471787Y-93110040D01*
X125465964Y-93059849D01*
X125465000Y-93055000D01*
X125465000Y-89785000D01*
X125465964Y-89780150D01*
X125471787Y-89729959D01*
X125479359Y-89712808D01*
X125484030Y-89689329D01*
X125500826Y-89664191D01*
X125509608Y-89644303D01*
X125523191Y-89630719D01*
X125538223Y-89608223D01*
X125560719Y-89593191D01*
X125574303Y-89579608D01*
X125594191Y-89570826D01*
X125619329Y-89554030D01*
X125642808Y-89549359D01*
X125659959Y-89541787D01*
X125710151Y-89535964D01*
X125715000Y-89535000D01*
X127015000Y-89535000D01*
X127019850Y-89535964D01*
G37*
G36*
X129559850Y-89535964D02*
G01*
X129610040Y-89541787D01*
X129627189Y-89549359D01*
X129650671Y-89554030D01*
X129675810Y-89570827D01*
X129695696Y-89579608D01*
X129709277Y-89593189D01*
X129731777Y-89608223D01*
X129746810Y-89630722D01*
X129760391Y-89644303D01*
X129769170Y-89664186D01*
X129785970Y-89689329D01*
X129790641Y-89712812D01*
X129798212Y-89729959D01*
X129804033Y-89780139D01*
X129805000Y-89785000D01*
X129805000Y-93055000D01*
X129804032Y-93059863D01*
X129798212Y-93110040D01*
X129790641Y-93127185D01*
X129785970Y-93150671D01*
X129769169Y-93175815D01*
X129760391Y-93195696D01*
X129746812Y-93209274D01*
X129731777Y-93231777D01*
X129709274Y-93246812D01*
X129695696Y-93260391D01*
X129675815Y-93269169D01*
X129650671Y-93285970D01*
X129627185Y-93290641D01*
X129610040Y-93298212D01*
X129559861Y-93304032D01*
X129555000Y-93305000D01*
X128255000Y-93305000D01*
X128250138Y-93304032D01*
X128199959Y-93298212D01*
X128182812Y-93290641D01*
X128159329Y-93285970D01*
X128134186Y-93269170D01*
X128114303Y-93260391D01*
X128100722Y-93246810D01*
X128078223Y-93231777D01*
X128063189Y-93209277D01*
X128049608Y-93195696D01*
X128040827Y-93175810D01*
X128024030Y-93150671D01*
X128019359Y-93127189D01*
X128011787Y-93110040D01*
X128005964Y-93059849D01*
X128005000Y-93055000D01*
X128005000Y-89785000D01*
X128005964Y-89780150D01*
X128011787Y-89729959D01*
X128019359Y-89712808D01*
X128024030Y-89689329D01*
X128040826Y-89664191D01*
X128049608Y-89644303D01*
X128063191Y-89630719D01*
X128078223Y-89608223D01*
X128100719Y-89593191D01*
X128114303Y-89579608D01*
X128134191Y-89570826D01*
X128159329Y-89554030D01*
X128182808Y-89549359D01*
X128199959Y-89541787D01*
X128250151Y-89535964D01*
X128255000Y-89535000D01*
X129555000Y-89535000D01*
X129559850Y-89535964D01*
G37*
G36*
X132099850Y-89535964D02*
G01*
X132150040Y-89541787D01*
X132167189Y-89549359D01*
X132190671Y-89554030D01*
X132215810Y-89570827D01*
X132235696Y-89579608D01*
X132249277Y-89593189D01*
X132271777Y-89608223D01*
X132286810Y-89630722D01*
X132300391Y-89644303D01*
X132309170Y-89664186D01*
X132325970Y-89689329D01*
X132330641Y-89712812D01*
X132338212Y-89729959D01*
X132344033Y-89780139D01*
X132345000Y-89785000D01*
X132345000Y-93055000D01*
X132344032Y-93059863D01*
X132338212Y-93110040D01*
X132330641Y-93127185D01*
X132325970Y-93150671D01*
X132309169Y-93175815D01*
X132300391Y-93195696D01*
X132286812Y-93209274D01*
X132271777Y-93231777D01*
X132249274Y-93246812D01*
X132235696Y-93260391D01*
X132215815Y-93269169D01*
X132190671Y-93285970D01*
X132167185Y-93290641D01*
X132150040Y-93298212D01*
X132099861Y-93304032D01*
X132095000Y-93305000D01*
X130795000Y-93305000D01*
X130790138Y-93304032D01*
X130739959Y-93298212D01*
X130722812Y-93290641D01*
X130699329Y-93285970D01*
X130674186Y-93269170D01*
X130654303Y-93260391D01*
X130640722Y-93246810D01*
X130618223Y-93231777D01*
X130603189Y-93209277D01*
X130589608Y-93195696D01*
X130580827Y-93175810D01*
X130564030Y-93150671D01*
X130559359Y-93127189D01*
X130551787Y-93110040D01*
X130545964Y-93059849D01*
X130545000Y-93055000D01*
X130545000Y-89785000D01*
X130545964Y-89780150D01*
X130551787Y-89729959D01*
X130559359Y-89712808D01*
X130564030Y-89689329D01*
X130580826Y-89664191D01*
X130589608Y-89644303D01*
X130603191Y-89630719D01*
X130618223Y-89608223D01*
X130640719Y-89593191D01*
X130654303Y-89579608D01*
X130674191Y-89570826D01*
X130699329Y-89554030D01*
X130722808Y-89549359D01*
X130739959Y-89541787D01*
X130790151Y-89535964D01*
X130795000Y-89535000D01*
X132095000Y-89535000D01*
X132099850Y-89535964D01*
G37*
G36*
X134639850Y-89535964D02*
G01*
X134690040Y-89541787D01*
X134707189Y-89549359D01*
X134730671Y-89554030D01*
X134755810Y-89570827D01*
X134775696Y-89579608D01*
X134789277Y-89593189D01*
X134811777Y-89608223D01*
X134826810Y-89630722D01*
X134840391Y-89644303D01*
X134849170Y-89664186D01*
X134865970Y-89689329D01*
X134870641Y-89712812D01*
X134878212Y-89729959D01*
X134884033Y-89780139D01*
X134885000Y-89785000D01*
X134885000Y-93055000D01*
X134884032Y-93059863D01*
X134878212Y-93110040D01*
X134870641Y-93127185D01*
X134865970Y-93150671D01*
X134849169Y-93175815D01*
X134840391Y-93195696D01*
X134826812Y-93209274D01*
X134811777Y-93231777D01*
X134789274Y-93246812D01*
X134775696Y-93260391D01*
X134755815Y-93269169D01*
X134730671Y-93285970D01*
X134707185Y-93290641D01*
X134690040Y-93298212D01*
X134639861Y-93304032D01*
X134635000Y-93305000D01*
X133335000Y-93305000D01*
X133330138Y-93304032D01*
X133279959Y-93298212D01*
X133262812Y-93290641D01*
X133239329Y-93285970D01*
X133214186Y-93269170D01*
X133194303Y-93260391D01*
X133180722Y-93246810D01*
X133158223Y-93231777D01*
X133143189Y-93209277D01*
X133129608Y-93195696D01*
X133120827Y-93175810D01*
X133104030Y-93150671D01*
X133099359Y-93127189D01*
X133091787Y-93110040D01*
X133085964Y-93059849D01*
X133085000Y-93055000D01*
X133085000Y-89785000D01*
X133085964Y-89780150D01*
X133091787Y-89729959D01*
X133099359Y-89712808D01*
X133104030Y-89689329D01*
X133120826Y-89664191D01*
X133129608Y-89644303D01*
X133143191Y-89630719D01*
X133158223Y-89608223D01*
X133180719Y-89593191D01*
X133194303Y-89579608D01*
X133214191Y-89570826D01*
X133239329Y-89554030D01*
X133262808Y-89549359D01*
X133279959Y-89541787D01*
X133330151Y-89535964D01*
X133335000Y-89535000D01*
X134635000Y-89535000D01*
X134639850Y-89535964D01*
G37*
G36*
X159250742Y-91642601D02*
G01*
X159404687Y-91706367D01*
X159543234Y-91798941D01*
X159661059Y-91916766D01*
X159753633Y-92055313D01*
X159817399Y-92209258D01*
X159849907Y-92372685D01*
X159849907Y-92539315D01*
X159817399Y-92702742D01*
X159753633Y-92856687D01*
X159661059Y-92995234D01*
X159543234Y-93113059D01*
X159404687Y-93205633D01*
X159250742Y-93269399D01*
X159087315Y-93301907D01*
X158920685Y-93301907D01*
X158757258Y-93269399D01*
X158603313Y-93205633D01*
X158464766Y-93113059D01*
X158346941Y-92995234D01*
X158254367Y-92856687D01*
X158190601Y-92702742D01*
X158158093Y-92539315D01*
X158158093Y-92372685D01*
X158190601Y-92209258D01*
X158254367Y-92055313D01*
X158346941Y-91916766D01*
X158464766Y-91798941D01*
X158603313Y-91706367D01*
X158757258Y-91642601D01*
X158920685Y-91610093D01*
X159087315Y-91610093D01*
X159250742Y-91642601D01*
G37*
G36*
X161790742Y-91642601D02*
G01*
X161944687Y-91706367D01*
X162083234Y-91798941D01*
X162201059Y-91916766D01*
X162293633Y-92055313D01*
X162357399Y-92209258D01*
X162389907Y-92372685D01*
X162389907Y-92539315D01*
X162357399Y-92702742D01*
X162293633Y-92856687D01*
X162201059Y-92995234D01*
X162083234Y-93113059D01*
X161944687Y-93205633D01*
X161790742Y-93269399D01*
X161627315Y-93301907D01*
X161460685Y-93301907D01*
X161297258Y-93269399D01*
X161143313Y-93205633D01*
X161004766Y-93113059D01*
X160886941Y-92995234D01*
X160794367Y-92856687D01*
X160730601Y-92702742D01*
X160698093Y-92539315D01*
X160698093Y-92372685D01*
X160730601Y-92209258D01*
X160794367Y-92055313D01*
X160886941Y-91916766D01*
X161004766Y-91798941D01*
X161143313Y-91706367D01*
X161297258Y-91642601D01*
X161460685Y-91610093D01*
X161627315Y-91610093D01*
X161790742Y-91642601D01*
G37*
G36*
X147289850Y-89910964D02*
G01*
X147340040Y-89916787D01*
X147357189Y-89924359D01*
X147380671Y-89929030D01*
X147405810Y-89945827D01*
X147425696Y-89954608D01*
X147439277Y-89968189D01*
X147461777Y-89983223D01*
X147476810Y-90005722D01*
X147490391Y-90019303D01*
X147499170Y-90039186D01*
X147515970Y-90064329D01*
X147520641Y-90087812D01*
X147528212Y-90104959D01*
X147534033Y-90155139D01*
X147535000Y-90160000D01*
X147535000Y-91610000D01*
X147534032Y-91614863D01*
X147528212Y-91665040D01*
X147520641Y-91682185D01*
X147515970Y-91705671D01*
X147499169Y-91730815D01*
X147490391Y-91750696D01*
X147476812Y-91764274D01*
X147461777Y-91786777D01*
X147439274Y-91801812D01*
X147425696Y-91815391D01*
X147405815Y-91824169D01*
X147380671Y-91840970D01*
X147357185Y-91845641D01*
X147340040Y-91853212D01*
X147289861Y-91859032D01*
X147285000Y-91860000D01*
X146085000Y-91860000D01*
X146080138Y-91859032D01*
X146029959Y-91853212D01*
X146012812Y-91845641D01*
X145989329Y-91840970D01*
X145964186Y-91824170D01*
X145944303Y-91815391D01*
X145930722Y-91801810D01*
X145908223Y-91786777D01*
X145893189Y-91764277D01*
X145879608Y-91750696D01*
X145870827Y-91730810D01*
X145854030Y-91705671D01*
X145849359Y-91682189D01*
X145841787Y-91665040D01*
X145835964Y-91614849D01*
X145835000Y-91610000D01*
X145835000Y-90160000D01*
X145835964Y-90155150D01*
X145841787Y-90104959D01*
X145849359Y-90087808D01*
X145854030Y-90064329D01*
X145870826Y-90039191D01*
X145879608Y-90019303D01*
X145893191Y-90005719D01*
X145908223Y-89983223D01*
X145930719Y-89968191D01*
X145944303Y-89954608D01*
X145964191Y-89945826D01*
X145989329Y-89929030D01*
X146012808Y-89924359D01*
X146029959Y-89916787D01*
X146080151Y-89910964D01*
X146085000Y-89910000D01*
X147285000Y-89910000D01*
X147289850Y-89910964D01*
G37*
G36*
X141931742Y-89946601D02*
G01*
X142085687Y-90010367D01*
X142224234Y-90102941D01*
X142342059Y-90220766D01*
X142434633Y-90359313D01*
X142498399Y-90513258D01*
X142530907Y-90676685D01*
X142535000Y-90760000D01*
X142535000Y-91010000D01*
X142530907Y-91093315D01*
X142498399Y-91256742D01*
X142434633Y-91410687D01*
X142342059Y-91549234D01*
X142224234Y-91667059D01*
X142085687Y-91759633D01*
X141931742Y-91823399D01*
X141768315Y-91855907D01*
X141601685Y-91855907D01*
X141438258Y-91823399D01*
X141284313Y-91759633D01*
X141145766Y-91667059D01*
X141027941Y-91549234D01*
X140935367Y-91410687D01*
X140871601Y-91256742D01*
X140839093Y-91093315D01*
X140835000Y-91010000D01*
X140835000Y-90760000D01*
X140839093Y-90676685D01*
X140871601Y-90513258D01*
X140935367Y-90359313D01*
X141027941Y-90220766D01*
X141145766Y-90102941D01*
X141284313Y-90010367D01*
X141438258Y-89946601D01*
X141601685Y-89914093D01*
X141768315Y-89914093D01*
X141931742Y-89946601D01*
G37*
G36*
X144431742Y-89946601D02*
G01*
X144585687Y-90010367D01*
X144724234Y-90102941D01*
X144842059Y-90220766D01*
X144934633Y-90359313D01*
X144998399Y-90513258D01*
X145030907Y-90676685D01*
X145035000Y-90760000D01*
X145035000Y-91010000D01*
X145030907Y-91093315D01*
X144998399Y-91256742D01*
X144934633Y-91410687D01*
X144842059Y-91549234D01*
X144724234Y-91667059D01*
X144585687Y-91759633D01*
X144431742Y-91823399D01*
X144268315Y-91855907D01*
X144101685Y-91855907D01*
X143938258Y-91823399D01*
X143784313Y-91759633D01*
X143645766Y-91667059D01*
X143527941Y-91549234D01*
X143435367Y-91410687D01*
X143371601Y-91256742D01*
X143339093Y-91093315D01*
X143335000Y-91010000D01*
X143335000Y-90760000D01*
X143339093Y-90676685D01*
X143371601Y-90513258D01*
X143435367Y-90359313D01*
X143527941Y-90220766D01*
X143645766Y-90102941D01*
X143784313Y-90010367D01*
X143938258Y-89946601D01*
X144101685Y-89914093D01*
X144268315Y-89914093D01*
X144431742Y-89946601D01*
G37*
G36*
X188827228Y-89959448D02*
G01*
X188972117Y-90019463D01*
X189102515Y-90106592D01*
X189213408Y-90217485D01*
X189300537Y-90347883D01*
X189360552Y-90492772D01*
X189391148Y-90646586D01*
X189391148Y-90803414D01*
X189360552Y-90957228D01*
X189300537Y-91102117D01*
X189213408Y-91232515D01*
X189102515Y-91343408D01*
X188972117Y-91430537D01*
X188827228Y-91490552D01*
X188673414Y-91521148D01*
X188516586Y-91521148D01*
X188362772Y-91490552D01*
X188217883Y-91430537D01*
X188087485Y-91343408D01*
X187976592Y-91232515D01*
X187889463Y-91102117D01*
X187829448Y-90957228D01*
X187798852Y-90803414D01*
X187798852Y-90646586D01*
X187829448Y-90492772D01*
X187889463Y-90347883D01*
X187976592Y-90217485D01*
X188087485Y-90106592D01*
X188217883Y-90019463D01*
X188362772Y-89959448D01*
X188516586Y-89928852D01*
X188673414Y-89928852D01*
X188827228Y-89959448D01*
G37*
G36*
X148466428Y-88686912D02*
G01*
X148579623Y-88733799D01*
X148681496Y-88801868D01*
X148768132Y-88888504D01*
X148836201Y-88990377D01*
X148883088Y-89103572D01*
X148906990Y-89223739D01*
X148906990Y-89346261D01*
X148883088Y-89466428D01*
X148836201Y-89579623D01*
X148768132Y-89681496D01*
X148681496Y-89768132D01*
X148579623Y-89836201D01*
X148466428Y-89883088D01*
X148346261Y-89906990D01*
X148223739Y-89906990D01*
X148103572Y-89883088D01*
X147990377Y-89836201D01*
X147888504Y-89768132D01*
X147801868Y-89681496D01*
X147733799Y-89579623D01*
X147686912Y-89466428D01*
X147663010Y-89346261D01*
X147663010Y-89223739D01*
X147686912Y-89103572D01*
X147733799Y-88990377D01*
X147801868Y-88888504D01*
X147888504Y-88801868D01*
X147990377Y-88733799D01*
X148103572Y-88686912D01*
X148223739Y-88663010D01*
X148346261Y-88663010D01*
X148466428Y-88686912D01*
G37*
G36*
X152632228Y-87706448D02*
G01*
X152777117Y-87766463D01*
X152907515Y-87853592D01*
X153018408Y-87964485D01*
X153105537Y-88094883D01*
X153165552Y-88239772D01*
X153196148Y-88393586D01*
X153196148Y-88550414D01*
X153165552Y-88704228D01*
X153105537Y-88849117D01*
X153018408Y-88979515D01*
X152907515Y-89090408D01*
X152777117Y-89177537D01*
X152632228Y-89237552D01*
X152478414Y-89268148D01*
X152321586Y-89268148D01*
X152167772Y-89237552D01*
X152022883Y-89177537D01*
X151892485Y-89090408D01*
X151781592Y-88979515D01*
X151694463Y-88849117D01*
X151634448Y-88704228D01*
X151603852Y-88550414D01*
X151603852Y-88393586D01*
X151634448Y-88239772D01*
X151694463Y-88094883D01*
X151781592Y-87964485D01*
X151892485Y-87853592D01*
X152022883Y-87766463D01*
X152167772Y-87706448D01*
X152321586Y-87675852D01*
X152478414Y-87675852D01*
X152632228Y-87706448D01*
G37*
G36*
X171095134Y-85828156D02*
G01*
X171274220Y-85886345D01*
X171441998Y-85971832D01*
X171594338Y-86082513D01*
X171727487Y-86215662D01*
X171838168Y-86368002D01*
X171923655Y-86535780D01*
X171981844Y-86714866D01*
X172011301Y-86900849D01*
X172011301Y-87089151D01*
X171981844Y-87275134D01*
X171923655Y-87454220D01*
X171838168Y-87621998D01*
X171727487Y-87774338D01*
X171594338Y-87907487D01*
X171441998Y-88018168D01*
X171274220Y-88103655D01*
X171095134Y-88161844D01*
X170909151Y-88191301D01*
X170720849Y-88191301D01*
X170534866Y-88161844D01*
X170355780Y-88103655D01*
X170188002Y-88018168D01*
X170035662Y-87907487D01*
X169902513Y-87774338D01*
X169791832Y-87621998D01*
X169706345Y-87454220D01*
X169648156Y-87275134D01*
X169618699Y-87089151D01*
X169618699Y-86900849D01*
X169648156Y-86714866D01*
X169706345Y-86535780D01*
X169791832Y-86368002D01*
X169902513Y-86215662D01*
X170035662Y-86082513D01*
X170188002Y-85971832D01*
X170355780Y-85886345D01*
X170534866Y-85828156D01*
X170720849Y-85798699D01*
X170909151Y-85798699D01*
X171095134Y-85828156D01*
G37*
G36*
X185065134Y-85828156D02*
G01*
X185244220Y-85886345D01*
X185411998Y-85971832D01*
X185564338Y-86082513D01*
X185697487Y-86215662D01*
X185808168Y-86368002D01*
X185893655Y-86535780D01*
X185951844Y-86714866D01*
X185981301Y-86900849D01*
X185981301Y-87089151D01*
X185951844Y-87275134D01*
X185893655Y-87454220D01*
X185808168Y-87621998D01*
X185697487Y-87774338D01*
X185564338Y-87907487D01*
X185411998Y-88018168D01*
X185244220Y-88103655D01*
X185065134Y-88161844D01*
X184879151Y-88191301D01*
X184690849Y-88191301D01*
X184504866Y-88161844D01*
X184325780Y-88103655D01*
X184158002Y-88018168D01*
X184005662Y-87907487D01*
X183872513Y-87774338D01*
X183761832Y-87621998D01*
X183676345Y-87454220D01*
X183618156Y-87275134D01*
X183588699Y-87089151D01*
X183588699Y-86900849D01*
X183618156Y-86714866D01*
X183676345Y-86535780D01*
X183761832Y-86368002D01*
X183872513Y-86215662D01*
X184005662Y-86082513D01*
X184158002Y-85971832D01*
X184325780Y-85886345D01*
X184504866Y-85828156D01*
X184690849Y-85798699D01*
X184879151Y-85798699D01*
X185065134Y-85828156D01*
G37*
G36*
X164570228Y-86610448D02*
G01*
X164715117Y-86670463D01*
X164845515Y-86757592D01*
X164956408Y-86868485D01*
X165043537Y-86998883D01*
X165103552Y-87143772D01*
X165134148Y-87297586D01*
X165134148Y-87454414D01*
X165103552Y-87608228D01*
X165043537Y-87753117D01*
X164956408Y-87883515D01*
X164845515Y-87994408D01*
X164715117Y-88081537D01*
X164570228Y-88141552D01*
X164416414Y-88172148D01*
X164259586Y-88172148D01*
X164105772Y-88141552D01*
X163960883Y-88081537D01*
X163830485Y-87994408D01*
X163719592Y-87883515D01*
X163632463Y-87753117D01*
X163572448Y-87608228D01*
X163541852Y-87454414D01*
X163541852Y-87297586D01*
X163572448Y-87143772D01*
X163632463Y-86998883D01*
X163719592Y-86868485D01*
X163830485Y-86757592D01*
X163960883Y-86670463D01*
X164105772Y-86610448D01*
X164259586Y-86579852D01*
X164416414Y-86579852D01*
X164570228Y-86610448D01*
G37*
G36*
X159490228Y-86530448D02*
G01*
X159635117Y-86590463D01*
X159765515Y-86677592D01*
X159876408Y-86788485D01*
X159963537Y-86918883D01*
X160023552Y-87063772D01*
X160054148Y-87217586D01*
X160054148Y-87374414D01*
X160023552Y-87528228D01*
X159963537Y-87673117D01*
X159876408Y-87803515D01*
X159765515Y-87914408D01*
X159635117Y-88001537D01*
X159490228Y-88061552D01*
X159336414Y-88092148D01*
X159179586Y-88092148D01*
X159025772Y-88061552D01*
X158880883Y-88001537D01*
X158750485Y-87914408D01*
X158639592Y-87803515D01*
X158552463Y-87673117D01*
X158492448Y-87528228D01*
X158461852Y-87374414D01*
X158461852Y-87217586D01*
X158492448Y-87063772D01*
X158552463Y-86918883D01*
X158639592Y-86788485D01*
X158750485Y-86677592D01*
X158880883Y-86590463D01*
X159025772Y-86530448D01*
X159179586Y-86499852D01*
X159336414Y-86499852D01*
X159490228Y-86530448D01*
G37*
G36*
X188827228Y-84959448D02*
G01*
X188972117Y-85019463D01*
X189102515Y-85106592D01*
X189213408Y-85217485D01*
X189300537Y-85347883D01*
X189360552Y-85492772D01*
X189391148Y-85646586D01*
X189391148Y-85803414D01*
X189360552Y-85957228D01*
X189300537Y-86102117D01*
X189213408Y-86232515D01*
X189102515Y-86343408D01*
X188972117Y-86430537D01*
X188827228Y-86490552D01*
X188673414Y-86521148D01*
X188516586Y-86521148D01*
X188362772Y-86490552D01*
X188217883Y-86430537D01*
X188087485Y-86343408D01*
X187976592Y-86232515D01*
X187889463Y-86102117D01*
X187829448Y-85957228D01*
X187798852Y-85803414D01*
X187798852Y-85646586D01*
X187829448Y-85492772D01*
X187889463Y-85347883D01*
X187976592Y-85217485D01*
X188087485Y-85106592D01*
X188217883Y-85019463D01*
X188362772Y-84959448D01*
X188516586Y-84928852D01*
X188673414Y-84928852D01*
X188827228Y-84959448D01*
G37*
G36*
X146900000Y-85305000D02*
G01*
X145200000Y-85305000D01*
X145200000Y-83605000D01*
X146900000Y-83605000D01*
X146900000Y-85305000D01*
G37*
G36*
X141216742Y-83641601D02*
G01*
X141370687Y-83705367D01*
X141509234Y-83797941D01*
X141627059Y-83915766D01*
X141719633Y-84054313D01*
X141783399Y-84208258D01*
X141815907Y-84371685D01*
X141815907Y-84538315D01*
X141783399Y-84701742D01*
X141719633Y-84855687D01*
X141627059Y-84994234D01*
X141509234Y-85112059D01*
X141370687Y-85204633D01*
X141216742Y-85268399D01*
X141053315Y-85300907D01*
X140886685Y-85300907D01*
X140723258Y-85268399D01*
X140569313Y-85204633D01*
X140430766Y-85112059D01*
X140312941Y-84994234D01*
X140220367Y-84855687D01*
X140156601Y-84701742D01*
X140124093Y-84538315D01*
X140124093Y-84371685D01*
X140156601Y-84208258D01*
X140220367Y-84054313D01*
X140312941Y-83915766D01*
X140430766Y-83797941D01*
X140569313Y-83705367D01*
X140723258Y-83641601D01*
X140886685Y-83609093D01*
X141053315Y-83609093D01*
X141216742Y-83641601D01*
G37*
G36*
X143756742Y-83641601D02*
G01*
X143910687Y-83705367D01*
X144049234Y-83797941D01*
X144167059Y-83915766D01*
X144259633Y-84054313D01*
X144323399Y-84208258D01*
X144355907Y-84371685D01*
X144355907Y-84538315D01*
X144323399Y-84701742D01*
X144259633Y-84855687D01*
X144167059Y-84994234D01*
X144049234Y-85112059D01*
X143910687Y-85204633D01*
X143756742Y-85268399D01*
X143593315Y-85300907D01*
X143426685Y-85300907D01*
X143263258Y-85268399D01*
X143109313Y-85204633D01*
X142970766Y-85112059D01*
X142852941Y-84994234D01*
X142760367Y-84855687D01*
X142696601Y-84701742D01*
X142664093Y-84538315D01*
X142664093Y-84371685D01*
X142696601Y-84208258D01*
X142760367Y-84054313D01*
X142852941Y-83915766D01*
X142970766Y-83797941D01*
X143109313Y-83705367D01*
X143263258Y-83641601D01*
X143426685Y-83609093D01*
X143593315Y-83609093D01*
X143756742Y-83641601D01*
G37*
G36*
X159490228Y-81530448D02*
G01*
X159635117Y-81590463D01*
X159765515Y-81677592D01*
X159876408Y-81788485D01*
X159963537Y-81918883D01*
X160023552Y-82063772D01*
X160054148Y-82217586D01*
X160054148Y-82374414D01*
X160023552Y-82528228D01*
X159963537Y-82673117D01*
X159876408Y-82803515D01*
X159765515Y-82914408D01*
X159635117Y-83001537D01*
X159490228Y-83061552D01*
X159336414Y-83092148D01*
X159179586Y-83092148D01*
X159025772Y-83061552D01*
X158880883Y-83001537D01*
X158750485Y-82914408D01*
X158639592Y-82803515D01*
X158552463Y-82673117D01*
X158492448Y-82528228D01*
X158461852Y-82374414D01*
X158461852Y-82217586D01*
X158492448Y-82063772D01*
X158552463Y-81918883D01*
X158639592Y-81788485D01*
X158750485Y-81677592D01*
X158880883Y-81590463D01*
X159025772Y-81530448D01*
X159179586Y-81499852D01*
X159336414Y-81499852D01*
X159490228Y-81530448D01*
G37*
G36*
X164570228Y-78990448D02*
G01*
X164715117Y-79050463D01*
X164845515Y-79137592D01*
X164956408Y-79248485D01*
X165043537Y-79378883D01*
X165103552Y-79523772D01*
X165134148Y-79677586D01*
X165134148Y-79834414D01*
X165103552Y-79988228D01*
X165043537Y-80133117D01*
X164956408Y-80263515D01*
X164845515Y-80374408D01*
X164715117Y-80461537D01*
X164570228Y-80521552D01*
X164416414Y-80552148D01*
X164259586Y-80552148D01*
X164105772Y-80521552D01*
X163960883Y-80461537D01*
X163830485Y-80374408D01*
X163719592Y-80263515D01*
X163632463Y-80133117D01*
X163572448Y-79988228D01*
X163541852Y-79834414D01*
X163541852Y-79677586D01*
X163572448Y-79523772D01*
X163632463Y-79378883D01*
X163719592Y-79248485D01*
X163830485Y-79137592D01*
X163960883Y-79050463D01*
X164105772Y-78990448D01*
X164259586Y-78959852D01*
X164416414Y-78959852D01*
X164570228Y-78990448D01*
G37*
G36*
X162840134Y-75541156D02*
G01*
X163019220Y-75599345D01*
X163186998Y-75684832D01*
X163339338Y-75795513D01*
X163472487Y-75928662D01*
X163583168Y-76081002D01*
X163668655Y-76248780D01*
X163726844Y-76427866D01*
X163756301Y-76613849D01*
X163756301Y-76802151D01*
X163726844Y-76988134D01*
X163668655Y-77167220D01*
X163583168Y-77334998D01*
X163472487Y-77487338D01*
X163339338Y-77620487D01*
X163186998Y-77731168D01*
X163019220Y-77816655D01*
X162840134Y-77874844D01*
X162654151Y-77904301D01*
X162465849Y-77904301D01*
X162279866Y-77874844D01*
X162100780Y-77816655D01*
X161933002Y-77731168D01*
X161780662Y-77620487D01*
X161647513Y-77487338D01*
X161536832Y-77334998D01*
X161451345Y-77167220D01*
X161393156Y-76988134D01*
X161363699Y-76802151D01*
X161363699Y-76613849D01*
X161393156Y-76427866D01*
X161451345Y-76248780D01*
X161536832Y-76081002D01*
X161647513Y-75928662D01*
X161780662Y-75795513D01*
X161933002Y-75684832D01*
X162100780Y-75599345D01*
X162279866Y-75541156D01*
X162465849Y-75511699D01*
X162654151Y-75511699D01*
X162840134Y-75541156D01*
G37*
G36*
X116859850Y-73065964D02*
G01*
X116910040Y-73071787D01*
X116927189Y-73079359D01*
X116950671Y-73084030D01*
X116975810Y-73100827D01*
X116995696Y-73109608D01*
X117009277Y-73123189D01*
X117031777Y-73138223D01*
X117046810Y-73160722D01*
X117060391Y-73174303D01*
X117069170Y-73194186D01*
X117085970Y-73219329D01*
X117090641Y-73242812D01*
X117098212Y-73259959D01*
X117104033Y-73310139D01*
X117105000Y-73315000D01*
X117105000Y-76585000D01*
X117104032Y-76589863D01*
X117098212Y-76640040D01*
X117090641Y-76657185D01*
X117085970Y-76680671D01*
X117069169Y-76705815D01*
X117060391Y-76725696D01*
X117046812Y-76739274D01*
X117031777Y-76761777D01*
X117009274Y-76776812D01*
X116995696Y-76790391D01*
X116975815Y-76799169D01*
X116950671Y-76815970D01*
X116927185Y-76820641D01*
X116910040Y-76828212D01*
X116859861Y-76834032D01*
X116855000Y-76835000D01*
X115555000Y-76835000D01*
X115550138Y-76834032D01*
X115499959Y-76828212D01*
X115482812Y-76820641D01*
X115459329Y-76815970D01*
X115434186Y-76799170D01*
X115414303Y-76790391D01*
X115400722Y-76776810D01*
X115378223Y-76761777D01*
X115363189Y-76739277D01*
X115349608Y-76725696D01*
X115340827Y-76705810D01*
X115324030Y-76680671D01*
X115319359Y-76657189D01*
X115311787Y-76640040D01*
X115305964Y-76589849D01*
X115305000Y-76585000D01*
X115305000Y-73315000D01*
X115305964Y-73310150D01*
X115311787Y-73259959D01*
X115319359Y-73242808D01*
X115324030Y-73219329D01*
X115340826Y-73194191D01*
X115349608Y-73174303D01*
X115363191Y-73160719D01*
X115378223Y-73138223D01*
X115400719Y-73123191D01*
X115414303Y-73109608D01*
X115434191Y-73100826D01*
X115459329Y-73084030D01*
X115482808Y-73079359D01*
X115499959Y-73071787D01*
X115550151Y-73065964D01*
X115555000Y-73065000D01*
X116855000Y-73065000D01*
X116859850Y-73065964D01*
G37*
G36*
X119399850Y-73065964D02*
G01*
X119450040Y-73071787D01*
X119467189Y-73079359D01*
X119490671Y-73084030D01*
X119515810Y-73100827D01*
X119535696Y-73109608D01*
X119549277Y-73123189D01*
X119571777Y-73138223D01*
X119586810Y-73160722D01*
X119600391Y-73174303D01*
X119609170Y-73194186D01*
X119625970Y-73219329D01*
X119630641Y-73242812D01*
X119638212Y-73259959D01*
X119644033Y-73310139D01*
X119645000Y-73315000D01*
X119645000Y-76585000D01*
X119644032Y-76589863D01*
X119638212Y-76640040D01*
X119630641Y-76657185D01*
X119625970Y-76680671D01*
X119609169Y-76705815D01*
X119600391Y-76725696D01*
X119586812Y-76739274D01*
X119571777Y-76761777D01*
X119549274Y-76776812D01*
X119535696Y-76790391D01*
X119515815Y-76799169D01*
X119490671Y-76815970D01*
X119467185Y-76820641D01*
X119450040Y-76828212D01*
X119399861Y-76834032D01*
X119395000Y-76835000D01*
X118095000Y-76835000D01*
X118090138Y-76834032D01*
X118039959Y-76828212D01*
X118022812Y-76820641D01*
X117999329Y-76815970D01*
X117974186Y-76799170D01*
X117954303Y-76790391D01*
X117940722Y-76776810D01*
X117918223Y-76761777D01*
X117903189Y-76739277D01*
X117889608Y-76725696D01*
X117880827Y-76705810D01*
X117864030Y-76680671D01*
X117859359Y-76657189D01*
X117851787Y-76640040D01*
X117845964Y-76589849D01*
X117845000Y-76585000D01*
X117845000Y-73315000D01*
X117845964Y-73310150D01*
X117851787Y-73259959D01*
X117859359Y-73242808D01*
X117864030Y-73219329D01*
X117880826Y-73194191D01*
X117889608Y-73174303D01*
X117903191Y-73160719D01*
X117918223Y-73138223D01*
X117940719Y-73123191D01*
X117954303Y-73109608D01*
X117974191Y-73100826D01*
X117999329Y-73084030D01*
X118022808Y-73079359D01*
X118039959Y-73071787D01*
X118090151Y-73065964D01*
X118095000Y-73065000D01*
X119395000Y-73065000D01*
X119399850Y-73065964D01*
G37*
G36*
X121939850Y-73065964D02*
G01*
X121990040Y-73071787D01*
X122007189Y-73079359D01*
X122030671Y-73084030D01*
X122055810Y-73100827D01*
X122075696Y-73109608D01*
X122089277Y-73123189D01*
X122111777Y-73138223D01*
X122126810Y-73160722D01*
X122140391Y-73174303D01*
X122149170Y-73194186D01*
X122165970Y-73219329D01*
X122170641Y-73242812D01*
X122178212Y-73259959D01*
X122184033Y-73310139D01*
X122185000Y-73315000D01*
X122185000Y-76585000D01*
X122184032Y-76589863D01*
X122178212Y-76640040D01*
X122170641Y-76657185D01*
X122165970Y-76680671D01*
X122149169Y-76705815D01*
X122140391Y-76725696D01*
X122126812Y-76739274D01*
X122111777Y-76761777D01*
X122089274Y-76776812D01*
X122075696Y-76790391D01*
X122055815Y-76799169D01*
X122030671Y-76815970D01*
X122007185Y-76820641D01*
X121990040Y-76828212D01*
X121939861Y-76834032D01*
X121935000Y-76835000D01*
X120635000Y-76835000D01*
X120630138Y-76834032D01*
X120579959Y-76828212D01*
X120562812Y-76820641D01*
X120539329Y-76815970D01*
X120514186Y-76799170D01*
X120494303Y-76790391D01*
X120480722Y-76776810D01*
X120458223Y-76761777D01*
X120443189Y-76739277D01*
X120429608Y-76725696D01*
X120420827Y-76705810D01*
X120404030Y-76680671D01*
X120399359Y-76657189D01*
X120391787Y-76640040D01*
X120385964Y-76589849D01*
X120385000Y-76585000D01*
X120385000Y-73315000D01*
X120385964Y-73310150D01*
X120391787Y-73259959D01*
X120399359Y-73242808D01*
X120404030Y-73219329D01*
X120420826Y-73194191D01*
X120429608Y-73174303D01*
X120443191Y-73160719D01*
X120458223Y-73138223D01*
X120480719Y-73123191D01*
X120494303Y-73109608D01*
X120514191Y-73100826D01*
X120539329Y-73084030D01*
X120562808Y-73079359D01*
X120579959Y-73071787D01*
X120630151Y-73065964D01*
X120635000Y-73065000D01*
X121935000Y-73065000D01*
X121939850Y-73065964D01*
G37*
G36*
X124479850Y-73065964D02*
G01*
X124530040Y-73071787D01*
X124547189Y-73079359D01*
X124570671Y-73084030D01*
X124595810Y-73100827D01*
X124615696Y-73109608D01*
X124629277Y-73123189D01*
X124651777Y-73138223D01*
X124666810Y-73160722D01*
X124680391Y-73174303D01*
X124689170Y-73194186D01*
X124705970Y-73219329D01*
X124710641Y-73242812D01*
X124718212Y-73259959D01*
X124724033Y-73310139D01*
X124725000Y-73315000D01*
X124725000Y-76585000D01*
X124724032Y-76589863D01*
X124718212Y-76640040D01*
X124710641Y-76657185D01*
X124705970Y-76680671D01*
X124689169Y-76705815D01*
X124680391Y-76725696D01*
X124666812Y-76739274D01*
X124651777Y-76761777D01*
X124629274Y-76776812D01*
X124615696Y-76790391D01*
X124595815Y-76799169D01*
X124570671Y-76815970D01*
X124547185Y-76820641D01*
X124530040Y-76828212D01*
X124479861Y-76834032D01*
X124475000Y-76835000D01*
X123175000Y-76835000D01*
X123170138Y-76834032D01*
X123119959Y-76828212D01*
X123102812Y-76820641D01*
X123079329Y-76815970D01*
X123054186Y-76799170D01*
X123034303Y-76790391D01*
X123020722Y-76776810D01*
X122998223Y-76761777D01*
X122983189Y-76739277D01*
X122969608Y-76725696D01*
X122960827Y-76705810D01*
X122944030Y-76680671D01*
X122939359Y-76657189D01*
X122931787Y-76640040D01*
X122925964Y-76589849D01*
X122925000Y-76585000D01*
X122925000Y-73315000D01*
X122925964Y-73310150D01*
X122931787Y-73259959D01*
X122939359Y-73242808D01*
X122944030Y-73219329D01*
X122960826Y-73194191D01*
X122969608Y-73174303D01*
X122983191Y-73160719D01*
X122998223Y-73138223D01*
X123020719Y-73123191D01*
X123034303Y-73109608D01*
X123054191Y-73100826D01*
X123079329Y-73084030D01*
X123102808Y-73079359D01*
X123119959Y-73071787D01*
X123170151Y-73065964D01*
X123175000Y-73065000D01*
X124475000Y-73065000D01*
X124479850Y-73065964D01*
G37*
G36*
X127019850Y-73065964D02*
G01*
X127070040Y-73071787D01*
X127087189Y-73079359D01*
X127110671Y-73084030D01*
X127135810Y-73100827D01*
X127155696Y-73109608D01*
X127169277Y-73123189D01*
X127191777Y-73138223D01*
X127206810Y-73160722D01*
X127220391Y-73174303D01*
X127229170Y-73194186D01*
X127245970Y-73219329D01*
X127250641Y-73242812D01*
X127258212Y-73259959D01*
X127264033Y-73310139D01*
X127265000Y-73315000D01*
X127265000Y-76585000D01*
X127264032Y-76589863D01*
X127258212Y-76640040D01*
X127250641Y-76657185D01*
X127245970Y-76680671D01*
X127229169Y-76705815D01*
X127220391Y-76725696D01*
X127206812Y-76739274D01*
X127191777Y-76761777D01*
X127169274Y-76776812D01*
X127155696Y-76790391D01*
X127135815Y-76799169D01*
X127110671Y-76815970D01*
X127087185Y-76820641D01*
X127070040Y-76828212D01*
X127019861Y-76834032D01*
X127015000Y-76835000D01*
X125715000Y-76835000D01*
X125710138Y-76834032D01*
X125659959Y-76828212D01*
X125642812Y-76820641D01*
X125619329Y-76815970D01*
X125594186Y-76799170D01*
X125574303Y-76790391D01*
X125560722Y-76776810D01*
X125538223Y-76761777D01*
X125523189Y-76739277D01*
X125509608Y-76725696D01*
X125500827Y-76705810D01*
X125484030Y-76680671D01*
X125479359Y-76657189D01*
X125471787Y-76640040D01*
X125465964Y-76589849D01*
X125465000Y-76585000D01*
X125465000Y-73315000D01*
X125465964Y-73310150D01*
X125471787Y-73259959D01*
X125479359Y-73242808D01*
X125484030Y-73219329D01*
X125500826Y-73194191D01*
X125509608Y-73174303D01*
X125523191Y-73160719D01*
X125538223Y-73138223D01*
X125560719Y-73123191D01*
X125574303Y-73109608D01*
X125594191Y-73100826D01*
X125619329Y-73084030D01*
X125642808Y-73079359D01*
X125659959Y-73071787D01*
X125710151Y-73065964D01*
X125715000Y-73065000D01*
X127015000Y-73065000D01*
X127019850Y-73065964D01*
G37*
G36*
X129559850Y-73065964D02*
G01*
X129610040Y-73071787D01*
X129627189Y-73079359D01*
X129650671Y-73084030D01*
X129675810Y-73100827D01*
X129695696Y-73109608D01*
X129709277Y-73123189D01*
X129731777Y-73138223D01*
X129746810Y-73160722D01*
X129760391Y-73174303D01*
X129769170Y-73194186D01*
X129785970Y-73219329D01*
X129790641Y-73242812D01*
X129798212Y-73259959D01*
X129804033Y-73310139D01*
X129805000Y-73315000D01*
X129805000Y-76585000D01*
X129804032Y-76589863D01*
X129798212Y-76640040D01*
X129790641Y-76657185D01*
X129785970Y-76680671D01*
X129769169Y-76705815D01*
X129760391Y-76725696D01*
X129746812Y-76739274D01*
X129731777Y-76761777D01*
X129709274Y-76776812D01*
X129695696Y-76790391D01*
X129675815Y-76799169D01*
X129650671Y-76815970D01*
X129627185Y-76820641D01*
X129610040Y-76828212D01*
X129559861Y-76834032D01*
X129555000Y-76835000D01*
X128255000Y-76835000D01*
X128250138Y-76834032D01*
X128199959Y-76828212D01*
X128182812Y-76820641D01*
X128159329Y-76815970D01*
X128134186Y-76799170D01*
X128114303Y-76790391D01*
X128100722Y-76776810D01*
X128078223Y-76761777D01*
X128063189Y-76739277D01*
X128049608Y-76725696D01*
X128040827Y-76705810D01*
X128024030Y-76680671D01*
X128019359Y-76657189D01*
X128011787Y-76640040D01*
X128005964Y-76589849D01*
X128005000Y-76585000D01*
X128005000Y-73315000D01*
X128005964Y-73310150D01*
X128011787Y-73259959D01*
X128019359Y-73242808D01*
X128024030Y-73219329D01*
X128040826Y-73194191D01*
X128049608Y-73174303D01*
X128063191Y-73160719D01*
X128078223Y-73138223D01*
X128100719Y-73123191D01*
X128114303Y-73109608D01*
X128134191Y-73100826D01*
X128159329Y-73084030D01*
X128182808Y-73079359D01*
X128199959Y-73071787D01*
X128250151Y-73065964D01*
X128255000Y-73065000D01*
X129555000Y-73065000D01*
X129559850Y-73065964D01*
G37*
G36*
X132099850Y-73065964D02*
G01*
X132150040Y-73071787D01*
X132167189Y-73079359D01*
X132190671Y-73084030D01*
X132215810Y-73100827D01*
X132235696Y-73109608D01*
X132249277Y-73123189D01*
X132271777Y-73138223D01*
X132286810Y-73160722D01*
X132300391Y-73174303D01*
X132309170Y-73194186D01*
X132325970Y-73219329D01*
X132330641Y-73242812D01*
X132338212Y-73259959D01*
X132344033Y-73310139D01*
X132345000Y-73315000D01*
X132345000Y-76585000D01*
X132344032Y-76589863D01*
X132338212Y-76640040D01*
X132330641Y-76657185D01*
X132325970Y-76680671D01*
X132309169Y-76705815D01*
X132300391Y-76725696D01*
X132286812Y-76739274D01*
X132271777Y-76761777D01*
X132249274Y-76776812D01*
X132235696Y-76790391D01*
X132215815Y-76799169D01*
X132190671Y-76815970D01*
X132167185Y-76820641D01*
X132150040Y-76828212D01*
X132099861Y-76834032D01*
X132095000Y-76835000D01*
X130795000Y-76835000D01*
X130790138Y-76834032D01*
X130739959Y-76828212D01*
X130722812Y-76820641D01*
X130699329Y-76815970D01*
X130674186Y-76799170D01*
X130654303Y-76790391D01*
X130640722Y-76776810D01*
X130618223Y-76761777D01*
X130603189Y-76739277D01*
X130589608Y-76725696D01*
X130580827Y-76705810D01*
X130564030Y-76680671D01*
X130559359Y-76657189D01*
X130551787Y-76640040D01*
X130545964Y-76589849D01*
X130545000Y-76585000D01*
X130545000Y-73315000D01*
X130545964Y-73310150D01*
X130551787Y-73259959D01*
X130559359Y-73242808D01*
X130564030Y-73219329D01*
X130580826Y-73194191D01*
X130589608Y-73174303D01*
X130603191Y-73160719D01*
X130618223Y-73138223D01*
X130640719Y-73123191D01*
X130654303Y-73109608D01*
X130674191Y-73100826D01*
X130699329Y-73084030D01*
X130722808Y-73079359D01*
X130739959Y-73071787D01*
X130790151Y-73065964D01*
X130795000Y-73065000D01*
X132095000Y-73065000D01*
X132099850Y-73065964D01*
G37*
G36*
X134639850Y-73065964D02*
G01*
X134690040Y-73071787D01*
X134707189Y-73079359D01*
X134730671Y-73084030D01*
X134755810Y-73100827D01*
X134775696Y-73109608D01*
X134789277Y-73123189D01*
X134811777Y-73138223D01*
X134826810Y-73160722D01*
X134840391Y-73174303D01*
X134849170Y-73194186D01*
X134865970Y-73219329D01*
X134870641Y-73242812D01*
X134878212Y-73259959D01*
X134884033Y-73310139D01*
X134885000Y-73315000D01*
X134885000Y-76585000D01*
X134884032Y-76589863D01*
X134878212Y-76640040D01*
X134870641Y-76657185D01*
X134865970Y-76680671D01*
X134849169Y-76705815D01*
X134840391Y-76725696D01*
X134826812Y-76739274D01*
X134811777Y-76761777D01*
X134789274Y-76776812D01*
X134775696Y-76790391D01*
X134755815Y-76799169D01*
X134730671Y-76815970D01*
X134707185Y-76820641D01*
X134690040Y-76828212D01*
X134639861Y-76834032D01*
X134635000Y-76835000D01*
X133335000Y-76835000D01*
X133330138Y-76834032D01*
X133279959Y-76828212D01*
X133262812Y-76820641D01*
X133239329Y-76815970D01*
X133214186Y-76799170D01*
X133194303Y-76790391D01*
X133180722Y-76776810D01*
X133158223Y-76761777D01*
X133143189Y-76739277D01*
X133129608Y-76725696D01*
X133120827Y-76705810D01*
X133104030Y-76680671D01*
X133099359Y-76657189D01*
X133091787Y-76640040D01*
X133085964Y-76589849D01*
X133085000Y-76585000D01*
X133085000Y-73315000D01*
X133085964Y-73310150D01*
X133091787Y-73259959D01*
X133099359Y-73242808D01*
X133104030Y-73219329D01*
X133120826Y-73194191D01*
X133129608Y-73174303D01*
X133143191Y-73160719D01*
X133158223Y-73138223D01*
X133180719Y-73123191D01*
X133194303Y-73109608D01*
X133214191Y-73100826D01*
X133239329Y-73084030D01*
X133262808Y-73079359D01*
X133279959Y-73071787D01*
X133330151Y-73065964D01*
X133335000Y-73065000D01*
X134635000Y-73065000D01*
X134639850Y-73065964D01*
G37*
G36*
X157204228Y-72259448D02*
G01*
X157349117Y-72319463D01*
X157479515Y-72406592D01*
X157590408Y-72517485D01*
X157677537Y-72647883D01*
X157737552Y-72792772D01*
X157768148Y-72946586D01*
X157768148Y-73103414D01*
X157737552Y-73257228D01*
X157677537Y-73402117D01*
X157590408Y-73532515D01*
X157479515Y-73643408D01*
X157349117Y-73730537D01*
X157204228Y-73790552D01*
X157050414Y-73821148D01*
X156893586Y-73821148D01*
X156739772Y-73790552D01*
X156594883Y-73730537D01*
X156464485Y-73643408D01*
X156353592Y-73532515D01*
X156266463Y-73402117D01*
X156206448Y-73257228D01*
X156175852Y-73103414D01*
X156175852Y-72946586D01*
X156206448Y-72792772D01*
X156266463Y-72647883D01*
X156353592Y-72517485D01*
X156464485Y-72406592D01*
X156594883Y-72319463D01*
X156739772Y-72259448D01*
X156893586Y-72228852D01*
X157050414Y-72228852D01*
X157204228Y-72259448D01*
G37*
G36*
X114532228Y-70354448D02*
G01*
X114677117Y-70414463D01*
X114807515Y-70501592D01*
X114918408Y-70612485D01*
X115005537Y-70742883D01*
X115065552Y-70887772D01*
X115096148Y-71041586D01*
X115096148Y-71198414D01*
X115065552Y-71352228D01*
X115005537Y-71497117D01*
X114918408Y-71627515D01*
X114807515Y-71738408D01*
X114677117Y-71825537D01*
X114532228Y-71885552D01*
X114378414Y-71916148D01*
X114221586Y-71916148D01*
X114067772Y-71885552D01*
X113922883Y-71825537D01*
X113792485Y-71738408D01*
X113681592Y-71627515D01*
X113594463Y-71497117D01*
X113534448Y-71352228D01*
X113503852Y-71198414D01*
X113503852Y-71041586D01*
X113534448Y-70887772D01*
X113594463Y-70742883D01*
X113681592Y-70612485D01*
X113792485Y-70501592D01*
X113922883Y-70414463D01*
X114067772Y-70354448D01*
X114221586Y-70323852D01*
X114378414Y-70323852D01*
X114532228Y-70354448D01*
G37*
G36*
X137392228Y-70354448D02*
G01*
X137537117Y-70414463D01*
X137667515Y-70501592D01*
X137778408Y-70612485D01*
X137865537Y-70742883D01*
X137925552Y-70887772D01*
X137956148Y-71041586D01*
X137956148Y-71198414D01*
X137925552Y-71352228D01*
X137865537Y-71497117D01*
X137778408Y-71627515D01*
X137667515Y-71738408D01*
X137537117Y-71825537D01*
X137392228Y-71885552D01*
X137238414Y-71916148D01*
X137081586Y-71916148D01*
X136927772Y-71885552D01*
X136782883Y-71825537D01*
X136652485Y-71738408D01*
X136541592Y-71627515D01*
X136454463Y-71497117D01*
X136394448Y-71352228D01*
X136363852Y-71198414D01*
X136363852Y-71041586D01*
X136394448Y-70887772D01*
X136454463Y-70742883D01*
X136541592Y-70612485D01*
X136652485Y-70501592D01*
X136782883Y-70414463D01*
X136927772Y-70354448D01*
X137081586Y-70323852D01*
X137238414Y-70323852D01*
X137392228Y-70354448D01*
G37*
G36*
X137392228Y-67814448D02*
G01*
X137537117Y-67874463D01*
X137667515Y-67961592D01*
X137778408Y-68072485D01*
X137865537Y-68202883D01*
X137925552Y-68347772D01*
X137956148Y-68501586D01*
X137956148Y-68658414D01*
X137925552Y-68812228D01*
X137865537Y-68957117D01*
X137778408Y-69087515D01*
X137667515Y-69198408D01*
X137537117Y-69285537D01*
X137392228Y-69345552D01*
X137238414Y-69376148D01*
X137081586Y-69376148D01*
X136927772Y-69345552D01*
X136782883Y-69285537D01*
X136652485Y-69198408D01*
X136541592Y-69087515D01*
X136454463Y-68957117D01*
X136394448Y-68812228D01*
X136363852Y-68658414D01*
X136363852Y-68501586D01*
X136394448Y-68347772D01*
X136454463Y-68202883D01*
X136541592Y-68072485D01*
X136652485Y-67961592D01*
X136782883Y-67874463D01*
X136927772Y-67814448D01*
X137081586Y-67783852D01*
X137238414Y-67783852D01*
X137392228Y-67814448D01*
G37*
G36*
X188827228Y-65909448D02*
G01*
X188972117Y-65969463D01*
X189102515Y-66056592D01*
X189213408Y-66167485D01*
X189300537Y-66297883D01*
X189360552Y-66442772D01*
X189391148Y-66596586D01*
X189391148Y-66753414D01*
X189360552Y-66907228D01*
X189300537Y-67052117D01*
X189213408Y-67182515D01*
X189102515Y-67293408D01*
X188972117Y-67380537D01*
X188827228Y-67440552D01*
X188673414Y-67471148D01*
X188516586Y-67471148D01*
X188362772Y-67440552D01*
X188217883Y-67380537D01*
X188087485Y-67293408D01*
X187976592Y-67182515D01*
X187889463Y-67052117D01*
X187829448Y-66907228D01*
X187798852Y-66753414D01*
X187798852Y-66596586D01*
X187829448Y-66442772D01*
X187889463Y-66297883D01*
X187976592Y-66167485D01*
X188087485Y-66056592D01*
X188217883Y-65969463D01*
X188362772Y-65909448D01*
X188516586Y-65878852D01*
X188673414Y-65878852D01*
X188827228Y-65909448D01*
G37*
G36*
X157204228Y-64639448D02*
G01*
X157349117Y-64699463D01*
X157479515Y-64786592D01*
X157590408Y-64897485D01*
X157677537Y-65027883D01*
X157737552Y-65172772D01*
X157768148Y-65326586D01*
X157768148Y-65483414D01*
X157737552Y-65637228D01*
X157677537Y-65782117D01*
X157590408Y-65912515D01*
X157479515Y-66023408D01*
X157349117Y-66110537D01*
X157204228Y-66170552D01*
X157050414Y-66201148D01*
X156893586Y-66201148D01*
X156739772Y-66170552D01*
X156594883Y-66110537D01*
X156464485Y-66023408D01*
X156353592Y-65912515D01*
X156266463Y-65782117D01*
X156206448Y-65637228D01*
X156175852Y-65483414D01*
X156175852Y-65326586D01*
X156206448Y-65172772D01*
X156266463Y-65027883D01*
X156353592Y-64897485D01*
X156464485Y-64786592D01*
X156594883Y-64699463D01*
X156739772Y-64639448D01*
X156893586Y-64608852D01*
X157050414Y-64608852D01*
X157204228Y-64639448D01*
G37*
G36*
X163514848Y-62808964D02*
G01*
X163565040Y-62814787D01*
X163582189Y-62822359D01*
X163605670Y-62827030D01*
X163630807Y-62843826D01*
X163650695Y-62852608D01*
X163664278Y-62866191D01*
X163686776Y-62881224D01*
X163701808Y-62903721D01*
X163715391Y-62917304D01*
X163724171Y-62937189D01*
X163740970Y-62962330D01*
X163745640Y-62985811D01*
X163753212Y-63002959D01*
X163759036Y-63053163D01*
X163759999Y-63058002D01*
X163759999Y-63061458D01*
X163760000Y-63061467D01*
X163760000Y-64608852D01*
X163760000Y-64957999D01*
X163759034Y-64962851D01*
X163753212Y-65013040D01*
X163745641Y-65030185D01*
X163740970Y-65053670D01*
X163724170Y-65078812D01*
X163715391Y-65098695D01*
X163701810Y-65112275D01*
X163686776Y-65134776D01*
X163664275Y-65149810D01*
X163650695Y-65163391D01*
X163630812Y-65172170D01*
X163605670Y-65188970D01*
X163582187Y-65193640D01*
X163565040Y-65201212D01*
X163514836Y-65207036D01*
X163509998Y-65207999D01*
X163506541Y-65207999D01*
X163506533Y-65208000D01*
X161613467Y-65208000D01*
X161613466Y-65207999D01*
X161610001Y-65208000D01*
X161605149Y-65207035D01*
X161554959Y-65201212D01*
X161537812Y-65193640D01*
X161514330Y-65188970D01*
X161489189Y-65172171D01*
X161469304Y-65163391D01*
X161455721Y-65149808D01*
X161433224Y-65134776D01*
X161418191Y-65112278D01*
X161404608Y-65098695D01*
X161395826Y-65078807D01*
X161379030Y-65053670D01*
X161374360Y-65030191D01*
X161366787Y-65013040D01*
X161360963Y-64962836D01*
X161360001Y-64957998D01*
X161360000Y-64954540D01*
X161360000Y-64954532D01*
X161360000Y-63061467D01*
X161360000Y-63061466D01*
X161360000Y-63058001D01*
X161360964Y-63053151D01*
X161366787Y-63002959D01*
X161374359Y-62985808D01*
X161379030Y-62962330D01*
X161395825Y-62937193D01*
X161404608Y-62917304D01*
X161418193Y-62903718D01*
X161433224Y-62881224D01*
X161455718Y-62866193D01*
X161469304Y-62852608D01*
X161489193Y-62843825D01*
X161514330Y-62827030D01*
X161537807Y-62822360D01*
X161554959Y-62814787D01*
X161605165Y-62808963D01*
X161610002Y-62808001D01*
X161613458Y-62808000D01*
X161613467Y-62808000D01*
X163506533Y-62808000D01*
X163509999Y-62808000D01*
X163514848Y-62808964D01*
G37*
G36*
X185739850Y-60395964D02*
G01*
X185790040Y-60401787D01*
X185807189Y-60409359D01*
X185830671Y-60414030D01*
X185855810Y-60430827D01*
X185875696Y-60439608D01*
X185889277Y-60453189D01*
X185911777Y-60468223D01*
X185926810Y-60490722D01*
X185940391Y-60504303D01*
X185949170Y-60524186D01*
X185965970Y-60549329D01*
X185970641Y-60572812D01*
X185978212Y-60589959D01*
X185984033Y-60640139D01*
X185985000Y-60645000D01*
X185985000Y-62545000D01*
X185984032Y-62549863D01*
X185978212Y-62600040D01*
X185970641Y-62617185D01*
X185965970Y-62640671D01*
X185949169Y-62665815D01*
X185940391Y-62685696D01*
X185926812Y-62699274D01*
X185911777Y-62721777D01*
X185889274Y-62736812D01*
X185875696Y-62750391D01*
X185855815Y-62759169D01*
X185830671Y-62775970D01*
X185807185Y-62780641D01*
X185790040Y-62788212D01*
X185739861Y-62794032D01*
X185735000Y-62795000D01*
X183835000Y-62795000D01*
X183830138Y-62794032D01*
X183779959Y-62788212D01*
X183762812Y-62780641D01*
X183739329Y-62775970D01*
X183714186Y-62759170D01*
X183694303Y-62750391D01*
X183680722Y-62736810D01*
X183658223Y-62721777D01*
X183643189Y-62699277D01*
X183629608Y-62685696D01*
X183620827Y-62665810D01*
X183604030Y-62640671D01*
X183599359Y-62617189D01*
X183591787Y-62600040D01*
X183585964Y-62549849D01*
X183585000Y-62545000D01*
X183585000Y-60645000D01*
X183585964Y-60640150D01*
X183591787Y-60589959D01*
X183599359Y-60572808D01*
X183604030Y-60549329D01*
X183620826Y-60524191D01*
X183629608Y-60504303D01*
X183643191Y-60490719D01*
X183658223Y-60468223D01*
X183680719Y-60453191D01*
X183694303Y-60439608D01*
X183714191Y-60430826D01*
X183739329Y-60414030D01*
X183762808Y-60409359D01*
X183779959Y-60401787D01*
X183830151Y-60395964D01*
X183835000Y-60395000D01*
X185735000Y-60395000D01*
X185739850Y-60395964D01*
G37*
G36*
X171095134Y-60428156D02*
G01*
X171274220Y-60486345D01*
X171441998Y-60571832D01*
X171594338Y-60682513D01*
X171727487Y-60815662D01*
X171838168Y-60968002D01*
X171923655Y-61135780D01*
X171981844Y-61314866D01*
X172011301Y-61500849D01*
X172011301Y-61689151D01*
X171981844Y-61875134D01*
X171923655Y-62054220D01*
X171838168Y-62221998D01*
X171727487Y-62374338D01*
X171594338Y-62507487D01*
X171441998Y-62618168D01*
X171274220Y-62703655D01*
X171095134Y-62761844D01*
X170909151Y-62791301D01*
X170720849Y-62791301D01*
X170534866Y-62761844D01*
X170355780Y-62703655D01*
X170188002Y-62618168D01*
X170035662Y-62507487D01*
X169902513Y-62374338D01*
X169791832Y-62221998D01*
X169706345Y-62054220D01*
X169648156Y-61875134D01*
X169618699Y-61689151D01*
X169618699Y-61500849D01*
X169648156Y-61314866D01*
X169706345Y-61135780D01*
X169791832Y-60968002D01*
X169902513Y-60815662D01*
X170035662Y-60682513D01*
X170188002Y-60571832D01*
X170355780Y-60486345D01*
X170534866Y-60428156D01*
X170720849Y-60398699D01*
X170909151Y-60398699D01*
X171095134Y-60428156D01*
G37*
G36*
X188827228Y-60909448D02*
G01*
X188972117Y-60969463D01*
X189102515Y-61056592D01*
X189213408Y-61167485D01*
X189300537Y-61297883D01*
X189360552Y-61442772D01*
X189391148Y-61596586D01*
X189391148Y-61753414D01*
X189360552Y-61907228D01*
X189300537Y-62052117D01*
X189213408Y-62182515D01*
X189102515Y-62293408D01*
X188972117Y-62380537D01*
X188827228Y-62440552D01*
X188673414Y-62471148D01*
X188516586Y-62471148D01*
X188362772Y-62440552D01*
X188217883Y-62380537D01*
X188087485Y-62293408D01*
X187976592Y-62182515D01*
X187889463Y-62052117D01*
X187829448Y-61907228D01*
X187798852Y-61753414D01*
X187798852Y-61596586D01*
X187829448Y-61442772D01*
X187889463Y-61297883D01*
X187976592Y-61167485D01*
X188087485Y-61056592D01*
X188217883Y-60969463D01*
X188362772Y-60909448D01*
X188516586Y-60878852D01*
X188673414Y-60878852D01*
X188827228Y-60909448D01*
G37*
G36*
X137392228Y-58924448D02*
G01*
X137537117Y-58984463D01*
X137667515Y-59071592D01*
X137778408Y-59182485D01*
X137865537Y-59312883D01*
X137925552Y-59457772D01*
X137956148Y-59611586D01*
X137956148Y-59768414D01*
X137925552Y-59922228D01*
X137865537Y-60067117D01*
X137778408Y-60197515D01*
X137667515Y-60308408D01*
X137537117Y-60395537D01*
X137392228Y-60455552D01*
X137238414Y-60486148D01*
X137081586Y-60486148D01*
X136927772Y-60455552D01*
X136782883Y-60395537D01*
X136652485Y-60308408D01*
X136541592Y-60197515D01*
X136454463Y-60067117D01*
X136394448Y-59922228D01*
X136363852Y-59768414D01*
X136363852Y-59611586D01*
X136394448Y-59457772D01*
X136454463Y-59312883D01*
X136541592Y-59182485D01*
X136652485Y-59071592D01*
X136782883Y-58984463D01*
X136927772Y-58924448D01*
X137081586Y-58893852D01*
X137238414Y-58893852D01*
X137392228Y-58924448D01*
G37*
G36*
X143519850Y-56175964D02*
G01*
X143570040Y-56181787D01*
X143587189Y-56189359D01*
X143610671Y-56194030D01*
X143635810Y-56210827D01*
X143655696Y-56219608D01*
X143669277Y-56233189D01*
X143691777Y-56248223D01*
X143706810Y-56270722D01*
X143720391Y-56284303D01*
X143729170Y-56304186D01*
X143745970Y-56329329D01*
X143750641Y-56352812D01*
X143758212Y-56369959D01*
X143764033Y-56420139D01*
X143765000Y-56425000D01*
X143765000Y-57875000D01*
X143764032Y-57879863D01*
X143758212Y-57930040D01*
X143750641Y-57947185D01*
X143745970Y-57970671D01*
X143729169Y-57995815D01*
X143720391Y-58015696D01*
X143706812Y-58029274D01*
X143691777Y-58051777D01*
X143669274Y-58066812D01*
X143655696Y-58080391D01*
X143635815Y-58089169D01*
X143610671Y-58105970D01*
X143587185Y-58110641D01*
X143570040Y-58118212D01*
X143519861Y-58124032D01*
X143515000Y-58125000D01*
X142315000Y-58125000D01*
X142310138Y-58124032D01*
X142259959Y-58118212D01*
X142242812Y-58110641D01*
X142219329Y-58105970D01*
X142194186Y-58089170D01*
X142174303Y-58080391D01*
X142160722Y-58066810D01*
X142138223Y-58051777D01*
X142123189Y-58029277D01*
X142109608Y-58015696D01*
X142100827Y-57995810D01*
X142084030Y-57970671D01*
X142079359Y-57947189D01*
X142071787Y-57930040D01*
X142065964Y-57879849D01*
X142065000Y-57875000D01*
X142065000Y-56425000D01*
X142065964Y-56420150D01*
X142071787Y-56369959D01*
X142079359Y-56352808D01*
X142084030Y-56329329D01*
X142100826Y-56304191D01*
X142109608Y-56284303D01*
X142123191Y-56270719D01*
X142138223Y-56248223D01*
X142160719Y-56233191D01*
X142174303Y-56219608D01*
X142194191Y-56210826D01*
X142219329Y-56194030D01*
X142242808Y-56189359D01*
X142259959Y-56181787D01*
X142310151Y-56175964D01*
X142315000Y-56175000D01*
X143515000Y-56175000D01*
X143519850Y-56175964D01*
G37*
G36*
X160898850Y-56175964D02*
G01*
X160949040Y-56181787D01*
X160966189Y-56189359D01*
X160989671Y-56194030D01*
X161014810Y-56210827D01*
X161034696Y-56219608D01*
X161048277Y-56233189D01*
X161070777Y-56248223D01*
X161085810Y-56270722D01*
X161099391Y-56284303D01*
X161108170Y-56304186D01*
X161124970Y-56329329D01*
X161129641Y-56352812D01*
X161137212Y-56369959D01*
X161143033Y-56420139D01*
X161144000Y-56425000D01*
X161144000Y-57875000D01*
X161143032Y-57879863D01*
X161137212Y-57930040D01*
X161129641Y-57947185D01*
X161124970Y-57970671D01*
X161108169Y-57995815D01*
X161099391Y-58015696D01*
X161085812Y-58029274D01*
X161070777Y-58051777D01*
X161048274Y-58066812D01*
X161034696Y-58080391D01*
X161014815Y-58089169D01*
X160989671Y-58105970D01*
X160966185Y-58110641D01*
X160949040Y-58118212D01*
X160898861Y-58124032D01*
X160894000Y-58125000D01*
X159694000Y-58125000D01*
X159689138Y-58124032D01*
X159638959Y-58118212D01*
X159621812Y-58110641D01*
X159598329Y-58105970D01*
X159573186Y-58089170D01*
X159553303Y-58080391D01*
X159539722Y-58066810D01*
X159517223Y-58051777D01*
X159502189Y-58029277D01*
X159488608Y-58015696D01*
X159479827Y-57995810D01*
X159463030Y-57970671D01*
X159458359Y-57947189D01*
X159450787Y-57930040D01*
X159444964Y-57879849D01*
X159444000Y-57875000D01*
X159444000Y-56425000D01*
X159444964Y-56420150D01*
X159450787Y-56369959D01*
X159458359Y-56352808D01*
X159463030Y-56329329D01*
X159479826Y-56304191D01*
X159488608Y-56284303D01*
X159502191Y-56270719D01*
X159517223Y-56248223D01*
X159539719Y-56233191D01*
X159553303Y-56219608D01*
X159573191Y-56210826D01*
X159598329Y-56194030D01*
X159621808Y-56189359D01*
X159638959Y-56181787D01*
X159689151Y-56175964D01*
X159694000Y-56175000D01*
X160894000Y-56175000D01*
X160898850Y-56175964D01*
G37*
G36*
X145661742Y-56211601D02*
G01*
X145815687Y-56275367D01*
X145954234Y-56367941D01*
X146072059Y-56485766D01*
X146164633Y-56624313D01*
X146228399Y-56778258D01*
X146260907Y-56941685D01*
X146265000Y-57025000D01*
X146265000Y-57275000D01*
X146260907Y-57358315D01*
X146228399Y-57521742D01*
X146164633Y-57675687D01*
X146072059Y-57814234D01*
X145954234Y-57932059D01*
X145815687Y-58024633D01*
X145661742Y-58088399D01*
X145498315Y-58120907D01*
X145331685Y-58120907D01*
X145168258Y-58088399D01*
X145014313Y-58024633D01*
X144875766Y-57932059D01*
X144757941Y-57814234D01*
X144665367Y-57675687D01*
X144601601Y-57521742D01*
X144569093Y-57358315D01*
X144565000Y-57275000D01*
X144565000Y-57025000D01*
X144569093Y-56941685D01*
X144601601Y-56778258D01*
X144665367Y-56624313D01*
X144757941Y-56485766D01*
X144875766Y-56367941D01*
X145014313Y-56275367D01*
X145168258Y-56211601D01*
X145331685Y-56179093D01*
X145498315Y-56179093D01*
X145661742Y-56211601D01*
G37*
G36*
X163040742Y-56211601D02*
G01*
X163194687Y-56275367D01*
X163333234Y-56367941D01*
X163451059Y-56485766D01*
X163543633Y-56624313D01*
X163607399Y-56778258D01*
X163639907Y-56941685D01*
X163644000Y-57025000D01*
X163644000Y-57275000D01*
X163639907Y-57358315D01*
X163607399Y-57521742D01*
X163543633Y-57675687D01*
X163451059Y-57814234D01*
X163333234Y-57932059D01*
X163194687Y-58024633D01*
X163040742Y-58088399D01*
X162877315Y-58120907D01*
X162710685Y-58120907D01*
X162547258Y-58088399D01*
X162393313Y-58024633D01*
X162254766Y-57932059D01*
X162136941Y-57814234D01*
X162044367Y-57675687D01*
X161980601Y-57521742D01*
X161948093Y-57358315D01*
X161944000Y-57275000D01*
X161944000Y-57025000D01*
X161948093Y-56941685D01*
X161980601Y-56778258D01*
X162044367Y-56624313D01*
X162136941Y-56485766D01*
X162254766Y-56367941D01*
X162393313Y-56275367D01*
X162547258Y-56211601D01*
X162710685Y-56179093D01*
X162877315Y-56179093D01*
X163040742Y-56211601D01*
G37*
G36*
X115100000Y-57950000D02*
G01*
X113500000Y-57950000D01*
X113500000Y-56350000D01*
X115100000Y-56350000D01*
X115100000Y-57950000D01*
G37*
G36*
X137392228Y-56384448D02*
G01*
X137537117Y-56444463D01*
X137667515Y-56531592D01*
X137778408Y-56642485D01*
X137865537Y-56772883D01*
X137925552Y-56917772D01*
X137956148Y-57071586D01*
X137956148Y-57228414D01*
X137925552Y-57382228D01*
X137865537Y-57527117D01*
X137778408Y-57657515D01*
X137667515Y-57768408D01*
X137537117Y-57855537D01*
X137392228Y-57915552D01*
X137238414Y-57946148D01*
X137081586Y-57946148D01*
X136927772Y-57915552D01*
X136782883Y-57855537D01*
X136652485Y-57768408D01*
X136541592Y-57657515D01*
X136454463Y-57527117D01*
X136394448Y-57382228D01*
X136363852Y-57228414D01*
X136363852Y-57071586D01*
X136394448Y-56917772D01*
X136454463Y-56772883D01*
X136541592Y-56642485D01*
X136652485Y-56531592D01*
X136782883Y-56444463D01*
X136927772Y-56384448D01*
X137081586Y-56353852D01*
X137238414Y-56353852D01*
X137392228Y-56384448D01*
G37*
G36*
X183347230Y-54445964D02*
G01*
X183397420Y-54451787D01*
X183414569Y-54459359D01*
X183438051Y-54464030D01*
X183463190Y-54480827D01*
X183483076Y-54489608D01*
X183496657Y-54503189D01*
X183519157Y-54518223D01*
X183534190Y-54540722D01*
X183547771Y-54554303D01*
X183556550Y-54574186D01*
X183573350Y-54599329D01*
X183578021Y-54622812D01*
X183585592Y-54639959D01*
X183591413Y-54690139D01*
X183592380Y-54695000D01*
X183592380Y-55795000D01*
X183591412Y-55799863D01*
X183585592Y-55850040D01*
X183578021Y-55867185D01*
X183573350Y-55890671D01*
X183556549Y-55915815D01*
X183547771Y-55935696D01*
X183534192Y-55949274D01*
X183519157Y-55971777D01*
X183496654Y-55986812D01*
X183483076Y-56000391D01*
X183463195Y-56009169D01*
X183438051Y-56025970D01*
X183414565Y-56030641D01*
X183397420Y-56038212D01*
X183347241Y-56044032D01*
X183342380Y-56045000D01*
X182242380Y-56045000D01*
X182237518Y-56044032D01*
X182187339Y-56038212D01*
X182170192Y-56030641D01*
X182146709Y-56025970D01*
X182121566Y-56009170D01*
X182101683Y-56000391D01*
X182088102Y-55986810D01*
X182065603Y-55971777D01*
X182050569Y-55949277D01*
X182036988Y-55935696D01*
X182028207Y-55915810D01*
X182011410Y-55890671D01*
X182006739Y-55867189D01*
X181999167Y-55850040D01*
X181993344Y-55799849D01*
X181992380Y-55795000D01*
X181992380Y-54695000D01*
X181993344Y-54690150D01*
X181999167Y-54639959D01*
X182006739Y-54622808D01*
X182011410Y-54599329D01*
X182028206Y-54574191D01*
X182036988Y-54554303D01*
X182050571Y-54540719D01*
X182065603Y-54518223D01*
X182088099Y-54503191D01*
X182101683Y-54489608D01*
X182121571Y-54480826D01*
X182146709Y-54464030D01*
X182170188Y-54459359D01*
X182187339Y-54451787D01*
X182237531Y-54445964D01*
X182242380Y-54445000D01*
X183342380Y-54445000D01*
X183347230Y-54445964D01*
G37*
G36*
X180524608Y-54479448D02*
G01*
X180669497Y-54539463D01*
X180799895Y-54626592D01*
X180910788Y-54737485D01*
X180997917Y-54867883D01*
X181057932Y-55012772D01*
X181088528Y-55166586D01*
X181088528Y-55323414D01*
X181057932Y-55477228D01*
X180997917Y-55622117D01*
X180910788Y-55752515D01*
X180799895Y-55863408D01*
X180669497Y-55950537D01*
X180524608Y-56010552D01*
X180370794Y-56041148D01*
X180213966Y-56041148D01*
X180060152Y-56010552D01*
X179915263Y-55950537D01*
X179784865Y-55863408D01*
X179673972Y-55752515D01*
X179586843Y-55622117D01*
X179526828Y-55477228D01*
X179496232Y-55323414D01*
X179496232Y-55166586D01*
X179526828Y-55012772D01*
X179586843Y-54867883D01*
X179673972Y-54737485D01*
X179784865Y-54626592D01*
X179915263Y-54539463D01*
X180060152Y-54479448D01*
X180213966Y-54448852D01*
X180370794Y-54448852D01*
X180524608Y-54479448D01*
G37*
G36*
X114048790Y-52778393D02*
G01*
X114212952Y-52831733D01*
X114366748Y-52910096D01*
X114506393Y-53011553D01*
X114628447Y-53133607D01*
X114729904Y-53273252D01*
X114808267Y-53427048D01*
X114861607Y-53591210D01*
X114888609Y-53761695D01*
X114888609Y-53934305D01*
X114861607Y-54104790D01*
X114808267Y-54268952D01*
X114729904Y-54422748D01*
X114628447Y-54562393D01*
X114506393Y-54684447D01*
X114366748Y-54785904D01*
X114212952Y-54864267D01*
X114048790Y-54917607D01*
X113878305Y-54944609D01*
X113705695Y-54944609D01*
X113535210Y-54917607D01*
X113371048Y-54864267D01*
X113217252Y-54785904D01*
X113077607Y-54684447D01*
X112955553Y-54562393D01*
X112854096Y-54422748D01*
X112775733Y-54268952D01*
X112722393Y-54104790D01*
X112695391Y-53934305D01*
X112695391Y-53761695D01*
X112722393Y-53591210D01*
X112775733Y-53427048D01*
X112854096Y-53273252D01*
X112955553Y-53133607D01*
X113077607Y-53011553D01*
X113217252Y-52910096D01*
X113371048Y-52831733D01*
X113535210Y-52778393D01*
X113705695Y-52751391D01*
X113878305Y-52751391D01*
X114048790Y-52778393D01*
G37*
G36*
X189232790Y-52778393D02*
G01*
X189396952Y-52831733D01*
X189550748Y-52910096D01*
X189690393Y-53011553D01*
X189812447Y-53133607D01*
X189913904Y-53273252D01*
X189992267Y-53427048D01*
X190045607Y-53591210D01*
X190072609Y-53761695D01*
X190072609Y-53934305D01*
X190045607Y-54104790D01*
X189992267Y-54268952D01*
X189913904Y-54422748D01*
X189812447Y-54562393D01*
X189690393Y-54684447D01*
X189550748Y-54785904D01*
X189396952Y-54864267D01*
X189232790Y-54917607D01*
X189062305Y-54944609D01*
X188889695Y-54944609D01*
X188719210Y-54917607D01*
X188555048Y-54864267D01*
X188401252Y-54785904D01*
X188261607Y-54684447D01*
X188139553Y-54562393D01*
X188038096Y-54422748D01*
X187959733Y-54268952D01*
X187906393Y-54104790D01*
X187879391Y-53934305D01*
X187879391Y-53761695D01*
X187906393Y-53591210D01*
X187959733Y-53427048D01*
X188038096Y-53273252D01*
X188139553Y-53133607D01*
X188261607Y-53011553D01*
X188401252Y-52910096D01*
X188555048Y-52831733D01*
X188719210Y-52778393D01*
X188889695Y-52751391D01*
X189062305Y-52751391D01*
X189232790Y-52778393D01*
G37*
M02*
