%TF.GenerationSoftware,KiCad,Pcbnew,9.0.6*%
%TF.CreationDate,2025-11-18T17:24:44-08:00*%
%TF.ProjectId,schematic,73636865-6d61-4746-9963-2e6b69636164,rev?*%
%TF.SameCoordinates,Original*%
%TF.FileFunction,Copper,L3,Inr*%
%TF.FilePolarity,Positive*%
%FSLAX46Y46*%
G04 Gerber Fmt 4.6, Leading zero omitted, Abs format (unit mm)*
G04 Created by KiCad (PCBNEW 9.0.6) date 2025-11-18 17:24:44*
%MOMM*%
%LPD*%
G01*
G04 APERTURE LIST*
G04 Aperture macros list*
%AMRoundRect*
0 Rectangle with rounded corners*
0 $1 Rounding radius*
0 $2 $3 $4 $5 $6 $7 $8 $9 X,Y pos of 4 corners*
0 Add a 4 corners polygon primitive as box body*
4,1,4,$2,$3,$4,$5,$6,$7,$8,$9,$2,$3,0*
0 Add four circle primitives for the rounded corners*
1,1,$1+$1,$2,$3*
1,1,$1+$1,$4,$5*
1,1,$1+$1,$6,$7*
1,1,$1+$1,$8,$9*
0 Add four rect primitives between the rounded corners*
20,1,$1+$1,$2,$3,$4,$5,0*
20,1,$1+$1,$4,$5,$6,$7,0*
20,1,$1+$1,$6,$7,$8,$9,0*
20,1,$1+$1,$8,$9,$2,$3,0*%
G04 Aperture macros list end*
%TA.AperFunction,ComponentPad*%
%ADD10C,1.600000*%
%TD*%
%TA.AperFunction,ComponentPad*%
%ADD11RoundRect,0.250000X-0.600000X-0.725000X0.600000X-0.725000X0.600000X0.725000X-0.600000X0.725000X0*%
%TD*%
%TA.AperFunction,ComponentPad*%
%ADD12O,1.700000X1.950000*%
%TD*%
%TA.AperFunction,ComponentPad*%
%ADD13RoundRect,0.250000X0.550000X0.550000X-0.550000X0.550000X-0.550000X-0.550000X0.550000X-0.550000X0*%
%TD*%
%TA.AperFunction,ComponentPad*%
%ADD14R,1.600000X1.600000*%
%TD*%
%TA.AperFunction,ComponentPad*%
%ADD15RoundRect,0.250000X-0.650000X1.635000X-0.650000X-1.635000X0.650000X-1.635000X0.650000X1.635000X0*%
%TD*%
%TA.AperFunction,ComponentPad*%
%ADD16RoundRect,0.250000X0.650000X-1.635000X0.650000X1.635000X-0.650000X1.635000X-0.650000X-1.635000X0*%
%TD*%
%TA.AperFunction,ComponentPad*%
%ADD17R,1.700000X1.700000*%
%TD*%
%TA.AperFunction,ComponentPad*%
%ADD18C,1.700000*%
%TD*%
%TA.AperFunction,ComponentPad*%
%ADD19RoundRect,0.250000X0.600000X0.725000X-0.600000X0.725000X-0.600000X-0.725000X0.600000X-0.725000X0*%
%TD*%
%TA.AperFunction,ComponentPad*%
%ADD20RoundRect,0.250000X-0.950000X0.950000X-0.950000X-0.950000X0.950000X-0.950000X0.950000X0.950000X0*%
%TD*%
%TA.AperFunction,ComponentPad*%
%ADD21C,2.400000*%
%TD*%
%TA.AperFunction,ComponentPad*%
%ADD22RoundRect,0.250001X-0.949999X0.949999X-0.949999X-0.949999X0.949999X-0.949999X0.949999X0.949999X0*%
%TD*%
%TA.AperFunction,ViaPad*%
%ADD23C,0.600000*%
%TD*%
G04 APERTURE END LIST*
D10*
%TO.N,Net-(U2-VCC)*%
%TO.C,C5*%
X78613000Y-63373000D03*
%TO.N,GND*%
X78613000Y-58373000D03*
%TD*%
D11*
%TO.N,Net-(IN5822-K)*%
%TO.C,J1*%
X86507000Y-27051000D03*
D12*
%TO.N,VD*%
X89007000Y-27051000D03*
%TD*%
D13*
%TO.N,VD*%
%TO.C,C4*%
X109005380Y-25146000D03*
D10*
%TO.N,GND*%
X106505380Y-25146000D03*
%TD*%
D14*
%TO.N,+5V*%
%TO.C,U3*%
X40513000Y-27051000D03*
D10*
%TO.N,GND*%
X40513000Y-41021000D03*
%TO.N,Net-(Q1-D)*%
X63373000Y-27051000D03*
%TO.N,GND*%
X63373000Y-41021000D03*
%TO.N,+BATT*%
X63373000Y-29591000D03*
%TO.N,-BATT*%
X63373000Y-38481000D03*
%TD*%
%TO.N,+5V*%
%TO.C,R1*%
X83185000Y-35306000D03*
%TO.N,GND*%
X83185000Y-42926000D03*
%TD*%
D15*
%TO.N,+5VA*%
%TO.C,U1*%
X42418000Y-44851000D03*
%TO.N,GND*%
X44958000Y-44851000D03*
%TO.N,unconnected-(U1-3V3-Pad3)*%
X47498000Y-44851000D03*
%TO.N,unconnected-(U1-D4-Pad4)*%
X50038000Y-44851000D03*
%TO.N,unconnected-(U1-D3-Pad5)*%
X52578000Y-44851000D03*
%TO.N,unconnected-(U1-D2-Pad6)*%
X55118000Y-44851000D03*
%TO.N,Net-(U1-D1)*%
X57658000Y-44851000D03*
%TO.N,Net-(U1-D0)*%
X60198000Y-44851000D03*
D16*
%TO.N,unconnected-(U1-D5-Pad9)*%
X42418000Y-61321000D03*
%TO.N,unconnected-(U1-D6-Pad10)*%
X44958000Y-61321000D03*
%TO.N,unconnected-(U1-D7-Pad11)*%
X47498000Y-61321000D03*
%TO.N,unconnected-(U1-D8-Pad12)*%
X50038000Y-61321000D03*
%TO.N,unconnected-(U1-D9-Pad13)*%
X52578000Y-61321000D03*
%TO.N,unconnected-(U1-D10-Pad14)*%
X55118000Y-61321000D03*
%TO.N,unconnected-(U1-D20-Pad15)*%
X57658000Y-61321000D03*
%TO.N,unconnected-(U1-D21-Pad16)*%
X60198000Y-61321000D03*
%TD*%
D12*
%TO.N,+BATT*%
%TO.C,J2*%
X69128000Y-27051000D03*
D11*
%TO.N,-BATT*%
X71628000Y-27051000D03*
%TD*%
D17*
%TO.N,GND*%
%TO.C,U5*%
X90297000Y-62357000D03*
D18*
%TO.N,Net-(U5-DIN)*%
X87757000Y-62357000D03*
%TO.N,+5VA*%
X85217000Y-62357000D03*
%TD*%
D13*
%TO.N,+5VA*%
%TO.C,C1*%
X110323000Y-63246000D03*
D10*
%TO.N,GND*%
X107823000Y-63246000D03*
%TD*%
D17*
%TO.N,GND*%
%TO.C,U6*%
X72263000Y-54356000D03*
D18*
%TO.N,Net-(U2-VCC)*%
X69723000Y-54356000D03*
%TO.N,+5VA*%
X67183000Y-54356000D03*
%TD*%
D10*
%TO.N,VD*%
%TO.C,C3*%
X114808000Y-31576000D03*
%TO.N,GND*%
X114808000Y-36576000D03*
%TD*%
%TO.N,Net-(U1-D1)*%
%TO.C,R2*%
X90551000Y-49657000D03*
%TO.N,Net-(U5-DIN)*%
X90551000Y-57277000D03*
%TD*%
%TO.N,+5VA*%
%TO.C,C6*%
X85471000Y-57197000D03*
%TO.N,GND*%
X85471000Y-52197000D03*
%TD*%
%TO.N,+5VA*%
%TO.C,C2*%
X114808000Y-55626000D03*
%TO.N,GND*%
X114808000Y-60626000D03*
%TD*%
D19*
%TO.N,Net-(U2-VCC)*%
%TO.C,U2*%
X72898000Y-60786000D03*
D12*
%TO.N,GND*%
X70398000Y-60786000D03*
%TO.N,Net-(U1-D0)*%
X67898000Y-60786000D03*
%TD*%
D20*
%TO.N,VD*%
%TO.C,U4*%
X110998000Y-31496000D03*
D21*
%TO.N,GND*%
X97028000Y-31496000D03*
%TO.N,+5VA*%
X110998000Y-56896000D03*
%TO.N,GND*%
X97028000Y-56896000D03*
%TD*%
D22*
%TO.N,Net-(IN5822-K)*%
%TO.C,IN5822*%
X88773000Y-33909000D03*
D21*
%TO.N,+5V*%
X88773000Y-46609000D03*
%TD*%
D23*
%TO.N,Net-(U1-D1)*%
X70358000Y-49022000D03*
%TO.N,-BATT*%
X65913000Y-38481000D03*
%TD*%
M02*
