%TF.GenerationSoftware,KiCad,Pcbnew,9.0.6*%
%TF.CreationDate,2025-11-19T13:25:57-08:00*%
%TF.ProjectId,schematic,73636865-6d61-4746-9963-2e6b69636164,rev?*%
%TF.SameCoordinates,Original*%
%TF.FileFunction,Copper,L2,Inr*%
%TF.FilePolarity,Positive*%
%FSLAX46Y46*%
G04 Gerber Fmt 4.6, Leading zero omitted, Abs format (unit mm)*
G04 Created by KiCad (PCBNEW 9.0.6) date 2025-11-19 13:25:57*
%MOMM*%
%LPD*%
G01*
G04 APERTURE LIST*
G04 Aperture macros list*
%AMRoundRect*
0 Rectangle with rounded corners*
0 $1 Rounding radius*
0 $2 $3 $4 $5 $6 $7 $8 $9 X,Y pos of 4 corners*
0 Add a 4 corners polygon primitive as box body*
4,1,4,$2,$3,$4,$5,$6,$7,$8,$9,$2,$3,0*
0 Add four circle primitives for the rounded corners*
1,1,$1+$1,$2,$3*
1,1,$1+$1,$4,$5*
1,1,$1+$1,$6,$7*
1,1,$1+$1,$8,$9*
0 Add four rect primitives between the rounded corners*
20,1,$1+$1,$2,$3,$4,$5,0*
20,1,$1+$1,$4,$5,$6,$7,0*
20,1,$1+$1,$6,$7,$8,$9,0*
20,1,$1+$1,$8,$9,$2,$3,0*%
G04 Aperture macros list end*
%TA.AperFunction,ComponentPad*%
%ADD10C,1.600000*%
%TD*%
%TA.AperFunction,ComponentPad*%
%ADD11RoundRect,0.250000X-0.600000X-0.725000X0.600000X-0.725000X0.600000X0.725000X-0.600000X0.725000X0*%
%TD*%
%TA.AperFunction,ComponentPad*%
%ADD12O,1.700000X1.950000*%
%TD*%
%TA.AperFunction,ComponentPad*%
%ADD13RoundRect,0.250000X0.550000X0.550000X-0.550000X0.550000X-0.550000X-0.550000X0.550000X-0.550000X0*%
%TD*%
%TA.AperFunction,ComponentPad*%
%ADD14R,1.600000X1.600000*%
%TD*%
%TA.AperFunction,ComponentPad*%
%ADD15RoundRect,0.250000X-0.650000X1.635000X-0.650000X-1.635000X0.650000X-1.635000X0.650000X1.635000X0*%
%TD*%
%TA.AperFunction,ComponentPad*%
%ADD16RoundRect,0.250000X0.650000X-1.635000X0.650000X1.635000X-0.650000X1.635000X-0.650000X-1.635000X0*%
%TD*%
%TA.AperFunction,ComponentPad*%
%ADD17R,1.700000X1.700000*%
%TD*%
%TA.AperFunction,ComponentPad*%
%ADD18C,1.700000*%
%TD*%
%TA.AperFunction,ComponentPad*%
%ADD19RoundRect,0.250000X0.600000X0.725000X-0.600000X0.725000X-0.600000X-0.725000X0.600000X-0.725000X0*%
%TD*%
%TA.AperFunction,ComponentPad*%
%ADD20RoundRect,0.250000X-0.950000X0.950000X-0.950000X-0.950000X0.950000X-0.950000X0.950000X0.950000X0*%
%TD*%
%TA.AperFunction,ComponentPad*%
%ADD21C,2.400000*%
%TD*%
%TA.AperFunction,ComponentPad*%
%ADD22RoundRect,0.250001X-0.949999X0.949999X-0.949999X-0.949999X0.949999X-0.949999X0.949999X0.949999X0*%
%TD*%
%TA.AperFunction,ViaPad*%
%ADD23C,0.600000*%
%TD*%
G04 APERTURE END LIST*
D10*
%TO.N,Net-(U2-VCC)*%
%TO.C,C5*%
X76835000Y-63500000D03*
%TO.N,GND*%
X76835000Y-58500000D03*
%TD*%
%TO.N,BATT CHARGE*%
%TO.C,R5*%
X83185000Y-53340000D03*
%TO.N,+5V*%
X83185000Y-45720000D03*
%TD*%
D11*
%TO.N,Net-(IN5822-K)*%
%TO.C,J1*%
X86507000Y-27051000D03*
D12*
%TO.N,VD*%
X89007000Y-27051000D03*
%TD*%
D13*
%TO.N,VD*%
%TO.C,C4*%
X109005380Y-25146000D03*
D10*
%TO.N,GND*%
X106505380Y-25146000D03*
%TD*%
D14*
%TO.N,+5V*%
%TO.C,U3*%
X40513000Y-27051000D03*
D10*
%TO.N,GND*%
X40513000Y-41021000D03*
%TO.N,Net-(Q1-D)*%
X63373000Y-27051000D03*
%TO.N,GND*%
X63373000Y-41021000D03*
%TO.N,+BATT*%
X63373000Y-29591000D03*
%TO.N,-BATT*%
X63373000Y-38481000D03*
%TD*%
%TO.N,+5V*%
%TO.C,R1*%
X85090000Y-35560000D03*
%TO.N,GND*%
X85090000Y-43180000D03*
%TD*%
D15*
%TO.N,+5VA*%
%TO.C,U1*%
X42418000Y-44851000D03*
%TO.N,GND*%
X44958000Y-44851000D03*
%TO.N,unconnected-(U1-3V3-Pad3)*%
X47498000Y-44851000D03*
%TO.N,BATT CHARGE*%
X50038000Y-44851000D03*
%TO.N,BATT LEVEL*%
X52578000Y-44851000D03*
%TO.N,unconnected-(U1-D2-Pad6)*%
X55118000Y-44851000D03*
%TO.N,LED*%
X57658000Y-44851000D03*
%TO.N,MIC*%
X60198000Y-44851000D03*
D16*
%TO.N,unconnected-(U1-D5-Pad9)*%
X42418000Y-61321000D03*
%TO.N,unconnected-(U1-D6-Pad10)*%
X44958000Y-61321000D03*
%TO.N,unconnected-(U1-D7-Pad11)*%
X47498000Y-61321000D03*
%TO.N,unconnected-(U1-D8-Pad12)*%
X50038000Y-61321000D03*
%TO.N,unconnected-(U1-D9-Pad13)*%
X52578000Y-61321000D03*
%TO.N,unconnected-(U1-D10-Pad14)*%
X55118000Y-61321000D03*
%TO.N,unconnected-(U1-D20-Pad15)*%
X57658000Y-61321000D03*
%TO.N,unconnected-(U1-D21-Pad16)*%
X60198000Y-61321000D03*
%TD*%
D12*
%TO.N,+BATT*%
%TO.C,J2*%
X69128000Y-27051000D03*
D11*
%TO.N,-BATT*%
X71628000Y-27051000D03*
%TD*%
D17*
%TO.N,GND*%
%TO.C,U5*%
X92075000Y-62357000D03*
D18*
%TO.N,Net-(U5-DIN)*%
X89535000Y-62357000D03*
%TO.N,+5VA*%
X86995000Y-62357000D03*
%TD*%
D10*
%TO.N,GND*%
%TO.C,R4*%
X80010000Y-53340000D03*
%TO.N,BATT LEVEL*%
X80010000Y-45720000D03*
%TD*%
D13*
%TO.N,+5VA*%
%TO.C,C1*%
X110323000Y-63246000D03*
D10*
%TO.N,GND*%
X107823000Y-63246000D03*
%TD*%
%TO.N,GND*%
%TO.C,R6*%
X76835000Y-45720000D03*
%TO.N,BATT CHARGE*%
X76835000Y-53340000D03*
%TD*%
D17*
%TO.N,GND*%
%TO.C,U6*%
X70993000Y-54356000D03*
D18*
%TO.N,Net-(U2-VCC)*%
X68453000Y-54356000D03*
%TO.N,+5VA*%
X65913000Y-54356000D03*
%TD*%
D10*
%TO.N,BATT LEVEL*%
%TO.C,R3*%
X81915000Y-43180000D03*
%TO.N,+BATT*%
X81915000Y-35560000D03*
%TD*%
%TO.N,VD*%
%TO.C,C3*%
X114808000Y-31576000D03*
%TO.N,GND*%
X114808000Y-36576000D03*
%TD*%
%TO.N,LED*%
%TO.C,R2*%
X92075000Y-49657000D03*
%TO.N,Net-(U5-DIN)*%
X92075000Y-57277000D03*
%TD*%
%TO.N,+5VA*%
%TO.C,C6*%
X88265000Y-57150000D03*
%TO.N,GND*%
X88265000Y-52150000D03*
%TD*%
%TO.N,+5VA*%
%TO.C,C2*%
X114808000Y-55626000D03*
%TO.N,GND*%
X114808000Y-60626000D03*
%TD*%
D19*
%TO.N,Net-(U2-VCC)*%
%TO.C,U2*%
X71628000Y-60786000D03*
D12*
%TO.N,GND*%
X69128000Y-60786000D03*
%TO.N,MIC*%
X66628000Y-60786000D03*
%TD*%
D20*
%TO.N,VD*%
%TO.C,U4*%
X110998000Y-31496000D03*
D21*
%TO.N,GND*%
X97028000Y-31496000D03*
%TO.N,+5VA*%
X110998000Y-56896000D03*
%TO.N,GND*%
X97028000Y-56896000D03*
%TD*%
D22*
%TO.N,Net-(IN5822-K)*%
%TO.C,IN5822*%
X90805000Y-33909000D03*
D21*
%TO.N,+5V*%
X90805000Y-46609000D03*
%TD*%
D23*
%TO.N,+5VA*%
X62230000Y-42545000D03*
%TO.N,BATT LEVEL*%
X74422000Y-49022000D03*
X74422000Y-50292000D03*
%TO.N,+BATT*%
X75565000Y-33020000D03*
X75565000Y-30480000D03*
%TO.N,-BATT*%
X65913000Y-38481000D03*
%TD*%
M02*
