%TF.GenerationSoftware,KiCad,Pcbnew,9.0.6*%
%TF.CreationDate,2025-11-24T14:35:39-08:00*%
%TF.ProjectId,schematic,73636865-6d61-4746-9963-2e6b69636164,rev?*%
%TF.SameCoordinates,Original*%
%TF.FileFunction,Soldermask,Bot*%
%TF.FilePolarity,Negative*%
%FSLAX46Y46*%
G04 Gerber Fmt 4.6, Leading zero omitted, Abs format (unit mm)*
G04 Created by KiCad (PCBNEW 9.0.6) date 2025-11-24 14:35:39*
%MOMM*%
%LPD*%
G01*
G04 APERTURE LIST*
G04 APERTURE END LIST*
G36*
X96246242Y-42874601D02*
G01*
X96400187Y-42938367D01*
X96538734Y-43030941D01*
X96656559Y-43148766D01*
X96749133Y-43287313D01*
X96812899Y-43441258D01*
X96845407Y-43604685D01*
X96845407Y-43771315D01*
X96812899Y-43934742D01*
X96749133Y-44088687D01*
X96656559Y-44227234D01*
X96538734Y-44345059D01*
X96400187Y-44437633D01*
X96246242Y-44501399D01*
X96082815Y-44533907D01*
X95916185Y-44533907D01*
X95752758Y-44501399D01*
X95598813Y-44437633D01*
X95460266Y-44345059D01*
X95342441Y-44227234D01*
X95249867Y-44088687D01*
X95186101Y-43934742D01*
X95153593Y-43771315D01*
X95153593Y-43604685D01*
X95186101Y-43441258D01*
X95249867Y-43287313D01*
X95342441Y-43148766D01*
X95460266Y-43030941D01*
X95598813Y-42938367D01*
X95752758Y-42874601D01*
X95916185Y-42842093D01*
X96082815Y-42842093D01*
X96246242Y-42874601D01*
G37*
G36*
X38123785Y-42223060D02*
G01*
X38304897Y-42298079D01*
X38467893Y-42406990D01*
X38606510Y-42545607D01*
X38715421Y-42708603D01*
X38790440Y-42889715D01*
X38828685Y-43081983D01*
X38828685Y-43278017D01*
X38790440Y-43470285D01*
X38715421Y-43651397D01*
X38606510Y-43814393D01*
X38467893Y-43953010D01*
X38304897Y-44061921D01*
X38123785Y-44136940D01*
X37931517Y-44175185D01*
X37735483Y-44175185D01*
X37543215Y-44136940D01*
X37362103Y-44061921D01*
X37199107Y-43953010D01*
X37060490Y-43814393D01*
X36951579Y-43651397D01*
X36876560Y-43470285D01*
X36838315Y-43278017D01*
X36838315Y-43081983D01*
X36876560Y-42889715D01*
X36951579Y-42708603D01*
X37060490Y-42545607D01*
X37199107Y-42406990D01*
X37362103Y-42298079D01*
X37543215Y-42223060D01*
X37735483Y-42184815D01*
X37931517Y-42184815D01*
X38123785Y-42223060D01*
G37*
G36*
X103007815Y-41994093D02*
G01*
X103171242Y-42026601D01*
X103325187Y-42090367D01*
X103463734Y-42182941D01*
X103581559Y-42300766D01*
X103674133Y-42439313D01*
X103737899Y-42593258D01*
X103770407Y-42756685D01*
X103770407Y-42923315D01*
X103737899Y-43086742D01*
X103674133Y-43240687D01*
X103581559Y-43379234D01*
X103463734Y-43497059D01*
X103325187Y-43589633D01*
X103171242Y-43653399D01*
X103007815Y-43685907D01*
X102924500Y-43690000D01*
X102923022Y-43690000D01*
X102675978Y-43690000D01*
X102674500Y-43690000D01*
X102591185Y-43685907D01*
X102427758Y-43653399D01*
X102273813Y-43589633D01*
X102135266Y-43497059D01*
X102017441Y-43379234D01*
X101924867Y-43240687D01*
X101861101Y-43086742D01*
X101828593Y-42923315D01*
X101828593Y-42756685D01*
X101861101Y-42593258D01*
X101924867Y-42439313D01*
X102017441Y-42300766D01*
X102135266Y-42182941D01*
X102273813Y-42090367D01*
X102427758Y-42026601D01*
X102591185Y-41994093D01*
X102674500Y-41990000D01*
X102924500Y-41990000D01*
X103007815Y-41994093D01*
G37*
G36*
X43479728Y-41906448D02*
G01*
X43624617Y-41966463D01*
X43755015Y-42053592D01*
X43865908Y-42164485D01*
X43953037Y-42294883D01*
X44013052Y-42439772D01*
X44043648Y-42593586D01*
X44043648Y-42750414D01*
X44013052Y-42904228D01*
X43953037Y-43049117D01*
X43865908Y-43179515D01*
X43755015Y-43290408D01*
X43624617Y-43377537D01*
X43479728Y-43437552D01*
X43325914Y-43468148D01*
X43169086Y-43468148D01*
X43015272Y-43437552D01*
X42870383Y-43377537D01*
X42739985Y-43290408D01*
X42629092Y-43179515D01*
X42541963Y-43049117D01*
X42481948Y-42904228D01*
X42451352Y-42750414D01*
X42451352Y-42593586D01*
X42481948Y-42439772D01*
X42541963Y-42294883D01*
X42629092Y-42164485D01*
X42739985Y-42053592D01*
X42870383Y-41966463D01*
X43015272Y-41906448D01*
X43169086Y-41875852D01*
X43325914Y-41875852D01*
X43479728Y-41906448D01*
G37*
G36*
X48479728Y-41906448D02*
G01*
X48624617Y-41966463D01*
X48755015Y-42053592D01*
X48865908Y-42164485D01*
X48953037Y-42294883D01*
X49013052Y-42439772D01*
X49043648Y-42593586D01*
X49043648Y-42750414D01*
X49013052Y-42904228D01*
X48953037Y-43049117D01*
X48865908Y-43179515D01*
X48755015Y-43290408D01*
X48624617Y-43377537D01*
X48479728Y-43437552D01*
X48325914Y-43468148D01*
X48169086Y-43468148D01*
X48015272Y-43437552D01*
X47870383Y-43377537D01*
X47739985Y-43290408D01*
X47629092Y-43179515D01*
X47541963Y-43049117D01*
X47481948Y-42904228D01*
X47451352Y-42750414D01*
X47451352Y-42593586D01*
X47481948Y-42439772D01*
X47541963Y-42294883D01*
X47629092Y-42164485D01*
X47739985Y-42053592D01*
X47870383Y-41966463D01*
X48015272Y-41906448D01*
X48169086Y-41875852D01*
X48325914Y-41875852D01*
X48479728Y-41906448D01*
G37*
G36*
X81327313Y-42766000D02*
G01*
X80277313Y-42766000D01*
X80277313Y-41266000D01*
X81327313Y-41266000D01*
X81327313Y-42766000D01*
G37*
G36*
X82273222Y-41305963D02*
G01*
X82391913Y-41374489D01*
X82488824Y-41471400D01*
X82557350Y-41590091D01*
X82592822Y-41722474D01*
X82597313Y-41791000D01*
X82597313Y-42241000D01*
X82592822Y-42309526D01*
X82557350Y-42441909D01*
X82488824Y-42560600D01*
X82391913Y-42657511D01*
X82273222Y-42726037D01*
X82140839Y-42761509D01*
X82003787Y-42761509D01*
X81871404Y-42726037D01*
X81752713Y-42657511D01*
X81655802Y-42560600D01*
X81587276Y-42441909D01*
X81551804Y-42309526D01*
X81547313Y-42241000D01*
X81547313Y-41791000D01*
X81551804Y-41722474D01*
X81587276Y-41590091D01*
X81655802Y-41471400D01*
X81752713Y-41374489D01*
X81871404Y-41305963D01*
X82003787Y-41270491D01*
X82140839Y-41270491D01*
X82273222Y-41305963D01*
G37*
G36*
X83543222Y-41305963D02*
G01*
X83661913Y-41374489D01*
X83758824Y-41471400D01*
X83827350Y-41590091D01*
X83862822Y-41722474D01*
X83867313Y-41791000D01*
X83867313Y-42241000D01*
X83862822Y-42309526D01*
X83827350Y-42441909D01*
X83758824Y-42560600D01*
X83661913Y-42657511D01*
X83543222Y-42726037D01*
X83410839Y-42761509D01*
X83273787Y-42761509D01*
X83141404Y-42726037D01*
X83022713Y-42657511D01*
X82925802Y-42560600D01*
X82857276Y-42441909D01*
X82821804Y-42309526D01*
X82817313Y-42241000D01*
X82817313Y-41791000D01*
X82821804Y-41722474D01*
X82857276Y-41590091D01*
X82925802Y-41471400D01*
X83022713Y-41374489D01*
X83141404Y-41305963D01*
X83273787Y-41270491D01*
X83410839Y-41270491D01*
X83543222Y-41305963D01*
G37*
G36*
X96246242Y-40334601D02*
G01*
X96400187Y-40398367D01*
X96538734Y-40490941D01*
X96656559Y-40608766D01*
X96749133Y-40747313D01*
X96812899Y-40901258D01*
X96845407Y-41064685D01*
X96845407Y-41231315D01*
X96812899Y-41394742D01*
X96749133Y-41548687D01*
X96656559Y-41687234D01*
X96538734Y-41805059D01*
X96400187Y-41897633D01*
X96246242Y-41961399D01*
X96082815Y-41993907D01*
X95916185Y-41993907D01*
X95752758Y-41961399D01*
X95598813Y-41897633D01*
X95460266Y-41805059D01*
X95342441Y-41687234D01*
X95249867Y-41548687D01*
X95186101Y-41394742D01*
X95153593Y-41231315D01*
X95153593Y-41064685D01*
X95186101Y-40901258D01*
X95249867Y-40747313D01*
X95342441Y-40608766D01*
X95460266Y-40490941D01*
X95598813Y-40398367D01*
X95752758Y-40334601D01*
X95916185Y-40302093D01*
X96082815Y-40302093D01*
X96246242Y-40334601D01*
G37*
G36*
X38123785Y-39683060D02*
G01*
X38304897Y-39758079D01*
X38467893Y-39866990D01*
X38606510Y-40005607D01*
X38715421Y-40168603D01*
X38790440Y-40349715D01*
X38828685Y-40541983D01*
X38828685Y-40738017D01*
X38790440Y-40930285D01*
X38715421Y-41111397D01*
X38606510Y-41274393D01*
X38467893Y-41413010D01*
X38304897Y-41521921D01*
X38123785Y-41596940D01*
X37931517Y-41635185D01*
X37735483Y-41635185D01*
X37543215Y-41596940D01*
X37362103Y-41521921D01*
X37199107Y-41413010D01*
X37060490Y-41274393D01*
X36951579Y-41111397D01*
X36876560Y-40930285D01*
X36838315Y-40738017D01*
X36838315Y-40541983D01*
X36876560Y-40349715D01*
X36951579Y-40168603D01*
X37060490Y-40005607D01*
X37199107Y-39866990D01*
X37362103Y-39758079D01*
X37543215Y-39683060D01*
X37735483Y-39644815D01*
X37931517Y-39644815D01*
X38123785Y-39683060D01*
G37*
G36*
X103007815Y-39494093D02*
G01*
X103171242Y-39526601D01*
X103325187Y-39590367D01*
X103463734Y-39682941D01*
X103581559Y-39800766D01*
X103674133Y-39939313D01*
X103737899Y-40093258D01*
X103770407Y-40256685D01*
X103770407Y-40423315D01*
X103737899Y-40586742D01*
X103674133Y-40740687D01*
X103581559Y-40879234D01*
X103463734Y-40997059D01*
X103325187Y-41089633D01*
X103171242Y-41153399D01*
X103007815Y-41185907D01*
X102924500Y-41190000D01*
X102923022Y-41190000D01*
X102675978Y-41190000D01*
X102674500Y-41190000D01*
X102591185Y-41185907D01*
X102427758Y-41153399D01*
X102273813Y-41089633D01*
X102135266Y-40997059D01*
X102017441Y-40879234D01*
X101924867Y-40740687D01*
X101861101Y-40586742D01*
X101828593Y-40423315D01*
X101828593Y-40256685D01*
X101861101Y-40093258D01*
X101924867Y-39939313D01*
X102017441Y-39800766D01*
X102135266Y-39682941D01*
X102273813Y-39590367D01*
X102427758Y-39526601D01*
X102591185Y-39494093D01*
X102674500Y-39490000D01*
X102924500Y-39490000D01*
X103007815Y-39494093D01*
G37*
G36*
X96849500Y-39458000D02*
G01*
X95149500Y-39458000D01*
X95149500Y-37758000D01*
X96849500Y-37758000D01*
X96849500Y-39458000D01*
G37*
G36*
X38123785Y-37143060D02*
G01*
X38304897Y-37218079D01*
X38467893Y-37326990D01*
X38606510Y-37465607D01*
X38715421Y-37628603D01*
X38790440Y-37809715D01*
X38828685Y-38001983D01*
X38828685Y-38198017D01*
X38790440Y-38390285D01*
X38715421Y-38571397D01*
X38606510Y-38734393D01*
X38467893Y-38873010D01*
X38304897Y-38981921D01*
X38123785Y-39056940D01*
X37931517Y-39095185D01*
X37735483Y-39095185D01*
X37543215Y-39056940D01*
X37362103Y-38981921D01*
X37199107Y-38873010D01*
X37060490Y-38734393D01*
X36951579Y-38571397D01*
X36876560Y-38390285D01*
X36838315Y-38198017D01*
X36838315Y-38001983D01*
X36876560Y-37809715D01*
X36951579Y-37628603D01*
X37060490Y-37465607D01*
X37199107Y-37326990D01*
X37362103Y-37218079D01*
X37543215Y-37143060D01*
X37735483Y-37104815D01*
X37931517Y-37104815D01*
X38123785Y-37143060D01*
G37*
G36*
X103529350Y-36990964D02*
G01*
X103579540Y-36996787D01*
X103596689Y-37004359D01*
X103620171Y-37009030D01*
X103645310Y-37025827D01*
X103665196Y-37034608D01*
X103678777Y-37048189D01*
X103701277Y-37063223D01*
X103716310Y-37085722D01*
X103729891Y-37099303D01*
X103738670Y-37119186D01*
X103755470Y-37144329D01*
X103760141Y-37167812D01*
X103767712Y-37184959D01*
X103773533Y-37235139D01*
X103774500Y-37240000D01*
X103774500Y-38440000D01*
X103773532Y-38444863D01*
X103767712Y-38495040D01*
X103760141Y-38512185D01*
X103755470Y-38535671D01*
X103738669Y-38560815D01*
X103729891Y-38580696D01*
X103716312Y-38594274D01*
X103701277Y-38616777D01*
X103678774Y-38631812D01*
X103665196Y-38645391D01*
X103645315Y-38654169D01*
X103620171Y-38670970D01*
X103596685Y-38675641D01*
X103579540Y-38683212D01*
X103529361Y-38689032D01*
X103524500Y-38690000D01*
X102074500Y-38690000D01*
X102069638Y-38689032D01*
X102019459Y-38683212D01*
X102002312Y-38675641D01*
X101978829Y-38670970D01*
X101953686Y-38654170D01*
X101933803Y-38645391D01*
X101920222Y-38631810D01*
X101897723Y-38616777D01*
X101882689Y-38594277D01*
X101869108Y-38580696D01*
X101860327Y-38560810D01*
X101843530Y-38535671D01*
X101838859Y-38512189D01*
X101831287Y-38495040D01*
X101825464Y-38444849D01*
X101824500Y-38440000D01*
X101824500Y-37240000D01*
X101825464Y-37235150D01*
X101831287Y-37184959D01*
X101838859Y-37167808D01*
X101843530Y-37144329D01*
X101860326Y-37119191D01*
X101869108Y-37099303D01*
X101882691Y-37085719D01*
X101897723Y-37063223D01*
X101920219Y-37048191D01*
X101933803Y-37034608D01*
X101953691Y-37025826D01*
X101978829Y-37009030D01*
X102002308Y-37004359D01*
X102019459Y-36996787D01*
X102069651Y-36990964D01*
X102074500Y-36990000D01*
X103524500Y-36990000D01*
X103529350Y-36990964D01*
G37*
G36*
X74387728Y-36699448D02*
G01*
X74532617Y-36759463D01*
X74663015Y-36846592D01*
X74773908Y-36957485D01*
X74861037Y-37087883D01*
X74921052Y-37232772D01*
X74951648Y-37386586D01*
X74951648Y-37543414D01*
X74921052Y-37697228D01*
X74861037Y-37842117D01*
X74773908Y-37972515D01*
X74663015Y-38083408D01*
X74532617Y-38170537D01*
X74387728Y-38230552D01*
X74233914Y-38261148D01*
X74077086Y-38261148D01*
X73923272Y-38230552D01*
X73778383Y-38170537D01*
X73647985Y-38083408D01*
X73537092Y-37972515D01*
X73449963Y-37842117D01*
X73389948Y-37697228D01*
X73359352Y-37543414D01*
X73359352Y-37386586D01*
X73389948Y-37232772D01*
X73449963Y-37087883D01*
X73537092Y-36957485D01*
X73647985Y-36846592D01*
X73778383Y-36759463D01*
X73923272Y-36699448D01*
X74077086Y-36668852D01*
X74233914Y-36668852D01*
X74387728Y-36699448D01*
G37*
G36*
X82007728Y-36699448D02*
G01*
X82152617Y-36759463D01*
X82283015Y-36846592D01*
X82393908Y-36957485D01*
X82481037Y-37087883D01*
X82541052Y-37232772D01*
X82571648Y-37386586D01*
X82571648Y-37543414D01*
X82541052Y-37697228D01*
X82481037Y-37842117D01*
X82393908Y-37972515D01*
X82283015Y-38083408D01*
X82152617Y-38170537D01*
X82007728Y-38230552D01*
X81853914Y-38261148D01*
X81697086Y-38261148D01*
X81543272Y-38230552D01*
X81398383Y-38170537D01*
X81267985Y-38083408D01*
X81157092Y-37972515D01*
X81069963Y-37842117D01*
X81009948Y-37697228D01*
X80979352Y-37543414D01*
X80979352Y-37386586D01*
X81009948Y-37232772D01*
X81069963Y-37087883D01*
X81157092Y-36957485D01*
X81267985Y-36846592D01*
X81398383Y-36759463D01*
X81543272Y-36699448D01*
X81697086Y-36668852D01*
X81853914Y-36668852D01*
X82007728Y-36699448D01*
G37*
G36*
X47532350Y-35776964D02*
G01*
X47582540Y-35782787D01*
X47599689Y-35790359D01*
X47623171Y-35795030D01*
X47648310Y-35811827D01*
X47668196Y-35820608D01*
X47681777Y-35834189D01*
X47704277Y-35849223D01*
X47719310Y-35871722D01*
X47732891Y-35885303D01*
X47741670Y-35905186D01*
X47758470Y-35930329D01*
X47763141Y-35953812D01*
X47770712Y-35970959D01*
X47776533Y-36021139D01*
X47777500Y-36026000D01*
X47777500Y-37126000D01*
X47776532Y-37130863D01*
X47770712Y-37181040D01*
X47763141Y-37198185D01*
X47758470Y-37221671D01*
X47741669Y-37246815D01*
X47732891Y-37266696D01*
X47719312Y-37280274D01*
X47704277Y-37302777D01*
X47681774Y-37317812D01*
X47668196Y-37331391D01*
X47648315Y-37340169D01*
X47623171Y-37356970D01*
X47599685Y-37361641D01*
X47582540Y-37369212D01*
X47532361Y-37375032D01*
X47527500Y-37376000D01*
X46427500Y-37376000D01*
X46422638Y-37375032D01*
X46372459Y-37369212D01*
X46355312Y-37361641D01*
X46331829Y-37356970D01*
X46306686Y-37340170D01*
X46286803Y-37331391D01*
X46273222Y-37317810D01*
X46250723Y-37302777D01*
X46235689Y-37280277D01*
X46222108Y-37266696D01*
X46213327Y-37246810D01*
X46196530Y-37221671D01*
X46191859Y-37198189D01*
X46184287Y-37181040D01*
X46178464Y-37130849D01*
X46177500Y-37126000D01*
X46177500Y-36026000D01*
X46178464Y-36021150D01*
X46184287Y-35970959D01*
X46191859Y-35953808D01*
X46196530Y-35930329D01*
X46213326Y-35905191D01*
X46222108Y-35885303D01*
X46235691Y-35871719D01*
X46250723Y-35849223D01*
X46273219Y-35834191D01*
X46286803Y-35820608D01*
X46306691Y-35811826D01*
X46331829Y-35795030D01*
X46355308Y-35790359D01*
X46372459Y-35782787D01*
X46422651Y-35776964D01*
X46427500Y-35776000D01*
X47527500Y-35776000D01*
X47532350Y-35776964D01*
G37*
G36*
X45209728Y-35810448D02*
G01*
X45354617Y-35870463D01*
X45485015Y-35957592D01*
X45595908Y-36068485D01*
X45683037Y-36198883D01*
X45743052Y-36343772D01*
X45773648Y-36497586D01*
X45773648Y-36654414D01*
X45743052Y-36808228D01*
X45683037Y-36953117D01*
X45595908Y-37083515D01*
X45485015Y-37194408D01*
X45354617Y-37281537D01*
X45209728Y-37341552D01*
X45055914Y-37372148D01*
X44899086Y-37372148D01*
X44745272Y-37341552D01*
X44600383Y-37281537D01*
X44469985Y-37194408D01*
X44359092Y-37083515D01*
X44271963Y-36953117D01*
X44211948Y-36808228D01*
X44181352Y-36654414D01*
X44181352Y-36497586D01*
X44211948Y-36343772D01*
X44271963Y-36198883D01*
X44359092Y-36068485D01*
X44469985Y-35957592D01*
X44600383Y-35870463D01*
X44745272Y-35810448D01*
X44899086Y-35779852D01*
X45055914Y-35779852D01*
X45209728Y-35810448D01*
G37*
G36*
X101380928Y-35641912D02*
G01*
X101494123Y-35688799D01*
X101595996Y-35756868D01*
X101682632Y-35843504D01*
X101750701Y-35945377D01*
X101797588Y-36058572D01*
X101821490Y-36178739D01*
X101821490Y-36301261D01*
X101797588Y-36421428D01*
X101750701Y-36534623D01*
X101682632Y-36636496D01*
X101595996Y-36723132D01*
X101494123Y-36791201D01*
X101380928Y-36838088D01*
X101260761Y-36861990D01*
X101138239Y-36861990D01*
X101018072Y-36838088D01*
X100904877Y-36791201D01*
X100803004Y-36723132D01*
X100716368Y-36636496D01*
X100648299Y-36534623D01*
X100601412Y-36421428D01*
X100577510Y-36301261D01*
X100577510Y-36178739D01*
X100601412Y-36058572D01*
X100648299Y-35945377D01*
X100716368Y-35843504D01*
X100803004Y-35756868D01*
X100904877Y-35688799D01*
X101018072Y-35641912D01*
X101138239Y-35618010D01*
X101260761Y-35618010D01*
X101380928Y-35641912D01*
G37*
G36*
X38123785Y-34603060D02*
G01*
X38304897Y-34678079D01*
X38467893Y-34786990D01*
X38606510Y-34925607D01*
X38715421Y-35088603D01*
X38790440Y-35269715D01*
X38828685Y-35461983D01*
X38828685Y-35658017D01*
X38790440Y-35850285D01*
X38715421Y-36031397D01*
X38606510Y-36194393D01*
X38467893Y-36333010D01*
X38304897Y-36441921D01*
X38123785Y-36516940D01*
X37931517Y-36555185D01*
X37735483Y-36555185D01*
X37543215Y-36516940D01*
X37362103Y-36441921D01*
X37199107Y-36333010D01*
X37060490Y-36194393D01*
X36951579Y-36031397D01*
X36876560Y-35850285D01*
X36838315Y-35658017D01*
X36838315Y-35461983D01*
X36876560Y-35269715D01*
X36951579Y-35088603D01*
X37060490Y-34925607D01*
X37199107Y-34786990D01*
X37362103Y-34678079D01*
X37543215Y-34603060D01*
X37735483Y-34564815D01*
X37931517Y-34564815D01*
X38123785Y-34603060D01*
G37*
G36*
X92781728Y-33824448D02*
G01*
X92926617Y-33884463D01*
X93057015Y-33971592D01*
X93167908Y-34082485D01*
X93255037Y-34212883D01*
X93315052Y-34357772D01*
X93345648Y-34511586D01*
X93345648Y-34668414D01*
X93315052Y-34822228D01*
X93255037Y-34967117D01*
X93167908Y-35097515D01*
X93057015Y-35208408D01*
X92926617Y-35295537D01*
X92781728Y-35355552D01*
X92627914Y-35386148D01*
X92471086Y-35386148D01*
X92317272Y-35355552D01*
X92172383Y-35295537D01*
X92041985Y-35208408D01*
X91931092Y-35097515D01*
X91843963Y-34967117D01*
X91783948Y-34822228D01*
X91753352Y-34668414D01*
X91753352Y-34511586D01*
X91783948Y-34357772D01*
X91843963Y-34212883D01*
X91931092Y-34082485D01*
X92041985Y-33971592D01*
X92172383Y-33884463D01*
X92317272Y-33824448D01*
X92471086Y-33793852D01*
X92627914Y-33793852D01*
X92781728Y-33824448D01*
G37*
G36*
X97781728Y-33824448D02*
G01*
X97926617Y-33884463D01*
X98057015Y-33971592D01*
X98167908Y-34082485D01*
X98255037Y-34212883D01*
X98315052Y-34357772D01*
X98345648Y-34511586D01*
X98345648Y-34668414D01*
X98315052Y-34822228D01*
X98255037Y-34967117D01*
X98167908Y-35097515D01*
X98057015Y-35208408D01*
X97926617Y-35295537D01*
X97781728Y-35355552D01*
X97627914Y-35386148D01*
X97471086Y-35386148D01*
X97317272Y-35355552D01*
X97172383Y-35295537D01*
X97041985Y-35208408D01*
X96931092Y-35097515D01*
X96843963Y-34967117D01*
X96783948Y-34822228D01*
X96753352Y-34668414D01*
X96753352Y-34511586D01*
X96783948Y-34357772D01*
X96843963Y-34212883D01*
X96931092Y-34082485D01*
X97041985Y-33971592D01*
X97172383Y-33884463D01*
X97317272Y-33824448D01*
X97471086Y-33793852D01*
X97627914Y-33793852D01*
X97781728Y-33824448D01*
G37*
G36*
X74387728Y-33524448D02*
G01*
X74532617Y-33584463D01*
X74663015Y-33671592D01*
X74773908Y-33782485D01*
X74861037Y-33912883D01*
X74921052Y-34057772D01*
X74951648Y-34211586D01*
X74951648Y-34368414D01*
X74921052Y-34522228D01*
X74861037Y-34667117D01*
X74773908Y-34797515D01*
X74663015Y-34908408D01*
X74532617Y-34995537D01*
X74387728Y-35055552D01*
X74233914Y-35086148D01*
X74077086Y-35086148D01*
X73923272Y-35055552D01*
X73778383Y-34995537D01*
X73647985Y-34908408D01*
X73537092Y-34797515D01*
X73449963Y-34667117D01*
X73389948Y-34522228D01*
X73359352Y-34368414D01*
X73359352Y-34211586D01*
X73389948Y-34057772D01*
X73449963Y-33912883D01*
X73537092Y-33782485D01*
X73647985Y-33671592D01*
X73778383Y-33584463D01*
X73923272Y-33524448D01*
X74077086Y-33493852D01*
X74233914Y-33493852D01*
X74387728Y-33524448D01*
G37*
G36*
X82007728Y-33524448D02*
G01*
X82152617Y-33584463D01*
X82283015Y-33671592D01*
X82393908Y-33782485D01*
X82481037Y-33912883D01*
X82541052Y-34057772D01*
X82571648Y-34211586D01*
X82571648Y-34368414D01*
X82541052Y-34522228D01*
X82481037Y-34667117D01*
X82393908Y-34797515D01*
X82283015Y-34908408D01*
X82152617Y-34995537D01*
X82007728Y-35055552D01*
X81853914Y-35086148D01*
X81697086Y-35086148D01*
X81543272Y-35055552D01*
X81398383Y-34995537D01*
X81267985Y-34908408D01*
X81157092Y-34797515D01*
X81069963Y-34667117D01*
X81009948Y-34522228D01*
X80979352Y-34368414D01*
X80979352Y-34211586D01*
X81009948Y-34057772D01*
X81069963Y-33912883D01*
X81157092Y-33782485D01*
X81267985Y-33671592D01*
X81398383Y-33584463D01*
X81543272Y-33524448D01*
X81697086Y-33493852D01*
X81853914Y-33493852D01*
X82007728Y-33524448D01*
G37*
G36*
X38123785Y-32063060D02*
G01*
X38304897Y-32138079D01*
X38467893Y-32246990D01*
X38606510Y-32385607D01*
X38715421Y-32548603D01*
X38790440Y-32729715D01*
X38828685Y-32921983D01*
X38828685Y-33118017D01*
X38790440Y-33310285D01*
X38715421Y-33491397D01*
X38606510Y-33654393D01*
X38467893Y-33793010D01*
X38304897Y-33901921D01*
X38123785Y-33976940D01*
X37931517Y-34015185D01*
X37735483Y-34015185D01*
X37543215Y-33976940D01*
X37362103Y-33901921D01*
X37199107Y-33793010D01*
X37060490Y-33654393D01*
X36951579Y-33491397D01*
X36876560Y-33310285D01*
X36838315Y-33118017D01*
X36838315Y-32921983D01*
X36876560Y-32729715D01*
X36951579Y-32548603D01*
X37060490Y-32385607D01*
X37199107Y-32246990D01*
X37362103Y-32138079D01*
X37543215Y-32063060D01*
X37735483Y-32024815D01*
X37931517Y-32024815D01*
X38123785Y-32063060D01*
G37*
G36*
X87849728Y-31238448D02*
G01*
X87994617Y-31298463D01*
X88125015Y-31385592D01*
X88235908Y-31496485D01*
X88323037Y-31626883D01*
X88383052Y-31771772D01*
X88413648Y-31925586D01*
X88413648Y-32082414D01*
X88383052Y-32236228D01*
X88323037Y-32381117D01*
X88235908Y-32511515D01*
X88125015Y-32622408D01*
X87994617Y-32709537D01*
X87849728Y-32769552D01*
X87695914Y-32800148D01*
X87539086Y-32800148D01*
X87385272Y-32769552D01*
X87240383Y-32709537D01*
X87109985Y-32622408D01*
X86999092Y-32511515D01*
X86911963Y-32381117D01*
X86851948Y-32236228D01*
X86821352Y-32082414D01*
X86821352Y-31925586D01*
X86851948Y-31771772D01*
X86911963Y-31626883D01*
X86999092Y-31496485D01*
X87109985Y-31385592D01*
X87240383Y-31298463D01*
X87385272Y-31238448D01*
X87539086Y-31207852D01*
X87695914Y-31207852D01*
X87849728Y-31238448D01*
G37*
G36*
X74387728Y-30349448D02*
G01*
X74532617Y-30409463D01*
X74663015Y-30496592D01*
X74773908Y-30607485D01*
X74861037Y-30737883D01*
X74921052Y-30882772D01*
X74951648Y-31036586D01*
X74951648Y-31193414D01*
X74921052Y-31347228D01*
X74861037Y-31492117D01*
X74773908Y-31622515D01*
X74663015Y-31733408D01*
X74532617Y-31820537D01*
X74387728Y-31880552D01*
X74233914Y-31911148D01*
X74077086Y-31911148D01*
X73923272Y-31880552D01*
X73778383Y-31820537D01*
X73647985Y-31733408D01*
X73537092Y-31622515D01*
X73449963Y-31492117D01*
X73389948Y-31347228D01*
X73359352Y-31193414D01*
X73359352Y-31036586D01*
X73389948Y-30882772D01*
X73449963Y-30737883D01*
X73537092Y-30607485D01*
X73647985Y-30496592D01*
X73778383Y-30409463D01*
X73923272Y-30349448D01*
X74077086Y-30318852D01*
X74233914Y-30318852D01*
X74387728Y-30349448D01*
G37*
G36*
X82007728Y-30349448D02*
G01*
X82152617Y-30409463D01*
X82283015Y-30496592D01*
X82393908Y-30607485D01*
X82481037Y-30737883D01*
X82541052Y-30882772D01*
X82571648Y-31036586D01*
X82571648Y-31193414D01*
X82541052Y-31347228D01*
X82481037Y-31492117D01*
X82393908Y-31622515D01*
X82283015Y-31733408D01*
X82152617Y-31820537D01*
X82007728Y-31880552D01*
X81853914Y-31911148D01*
X81697086Y-31911148D01*
X81543272Y-31880552D01*
X81398383Y-31820537D01*
X81267985Y-31733408D01*
X81157092Y-31622515D01*
X81069963Y-31492117D01*
X81009948Y-31347228D01*
X80979352Y-31193414D01*
X80979352Y-31036586D01*
X81009948Y-30882772D01*
X81069963Y-30737883D01*
X81157092Y-30607485D01*
X81267985Y-30496592D01*
X81398383Y-30409463D01*
X81543272Y-30349448D01*
X81697086Y-30318852D01*
X81853914Y-30318852D01*
X82007728Y-30349448D01*
G37*
G36*
X38123785Y-29523060D02*
G01*
X38304897Y-29598079D01*
X38467893Y-29706990D01*
X38606510Y-29845607D01*
X38715421Y-30008603D01*
X38790440Y-30189715D01*
X38828685Y-30381983D01*
X38828685Y-30578017D01*
X38790440Y-30770285D01*
X38715421Y-30951397D01*
X38606510Y-31114393D01*
X38467893Y-31253010D01*
X38304897Y-31361921D01*
X38123785Y-31436940D01*
X37931517Y-31475185D01*
X37735483Y-31475185D01*
X37543215Y-31436940D01*
X37362103Y-31361921D01*
X37199107Y-31253010D01*
X37060490Y-31114393D01*
X36951579Y-30951397D01*
X36876560Y-30770285D01*
X36838315Y-30578017D01*
X36838315Y-30381983D01*
X36876560Y-30189715D01*
X36951579Y-30008603D01*
X37060490Y-29845607D01*
X37199107Y-29706990D01*
X37362103Y-29598079D01*
X37543215Y-29523060D01*
X37735483Y-29484815D01*
X37931517Y-29484815D01*
X38123785Y-29523060D01*
G37*
G36*
X103993242Y-29071601D02*
G01*
X104147187Y-29135367D01*
X104285734Y-29227941D01*
X104403559Y-29345766D01*
X104496133Y-29484313D01*
X104559899Y-29638258D01*
X104592407Y-29801685D01*
X104592407Y-29968315D01*
X104559899Y-30131742D01*
X104496133Y-30285687D01*
X104403559Y-30424234D01*
X104285734Y-30542059D01*
X104147187Y-30634633D01*
X103993242Y-30698399D01*
X103829815Y-30730907D01*
X103663185Y-30730907D01*
X103499758Y-30698399D01*
X103345813Y-30634633D01*
X103207266Y-30542059D01*
X103089441Y-30424234D01*
X102996867Y-30285687D01*
X102933101Y-30131742D01*
X102900593Y-29968315D01*
X102900593Y-29801685D01*
X102933101Y-29638258D01*
X102996867Y-29484313D01*
X103089441Y-29345766D01*
X103207266Y-29227941D01*
X103345813Y-29135367D01*
X103499758Y-29071601D01*
X103663185Y-29039093D01*
X103829815Y-29039093D01*
X103993242Y-29071601D01*
G37*
G36*
X88172350Y-27704964D02*
G01*
X88222540Y-27710787D01*
X88239689Y-27718359D01*
X88263171Y-27723030D01*
X88288310Y-27739827D01*
X88308196Y-27748608D01*
X88321777Y-27762189D01*
X88344277Y-27777223D01*
X88359310Y-27799722D01*
X88372891Y-27813303D01*
X88381670Y-27833186D01*
X88398470Y-27858329D01*
X88403141Y-27881812D01*
X88410712Y-27898959D01*
X88416533Y-27949139D01*
X88417500Y-27954000D01*
X88417500Y-29054000D01*
X88416532Y-29058863D01*
X88410712Y-29109040D01*
X88403141Y-29126185D01*
X88398470Y-29149671D01*
X88381669Y-29174815D01*
X88372891Y-29194696D01*
X88359312Y-29208274D01*
X88344277Y-29230777D01*
X88321774Y-29245812D01*
X88308196Y-29259391D01*
X88288315Y-29268169D01*
X88263171Y-29284970D01*
X88239685Y-29289641D01*
X88222540Y-29297212D01*
X88172361Y-29303032D01*
X88167500Y-29304000D01*
X87067500Y-29304000D01*
X87062638Y-29303032D01*
X87012459Y-29297212D01*
X86995312Y-29289641D01*
X86971829Y-29284970D01*
X86946686Y-29268170D01*
X86926803Y-29259391D01*
X86913222Y-29245810D01*
X86890723Y-29230777D01*
X86875689Y-29208277D01*
X86862108Y-29194696D01*
X86853327Y-29174810D01*
X86836530Y-29149671D01*
X86831859Y-29126189D01*
X86824287Y-29109040D01*
X86818464Y-29058849D01*
X86817500Y-29054000D01*
X86817500Y-27954000D01*
X86818464Y-27949150D01*
X86824287Y-27898959D01*
X86831859Y-27881808D01*
X86836530Y-27858329D01*
X86853326Y-27833191D01*
X86862108Y-27813303D01*
X86875691Y-27799719D01*
X86890723Y-27777223D01*
X86913219Y-27762191D01*
X86926803Y-27748608D01*
X86946691Y-27739826D01*
X86971829Y-27723030D01*
X86995308Y-27718359D01*
X87012459Y-27710787D01*
X87062651Y-27704964D01*
X87067500Y-27704000D01*
X88167500Y-27704000D01*
X88172350Y-27704964D01*
G37*
G36*
X94533728Y-27574448D02*
G01*
X94678617Y-27634463D01*
X94809015Y-27721592D01*
X94919908Y-27832485D01*
X95007037Y-27962883D01*
X95067052Y-28107772D01*
X95097648Y-28261586D01*
X95097648Y-28418414D01*
X95067052Y-28572228D01*
X95007037Y-28717117D01*
X94919908Y-28847515D01*
X94809015Y-28958408D01*
X94678617Y-29045537D01*
X94533728Y-29105552D01*
X94379914Y-29136148D01*
X94223086Y-29136148D01*
X94069272Y-29105552D01*
X93924383Y-29045537D01*
X93793985Y-28958408D01*
X93683092Y-28847515D01*
X93595963Y-28717117D01*
X93535948Y-28572228D01*
X93505352Y-28418414D01*
X93505352Y-28261586D01*
X93535948Y-28107772D01*
X93595963Y-27962883D01*
X93683092Y-27832485D01*
X93793985Y-27721592D01*
X93924383Y-27634463D01*
X94069272Y-27574448D01*
X94223086Y-27543852D01*
X94379914Y-27543852D01*
X94533728Y-27574448D01*
G37*
G36*
X99533728Y-27574448D02*
G01*
X99678617Y-27634463D01*
X99809015Y-27721592D01*
X99919908Y-27832485D01*
X100007037Y-27962883D01*
X100067052Y-28107772D01*
X100097648Y-28261586D01*
X100097648Y-28418414D01*
X100067052Y-28572228D01*
X100007037Y-28717117D01*
X99919908Y-28847515D01*
X99809015Y-28958408D01*
X99678617Y-29045537D01*
X99533728Y-29105552D01*
X99379914Y-29136148D01*
X99223086Y-29136148D01*
X99069272Y-29105552D01*
X98924383Y-29045537D01*
X98793985Y-28958408D01*
X98683092Y-28847515D01*
X98595963Y-28717117D01*
X98535948Y-28572228D01*
X98505352Y-28418414D01*
X98505352Y-28261586D01*
X98535948Y-28107772D01*
X98595963Y-27962883D01*
X98683092Y-27832485D01*
X98793985Y-27721592D01*
X98924383Y-27634463D01*
X99069272Y-27574448D01*
X99223086Y-27543852D01*
X99379914Y-27543852D01*
X99533728Y-27574448D01*
G37*
G36*
X38123785Y-26983060D02*
G01*
X38304897Y-27058079D01*
X38467893Y-27166990D01*
X38606510Y-27305607D01*
X38715421Y-27468603D01*
X38790440Y-27649715D01*
X38828685Y-27841983D01*
X38828685Y-28038017D01*
X38790440Y-28230285D01*
X38715421Y-28411397D01*
X38606510Y-28574393D01*
X38467893Y-28713010D01*
X38304897Y-28821921D01*
X38123785Y-28896940D01*
X37931517Y-28935185D01*
X37735483Y-28935185D01*
X37543215Y-28896940D01*
X37362103Y-28821921D01*
X37199107Y-28713010D01*
X37060490Y-28574393D01*
X36951579Y-28411397D01*
X36876560Y-28230285D01*
X36838315Y-28038017D01*
X36838315Y-27841983D01*
X36876560Y-27649715D01*
X36951579Y-27468603D01*
X37060490Y-27305607D01*
X37199107Y-27166990D01*
X37362103Y-27058079D01*
X37543215Y-26983060D01*
X37735483Y-26944815D01*
X37931517Y-26944815D01*
X38123785Y-26983060D01*
G37*
G36*
X74387728Y-27301448D02*
G01*
X74532617Y-27361463D01*
X74663015Y-27448592D01*
X74773908Y-27559485D01*
X74861037Y-27689883D01*
X74921052Y-27834772D01*
X74951648Y-27988586D01*
X74951648Y-28145414D01*
X74921052Y-28299228D01*
X74861037Y-28444117D01*
X74773908Y-28574515D01*
X74663015Y-28685408D01*
X74532617Y-28772537D01*
X74387728Y-28832552D01*
X74233914Y-28863148D01*
X74077086Y-28863148D01*
X73923272Y-28832552D01*
X73778383Y-28772537D01*
X73647985Y-28685408D01*
X73537092Y-28574515D01*
X73449963Y-28444117D01*
X73389948Y-28299228D01*
X73359352Y-28145414D01*
X73359352Y-27988586D01*
X73389948Y-27834772D01*
X73449963Y-27689883D01*
X73537092Y-27559485D01*
X73647985Y-27448592D01*
X73778383Y-27361463D01*
X73923272Y-27301448D01*
X74077086Y-27270852D01*
X74233914Y-27270852D01*
X74387728Y-27301448D01*
G37*
G36*
X82007728Y-27301448D02*
G01*
X82152617Y-27361463D01*
X82283015Y-27448592D01*
X82393908Y-27559485D01*
X82481037Y-27689883D01*
X82541052Y-27834772D01*
X82571648Y-27988586D01*
X82571648Y-28145414D01*
X82541052Y-28299228D01*
X82481037Y-28444117D01*
X82393908Y-28574515D01*
X82283015Y-28685408D01*
X82152617Y-28772537D01*
X82007728Y-28832552D01*
X81853914Y-28863148D01*
X81697086Y-28863148D01*
X81543272Y-28832552D01*
X81398383Y-28772537D01*
X81267985Y-28685408D01*
X81157092Y-28574515D01*
X81069963Y-28444117D01*
X81009948Y-28299228D01*
X80979352Y-28145414D01*
X80979352Y-27988586D01*
X81009948Y-27834772D01*
X81069963Y-27689883D01*
X81157092Y-27559485D01*
X81267985Y-27448592D01*
X81398383Y-27361463D01*
X81543272Y-27301448D01*
X81697086Y-27270852D01*
X81853914Y-27270852D01*
X82007728Y-27301448D01*
G37*
G36*
X103993242Y-26531601D02*
G01*
X104147187Y-26595367D01*
X104285734Y-26687941D01*
X104403559Y-26805766D01*
X104496133Y-26944313D01*
X104559899Y-27098258D01*
X104592407Y-27261685D01*
X104592407Y-27428315D01*
X104559899Y-27591742D01*
X104496133Y-27745687D01*
X104403559Y-27884234D01*
X104285734Y-28002059D01*
X104147187Y-28094633D01*
X103993242Y-28158399D01*
X103829815Y-28190907D01*
X103663185Y-28190907D01*
X103499758Y-28158399D01*
X103345813Y-28094633D01*
X103207266Y-28002059D01*
X103089441Y-27884234D01*
X102996867Y-27745687D01*
X102933101Y-27591742D01*
X102900593Y-27428315D01*
X102900593Y-27261685D01*
X102933101Y-27098258D01*
X102996867Y-26944313D01*
X103089441Y-26805766D01*
X103207266Y-26687941D01*
X103345813Y-26595367D01*
X103499758Y-26531601D01*
X103663185Y-26499093D01*
X103829815Y-26499093D01*
X103993242Y-26531601D01*
G37*
G36*
X44574350Y-25035964D02*
G01*
X44624540Y-25041787D01*
X44641689Y-25049359D01*
X44665171Y-25054030D01*
X44690310Y-25070827D01*
X44710196Y-25079608D01*
X44723777Y-25093189D01*
X44746277Y-25108223D01*
X44761310Y-25130722D01*
X44774891Y-25144303D01*
X44783670Y-25164186D01*
X44800470Y-25189329D01*
X44805141Y-25212812D01*
X44812712Y-25229959D01*
X44818533Y-25280139D01*
X44819500Y-25285000D01*
X44819500Y-26785000D01*
X44818532Y-26789863D01*
X44812712Y-26840040D01*
X44805141Y-26857185D01*
X44800470Y-26880671D01*
X44783669Y-26905815D01*
X44774891Y-26925696D01*
X44761312Y-26939274D01*
X44746277Y-26961777D01*
X44723774Y-26976812D01*
X44710196Y-26990391D01*
X44690315Y-26999169D01*
X44665171Y-27015970D01*
X44641685Y-27020641D01*
X44624540Y-27028212D01*
X44574361Y-27034032D01*
X44569500Y-27035000D01*
X43369500Y-27035000D01*
X43364638Y-27034032D01*
X43314459Y-27028212D01*
X43297312Y-27020641D01*
X43273829Y-27015970D01*
X43248686Y-26999170D01*
X43228803Y-26990391D01*
X43215222Y-26976810D01*
X43192723Y-26961777D01*
X43177689Y-26939277D01*
X43164108Y-26925696D01*
X43155327Y-26905810D01*
X43138530Y-26880671D01*
X43133859Y-26857189D01*
X43126287Y-26840040D01*
X43120464Y-26789849D01*
X43119500Y-26785000D01*
X43119500Y-25285000D01*
X43120464Y-25280150D01*
X43126287Y-25229959D01*
X43133859Y-25212808D01*
X43138530Y-25189329D01*
X43155326Y-25164191D01*
X43164108Y-25144303D01*
X43177691Y-25130719D01*
X43192723Y-25108223D01*
X43215219Y-25093191D01*
X43228803Y-25079608D01*
X43248691Y-25070826D01*
X43273829Y-25054030D01*
X43297308Y-25049359D01*
X43314459Y-25041787D01*
X43364651Y-25035964D01*
X43369500Y-25035000D01*
X44569500Y-25035000D01*
X44574350Y-25035964D01*
G37*
G36*
X46716242Y-25071601D02*
G01*
X46870187Y-25135367D01*
X47008734Y-25227941D01*
X47126559Y-25345766D01*
X47219133Y-25484313D01*
X47282899Y-25638258D01*
X47315407Y-25801685D01*
X47319500Y-25885000D01*
X47319500Y-26185000D01*
X47315407Y-26268315D01*
X47282899Y-26431742D01*
X47219133Y-26585687D01*
X47126559Y-26724234D01*
X47008734Y-26842059D01*
X46870187Y-26934633D01*
X46716242Y-26998399D01*
X46552815Y-27030907D01*
X46386185Y-27030907D01*
X46222758Y-26998399D01*
X46068813Y-26934633D01*
X45930266Y-26842059D01*
X45812441Y-26724234D01*
X45719867Y-26585687D01*
X45656101Y-26431742D01*
X45623593Y-26268315D01*
X45619500Y-26185000D01*
X45619500Y-25885000D01*
X45623593Y-25801685D01*
X45656101Y-25638258D01*
X45719867Y-25484313D01*
X45812441Y-25345766D01*
X45930266Y-25227941D01*
X46068813Y-25135367D01*
X46222758Y-25071601D01*
X46386185Y-25039093D01*
X46552815Y-25039093D01*
X46716242Y-25071601D01*
G37*
G36*
X38123785Y-24443060D02*
G01*
X38304897Y-24518079D01*
X38467893Y-24626990D01*
X38606510Y-24765607D01*
X38715421Y-24928603D01*
X38790440Y-25109715D01*
X38828685Y-25301983D01*
X38828685Y-25498017D01*
X38790440Y-25690285D01*
X38715421Y-25871397D01*
X38606510Y-26034393D01*
X38467893Y-26173010D01*
X38304897Y-26281921D01*
X38123785Y-26356940D01*
X37931517Y-26395185D01*
X37735483Y-26395185D01*
X37543215Y-26356940D01*
X37362103Y-26281921D01*
X37199107Y-26173010D01*
X37060490Y-26034393D01*
X36951579Y-25871397D01*
X36876560Y-25690285D01*
X36838315Y-25498017D01*
X36838315Y-25301983D01*
X36876560Y-25109715D01*
X36951579Y-24928603D01*
X37060490Y-24765607D01*
X37199107Y-24626990D01*
X37362103Y-24518079D01*
X37543215Y-24443060D01*
X37735483Y-24404815D01*
X37931517Y-24404815D01*
X38123785Y-24443060D01*
G37*
G36*
X91913728Y-24126448D02*
G01*
X92058617Y-24186463D01*
X92189015Y-24273592D01*
X92299908Y-24384485D01*
X92387037Y-24514883D01*
X92447052Y-24659772D01*
X92477648Y-24813586D01*
X92477648Y-24970414D01*
X92447052Y-25124228D01*
X92387037Y-25269117D01*
X92299908Y-25399515D01*
X92189015Y-25510408D01*
X92058617Y-25597537D01*
X91913728Y-25657552D01*
X91759914Y-25688148D01*
X91603086Y-25688148D01*
X91449272Y-25657552D01*
X91304383Y-25597537D01*
X91173985Y-25510408D01*
X91063092Y-25399515D01*
X90975963Y-25269117D01*
X90915948Y-25124228D01*
X90885352Y-24970414D01*
X90885352Y-24813586D01*
X90915948Y-24659772D01*
X90975963Y-24514883D01*
X91063092Y-24384485D01*
X91173985Y-24273592D01*
X91304383Y-24186463D01*
X91449272Y-24126448D01*
X91603086Y-24095852D01*
X91759914Y-24095852D01*
X91913728Y-24126448D01*
G37*
G36*
X99533728Y-24126448D02*
G01*
X99678617Y-24186463D01*
X99809015Y-24273592D01*
X99919908Y-24384485D01*
X100007037Y-24514883D01*
X100067052Y-24659772D01*
X100097648Y-24813586D01*
X100097648Y-24970414D01*
X100067052Y-25124228D01*
X100007037Y-25269117D01*
X99919908Y-25399515D01*
X99809015Y-25510408D01*
X99678617Y-25597537D01*
X99533728Y-25657552D01*
X99379914Y-25688148D01*
X99223086Y-25688148D01*
X99069272Y-25657552D01*
X98924383Y-25597537D01*
X98793985Y-25510408D01*
X98683092Y-25399515D01*
X98595963Y-25269117D01*
X98535948Y-25124228D01*
X98505352Y-24970414D01*
X98505352Y-24813586D01*
X98535948Y-24659772D01*
X98595963Y-24514883D01*
X98683092Y-24384485D01*
X98793985Y-24273592D01*
X98924383Y-24186463D01*
X99069272Y-24126448D01*
X99223086Y-24095852D01*
X99379914Y-24095852D01*
X99533728Y-24126448D01*
G37*
G36*
X104596500Y-25655000D02*
G01*
X102896500Y-25655000D01*
X102896500Y-23955000D01*
X104596500Y-23955000D01*
X104596500Y-25655000D01*
G37*
M02*
