%TF.GenerationSoftware,KiCad,Pcbnew,9.0.6*%
%TF.CreationDate,2025-11-23T13:21:34-08:00*%
%TF.ProjectId,schematic,73636865-6d61-4746-9963-2e6b69636164,rev?*%
%TF.SameCoordinates,Original*%
%TF.FileFunction,Legend,Top*%
%TF.FilePolarity,Positive*%
%FSLAX46Y46*%
G04 Gerber Fmt 4.6, Leading zero omitted, Abs format (unit mm)*
G04 Created by KiCad (PCBNEW 9.0.6) date 2025-11-23 13:21:34*
%MOMM*%
%LPD*%
G01*
G04 APERTURE LIST*
%ADD10C,0.152400*%
%ADD11C,0.150000*%
%ADD12C,0.100000*%
%ADD13C,0.120000*%
G04 APERTURE END LIST*
D10*
X97155000Y-46863000D02*
X109855000Y-46863000D01*
X109855000Y-55736000D01*
X97155000Y-55736000D01*
X97155000Y-46863000D01*
D11*
X105520295Y-51384189D02*
X105520295Y-51231808D01*
X105520295Y-51231808D02*
X105558390Y-51155618D01*
X105558390Y-51155618D02*
X105634580Y-51079427D01*
X105634580Y-51079427D02*
X105786961Y-51041332D01*
X105786961Y-51041332D02*
X106053628Y-51041332D01*
X106053628Y-51041332D02*
X106206009Y-51079427D01*
X106206009Y-51079427D02*
X106282200Y-51155618D01*
X106282200Y-51155618D02*
X106320295Y-51231808D01*
X106320295Y-51231808D02*
X106320295Y-51384189D01*
X106320295Y-51384189D02*
X106282200Y-51460380D01*
X106282200Y-51460380D02*
X106206009Y-51536570D01*
X106206009Y-51536570D02*
X106053628Y-51574666D01*
X106053628Y-51574666D02*
X105786961Y-51574666D01*
X105786961Y-51574666D02*
X105634580Y-51536570D01*
X105634580Y-51536570D02*
X105558390Y-51460380D01*
X105558390Y-51460380D02*
X105520295Y-51384189D01*
X110179295Y-53456189D02*
X110179295Y-53303808D01*
X110179295Y-53303808D02*
X110217390Y-53227618D01*
X110217390Y-53227618D02*
X110293580Y-53151427D01*
X110293580Y-53151427D02*
X110445961Y-53113332D01*
X110445961Y-53113332D02*
X110712628Y-53113332D01*
X110712628Y-53113332D02*
X110865009Y-53151427D01*
X110865009Y-53151427D02*
X110941200Y-53227618D01*
X110941200Y-53227618D02*
X110979295Y-53303808D01*
X110979295Y-53303808D02*
X110979295Y-53456189D01*
X110979295Y-53456189D02*
X110941200Y-53532380D01*
X110941200Y-53532380D02*
X110865009Y-53608570D01*
X110865009Y-53608570D02*
X110712628Y-53646666D01*
X110712628Y-53646666D02*
X110445961Y-53646666D01*
X110445961Y-53646666D02*
X110293580Y-53608570D01*
X110293580Y-53608570D02*
X110217390Y-53532380D01*
X110217390Y-53532380D02*
X110179295Y-53456189D01*
X110179295Y-48566666D02*
X110979295Y-48299999D01*
X110979295Y-48299999D02*
X110179295Y-48033333D01*
X105520295Y-54114666D02*
X106320295Y-53847999D01*
X106320295Y-53847999D02*
X105520295Y-53581333D01*
X118564819Y-37726904D02*
X117564819Y-37726904D01*
X117564819Y-37726904D02*
X117564819Y-37488809D01*
X117564819Y-37488809D02*
X117612438Y-37345952D01*
X117612438Y-37345952D02*
X117707676Y-37250714D01*
X117707676Y-37250714D02*
X117802914Y-37203095D01*
X117802914Y-37203095D02*
X117993390Y-37155476D01*
X117993390Y-37155476D02*
X118136247Y-37155476D01*
X118136247Y-37155476D02*
X118326723Y-37203095D01*
X118326723Y-37203095D02*
X118421961Y-37250714D01*
X118421961Y-37250714D02*
X118517200Y-37345952D01*
X118517200Y-37345952D02*
X118564819Y-37488809D01*
X118564819Y-37488809D02*
X118564819Y-37726904D01*
X105558390Y-48558476D02*
X105520295Y-48634666D01*
X105520295Y-48634666D02*
X105520295Y-48748952D01*
X105520295Y-48748952D02*
X105558390Y-48863238D01*
X105558390Y-48863238D02*
X105634580Y-48939428D01*
X105634580Y-48939428D02*
X105710771Y-48977523D01*
X105710771Y-48977523D02*
X105863152Y-49015619D01*
X105863152Y-49015619D02*
X105977438Y-49015619D01*
X105977438Y-49015619D02*
X106129819Y-48977523D01*
X106129819Y-48977523D02*
X106206009Y-48939428D01*
X106206009Y-48939428D02*
X106282200Y-48863238D01*
X106282200Y-48863238D02*
X106320295Y-48748952D01*
X106320295Y-48748952D02*
X106320295Y-48672761D01*
X106320295Y-48672761D02*
X106282200Y-48558476D01*
X106282200Y-48558476D02*
X106244104Y-48520380D01*
X106244104Y-48520380D02*
X105977438Y-48520380D01*
X105977438Y-48520380D02*
X105977438Y-48672761D01*
X117612438Y-34663095D02*
X117564819Y-34758333D01*
X117564819Y-34758333D02*
X117564819Y-34901190D01*
X117564819Y-34901190D02*
X117612438Y-35044047D01*
X117612438Y-35044047D02*
X117707676Y-35139285D01*
X117707676Y-35139285D02*
X117802914Y-35186904D01*
X117802914Y-35186904D02*
X117993390Y-35234523D01*
X117993390Y-35234523D02*
X118136247Y-35234523D01*
X118136247Y-35234523D02*
X118326723Y-35186904D01*
X118326723Y-35186904D02*
X118421961Y-35139285D01*
X118421961Y-35139285D02*
X118517200Y-35044047D01*
X118517200Y-35044047D02*
X118564819Y-34901190D01*
X118564819Y-34901190D02*
X118564819Y-34805952D01*
X118564819Y-34805952D02*
X118517200Y-34663095D01*
X118517200Y-34663095D02*
X118469580Y-34615476D01*
X118469580Y-34615476D02*
X118136247Y-34615476D01*
X118136247Y-34615476D02*
X118136247Y-34805952D01*
X117564819Y-40338332D02*
X118564819Y-40004999D01*
X118564819Y-40004999D02*
X117564819Y-39671666D01*
X110217390Y-50630476D02*
X110179295Y-50706666D01*
X110179295Y-50706666D02*
X110179295Y-50820952D01*
X110179295Y-50820952D02*
X110217390Y-50935238D01*
X110217390Y-50935238D02*
X110293580Y-51011428D01*
X110293580Y-51011428D02*
X110369771Y-51049523D01*
X110369771Y-51049523D02*
X110522152Y-51087619D01*
X110522152Y-51087619D02*
X110636438Y-51087619D01*
X110636438Y-51087619D02*
X110788819Y-51049523D01*
X110788819Y-51049523D02*
X110865009Y-51011428D01*
X110865009Y-51011428D02*
X110941200Y-50935238D01*
X110941200Y-50935238D02*
X110979295Y-50820952D01*
X110979295Y-50820952D02*
X110979295Y-50744761D01*
X110979295Y-50744761D02*
X110941200Y-50630476D01*
X110941200Y-50630476D02*
X110903104Y-50592380D01*
X110903104Y-50592380D02*
X110636438Y-50592380D01*
X110636438Y-50592380D02*
X110636438Y-50744761D01*
X84884419Y-38368266D02*
X84408228Y-38701599D01*
X84884419Y-38939694D02*
X83884419Y-38939694D01*
X83884419Y-38939694D02*
X83884419Y-38558742D01*
X83884419Y-38558742D02*
X83932038Y-38463504D01*
X83932038Y-38463504D02*
X83979657Y-38415885D01*
X83979657Y-38415885D02*
X84074895Y-38368266D01*
X84074895Y-38368266D02*
X84217752Y-38368266D01*
X84217752Y-38368266D02*
X84312990Y-38415885D01*
X84312990Y-38415885D02*
X84360609Y-38463504D01*
X84360609Y-38463504D02*
X84408228Y-38558742D01*
X84408228Y-38558742D02*
X84408228Y-38939694D01*
X83884419Y-37463504D02*
X83884419Y-37939694D01*
X83884419Y-37939694D02*
X84360609Y-37987313D01*
X84360609Y-37987313D02*
X84312990Y-37939694D01*
X84312990Y-37939694D02*
X84265371Y-37844456D01*
X84265371Y-37844456D02*
X84265371Y-37606361D01*
X84265371Y-37606361D02*
X84312990Y-37511123D01*
X84312990Y-37511123D02*
X84360609Y-37463504D01*
X84360609Y-37463504D02*
X84455847Y-37415885D01*
X84455847Y-37415885D02*
X84693942Y-37415885D01*
X84693942Y-37415885D02*
X84789180Y-37463504D01*
X84789180Y-37463504D02*
X84836800Y-37511123D01*
X84836800Y-37511123D02*
X84884419Y-37606361D01*
X84884419Y-37606361D02*
X84884419Y-37844456D01*
X84884419Y-37844456D02*
X84836800Y-37939694D01*
X84836800Y-37939694D02*
X84789180Y-37987313D01*
X89225523Y-38015152D02*
X89225523Y-38681819D01*
X88987428Y-37634200D02*
X88749333Y-38348485D01*
X88749333Y-38348485D02*
X89368380Y-38348485D01*
X89654095Y-37681819D02*
X90320761Y-37681819D01*
X90320761Y-37681819D02*
X89892190Y-38681819D01*
X90701714Y-38681819D02*
X90701714Y-37681819D01*
X90796952Y-38300866D02*
X91082666Y-38681819D01*
X91082666Y-38015152D02*
X90701714Y-38396104D01*
X103382580Y-44908166D02*
X103430200Y-44955785D01*
X103430200Y-44955785D02*
X103477819Y-45098642D01*
X103477819Y-45098642D02*
X103477819Y-45193880D01*
X103477819Y-45193880D02*
X103430200Y-45336737D01*
X103430200Y-45336737D02*
X103334961Y-45431975D01*
X103334961Y-45431975D02*
X103239723Y-45479594D01*
X103239723Y-45479594D02*
X103049247Y-45527213D01*
X103049247Y-45527213D02*
X102906390Y-45527213D01*
X102906390Y-45527213D02*
X102715914Y-45479594D01*
X102715914Y-45479594D02*
X102620676Y-45431975D01*
X102620676Y-45431975D02*
X102525438Y-45336737D01*
X102525438Y-45336737D02*
X102477819Y-45193880D01*
X102477819Y-45193880D02*
X102477819Y-45098642D01*
X102477819Y-45098642D02*
X102525438Y-44955785D01*
X102525438Y-44955785D02*
X102573057Y-44908166D01*
X102477819Y-44003404D02*
X102477819Y-44479594D01*
X102477819Y-44479594D02*
X102954009Y-44527213D01*
X102954009Y-44527213D02*
X102906390Y-44479594D01*
X102906390Y-44479594D02*
X102858771Y-44384356D01*
X102858771Y-44384356D02*
X102858771Y-44146261D01*
X102858771Y-44146261D02*
X102906390Y-44051023D01*
X102906390Y-44051023D02*
X102954009Y-44003404D01*
X102954009Y-44003404D02*
X103049247Y-43955785D01*
X103049247Y-43955785D02*
X103287342Y-43955785D01*
X103287342Y-43955785D02*
X103382580Y-44003404D01*
X103382580Y-44003404D02*
X103430200Y-44051023D01*
X103430200Y-44051023D02*
X103477819Y-44146261D01*
X103477819Y-44146261D02*
X103477819Y-44384356D01*
X103477819Y-44384356D02*
X103430200Y-44479594D01*
X103430200Y-44479594D02*
X103382580Y-44527213D01*
X105452380Y-43037319D02*
X104880952Y-43037319D01*
X105166666Y-43037319D02*
X105166666Y-42037319D01*
X105166666Y-42037319D02*
X105071428Y-42180176D01*
X105071428Y-42180176D02*
X104976190Y-42275414D01*
X104976190Y-42275414D02*
X104880952Y-42323033D01*
X106071428Y-42037319D02*
X106166666Y-42037319D01*
X106166666Y-42037319D02*
X106261904Y-42084938D01*
X106261904Y-42084938D02*
X106309523Y-42132557D01*
X106309523Y-42132557D02*
X106357142Y-42227795D01*
X106357142Y-42227795D02*
X106404761Y-42418271D01*
X106404761Y-42418271D02*
X106404761Y-42656366D01*
X106404761Y-42656366D02*
X106357142Y-42846842D01*
X106357142Y-42846842D02*
X106309523Y-42942080D01*
X106309523Y-42942080D02*
X106261904Y-42989700D01*
X106261904Y-42989700D02*
X106166666Y-43037319D01*
X106166666Y-43037319D02*
X106071428Y-43037319D01*
X106071428Y-43037319D02*
X105976190Y-42989700D01*
X105976190Y-42989700D02*
X105928571Y-42942080D01*
X105928571Y-42942080D02*
X105880952Y-42846842D01*
X105880952Y-42846842D02*
X105833333Y-42656366D01*
X105833333Y-42656366D02*
X105833333Y-42418271D01*
X105833333Y-42418271D02*
X105880952Y-42227795D01*
X105880952Y-42227795D02*
X105928571Y-42132557D01*
X105928571Y-42132557D02*
X105976190Y-42084938D01*
X105976190Y-42084938D02*
X106071428Y-42037319D01*
X107023809Y-42037319D02*
X107119047Y-42037319D01*
X107119047Y-42037319D02*
X107214285Y-42084938D01*
X107214285Y-42084938D02*
X107261904Y-42132557D01*
X107261904Y-42132557D02*
X107309523Y-42227795D01*
X107309523Y-42227795D02*
X107357142Y-42418271D01*
X107357142Y-42418271D02*
X107357142Y-42656366D01*
X107357142Y-42656366D02*
X107309523Y-42846842D01*
X107309523Y-42846842D02*
X107261904Y-42942080D01*
X107261904Y-42942080D02*
X107214285Y-42989700D01*
X107214285Y-42989700D02*
X107119047Y-43037319D01*
X107119047Y-43037319D02*
X107023809Y-43037319D01*
X107023809Y-43037319D02*
X106928571Y-42989700D01*
X106928571Y-42989700D02*
X106880952Y-42942080D01*
X106880952Y-42942080D02*
X106833333Y-42846842D01*
X106833333Y-42846842D02*
X106785714Y-42656366D01*
X106785714Y-42656366D02*
X106785714Y-42418271D01*
X106785714Y-42418271D02*
X106833333Y-42227795D01*
X106833333Y-42227795D02*
X106880952Y-42132557D01*
X106880952Y-42132557D02*
X106928571Y-42084938D01*
X106928571Y-42084938D02*
X107023809Y-42037319D01*
X107785714Y-42370652D02*
X107785714Y-43037319D01*
X107785714Y-42465890D02*
X107833333Y-42418271D01*
X107833333Y-42418271D02*
X107928571Y-42370652D01*
X107928571Y-42370652D02*
X108071428Y-42370652D01*
X108071428Y-42370652D02*
X108166666Y-42418271D01*
X108166666Y-42418271D02*
X108214285Y-42513509D01*
X108214285Y-42513509D02*
X108214285Y-43037319D01*
X109023809Y-42513509D02*
X108690476Y-42513509D01*
X108690476Y-43037319D02*
X108690476Y-42037319D01*
X108690476Y-42037319D02*
X109166666Y-42037319D01*
X53699580Y-52998666D02*
X53747200Y-53046285D01*
X53747200Y-53046285D02*
X53794819Y-53189142D01*
X53794819Y-53189142D02*
X53794819Y-53284380D01*
X53794819Y-53284380D02*
X53747200Y-53427237D01*
X53747200Y-53427237D02*
X53651961Y-53522475D01*
X53651961Y-53522475D02*
X53556723Y-53570094D01*
X53556723Y-53570094D02*
X53366247Y-53617713D01*
X53366247Y-53617713D02*
X53223390Y-53617713D01*
X53223390Y-53617713D02*
X53032914Y-53570094D01*
X53032914Y-53570094D02*
X52937676Y-53522475D01*
X52937676Y-53522475D02*
X52842438Y-53427237D01*
X52842438Y-53427237D02*
X52794819Y-53284380D01*
X52794819Y-53284380D02*
X52794819Y-53189142D01*
X52794819Y-53189142D02*
X52842438Y-53046285D01*
X52842438Y-53046285D02*
X52890057Y-52998666D01*
X52890057Y-52617713D02*
X52842438Y-52570094D01*
X52842438Y-52570094D02*
X52794819Y-52474856D01*
X52794819Y-52474856D02*
X52794819Y-52236761D01*
X52794819Y-52236761D02*
X52842438Y-52141523D01*
X52842438Y-52141523D02*
X52890057Y-52093904D01*
X52890057Y-52093904D02*
X52985295Y-52046285D01*
X52985295Y-52046285D02*
X53080533Y-52046285D01*
X53080533Y-52046285D02*
X53223390Y-52093904D01*
X53223390Y-52093904D02*
X53794819Y-52665332D01*
X53794819Y-52665332D02*
X53794819Y-52046285D01*
X56110380Y-55572819D02*
X55538952Y-55572819D01*
X55824666Y-55572819D02*
X55824666Y-54572819D01*
X55824666Y-54572819D02*
X55729428Y-54715676D01*
X55729428Y-54715676D02*
X55634190Y-54810914D01*
X55634190Y-54810914D02*
X55538952Y-54858533D01*
X56729428Y-54572819D02*
X56824666Y-54572819D01*
X56824666Y-54572819D02*
X56919904Y-54620438D01*
X56919904Y-54620438D02*
X56967523Y-54668057D01*
X56967523Y-54668057D02*
X57015142Y-54763295D01*
X57015142Y-54763295D02*
X57062761Y-54953771D01*
X57062761Y-54953771D02*
X57062761Y-55191866D01*
X57062761Y-55191866D02*
X57015142Y-55382342D01*
X57015142Y-55382342D02*
X56967523Y-55477580D01*
X56967523Y-55477580D02*
X56919904Y-55525200D01*
X56919904Y-55525200D02*
X56824666Y-55572819D01*
X56824666Y-55572819D02*
X56729428Y-55572819D01*
X56729428Y-55572819D02*
X56634190Y-55525200D01*
X56634190Y-55525200D02*
X56586571Y-55477580D01*
X56586571Y-55477580D02*
X56538952Y-55382342D01*
X56538952Y-55382342D02*
X56491333Y-55191866D01*
X56491333Y-55191866D02*
X56491333Y-54953771D01*
X56491333Y-54953771D02*
X56538952Y-54763295D01*
X56538952Y-54763295D02*
X56586571Y-54668057D01*
X56586571Y-54668057D02*
X56634190Y-54620438D01*
X56634190Y-54620438D02*
X56729428Y-54572819D01*
X57681809Y-54572819D02*
X57777047Y-54572819D01*
X57777047Y-54572819D02*
X57872285Y-54620438D01*
X57872285Y-54620438D02*
X57919904Y-54668057D01*
X57919904Y-54668057D02*
X57967523Y-54763295D01*
X57967523Y-54763295D02*
X58015142Y-54953771D01*
X58015142Y-54953771D02*
X58015142Y-55191866D01*
X58015142Y-55191866D02*
X57967523Y-55382342D01*
X57967523Y-55382342D02*
X57919904Y-55477580D01*
X57919904Y-55477580D02*
X57872285Y-55525200D01*
X57872285Y-55525200D02*
X57777047Y-55572819D01*
X57777047Y-55572819D02*
X57681809Y-55572819D01*
X57681809Y-55572819D02*
X57586571Y-55525200D01*
X57586571Y-55525200D02*
X57538952Y-55477580D01*
X57538952Y-55477580D02*
X57491333Y-55382342D01*
X57491333Y-55382342D02*
X57443714Y-55191866D01*
X57443714Y-55191866D02*
X57443714Y-54953771D01*
X57443714Y-54953771D02*
X57491333Y-54763295D01*
X57491333Y-54763295D02*
X57538952Y-54668057D01*
X57538952Y-54668057D02*
X57586571Y-54620438D01*
X57586571Y-54620438D02*
X57681809Y-54572819D01*
X58443714Y-54906152D02*
X58443714Y-55572819D01*
X58443714Y-55001390D02*
X58491333Y-54953771D01*
X58491333Y-54953771D02*
X58586571Y-54906152D01*
X58586571Y-54906152D02*
X58729428Y-54906152D01*
X58729428Y-54906152D02*
X58824666Y-54953771D01*
X58824666Y-54953771D02*
X58872285Y-55049009D01*
X58872285Y-55049009D02*
X58872285Y-55572819D01*
X59681809Y-55049009D02*
X59348476Y-55049009D01*
X59348476Y-55572819D02*
X59348476Y-54572819D01*
X59348476Y-54572819D02*
X59824666Y-54572819D01*
X104880580Y-38666666D02*
X104928200Y-38714285D01*
X104928200Y-38714285D02*
X104975819Y-38857142D01*
X104975819Y-38857142D02*
X104975819Y-38952380D01*
X104975819Y-38952380D02*
X104928200Y-39095237D01*
X104928200Y-39095237D02*
X104832961Y-39190475D01*
X104832961Y-39190475D02*
X104737723Y-39238094D01*
X104737723Y-39238094D02*
X104547247Y-39285713D01*
X104547247Y-39285713D02*
X104404390Y-39285713D01*
X104404390Y-39285713D02*
X104213914Y-39238094D01*
X104213914Y-39238094D02*
X104118676Y-39190475D01*
X104118676Y-39190475D02*
X104023438Y-39095237D01*
X104023438Y-39095237D02*
X103975819Y-38952380D01*
X103975819Y-38952380D02*
X103975819Y-38857142D01*
X103975819Y-38857142D02*
X104023438Y-38714285D01*
X104023438Y-38714285D02*
X104071057Y-38666666D01*
X104309152Y-37809523D02*
X104975819Y-37809523D01*
X103928200Y-38047618D02*
X104642485Y-38285713D01*
X104642485Y-38285713D02*
X104642485Y-37666666D01*
X107204380Y-41240819D02*
X106632952Y-41240819D01*
X106918666Y-41240819D02*
X106918666Y-40240819D01*
X106918666Y-40240819D02*
X106823428Y-40383676D01*
X106823428Y-40383676D02*
X106728190Y-40478914D01*
X106728190Y-40478914D02*
X106632952Y-40526533D01*
X107823428Y-40240819D02*
X107918666Y-40240819D01*
X107918666Y-40240819D02*
X108013904Y-40288438D01*
X108013904Y-40288438D02*
X108061523Y-40336057D01*
X108061523Y-40336057D02*
X108109142Y-40431295D01*
X108109142Y-40431295D02*
X108156761Y-40621771D01*
X108156761Y-40621771D02*
X108156761Y-40859866D01*
X108156761Y-40859866D02*
X108109142Y-41050342D01*
X108109142Y-41050342D02*
X108061523Y-41145580D01*
X108061523Y-41145580D02*
X108013904Y-41193200D01*
X108013904Y-41193200D02*
X107918666Y-41240819D01*
X107918666Y-41240819D02*
X107823428Y-41240819D01*
X107823428Y-41240819D02*
X107728190Y-41193200D01*
X107728190Y-41193200D02*
X107680571Y-41145580D01*
X107680571Y-41145580D02*
X107632952Y-41050342D01*
X107632952Y-41050342D02*
X107585333Y-40859866D01*
X107585333Y-40859866D02*
X107585333Y-40621771D01*
X107585333Y-40621771D02*
X107632952Y-40431295D01*
X107632952Y-40431295D02*
X107680571Y-40336057D01*
X107680571Y-40336057D02*
X107728190Y-40288438D01*
X107728190Y-40288438D02*
X107823428Y-40240819D01*
X108775809Y-40240819D02*
X108871047Y-40240819D01*
X108871047Y-40240819D02*
X108966285Y-40288438D01*
X108966285Y-40288438D02*
X109013904Y-40336057D01*
X109013904Y-40336057D02*
X109061523Y-40431295D01*
X109061523Y-40431295D02*
X109109142Y-40621771D01*
X109109142Y-40621771D02*
X109109142Y-40859866D01*
X109109142Y-40859866D02*
X109061523Y-41050342D01*
X109061523Y-41050342D02*
X109013904Y-41145580D01*
X109013904Y-41145580D02*
X108966285Y-41193200D01*
X108966285Y-41193200D02*
X108871047Y-41240819D01*
X108871047Y-41240819D02*
X108775809Y-41240819D01*
X108775809Y-41240819D02*
X108680571Y-41193200D01*
X108680571Y-41193200D02*
X108632952Y-41145580D01*
X108632952Y-41145580D02*
X108585333Y-41050342D01*
X108585333Y-41050342D02*
X108537714Y-40859866D01*
X108537714Y-40859866D02*
X108537714Y-40621771D01*
X108537714Y-40621771D02*
X108585333Y-40431295D01*
X108585333Y-40431295D02*
X108632952Y-40336057D01*
X108632952Y-40336057D02*
X108680571Y-40288438D01*
X108680571Y-40288438D02*
X108775809Y-40240819D01*
X109537714Y-40574152D02*
X109537714Y-41240819D01*
X109537714Y-40669390D02*
X109585333Y-40621771D01*
X109585333Y-40621771D02*
X109680571Y-40574152D01*
X109680571Y-40574152D02*
X109823428Y-40574152D01*
X109823428Y-40574152D02*
X109918666Y-40621771D01*
X109918666Y-40621771D02*
X109966285Y-40717009D01*
X109966285Y-40717009D02*
X109966285Y-41240819D01*
X110775809Y-40717009D02*
X110442476Y-40717009D01*
X110442476Y-41240819D02*
X110442476Y-40240819D01*
X110442476Y-40240819D02*
X110918666Y-40240819D01*
X56836666Y-37554819D02*
X56836666Y-38269104D01*
X56836666Y-38269104D02*
X56789047Y-38411961D01*
X56789047Y-38411961D02*
X56693809Y-38507200D01*
X56693809Y-38507200D02*
X56550952Y-38554819D01*
X56550952Y-38554819D02*
X56455714Y-38554819D01*
X57265238Y-37650057D02*
X57312857Y-37602438D01*
X57312857Y-37602438D02*
X57408095Y-37554819D01*
X57408095Y-37554819D02*
X57646190Y-37554819D01*
X57646190Y-37554819D02*
X57741428Y-37602438D01*
X57741428Y-37602438D02*
X57789047Y-37650057D01*
X57789047Y-37650057D02*
X57836666Y-37745295D01*
X57836666Y-37745295D02*
X57836666Y-37840533D01*
X57836666Y-37840533D02*
X57789047Y-37983390D01*
X57789047Y-37983390D02*
X57217619Y-38554819D01*
X57217619Y-38554819D02*
X57836666Y-38554819D01*
X54388095Y-41602819D02*
X54388095Y-40602819D01*
X54388095Y-40602819D02*
X54769047Y-40602819D01*
X54769047Y-40602819D02*
X54864285Y-40650438D01*
X54864285Y-40650438D02*
X54911904Y-40698057D01*
X54911904Y-40698057D02*
X54959523Y-40793295D01*
X54959523Y-40793295D02*
X54959523Y-40936152D01*
X54959523Y-40936152D02*
X54911904Y-41031390D01*
X54911904Y-41031390D02*
X54864285Y-41079009D01*
X54864285Y-41079009D02*
X54769047Y-41126628D01*
X54769047Y-41126628D02*
X54388095Y-41126628D01*
X55292857Y-40602819D02*
X55530952Y-41602819D01*
X55530952Y-41602819D02*
X55721428Y-40888533D01*
X55721428Y-40888533D02*
X55911904Y-41602819D01*
X55911904Y-41602819D02*
X56150000Y-40602819D01*
X57102380Y-41602819D02*
X56769047Y-41126628D01*
X56530952Y-41602819D02*
X56530952Y-40602819D01*
X56530952Y-40602819D02*
X56911904Y-40602819D01*
X56911904Y-40602819D02*
X57007142Y-40650438D01*
X57007142Y-40650438D02*
X57054761Y-40698057D01*
X57054761Y-40698057D02*
X57102380Y-40793295D01*
X57102380Y-40793295D02*
X57102380Y-40936152D01*
X57102380Y-40936152D02*
X57054761Y-41031390D01*
X57054761Y-41031390D02*
X57007142Y-41079009D01*
X57007142Y-41079009D02*
X56911904Y-41126628D01*
X56911904Y-41126628D02*
X56530952Y-41126628D01*
X58245238Y-41555200D02*
X58388095Y-41602819D01*
X58388095Y-41602819D02*
X58626190Y-41602819D01*
X58626190Y-41602819D02*
X58721428Y-41555200D01*
X58721428Y-41555200D02*
X58769047Y-41507580D01*
X58769047Y-41507580D02*
X58816666Y-41412342D01*
X58816666Y-41412342D02*
X58816666Y-41317104D01*
X58816666Y-41317104D02*
X58769047Y-41221866D01*
X58769047Y-41221866D02*
X58721428Y-41174247D01*
X58721428Y-41174247D02*
X58626190Y-41126628D01*
X58626190Y-41126628D02*
X58435714Y-41079009D01*
X58435714Y-41079009D02*
X58340476Y-41031390D01*
X58340476Y-41031390D02*
X58292857Y-40983771D01*
X58292857Y-40983771D02*
X58245238Y-40888533D01*
X58245238Y-40888533D02*
X58245238Y-40793295D01*
X58245238Y-40793295D02*
X58292857Y-40698057D01*
X58292857Y-40698057D02*
X58340476Y-40650438D01*
X58340476Y-40650438D02*
X58435714Y-40602819D01*
X58435714Y-40602819D02*
X58673809Y-40602819D01*
X58673809Y-40602819D02*
X58816666Y-40650438D01*
X59150000Y-40602819D02*
X59388095Y-41602819D01*
X59388095Y-41602819D02*
X59578571Y-40888533D01*
X59578571Y-40888533D02*
X59769047Y-41602819D01*
X59769047Y-41602819D02*
X60007143Y-40602819D01*
X84909819Y-44616666D02*
X84433628Y-44949999D01*
X84909819Y-45188094D02*
X83909819Y-45188094D01*
X83909819Y-45188094D02*
X83909819Y-44807142D01*
X83909819Y-44807142D02*
X83957438Y-44711904D01*
X83957438Y-44711904D02*
X84005057Y-44664285D01*
X84005057Y-44664285D02*
X84100295Y-44616666D01*
X84100295Y-44616666D02*
X84243152Y-44616666D01*
X84243152Y-44616666D02*
X84338390Y-44664285D01*
X84338390Y-44664285D02*
X84386009Y-44711904D01*
X84386009Y-44711904D02*
X84433628Y-44807142D01*
X84433628Y-44807142D02*
X84433628Y-45188094D01*
X84243152Y-43759523D02*
X84909819Y-43759523D01*
X83862200Y-43997618D02*
X84576485Y-44235713D01*
X84576485Y-44235713D02*
X84576485Y-43616666D01*
X89320761Y-44904819D02*
X88749333Y-44904819D01*
X89035047Y-44904819D02*
X89035047Y-43904819D01*
X89035047Y-43904819D02*
X88939809Y-44047676D01*
X88939809Y-44047676D02*
X88844571Y-44142914D01*
X88844571Y-44142914D02*
X88749333Y-44190533D01*
X89939809Y-43904819D02*
X90035047Y-43904819D01*
X90035047Y-43904819D02*
X90130285Y-43952438D01*
X90130285Y-43952438D02*
X90177904Y-44000057D01*
X90177904Y-44000057D02*
X90225523Y-44095295D01*
X90225523Y-44095295D02*
X90273142Y-44285771D01*
X90273142Y-44285771D02*
X90273142Y-44523866D01*
X90273142Y-44523866D02*
X90225523Y-44714342D01*
X90225523Y-44714342D02*
X90177904Y-44809580D01*
X90177904Y-44809580D02*
X90130285Y-44857200D01*
X90130285Y-44857200D02*
X90035047Y-44904819D01*
X90035047Y-44904819D02*
X89939809Y-44904819D01*
X89939809Y-44904819D02*
X89844571Y-44857200D01*
X89844571Y-44857200D02*
X89796952Y-44809580D01*
X89796952Y-44809580D02*
X89749333Y-44714342D01*
X89749333Y-44714342D02*
X89701714Y-44523866D01*
X89701714Y-44523866D02*
X89701714Y-44285771D01*
X89701714Y-44285771D02*
X89749333Y-44095295D01*
X89749333Y-44095295D02*
X89796952Y-44000057D01*
X89796952Y-44000057D02*
X89844571Y-43952438D01*
X89844571Y-43952438D02*
X89939809Y-43904819D01*
X90701714Y-44904819D02*
X90701714Y-43904819D01*
X90796952Y-44523866D02*
X91082666Y-44904819D01*
X91082666Y-44238152D02*
X90701714Y-44619104D01*
X84654761Y-53800057D02*
X84559523Y-53752438D01*
X84559523Y-53752438D02*
X84464285Y-53657200D01*
X84464285Y-53657200D02*
X84321428Y-53514342D01*
X84321428Y-53514342D02*
X84226190Y-53466723D01*
X84226190Y-53466723D02*
X84130952Y-53466723D01*
X84178571Y-53704819D02*
X84083333Y-53657200D01*
X84083333Y-53657200D02*
X83988095Y-53561961D01*
X83988095Y-53561961D02*
X83940476Y-53371485D01*
X83940476Y-53371485D02*
X83940476Y-53038152D01*
X83940476Y-53038152D02*
X83988095Y-52847676D01*
X83988095Y-52847676D02*
X84083333Y-52752438D01*
X84083333Y-52752438D02*
X84178571Y-52704819D01*
X84178571Y-52704819D02*
X84369047Y-52704819D01*
X84369047Y-52704819D02*
X84464285Y-52752438D01*
X84464285Y-52752438D02*
X84559523Y-52847676D01*
X84559523Y-52847676D02*
X84607142Y-53038152D01*
X84607142Y-53038152D02*
X84607142Y-53371485D01*
X84607142Y-53371485D02*
X84559523Y-53561961D01*
X84559523Y-53561961D02*
X84464285Y-53657200D01*
X84464285Y-53657200D02*
X84369047Y-53704819D01*
X84369047Y-53704819D02*
X84178571Y-53704819D01*
X85559523Y-53704819D02*
X84988095Y-53704819D01*
X85273809Y-53704819D02*
X85273809Y-52704819D01*
X85273809Y-52704819D02*
X85178571Y-52847676D01*
X85178571Y-52847676D02*
X85083333Y-52942914D01*
X85083333Y-52942914D02*
X84988095Y-52990533D01*
X84709333Y-55317104D02*
X85185523Y-55317104D01*
X84614095Y-55602819D02*
X84947428Y-54602819D01*
X84947428Y-54602819D02*
X85280761Y-55602819D01*
X85804571Y-54602819D02*
X85995047Y-54602819D01*
X85995047Y-54602819D02*
X86090285Y-54650438D01*
X86090285Y-54650438D02*
X86185523Y-54745676D01*
X86185523Y-54745676D02*
X86233142Y-54936152D01*
X86233142Y-54936152D02*
X86233142Y-55269485D01*
X86233142Y-55269485D02*
X86185523Y-55459961D01*
X86185523Y-55459961D02*
X86090285Y-55555200D01*
X86090285Y-55555200D02*
X85995047Y-55602819D01*
X85995047Y-55602819D02*
X85804571Y-55602819D01*
X85804571Y-55602819D02*
X85709333Y-55555200D01*
X85709333Y-55555200D02*
X85614095Y-55459961D01*
X85614095Y-55459961D02*
X85566476Y-55269485D01*
X85566476Y-55269485D02*
X85566476Y-54936152D01*
X85566476Y-54936152D02*
X85614095Y-54745676D01*
X85614095Y-54745676D02*
X85709333Y-54650438D01*
X85709333Y-54650438D02*
X85804571Y-54602819D01*
X86566476Y-54602819D02*
X87185523Y-54602819D01*
X87185523Y-54602819D02*
X86852190Y-54983771D01*
X86852190Y-54983771D02*
X86995047Y-54983771D01*
X86995047Y-54983771D02*
X87090285Y-55031390D01*
X87090285Y-55031390D02*
X87137904Y-55079009D01*
X87137904Y-55079009D02*
X87185523Y-55174247D01*
X87185523Y-55174247D02*
X87185523Y-55412342D01*
X87185523Y-55412342D02*
X87137904Y-55507580D01*
X87137904Y-55507580D02*
X87090285Y-55555200D01*
X87090285Y-55555200D02*
X86995047Y-55602819D01*
X86995047Y-55602819D02*
X86709333Y-55602819D01*
X86709333Y-55602819D02*
X86614095Y-55555200D01*
X86614095Y-55555200D02*
X86566476Y-55507580D01*
X88042666Y-54936152D02*
X88042666Y-55602819D01*
X87804571Y-54555200D02*
X87566476Y-55269485D01*
X87566476Y-55269485D02*
X88185523Y-55269485D01*
X88756952Y-54602819D02*
X88852190Y-54602819D01*
X88852190Y-54602819D02*
X88947428Y-54650438D01*
X88947428Y-54650438D02*
X88995047Y-54698057D01*
X88995047Y-54698057D02*
X89042666Y-54793295D01*
X89042666Y-54793295D02*
X89090285Y-54983771D01*
X89090285Y-54983771D02*
X89090285Y-55221866D01*
X89090285Y-55221866D02*
X89042666Y-55412342D01*
X89042666Y-55412342D02*
X88995047Y-55507580D01*
X88995047Y-55507580D02*
X88947428Y-55555200D01*
X88947428Y-55555200D02*
X88852190Y-55602819D01*
X88852190Y-55602819D02*
X88756952Y-55602819D01*
X88756952Y-55602819D02*
X88661714Y-55555200D01*
X88661714Y-55555200D02*
X88614095Y-55507580D01*
X88614095Y-55507580D02*
X88566476Y-55412342D01*
X88566476Y-55412342D02*
X88518857Y-55221866D01*
X88518857Y-55221866D02*
X88518857Y-54983771D01*
X88518857Y-54983771D02*
X88566476Y-54793295D01*
X88566476Y-54793295D02*
X88614095Y-54698057D01*
X88614095Y-54698057D02*
X88661714Y-54650438D01*
X88661714Y-54650438D02*
X88756952Y-54602819D01*
X90042666Y-55602819D02*
X89471238Y-55602819D01*
X89756952Y-55602819D02*
X89756952Y-54602819D01*
X89756952Y-54602819D02*
X89661714Y-54745676D01*
X89661714Y-54745676D02*
X89566476Y-54840914D01*
X89566476Y-54840914D02*
X89471238Y-54888533D01*
X84909819Y-47791666D02*
X84433628Y-48124999D01*
X84909819Y-48363094D02*
X83909819Y-48363094D01*
X83909819Y-48363094D02*
X83909819Y-47982142D01*
X83909819Y-47982142D02*
X83957438Y-47886904D01*
X83957438Y-47886904D02*
X84005057Y-47839285D01*
X84005057Y-47839285D02*
X84100295Y-47791666D01*
X84100295Y-47791666D02*
X84243152Y-47791666D01*
X84243152Y-47791666D02*
X84338390Y-47839285D01*
X84338390Y-47839285D02*
X84386009Y-47886904D01*
X84386009Y-47886904D02*
X84433628Y-47982142D01*
X84433628Y-47982142D02*
X84433628Y-48363094D01*
X84909819Y-46839285D02*
X84909819Y-47410713D01*
X84909819Y-47124999D02*
X83909819Y-47124999D01*
X83909819Y-47124999D02*
X84052676Y-47220237D01*
X84052676Y-47220237D02*
X84147914Y-47315475D01*
X84147914Y-47315475D02*
X84195533Y-47410713D01*
X89236574Y-48135007D02*
X88665146Y-48135007D01*
X88950860Y-48135007D02*
X88950860Y-47135007D01*
X88950860Y-47135007D02*
X88855622Y-47277864D01*
X88855622Y-47277864D02*
X88760384Y-47373102D01*
X88760384Y-47373102D02*
X88665146Y-47420721D01*
X89855622Y-47135007D02*
X89950860Y-47135007D01*
X89950860Y-47135007D02*
X90046098Y-47182626D01*
X90046098Y-47182626D02*
X90093717Y-47230245D01*
X90093717Y-47230245D02*
X90141336Y-47325483D01*
X90141336Y-47325483D02*
X90188955Y-47515959D01*
X90188955Y-47515959D02*
X90188955Y-47754054D01*
X90188955Y-47754054D02*
X90141336Y-47944530D01*
X90141336Y-47944530D02*
X90093717Y-48039768D01*
X90093717Y-48039768D02*
X90046098Y-48087388D01*
X90046098Y-48087388D02*
X89950860Y-48135007D01*
X89950860Y-48135007D02*
X89855622Y-48135007D01*
X89855622Y-48135007D02*
X89760384Y-48087388D01*
X89760384Y-48087388D02*
X89712765Y-48039768D01*
X89712765Y-48039768D02*
X89665146Y-47944530D01*
X89665146Y-47944530D02*
X89617527Y-47754054D01*
X89617527Y-47754054D02*
X89617527Y-47515959D01*
X89617527Y-47515959D02*
X89665146Y-47325483D01*
X89665146Y-47325483D02*
X89712765Y-47230245D01*
X89712765Y-47230245D02*
X89760384Y-47182626D01*
X89760384Y-47182626D02*
X89855622Y-47135007D01*
X90617527Y-48135007D02*
X90617527Y-47135007D01*
X90712765Y-47754054D02*
X90998479Y-48135007D01*
X90998479Y-47468340D02*
X90617527Y-47849292D01*
X95718333Y-36808580D02*
X95670714Y-36856200D01*
X95670714Y-36856200D02*
X95527857Y-36903819D01*
X95527857Y-36903819D02*
X95432619Y-36903819D01*
X95432619Y-36903819D02*
X95289762Y-36856200D01*
X95289762Y-36856200D02*
X95194524Y-36760961D01*
X95194524Y-36760961D02*
X95146905Y-36665723D01*
X95146905Y-36665723D02*
X95099286Y-36475247D01*
X95099286Y-36475247D02*
X95099286Y-36332390D01*
X95099286Y-36332390D02*
X95146905Y-36141914D01*
X95146905Y-36141914D02*
X95194524Y-36046676D01*
X95194524Y-36046676D02*
X95289762Y-35951438D01*
X95289762Y-35951438D02*
X95432619Y-35903819D01*
X95432619Y-35903819D02*
X95527857Y-35903819D01*
X95527857Y-35903819D02*
X95670714Y-35951438D01*
X95670714Y-35951438D02*
X95718333Y-35999057D01*
X96051667Y-35903819D02*
X96670714Y-35903819D01*
X96670714Y-35903819D02*
X96337381Y-36284771D01*
X96337381Y-36284771D02*
X96480238Y-36284771D01*
X96480238Y-36284771D02*
X96575476Y-36332390D01*
X96575476Y-36332390D02*
X96623095Y-36380009D01*
X96623095Y-36380009D02*
X96670714Y-36475247D01*
X96670714Y-36475247D02*
X96670714Y-36713342D01*
X96670714Y-36713342D02*
X96623095Y-36808580D01*
X96623095Y-36808580D02*
X96575476Y-36856200D01*
X96575476Y-36856200D02*
X96480238Y-36903819D01*
X96480238Y-36903819D02*
X96194524Y-36903819D01*
X96194524Y-36903819D02*
X96099286Y-36856200D01*
X96099286Y-36856200D02*
X96051667Y-36808580D01*
X97925142Y-44920819D02*
X97734666Y-44920819D01*
X97734666Y-44920819D02*
X97639428Y-44968438D01*
X97639428Y-44968438D02*
X97591809Y-45016057D01*
X97591809Y-45016057D02*
X97496571Y-45158914D01*
X97496571Y-45158914D02*
X97448952Y-45349390D01*
X97448952Y-45349390D02*
X97448952Y-45730342D01*
X97448952Y-45730342D02*
X97496571Y-45825580D01*
X97496571Y-45825580D02*
X97544190Y-45873200D01*
X97544190Y-45873200D02*
X97639428Y-45920819D01*
X97639428Y-45920819D02*
X97829904Y-45920819D01*
X97829904Y-45920819D02*
X97925142Y-45873200D01*
X97925142Y-45873200D02*
X97972761Y-45825580D01*
X97972761Y-45825580D02*
X98020380Y-45730342D01*
X98020380Y-45730342D02*
X98020380Y-45492247D01*
X98020380Y-45492247D02*
X97972761Y-45397009D01*
X97972761Y-45397009D02*
X97925142Y-45349390D01*
X97925142Y-45349390D02*
X97829904Y-45301771D01*
X97829904Y-45301771D02*
X97639428Y-45301771D01*
X97639428Y-45301771D02*
X97544190Y-45349390D01*
X97544190Y-45349390D02*
X97496571Y-45397009D01*
X97496571Y-45397009D02*
X97448952Y-45492247D01*
X98591809Y-45349390D02*
X98496571Y-45301771D01*
X98496571Y-45301771D02*
X98448952Y-45254152D01*
X98448952Y-45254152D02*
X98401333Y-45158914D01*
X98401333Y-45158914D02*
X98401333Y-45111295D01*
X98401333Y-45111295D02*
X98448952Y-45016057D01*
X98448952Y-45016057D02*
X98496571Y-44968438D01*
X98496571Y-44968438D02*
X98591809Y-44920819D01*
X98591809Y-44920819D02*
X98782285Y-44920819D01*
X98782285Y-44920819D02*
X98877523Y-44968438D01*
X98877523Y-44968438D02*
X98925142Y-45016057D01*
X98925142Y-45016057D02*
X98972761Y-45111295D01*
X98972761Y-45111295D02*
X98972761Y-45158914D01*
X98972761Y-45158914D02*
X98925142Y-45254152D01*
X98925142Y-45254152D02*
X98877523Y-45301771D01*
X98877523Y-45301771D02*
X98782285Y-45349390D01*
X98782285Y-45349390D02*
X98591809Y-45349390D01*
X98591809Y-45349390D02*
X98496571Y-45397009D01*
X98496571Y-45397009D02*
X98448952Y-45444628D01*
X98448952Y-45444628D02*
X98401333Y-45539866D01*
X98401333Y-45539866D02*
X98401333Y-45730342D01*
X98401333Y-45730342D02*
X98448952Y-45825580D01*
X98448952Y-45825580D02*
X98496571Y-45873200D01*
X98496571Y-45873200D02*
X98591809Y-45920819D01*
X98591809Y-45920819D02*
X98782285Y-45920819D01*
X98782285Y-45920819D02*
X98877523Y-45873200D01*
X98877523Y-45873200D02*
X98925142Y-45825580D01*
X98925142Y-45825580D02*
X98972761Y-45730342D01*
X98972761Y-45730342D02*
X98972761Y-45539866D01*
X98972761Y-45539866D02*
X98925142Y-45444628D01*
X98925142Y-45444628D02*
X98877523Y-45397009D01*
X98877523Y-45397009D02*
X98782285Y-45349390D01*
X99591809Y-44920819D02*
X99687047Y-44920819D01*
X99687047Y-44920819D02*
X99782285Y-44968438D01*
X99782285Y-44968438D02*
X99829904Y-45016057D01*
X99829904Y-45016057D02*
X99877523Y-45111295D01*
X99877523Y-45111295D02*
X99925142Y-45301771D01*
X99925142Y-45301771D02*
X99925142Y-45539866D01*
X99925142Y-45539866D02*
X99877523Y-45730342D01*
X99877523Y-45730342D02*
X99829904Y-45825580D01*
X99829904Y-45825580D02*
X99782285Y-45873200D01*
X99782285Y-45873200D02*
X99687047Y-45920819D01*
X99687047Y-45920819D02*
X99591809Y-45920819D01*
X99591809Y-45920819D02*
X99496571Y-45873200D01*
X99496571Y-45873200D02*
X99448952Y-45825580D01*
X99448952Y-45825580D02*
X99401333Y-45730342D01*
X99401333Y-45730342D02*
X99353714Y-45539866D01*
X99353714Y-45539866D02*
X99353714Y-45301771D01*
X99353714Y-45301771D02*
X99401333Y-45111295D01*
X99401333Y-45111295D02*
X99448952Y-45016057D01*
X99448952Y-45016057D02*
X99496571Y-44968438D01*
X99496571Y-44968438D02*
X99591809Y-44920819D01*
X100782285Y-45254152D02*
X100782285Y-45920819D01*
X100353714Y-45254152D02*
X100353714Y-45777961D01*
X100353714Y-45777961D02*
X100401333Y-45873200D01*
X100401333Y-45873200D02*
X100496571Y-45920819D01*
X100496571Y-45920819D02*
X100639428Y-45920819D01*
X100639428Y-45920819D02*
X100734666Y-45873200D01*
X100734666Y-45873200D02*
X100782285Y-45825580D01*
X101591809Y-45397009D02*
X101258476Y-45397009D01*
X101258476Y-45920819D02*
X101258476Y-44920819D01*
X101258476Y-44920819D02*
X101734666Y-44920819D01*
D12*
X41113419Y-44783333D02*
X41827704Y-44783333D01*
X41827704Y-44783333D02*
X41970561Y-44830952D01*
X41970561Y-44830952D02*
X42065800Y-44926190D01*
X42065800Y-44926190D02*
X42113419Y-45069047D01*
X42113419Y-45069047D02*
X42113419Y-45164285D01*
X42113419Y-43783333D02*
X42113419Y-44354761D01*
X42113419Y-44069047D02*
X41113419Y-44069047D01*
X41113419Y-44069047D02*
X41256276Y-44164285D01*
X41256276Y-44164285D02*
X41351514Y-44259523D01*
X41351514Y-44259523D02*
X41399133Y-44354761D01*
D11*
X46190819Y-50973904D02*
X47000342Y-50973904D01*
X47000342Y-50973904D02*
X47095580Y-50926285D01*
X47095580Y-50926285D02*
X47143200Y-50878666D01*
X47143200Y-50878666D02*
X47190819Y-50783428D01*
X47190819Y-50783428D02*
X47190819Y-50592952D01*
X47190819Y-50592952D02*
X47143200Y-50497714D01*
X47143200Y-50497714D02*
X47095580Y-50450095D01*
X47095580Y-50450095D02*
X47000342Y-50402476D01*
X47000342Y-50402476D02*
X46190819Y-50402476D01*
X47143200Y-49973904D02*
X47190819Y-49831047D01*
X47190819Y-49831047D02*
X47190819Y-49592952D01*
X47190819Y-49592952D02*
X47143200Y-49497714D01*
X47143200Y-49497714D02*
X47095580Y-49450095D01*
X47095580Y-49450095D02*
X47000342Y-49402476D01*
X47000342Y-49402476D02*
X46905104Y-49402476D01*
X46905104Y-49402476D02*
X46809866Y-49450095D01*
X46809866Y-49450095D02*
X46762247Y-49497714D01*
X46762247Y-49497714D02*
X46714628Y-49592952D01*
X46714628Y-49592952D02*
X46667009Y-49783428D01*
X46667009Y-49783428D02*
X46619390Y-49878666D01*
X46619390Y-49878666D02*
X46571771Y-49926285D01*
X46571771Y-49926285D02*
X46476533Y-49973904D01*
X46476533Y-49973904D02*
X46381295Y-49973904D01*
X46381295Y-49973904D02*
X46286057Y-49926285D01*
X46286057Y-49926285D02*
X46238438Y-49878666D01*
X46238438Y-49878666D02*
X46190819Y-49783428D01*
X46190819Y-49783428D02*
X46190819Y-49545333D01*
X46190819Y-49545333D02*
X46238438Y-49402476D01*
X46667009Y-48640571D02*
X46714628Y-48497714D01*
X46714628Y-48497714D02*
X46762247Y-48450095D01*
X46762247Y-48450095D02*
X46857485Y-48402476D01*
X46857485Y-48402476D02*
X47000342Y-48402476D01*
X47000342Y-48402476D02*
X47095580Y-48450095D01*
X47095580Y-48450095D02*
X47143200Y-48497714D01*
X47143200Y-48497714D02*
X47190819Y-48592952D01*
X47190819Y-48592952D02*
X47190819Y-48973904D01*
X47190819Y-48973904D02*
X46190819Y-48973904D01*
X46190819Y-48973904D02*
X46190819Y-48640571D01*
X46190819Y-48640571D02*
X46238438Y-48545333D01*
X46238438Y-48545333D02*
X46286057Y-48497714D01*
X46286057Y-48497714D02*
X46381295Y-48450095D01*
X46381295Y-48450095D02*
X46476533Y-48450095D01*
X46476533Y-48450095D02*
X46571771Y-48497714D01*
X46571771Y-48497714D02*
X46619390Y-48545333D01*
X46619390Y-48545333D02*
X46667009Y-48640571D01*
X46667009Y-48640571D02*
X46667009Y-48973904D01*
X47095580Y-46640571D02*
X47143200Y-46688190D01*
X47143200Y-46688190D02*
X47190819Y-46831047D01*
X47190819Y-46831047D02*
X47190819Y-46926285D01*
X47190819Y-46926285D02*
X47143200Y-47069142D01*
X47143200Y-47069142D02*
X47047961Y-47164380D01*
X47047961Y-47164380D02*
X46952723Y-47211999D01*
X46952723Y-47211999D02*
X46762247Y-47259618D01*
X46762247Y-47259618D02*
X46619390Y-47259618D01*
X46619390Y-47259618D02*
X46428914Y-47211999D01*
X46428914Y-47211999D02*
X46333676Y-47164380D01*
X46333676Y-47164380D02*
X46238438Y-47069142D01*
X46238438Y-47069142D02*
X46190819Y-46926285D01*
X46190819Y-46926285D02*
X46190819Y-46831047D01*
X46190819Y-46831047D02*
X46238438Y-46688190D01*
X46238438Y-46688190D02*
X46286057Y-46640571D01*
X46286057Y-45497713D02*
X46238438Y-45450094D01*
X46238438Y-45450094D02*
X46190819Y-45354856D01*
X46190819Y-45354856D02*
X46190819Y-45116761D01*
X46190819Y-45116761D02*
X46238438Y-45021523D01*
X46238438Y-45021523D02*
X46286057Y-44973904D01*
X46286057Y-44973904D02*
X46381295Y-44926285D01*
X46381295Y-44926285D02*
X46476533Y-44926285D01*
X46476533Y-44926285D02*
X46619390Y-44973904D01*
X46619390Y-44973904D02*
X47190819Y-45545332D01*
X47190819Y-45545332D02*
X47190819Y-44926285D01*
X47095580Y-44497713D02*
X47143200Y-44450094D01*
X47143200Y-44450094D02*
X47190819Y-44497713D01*
X47190819Y-44497713D02*
X47143200Y-44545332D01*
X47143200Y-44545332D02*
X47095580Y-44497713D01*
X47095580Y-44497713D02*
X47190819Y-44497713D01*
X46190819Y-43831047D02*
X46190819Y-43735809D01*
X46190819Y-43735809D02*
X46238438Y-43640571D01*
X46238438Y-43640571D02*
X46286057Y-43592952D01*
X46286057Y-43592952D02*
X46381295Y-43545333D01*
X46381295Y-43545333D02*
X46571771Y-43497714D01*
X46571771Y-43497714D02*
X46809866Y-43497714D01*
X46809866Y-43497714D02*
X47000342Y-43545333D01*
X47000342Y-43545333D02*
X47095580Y-43592952D01*
X47095580Y-43592952D02*
X47143200Y-43640571D01*
X47143200Y-43640571D02*
X47190819Y-43735809D01*
X47190819Y-43735809D02*
X47190819Y-43831047D01*
X47190819Y-43831047D02*
X47143200Y-43926285D01*
X47143200Y-43926285D02*
X47095580Y-43973904D01*
X47095580Y-43973904D02*
X47000342Y-44021523D01*
X47000342Y-44021523D02*
X46809866Y-44069142D01*
X46809866Y-44069142D02*
X46571771Y-44069142D01*
X46571771Y-44069142D02*
X46381295Y-44021523D01*
X46381295Y-44021523D02*
X46286057Y-43973904D01*
X46286057Y-43973904D02*
X46238438Y-43926285D01*
X46238438Y-43926285D02*
X46190819Y-43831047D01*
X46619390Y-42164380D02*
X46571771Y-42259618D01*
X46571771Y-42259618D02*
X46524152Y-42307237D01*
X46524152Y-42307237D02*
X46428914Y-42354856D01*
X46428914Y-42354856D02*
X46381295Y-42354856D01*
X46381295Y-42354856D02*
X46286057Y-42307237D01*
X46286057Y-42307237D02*
X46238438Y-42259618D01*
X46238438Y-42259618D02*
X46190819Y-42164380D01*
X46190819Y-42164380D02*
X46190819Y-41973904D01*
X46190819Y-41973904D02*
X46238438Y-41878666D01*
X46238438Y-41878666D02*
X46286057Y-41831047D01*
X46286057Y-41831047D02*
X46381295Y-41783428D01*
X46381295Y-41783428D02*
X46428914Y-41783428D01*
X46428914Y-41783428D02*
X46524152Y-41831047D01*
X46524152Y-41831047D02*
X46571771Y-41878666D01*
X46571771Y-41878666D02*
X46619390Y-41973904D01*
X46619390Y-41973904D02*
X46619390Y-42164380D01*
X46619390Y-42164380D02*
X46667009Y-42259618D01*
X46667009Y-42259618D02*
X46714628Y-42307237D01*
X46714628Y-42307237D02*
X46809866Y-42354856D01*
X46809866Y-42354856D02*
X47000342Y-42354856D01*
X47000342Y-42354856D02*
X47095580Y-42307237D01*
X47095580Y-42307237D02*
X47143200Y-42259618D01*
X47143200Y-42259618D02*
X47190819Y-42164380D01*
X47190819Y-42164380D02*
X47190819Y-41973904D01*
X47190819Y-41973904D02*
X47143200Y-41878666D01*
X47143200Y-41878666D02*
X47095580Y-41831047D01*
X47095580Y-41831047D02*
X47000342Y-41783428D01*
X47000342Y-41783428D02*
X46809866Y-41783428D01*
X46809866Y-41783428D02*
X46714628Y-41831047D01*
X46714628Y-41831047D02*
X46667009Y-41878666D01*
X46667009Y-41878666D02*
X46619390Y-41973904D01*
X47190819Y-41354856D02*
X46190819Y-41354856D01*
X46190819Y-41354856D02*
X46190819Y-40973904D01*
X46190819Y-40973904D02*
X46238438Y-40878666D01*
X46238438Y-40878666D02*
X46286057Y-40831047D01*
X46286057Y-40831047D02*
X46381295Y-40783428D01*
X46381295Y-40783428D02*
X46524152Y-40783428D01*
X46524152Y-40783428D02*
X46619390Y-40831047D01*
X46619390Y-40831047D02*
X46667009Y-40878666D01*
X46667009Y-40878666D02*
X46714628Y-40973904D01*
X46714628Y-40973904D02*
X46714628Y-41354856D01*
X47190819Y-40354856D02*
X46524152Y-40354856D01*
X46190819Y-40354856D02*
X46238438Y-40402475D01*
X46238438Y-40402475D02*
X46286057Y-40354856D01*
X46286057Y-40354856D02*
X46238438Y-40307237D01*
X46238438Y-40307237D02*
X46190819Y-40354856D01*
X46190819Y-40354856D02*
X46286057Y-40354856D01*
X46524152Y-39878666D02*
X47190819Y-39878666D01*
X46619390Y-39878666D02*
X46571771Y-39831047D01*
X46571771Y-39831047D02*
X46524152Y-39735809D01*
X46524152Y-39735809D02*
X46524152Y-39592952D01*
X46524152Y-39592952D02*
X46571771Y-39497714D01*
X46571771Y-39497714D02*
X46667009Y-39450095D01*
X46667009Y-39450095D02*
X47190819Y-39450095D01*
X114808095Y-41999819D02*
X114808095Y-42809342D01*
X114808095Y-42809342D02*
X114855714Y-42904580D01*
X114855714Y-42904580D02*
X114903333Y-42952200D01*
X114903333Y-42952200D02*
X114998571Y-42999819D01*
X114998571Y-42999819D02*
X115189047Y-42999819D01*
X115189047Y-42999819D02*
X115284285Y-42952200D01*
X115284285Y-42952200D02*
X115331904Y-42904580D01*
X115331904Y-42904580D02*
X115379523Y-42809342D01*
X115379523Y-42809342D02*
X115379523Y-41999819D01*
X116331904Y-41999819D02*
X115855714Y-41999819D01*
X115855714Y-41999819D02*
X115808095Y-42476009D01*
X115808095Y-42476009D02*
X115855714Y-42428390D01*
X115855714Y-42428390D02*
X115950952Y-42380771D01*
X115950952Y-42380771D02*
X116189047Y-42380771D01*
X116189047Y-42380771D02*
X116284285Y-42428390D01*
X116284285Y-42428390D02*
X116331904Y-42476009D01*
X116331904Y-42476009D02*
X116379523Y-42571247D01*
X116379523Y-42571247D02*
X116379523Y-42809342D01*
X116379523Y-42809342D02*
X116331904Y-42904580D01*
X116331904Y-42904580D02*
X116284285Y-42952200D01*
X116284285Y-42952200D02*
X116189047Y-42999819D01*
X116189047Y-42999819D02*
X115950952Y-42999819D01*
X115950952Y-42999819D02*
X115855714Y-42952200D01*
X115855714Y-42952200D02*
X115808095Y-42904580D01*
X112611819Y-40774523D02*
X113611819Y-40536428D01*
X113611819Y-40536428D02*
X112897533Y-40345952D01*
X112897533Y-40345952D02*
X113611819Y-40155476D01*
X113611819Y-40155476D02*
X112611819Y-39917381D01*
X113564200Y-39584047D02*
X113611819Y-39441190D01*
X113611819Y-39441190D02*
X113611819Y-39203095D01*
X113611819Y-39203095D02*
X113564200Y-39107857D01*
X113564200Y-39107857D02*
X113516580Y-39060238D01*
X113516580Y-39060238D02*
X113421342Y-39012619D01*
X113421342Y-39012619D02*
X113326104Y-39012619D01*
X113326104Y-39012619D02*
X113230866Y-39060238D01*
X113230866Y-39060238D02*
X113183247Y-39107857D01*
X113183247Y-39107857D02*
X113135628Y-39203095D01*
X113135628Y-39203095D02*
X113088009Y-39393571D01*
X113088009Y-39393571D02*
X113040390Y-39488809D01*
X113040390Y-39488809D02*
X112992771Y-39536428D01*
X112992771Y-39536428D02*
X112897533Y-39584047D01*
X112897533Y-39584047D02*
X112802295Y-39584047D01*
X112802295Y-39584047D02*
X112707057Y-39536428D01*
X112707057Y-39536428D02*
X112659438Y-39488809D01*
X112659438Y-39488809D02*
X112611819Y-39393571D01*
X112611819Y-39393571D02*
X112611819Y-39155476D01*
X112611819Y-39155476D02*
X112659438Y-39012619D01*
X112707057Y-38631666D02*
X112659438Y-38584047D01*
X112659438Y-38584047D02*
X112611819Y-38488809D01*
X112611819Y-38488809D02*
X112611819Y-38250714D01*
X112611819Y-38250714D02*
X112659438Y-38155476D01*
X112659438Y-38155476D02*
X112707057Y-38107857D01*
X112707057Y-38107857D02*
X112802295Y-38060238D01*
X112802295Y-38060238D02*
X112897533Y-38060238D01*
X112897533Y-38060238D02*
X113040390Y-38107857D01*
X113040390Y-38107857D02*
X113611819Y-38679285D01*
X113611819Y-38679285D02*
X113611819Y-38060238D01*
X113040390Y-37488809D02*
X112992771Y-37584047D01*
X112992771Y-37584047D02*
X112945152Y-37631666D01*
X112945152Y-37631666D02*
X112849914Y-37679285D01*
X112849914Y-37679285D02*
X112802295Y-37679285D01*
X112802295Y-37679285D02*
X112707057Y-37631666D01*
X112707057Y-37631666D02*
X112659438Y-37584047D01*
X112659438Y-37584047D02*
X112611819Y-37488809D01*
X112611819Y-37488809D02*
X112611819Y-37298333D01*
X112611819Y-37298333D02*
X112659438Y-37203095D01*
X112659438Y-37203095D02*
X112707057Y-37155476D01*
X112707057Y-37155476D02*
X112802295Y-37107857D01*
X112802295Y-37107857D02*
X112849914Y-37107857D01*
X112849914Y-37107857D02*
X112945152Y-37155476D01*
X112945152Y-37155476D02*
X112992771Y-37203095D01*
X112992771Y-37203095D02*
X113040390Y-37298333D01*
X113040390Y-37298333D02*
X113040390Y-37488809D01*
X113040390Y-37488809D02*
X113088009Y-37584047D01*
X113088009Y-37584047D02*
X113135628Y-37631666D01*
X113135628Y-37631666D02*
X113230866Y-37679285D01*
X113230866Y-37679285D02*
X113421342Y-37679285D01*
X113421342Y-37679285D02*
X113516580Y-37631666D01*
X113516580Y-37631666D02*
X113564200Y-37584047D01*
X113564200Y-37584047D02*
X113611819Y-37488809D01*
X113611819Y-37488809D02*
X113611819Y-37298333D01*
X113611819Y-37298333D02*
X113564200Y-37203095D01*
X113564200Y-37203095D02*
X113516580Y-37155476D01*
X113516580Y-37155476D02*
X113421342Y-37107857D01*
X113421342Y-37107857D02*
X113230866Y-37107857D01*
X113230866Y-37107857D02*
X113135628Y-37155476D01*
X113135628Y-37155476D02*
X113088009Y-37203095D01*
X113088009Y-37203095D02*
X113040390Y-37298333D01*
X113611819Y-36155476D02*
X113611819Y-36726904D01*
X113611819Y-36441190D02*
X112611819Y-36441190D01*
X112611819Y-36441190D02*
X112754676Y-36536428D01*
X112754676Y-36536428D02*
X112849914Y-36631666D01*
X112849914Y-36631666D02*
X112897533Y-36726904D01*
X112707057Y-35774523D02*
X112659438Y-35726904D01*
X112659438Y-35726904D02*
X112611819Y-35631666D01*
X112611819Y-35631666D02*
X112611819Y-35393571D01*
X112611819Y-35393571D02*
X112659438Y-35298333D01*
X112659438Y-35298333D02*
X112707057Y-35250714D01*
X112707057Y-35250714D02*
X112802295Y-35203095D01*
X112802295Y-35203095D02*
X112897533Y-35203095D01*
X112897533Y-35203095D02*
X113040390Y-35250714D01*
X113040390Y-35250714D02*
X113611819Y-35822142D01*
X113611819Y-35822142D02*
X113611819Y-35203095D01*
X113088009Y-34441190D02*
X113135628Y-34298333D01*
X113135628Y-34298333D02*
X113183247Y-34250714D01*
X113183247Y-34250714D02*
X113278485Y-34203095D01*
X113278485Y-34203095D02*
X113421342Y-34203095D01*
X113421342Y-34203095D02*
X113516580Y-34250714D01*
X113516580Y-34250714D02*
X113564200Y-34298333D01*
X113564200Y-34298333D02*
X113611819Y-34393571D01*
X113611819Y-34393571D02*
X113611819Y-34774523D01*
X113611819Y-34774523D02*
X112611819Y-34774523D01*
X112611819Y-34774523D02*
X112611819Y-34441190D01*
X112611819Y-34441190D02*
X112659438Y-34345952D01*
X112659438Y-34345952D02*
X112707057Y-34298333D01*
X112707057Y-34298333D02*
X112802295Y-34250714D01*
X112802295Y-34250714D02*
X112897533Y-34250714D01*
X112897533Y-34250714D02*
X112992771Y-34298333D01*
X112992771Y-34298333D02*
X113040390Y-34345952D01*
X113040390Y-34345952D02*
X113088009Y-34441190D01*
X113088009Y-34441190D02*
X113088009Y-34774523D01*
X90904761Y-50550057D02*
X90809523Y-50502438D01*
X90809523Y-50502438D02*
X90714285Y-50407200D01*
X90714285Y-50407200D02*
X90571428Y-50264342D01*
X90571428Y-50264342D02*
X90476190Y-50216723D01*
X90476190Y-50216723D02*
X90380952Y-50216723D01*
X90428571Y-50454819D02*
X90333333Y-50407200D01*
X90333333Y-50407200D02*
X90238095Y-50311961D01*
X90238095Y-50311961D02*
X90190476Y-50121485D01*
X90190476Y-50121485D02*
X90190476Y-49788152D01*
X90190476Y-49788152D02*
X90238095Y-49597676D01*
X90238095Y-49597676D02*
X90333333Y-49502438D01*
X90333333Y-49502438D02*
X90428571Y-49454819D01*
X90428571Y-49454819D02*
X90619047Y-49454819D01*
X90619047Y-49454819D02*
X90714285Y-49502438D01*
X90714285Y-49502438D02*
X90809523Y-49597676D01*
X90809523Y-49597676D02*
X90857142Y-49788152D01*
X90857142Y-49788152D02*
X90857142Y-50121485D01*
X90857142Y-50121485D02*
X90809523Y-50311961D01*
X90809523Y-50311961D02*
X90714285Y-50407200D01*
X90714285Y-50407200D02*
X90619047Y-50454819D01*
X90619047Y-50454819D02*
X90428571Y-50454819D01*
X91238095Y-49550057D02*
X91285714Y-49502438D01*
X91285714Y-49502438D02*
X91380952Y-49454819D01*
X91380952Y-49454819D02*
X91619047Y-49454819D01*
X91619047Y-49454819D02*
X91714285Y-49502438D01*
X91714285Y-49502438D02*
X91761904Y-49550057D01*
X91761904Y-49550057D02*
X91809523Y-49645295D01*
X91809523Y-49645295D02*
X91809523Y-49740533D01*
X91809523Y-49740533D02*
X91761904Y-49883390D01*
X91761904Y-49883390D02*
X91190476Y-50454819D01*
X91190476Y-50454819D02*
X91809523Y-50454819D01*
X91265714Y-54668057D02*
X91313333Y-54620438D01*
X91313333Y-54620438D02*
X91408571Y-54572819D01*
X91408571Y-54572819D02*
X91646666Y-54572819D01*
X91646666Y-54572819D02*
X91741904Y-54620438D01*
X91741904Y-54620438D02*
X91789523Y-54668057D01*
X91789523Y-54668057D02*
X91837142Y-54763295D01*
X91837142Y-54763295D02*
X91837142Y-54858533D01*
X91837142Y-54858533D02*
X91789523Y-55001390D01*
X91789523Y-55001390D02*
X91218095Y-55572819D01*
X91218095Y-55572819D02*
X91837142Y-55572819D01*
X92265714Y-55572819D02*
X92265714Y-54572819D01*
X92265714Y-54572819D02*
X92837142Y-55572819D01*
X92837142Y-55572819D02*
X92837142Y-54572819D01*
X93265714Y-54668057D02*
X93313333Y-54620438D01*
X93313333Y-54620438D02*
X93408571Y-54572819D01*
X93408571Y-54572819D02*
X93646666Y-54572819D01*
X93646666Y-54572819D02*
X93741904Y-54620438D01*
X93741904Y-54620438D02*
X93789523Y-54668057D01*
X93789523Y-54668057D02*
X93837142Y-54763295D01*
X93837142Y-54763295D02*
X93837142Y-54858533D01*
X93837142Y-54858533D02*
X93789523Y-55001390D01*
X93789523Y-55001390D02*
X93218095Y-55572819D01*
X93218095Y-55572819D02*
X93837142Y-55572819D01*
X94218095Y-54668057D02*
X94265714Y-54620438D01*
X94265714Y-54620438D02*
X94360952Y-54572819D01*
X94360952Y-54572819D02*
X94599047Y-54572819D01*
X94599047Y-54572819D02*
X94694285Y-54620438D01*
X94694285Y-54620438D02*
X94741904Y-54668057D01*
X94741904Y-54668057D02*
X94789523Y-54763295D01*
X94789523Y-54763295D02*
X94789523Y-54858533D01*
X94789523Y-54858533D02*
X94741904Y-55001390D01*
X94741904Y-55001390D02*
X94170476Y-55572819D01*
X94170476Y-55572819D02*
X94789523Y-55572819D01*
X95170476Y-54668057D02*
X95218095Y-54620438D01*
X95218095Y-54620438D02*
X95313333Y-54572819D01*
X95313333Y-54572819D02*
X95551428Y-54572819D01*
X95551428Y-54572819D02*
X95646666Y-54620438D01*
X95646666Y-54620438D02*
X95694285Y-54668057D01*
X95694285Y-54668057D02*
X95741904Y-54763295D01*
X95741904Y-54763295D02*
X95741904Y-54858533D01*
X95741904Y-54858533D02*
X95694285Y-55001390D01*
X95694285Y-55001390D02*
X95122857Y-55572819D01*
X95122857Y-55572819D02*
X95741904Y-55572819D01*
X96122857Y-54668057D02*
X96170476Y-54620438D01*
X96170476Y-54620438D02*
X96265714Y-54572819D01*
X96265714Y-54572819D02*
X96503809Y-54572819D01*
X96503809Y-54572819D02*
X96599047Y-54620438D01*
X96599047Y-54620438D02*
X96646666Y-54668057D01*
X96646666Y-54668057D02*
X96694285Y-54763295D01*
X96694285Y-54763295D02*
X96694285Y-54858533D01*
X96694285Y-54858533D02*
X96646666Y-55001390D01*
X96646666Y-55001390D02*
X96075238Y-55572819D01*
X96075238Y-55572819D02*
X96694285Y-55572819D01*
X100546819Y-54990904D02*
X101356342Y-54990904D01*
X101356342Y-54990904D02*
X101451580Y-54943285D01*
X101451580Y-54943285D02*
X101499200Y-54895666D01*
X101499200Y-54895666D02*
X101546819Y-54800428D01*
X101546819Y-54800428D02*
X101546819Y-54609952D01*
X101546819Y-54609952D02*
X101499200Y-54514714D01*
X101499200Y-54514714D02*
X101451580Y-54467095D01*
X101451580Y-54467095D02*
X101356342Y-54419476D01*
X101356342Y-54419476D02*
X100546819Y-54419476D01*
X100546819Y-53514714D02*
X100546819Y-53705190D01*
X100546819Y-53705190D02*
X100594438Y-53800428D01*
X100594438Y-53800428D02*
X100642057Y-53848047D01*
X100642057Y-53848047D02*
X100784914Y-53943285D01*
X100784914Y-53943285D02*
X100975390Y-53990904D01*
X100975390Y-53990904D02*
X101356342Y-53990904D01*
X101356342Y-53990904D02*
X101451580Y-53943285D01*
X101451580Y-53943285D02*
X101499200Y-53895666D01*
X101499200Y-53895666D02*
X101546819Y-53800428D01*
X101546819Y-53800428D02*
X101546819Y-53609952D01*
X101546819Y-53609952D02*
X101499200Y-53514714D01*
X101499200Y-53514714D02*
X101451580Y-53467095D01*
X101451580Y-53467095D02*
X101356342Y-53419476D01*
X101356342Y-53419476D02*
X101118247Y-53419476D01*
X101118247Y-53419476D02*
X101023009Y-53467095D01*
X101023009Y-53467095D02*
X100975390Y-53514714D01*
X100975390Y-53514714D02*
X100927771Y-53609952D01*
X100927771Y-53609952D02*
X100927771Y-53800428D01*
X100927771Y-53800428D02*
X100975390Y-53895666D01*
X100975390Y-53895666D02*
X101023009Y-53943285D01*
X101023009Y-53943285D02*
X101118247Y-53990904D01*
X102785104Y-54879475D02*
X102785104Y-54403285D01*
X103070819Y-54974713D02*
X102070819Y-54641380D01*
X102070819Y-54641380D02*
X103070819Y-54308047D01*
X103070819Y-53974713D02*
X102070819Y-53974713D01*
X102070819Y-53974713D02*
X102785104Y-53641380D01*
X102785104Y-53641380D02*
X102070819Y-53308047D01*
X102070819Y-53308047D02*
X103070819Y-53308047D01*
X103023200Y-52879475D02*
X103070819Y-52736618D01*
X103070819Y-52736618D02*
X103070819Y-52498523D01*
X103070819Y-52498523D02*
X103023200Y-52403285D01*
X103023200Y-52403285D02*
X102975580Y-52355666D01*
X102975580Y-52355666D02*
X102880342Y-52308047D01*
X102880342Y-52308047D02*
X102785104Y-52308047D01*
X102785104Y-52308047D02*
X102689866Y-52355666D01*
X102689866Y-52355666D02*
X102642247Y-52403285D01*
X102642247Y-52403285D02*
X102594628Y-52498523D01*
X102594628Y-52498523D02*
X102547009Y-52688999D01*
X102547009Y-52688999D02*
X102499390Y-52784237D01*
X102499390Y-52784237D02*
X102451771Y-52831856D01*
X102451771Y-52831856D02*
X102356533Y-52879475D01*
X102356533Y-52879475D02*
X102261295Y-52879475D01*
X102261295Y-52879475D02*
X102166057Y-52831856D01*
X102166057Y-52831856D02*
X102118438Y-52784237D01*
X102118438Y-52784237D02*
X102070819Y-52688999D01*
X102070819Y-52688999D02*
X102070819Y-52450904D01*
X102070819Y-52450904D02*
X102118438Y-52308047D01*
X103070819Y-51355666D02*
X103070819Y-51927094D01*
X103070819Y-51641380D02*
X102070819Y-51641380D01*
X102070819Y-51641380D02*
X102213676Y-51736618D01*
X102213676Y-51736618D02*
X102308914Y-51831856D01*
X102308914Y-51831856D02*
X102356533Y-51927094D01*
X103070819Y-50403285D02*
X103070819Y-50974713D01*
X103070819Y-50688999D02*
X102070819Y-50688999D01*
X102070819Y-50688999D02*
X102213676Y-50784237D01*
X102213676Y-50784237D02*
X102308914Y-50879475D01*
X102308914Y-50879475D02*
X102356533Y-50974713D01*
X103070819Y-49450904D02*
X103070819Y-50022332D01*
X103070819Y-49736618D02*
X102070819Y-49736618D01*
X102070819Y-49736618D02*
X102213676Y-49831856D01*
X102213676Y-49831856D02*
X102308914Y-49927094D01*
X102308914Y-49927094D02*
X102356533Y-50022332D01*
X102070819Y-49117570D02*
X102070819Y-48450904D01*
X102070819Y-48450904D02*
X103070819Y-48879475D01*
X84909819Y-41441666D02*
X84433628Y-41774999D01*
X84909819Y-42013094D02*
X83909819Y-42013094D01*
X83909819Y-42013094D02*
X83909819Y-41632142D01*
X83909819Y-41632142D02*
X83957438Y-41536904D01*
X83957438Y-41536904D02*
X84005057Y-41489285D01*
X84005057Y-41489285D02*
X84100295Y-41441666D01*
X84100295Y-41441666D02*
X84243152Y-41441666D01*
X84243152Y-41441666D02*
X84338390Y-41489285D01*
X84338390Y-41489285D02*
X84386009Y-41536904D01*
X84386009Y-41536904D02*
X84433628Y-41632142D01*
X84433628Y-41632142D02*
X84433628Y-42013094D01*
X83909819Y-41108332D02*
X83909819Y-40489285D01*
X83909819Y-40489285D02*
X84290771Y-40822618D01*
X84290771Y-40822618D02*
X84290771Y-40679761D01*
X84290771Y-40679761D02*
X84338390Y-40584523D01*
X84338390Y-40584523D02*
X84386009Y-40536904D01*
X84386009Y-40536904D02*
X84481247Y-40489285D01*
X84481247Y-40489285D02*
X84719342Y-40489285D01*
X84719342Y-40489285D02*
X84814580Y-40536904D01*
X84814580Y-40536904D02*
X84862200Y-40584523D01*
X84862200Y-40584523D02*
X84909819Y-40679761D01*
X84909819Y-40679761D02*
X84909819Y-40965475D01*
X84909819Y-40965475D02*
X84862200Y-41060713D01*
X84862200Y-41060713D02*
X84814580Y-41108332D01*
X89712765Y-41785007D02*
X89141337Y-41785007D01*
X89427051Y-41785007D02*
X89427051Y-40785007D01*
X89427051Y-40785007D02*
X89331813Y-40927864D01*
X89331813Y-40927864D02*
X89236575Y-41023102D01*
X89236575Y-41023102D02*
X89141337Y-41070721D01*
X90141337Y-41785007D02*
X90141337Y-40785007D01*
X90236575Y-41404054D02*
X90522289Y-41785007D01*
X90522289Y-41118340D02*
X90141337Y-41499292D01*
X102308819Y-34837666D02*
X101832628Y-35170999D01*
X102308819Y-35409094D02*
X101308819Y-35409094D01*
X101308819Y-35409094D02*
X101308819Y-35028142D01*
X101308819Y-35028142D02*
X101356438Y-34932904D01*
X101356438Y-34932904D02*
X101404057Y-34885285D01*
X101404057Y-34885285D02*
X101499295Y-34837666D01*
X101499295Y-34837666D02*
X101642152Y-34837666D01*
X101642152Y-34837666D02*
X101737390Y-34885285D01*
X101737390Y-34885285D02*
X101785009Y-34932904D01*
X101785009Y-34932904D02*
X101832628Y-35028142D01*
X101832628Y-35028142D02*
X101832628Y-35409094D01*
X101404057Y-34456713D02*
X101356438Y-34409094D01*
X101356438Y-34409094D02*
X101308819Y-34313856D01*
X101308819Y-34313856D02*
X101308819Y-34075761D01*
X101308819Y-34075761D02*
X101356438Y-33980523D01*
X101356438Y-33980523D02*
X101404057Y-33932904D01*
X101404057Y-33932904D02*
X101499295Y-33885285D01*
X101499295Y-33885285D02*
X101594533Y-33885285D01*
X101594533Y-33885285D02*
X101737390Y-33932904D01*
X101737390Y-33932904D02*
X102308819Y-34504332D01*
X102308819Y-34504332D02*
X102308819Y-33885285D01*
X105632476Y-34562057D02*
X105680095Y-34514438D01*
X105680095Y-34514438D02*
X105775333Y-34466819D01*
X105775333Y-34466819D02*
X106013428Y-34466819D01*
X106013428Y-34466819D02*
X106108666Y-34514438D01*
X106108666Y-34514438D02*
X106156285Y-34562057D01*
X106156285Y-34562057D02*
X106203904Y-34657295D01*
X106203904Y-34657295D02*
X106203904Y-34752533D01*
X106203904Y-34752533D02*
X106156285Y-34895390D01*
X106156285Y-34895390D02*
X105584857Y-35466819D01*
X105584857Y-35466819D02*
X106203904Y-35466819D01*
X106584857Y-34562057D02*
X106632476Y-34514438D01*
X106632476Y-34514438D02*
X106727714Y-34466819D01*
X106727714Y-34466819D02*
X106965809Y-34466819D01*
X106965809Y-34466819D02*
X107061047Y-34514438D01*
X107061047Y-34514438D02*
X107108666Y-34562057D01*
X107108666Y-34562057D02*
X107156285Y-34657295D01*
X107156285Y-34657295D02*
X107156285Y-34752533D01*
X107156285Y-34752533D02*
X107108666Y-34895390D01*
X107108666Y-34895390D02*
X106537238Y-35466819D01*
X106537238Y-35466819D02*
X107156285Y-35466819D01*
X107775333Y-34466819D02*
X107870571Y-34466819D01*
X107870571Y-34466819D02*
X107965809Y-34514438D01*
X107965809Y-34514438D02*
X108013428Y-34562057D01*
X108013428Y-34562057D02*
X108061047Y-34657295D01*
X108061047Y-34657295D02*
X108108666Y-34847771D01*
X108108666Y-34847771D02*
X108108666Y-35085866D01*
X108108666Y-35085866D02*
X108061047Y-35276342D01*
X108061047Y-35276342D02*
X108013428Y-35371580D01*
X108013428Y-35371580D02*
X107965809Y-35419200D01*
X107965809Y-35419200D02*
X107870571Y-35466819D01*
X107870571Y-35466819D02*
X107775333Y-35466819D01*
X107775333Y-35466819D02*
X107680095Y-35419200D01*
X107680095Y-35419200D02*
X107632476Y-35371580D01*
X107632476Y-35371580D02*
X107584857Y-35276342D01*
X107584857Y-35276342D02*
X107537238Y-35085866D01*
X107537238Y-35085866D02*
X107537238Y-34847771D01*
X107537238Y-34847771D02*
X107584857Y-34657295D01*
X107584857Y-34657295D02*
X107632476Y-34562057D01*
X107632476Y-34562057D02*
X107680095Y-34514438D01*
X107680095Y-34514438D02*
X107775333Y-34466819D01*
X108489619Y-35466819D02*
X108727714Y-35466819D01*
X108727714Y-35466819D02*
X108727714Y-35276342D01*
X108727714Y-35276342D02*
X108632476Y-35228723D01*
X108632476Y-35228723D02*
X108537238Y-35133485D01*
X108537238Y-35133485D02*
X108489619Y-34990628D01*
X108489619Y-34990628D02*
X108489619Y-34752533D01*
X108489619Y-34752533D02*
X108537238Y-34609676D01*
X108537238Y-34609676D02*
X108632476Y-34514438D01*
X108632476Y-34514438D02*
X108775333Y-34466819D01*
X108775333Y-34466819D02*
X108965809Y-34466819D01*
X108965809Y-34466819D02*
X109108666Y-34514438D01*
X109108666Y-34514438D02*
X109203904Y-34609676D01*
X109203904Y-34609676D02*
X109251523Y-34752533D01*
X109251523Y-34752533D02*
X109251523Y-34990628D01*
X109251523Y-34990628D02*
X109203904Y-35133485D01*
X109203904Y-35133485D02*
X109108666Y-35228723D01*
X109108666Y-35228723D02*
X109013428Y-35276342D01*
X109013428Y-35276342D02*
X109013428Y-35466819D01*
X109013428Y-35466819D02*
X109251523Y-35466819D01*
X111448095Y-43604819D02*
X111448095Y-44414342D01*
X111448095Y-44414342D02*
X111495714Y-44509580D01*
X111495714Y-44509580D02*
X111543333Y-44557200D01*
X111543333Y-44557200D02*
X111638571Y-44604819D01*
X111638571Y-44604819D02*
X111829047Y-44604819D01*
X111829047Y-44604819D02*
X111924285Y-44557200D01*
X111924285Y-44557200D02*
X111971904Y-44509580D01*
X111971904Y-44509580D02*
X112019523Y-44414342D01*
X112019523Y-44414342D02*
X112019523Y-43604819D01*
X112448095Y-43700057D02*
X112495714Y-43652438D01*
X112495714Y-43652438D02*
X112590952Y-43604819D01*
X112590952Y-43604819D02*
X112829047Y-43604819D01*
X112829047Y-43604819D02*
X112924285Y-43652438D01*
X112924285Y-43652438D02*
X112971904Y-43700057D01*
X112971904Y-43700057D02*
X113019523Y-43795295D01*
X113019523Y-43795295D02*
X113019523Y-43890533D01*
X113019523Y-43890533D02*
X112971904Y-44033390D01*
X112971904Y-44033390D02*
X112400476Y-44604819D01*
X112400476Y-44604819D02*
X113019523Y-44604819D01*
X115416904Y-43969652D02*
X115416904Y-44636319D01*
X115178809Y-43588700D02*
X114940714Y-44302985D01*
X114940714Y-44302985D02*
X115559761Y-44302985D01*
X116369285Y-43969652D02*
X116369285Y-44636319D01*
X116131190Y-43588700D02*
X115893095Y-44302985D01*
X115893095Y-44302985D02*
X116512142Y-44302985D01*
X117321666Y-43636319D02*
X117131190Y-43636319D01*
X117131190Y-43636319D02*
X117035952Y-43683938D01*
X117035952Y-43683938D02*
X116988333Y-43731557D01*
X116988333Y-43731557D02*
X116893095Y-43874414D01*
X116893095Y-43874414D02*
X116845476Y-44064890D01*
X116845476Y-44064890D02*
X116845476Y-44445842D01*
X116845476Y-44445842D02*
X116893095Y-44541080D01*
X116893095Y-44541080D02*
X116940714Y-44588700D01*
X116940714Y-44588700D02*
X117035952Y-44636319D01*
X117035952Y-44636319D02*
X117226428Y-44636319D01*
X117226428Y-44636319D02*
X117321666Y-44588700D01*
X117321666Y-44588700D02*
X117369285Y-44541080D01*
X117369285Y-44541080D02*
X117416904Y-44445842D01*
X117416904Y-44445842D02*
X117416904Y-44207747D01*
X117416904Y-44207747D02*
X117369285Y-44112509D01*
X117369285Y-44112509D02*
X117321666Y-44064890D01*
X117321666Y-44064890D02*
X117226428Y-44017271D01*
X117226428Y-44017271D02*
X117035952Y-44017271D01*
X117035952Y-44017271D02*
X116940714Y-44064890D01*
X116940714Y-44064890D02*
X116893095Y-44112509D01*
X116893095Y-44112509D02*
X116845476Y-44207747D01*
X118274047Y-43636319D02*
X118083571Y-43636319D01*
X118083571Y-43636319D02*
X117988333Y-43683938D01*
X117988333Y-43683938D02*
X117940714Y-43731557D01*
X117940714Y-43731557D02*
X117845476Y-43874414D01*
X117845476Y-43874414D02*
X117797857Y-44064890D01*
X117797857Y-44064890D02*
X117797857Y-44445842D01*
X117797857Y-44445842D02*
X117845476Y-44541080D01*
X117845476Y-44541080D02*
X117893095Y-44588700D01*
X117893095Y-44588700D02*
X117988333Y-44636319D01*
X117988333Y-44636319D02*
X118178809Y-44636319D01*
X118178809Y-44636319D02*
X118274047Y-44588700D01*
X118274047Y-44588700D02*
X118321666Y-44541080D01*
X118321666Y-44541080D02*
X118369285Y-44445842D01*
X118369285Y-44445842D02*
X118369285Y-44207747D01*
X118369285Y-44207747D02*
X118321666Y-44112509D01*
X118321666Y-44112509D02*
X118274047Y-44064890D01*
X118274047Y-44064890D02*
X118178809Y-44017271D01*
X118178809Y-44017271D02*
X117988333Y-44017271D01*
X117988333Y-44017271D02*
X117893095Y-44064890D01*
X117893095Y-44064890D02*
X117845476Y-44112509D01*
X117845476Y-44112509D02*
X117797857Y-44207747D01*
X56221333Y-43539580D02*
X56173714Y-43587200D01*
X56173714Y-43587200D02*
X56030857Y-43634819D01*
X56030857Y-43634819D02*
X55935619Y-43634819D01*
X55935619Y-43634819D02*
X55792762Y-43587200D01*
X55792762Y-43587200D02*
X55697524Y-43491961D01*
X55697524Y-43491961D02*
X55649905Y-43396723D01*
X55649905Y-43396723D02*
X55602286Y-43206247D01*
X55602286Y-43206247D02*
X55602286Y-43063390D01*
X55602286Y-43063390D02*
X55649905Y-42872914D01*
X55649905Y-42872914D02*
X55697524Y-42777676D01*
X55697524Y-42777676D02*
X55792762Y-42682438D01*
X55792762Y-42682438D02*
X55935619Y-42634819D01*
X55935619Y-42634819D02*
X56030857Y-42634819D01*
X56030857Y-42634819D02*
X56173714Y-42682438D01*
X56173714Y-42682438D02*
X56221333Y-42730057D01*
X57173714Y-43634819D02*
X56602286Y-43634819D01*
X56888000Y-43634819D02*
X56888000Y-42634819D01*
X56888000Y-42634819D02*
X56792762Y-42777676D01*
X56792762Y-42777676D02*
X56697524Y-42872914D01*
X56697524Y-42872914D02*
X56602286Y-42920533D01*
X56364380Y-50746819D02*
X55792952Y-50746819D01*
X56078666Y-50746819D02*
X56078666Y-49746819D01*
X56078666Y-49746819D02*
X55983428Y-49889676D01*
X55983428Y-49889676D02*
X55888190Y-49984914D01*
X55888190Y-49984914D02*
X55792952Y-50032533D01*
X56983428Y-49746819D02*
X57078666Y-49746819D01*
X57078666Y-49746819D02*
X57173904Y-49794438D01*
X57173904Y-49794438D02*
X57221523Y-49842057D01*
X57221523Y-49842057D02*
X57269142Y-49937295D01*
X57269142Y-49937295D02*
X57316761Y-50127771D01*
X57316761Y-50127771D02*
X57316761Y-50365866D01*
X57316761Y-50365866D02*
X57269142Y-50556342D01*
X57269142Y-50556342D02*
X57221523Y-50651580D01*
X57221523Y-50651580D02*
X57173904Y-50699200D01*
X57173904Y-50699200D02*
X57078666Y-50746819D01*
X57078666Y-50746819D02*
X56983428Y-50746819D01*
X56983428Y-50746819D02*
X56888190Y-50699200D01*
X56888190Y-50699200D02*
X56840571Y-50651580D01*
X56840571Y-50651580D02*
X56792952Y-50556342D01*
X56792952Y-50556342D02*
X56745333Y-50365866D01*
X56745333Y-50365866D02*
X56745333Y-50127771D01*
X56745333Y-50127771D02*
X56792952Y-49937295D01*
X56792952Y-49937295D02*
X56840571Y-49842057D01*
X56840571Y-49842057D02*
X56888190Y-49794438D01*
X56888190Y-49794438D02*
X56983428Y-49746819D01*
X57935809Y-49746819D02*
X58031047Y-49746819D01*
X58031047Y-49746819D02*
X58126285Y-49794438D01*
X58126285Y-49794438D02*
X58173904Y-49842057D01*
X58173904Y-49842057D02*
X58221523Y-49937295D01*
X58221523Y-49937295D02*
X58269142Y-50127771D01*
X58269142Y-50127771D02*
X58269142Y-50365866D01*
X58269142Y-50365866D02*
X58221523Y-50556342D01*
X58221523Y-50556342D02*
X58173904Y-50651580D01*
X58173904Y-50651580D02*
X58126285Y-50699200D01*
X58126285Y-50699200D02*
X58031047Y-50746819D01*
X58031047Y-50746819D02*
X57935809Y-50746819D01*
X57935809Y-50746819D02*
X57840571Y-50699200D01*
X57840571Y-50699200D02*
X57792952Y-50651580D01*
X57792952Y-50651580D02*
X57745333Y-50556342D01*
X57745333Y-50556342D02*
X57697714Y-50365866D01*
X57697714Y-50365866D02*
X57697714Y-50127771D01*
X57697714Y-50127771D02*
X57745333Y-49937295D01*
X57745333Y-49937295D02*
X57792952Y-49842057D01*
X57792952Y-49842057D02*
X57840571Y-49794438D01*
X57840571Y-49794438D02*
X57935809Y-49746819D01*
X59126285Y-50080152D02*
X59126285Y-50746819D01*
X58697714Y-50080152D02*
X58697714Y-50603961D01*
X58697714Y-50603961D02*
X58745333Y-50699200D01*
X58745333Y-50699200D02*
X58840571Y-50746819D01*
X58840571Y-50746819D02*
X58983428Y-50746819D01*
X58983428Y-50746819D02*
X59078666Y-50699200D01*
X59078666Y-50699200D02*
X59126285Y-50651580D01*
X59935809Y-50223009D02*
X59602476Y-50223009D01*
X59602476Y-50746819D02*
X59602476Y-49746819D01*
X59602476Y-49746819D02*
X60078666Y-49746819D01*
X70442900Y-44402026D02*
X71252423Y-44402026D01*
X71252423Y-44402026D02*
X71347661Y-44354407D01*
X71347661Y-44354407D02*
X71395281Y-44306788D01*
X71395281Y-44306788D02*
X71442900Y-44211550D01*
X71442900Y-44211550D02*
X71442900Y-44021074D01*
X71442900Y-44021074D02*
X71395281Y-43925836D01*
X71395281Y-43925836D02*
X71347661Y-43878217D01*
X71347661Y-43878217D02*
X71252423Y-43830598D01*
X71252423Y-43830598D02*
X70442900Y-43830598D01*
X71442900Y-42830598D02*
X71442900Y-43402026D01*
X71442900Y-43116312D02*
X70442900Y-43116312D01*
X70442900Y-43116312D02*
X70585757Y-43211550D01*
X70585757Y-43211550D02*
X70680995Y-43306788D01*
X70680995Y-43306788D02*
X70728614Y-43402026D01*
X72419090Y-47378216D02*
X72419090Y-47044883D01*
X72942900Y-46902026D02*
X72942900Y-47378216D01*
X72942900Y-47378216D02*
X71942900Y-47378216D01*
X71942900Y-47378216D02*
X71942900Y-46902026D01*
X72895281Y-46521073D02*
X72942900Y-46378216D01*
X72942900Y-46378216D02*
X72942900Y-46140121D01*
X72942900Y-46140121D02*
X72895281Y-46044883D01*
X72895281Y-46044883D02*
X72847661Y-45997264D01*
X72847661Y-45997264D02*
X72752423Y-45949645D01*
X72752423Y-45949645D02*
X72657185Y-45949645D01*
X72657185Y-45949645D02*
X72561947Y-45997264D01*
X72561947Y-45997264D02*
X72514328Y-46044883D01*
X72514328Y-46044883D02*
X72466709Y-46140121D01*
X72466709Y-46140121D02*
X72419090Y-46330597D01*
X72419090Y-46330597D02*
X72371471Y-46425835D01*
X72371471Y-46425835D02*
X72323852Y-46473454D01*
X72323852Y-46473454D02*
X72228614Y-46521073D01*
X72228614Y-46521073D02*
X72133376Y-46521073D01*
X72133376Y-46521073D02*
X72038138Y-46473454D01*
X72038138Y-46473454D02*
X71990519Y-46425835D01*
X71990519Y-46425835D02*
X71942900Y-46330597D01*
X71942900Y-46330597D02*
X71942900Y-46092502D01*
X71942900Y-46092502D02*
X71990519Y-45949645D01*
X72942900Y-45521073D02*
X71942900Y-45521073D01*
X71942900Y-45521073D02*
X71942900Y-45140121D01*
X71942900Y-45140121D02*
X71990519Y-45044883D01*
X71990519Y-45044883D02*
X72038138Y-44997264D01*
X72038138Y-44997264D02*
X72133376Y-44949645D01*
X72133376Y-44949645D02*
X72276233Y-44949645D01*
X72276233Y-44949645D02*
X72371471Y-44997264D01*
X72371471Y-44997264D02*
X72419090Y-45044883D01*
X72419090Y-45044883D02*
X72466709Y-45140121D01*
X72466709Y-45140121D02*
X72466709Y-45521073D01*
X71942900Y-44616311D02*
X71942900Y-43997264D01*
X71942900Y-43997264D02*
X72323852Y-44330597D01*
X72323852Y-44330597D02*
X72323852Y-44187740D01*
X72323852Y-44187740D02*
X72371471Y-44092502D01*
X72371471Y-44092502D02*
X72419090Y-44044883D01*
X72419090Y-44044883D02*
X72514328Y-43997264D01*
X72514328Y-43997264D02*
X72752423Y-43997264D01*
X72752423Y-43997264D02*
X72847661Y-44044883D01*
X72847661Y-44044883D02*
X72895281Y-44092502D01*
X72895281Y-44092502D02*
X72942900Y-44187740D01*
X72942900Y-44187740D02*
X72942900Y-44473454D01*
X72942900Y-44473454D02*
X72895281Y-44568692D01*
X72895281Y-44568692D02*
X72847661Y-44616311D01*
X72038138Y-43616311D02*
X71990519Y-43568692D01*
X71990519Y-43568692D02*
X71942900Y-43473454D01*
X71942900Y-43473454D02*
X71942900Y-43235359D01*
X71942900Y-43235359D02*
X71990519Y-43140121D01*
X71990519Y-43140121D02*
X72038138Y-43092502D01*
X72038138Y-43092502D02*
X72133376Y-43044883D01*
X72133376Y-43044883D02*
X72228614Y-43044883D01*
X72228614Y-43044883D02*
X72371471Y-43092502D01*
X72371471Y-43092502D02*
X72942900Y-43663930D01*
X72942900Y-43663930D02*
X72942900Y-43044883D01*
X72561947Y-42616311D02*
X72561947Y-41854407D01*
X72847661Y-40806788D02*
X72895281Y-40854407D01*
X72895281Y-40854407D02*
X72942900Y-40997264D01*
X72942900Y-40997264D02*
X72942900Y-41092502D01*
X72942900Y-41092502D02*
X72895281Y-41235359D01*
X72895281Y-41235359D02*
X72800042Y-41330597D01*
X72800042Y-41330597D02*
X72704804Y-41378216D01*
X72704804Y-41378216D02*
X72514328Y-41425835D01*
X72514328Y-41425835D02*
X72371471Y-41425835D01*
X72371471Y-41425835D02*
X72180995Y-41378216D01*
X72180995Y-41378216D02*
X72085757Y-41330597D01*
X72085757Y-41330597D02*
X71990519Y-41235359D01*
X71990519Y-41235359D02*
X71942900Y-41092502D01*
X71942900Y-41092502D02*
X71942900Y-40997264D01*
X71942900Y-40997264D02*
X71990519Y-40854407D01*
X71990519Y-40854407D02*
X72038138Y-40806788D01*
X71942900Y-40473454D02*
X71942900Y-39854407D01*
X71942900Y-39854407D02*
X72323852Y-40187740D01*
X72323852Y-40187740D02*
X72323852Y-40044883D01*
X72323852Y-40044883D02*
X72371471Y-39949645D01*
X72371471Y-39949645D02*
X72419090Y-39902026D01*
X72419090Y-39902026D02*
X72514328Y-39854407D01*
X72514328Y-39854407D02*
X72752423Y-39854407D01*
X72752423Y-39854407D02*
X72847661Y-39902026D01*
X72847661Y-39902026D02*
X72895281Y-39949645D01*
X72895281Y-39949645D02*
X72942900Y-40044883D01*
X72942900Y-40044883D02*
X72942900Y-40330597D01*
X72942900Y-40330597D02*
X72895281Y-40425835D01*
X72895281Y-40425835D02*
X72847661Y-40473454D01*
X78531301Y-52975302D02*
X78531301Y-53975302D01*
X78531301Y-53975302D02*
X78293206Y-53975302D01*
X78293206Y-53975302D02*
X78150349Y-53927683D01*
X78150349Y-53927683D02*
X78055111Y-53832445D01*
X78055111Y-53832445D02*
X78007492Y-53737207D01*
X78007492Y-53737207D02*
X77959873Y-53546731D01*
X77959873Y-53546731D02*
X77959873Y-53403874D01*
X77959873Y-53403874D02*
X78007492Y-53213398D01*
X78007492Y-53213398D02*
X78055111Y-53118160D01*
X78055111Y-53118160D02*
X78150349Y-53022922D01*
X78150349Y-53022922D02*
X78293206Y-52975302D01*
X78293206Y-52975302D02*
X78531301Y-52975302D01*
X77055111Y-53975302D02*
X77531301Y-53975302D01*
X77531301Y-53975302D02*
X77578920Y-53499112D01*
X77578920Y-53499112D02*
X77531301Y-53546731D01*
X77531301Y-53546731D02*
X77436063Y-53594350D01*
X77436063Y-53594350D02*
X77197968Y-53594350D01*
X77197968Y-53594350D02*
X77102730Y-53546731D01*
X77102730Y-53546731D02*
X77055111Y-53499112D01*
X77055111Y-53499112D02*
X77007492Y-53403874D01*
X77007492Y-53403874D02*
X77007492Y-53165779D01*
X77007492Y-53165779D02*
X77055111Y-53070541D01*
X77055111Y-53070541D02*
X77102730Y-53022922D01*
X77102730Y-53022922D02*
X77197968Y-52975302D01*
X77197968Y-52975302D02*
X77436063Y-52975302D01*
X77436063Y-52975302D02*
X77531301Y-53022922D01*
X77531301Y-53022922D02*
X77578920Y-53070541D01*
X66504860Y-51387683D02*
X66600098Y-51435302D01*
X66600098Y-51435302D02*
X66742955Y-51435302D01*
X66742955Y-51435302D02*
X66885812Y-51387683D01*
X66885812Y-51387683D02*
X66981050Y-51292445D01*
X66981050Y-51292445D02*
X67028669Y-51197207D01*
X67028669Y-51197207D02*
X67076288Y-51006731D01*
X67076288Y-51006731D02*
X67076288Y-50863874D01*
X67076288Y-50863874D02*
X67028669Y-50673398D01*
X67028669Y-50673398D02*
X66981050Y-50578160D01*
X66981050Y-50578160D02*
X66885812Y-50482922D01*
X66885812Y-50482922D02*
X66742955Y-50435302D01*
X66742955Y-50435302D02*
X66647717Y-50435302D01*
X66647717Y-50435302D02*
X66504860Y-50482922D01*
X66504860Y-50482922D02*
X66457241Y-50530541D01*
X66457241Y-50530541D02*
X66457241Y-50863874D01*
X66457241Y-50863874D02*
X66647717Y-50863874D01*
X78531301Y-35195302D02*
X78531301Y-36195302D01*
X78531301Y-36195302D02*
X78293206Y-36195302D01*
X78293206Y-36195302D02*
X78150349Y-36147683D01*
X78150349Y-36147683D02*
X78055111Y-36052445D01*
X78055111Y-36052445D02*
X78007492Y-35957207D01*
X78007492Y-35957207D02*
X77959873Y-35766731D01*
X77959873Y-35766731D02*
X77959873Y-35623874D01*
X77959873Y-35623874D02*
X78007492Y-35433398D01*
X78007492Y-35433398D02*
X78055111Y-35338160D01*
X78055111Y-35338160D02*
X78150349Y-35242922D01*
X78150349Y-35242922D02*
X78293206Y-35195302D01*
X78293206Y-35195302D02*
X78531301Y-35195302D01*
X77578920Y-36100064D02*
X77531301Y-36147683D01*
X77531301Y-36147683D02*
X77436063Y-36195302D01*
X77436063Y-36195302D02*
X77197968Y-36195302D01*
X77197968Y-36195302D02*
X77102730Y-36147683D01*
X77102730Y-36147683D02*
X77055111Y-36100064D01*
X77055111Y-36100064D02*
X77007492Y-36004826D01*
X77007492Y-36004826D02*
X77007492Y-35909588D01*
X77007492Y-35909588D02*
X77055111Y-35766731D01*
X77055111Y-35766731D02*
X77626539Y-35195302D01*
X77626539Y-35195302D02*
X77007492Y-35195302D01*
X76055111Y-35195302D02*
X76626539Y-35195302D01*
X76340825Y-35195302D02*
X76340825Y-36195302D01*
X76340825Y-36195302D02*
X76436063Y-36052445D01*
X76436063Y-36052445D02*
X76531301Y-35957207D01*
X76531301Y-35957207D02*
X76626539Y-35909588D01*
X67981050Y-35068302D02*
X67981050Y-36068302D01*
X67981050Y-36068302D02*
X67742955Y-36068302D01*
X67742955Y-36068302D02*
X67600098Y-36020683D01*
X67600098Y-36020683D02*
X67504860Y-35925445D01*
X67504860Y-35925445D02*
X67457241Y-35830207D01*
X67457241Y-35830207D02*
X67409622Y-35639731D01*
X67409622Y-35639731D02*
X67409622Y-35496874D01*
X67409622Y-35496874D02*
X67457241Y-35306398D01*
X67457241Y-35306398D02*
X67504860Y-35211160D01*
X67504860Y-35211160D02*
X67600098Y-35115922D01*
X67600098Y-35115922D02*
X67742955Y-35068302D01*
X67742955Y-35068302D02*
X67981050Y-35068302D01*
X66790574Y-36068302D02*
X66695336Y-36068302D01*
X66695336Y-36068302D02*
X66600098Y-36020683D01*
X66600098Y-36020683D02*
X66552479Y-35973064D01*
X66552479Y-35973064D02*
X66504860Y-35877826D01*
X66504860Y-35877826D02*
X66457241Y-35687350D01*
X66457241Y-35687350D02*
X66457241Y-35449255D01*
X66457241Y-35449255D02*
X66504860Y-35258779D01*
X66504860Y-35258779D02*
X66552479Y-35163541D01*
X66552479Y-35163541D02*
X66600098Y-35115922D01*
X66600098Y-35115922D02*
X66695336Y-35068302D01*
X66695336Y-35068302D02*
X66790574Y-35068302D01*
X66790574Y-35068302D02*
X66885812Y-35115922D01*
X66885812Y-35115922D02*
X66933431Y-35163541D01*
X66933431Y-35163541D02*
X66981050Y-35258779D01*
X66981050Y-35258779D02*
X67028669Y-35449255D01*
X67028669Y-35449255D02*
X67028669Y-35687350D01*
X67028669Y-35687350D02*
X66981050Y-35877826D01*
X66981050Y-35877826D02*
X66933431Y-35973064D01*
X66933431Y-35973064D02*
X66885812Y-36020683D01*
X66885812Y-36020683D02*
X66790574Y-36068302D01*
X67981050Y-42815302D02*
X67981050Y-43815302D01*
X67981050Y-43815302D02*
X67742955Y-43815302D01*
X67742955Y-43815302D02*
X67600098Y-43767683D01*
X67600098Y-43767683D02*
X67504860Y-43672445D01*
X67504860Y-43672445D02*
X67457241Y-43577207D01*
X67457241Y-43577207D02*
X67409622Y-43386731D01*
X67409622Y-43386731D02*
X67409622Y-43243874D01*
X67409622Y-43243874D02*
X67457241Y-43053398D01*
X67457241Y-43053398D02*
X67504860Y-42958160D01*
X67504860Y-42958160D02*
X67600098Y-42862922D01*
X67600098Y-42862922D02*
X67742955Y-42815302D01*
X67742955Y-42815302D02*
X67981050Y-42815302D01*
X67076288Y-43815302D02*
X66457241Y-43815302D01*
X66457241Y-43815302D02*
X66790574Y-43434350D01*
X66790574Y-43434350D02*
X66647717Y-43434350D01*
X66647717Y-43434350D02*
X66552479Y-43386731D01*
X66552479Y-43386731D02*
X66504860Y-43339112D01*
X66504860Y-43339112D02*
X66457241Y-43243874D01*
X66457241Y-43243874D02*
X66457241Y-43005779D01*
X66457241Y-43005779D02*
X66504860Y-42910541D01*
X66504860Y-42910541D02*
X66552479Y-42862922D01*
X66552479Y-42862922D02*
X66647717Y-42815302D01*
X66647717Y-42815302D02*
X66933431Y-42815302D01*
X66933431Y-42815302D02*
X67028669Y-42862922D01*
X67028669Y-42862922D02*
X67076288Y-42910541D01*
X67981050Y-37735302D02*
X67981050Y-38735302D01*
X67981050Y-38735302D02*
X67742955Y-38735302D01*
X67742955Y-38735302D02*
X67600098Y-38687683D01*
X67600098Y-38687683D02*
X67504860Y-38592445D01*
X67504860Y-38592445D02*
X67457241Y-38497207D01*
X67457241Y-38497207D02*
X67409622Y-38306731D01*
X67409622Y-38306731D02*
X67409622Y-38163874D01*
X67409622Y-38163874D02*
X67457241Y-37973398D01*
X67457241Y-37973398D02*
X67504860Y-37878160D01*
X67504860Y-37878160D02*
X67600098Y-37782922D01*
X67600098Y-37782922D02*
X67742955Y-37735302D01*
X67742955Y-37735302D02*
X67981050Y-37735302D01*
X66457241Y-37735302D02*
X67028669Y-37735302D01*
X66742955Y-37735302D02*
X66742955Y-38735302D01*
X66742955Y-38735302D02*
X66838193Y-38592445D01*
X66838193Y-38592445D02*
X66933431Y-38497207D01*
X66933431Y-38497207D02*
X67028669Y-38449588D01*
X68885812Y-48895302D02*
X68266765Y-48895302D01*
X68266765Y-48895302D02*
X68600098Y-48514350D01*
X68600098Y-48514350D02*
X68457241Y-48514350D01*
X68457241Y-48514350D02*
X68362003Y-48466731D01*
X68362003Y-48466731D02*
X68314384Y-48419112D01*
X68314384Y-48419112D02*
X68266765Y-48323874D01*
X68266765Y-48323874D02*
X68266765Y-48085779D01*
X68266765Y-48085779D02*
X68314384Y-47990541D01*
X68314384Y-47990541D02*
X68362003Y-47942922D01*
X68362003Y-47942922D02*
X68457241Y-47895302D01*
X68457241Y-47895302D02*
X68742955Y-47895302D01*
X68742955Y-47895302D02*
X68838193Y-47942922D01*
X68838193Y-47942922D02*
X68885812Y-47990541D01*
X67981050Y-48895302D02*
X67647717Y-47895302D01*
X67647717Y-47895302D02*
X67314384Y-48895302D01*
X67076288Y-48895302D02*
X66457241Y-48895302D01*
X66457241Y-48895302D02*
X66790574Y-48514350D01*
X66790574Y-48514350D02*
X66647717Y-48514350D01*
X66647717Y-48514350D02*
X66552479Y-48466731D01*
X66552479Y-48466731D02*
X66504860Y-48419112D01*
X66504860Y-48419112D02*
X66457241Y-48323874D01*
X66457241Y-48323874D02*
X66457241Y-48085779D01*
X66457241Y-48085779D02*
X66504860Y-47990541D01*
X66504860Y-47990541D02*
X66552479Y-47942922D01*
X66552479Y-47942922D02*
X66647717Y-47895302D01*
X66647717Y-47895302D02*
X66933431Y-47895302D01*
X66933431Y-47895302D02*
X67028669Y-47942922D01*
X67028669Y-47942922D02*
X67076288Y-47990541D01*
X67981050Y-40275302D02*
X67981050Y-41275302D01*
X67981050Y-41275302D02*
X67742955Y-41275302D01*
X67742955Y-41275302D02*
X67600098Y-41227683D01*
X67600098Y-41227683D02*
X67504860Y-41132445D01*
X67504860Y-41132445D02*
X67457241Y-41037207D01*
X67457241Y-41037207D02*
X67409622Y-40846731D01*
X67409622Y-40846731D02*
X67409622Y-40703874D01*
X67409622Y-40703874D02*
X67457241Y-40513398D01*
X67457241Y-40513398D02*
X67504860Y-40418160D01*
X67504860Y-40418160D02*
X67600098Y-40322922D01*
X67600098Y-40322922D02*
X67742955Y-40275302D01*
X67742955Y-40275302D02*
X67981050Y-40275302D01*
X67028669Y-41180064D02*
X66981050Y-41227683D01*
X66981050Y-41227683D02*
X66885812Y-41275302D01*
X66885812Y-41275302D02*
X66647717Y-41275302D01*
X66647717Y-41275302D02*
X66552479Y-41227683D01*
X66552479Y-41227683D02*
X66504860Y-41180064D01*
X66504860Y-41180064D02*
X66457241Y-41084826D01*
X66457241Y-41084826D02*
X66457241Y-40989588D01*
X66457241Y-40989588D02*
X66504860Y-40846731D01*
X66504860Y-40846731D02*
X67076288Y-40275302D01*
X67076288Y-40275302D02*
X66457241Y-40275302D01*
X78531301Y-40275302D02*
X78531301Y-41275302D01*
X78531301Y-41275302D02*
X78293206Y-41275302D01*
X78293206Y-41275302D02*
X78150349Y-41227683D01*
X78150349Y-41227683D02*
X78055111Y-41132445D01*
X78055111Y-41132445D02*
X78007492Y-41037207D01*
X78007492Y-41037207D02*
X77959873Y-40846731D01*
X77959873Y-40846731D02*
X77959873Y-40703874D01*
X77959873Y-40703874D02*
X78007492Y-40513398D01*
X78007492Y-40513398D02*
X78055111Y-40418160D01*
X78055111Y-40418160D02*
X78150349Y-40322922D01*
X78150349Y-40322922D02*
X78293206Y-40275302D01*
X78293206Y-40275302D02*
X78531301Y-40275302D01*
X77007492Y-40275302D02*
X77578920Y-40275302D01*
X77293206Y-40275302D02*
X77293206Y-41275302D01*
X77293206Y-41275302D02*
X77388444Y-41132445D01*
X77388444Y-41132445D02*
X77483682Y-41037207D01*
X77483682Y-41037207D02*
X77578920Y-40989588D01*
X76388444Y-41275302D02*
X76293206Y-41275302D01*
X76293206Y-41275302D02*
X76197968Y-41227683D01*
X76197968Y-41227683D02*
X76150349Y-41180064D01*
X76150349Y-41180064D02*
X76102730Y-41084826D01*
X76102730Y-41084826D02*
X76055111Y-40894350D01*
X76055111Y-40894350D02*
X76055111Y-40656255D01*
X76055111Y-40656255D02*
X76102730Y-40465779D01*
X76102730Y-40465779D02*
X76150349Y-40370541D01*
X76150349Y-40370541D02*
X76197968Y-40322922D01*
X76197968Y-40322922D02*
X76293206Y-40275302D01*
X76293206Y-40275302D02*
X76388444Y-40275302D01*
X76388444Y-40275302D02*
X76483682Y-40322922D01*
X76483682Y-40322922D02*
X76531301Y-40370541D01*
X76531301Y-40370541D02*
X76578920Y-40465779D01*
X76578920Y-40465779D02*
X76626539Y-40656255D01*
X76626539Y-40656255D02*
X76626539Y-40894350D01*
X76626539Y-40894350D02*
X76578920Y-41084826D01*
X76578920Y-41084826D02*
X76531301Y-41180064D01*
X76531301Y-41180064D02*
X76483682Y-41227683D01*
X76483682Y-41227683D02*
X76388444Y-41275302D01*
X67981050Y-45355302D02*
X67981050Y-46355302D01*
X67981050Y-46355302D02*
X67742955Y-46355302D01*
X67742955Y-46355302D02*
X67600098Y-46307683D01*
X67600098Y-46307683D02*
X67504860Y-46212445D01*
X67504860Y-46212445D02*
X67457241Y-46117207D01*
X67457241Y-46117207D02*
X67409622Y-45926731D01*
X67409622Y-45926731D02*
X67409622Y-45783874D01*
X67409622Y-45783874D02*
X67457241Y-45593398D01*
X67457241Y-45593398D02*
X67504860Y-45498160D01*
X67504860Y-45498160D02*
X67600098Y-45402922D01*
X67600098Y-45402922D02*
X67742955Y-45355302D01*
X67742955Y-45355302D02*
X67981050Y-45355302D01*
X66552479Y-46021969D02*
X66552479Y-45355302D01*
X66790574Y-46402922D02*
X67028669Y-45688636D01*
X67028669Y-45688636D02*
X66409622Y-45688636D01*
X78531301Y-47895302D02*
X78531301Y-48895302D01*
X78531301Y-48895302D02*
X78293206Y-48895302D01*
X78293206Y-48895302D02*
X78150349Y-48847683D01*
X78150349Y-48847683D02*
X78055111Y-48752445D01*
X78055111Y-48752445D02*
X78007492Y-48657207D01*
X78007492Y-48657207D02*
X77959873Y-48466731D01*
X77959873Y-48466731D02*
X77959873Y-48323874D01*
X77959873Y-48323874D02*
X78007492Y-48133398D01*
X78007492Y-48133398D02*
X78055111Y-48038160D01*
X78055111Y-48038160D02*
X78150349Y-47942922D01*
X78150349Y-47942922D02*
X78293206Y-47895302D01*
X78293206Y-47895302D02*
X78531301Y-47895302D01*
X77626539Y-48895302D02*
X76959873Y-48895302D01*
X76959873Y-48895302D02*
X77388444Y-47895302D01*
X67362003Y-53975302D02*
X67838193Y-53975302D01*
X67838193Y-53975302D02*
X67885812Y-53499112D01*
X67885812Y-53499112D02*
X67838193Y-53546731D01*
X67838193Y-53546731D02*
X67742955Y-53594350D01*
X67742955Y-53594350D02*
X67504860Y-53594350D01*
X67504860Y-53594350D02*
X67409622Y-53546731D01*
X67409622Y-53546731D02*
X67362003Y-53499112D01*
X67362003Y-53499112D02*
X67314384Y-53403874D01*
X67314384Y-53403874D02*
X67314384Y-53165779D01*
X67314384Y-53165779D02*
X67362003Y-53070541D01*
X67362003Y-53070541D02*
X67409622Y-53022922D01*
X67409622Y-53022922D02*
X67504860Y-52975302D01*
X67504860Y-52975302D02*
X67742955Y-52975302D01*
X67742955Y-52975302D02*
X67838193Y-53022922D01*
X67838193Y-53022922D02*
X67885812Y-53070541D01*
X67028669Y-53975302D02*
X66695336Y-52975302D01*
X66695336Y-52975302D02*
X66362003Y-53975302D01*
X78531301Y-50435302D02*
X78531301Y-51435302D01*
X78531301Y-51435302D02*
X78293206Y-51435302D01*
X78293206Y-51435302D02*
X78150349Y-51387683D01*
X78150349Y-51387683D02*
X78055111Y-51292445D01*
X78055111Y-51292445D02*
X78007492Y-51197207D01*
X78007492Y-51197207D02*
X77959873Y-51006731D01*
X77959873Y-51006731D02*
X77959873Y-50863874D01*
X77959873Y-50863874D02*
X78007492Y-50673398D01*
X78007492Y-50673398D02*
X78055111Y-50578160D01*
X78055111Y-50578160D02*
X78150349Y-50482922D01*
X78150349Y-50482922D02*
X78293206Y-50435302D01*
X78293206Y-50435302D02*
X78531301Y-50435302D01*
X77102730Y-51435302D02*
X77293206Y-51435302D01*
X77293206Y-51435302D02*
X77388444Y-51387683D01*
X77388444Y-51387683D02*
X77436063Y-51340064D01*
X77436063Y-51340064D02*
X77531301Y-51197207D01*
X77531301Y-51197207D02*
X77578920Y-51006731D01*
X77578920Y-51006731D02*
X77578920Y-50625779D01*
X77578920Y-50625779D02*
X77531301Y-50530541D01*
X77531301Y-50530541D02*
X77483682Y-50482922D01*
X77483682Y-50482922D02*
X77388444Y-50435302D01*
X77388444Y-50435302D02*
X77197968Y-50435302D01*
X77197968Y-50435302D02*
X77102730Y-50482922D01*
X77102730Y-50482922D02*
X77055111Y-50530541D01*
X77055111Y-50530541D02*
X77007492Y-50625779D01*
X77007492Y-50625779D02*
X77007492Y-50863874D01*
X77007492Y-50863874D02*
X77055111Y-50959112D01*
X77055111Y-50959112D02*
X77102730Y-51006731D01*
X77102730Y-51006731D02*
X77197968Y-51054350D01*
X77197968Y-51054350D02*
X77388444Y-51054350D01*
X77388444Y-51054350D02*
X77483682Y-51006731D01*
X77483682Y-51006731D02*
X77531301Y-50959112D01*
X77531301Y-50959112D02*
X77578920Y-50863874D01*
X78531301Y-37735302D02*
X78531301Y-38735302D01*
X78531301Y-38735302D02*
X78293206Y-38735302D01*
X78293206Y-38735302D02*
X78150349Y-38687683D01*
X78150349Y-38687683D02*
X78055111Y-38592445D01*
X78055111Y-38592445D02*
X78007492Y-38497207D01*
X78007492Y-38497207D02*
X77959873Y-38306731D01*
X77959873Y-38306731D02*
X77959873Y-38163874D01*
X77959873Y-38163874D02*
X78007492Y-37973398D01*
X78007492Y-37973398D02*
X78055111Y-37878160D01*
X78055111Y-37878160D02*
X78150349Y-37782922D01*
X78150349Y-37782922D02*
X78293206Y-37735302D01*
X78293206Y-37735302D02*
X78531301Y-37735302D01*
X77578920Y-38640064D02*
X77531301Y-38687683D01*
X77531301Y-38687683D02*
X77436063Y-38735302D01*
X77436063Y-38735302D02*
X77197968Y-38735302D01*
X77197968Y-38735302D02*
X77102730Y-38687683D01*
X77102730Y-38687683D02*
X77055111Y-38640064D01*
X77055111Y-38640064D02*
X77007492Y-38544826D01*
X77007492Y-38544826D02*
X77007492Y-38449588D01*
X77007492Y-38449588D02*
X77055111Y-38306731D01*
X77055111Y-38306731D02*
X77626539Y-37735302D01*
X77626539Y-37735302D02*
X77007492Y-37735302D01*
X76388444Y-38735302D02*
X76293206Y-38735302D01*
X76293206Y-38735302D02*
X76197968Y-38687683D01*
X76197968Y-38687683D02*
X76150349Y-38640064D01*
X76150349Y-38640064D02*
X76102730Y-38544826D01*
X76102730Y-38544826D02*
X76055111Y-38354350D01*
X76055111Y-38354350D02*
X76055111Y-38116255D01*
X76055111Y-38116255D02*
X76102730Y-37925779D01*
X76102730Y-37925779D02*
X76150349Y-37830541D01*
X76150349Y-37830541D02*
X76197968Y-37782922D01*
X76197968Y-37782922D02*
X76293206Y-37735302D01*
X76293206Y-37735302D02*
X76388444Y-37735302D01*
X76388444Y-37735302D02*
X76483682Y-37782922D01*
X76483682Y-37782922D02*
X76531301Y-37830541D01*
X76531301Y-37830541D02*
X76578920Y-37925779D01*
X76578920Y-37925779D02*
X76626539Y-38116255D01*
X76626539Y-38116255D02*
X76626539Y-38354350D01*
X76626539Y-38354350D02*
X76578920Y-38544826D01*
X76578920Y-38544826D02*
X76531301Y-38640064D01*
X76531301Y-38640064D02*
X76483682Y-38687683D01*
X76483682Y-38687683D02*
X76388444Y-38735302D01*
X78531301Y-42815302D02*
X78531301Y-43815302D01*
X78531301Y-43815302D02*
X78293206Y-43815302D01*
X78293206Y-43815302D02*
X78150349Y-43767683D01*
X78150349Y-43767683D02*
X78055111Y-43672445D01*
X78055111Y-43672445D02*
X78007492Y-43577207D01*
X78007492Y-43577207D02*
X77959873Y-43386731D01*
X77959873Y-43386731D02*
X77959873Y-43243874D01*
X77959873Y-43243874D02*
X78007492Y-43053398D01*
X78007492Y-43053398D02*
X78055111Y-42958160D01*
X78055111Y-42958160D02*
X78150349Y-42862922D01*
X78150349Y-42862922D02*
X78293206Y-42815302D01*
X78293206Y-42815302D02*
X78531301Y-42815302D01*
X77483682Y-42815302D02*
X77293206Y-42815302D01*
X77293206Y-42815302D02*
X77197968Y-42862922D01*
X77197968Y-42862922D02*
X77150349Y-42910541D01*
X77150349Y-42910541D02*
X77055111Y-43053398D01*
X77055111Y-43053398D02*
X77007492Y-43243874D01*
X77007492Y-43243874D02*
X77007492Y-43624826D01*
X77007492Y-43624826D02*
X77055111Y-43720064D01*
X77055111Y-43720064D02*
X77102730Y-43767683D01*
X77102730Y-43767683D02*
X77197968Y-43815302D01*
X77197968Y-43815302D02*
X77388444Y-43815302D01*
X77388444Y-43815302D02*
X77483682Y-43767683D01*
X77483682Y-43767683D02*
X77531301Y-43720064D01*
X77531301Y-43720064D02*
X77578920Y-43624826D01*
X77578920Y-43624826D02*
X77578920Y-43386731D01*
X77578920Y-43386731D02*
X77531301Y-43291493D01*
X77531301Y-43291493D02*
X77483682Y-43243874D01*
X77483682Y-43243874D02*
X77388444Y-43196255D01*
X77388444Y-43196255D02*
X77197968Y-43196255D01*
X77197968Y-43196255D02*
X77102730Y-43243874D01*
X77102730Y-43243874D02*
X77055111Y-43291493D01*
X77055111Y-43291493D02*
X77007492Y-43386731D01*
X78531301Y-45355302D02*
X78531301Y-46355302D01*
X78531301Y-46355302D02*
X78293206Y-46355302D01*
X78293206Y-46355302D02*
X78150349Y-46307683D01*
X78150349Y-46307683D02*
X78055111Y-46212445D01*
X78055111Y-46212445D02*
X78007492Y-46117207D01*
X78007492Y-46117207D02*
X77959873Y-45926731D01*
X77959873Y-45926731D02*
X77959873Y-45783874D01*
X77959873Y-45783874D02*
X78007492Y-45593398D01*
X78007492Y-45593398D02*
X78055111Y-45498160D01*
X78055111Y-45498160D02*
X78150349Y-45402922D01*
X78150349Y-45402922D02*
X78293206Y-45355302D01*
X78293206Y-45355302D02*
X78531301Y-45355302D01*
X77388444Y-45926731D02*
X77483682Y-45974350D01*
X77483682Y-45974350D02*
X77531301Y-46021969D01*
X77531301Y-46021969D02*
X77578920Y-46117207D01*
X77578920Y-46117207D02*
X77578920Y-46164826D01*
X77578920Y-46164826D02*
X77531301Y-46260064D01*
X77531301Y-46260064D02*
X77483682Y-46307683D01*
X77483682Y-46307683D02*
X77388444Y-46355302D01*
X77388444Y-46355302D02*
X77197968Y-46355302D01*
X77197968Y-46355302D02*
X77102730Y-46307683D01*
X77102730Y-46307683D02*
X77055111Y-46260064D01*
X77055111Y-46260064D02*
X77007492Y-46164826D01*
X77007492Y-46164826D02*
X77007492Y-46117207D01*
X77007492Y-46117207D02*
X77055111Y-46021969D01*
X77055111Y-46021969D02*
X77102730Y-45974350D01*
X77102730Y-45974350D02*
X77197968Y-45926731D01*
X77197968Y-45926731D02*
X77388444Y-45926731D01*
X77388444Y-45926731D02*
X77483682Y-45879112D01*
X77483682Y-45879112D02*
X77531301Y-45831493D01*
X77531301Y-45831493D02*
X77578920Y-45736255D01*
X77578920Y-45736255D02*
X77578920Y-45545779D01*
X77578920Y-45545779D02*
X77531301Y-45450541D01*
X77531301Y-45450541D02*
X77483682Y-45402922D01*
X77483682Y-45402922D02*
X77388444Y-45355302D01*
X77388444Y-45355302D02*
X77197968Y-45355302D01*
X77197968Y-45355302D02*
X77102730Y-45402922D01*
X77102730Y-45402922D02*
X77055111Y-45450541D01*
X77055111Y-45450541D02*
X77007492Y-45545779D01*
X77007492Y-45545779D02*
X77007492Y-45736255D01*
X77007492Y-45736255D02*
X77055111Y-45831493D01*
X77055111Y-45831493D02*
X77102730Y-45879112D01*
X77102730Y-45879112D02*
X77197968Y-45926731D01*
D13*
%TO.C,R5*%
X93186000Y-39597000D02*
X93186000Y-39267000D01*
X93186000Y-36857000D02*
X93186000Y-37187000D01*
X86646000Y-39597000D02*
X93186000Y-39597000D01*
X86646000Y-39267000D02*
X86646000Y-39597000D01*
X86646000Y-37187000D02*
X86646000Y-36857000D01*
X86646000Y-36857000D02*
X93186000Y-36857000D01*
%TO.C,C5*%
X104380000Y-43380000D02*
X109620000Y-43380000D01*
X104380000Y-43717000D02*
X104380000Y-43380000D01*
X104380000Y-46120000D02*
X104380000Y-45783000D01*
X109620000Y-43380000D02*
X109620000Y-43717000D01*
X109620000Y-45783000D02*
X109620000Y-46120000D01*
X109620000Y-46120000D02*
X104380000Y-46120000D01*
%TO.C,C2*%
X55078000Y-51462000D02*
X60318000Y-51462000D01*
X55078000Y-51799000D02*
X55078000Y-51462000D01*
X55078000Y-54202000D02*
X55078000Y-53865000D01*
X60318000Y-51462000D02*
X60318000Y-51799000D01*
X60318000Y-53865000D02*
X60318000Y-54202000D01*
X60318000Y-54202000D02*
X55078000Y-54202000D01*
%TO.C,C4*%
X106132000Y-37130000D02*
X111372000Y-37130000D01*
X106132000Y-37467000D02*
X106132000Y-37130000D01*
X106132000Y-39870000D02*
X106132000Y-39533000D01*
X111372000Y-37130000D02*
X111372000Y-37467000D01*
X111372000Y-39533000D02*
X111372000Y-39870000D01*
X111372000Y-39870000D02*
X106132000Y-39870000D01*
%TO.C,J2*%
X53070000Y-33445000D02*
X53070000Y-34695000D01*
X53360000Y-33735000D02*
X53360000Y-39705000D01*
X53360000Y-39705000D02*
X60980000Y-39705000D01*
X53370000Y-33745000D02*
X53370000Y-34495000D01*
X53370000Y-34495000D02*
X55170000Y-34495000D01*
X53370000Y-35995000D02*
X54120000Y-35995000D01*
X54120000Y-35995000D02*
X54120000Y-38945000D01*
X54120000Y-38945000D02*
X57170000Y-38945000D01*
X54320000Y-33445000D02*
X53070000Y-33445000D01*
X55170000Y-33745000D02*
X53370000Y-33745000D01*
X55170000Y-34495000D02*
X55170000Y-33745000D01*
X56670000Y-33745000D02*
X56670000Y-34495000D01*
X56670000Y-34495000D02*
X57670000Y-34495000D01*
X57670000Y-33745000D02*
X56670000Y-33745000D01*
X57670000Y-34495000D02*
X57670000Y-33745000D01*
X59170000Y-33745000D02*
X59170000Y-34495000D01*
X59170000Y-34495000D02*
X60970000Y-34495000D01*
X60220000Y-35995000D02*
X60220000Y-38945000D01*
X60220000Y-38945000D02*
X57170000Y-38945000D01*
X60970000Y-33745000D02*
X59170000Y-33745000D01*
X60970000Y-34495000D02*
X60970000Y-33745000D01*
X60970000Y-35995000D02*
X60220000Y-35995000D01*
X60980000Y-33735000D02*
X53360000Y-33735000D01*
X60980000Y-39705000D02*
X60980000Y-33735000D01*
%TO.C,R4*%
X86646000Y-43080000D02*
X86646000Y-43410000D01*
X86646000Y-45820000D02*
X86646000Y-45490000D01*
X93186000Y-43080000D02*
X86646000Y-43080000D01*
X93186000Y-43410000D02*
X93186000Y-43080000D01*
X93186000Y-45490000D02*
X93186000Y-45820000D01*
X93186000Y-45820000D02*
X86646000Y-45820000D01*
%TO.C,Q1*%
X85750000Y-51007500D02*
X85800000Y-51007500D01*
X85750000Y-52527500D02*
X85750000Y-51007500D01*
X86750000Y-52527500D02*
X85750000Y-52527500D01*
X86920000Y-51007500D02*
X87700000Y-51007500D01*
X88820000Y-51007500D02*
X88870000Y-51007500D01*
X88870000Y-51007500D02*
X88870000Y-52527500D01*
X88870000Y-52527500D02*
X87870000Y-52527500D01*
X87690000Y-50467500D02*
X87360000Y-50707500D01*
X87360000Y-50227500D01*
X87690000Y-50467500D01*
G36*
X87690000Y-50467500D02*
G01*
X87360000Y-50707500D01*
X87360000Y-50227500D01*
X87690000Y-50467500D01*
G37*
%TO.C,R1*%
X93186000Y-48995000D02*
X93186000Y-48665000D01*
X93186000Y-46255000D02*
X93186000Y-46585000D01*
X86646000Y-48995000D02*
X93186000Y-48995000D01*
X86646000Y-48665000D02*
X86646000Y-48995000D01*
X86646000Y-46585000D02*
X86646000Y-46255000D01*
X86646000Y-46255000D02*
X93186000Y-46255000D01*
%TO.C,C3*%
X98528000Y-41134000D02*
X95551000Y-41134000D01*
X98528000Y-41174000D02*
X95559000Y-41174000D01*
X98528000Y-41214000D02*
X95566000Y-41214000D01*
X98528000Y-41254000D02*
X95575000Y-41254000D01*
X98528000Y-41294000D02*
X95583000Y-41294000D01*
X98528000Y-41334000D02*
X95592000Y-41334000D01*
X98528000Y-41374000D02*
X95601000Y-41374000D01*
X98528000Y-41414000D02*
X95611000Y-41414000D01*
X98528000Y-41454000D02*
X95621000Y-41454000D01*
X98528000Y-41494000D02*
X95632000Y-41494000D01*
X98528000Y-41534000D02*
X95643000Y-41534000D01*
X98528000Y-41574000D02*
X95655000Y-41574000D01*
X98528000Y-41614000D02*
X95667000Y-41614000D01*
X98528000Y-41654000D02*
X95679000Y-41654000D01*
X98528000Y-41694000D02*
X95692000Y-41694000D01*
X98528000Y-41734000D02*
X95705000Y-41734000D01*
X98528000Y-41774000D02*
X95719000Y-41774000D01*
X98528000Y-41814000D02*
X95733000Y-41814000D01*
X98528000Y-41854000D02*
X95748000Y-41854000D01*
X98528000Y-41894000D02*
X95763000Y-41894000D01*
X98528000Y-41934000D02*
X95779000Y-41934000D01*
X98528000Y-41974000D02*
X95795000Y-41974000D01*
X98528000Y-42014000D02*
X95811000Y-42014000D01*
X98528000Y-42054000D02*
X95828000Y-42054000D01*
X98528000Y-42094000D02*
X95846000Y-42094000D01*
X98528000Y-42134000D02*
X95864000Y-42134000D01*
X98528000Y-42174000D02*
X95883000Y-42174000D01*
X98528000Y-42214000D02*
X95902000Y-42214000D01*
X98528000Y-42254000D02*
X95922000Y-42254000D01*
X98528000Y-42294000D02*
X95942000Y-42294000D01*
X98528000Y-42334000D02*
X95963000Y-42334000D01*
X98528000Y-42374000D02*
X95984000Y-42374000D01*
X98528000Y-42414000D02*
X96006000Y-42414000D01*
X98528000Y-42454000D02*
X96029000Y-42454000D01*
X98528000Y-42494000D02*
X96052000Y-42494000D01*
X98528000Y-42534000D02*
X96075000Y-42534000D01*
X98528000Y-42574000D02*
X96100000Y-42574000D01*
X98528000Y-42614000D02*
X96125000Y-42614000D01*
X98528000Y-42654000D02*
X96150000Y-42654000D01*
X98528000Y-42694000D02*
X96176000Y-42694000D01*
X98528000Y-42734000D02*
X96203000Y-42734000D01*
X98528000Y-42774000D02*
X96231000Y-42774000D01*
X98528000Y-42814000D02*
X96259000Y-42814000D01*
X98528000Y-42854000D02*
X96288000Y-42854000D01*
X98528000Y-42894000D02*
X96318000Y-42894000D01*
X98528000Y-42934000D02*
X96349000Y-42934000D01*
X98528000Y-42974000D02*
X96380000Y-42974000D01*
X98528000Y-43014000D02*
X96412000Y-43014000D01*
X98528000Y-43054000D02*
X96445000Y-43054000D01*
X98528000Y-43094000D02*
X96479000Y-43094000D01*
X98528000Y-43134000D02*
X96513000Y-43134000D01*
X98528000Y-43174000D02*
X96549000Y-43174000D01*
X100101000Y-44494000D02*
X99035000Y-44494000D01*
X100336000Y-44454000D02*
X98800000Y-44454000D01*
X100515000Y-44414000D02*
X98621000Y-44414000D01*
X100665000Y-44374000D02*
X98471000Y-44374000D01*
X100796000Y-44334000D02*
X98340000Y-44334000D01*
X100914000Y-44294000D02*
X98222000Y-44294000D01*
X101021000Y-44254000D02*
X98115000Y-44254000D01*
X101120000Y-44214000D02*
X98016000Y-44214000D01*
X101212000Y-44174000D02*
X97924000Y-44174000D01*
X101299000Y-44134000D02*
X97837000Y-44134000D01*
X101381000Y-44094000D02*
X97755000Y-44094000D01*
X101458000Y-44054000D02*
X97678000Y-44054000D01*
X101532000Y-44014000D02*
X97604000Y-44014000D01*
X101602000Y-43974000D02*
X97534000Y-43974000D01*
X101669000Y-43934000D02*
X97467000Y-43934000D01*
X101733000Y-43894000D02*
X97403000Y-43894000D01*
X101795000Y-43854000D02*
X97341000Y-43854000D01*
X101855000Y-43814000D02*
X97281000Y-43814000D01*
X101883000Y-36004302D02*
X101883000Y-36804302D01*
X101912000Y-43774000D02*
X97224000Y-43774000D01*
X101968000Y-43734000D02*
X97168000Y-43734000D01*
X102021000Y-43694000D02*
X97115000Y-43694000D01*
X102073000Y-43654000D02*
X97063000Y-43654000D01*
X102123000Y-43614000D02*
X97013000Y-43614000D01*
X102172000Y-43574000D02*
X96964000Y-43574000D01*
X102219000Y-43534000D02*
X96917000Y-43534000D01*
X102264000Y-43494000D02*
X96872000Y-43494000D01*
X102283000Y-36404302D02*
X101483000Y-36404302D01*
X102309000Y-43454000D02*
X96827000Y-43454000D01*
X102352000Y-43414000D02*
X96784000Y-43414000D01*
X102394000Y-43374000D02*
X96742000Y-43374000D01*
X102435000Y-43334000D02*
X96701000Y-43334000D01*
X102474000Y-43294000D02*
X96662000Y-43294000D01*
X102513000Y-43254000D02*
X96623000Y-43254000D01*
X102550000Y-43214000D02*
X96586000Y-43214000D01*
X102587000Y-43174000D02*
X100608000Y-43174000D01*
X102623000Y-43134000D02*
X100608000Y-43134000D01*
X102657000Y-43094000D02*
X100608000Y-43094000D01*
X102691000Y-43054000D02*
X100608000Y-43054000D01*
X102724000Y-43014000D02*
X100608000Y-43014000D01*
X102756000Y-42974000D02*
X100608000Y-42974000D01*
X102787000Y-42934000D02*
X100608000Y-42934000D01*
X102818000Y-42894000D02*
X100608000Y-42894000D01*
X102848000Y-42854000D02*
X100608000Y-42854000D01*
X102877000Y-42814000D02*
X100608000Y-42814000D01*
X102905000Y-42774000D02*
X100608000Y-42774000D01*
X102933000Y-42734000D02*
X100608000Y-42734000D01*
X102960000Y-42694000D02*
X100608000Y-42694000D01*
X102986000Y-42654000D02*
X100608000Y-42654000D01*
X103011000Y-42614000D02*
X100608000Y-42614000D01*
X103036000Y-42574000D02*
X100608000Y-42574000D01*
X103061000Y-42534000D02*
X100608000Y-42534000D01*
X103084000Y-42494000D02*
X100608000Y-42494000D01*
X103107000Y-42454000D02*
X100608000Y-42454000D01*
X103130000Y-42414000D02*
X100608000Y-42414000D01*
X103152000Y-42374000D02*
X100608000Y-42374000D01*
X103173000Y-42334000D02*
X100608000Y-42334000D01*
X103194000Y-42294000D02*
X100608000Y-42294000D01*
X103214000Y-42254000D02*
X100608000Y-42254000D01*
X103234000Y-42214000D02*
X100608000Y-42214000D01*
X103253000Y-42174000D02*
X100608000Y-42174000D01*
X103272000Y-42134000D02*
X100608000Y-42134000D01*
X103290000Y-42094000D02*
X100608000Y-42094000D01*
X103308000Y-42054000D02*
X100608000Y-42054000D01*
X103325000Y-42014000D02*
X100608000Y-42014000D01*
X103341000Y-41974000D02*
X100608000Y-41974000D01*
X103357000Y-41934000D02*
X100608000Y-41934000D01*
X103373000Y-41894000D02*
X100608000Y-41894000D01*
X103388000Y-41854000D02*
X100608000Y-41854000D01*
X103403000Y-41814000D02*
X100608000Y-41814000D01*
X103417000Y-41774000D02*
X100608000Y-41774000D01*
X103431000Y-41734000D02*
X100608000Y-41734000D01*
X103444000Y-41694000D02*
X100608000Y-41694000D01*
X103457000Y-41654000D02*
X100608000Y-41654000D01*
X103469000Y-41614000D02*
X100608000Y-41614000D01*
X103481000Y-41574000D02*
X100608000Y-41574000D01*
X103493000Y-41534000D02*
X100608000Y-41534000D01*
X103504000Y-41494000D02*
X100608000Y-41494000D01*
X103515000Y-41454000D02*
X100608000Y-41454000D01*
X103525000Y-41414000D02*
X100608000Y-41414000D01*
X103535000Y-41374000D02*
X100608000Y-41374000D01*
X103544000Y-41334000D02*
X100608000Y-41334000D01*
X103553000Y-41294000D02*
X100608000Y-41294000D01*
X103561000Y-41254000D02*
X100608000Y-41254000D01*
X103570000Y-41214000D02*
X100608000Y-41214000D01*
X103577000Y-41174000D02*
X100608000Y-41174000D01*
X103585000Y-41134000D02*
X100608000Y-41134000D01*
X103591000Y-41094000D02*
X95545000Y-41094000D01*
X103598000Y-41054000D02*
X95538000Y-41054000D01*
X103604000Y-41014000D02*
X95532000Y-41014000D01*
X103610000Y-40974000D02*
X95526000Y-40974000D01*
X103615000Y-40934000D02*
X95521000Y-40934000D01*
X103620000Y-40894000D02*
X95516000Y-40894000D01*
X103624000Y-40854000D02*
X95512000Y-40854000D01*
X103629000Y-40814000D02*
X95507000Y-40814000D01*
X103632000Y-40774000D02*
X95504000Y-40774000D01*
X103636000Y-40734000D02*
X95500000Y-40734000D01*
X103638000Y-40694000D02*
X95498000Y-40694000D01*
X103641000Y-40654000D02*
X95495000Y-40654000D01*
X103643000Y-40614000D02*
X95493000Y-40614000D01*
X103645000Y-40574000D02*
X95491000Y-40574000D01*
X103646000Y-40534000D02*
X95490000Y-40534000D01*
X103647000Y-40494000D02*
X95489000Y-40494000D01*
X103648000Y-40414000D02*
X95488000Y-40414000D01*
X103648000Y-40454000D02*
X95488000Y-40454000D01*
X103688000Y-40414000D02*
G75*
G02*
X95448000Y-40414000I-4120000J0D01*
G01*
X95448000Y-40414000D02*
G75*
G02*
X103688000Y-40414000I4120000J0D01*
G01*
D12*
%TO.C,J1*%
X37719000Y-35790000D02*
X37719000Y-53110000D01*
X37719000Y-53110000D02*
X37719462Y-53163556D01*
X37719462Y-35736444D02*
X37719000Y-35790000D01*
X37719462Y-53163556D02*
X37727103Y-53270395D01*
X37727103Y-35629605D02*
X37719462Y-35736444D01*
X37727103Y-53270395D02*
X37742347Y-53376417D01*
X37742347Y-35523582D02*
X37727103Y-35629605D01*
X37742347Y-53376417D02*
X37765116Y-53481082D01*
X37765115Y-35418918D02*
X37742347Y-35523582D01*
X37765116Y-53481082D02*
X37795293Y-53583855D01*
X37795292Y-35316145D02*
X37765115Y-35418918D01*
X37795293Y-53583855D02*
X37832725Y-53684214D01*
X37832724Y-35215786D02*
X37795292Y-35316145D01*
X37832725Y-53684214D02*
X37877221Y-53781647D01*
X37877220Y-35118353D02*
X37832724Y-35215786D01*
X37877221Y-53781647D02*
X37928554Y-53875657D01*
X37928554Y-35024343D02*
X37877220Y-35118353D01*
X37928554Y-53875657D02*
X37986463Y-53965765D01*
X37986463Y-34934234D02*
X37928554Y-35024343D01*
X37986463Y-53965765D02*
X38050653Y-54051513D01*
X38050653Y-34848487D02*
X37986463Y-34934234D01*
X38050653Y-54051513D02*
X38120797Y-54132463D01*
X38120797Y-34767536D02*
X38050653Y-34848487D01*
X38120797Y-54132463D02*
X38196537Y-54208203D01*
X38196536Y-34691797D02*
X38120797Y-34767536D01*
X38196537Y-54208203D02*
X38277487Y-54278347D01*
X38277487Y-34621653D02*
X38196536Y-34691797D01*
X38277487Y-54278347D02*
X38363235Y-54342537D01*
X38363234Y-34557463D02*
X38277487Y-34621653D01*
X38363235Y-54342537D02*
X38453343Y-54400446D01*
X38453343Y-34499554D02*
X38363234Y-34557463D01*
X38453343Y-54400446D02*
X38547353Y-54451779D01*
X38547353Y-34448220D02*
X38453343Y-34499554D01*
X38547353Y-54451779D02*
X38644786Y-54496275D01*
X38644786Y-34403724D02*
X38547353Y-34448220D01*
X38644786Y-54496275D02*
X38745145Y-54533707D01*
X38745145Y-34366292D02*
X38644786Y-34403724D01*
X38745145Y-54533707D02*
X38847918Y-54563884D01*
X38847918Y-34336115D02*
X38745145Y-34366292D01*
X38847918Y-54563884D02*
X38952583Y-54586653D01*
X38952582Y-34313347D02*
X38847918Y-34336115D01*
X38952583Y-54586653D02*
X39058605Y-54601897D01*
X39058605Y-34298103D02*
X38952582Y-34313347D01*
X39058605Y-54601897D02*
X39165444Y-54609538D01*
X39165444Y-34290462D02*
X39058605Y-34298103D01*
X39165444Y-54609538D02*
X39219000Y-54610000D01*
X39219000Y-34290000D02*
X39165444Y-34290462D01*
X39219000Y-54610000D02*
X50189000Y-54610000D01*
X50189000Y-34290000D02*
X39219000Y-34290000D01*
X50189000Y-54610000D02*
X50242556Y-54609538D01*
X50242556Y-34290462D02*
X50189000Y-34290000D01*
X50242556Y-54609538D02*
X50349395Y-54601897D01*
X50349395Y-34298103D02*
X50242556Y-34290462D01*
X50349395Y-54601897D02*
X50455417Y-54586653D01*
X50455417Y-54586653D02*
X50560082Y-54563884D01*
X50455418Y-34313347D02*
X50349395Y-34298103D01*
X50560082Y-34336115D02*
X50455418Y-34313347D01*
X50560082Y-54563884D02*
X50662855Y-54533707D01*
X50662855Y-34366292D02*
X50560082Y-34336115D01*
X50662855Y-54533707D02*
X50763214Y-54496275D01*
X50763214Y-34403724D02*
X50662855Y-34366292D01*
X50763214Y-54496275D02*
X50860647Y-54451779D01*
X50860647Y-34448220D02*
X50763214Y-34403724D01*
X50860647Y-54451779D02*
X50954657Y-54400446D01*
X50954657Y-34499554D02*
X50860647Y-34448220D01*
X50954657Y-54400446D02*
X51044765Y-54342537D01*
X51044765Y-54342537D02*
X51130513Y-54278347D01*
X51044766Y-34557463D02*
X50954657Y-34499554D01*
X51130513Y-34621653D02*
X51044766Y-34557463D01*
X51130513Y-54278347D02*
X51211463Y-54208203D01*
X51211463Y-54208203D02*
X51287203Y-54132463D01*
X51211464Y-34691797D02*
X51130513Y-34621653D01*
X51287203Y-34767536D02*
X51211464Y-34691797D01*
X51287203Y-54132463D02*
X51357347Y-54051513D01*
X51357347Y-34848487D02*
X51287203Y-34767536D01*
X51357347Y-54051513D02*
X51421537Y-53965765D01*
X51421537Y-34934234D02*
X51357347Y-34848487D01*
X51421537Y-53965765D02*
X51479446Y-53875657D01*
X51479446Y-35024343D02*
X51421537Y-34934234D01*
X51479446Y-53875657D02*
X51530779Y-53781647D01*
X51530779Y-53781647D02*
X51575275Y-53684214D01*
X51530780Y-35118353D02*
X51479446Y-35024343D01*
X51575275Y-53684214D02*
X51612707Y-53583855D01*
X51575276Y-35215786D02*
X51530780Y-35118353D01*
X51612707Y-53583855D02*
X51642884Y-53481082D01*
X51612708Y-35316145D02*
X51575276Y-35215786D01*
X51642884Y-53481082D02*
X51665653Y-53376417D01*
X51642885Y-35418918D02*
X51612708Y-35316145D01*
X51665653Y-35523582D02*
X51642885Y-35418918D01*
X51665653Y-53376417D02*
X51680897Y-53270395D01*
X51680897Y-35629605D02*
X51665653Y-35523582D01*
X51680897Y-53270395D02*
X51688538Y-53163556D01*
X51688538Y-35736444D02*
X51680897Y-35629605D01*
X51688538Y-53163556D02*
X51689000Y-53110000D01*
X51689000Y-35790000D02*
X51688538Y-35736444D01*
X51689000Y-53110000D02*
X51689000Y-35790000D01*
X37719000Y-48950000D02*
X45219000Y-48950000D01*
X45219000Y-39950000D01*
X37719000Y-39950000D01*
X37719000Y-48950000D01*
D13*
%TO.C,U5*%
X114317000Y-33585000D02*
X115697000Y-33585000D01*
X114317000Y-34965000D02*
X114317000Y-33585000D01*
X114317000Y-36235000D02*
X114317000Y-41425000D01*
X114317000Y-36235000D02*
X117077000Y-36235000D01*
X114317000Y-41425000D02*
X117077000Y-41425000D01*
X117077000Y-36235000D02*
X117077000Y-41425000D01*
%TO.C,Q2*%
X92222813Y-54026000D02*
X95822813Y-54026000D01*
X92184335Y-54014478D02*
G75*
G02*
X94022813Y-49575999I1838478J1838478D01*
G01*
X94022813Y-49576000D02*
G75*
G02*
X95861291Y-54014478I0J-2600000D01*
G01*
%TO.C,U6*%
X106570000Y-47388000D02*
X107950000Y-47388000D01*
X106570000Y-48768000D02*
X106570000Y-47388000D01*
X106570000Y-50038000D02*
X106570000Y-55228000D01*
X106570000Y-50038000D02*
X109330000Y-50038000D01*
X106570000Y-55228000D02*
X109330000Y-55228000D01*
X109330000Y-50038000D02*
X109330000Y-55228000D01*
%TO.C,R3*%
X93186000Y-42645000D02*
X93186000Y-42315000D01*
X93186000Y-39905000D02*
X93186000Y-40235000D01*
X86646000Y-42645000D02*
X93186000Y-42645000D01*
X86646000Y-42315000D02*
X86646000Y-42645000D01*
X86646000Y-40235000D02*
X86646000Y-39905000D01*
X86646000Y-39905000D02*
X93186000Y-39905000D01*
%TO.C,R2*%
X104172000Y-33682000D02*
X110712000Y-33682000D01*
X104172000Y-34012000D02*
X104172000Y-33682000D01*
X104172000Y-36092000D02*
X104172000Y-36422000D01*
X104172000Y-36422000D02*
X110712000Y-36422000D01*
X110712000Y-33682000D02*
X110712000Y-34012000D01*
X110712000Y-36422000D02*
X110712000Y-36092000D01*
%TO.C,U2*%
X111440000Y-45390000D02*
X111440000Y-55610000D01*
X111440000Y-55610000D02*
X118060000Y-55610000D01*
X112150000Y-54600000D02*
X112150000Y-46400000D01*
X114150000Y-46400000D02*
X116450000Y-46400000D01*
X114750000Y-45390000D02*
X114750000Y-46400000D01*
X114750000Y-55610000D02*
X114750000Y-54600000D01*
X116450000Y-46400000D02*
X116450000Y-54600000D01*
X116450000Y-54600000D02*
X112150000Y-54600000D01*
X117060000Y-48100000D02*
X118060000Y-48100000D01*
X117060000Y-49700000D02*
X117060000Y-48100000D01*
X117060000Y-51300000D02*
X117660000Y-51300000D01*
X117060000Y-52900000D02*
X117060000Y-51300000D01*
X117660000Y-49700000D02*
X117060000Y-49700000D01*
X117660000Y-51300000D02*
X117660000Y-49700000D01*
X118060000Y-45390000D02*
X111440000Y-45390000D01*
X118060000Y-48100000D02*
X118060000Y-45390000D01*
X118060000Y-52900000D02*
X117060000Y-52900000D01*
X118060000Y-55610000D02*
X118060000Y-52900000D01*
X118360000Y-45090000D02*
X117110000Y-45090000D01*
X118360000Y-46340000D02*
X118360000Y-45090000D01*
%TO.C,C1*%
X55328000Y-47019000D02*
X55328000Y-46453000D01*
X55368000Y-47253000D02*
X55368000Y-46219000D01*
X55408000Y-47413000D02*
X55408000Y-46059000D01*
X55448000Y-47541000D02*
X55448000Y-45931000D01*
X55488000Y-47650000D02*
X55488000Y-45822000D01*
X55528000Y-47747000D02*
X55528000Y-45725000D01*
X55568000Y-47834000D02*
X55568000Y-45638000D01*
X55608000Y-47913000D02*
X55608000Y-45559000D01*
X55648000Y-47987000D02*
X55648000Y-45485000D01*
X55688000Y-48055000D02*
X55688000Y-45417000D01*
X55728000Y-48119000D02*
X55728000Y-45353000D01*
X55768000Y-48179000D02*
X55768000Y-45293000D01*
X55808000Y-48235000D02*
X55808000Y-45237000D01*
X55848000Y-48289000D02*
X55848000Y-45183000D01*
X55888000Y-48340000D02*
X55888000Y-45132000D01*
X55928000Y-45696000D02*
X55928000Y-45084000D01*
X55928000Y-48388000D02*
X55928000Y-47776000D01*
X55968000Y-45696000D02*
X55968000Y-45037000D01*
X55968000Y-48435000D02*
X55968000Y-47776000D01*
X56008000Y-45696000D02*
X56008000Y-44993000D01*
X56008000Y-48479000D02*
X56008000Y-47776000D01*
X56048000Y-45696000D02*
X56048000Y-44951000D01*
X56048000Y-48521000D02*
X56048000Y-47776000D01*
X56088000Y-45696000D02*
X56088000Y-44911000D01*
X56088000Y-48561000D02*
X56088000Y-47776000D01*
X56128000Y-45696000D02*
X56128000Y-44872000D01*
X56128000Y-48600000D02*
X56128000Y-47776000D01*
X56168000Y-45696000D02*
X56168000Y-44835000D01*
X56168000Y-48637000D02*
X56168000Y-47776000D01*
X56208000Y-45696000D02*
X56208000Y-44800000D01*
X56208000Y-48672000D02*
X56208000Y-47776000D01*
X56248000Y-45696000D02*
X56248000Y-44766000D01*
X56248000Y-48706000D02*
X56248000Y-47776000D01*
X56288000Y-45696000D02*
X56288000Y-44733000D01*
X56288000Y-48739000D02*
X56288000Y-47776000D01*
X56328000Y-45696000D02*
X56328000Y-44701000D01*
X56328000Y-48771000D02*
X56328000Y-47776000D01*
X56368000Y-45696000D02*
X56368000Y-44671000D01*
X56368000Y-48801000D02*
X56368000Y-47776000D01*
X56408000Y-45696000D02*
X56408000Y-44642000D01*
X56408000Y-48830000D02*
X56408000Y-47776000D01*
X56448000Y-45696000D02*
X56448000Y-44614000D01*
X56448000Y-48858000D02*
X56448000Y-47776000D01*
X56488000Y-45696000D02*
X56488000Y-44587000D01*
X56488000Y-48885000D02*
X56488000Y-47776000D01*
X56528000Y-45696000D02*
X56528000Y-44561000D01*
X56528000Y-48911000D02*
X56528000Y-47776000D01*
X56568000Y-45696000D02*
X56568000Y-44537000D01*
X56568000Y-48935000D02*
X56568000Y-47776000D01*
X56608000Y-45696000D02*
X56608000Y-44513000D01*
X56608000Y-48959000D02*
X56608000Y-47776000D01*
X56648000Y-45696000D02*
X56648000Y-44490000D01*
X56648000Y-48982000D02*
X56648000Y-47776000D01*
X56688000Y-45696000D02*
X56688000Y-44468000D01*
X56688000Y-49004000D02*
X56688000Y-47776000D01*
X56728000Y-45696000D02*
X56728000Y-44447000D01*
X56728000Y-49025000D02*
X56728000Y-47776000D01*
X56768000Y-45696000D02*
X56768000Y-44427000D01*
X56768000Y-49045000D02*
X56768000Y-47776000D01*
X56808000Y-45696000D02*
X56808000Y-44407000D01*
X56808000Y-49065000D02*
X56808000Y-47776000D01*
X56848000Y-45696000D02*
X56848000Y-44389000D01*
X56848000Y-49083000D02*
X56848000Y-47776000D01*
X56888000Y-45696000D02*
X56888000Y-44371000D01*
X56888000Y-49101000D02*
X56888000Y-47776000D01*
X56928000Y-45696000D02*
X56928000Y-44354000D01*
X56928000Y-49118000D02*
X56928000Y-47776000D01*
X56968000Y-45696000D02*
X56968000Y-44338000D01*
X56968000Y-49134000D02*
X56968000Y-47776000D01*
X57008000Y-45696000D02*
X57008000Y-44323000D01*
X57008000Y-49149000D02*
X57008000Y-47776000D01*
X57048000Y-45696000D02*
X57048000Y-44308000D01*
X57048000Y-49164000D02*
X57048000Y-47776000D01*
X57088000Y-45696000D02*
X57088000Y-44294000D01*
X57088000Y-49178000D02*
X57088000Y-47776000D01*
X57128000Y-45696000D02*
X57128000Y-44281000D01*
X57128000Y-49191000D02*
X57128000Y-47776000D01*
X57168000Y-45696000D02*
X57168000Y-44269000D01*
X57168000Y-49203000D02*
X57168000Y-47776000D01*
X57208000Y-45696000D02*
X57208000Y-44257000D01*
X57208000Y-49215000D02*
X57208000Y-47776000D01*
X57248000Y-45696000D02*
X57248000Y-44246000D01*
X57248000Y-49226000D02*
X57248000Y-47776000D01*
X57288000Y-45696000D02*
X57288000Y-44235000D01*
X57288000Y-49237000D02*
X57288000Y-47776000D01*
X57328000Y-45696000D02*
X57328000Y-44226000D01*
X57328000Y-49246000D02*
X57328000Y-47776000D01*
X57368000Y-45696000D02*
X57368000Y-44217000D01*
X57368000Y-49255000D02*
X57368000Y-47776000D01*
X57408000Y-45696000D02*
X57408000Y-44208000D01*
X57408000Y-49264000D02*
X57408000Y-47776000D01*
X57448000Y-45696000D02*
X57448000Y-44200000D01*
X57448000Y-49272000D02*
X57448000Y-47776000D01*
X57488000Y-45696000D02*
X57488000Y-44193000D01*
X57488000Y-49279000D02*
X57488000Y-47776000D01*
X57528000Y-45696000D02*
X57528000Y-44187000D01*
X57528000Y-49285000D02*
X57528000Y-47776000D01*
X57568000Y-45696000D02*
X57568000Y-44181000D01*
X57568000Y-49291000D02*
X57568000Y-47776000D01*
X57608000Y-45696000D02*
X57608000Y-44176000D01*
X57608000Y-49296000D02*
X57608000Y-47776000D01*
X57648000Y-45696000D02*
X57648000Y-44171000D01*
X57648000Y-49301000D02*
X57648000Y-47776000D01*
X57688000Y-45696000D02*
X57688000Y-44167000D01*
X57688000Y-49305000D02*
X57688000Y-47776000D01*
X57728000Y-45696000D02*
X57728000Y-44164000D01*
X57728000Y-49308000D02*
X57728000Y-47776000D01*
X57768000Y-45696000D02*
X57768000Y-44161000D01*
X57768000Y-49311000D02*
X57768000Y-47776000D01*
X57808000Y-45696000D02*
X57808000Y-44159000D01*
X57808000Y-49313000D02*
X57808000Y-47776000D01*
X57848000Y-45696000D02*
X57848000Y-44157000D01*
X57848000Y-49315000D02*
X57848000Y-47776000D01*
X57888000Y-45696000D02*
X57888000Y-44156000D01*
X57888000Y-49316000D02*
X57888000Y-47776000D01*
X57928000Y-45696000D02*
X57928000Y-44156000D01*
X57928000Y-49316000D02*
X57928000Y-47776000D01*
X60482775Y-48461000D02*
X60482775Y-47961000D01*
X60732775Y-48211000D02*
X60232775Y-48211000D01*
X60548000Y-46736000D02*
G75*
G02*
X55308000Y-46736000I-2620000J0D01*
G01*
X55308000Y-46736000D02*
G75*
G02*
X60548000Y-46736000I2620000J0D01*
G01*
D12*
%TO.C,U1*%
X63628081Y-33160122D02*
X63628081Y-56020122D01*
X63628081Y-56020122D02*
X68073081Y-56020122D01*
X68708081Y-56020122D02*
X68708081Y-57290122D01*
X68708081Y-57290122D02*
X76328081Y-57290122D01*
X76328081Y-57290122D02*
X76328081Y-56020122D01*
X76963081Y-56020122D02*
X81408081Y-56020122D01*
X81408081Y-33160122D02*
X63628081Y-33160122D01*
X81408081Y-56020122D02*
X81408081Y-33160122D01*
X75693081Y-34430122D02*
X69343081Y-34430122D01*
X69343081Y-33160122D01*
X75693081Y-33160122D01*
X75693081Y-34430122D01*
X76328081Y-57290122D02*
X68708081Y-57290122D01*
X68708081Y-52210122D01*
X76328081Y-52210122D01*
X76328081Y-57290122D01*
X70613081Y-50940122D02*
G75*
G02*
X69343081Y-50940122I-635000J0D01*
G01*
X69343081Y-50940122D02*
G75*
G02*
X70613081Y-50940122I635000J0D01*
G01*
X75693081Y-50940122D02*
G75*
G02*
X74423081Y-50940122I-635000J0D01*
G01*
X74423081Y-50940122D02*
G75*
G02*
X75693081Y-50940122I635000J0D01*
G01*
%TD*%
%LPC*%
G36*
X108196742Y-53034601D02*
G01*
X108350687Y-53098367D01*
X108489234Y-53190941D01*
X108607059Y-53308766D01*
X108699633Y-53447313D01*
X108763399Y-53601258D01*
X108795907Y-53764685D01*
X108795907Y-53931315D01*
X108763399Y-54094742D01*
X108699633Y-54248687D01*
X108607059Y-54387234D01*
X108489234Y-54505059D01*
X108350687Y-54597633D01*
X108196742Y-54661399D01*
X108033315Y-54693907D01*
X107866685Y-54693907D01*
X107703258Y-54661399D01*
X107549313Y-54597633D01*
X107410766Y-54505059D01*
X107292941Y-54387234D01*
X107200367Y-54248687D01*
X107136601Y-54094742D01*
X107104093Y-53931315D01*
X107104093Y-53764685D01*
X107136601Y-53601258D01*
X107200367Y-53447313D01*
X107292941Y-53308766D01*
X107410766Y-53190941D01*
X107549313Y-53098367D01*
X107703258Y-53034601D01*
X107866685Y-53002093D01*
X108033315Y-53002093D01*
X108196742Y-53034601D01*
G37*
G36*
X40459181Y-50488429D02*
G01*
X40711879Y-50556140D01*
X40953577Y-50656255D01*
X41180140Y-50787061D01*
X41387692Y-50946320D01*
X41572680Y-51131308D01*
X41731939Y-51338860D01*
X41862745Y-51565423D01*
X41962860Y-51807121D01*
X42030571Y-52059819D01*
X42064718Y-52319194D01*
X42064718Y-52580806D01*
X42030571Y-52840181D01*
X41962860Y-53092879D01*
X41862745Y-53334577D01*
X41731939Y-53561140D01*
X41572680Y-53768692D01*
X41387692Y-53953680D01*
X41180140Y-54112939D01*
X40953577Y-54243745D01*
X40711879Y-54343860D01*
X40459181Y-54411571D01*
X40199806Y-54445718D01*
X39938194Y-54445718D01*
X39678819Y-54411571D01*
X39426121Y-54343860D01*
X39184423Y-54243745D01*
X38957860Y-54112939D01*
X38750308Y-53953680D01*
X38565320Y-53768692D01*
X38406061Y-53561140D01*
X38275255Y-53334577D01*
X38175140Y-53092879D01*
X38107429Y-52840181D01*
X38073282Y-52580806D01*
X38073282Y-52319194D01*
X38107429Y-52059819D01*
X38175140Y-51807121D01*
X38275255Y-51565423D01*
X38406061Y-51338860D01*
X38565320Y-51131308D01*
X38750308Y-50946320D01*
X38957860Y-50787061D01*
X39184423Y-50656255D01*
X39426121Y-50556140D01*
X39678819Y-50488429D01*
X39938194Y-50454282D01*
X40199806Y-50454282D01*
X40459181Y-50488429D01*
G37*
G36*
X65247931Y-52581086D02*
G01*
X65298121Y-52586909D01*
X65315270Y-52594481D01*
X65338752Y-52599152D01*
X65363891Y-52615949D01*
X65383777Y-52624730D01*
X65397358Y-52638311D01*
X65419858Y-52653345D01*
X65434891Y-52675844D01*
X65448472Y-52689425D01*
X65457251Y-52709308D01*
X65474051Y-52734451D01*
X65478722Y-52757934D01*
X65486293Y-52775081D01*
X65492114Y-52825261D01*
X65493081Y-52830122D01*
X65493081Y-54130122D01*
X65492113Y-54134985D01*
X65486293Y-54185162D01*
X65478722Y-54202307D01*
X65474051Y-54225793D01*
X65457250Y-54250937D01*
X65448472Y-54270818D01*
X65434893Y-54284396D01*
X65419858Y-54306899D01*
X65397355Y-54321934D01*
X65383777Y-54335513D01*
X65363896Y-54344291D01*
X65338752Y-54361092D01*
X65315266Y-54365763D01*
X65298121Y-54373334D01*
X65247942Y-54379154D01*
X65243081Y-54380122D01*
X61973081Y-54380122D01*
X61968219Y-54379154D01*
X61918040Y-54373334D01*
X61900893Y-54365763D01*
X61877410Y-54361092D01*
X61852267Y-54344292D01*
X61832384Y-54335513D01*
X61818803Y-54321932D01*
X61796304Y-54306899D01*
X61781270Y-54284399D01*
X61767689Y-54270818D01*
X61758908Y-54250932D01*
X61742111Y-54225793D01*
X61737440Y-54202311D01*
X61729868Y-54185162D01*
X61724045Y-54134971D01*
X61723081Y-54130122D01*
X61723081Y-52830122D01*
X61724045Y-52825272D01*
X61729868Y-52775081D01*
X61737440Y-52757930D01*
X61742111Y-52734451D01*
X61758907Y-52709313D01*
X61767689Y-52689425D01*
X61781272Y-52675841D01*
X61796304Y-52653345D01*
X61818800Y-52638313D01*
X61832384Y-52624730D01*
X61852272Y-52615948D01*
X61877410Y-52599152D01*
X61900889Y-52594481D01*
X61918040Y-52586909D01*
X61968232Y-52581086D01*
X61973081Y-52580122D01*
X65243081Y-52580122D01*
X65247931Y-52581086D01*
G37*
G36*
X83027931Y-52581086D02*
G01*
X83078121Y-52586909D01*
X83095270Y-52594481D01*
X83118752Y-52599152D01*
X83143891Y-52615949D01*
X83163777Y-52624730D01*
X83177358Y-52638311D01*
X83199858Y-52653345D01*
X83214891Y-52675844D01*
X83228472Y-52689425D01*
X83237251Y-52709308D01*
X83254051Y-52734451D01*
X83258722Y-52757934D01*
X83266293Y-52775081D01*
X83272114Y-52825261D01*
X83273081Y-52830122D01*
X83273081Y-54130122D01*
X83272113Y-54134985D01*
X83266293Y-54185162D01*
X83258722Y-54202307D01*
X83254051Y-54225793D01*
X83237250Y-54250937D01*
X83228472Y-54270818D01*
X83214893Y-54284396D01*
X83199858Y-54306899D01*
X83177355Y-54321934D01*
X83163777Y-54335513D01*
X83143896Y-54344291D01*
X83118752Y-54361092D01*
X83095266Y-54365763D01*
X83078121Y-54373334D01*
X83027942Y-54379154D01*
X83023081Y-54380122D01*
X79753081Y-54380122D01*
X79748219Y-54379154D01*
X79698040Y-54373334D01*
X79680893Y-54365763D01*
X79657410Y-54361092D01*
X79632267Y-54344292D01*
X79612384Y-54335513D01*
X79598803Y-54321932D01*
X79576304Y-54306899D01*
X79561270Y-54284399D01*
X79547689Y-54270818D01*
X79538908Y-54250932D01*
X79522111Y-54225793D01*
X79517440Y-54202311D01*
X79509868Y-54185162D01*
X79504045Y-54134971D01*
X79503081Y-54130122D01*
X79503081Y-52830122D01*
X79504045Y-52825272D01*
X79509868Y-52775081D01*
X79517440Y-52757930D01*
X79522111Y-52734451D01*
X79538907Y-52709313D01*
X79547689Y-52689425D01*
X79561272Y-52675841D01*
X79576304Y-52653345D01*
X79598800Y-52638313D01*
X79612384Y-52624730D01*
X79632272Y-52615948D01*
X79657410Y-52599152D01*
X79680889Y-52594481D01*
X79698040Y-52586909D01*
X79748232Y-52581086D01*
X79753081Y-52580122D01*
X83023081Y-52580122D01*
X83027931Y-52581086D01*
G37*
G36*
X50074285Y-52383060D02*
G01*
X50255397Y-52458079D01*
X50418393Y-52566990D01*
X50557010Y-52705607D01*
X50665921Y-52868603D01*
X50740940Y-53049715D01*
X50779185Y-53241983D01*
X50779185Y-53438017D01*
X50740940Y-53630285D01*
X50665921Y-53811397D01*
X50557010Y-53974393D01*
X50418393Y-54113010D01*
X50255397Y-54221921D01*
X50074285Y-54296940D01*
X49882017Y-54335185D01*
X49685983Y-54335185D01*
X49493715Y-54296940D01*
X49312603Y-54221921D01*
X49149607Y-54113010D01*
X49010990Y-53974393D01*
X48902079Y-53811397D01*
X48827060Y-53630285D01*
X48788815Y-53438017D01*
X48788815Y-53241983D01*
X48827060Y-53049715D01*
X48902079Y-52868603D01*
X49010990Y-52705607D01*
X49149607Y-52566990D01*
X49312603Y-52458079D01*
X49493715Y-52383060D01*
X49685983Y-52344815D01*
X49882017Y-52344815D01*
X50074285Y-52383060D01*
G37*
G36*
X114958315Y-52154093D02*
G01*
X115121742Y-52186601D01*
X115275687Y-52250367D01*
X115414234Y-52342941D01*
X115532059Y-52460766D01*
X115624633Y-52599313D01*
X115688399Y-52753258D01*
X115720907Y-52916685D01*
X115720907Y-53083315D01*
X115688399Y-53246742D01*
X115624633Y-53400687D01*
X115532059Y-53539234D01*
X115414234Y-53657059D01*
X115275687Y-53749633D01*
X115121742Y-53813399D01*
X114958315Y-53845907D01*
X114875000Y-53850000D01*
X114873522Y-53850000D01*
X114626478Y-53850000D01*
X114625000Y-53850000D01*
X114541685Y-53845907D01*
X114378258Y-53813399D01*
X114224313Y-53749633D01*
X114085766Y-53657059D01*
X113967941Y-53539234D01*
X113875367Y-53400687D01*
X113811601Y-53246742D01*
X113779093Y-53083315D01*
X113779093Y-52916685D01*
X113811601Y-52753258D01*
X113875367Y-52599313D01*
X113967941Y-52460766D01*
X114085766Y-52342941D01*
X114224313Y-52250367D01*
X114378258Y-52186601D01*
X114541685Y-52154093D01*
X114625000Y-52150000D01*
X114875000Y-52150000D01*
X114958315Y-52154093D01*
G37*
G36*
X55430228Y-52066448D02*
G01*
X55575117Y-52126463D01*
X55705515Y-52213592D01*
X55816408Y-52324485D01*
X55903537Y-52454883D01*
X55963552Y-52599772D01*
X55994148Y-52753586D01*
X55994148Y-52910414D01*
X55963552Y-53064228D01*
X55903537Y-53209117D01*
X55816408Y-53339515D01*
X55705515Y-53450408D01*
X55575117Y-53537537D01*
X55430228Y-53597552D01*
X55276414Y-53628148D01*
X55119586Y-53628148D01*
X54965772Y-53597552D01*
X54820883Y-53537537D01*
X54690485Y-53450408D01*
X54579592Y-53339515D01*
X54492463Y-53209117D01*
X54432448Y-53064228D01*
X54401852Y-52910414D01*
X54401852Y-52753586D01*
X54432448Y-52599772D01*
X54492463Y-52454883D01*
X54579592Y-52324485D01*
X54690485Y-52213592D01*
X54820883Y-52126463D01*
X54965772Y-52066448D01*
X55119586Y-52035852D01*
X55276414Y-52035852D01*
X55430228Y-52066448D01*
G37*
G36*
X60430228Y-52066448D02*
G01*
X60575117Y-52126463D01*
X60705515Y-52213592D01*
X60816408Y-52324485D01*
X60903537Y-52454883D01*
X60963552Y-52599772D01*
X60994148Y-52753586D01*
X60994148Y-52910414D01*
X60963552Y-53064228D01*
X60903537Y-53209117D01*
X60816408Y-53339515D01*
X60705515Y-53450408D01*
X60575117Y-53537537D01*
X60430228Y-53597552D01*
X60276414Y-53628148D01*
X60119586Y-53628148D01*
X59965772Y-53597552D01*
X59820883Y-53537537D01*
X59690485Y-53450408D01*
X59579592Y-53339515D01*
X59492463Y-53209117D01*
X59432448Y-53064228D01*
X59401852Y-52910414D01*
X59401852Y-52753586D01*
X59432448Y-52599772D01*
X59492463Y-52454883D01*
X59579592Y-52324485D01*
X59690485Y-52213592D01*
X59820883Y-52126463D01*
X59965772Y-52066448D01*
X60119586Y-52035852D01*
X60276414Y-52035852D01*
X60430228Y-52066448D01*
G37*
G36*
X87517403Y-51978918D02*
G01*
X87566066Y-52011434D01*
X87598582Y-52060097D01*
X87610000Y-52117500D01*
X87610000Y-53292500D01*
X87598582Y-53349903D01*
X87566066Y-53398566D01*
X87517403Y-53431082D01*
X87460000Y-53442500D01*
X87160000Y-53442500D01*
X87102597Y-53431082D01*
X87053934Y-53398566D01*
X87021418Y-53349903D01*
X87010000Y-53292500D01*
X87010000Y-52117500D01*
X87021418Y-52060097D01*
X87053934Y-52011434D01*
X87102597Y-51978918D01*
X87160000Y-51967500D01*
X87460000Y-51967500D01*
X87517403Y-51978918D01*
G37*
G36*
X93277813Y-52926000D02*
G01*
X92227813Y-52926000D01*
X92227813Y-51426000D01*
X93277813Y-51426000D01*
X93277813Y-52926000D01*
G37*
G36*
X94223722Y-51465963D02*
G01*
X94342413Y-51534489D01*
X94439324Y-51631400D01*
X94507850Y-51750091D01*
X94543322Y-51882474D01*
X94547813Y-51951000D01*
X94547813Y-52401000D01*
X94543322Y-52469526D01*
X94507850Y-52601909D01*
X94439324Y-52720600D01*
X94342413Y-52817511D01*
X94223722Y-52886037D01*
X94091339Y-52921509D01*
X93954287Y-52921509D01*
X93821904Y-52886037D01*
X93703213Y-52817511D01*
X93606302Y-52720600D01*
X93537776Y-52601909D01*
X93502304Y-52469526D01*
X93497813Y-52401000D01*
X93497813Y-51951000D01*
X93502304Y-51882474D01*
X93537776Y-51750091D01*
X93606302Y-51631400D01*
X93703213Y-51534489D01*
X93821904Y-51465963D01*
X93954287Y-51430491D01*
X94091339Y-51430491D01*
X94223722Y-51465963D01*
G37*
G36*
X95493722Y-51465963D02*
G01*
X95612413Y-51534489D01*
X95709324Y-51631400D01*
X95777850Y-51750091D01*
X95813322Y-51882474D01*
X95817813Y-51951000D01*
X95817813Y-52401000D01*
X95813322Y-52469526D01*
X95777850Y-52601909D01*
X95709324Y-52720600D01*
X95612413Y-52817511D01*
X95493722Y-52886037D01*
X95361339Y-52921509D01*
X95224287Y-52921509D01*
X95091904Y-52886037D01*
X94973213Y-52817511D01*
X94876302Y-52720600D01*
X94807776Y-52601909D01*
X94772304Y-52469526D01*
X94767813Y-52401000D01*
X94767813Y-51951000D01*
X94772304Y-51882474D01*
X94807776Y-51750091D01*
X94876302Y-51631400D01*
X94973213Y-51534489D01*
X95091904Y-51465963D01*
X95224287Y-51430491D01*
X95361339Y-51430491D01*
X95493722Y-51465963D01*
G37*
G36*
X108196742Y-50494601D02*
G01*
X108350687Y-50558367D01*
X108489234Y-50650941D01*
X108607059Y-50768766D01*
X108699633Y-50907313D01*
X108763399Y-51061258D01*
X108795907Y-51224685D01*
X108795907Y-51391315D01*
X108763399Y-51554742D01*
X108699633Y-51708687D01*
X108607059Y-51847234D01*
X108489234Y-51965059D01*
X108350687Y-52057633D01*
X108196742Y-52121399D01*
X108033315Y-52153907D01*
X107866685Y-52153907D01*
X107703258Y-52121399D01*
X107549313Y-52057633D01*
X107410766Y-51965059D01*
X107292941Y-51847234D01*
X107200367Y-51708687D01*
X107136601Y-51554742D01*
X107104093Y-51391315D01*
X107104093Y-51224685D01*
X107136601Y-51061258D01*
X107200367Y-50907313D01*
X107292941Y-50768766D01*
X107410766Y-50650941D01*
X107549313Y-50558367D01*
X107703258Y-50494601D01*
X107866685Y-50462093D01*
X108033315Y-50462093D01*
X108196742Y-50494601D01*
G37*
G36*
X65247931Y-50041086D02*
G01*
X65298121Y-50046909D01*
X65315270Y-50054481D01*
X65338752Y-50059152D01*
X65363891Y-50075949D01*
X65383777Y-50084730D01*
X65397358Y-50098311D01*
X65419858Y-50113345D01*
X65434891Y-50135844D01*
X65448472Y-50149425D01*
X65457251Y-50169308D01*
X65474051Y-50194451D01*
X65478722Y-50217934D01*
X65486293Y-50235081D01*
X65492114Y-50285261D01*
X65493081Y-50290122D01*
X65493081Y-51590122D01*
X65492113Y-51594985D01*
X65486293Y-51645162D01*
X65478722Y-51662307D01*
X65474051Y-51685793D01*
X65457250Y-51710937D01*
X65448472Y-51730818D01*
X65434893Y-51744396D01*
X65419858Y-51766899D01*
X65397355Y-51781934D01*
X65383777Y-51795513D01*
X65363896Y-51804291D01*
X65338752Y-51821092D01*
X65315266Y-51825763D01*
X65298121Y-51833334D01*
X65247942Y-51839154D01*
X65243081Y-51840122D01*
X61973081Y-51840122D01*
X61968219Y-51839154D01*
X61918040Y-51833334D01*
X61900893Y-51825763D01*
X61877410Y-51821092D01*
X61852267Y-51804292D01*
X61832384Y-51795513D01*
X61818803Y-51781932D01*
X61796304Y-51766899D01*
X61781270Y-51744399D01*
X61767689Y-51730818D01*
X61758908Y-51710932D01*
X61742111Y-51685793D01*
X61737440Y-51662311D01*
X61729868Y-51645162D01*
X61724045Y-51594971D01*
X61723081Y-51590122D01*
X61723081Y-50290122D01*
X61724045Y-50285272D01*
X61729868Y-50235081D01*
X61737440Y-50217930D01*
X61742111Y-50194451D01*
X61758907Y-50169313D01*
X61767689Y-50149425D01*
X61781272Y-50135841D01*
X61796304Y-50113345D01*
X61818800Y-50098313D01*
X61832384Y-50084730D01*
X61852272Y-50075948D01*
X61877410Y-50059152D01*
X61900889Y-50054481D01*
X61918040Y-50046909D01*
X61968232Y-50041086D01*
X61973081Y-50040122D01*
X65243081Y-50040122D01*
X65247931Y-50041086D01*
G37*
G36*
X83027931Y-50041086D02*
G01*
X83078121Y-50046909D01*
X83095270Y-50054481D01*
X83118752Y-50059152D01*
X83143891Y-50075949D01*
X83163777Y-50084730D01*
X83177358Y-50098311D01*
X83199858Y-50113345D01*
X83214891Y-50135844D01*
X83228472Y-50149425D01*
X83237251Y-50169308D01*
X83254051Y-50194451D01*
X83258722Y-50217934D01*
X83266293Y-50235081D01*
X83272114Y-50285261D01*
X83273081Y-50290122D01*
X83273081Y-51590122D01*
X83272113Y-51594985D01*
X83266293Y-51645162D01*
X83258722Y-51662307D01*
X83254051Y-51685793D01*
X83237250Y-51710937D01*
X83228472Y-51730818D01*
X83214893Y-51744396D01*
X83199858Y-51766899D01*
X83177355Y-51781934D01*
X83163777Y-51795513D01*
X83143896Y-51804291D01*
X83118752Y-51821092D01*
X83095266Y-51825763D01*
X83078121Y-51833334D01*
X83027942Y-51839154D01*
X83023081Y-51840122D01*
X79753081Y-51840122D01*
X79748219Y-51839154D01*
X79698040Y-51833334D01*
X79680893Y-51825763D01*
X79657410Y-51821092D01*
X79632267Y-51804292D01*
X79612384Y-51795513D01*
X79598803Y-51781932D01*
X79576304Y-51766899D01*
X79561270Y-51744399D01*
X79547689Y-51730818D01*
X79538908Y-51710932D01*
X79522111Y-51685793D01*
X79517440Y-51662311D01*
X79509868Y-51645162D01*
X79504045Y-51594971D01*
X79503081Y-51590122D01*
X79503081Y-50290122D01*
X79504045Y-50285272D01*
X79509868Y-50235081D01*
X79517440Y-50217930D01*
X79522111Y-50194451D01*
X79538907Y-50169313D01*
X79547689Y-50149425D01*
X79561272Y-50135841D01*
X79576304Y-50113345D01*
X79598800Y-50098313D01*
X79612384Y-50084730D01*
X79632272Y-50075948D01*
X79657410Y-50059152D01*
X79680889Y-50054481D01*
X79698040Y-50046909D01*
X79748232Y-50041086D01*
X79753081Y-50040122D01*
X83023081Y-50040122D01*
X83027931Y-50041086D01*
G37*
G36*
X50074285Y-49843060D02*
G01*
X50255397Y-49918079D01*
X50418393Y-50026990D01*
X50557010Y-50165607D01*
X50665921Y-50328603D01*
X50740940Y-50509715D01*
X50779185Y-50701983D01*
X50779185Y-50898017D01*
X50740940Y-51090285D01*
X50665921Y-51271397D01*
X50557010Y-51434393D01*
X50418393Y-51573010D01*
X50255397Y-51681921D01*
X50074285Y-51756940D01*
X49882017Y-51795185D01*
X49685983Y-51795185D01*
X49493715Y-51756940D01*
X49312603Y-51681921D01*
X49149607Y-51573010D01*
X49010990Y-51434393D01*
X48902079Y-51271397D01*
X48827060Y-51090285D01*
X48788815Y-50898017D01*
X48788815Y-50701983D01*
X48827060Y-50509715D01*
X48902079Y-50328603D01*
X49010990Y-50165607D01*
X49149607Y-50026990D01*
X49312603Y-49918079D01*
X49493715Y-49843060D01*
X49685983Y-49804815D01*
X49882017Y-49804815D01*
X50074285Y-49843060D01*
G37*
G36*
X86567403Y-50103918D02*
G01*
X86616066Y-50136434D01*
X86648582Y-50185097D01*
X86660000Y-50242500D01*
X86660000Y-51417500D01*
X86648582Y-51474903D01*
X86616066Y-51523566D01*
X86567403Y-51556082D01*
X86510000Y-51567500D01*
X86210000Y-51567500D01*
X86152597Y-51556082D01*
X86103934Y-51523566D01*
X86071418Y-51474903D01*
X86060000Y-51417500D01*
X86060000Y-50242500D01*
X86071418Y-50185097D01*
X86103934Y-50136434D01*
X86152597Y-50103918D01*
X86210000Y-50092500D01*
X86510000Y-50092500D01*
X86567403Y-50103918D01*
G37*
G36*
X88467403Y-50103918D02*
G01*
X88516066Y-50136434D01*
X88548582Y-50185097D01*
X88560000Y-50242500D01*
X88560000Y-51417500D01*
X88548582Y-51474903D01*
X88516066Y-51523566D01*
X88467403Y-51556082D01*
X88410000Y-51567500D01*
X88110000Y-51567500D01*
X88052597Y-51556082D01*
X88003934Y-51523566D01*
X87971418Y-51474903D01*
X87960000Y-51417500D01*
X87960000Y-50242500D01*
X87971418Y-50185097D01*
X88003934Y-50136434D01*
X88052597Y-50103918D01*
X88110000Y-50092500D01*
X88410000Y-50092500D01*
X88467403Y-50103918D01*
G37*
G36*
X114958315Y-49654093D02*
G01*
X115121742Y-49686601D01*
X115275687Y-49750367D01*
X115414234Y-49842941D01*
X115532059Y-49960766D01*
X115624633Y-50099313D01*
X115688399Y-50253258D01*
X115720907Y-50416685D01*
X115720907Y-50583315D01*
X115688399Y-50746742D01*
X115624633Y-50900687D01*
X115532059Y-51039234D01*
X115414234Y-51157059D01*
X115275687Y-51249633D01*
X115121742Y-51313399D01*
X114958315Y-51345907D01*
X114875000Y-51350000D01*
X114873522Y-51350000D01*
X114626478Y-51350000D01*
X114625000Y-51350000D01*
X114541685Y-51345907D01*
X114378258Y-51313399D01*
X114224313Y-51249633D01*
X114085766Y-51157059D01*
X113967941Y-51039234D01*
X113875367Y-50900687D01*
X113811601Y-50746742D01*
X113779093Y-50583315D01*
X113779093Y-50416685D01*
X113811601Y-50253258D01*
X113875367Y-50099313D01*
X113967941Y-49960766D01*
X114085766Y-49842941D01*
X114224313Y-49750367D01*
X114378258Y-49686601D01*
X114541685Y-49654093D01*
X114625000Y-49650000D01*
X114875000Y-49650000D01*
X114958315Y-49654093D01*
G37*
G36*
X108800000Y-49618000D02*
G01*
X107100000Y-49618000D01*
X107100000Y-47918000D01*
X108800000Y-47918000D01*
X108800000Y-49618000D01*
G37*
G36*
X65247931Y-47501086D02*
G01*
X65298121Y-47506909D01*
X65315270Y-47514481D01*
X65338752Y-47519152D01*
X65363891Y-47535949D01*
X65383777Y-47544730D01*
X65397358Y-47558311D01*
X65419858Y-47573345D01*
X65434891Y-47595844D01*
X65448472Y-47609425D01*
X65457251Y-47629308D01*
X65474051Y-47654451D01*
X65478722Y-47677934D01*
X65486293Y-47695081D01*
X65492114Y-47745261D01*
X65493081Y-47750122D01*
X65493081Y-49050122D01*
X65492113Y-49054985D01*
X65486293Y-49105162D01*
X65478722Y-49122307D01*
X65474051Y-49145793D01*
X65457250Y-49170937D01*
X65448472Y-49190818D01*
X65434893Y-49204396D01*
X65419858Y-49226899D01*
X65397355Y-49241934D01*
X65383777Y-49255513D01*
X65363896Y-49264291D01*
X65338752Y-49281092D01*
X65315266Y-49285763D01*
X65298121Y-49293334D01*
X65247942Y-49299154D01*
X65243081Y-49300122D01*
X61973081Y-49300122D01*
X61968219Y-49299154D01*
X61918040Y-49293334D01*
X61900893Y-49285763D01*
X61877410Y-49281092D01*
X61852267Y-49264292D01*
X61832384Y-49255513D01*
X61818803Y-49241932D01*
X61796304Y-49226899D01*
X61781270Y-49204399D01*
X61767689Y-49190818D01*
X61758908Y-49170932D01*
X61742111Y-49145793D01*
X61737440Y-49122311D01*
X61729868Y-49105162D01*
X61724045Y-49054971D01*
X61723081Y-49050122D01*
X61723081Y-47750122D01*
X61724045Y-47745272D01*
X61729868Y-47695081D01*
X61737440Y-47677930D01*
X61742111Y-47654451D01*
X61758907Y-47629313D01*
X61767689Y-47609425D01*
X61781272Y-47595841D01*
X61796304Y-47573345D01*
X61818800Y-47558313D01*
X61832384Y-47544730D01*
X61852272Y-47535948D01*
X61877410Y-47519152D01*
X61900889Y-47514481D01*
X61918040Y-47506909D01*
X61968232Y-47501086D01*
X61973081Y-47500122D01*
X65243081Y-47500122D01*
X65247931Y-47501086D01*
G37*
G36*
X83027931Y-47501086D02*
G01*
X83078121Y-47506909D01*
X83095270Y-47514481D01*
X83118752Y-47519152D01*
X83143891Y-47535949D01*
X83163777Y-47544730D01*
X83177358Y-47558311D01*
X83199858Y-47573345D01*
X83214891Y-47595844D01*
X83228472Y-47609425D01*
X83237251Y-47629308D01*
X83254051Y-47654451D01*
X83258722Y-47677934D01*
X83266293Y-47695081D01*
X83272114Y-47745261D01*
X83273081Y-47750122D01*
X83273081Y-49050122D01*
X83272113Y-49054985D01*
X83266293Y-49105162D01*
X83258722Y-49122307D01*
X83254051Y-49145793D01*
X83237250Y-49170937D01*
X83228472Y-49190818D01*
X83214893Y-49204396D01*
X83199858Y-49226899D01*
X83177355Y-49241934D01*
X83163777Y-49255513D01*
X83143896Y-49264291D01*
X83118752Y-49281092D01*
X83095266Y-49285763D01*
X83078121Y-49293334D01*
X83027942Y-49299154D01*
X83023081Y-49300122D01*
X79753081Y-49300122D01*
X79748219Y-49299154D01*
X79698040Y-49293334D01*
X79680893Y-49285763D01*
X79657410Y-49281092D01*
X79632267Y-49264292D01*
X79612384Y-49255513D01*
X79598803Y-49241932D01*
X79576304Y-49226899D01*
X79561270Y-49204399D01*
X79547689Y-49190818D01*
X79538908Y-49170932D01*
X79522111Y-49145793D01*
X79517440Y-49122311D01*
X79509868Y-49105162D01*
X79504045Y-49054971D01*
X79503081Y-49050122D01*
X79503081Y-47750122D01*
X79504045Y-47745272D01*
X79509868Y-47695081D01*
X79517440Y-47677930D01*
X79522111Y-47654451D01*
X79538907Y-47629313D01*
X79547689Y-47609425D01*
X79561272Y-47595841D01*
X79576304Y-47573345D01*
X79598800Y-47558313D01*
X79612384Y-47544730D01*
X79632272Y-47535948D01*
X79657410Y-47519152D01*
X79680889Y-47514481D01*
X79698040Y-47506909D01*
X79748232Y-47501086D01*
X79753081Y-47500122D01*
X83023081Y-47500122D01*
X83027931Y-47501086D01*
G37*
G36*
X50074285Y-47303060D02*
G01*
X50255397Y-47378079D01*
X50418393Y-47486990D01*
X50557010Y-47625607D01*
X50665921Y-47788603D01*
X50740940Y-47969715D01*
X50779185Y-48161983D01*
X50779185Y-48358017D01*
X50740940Y-48550285D01*
X50665921Y-48731397D01*
X50557010Y-48894393D01*
X50418393Y-49033010D01*
X50255397Y-49141921D01*
X50074285Y-49216940D01*
X49882017Y-49255185D01*
X49685983Y-49255185D01*
X49493715Y-49216940D01*
X49312603Y-49141921D01*
X49149607Y-49033010D01*
X49010990Y-48894393D01*
X48902079Y-48731397D01*
X48827060Y-48550285D01*
X48788815Y-48358017D01*
X48788815Y-48161983D01*
X48827060Y-47969715D01*
X48902079Y-47788603D01*
X49010990Y-47625607D01*
X49149607Y-47486990D01*
X49312603Y-47378079D01*
X49493715Y-47303060D01*
X49685983Y-47264815D01*
X49882017Y-47264815D01*
X50074285Y-47303060D01*
G37*
G36*
X115479850Y-47150964D02*
G01*
X115530040Y-47156787D01*
X115547189Y-47164359D01*
X115570671Y-47169030D01*
X115595810Y-47185827D01*
X115615696Y-47194608D01*
X115629277Y-47208189D01*
X115651777Y-47223223D01*
X115666810Y-47245722D01*
X115680391Y-47259303D01*
X115689170Y-47279186D01*
X115705970Y-47304329D01*
X115710641Y-47327812D01*
X115718212Y-47344959D01*
X115724033Y-47395139D01*
X115725000Y-47400000D01*
X115725000Y-48600000D01*
X115724032Y-48604863D01*
X115718212Y-48655040D01*
X115710641Y-48672185D01*
X115705970Y-48695671D01*
X115689169Y-48720815D01*
X115680391Y-48740696D01*
X115666812Y-48754274D01*
X115651777Y-48776777D01*
X115629274Y-48791812D01*
X115615696Y-48805391D01*
X115595815Y-48814169D01*
X115570671Y-48830970D01*
X115547185Y-48835641D01*
X115530040Y-48843212D01*
X115479861Y-48849032D01*
X115475000Y-48850000D01*
X114025000Y-48850000D01*
X114020138Y-48849032D01*
X113969959Y-48843212D01*
X113952812Y-48835641D01*
X113929329Y-48830970D01*
X113904186Y-48814170D01*
X113884303Y-48805391D01*
X113870722Y-48791810D01*
X113848223Y-48776777D01*
X113833189Y-48754277D01*
X113819608Y-48740696D01*
X113810827Y-48720810D01*
X113794030Y-48695671D01*
X113789359Y-48672189D01*
X113781787Y-48655040D01*
X113775964Y-48604849D01*
X113775000Y-48600000D01*
X113775000Y-47400000D01*
X113775964Y-47395150D01*
X113781787Y-47344959D01*
X113789359Y-47327808D01*
X113794030Y-47304329D01*
X113810826Y-47279191D01*
X113819608Y-47259303D01*
X113833191Y-47245719D01*
X113848223Y-47223223D01*
X113870719Y-47208191D01*
X113884303Y-47194608D01*
X113904191Y-47185826D01*
X113929329Y-47169030D01*
X113952808Y-47164359D01*
X113969959Y-47156787D01*
X114020151Y-47150964D01*
X114025000Y-47150000D01*
X115475000Y-47150000D01*
X115479850Y-47150964D01*
G37*
G36*
X86338228Y-46859448D02*
G01*
X86483117Y-46919463D01*
X86613515Y-47006592D01*
X86724408Y-47117485D01*
X86811537Y-47247883D01*
X86871552Y-47392772D01*
X86902148Y-47546586D01*
X86902148Y-47703414D01*
X86871552Y-47857228D01*
X86811537Y-48002117D01*
X86724408Y-48132515D01*
X86613515Y-48243408D01*
X86483117Y-48330537D01*
X86338228Y-48390552D01*
X86184414Y-48421148D01*
X86027586Y-48421148D01*
X85873772Y-48390552D01*
X85728883Y-48330537D01*
X85598485Y-48243408D01*
X85487592Y-48132515D01*
X85400463Y-48002117D01*
X85340448Y-47857228D01*
X85309852Y-47703414D01*
X85309852Y-47546586D01*
X85340448Y-47392772D01*
X85400463Y-47247883D01*
X85487592Y-47117485D01*
X85598485Y-47006592D01*
X85728883Y-46919463D01*
X85873772Y-46859448D01*
X86027586Y-46828852D01*
X86184414Y-46828852D01*
X86338228Y-46859448D01*
G37*
G36*
X93958228Y-46859448D02*
G01*
X94103117Y-46919463D01*
X94233515Y-47006592D01*
X94344408Y-47117485D01*
X94431537Y-47247883D01*
X94491552Y-47392772D01*
X94522148Y-47546586D01*
X94522148Y-47703414D01*
X94491552Y-47857228D01*
X94431537Y-48002117D01*
X94344408Y-48132515D01*
X94233515Y-48243408D01*
X94103117Y-48330537D01*
X93958228Y-48390552D01*
X93804414Y-48421148D01*
X93647586Y-48421148D01*
X93493772Y-48390552D01*
X93348883Y-48330537D01*
X93218485Y-48243408D01*
X93107592Y-48132515D01*
X93020463Y-48002117D01*
X92960448Y-47857228D01*
X92929852Y-47703414D01*
X92929852Y-47546586D01*
X92960448Y-47392772D01*
X93020463Y-47247883D01*
X93107592Y-47117485D01*
X93218485Y-47006592D01*
X93348883Y-46919463D01*
X93493772Y-46859448D01*
X93647586Y-46828852D01*
X93804414Y-46828852D01*
X93958228Y-46859448D01*
G37*
G36*
X59482850Y-45936964D02*
G01*
X59533040Y-45942787D01*
X59550189Y-45950359D01*
X59573671Y-45955030D01*
X59598810Y-45971827D01*
X59618696Y-45980608D01*
X59632277Y-45994189D01*
X59654777Y-46009223D01*
X59669810Y-46031722D01*
X59683391Y-46045303D01*
X59692170Y-46065186D01*
X59708970Y-46090329D01*
X59713641Y-46113812D01*
X59721212Y-46130959D01*
X59727033Y-46181139D01*
X59728000Y-46186000D01*
X59728000Y-47286000D01*
X59727032Y-47290863D01*
X59721212Y-47341040D01*
X59713641Y-47358185D01*
X59708970Y-47381671D01*
X59692169Y-47406815D01*
X59683391Y-47426696D01*
X59669812Y-47440274D01*
X59654777Y-47462777D01*
X59632274Y-47477812D01*
X59618696Y-47491391D01*
X59598815Y-47500169D01*
X59573671Y-47516970D01*
X59550185Y-47521641D01*
X59533040Y-47529212D01*
X59482861Y-47535032D01*
X59478000Y-47536000D01*
X58378000Y-47536000D01*
X58373138Y-47535032D01*
X58322959Y-47529212D01*
X58305812Y-47521641D01*
X58282329Y-47516970D01*
X58257186Y-47500170D01*
X58237303Y-47491391D01*
X58223722Y-47477810D01*
X58201223Y-47462777D01*
X58186189Y-47440277D01*
X58172608Y-47426696D01*
X58163827Y-47406810D01*
X58147030Y-47381671D01*
X58142359Y-47358189D01*
X58134787Y-47341040D01*
X58128964Y-47290849D01*
X58128000Y-47286000D01*
X58128000Y-46186000D01*
X58128964Y-46181150D01*
X58134787Y-46130959D01*
X58142359Y-46113808D01*
X58147030Y-46090329D01*
X58163826Y-46065191D01*
X58172608Y-46045303D01*
X58186191Y-46031719D01*
X58201223Y-46009223D01*
X58223719Y-45994191D01*
X58237303Y-45980608D01*
X58257191Y-45971826D01*
X58282329Y-45955030D01*
X58305808Y-45950359D01*
X58322959Y-45942787D01*
X58373151Y-45936964D01*
X58378000Y-45936000D01*
X59478000Y-45936000D01*
X59482850Y-45936964D01*
G37*
G36*
X57160228Y-45970448D02*
G01*
X57305117Y-46030463D01*
X57435515Y-46117592D01*
X57546408Y-46228485D01*
X57633537Y-46358883D01*
X57693552Y-46503772D01*
X57724148Y-46657586D01*
X57724148Y-46814414D01*
X57693552Y-46968228D01*
X57633537Y-47113117D01*
X57546408Y-47243515D01*
X57435515Y-47354408D01*
X57305117Y-47441537D01*
X57160228Y-47501552D01*
X57006414Y-47532148D01*
X56849586Y-47532148D01*
X56695772Y-47501552D01*
X56550883Y-47441537D01*
X56420485Y-47354408D01*
X56309592Y-47243515D01*
X56222463Y-47113117D01*
X56162448Y-46968228D01*
X56131852Y-46814414D01*
X56131852Y-46657586D01*
X56162448Y-46503772D01*
X56222463Y-46358883D01*
X56309592Y-46228485D01*
X56420485Y-46117592D01*
X56550883Y-46030463D01*
X56695772Y-45970448D01*
X56849586Y-45939852D01*
X57006414Y-45939852D01*
X57160228Y-45970448D01*
G37*
G36*
X113331428Y-45801912D02*
G01*
X113444623Y-45848799D01*
X113546496Y-45916868D01*
X113633132Y-46003504D01*
X113701201Y-46105377D01*
X113748088Y-46218572D01*
X113771990Y-46338739D01*
X113771990Y-46461261D01*
X113748088Y-46581428D01*
X113701201Y-46694623D01*
X113633132Y-46796496D01*
X113546496Y-46883132D01*
X113444623Y-46951201D01*
X113331428Y-46998088D01*
X113211261Y-47021990D01*
X113088739Y-47021990D01*
X112968572Y-46998088D01*
X112855377Y-46951201D01*
X112753504Y-46883132D01*
X112666868Y-46796496D01*
X112598799Y-46694623D01*
X112551912Y-46581428D01*
X112528010Y-46461261D01*
X112528010Y-46338739D01*
X112551912Y-46218572D01*
X112598799Y-46105377D01*
X112666868Y-46003504D01*
X112753504Y-45916868D01*
X112855377Y-45848799D01*
X112968572Y-45801912D01*
X113088739Y-45778010D01*
X113211261Y-45778010D01*
X113331428Y-45801912D01*
G37*
G36*
X65247931Y-44961086D02*
G01*
X65298121Y-44966909D01*
X65315270Y-44974481D01*
X65338752Y-44979152D01*
X65363891Y-44995949D01*
X65383777Y-45004730D01*
X65397358Y-45018311D01*
X65419858Y-45033345D01*
X65434891Y-45055844D01*
X65448472Y-45069425D01*
X65457251Y-45089308D01*
X65474051Y-45114451D01*
X65478722Y-45137934D01*
X65486293Y-45155081D01*
X65492114Y-45205261D01*
X65493081Y-45210122D01*
X65493081Y-46510122D01*
X65492113Y-46514985D01*
X65486293Y-46565162D01*
X65478722Y-46582307D01*
X65474051Y-46605793D01*
X65457250Y-46630937D01*
X65448472Y-46650818D01*
X65434893Y-46664396D01*
X65419858Y-46686899D01*
X65397355Y-46701934D01*
X65383777Y-46715513D01*
X65363896Y-46724291D01*
X65338752Y-46741092D01*
X65315266Y-46745763D01*
X65298121Y-46753334D01*
X65247942Y-46759154D01*
X65243081Y-46760122D01*
X61973081Y-46760122D01*
X61968219Y-46759154D01*
X61918040Y-46753334D01*
X61900893Y-46745763D01*
X61877410Y-46741092D01*
X61852267Y-46724292D01*
X61832384Y-46715513D01*
X61818803Y-46701932D01*
X61796304Y-46686899D01*
X61781270Y-46664399D01*
X61767689Y-46650818D01*
X61758908Y-46630932D01*
X61742111Y-46605793D01*
X61737440Y-46582311D01*
X61729868Y-46565162D01*
X61724045Y-46514971D01*
X61723081Y-46510122D01*
X61723081Y-45210122D01*
X61724045Y-45205272D01*
X61729868Y-45155081D01*
X61737440Y-45137930D01*
X61742111Y-45114451D01*
X61758907Y-45089313D01*
X61767689Y-45069425D01*
X61781272Y-45055841D01*
X61796304Y-45033345D01*
X61818800Y-45018313D01*
X61832384Y-45004730D01*
X61852272Y-44995948D01*
X61877410Y-44979152D01*
X61900889Y-44974481D01*
X61918040Y-44966909D01*
X61968232Y-44961086D01*
X61973081Y-44960122D01*
X65243081Y-44960122D01*
X65247931Y-44961086D01*
G37*
G36*
X83027931Y-44961086D02*
G01*
X83078121Y-44966909D01*
X83095270Y-44974481D01*
X83118752Y-44979152D01*
X83143891Y-44995949D01*
X83163777Y-45004730D01*
X83177358Y-45018311D01*
X83199858Y-45033345D01*
X83214891Y-45055844D01*
X83228472Y-45069425D01*
X83237251Y-45089308D01*
X83254051Y-45114451D01*
X83258722Y-45137934D01*
X83266293Y-45155081D01*
X83272114Y-45205261D01*
X83273081Y-45210122D01*
X83273081Y-46510122D01*
X83272113Y-46514985D01*
X83266293Y-46565162D01*
X83258722Y-46582307D01*
X83254051Y-46605793D01*
X83237250Y-46630937D01*
X83228472Y-46650818D01*
X83214893Y-46664396D01*
X83199858Y-46686899D01*
X83177355Y-46701934D01*
X83163777Y-46715513D01*
X83143896Y-46724291D01*
X83118752Y-46741092D01*
X83095266Y-46745763D01*
X83078121Y-46753334D01*
X83027942Y-46759154D01*
X83023081Y-46760122D01*
X79753081Y-46760122D01*
X79748219Y-46759154D01*
X79698040Y-46753334D01*
X79680893Y-46745763D01*
X79657410Y-46741092D01*
X79632267Y-46724292D01*
X79612384Y-46715513D01*
X79598803Y-46701932D01*
X79576304Y-46686899D01*
X79561270Y-46664399D01*
X79547689Y-46650818D01*
X79538908Y-46630932D01*
X79522111Y-46605793D01*
X79517440Y-46582311D01*
X79509868Y-46565162D01*
X79504045Y-46514971D01*
X79503081Y-46510122D01*
X79503081Y-45210122D01*
X79504045Y-45205272D01*
X79509868Y-45155081D01*
X79517440Y-45137930D01*
X79522111Y-45114451D01*
X79538907Y-45089313D01*
X79547689Y-45069425D01*
X79561272Y-45055841D01*
X79576304Y-45033345D01*
X79598800Y-45018313D01*
X79612384Y-45004730D01*
X79632272Y-44995948D01*
X79657410Y-44979152D01*
X79680889Y-44974481D01*
X79698040Y-44966909D01*
X79748232Y-44961086D01*
X79753081Y-44960122D01*
X83023081Y-44960122D01*
X83027931Y-44961086D01*
G37*
G36*
X50074285Y-44763060D02*
G01*
X50255397Y-44838079D01*
X50418393Y-44946990D01*
X50557010Y-45085607D01*
X50665921Y-45248603D01*
X50740940Y-45429715D01*
X50779185Y-45621983D01*
X50779185Y-45818017D01*
X50740940Y-46010285D01*
X50665921Y-46191397D01*
X50557010Y-46354393D01*
X50418393Y-46493010D01*
X50255397Y-46601921D01*
X50074285Y-46676940D01*
X49882017Y-46715185D01*
X49685983Y-46715185D01*
X49493715Y-46676940D01*
X49312603Y-46601921D01*
X49149607Y-46493010D01*
X49010990Y-46354393D01*
X48902079Y-46191397D01*
X48827060Y-46010285D01*
X48788815Y-45818017D01*
X48788815Y-45621983D01*
X48827060Y-45429715D01*
X48902079Y-45248603D01*
X49010990Y-45085607D01*
X49149607Y-44946990D01*
X49312603Y-44838079D01*
X49493715Y-44763060D01*
X49685983Y-44724815D01*
X49882017Y-44724815D01*
X50074285Y-44763060D01*
G37*
G36*
X104732228Y-43984448D02*
G01*
X104877117Y-44044463D01*
X105007515Y-44131592D01*
X105118408Y-44242485D01*
X105205537Y-44372883D01*
X105265552Y-44517772D01*
X105296148Y-44671586D01*
X105296148Y-44828414D01*
X105265552Y-44982228D01*
X105205537Y-45127117D01*
X105118408Y-45257515D01*
X105007515Y-45368408D01*
X104877117Y-45455537D01*
X104732228Y-45515552D01*
X104578414Y-45546148D01*
X104421586Y-45546148D01*
X104267772Y-45515552D01*
X104122883Y-45455537D01*
X103992485Y-45368408D01*
X103881592Y-45257515D01*
X103794463Y-45127117D01*
X103734448Y-44982228D01*
X103703852Y-44828414D01*
X103703852Y-44671586D01*
X103734448Y-44517772D01*
X103794463Y-44372883D01*
X103881592Y-44242485D01*
X103992485Y-44131592D01*
X104122883Y-44044463D01*
X104267772Y-43984448D01*
X104421586Y-43953852D01*
X104578414Y-43953852D01*
X104732228Y-43984448D01*
G37*
G36*
X109732228Y-43984448D02*
G01*
X109877117Y-44044463D01*
X110007515Y-44131592D01*
X110118408Y-44242485D01*
X110205537Y-44372883D01*
X110265552Y-44517772D01*
X110296148Y-44671586D01*
X110296148Y-44828414D01*
X110265552Y-44982228D01*
X110205537Y-45127117D01*
X110118408Y-45257515D01*
X110007515Y-45368408D01*
X109877117Y-45455537D01*
X109732228Y-45515552D01*
X109578414Y-45546148D01*
X109421586Y-45546148D01*
X109267772Y-45515552D01*
X109122883Y-45455537D01*
X108992485Y-45368408D01*
X108881592Y-45257515D01*
X108794463Y-45127117D01*
X108734448Y-44982228D01*
X108703852Y-44828414D01*
X108703852Y-44671586D01*
X108734448Y-44517772D01*
X108794463Y-44372883D01*
X108881592Y-44242485D01*
X108992485Y-44131592D01*
X109122883Y-44044463D01*
X109267772Y-43984448D01*
X109421586Y-43953852D01*
X109578414Y-43953852D01*
X109732228Y-43984448D01*
G37*
G36*
X86338228Y-43684448D02*
G01*
X86483117Y-43744463D01*
X86613515Y-43831592D01*
X86724408Y-43942485D01*
X86811537Y-44072883D01*
X86871552Y-44217772D01*
X86902148Y-44371586D01*
X86902148Y-44528414D01*
X86871552Y-44682228D01*
X86811537Y-44827117D01*
X86724408Y-44957515D01*
X86613515Y-45068408D01*
X86483117Y-45155537D01*
X86338228Y-45215552D01*
X86184414Y-45246148D01*
X86027586Y-45246148D01*
X85873772Y-45215552D01*
X85728883Y-45155537D01*
X85598485Y-45068408D01*
X85487592Y-44957515D01*
X85400463Y-44827117D01*
X85340448Y-44682228D01*
X85309852Y-44528414D01*
X85309852Y-44371586D01*
X85340448Y-44217772D01*
X85400463Y-44072883D01*
X85487592Y-43942485D01*
X85598485Y-43831592D01*
X85728883Y-43744463D01*
X85873772Y-43684448D01*
X86027586Y-43653852D01*
X86184414Y-43653852D01*
X86338228Y-43684448D01*
G37*
G36*
X93958228Y-43684448D02*
G01*
X94103117Y-43744463D01*
X94233515Y-43831592D01*
X94344408Y-43942485D01*
X94431537Y-44072883D01*
X94491552Y-44217772D01*
X94522148Y-44371586D01*
X94522148Y-44528414D01*
X94491552Y-44682228D01*
X94431537Y-44827117D01*
X94344408Y-44957515D01*
X94233515Y-45068408D01*
X94103117Y-45155537D01*
X93958228Y-45215552D01*
X93804414Y-45246148D01*
X93647586Y-45246148D01*
X93493772Y-45215552D01*
X93348883Y-45155537D01*
X93218485Y-45068408D01*
X93107592Y-44957515D01*
X93020463Y-44827117D01*
X92960448Y-44682228D01*
X92929852Y-44528414D01*
X92929852Y-44371586D01*
X92960448Y-44217772D01*
X93020463Y-44072883D01*
X93107592Y-43942485D01*
X93218485Y-43831592D01*
X93348883Y-43744463D01*
X93493772Y-43684448D01*
X93647586Y-43653852D01*
X93804414Y-43653852D01*
X93958228Y-43684448D01*
G37*
G36*
X65247931Y-42421086D02*
G01*
X65298121Y-42426909D01*
X65315270Y-42434481D01*
X65338752Y-42439152D01*
X65363891Y-42455949D01*
X65383777Y-42464730D01*
X65397358Y-42478311D01*
X65419858Y-42493345D01*
X65434891Y-42515844D01*
X65448472Y-42529425D01*
X65457251Y-42549308D01*
X65474051Y-42574451D01*
X65478722Y-42597934D01*
X65486293Y-42615081D01*
X65492114Y-42665261D01*
X65493081Y-42670122D01*
X65493081Y-43970122D01*
X65492113Y-43974985D01*
X65486293Y-44025162D01*
X65478722Y-44042307D01*
X65474051Y-44065793D01*
X65457250Y-44090937D01*
X65448472Y-44110818D01*
X65434893Y-44124396D01*
X65419858Y-44146899D01*
X65397355Y-44161934D01*
X65383777Y-44175513D01*
X65363896Y-44184291D01*
X65338752Y-44201092D01*
X65315266Y-44205763D01*
X65298121Y-44213334D01*
X65247942Y-44219154D01*
X65243081Y-44220122D01*
X61973081Y-44220122D01*
X61968219Y-44219154D01*
X61918040Y-44213334D01*
X61900893Y-44205763D01*
X61877410Y-44201092D01*
X61852267Y-44184292D01*
X61832384Y-44175513D01*
X61818803Y-44161932D01*
X61796304Y-44146899D01*
X61781270Y-44124399D01*
X61767689Y-44110818D01*
X61758908Y-44090932D01*
X61742111Y-44065793D01*
X61737440Y-44042311D01*
X61729868Y-44025162D01*
X61724045Y-43974971D01*
X61723081Y-43970122D01*
X61723081Y-42670122D01*
X61724045Y-42665272D01*
X61729868Y-42615081D01*
X61737440Y-42597930D01*
X61742111Y-42574451D01*
X61758907Y-42549313D01*
X61767689Y-42529425D01*
X61781272Y-42515841D01*
X61796304Y-42493345D01*
X61818800Y-42478313D01*
X61832384Y-42464730D01*
X61852272Y-42455948D01*
X61877410Y-42439152D01*
X61900889Y-42434481D01*
X61918040Y-42426909D01*
X61968232Y-42421086D01*
X61973081Y-42420122D01*
X65243081Y-42420122D01*
X65247931Y-42421086D01*
G37*
G36*
X83027931Y-42421086D02*
G01*
X83078121Y-42426909D01*
X83095270Y-42434481D01*
X83118752Y-42439152D01*
X83143891Y-42455949D01*
X83163777Y-42464730D01*
X83177358Y-42478311D01*
X83199858Y-42493345D01*
X83214891Y-42515844D01*
X83228472Y-42529425D01*
X83237251Y-42549308D01*
X83254051Y-42574451D01*
X83258722Y-42597934D01*
X83266293Y-42615081D01*
X83272114Y-42665261D01*
X83273081Y-42670122D01*
X83273081Y-43970122D01*
X83272113Y-43974985D01*
X83266293Y-44025162D01*
X83258722Y-44042307D01*
X83254051Y-44065793D01*
X83237250Y-44090937D01*
X83228472Y-44110818D01*
X83214893Y-44124396D01*
X83199858Y-44146899D01*
X83177355Y-44161934D01*
X83163777Y-44175513D01*
X83143896Y-44184291D01*
X83118752Y-44201092D01*
X83095266Y-44205763D01*
X83078121Y-44213334D01*
X83027942Y-44219154D01*
X83023081Y-44220122D01*
X79753081Y-44220122D01*
X79748219Y-44219154D01*
X79698040Y-44213334D01*
X79680893Y-44205763D01*
X79657410Y-44201092D01*
X79632267Y-44184292D01*
X79612384Y-44175513D01*
X79598803Y-44161932D01*
X79576304Y-44146899D01*
X79561270Y-44124399D01*
X79547689Y-44110818D01*
X79538908Y-44090932D01*
X79522111Y-44065793D01*
X79517440Y-44042311D01*
X79509868Y-44025162D01*
X79504045Y-43974971D01*
X79503081Y-43970122D01*
X79503081Y-42670122D01*
X79504045Y-42665272D01*
X79509868Y-42615081D01*
X79517440Y-42597930D01*
X79522111Y-42574451D01*
X79538907Y-42549313D01*
X79547689Y-42529425D01*
X79561272Y-42515841D01*
X79576304Y-42493345D01*
X79598800Y-42478313D01*
X79612384Y-42464730D01*
X79632272Y-42455948D01*
X79657410Y-42439152D01*
X79680889Y-42434481D01*
X79698040Y-42426909D01*
X79748232Y-42421086D01*
X79753081Y-42420122D01*
X83023081Y-42420122D01*
X83027931Y-42421086D01*
G37*
G36*
X50074285Y-42223060D02*
G01*
X50255397Y-42298079D01*
X50418393Y-42406990D01*
X50557010Y-42545607D01*
X50665921Y-42708603D01*
X50740940Y-42889715D01*
X50779185Y-43081983D01*
X50779185Y-43278017D01*
X50740940Y-43470285D01*
X50665921Y-43651397D01*
X50557010Y-43814393D01*
X50418393Y-43953010D01*
X50255397Y-44061921D01*
X50074285Y-44136940D01*
X49882017Y-44175185D01*
X49685983Y-44175185D01*
X49493715Y-44136940D01*
X49312603Y-44061921D01*
X49149607Y-43953010D01*
X49010990Y-43814393D01*
X48902079Y-43651397D01*
X48827060Y-43470285D01*
X48788815Y-43278017D01*
X48788815Y-43081983D01*
X48827060Y-42889715D01*
X48902079Y-42708603D01*
X49010990Y-42545607D01*
X49149607Y-42406990D01*
X49312603Y-42298079D01*
X49493715Y-42223060D01*
X49685983Y-42184815D01*
X49882017Y-42184815D01*
X50074285Y-42223060D01*
G37*
G36*
X99800228Y-41398448D02*
G01*
X99945117Y-41458463D01*
X100075515Y-41545592D01*
X100186408Y-41656485D01*
X100273537Y-41786883D01*
X100333552Y-41931772D01*
X100364148Y-42085586D01*
X100364148Y-42242414D01*
X100333552Y-42396228D01*
X100273537Y-42541117D01*
X100186408Y-42671515D01*
X100075515Y-42782408D01*
X99945117Y-42869537D01*
X99800228Y-42929552D01*
X99646414Y-42960148D01*
X99489586Y-42960148D01*
X99335772Y-42929552D01*
X99190883Y-42869537D01*
X99060485Y-42782408D01*
X98949592Y-42671515D01*
X98862463Y-42541117D01*
X98802448Y-42396228D01*
X98771852Y-42242414D01*
X98771852Y-42085586D01*
X98802448Y-41931772D01*
X98862463Y-41786883D01*
X98949592Y-41656485D01*
X99060485Y-41545592D01*
X99190883Y-41458463D01*
X99335772Y-41398448D01*
X99489586Y-41367852D01*
X99646414Y-41367852D01*
X99800228Y-41398448D01*
G37*
G36*
X86338228Y-40509448D02*
G01*
X86483117Y-40569463D01*
X86613515Y-40656592D01*
X86724408Y-40767485D01*
X86811537Y-40897883D01*
X86871552Y-41042772D01*
X86902148Y-41196586D01*
X86902148Y-41353414D01*
X86871552Y-41507228D01*
X86811537Y-41652117D01*
X86724408Y-41782515D01*
X86613515Y-41893408D01*
X86483117Y-41980537D01*
X86338228Y-42040552D01*
X86184414Y-42071148D01*
X86027586Y-42071148D01*
X85873772Y-42040552D01*
X85728883Y-41980537D01*
X85598485Y-41893408D01*
X85487592Y-41782515D01*
X85400463Y-41652117D01*
X85340448Y-41507228D01*
X85309852Y-41353414D01*
X85309852Y-41196586D01*
X85340448Y-41042772D01*
X85400463Y-40897883D01*
X85487592Y-40767485D01*
X85598485Y-40656592D01*
X85728883Y-40569463D01*
X85873772Y-40509448D01*
X86027586Y-40478852D01*
X86184414Y-40478852D01*
X86338228Y-40509448D01*
G37*
G36*
X93958228Y-40509448D02*
G01*
X94103117Y-40569463D01*
X94233515Y-40656592D01*
X94344408Y-40767485D01*
X94431537Y-40897883D01*
X94491552Y-41042772D01*
X94522148Y-41196586D01*
X94522148Y-41353414D01*
X94491552Y-41507228D01*
X94431537Y-41652117D01*
X94344408Y-41782515D01*
X94233515Y-41893408D01*
X94103117Y-41980537D01*
X93958228Y-42040552D01*
X93804414Y-42071148D01*
X93647586Y-42071148D01*
X93493772Y-42040552D01*
X93348883Y-41980537D01*
X93218485Y-41893408D01*
X93107592Y-41782515D01*
X93020463Y-41652117D01*
X92960448Y-41507228D01*
X92929852Y-41353414D01*
X92929852Y-41196586D01*
X92960448Y-41042772D01*
X93020463Y-40897883D01*
X93107592Y-40767485D01*
X93218485Y-40656592D01*
X93348883Y-40569463D01*
X93493772Y-40509448D01*
X93647586Y-40478852D01*
X93804414Y-40478852D01*
X93958228Y-40509448D01*
G37*
G36*
X65247931Y-39881086D02*
G01*
X65298121Y-39886909D01*
X65315270Y-39894481D01*
X65338752Y-39899152D01*
X65363891Y-39915949D01*
X65383777Y-39924730D01*
X65397358Y-39938311D01*
X65419858Y-39953345D01*
X65434891Y-39975844D01*
X65448472Y-39989425D01*
X65457251Y-40009308D01*
X65474051Y-40034451D01*
X65478722Y-40057934D01*
X65486293Y-40075081D01*
X65492114Y-40125261D01*
X65493081Y-40130122D01*
X65493081Y-41430122D01*
X65492113Y-41434985D01*
X65486293Y-41485162D01*
X65478722Y-41502307D01*
X65474051Y-41525793D01*
X65457250Y-41550937D01*
X65448472Y-41570818D01*
X65434893Y-41584396D01*
X65419858Y-41606899D01*
X65397355Y-41621934D01*
X65383777Y-41635513D01*
X65363896Y-41644291D01*
X65338752Y-41661092D01*
X65315266Y-41665763D01*
X65298121Y-41673334D01*
X65247942Y-41679154D01*
X65243081Y-41680122D01*
X61973081Y-41680122D01*
X61968219Y-41679154D01*
X61918040Y-41673334D01*
X61900893Y-41665763D01*
X61877410Y-41661092D01*
X61852267Y-41644292D01*
X61832384Y-41635513D01*
X61818803Y-41621932D01*
X61796304Y-41606899D01*
X61781270Y-41584399D01*
X61767689Y-41570818D01*
X61758908Y-41550932D01*
X61742111Y-41525793D01*
X61737440Y-41502311D01*
X61729868Y-41485162D01*
X61724045Y-41434971D01*
X61723081Y-41430122D01*
X61723081Y-40130122D01*
X61724045Y-40125272D01*
X61729868Y-40075081D01*
X61737440Y-40057930D01*
X61742111Y-40034451D01*
X61758907Y-40009313D01*
X61767689Y-39989425D01*
X61781272Y-39975841D01*
X61796304Y-39953345D01*
X61818800Y-39938313D01*
X61832384Y-39924730D01*
X61852272Y-39915948D01*
X61877410Y-39899152D01*
X61900889Y-39894481D01*
X61918040Y-39886909D01*
X61968232Y-39881086D01*
X61973081Y-39880122D01*
X65243081Y-39880122D01*
X65247931Y-39881086D01*
G37*
G36*
X83027931Y-39881086D02*
G01*
X83078121Y-39886909D01*
X83095270Y-39894481D01*
X83118752Y-39899152D01*
X83143891Y-39915949D01*
X83163777Y-39924730D01*
X83177358Y-39938311D01*
X83199858Y-39953345D01*
X83214891Y-39975844D01*
X83228472Y-39989425D01*
X83237251Y-40009308D01*
X83254051Y-40034451D01*
X83258722Y-40057934D01*
X83266293Y-40075081D01*
X83272114Y-40125261D01*
X83273081Y-40130122D01*
X83273081Y-41430122D01*
X83272113Y-41434985D01*
X83266293Y-41485162D01*
X83258722Y-41502307D01*
X83254051Y-41525793D01*
X83237250Y-41550937D01*
X83228472Y-41570818D01*
X83214893Y-41584396D01*
X83199858Y-41606899D01*
X83177355Y-41621934D01*
X83163777Y-41635513D01*
X83143896Y-41644291D01*
X83118752Y-41661092D01*
X83095266Y-41665763D01*
X83078121Y-41673334D01*
X83027942Y-41679154D01*
X83023081Y-41680122D01*
X79753081Y-41680122D01*
X79748219Y-41679154D01*
X79698040Y-41673334D01*
X79680893Y-41665763D01*
X79657410Y-41661092D01*
X79632267Y-41644292D01*
X79612384Y-41635513D01*
X79598803Y-41621932D01*
X79576304Y-41606899D01*
X79561270Y-41584399D01*
X79547689Y-41570818D01*
X79538908Y-41550932D01*
X79522111Y-41525793D01*
X79517440Y-41502311D01*
X79509868Y-41485162D01*
X79504045Y-41434971D01*
X79503081Y-41430122D01*
X79503081Y-40130122D01*
X79504045Y-40125272D01*
X79509868Y-40075081D01*
X79517440Y-40057930D01*
X79522111Y-40034451D01*
X79538907Y-40009313D01*
X79547689Y-39989425D01*
X79561272Y-39975841D01*
X79576304Y-39953345D01*
X79598800Y-39938313D01*
X79612384Y-39924730D01*
X79632272Y-39915948D01*
X79657410Y-39899152D01*
X79680889Y-39894481D01*
X79698040Y-39886909D01*
X79748232Y-39881086D01*
X79753081Y-39880122D01*
X83023081Y-39880122D01*
X83027931Y-39881086D01*
G37*
G36*
X50074285Y-39683060D02*
G01*
X50255397Y-39758079D01*
X50418393Y-39866990D01*
X50557010Y-40005607D01*
X50665921Y-40168603D01*
X50740940Y-40349715D01*
X50779185Y-40541983D01*
X50779185Y-40738017D01*
X50740940Y-40930285D01*
X50665921Y-41111397D01*
X50557010Y-41274393D01*
X50418393Y-41413010D01*
X50255397Y-41521921D01*
X50074285Y-41596940D01*
X49882017Y-41635185D01*
X49685983Y-41635185D01*
X49493715Y-41596940D01*
X49312603Y-41521921D01*
X49149607Y-41413010D01*
X49010990Y-41274393D01*
X48902079Y-41111397D01*
X48827060Y-40930285D01*
X48788815Y-40738017D01*
X48788815Y-40541983D01*
X48827060Y-40349715D01*
X48902079Y-40168603D01*
X49010990Y-40005607D01*
X49149607Y-39866990D01*
X49312603Y-39758079D01*
X49493715Y-39683060D01*
X49685983Y-39644815D01*
X49882017Y-39644815D01*
X50074285Y-39683060D01*
G37*
G36*
X115943742Y-39231601D02*
G01*
X116097687Y-39295367D01*
X116236234Y-39387941D01*
X116354059Y-39505766D01*
X116446633Y-39644313D01*
X116510399Y-39798258D01*
X116542907Y-39961685D01*
X116542907Y-40128315D01*
X116510399Y-40291742D01*
X116446633Y-40445687D01*
X116354059Y-40584234D01*
X116236234Y-40702059D01*
X116097687Y-40794633D01*
X115943742Y-40858399D01*
X115780315Y-40890907D01*
X115613685Y-40890907D01*
X115450258Y-40858399D01*
X115296313Y-40794633D01*
X115157766Y-40702059D01*
X115039941Y-40584234D01*
X114947367Y-40445687D01*
X114883601Y-40291742D01*
X114851093Y-40128315D01*
X114851093Y-39961685D01*
X114883601Y-39798258D01*
X114947367Y-39644313D01*
X115039941Y-39505766D01*
X115157766Y-39387941D01*
X115296313Y-39295367D01*
X115450258Y-39231601D01*
X115613685Y-39199093D01*
X115780315Y-39199093D01*
X115943742Y-39231601D01*
G37*
G36*
X100122850Y-37864964D02*
G01*
X100173040Y-37870787D01*
X100190189Y-37878359D01*
X100213671Y-37883030D01*
X100238810Y-37899827D01*
X100258696Y-37908608D01*
X100272277Y-37922189D01*
X100294777Y-37937223D01*
X100309810Y-37959722D01*
X100323391Y-37973303D01*
X100332170Y-37993186D01*
X100348970Y-38018329D01*
X100353641Y-38041812D01*
X100361212Y-38058959D01*
X100367033Y-38109139D01*
X100368000Y-38114000D01*
X100368000Y-39214000D01*
X100367032Y-39218863D01*
X100361212Y-39269040D01*
X100353641Y-39286185D01*
X100348970Y-39309671D01*
X100332169Y-39334815D01*
X100323391Y-39354696D01*
X100309812Y-39368274D01*
X100294777Y-39390777D01*
X100272274Y-39405812D01*
X100258696Y-39419391D01*
X100238815Y-39428169D01*
X100213671Y-39444970D01*
X100190185Y-39449641D01*
X100173040Y-39457212D01*
X100122861Y-39463032D01*
X100118000Y-39464000D01*
X99018000Y-39464000D01*
X99013138Y-39463032D01*
X98962959Y-39457212D01*
X98945812Y-39449641D01*
X98922329Y-39444970D01*
X98897186Y-39428170D01*
X98877303Y-39419391D01*
X98863722Y-39405810D01*
X98841223Y-39390777D01*
X98826189Y-39368277D01*
X98812608Y-39354696D01*
X98803827Y-39334810D01*
X98787030Y-39309671D01*
X98782359Y-39286189D01*
X98774787Y-39269040D01*
X98768964Y-39218849D01*
X98768000Y-39214000D01*
X98768000Y-38114000D01*
X98768964Y-38109150D01*
X98774787Y-38058959D01*
X98782359Y-38041808D01*
X98787030Y-38018329D01*
X98803826Y-37993191D01*
X98812608Y-37973303D01*
X98826191Y-37959719D01*
X98841223Y-37937223D01*
X98863719Y-37922191D01*
X98877303Y-37908608D01*
X98897191Y-37899826D01*
X98922329Y-37883030D01*
X98945808Y-37878359D01*
X98962959Y-37870787D01*
X99013151Y-37864964D01*
X99018000Y-37864000D01*
X100118000Y-37864000D01*
X100122850Y-37864964D01*
G37*
G36*
X106484228Y-37734448D02*
G01*
X106629117Y-37794463D01*
X106759515Y-37881592D01*
X106870408Y-37992485D01*
X106957537Y-38122883D01*
X107017552Y-38267772D01*
X107048148Y-38421586D01*
X107048148Y-38578414D01*
X107017552Y-38732228D01*
X106957537Y-38877117D01*
X106870408Y-39007515D01*
X106759515Y-39118408D01*
X106629117Y-39205537D01*
X106484228Y-39265552D01*
X106330414Y-39296148D01*
X106173586Y-39296148D01*
X106019772Y-39265552D01*
X105874883Y-39205537D01*
X105744485Y-39118408D01*
X105633592Y-39007515D01*
X105546463Y-38877117D01*
X105486448Y-38732228D01*
X105455852Y-38578414D01*
X105455852Y-38421586D01*
X105486448Y-38267772D01*
X105546463Y-38122883D01*
X105633592Y-37992485D01*
X105744485Y-37881592D01*
X105874883Y-37794463D01*
X106019772Y-37734448D01*
X106173586Y-37703852D01*
X106330414Y-37703852D01*
X106484228Y-37734448D01*
G37*
G36*
X111484228Y-37734448D02*
G01*
X111629117Y-37794463D01*
X111759515Y-37881592D01*
X111870408Y-37992485D01*
X111957537Y-38122883D01*
X112017552Y-38267772D01*
X112048148Y-38421586D01*
X112048148Y-38578414D01*
X112017552Y-38732228D01*
X111957537Y-38877117D01*
X111870408Y-39007515D01*
X111759515Y-39118408D01*
X111629117Y-39205537D01*
X111484228Y-39265552D01*
X111330414Y-39296148D01*
X111173586Y-39296148D01*
X111019772Y-39265552D01*
X110874883Y-39205537D01*
X110744485Y-39118408D01*
X110633592Y-39007515D01*
X110546463Y-38877117D01*
X110486448Y-38732228D01*
X110455852Y-38578414D01*
X110455852Y-38421586D01*
X110486448Y-38267772D01*
X110546463Y-38122883D01*
X110633592Y-37992485D01*
X110744485Y-37881592D01*
X110874883Y-37794463D01*
X111019772Y-37734448D01*
X111173586Y-37703852D01*
X111330414Y-37703852D01*
X111484228Y-37734448D01*
G37*
G36*
X65247931Y-37341086D02*
G01*
X65298121Y-37346909D01*
X65315270Y-37354481D01*
X65338752Y-37359152D01*
X65363891Y-37375949D01*
X65383777Y-37384730D01*
X65397358Y-37398311D01*
X65419858Y-37413345D01*
X65434891Y-37435844D01*
X65448472Y-37449425D01*
X65457251Y-37469308D01*
X65474051Y-37494451D01*
X65478722Y-37517934D01*
X65486293Y-37535081D01*
X65492114Y-37585261D01*
X65493081Y-37590122D01*
X65493081Y-38890122D01*
X65492113Y-38894985D01*
X65486293Y-38945162D01*
X65478722Y-38962307D01*
X65474051Y-38985793D01*
X65457250Y-39010937D01*
X65448472Y-39030818D01*
X65434893Y-39044396D01*
X65419858Y-39066899D01*
X65397355Y-39081934D01*
X65383777Y-39095513D01*
X65363896Y-39104291D01*
X65338752Y-39121092D01*
X65315266Y-39125763D01*
X65298121Y-39133334D01*
X65247942Y-39139154D01*
X65243081Y-39140122D01*
X61973081Y-39140122D01*
X61968219Y-39139154D01*
X61918040Y-39133334D01*
X61900893Y-39125763D01*
X61877410Y-39121092D01*
X61852267Y-39104292D01*
X61832384Y-39095513D01*
X61818803Y-39081932D01*
X61796304Y-39066899D01*
X61781270Y-39044399D01*
X61767689Y-39030818D01*
X61758908Y-39010932D01*
X61742111Y-38985793D01*
X61737440Y-38962311D01*
X61729868Y-38945162D01*
X61724045Y-38894971D01*
X61723081Y-38890122D01*
X61723081Y-37590122D01*
X61724045Y-37585272D01*
X61729868Y-37535081D01*
X61737440Y-37517930D01*
X61742111Y-37494451D01*
X61758907Y-37469313D01*
X61767689Y-37449425D01*
X61781272Y-37435841D01*
X61796304Y-37413345D01*
X61818800Y-37398313D01*
X61832384Y-37384730D01*
X61852272Y-37375948D01*
X61877410Y-37359152D01*
X61900889Y-37354481D01*
X61918040Y-37346909D01*
X61968232Y-37341086D01*
X61973081Y-37340122D01*
X65243081Y-37340122D01*
X65247931Y-37341086D01*
G37*
G36*
X83027931Y-37341086D02*
G01*
X83078121Y-37346909D01*
X83095270Y-37354481D01*
X83118752Y-37359152D01*
X83143891Y-37375949D01*
X83163777Y-37384730D01*
X83177358Y-37398311D01*
X83199858Y-37413345D01*
X83214891Y-37435844D01*
X83228472Y-37449425D01*
X83237251Y-37469308D01*
X83254051Y-37494451D01*
X83258722Y-37517934D01*
X83266293Y-37535081D01*
X83272114Y-37585261D01*
X83273081Y-37590122D01*
X83273081Y-38890122D01*
X83272113Y-38894985D01*
X83266293Y-38945162D01*
X83258722Y-38962307D01*
X83254051Y-38985793D01*
X83237250Y-39010937D01*
X83228472Y-39030818D01*
X83214893Y-39044396D01*
X83199858Y-39066899D01*
X83177355Y-39081934D01*
X83163777Y-39095513D01*
X83143896Y-39104291D01*
X83118752Y-39121092D01*
X83095266Y-39125763D01*
X83078121Y-39133334D01*
X83027942Y-39139154D01*
X83023081Y-39140122D01*
X79753081Y-39140122D01*
X79748219Y-39139154D01*
X79698040Y-39133334D01*
X79680893Y-39125763D01*
X79657410Y-39121092D01*
X79632267Y-39104292D01*
X79612384Y-39095513D01*
X79598803Y-39081932D01*
X79576304Y-39066899D01*
X79561270Y-39044399D01*
X79547689Y-39030818D01*
X79538908Y-39010932D01*
X79522111Y-38985793D01*
X79517440Y-38962311D01*
X79509868Y-38945162D01*
X79504045Y-38894971D01*
X79503081Y-38890122D01*
X79503081Y-37590122D01*
X79504045Y-37585272D01*
X79509868Y-37535081D01*
X79517440Y-37517930D01*
X79522111Y-37494451D01*
X79538907Y-37469313D01*
X79547689Y-37449425D01*
X79561272Y-37435841D01*
X79576304Y-37413345D01*
X79598800Y-37398313D01*
X79612384Y-37384730D01*
X79632272Y-37375948D01*
X79657410Y-37359152D01*
X79680889Y-37354481D01*
X79698040Y-37346909D01*
X79748232Y-37341086D01*
X79753081Y-37340122D01*
X83023081Y-37340122D01*
X83027931Y-37341086D01*
G37*
G36*
X50074285Y-37143060D02*
G01*
X50255397Y-37218079D01*
X50418393Y-37326990D01*
X50557010Y-37465607D01*
X50665921Y-37628603D01*
X50740940Y-37809715D01*
X50779185Y-38001983D01*
X50779185Y-38198017D01*
X50740940Y-38390285D01*
X50665921Y-38571397D01*
X50557010Y-38734393D01*
X50418393Y-38873010D01*
X50255397Y-38981921D01*
X50074285Y-39056940D01*
X49882017Y-39095185D01*
X49685983Y-39095185D01*
X49493715Y-39056940D01*
X49312603Y-38981921D01*
X49149607Y-38873010D01*
X49010990Y-38734393D01*
X48902079Y-38571397D01*
X48827060Y-38390285D01*
X48788815Y-38198017D01*
X48788815Y-38001983D01*
X48827060Y-37809715D01*
X48902079Y-37628603D01*
X49010990Y-37465607D01*
X49149607Y-37326990D01*
X49312603Y-37218079D01*
X49493715Y-37143060D01*
X49685983Y-37104815D01*
X49882017Y-37104815D01*
X50074285Y-37143060D01*
G37*
G36*
X86338228Y-37461448D02*
G01*
X86483117Y-37521463D01*
X86613515Y-37608592D01*
X86724408Y-37719485D01*
X86811537Y-37849883D01*
X86871552Y-37994772D01*
X86902148Y-38148586D01*
X86902148Y-38305414D01*
X86871552Y-38459228D01*
X86811537Y-38604117D01*
X86724408Y-38734515D01*
X86613515Y-38845408D01*
X86483117Y-38932537D01*
X86338228Y-38992552D01*
X86184414Y-39023148D01*
X86027586Y-39023148D01*
X85873772Y-38992552D01*
X85728883Y-38932537D01*
X85598485Y-38845408D01*
X85487592Y-38734515D01*
X85400463Y-38604117D01*
X85340448Y-38459228D01*
X85309852Y-38305414D01*
X85309852Y-38148586D01*
X85340448Y-37994772D01*
X85400463Y-37849883D01*
X85487592Y-37719485D01*
X85598485Y-37608592D01*
X85728883Y-37521463D01*
X85873772Y-37461448D01*
X86027586Y-37430852D01*
X86184414Y-37430852D01*
X86338228Y-37461448D01*
G37*
G36*
X93958228Y-37461448D02*
G01*
X94103117Y-37521463D01*
X94233515Y-37608592D01*
X94344408Y-37719485D01*
X94431537Y-37849883D01*
X94491552Y-37994772D01*
X94522148Y-38148586D01*
X94522148Y-38305414D01*
X94491552Y-38459228D01*
X94431537Y-38604117D01*
X94344408Y-38734515D01*
X94233515Y-38845408D01*
X94103117Y-38932537D01*
X93958228Y-38992552D01*
X93804414Y-39023148D01*
X93647586Y-39023148D01*
X93493772Y-38992552D01*
X93348883Y-38932537D01*
X93218485Y-38845408D01*
X93107592Y-38734515D01*
X93020463Y-38604117D01*
X92960448Y-38459228D01*
X92929852Y-38305414D01*
X92929852Y-38148586D01*
X92960448Y-37994772D01*
X93020463Y-37849883D01*
X93107592Y-37719485D01*
X93218485Y-37608592D01*
X93348883Y-37521463D01*
X93493772Y-37461448D01*
X93647586Y-37430852D01*
X93804414Y-37430852D01*
X93958228Y-37461448D01*
G37*
G36*
X40459181Y-34488429D02*
G01*
X40711879Y-34556140D01*
X40953577Y-34656255D01*
X41180140Y-34787061D01*
X41387692Y-34946320D01*
X41572680Y-35131308D01*
X41731939Y-35338860D01*
X41862745Y-35565423D01*
X41962860Y-35807121D01*
X42030571Y-36059819D01*
X42064718Y-36319194D01*
X42064718Y-36580806D01*
X42030571Y-36840181D01*
X41962860Y-37092879D01*
X41862745Y-37334577D01*
X41731939Y-37561140D01*
X41572680Y-37768692D01*
X41387692Y-37953680D01*
X41180140Y-38112939D01*
X40953577Y-38243745D01*
X40711879Y-38343860D01*
X40459181Y-38411571D01*
X40199806Y-38445718D01*
X39938194Y-38445718D01*
X39678819Y-38411571D01*
X39426121Y-38343860D01*
X39184423Y-38243745D01*
X38957860Y-38112939D01*
X38750308Y-37953680D01*
X38565320Y-37768692D01*
X38406061Y-37561140D01*
X38275255Y-37334577D01*
X38175140Y-37092879D01*
X38107429Y-36840181D01*
X38073282Y-36580806D01*
X38073282Y-36319194D01*
X38107429Y-36059819D01*
X38175140Y-35807121D01*
X38275255Y-35565423D01*
X38406061Y-35338860D01*
X38565320Y-35131308D01*
X38750308Y-34946320D01*
X38957860Y-34787061D01*
X39184423Y-34656255D01*
X39426121Y-34556140D01*
X39678819Y-34488429D01*
X39938194Y-34454282D01*
X40199806Y-34454282D01*
X40459181Y-34488429D01*
G37*
G36*
X115943742Y-36691601D02*
G01*
X116097687Y-36755367D01*
X116236234Y-36847941D01*
X116354059Y-36965766D01*
X116446633Y-37104313D01*
X116510399Y-37258258D01*
X116542907Y-37421685D01*
X116542907Y-37588315D01*
X116510399Y-37751742D01*
X116446633Y-37905687D01*
X116354059Y-38044234D01*
X116236234Y-38162059D01*
X116097687Y-38254633D01*
X115943742Y-38318399D01*
X115780315Y-38350907D01*
X115613685Y-38350907D01*
X115450258Y-38318399D01*
X115296313Y-38254633D01*
X115157766Y-38162059D01*
X115039941Y-38044234D01*
X114947367Y-37905687D01*
X114883601Y-37751742D01*
X114851093Y-37588315D01*
X114851093Y-37421685D01*
X114883601Y-37258258D01*
X114947367Y-37104313D01*
X115039941Y-36965766D01*
X115157766Y-36847941D01*
X115296313Y-36755367D01*
X115450258Y-36691601D01*
X115613685Y-36659093D01*
X115780315Y-36659093D01*
X115943742Y-36691601D01*
G37*
G36*
X56524850Y-35195964D02*
G01*
X56575040Y-35201787D01*
X56592189Y-35209359D01*
X56615671Y-35214030D01*
X56640810Y-35230827D01*
X56660696Y-35239608D01*
X56674277Y-35253189D01*
X56696777Y-35268223D01*
X56711810Y-35290722D01*
X56725391Y-35304303D01*
X56734170Y-35324186D01*
X56750970Y-35349329D01*
X56755641Y-35372812D01*
X56763212Y-35389959D01*
X56769033Y-35440139D01*
X56770000Y-35445000D01*
X56770000Y-36945000D01*
X56769032Y-36949863D01*
X56763212Y-37000040D01*
X56755641Y-37017185D01*
X56750970Y-37040671D01*
X56734169Y-37065815D01*
X56725391Y-37085696D01*
X56711812Y-37099274D01*
X56696777Y-37121777D01*
X56674274Y-37136812D01*
X56660696Y-37150391D01*
X56640815Y-37159169D01*
X56615671Y-37175970D01*
X56592185Y-37180641D01*
X56575040Y-37188212D01*
X56524861Y-37194032D01*
X56520000Y-37195000D01*
X55320000Y-37195000D01*
X55315138Y-37194032D01*
X55264959Y-37188212D01*
X55247812Y-37180641D01*
X55224329Y-37175970D01*
X55199186Y-37159170D01*
X55179303Y-37150391D01*
X55165722Y-37136810D01*
X55143223Y-37121777D01*
X55128189Y-37099277D01*
X55114608Y-37085696D01*
X55105827Y-37065810D01*
X55089030Y-37040671D01*
X55084359Y-37017189D01*
X55076787Y-37000040D01*
X55070964Y-36949849D01*
X55070000Y-36945000D01*
X55070000Y-35445000D01*
X55070964Y-35440150D01*
X55076787Y-35389959D01*
X55084359Y-35372808D01*
X55089030Y-35349329D01*
X55105826Y-35324191D01*
X55114608Y-35304303D01*
X55128191Y-35290719D01*
X55143223Y-35268223D01*
X55165719Y-35253191D01*
X55179303Y-35239608D01*
X55199191Y-35230826D01*
X55224329Y-35214030D01*
X55247808Y-35209359D01*
X55264959Y-35201787D01*
X55315151Y-35195964D01*
X55320000Y-35195000D01*
X56520000Y-35195000D01*
X56524850Y-35195964D01*
G37*
G36*
X58666742Y-35231601D02*
G01*
X58820687Y-35295367D01*
X58959234Y-35387941D01*
X59077059Y-35505766D01*
X59169633Y-35644313D01*
X59233399Y-35798258D01*
X59265907Y-35961685D01*
X59270000Y-36045000D01*
X59270000Y-36345000D01*
X59265907Y-36428315D01*
X59233399Y-36591742D01*
X59169633Y-36745687D01*
X59077059Y-36884234D01*
X58959234Y-37002059D01*
X58820687Y-37094633D01*
X58666742Y-37158399D01*
X58503315Y-37190907D01*
X58336685Y-37190907D01*
X58173258Y-37158399D01*
X58019313Y-37094633D01*
X57880766Y-37002059D01*
X57762941Y-36884234D01*
X57670367Y-36745687D01*
X57606601Y-36591742D01*
X57574093Y-36428315D01*
X57570000Y-36345000D01*
X57570000Y-36045000D01*
X57574093Y-35961685D01*
X57606601Y-35798258D01*
X57670367Y-35644313D01*
X57762941Y-35505766D01*
X57880766Y-35387941D01*
X58019313Y-35295367D01*
X58173258Y-35231601D01*
X58336685Y-35199093D01*
X58503315Y-35199093D01*
X58666742Y-35231601D01*
G37*
G36*
X65247931Y-34801086D02*
G01*
X65298121Y-34806909D01*
X65315270Y-34814481D01*
X65338752Y-34819152D01*
X65363891Y-34835949D01*
X65383777Y-34844730D01*
X65397358Y-34858311D01*
X65419858Y-34873345D01*
X65434891Y-34895844D01*
X65448472Y-34909425D01*
X65457251Y-34929308D01*
X65474051Y-34954451D01*
X65478722Y-34977934D01*
X65486293Y-34995081D01*
X65492114Y-35045261D01*
X65493081Y-35050122D01*
X65493081Y-36350122D01*
X65492113Y-36354985D01*
X65486293Y-36405162D01*
X65478722Y-36422307D01*
X65474051Y-36445793D01*
X65457250Y-36470937D01*
X65448472Y-36490818D01*
X65434893Y-36504396D01*
X65419858Y-36526899D01*
X65397355Y-36541934D01*
X65383777Y-36555513D01*
X65363896Y-36564291D01*
X65338752Y-36581092D01*
X65315266Y-36585763D01*
X65298121Y-36593334D01*
X65247942Y-36599154D01*
X65243081Y-36600122D01*
X61973081Y-36600122D01*
X61968219Y-36599154D01*
X61918040Y-36593334D01*
X61900893Y-36585763D01*
X61877410Y-36581092D01*
X61852267Y-36564292D01*
X61832384Y-36555513D01*
X61818803Y-36541932D01*
X61796304Y-36526899D01*
X61781270Y-36504399D01*
X61767689Y-36490818D01*
X61758908Y-36470932D01*
X61742111Y-36445793D01*
X61737440Y-36422311D01*
X61729868Y-36405162D01*
X61724045Y-36354971D01*
X61723081Y-36350122D01*
X61723081Y-35050122D01*
X61724045Y-35045272D01*
X61729868Y-34995081D01*
X61737440Y-34977930D01*
X61742111Y-34954451D01*
X61758907Y-34929313D01*
X61767689Y-34909425D01*
X61781272Y-34895841D01*
X61796304Y-34873345D01*
X61818800Y-34858313D01*
X61832384Y-34844730D01*
X61852272Y-34835948D01*
X61877410Y-34819152D01*
X61900889Y-34814481D01*
X61918040Y-34806909D01*
X61968232Y-34801086D01*
X61973081Y-34800122D01*
X65243081Y-34800122D01*
X65247931Y-34801086D01*
G37*
G36*
X83027931Y-34801086D02*
G01*
X83078121Y-34806909D01*
X83095270Y-34814481D01*
X83118752Y-34819152D01*
X83143891Y-34835949D01*
X83163777Y-34844730D01*
X83177358Y-34858311D01*
X83199858Y-34873345D01*
X83214891Y-34895844D01*
X83228472Y-34909425D01*
X83237251Y-34929308D01*
X83254051Y-34954451D01*
X83258722Y-34977934D01*
X83266293Y-34995081D01*
X83272114Y-35045261D01*
X83273081Y-35050122D01*
X83273081Y-36350122D01*
X83272113Y-36354985D01*
X83266293Y-36405162D01*
X83258722Y-36422307D01*
X83254051Y-36445793D01*
X83237250Y-36470937D01*
X83228472Y-36490818D01*
X83214893Y-36504396D01*
X83199858Y-36526899D01*
X83177355Y-36541934D01*
X83163777Y-36555513D01*
X83143896Y-36564291D01*
X83118752Y-36581092D01*
X83095266Y-36585763D01*
X83078121Y-36593334D01*
X83027942Y-36599154D01*
X83023081Y-36600122D01*
X79753081Y-36600122D01*
X79748219Y-36599154D01*
X79698040Y-36593334D01*
X79680893Y-36585763D01*
X79657410Y-36581092D01*
X79632267Y-36564292D01*
X79612384Y-36555513D01*
X79598803Y-36541932D01*
X79576304Y-36526899D01*
X79561270Y-36504399D01*
X79547689Y-36490818D01*
X79538908Y-36470932D01*
X79522111Y-36445793D01*
X79517440Y-36422311D01*
X79509868Y-36405162D01*
X79504045Y-36354971D01*
X79503081Y-36350122D01*
X79503081Y-35050122D01*
X79504045Y-35045272D01*
X79509868Y-34995081D01*
X79517440Y-34977930D01*
X79522111Y-34954451D01*
X79538907Y-34929313D01*
X79547689Y-34909425D01*
X79561272Y-34895841D01*
X79576304Y-34873345D01*
X79598800Y-34858313D01*
X79612384Y-34844730D01*
X79632272Y-34835948D01*
X79657410Y-34819152D01*
X79680889Y-34814481D01*
X79698040Y-34806909D01*
X79748232Y-34801086D01*
X79753081Y-34800122D01*
X83023081Y-34800122D01*
X83027931Y-34801086D01*
G37*
G36*
X50074285Y-34603060D02*
G01*
X50255397Y-34678079D01*
X50418393Y-34786990D01*
X50557010Y-34925607D01*
X50665921Y-35088603D01*
X50740940Y-35269715D01*
X50779185Y-35461983D01*
X50779185Y-35658017D01*
X50740940Y-35850285D01*
X50665921Y-36031397D01*
X50557010Y-36194393D01*
X50418393Y-36333010D01*
X50255397Y-36441921D01*
X50074285Y-36516940D01*
X49882017Y-36555185D01*
X49685983Y-36555185D01*
X49493715Y-36516940D01*
X49312603Y-36441921D01*
X49149607Y-36333010D01*
X49010990Y-36194393D01*
X48902079Y-36031397D01*
X48827060Y-35850285D01*
X48788815Y-35658017D01*
X48788815Y-35461983D01*
X48827060Y-35269715D01*
X48902079Y-35088603D01*
X49010990Y-34925607D01*
X49149607Y-34786990D01*
X49312603Y-34678079D01*
X49493715Y-34603060D01*
X49685983Y-34564815D01*
X49882017Y-34564815D01*
X50074285Y-34603060D01*
G37*
G36*
X103864228Y-34286448D02*
G01*
X104009117Y-34346463D01*
X104139515Y-34433592D01*
X104250408Y-34544485D01*
X104337537Y-34674883D01*
X104397552Y-34819772D01*
X104428148Y-34973586D01*
X104428148Y-35130414D01*
X104397552Y-35284228D01*
X104337537Y-35429117D01*
X104250408Y-35559515D01*
X104139515Y-35670408D01*
X104009117Y-35757537D01*
X103864228Y-35817552D01*
X103710414Y-35848148D01*
X103553586Y-35848148D01*
X103399772Y-35817552D01*
X103254883Y-35757537D01*
X103124485Y-35670408D01*
X103013592Y-35559515D01*
X102926463Y-35429117D01*
X102866448Y-35284228D01*
X102835852Y-35130414D01*
X102835852Y-34973586D01*
X102866448Y-34819772D01*
X102926463Y-34674883D01*
X103013592Y-34544485D01*
X103124485Y-34433592D01*
X103254883Y-34346463D01*
X103399772Y-34286448D01*
X103553586Y-34255852D01*
X103710414Y-34255852D01*
X103864228Y-34286448D01*
G37*
G36*
X111484228Y-34286448D02*
G01*
X111629117Y-34346463D01*
X111759515Y-34433592D01*
X111870408Y-34544485D01*
X111957537Y-34674883D01*
X112017552Y-34819772D01*
X112048148Y-34973586D01*
X112048148Y-35130414D01*
X112017552Y-35284228D01*
X111957537Y-35429117D01*
X111870408Y-35559515D01*
X111759515Y-35670408D01*
X111629117Y-35757537D01*
X111484228Y-35817552D01*
X111330414Y-35848148D01*
X111173586Y-35848148D01*
X111019772Y-35817552D01*
X110874883Y-35757537D01*
X110744485Y-35670408D01*
X110633592Y-35559515D01*
X110546463Y-35429117D01*
X110486448Y-35284228D01*
X110455852Y-35130414D01*
X110455852Y-34973586D01*
X110486448Y-34819772D01*
X110546463Y-34674883D01*
X110633592Y-34544485D01*
X110744485Y-34433592D01*
X110874883Y-34346463D01*
X111019772Y-34286448D01*
X111173586Y-34255852D01*
X111330414Y-34255852D01*
X111484228Y-34286448D01*
G37*
G36*
X116547000Y-35815000D02*
G01*
X114847000Y-35815000D01*
X114847000Y-34115000D01*
X116547000Y-34115000D01*
X116547000Y-35815000D01*
G37*
%LPD*%
M02*
