%TF.GenerationSoftware,KiCad,Pcbnew,9.0.6*%
%TF.CreationDate,2025-11-24T14:35:39-08:00*%
%TF.ProjectId,schematic,73636865-6d61-4746-9963-2e6b69636164,rev?*%
%TF.SameCoordinates,Original*%
%TF.FileFunction,Copper,L4,Bot*%
%TF.FilePolarity,Positive*%
%FSLAX46Y46*%
G04 Gerber Fmt 4.6, Leading zero omitted, Abs format (unit mm)*
G04 Created by KiCad (PCBNEW 9.0.6) date 2025-11-24 14:35:39*
%MOMM*%
%LPD*%
G01*
G04 APERTURE LIST*
G04 Aperture macros list*
%AMRoundRect*
0 Rectangle with rounded corners*
0 $1 Rounding radius*
0 $2 $3 $4 $5 $6 $7 $8 $9 X,Y pos of 4 corners*
0 Add a 4 corners polygon primitive as box body*
4,1,4,$2,$3,$4,$5,$6,$7,$8,$9,$2,$3,0*
0 Add four circle primitives for the rounded corners*
1,1,$1+$1,$2,$3*
1,1,$1+$1,$4,$5*
1,1,$1+$1,$6,$7*
1,1,$1+$1,$8,$9*
0 Add four rect primitives between the rounded corners*
20,1,$1+$1,$2,$3,$4,$5,0*
20,1,$1+$1,$4,$5,$6,$7,0*
20,1,$1+$1,$6,$7,$8,$9,0*
20,1,$1+$1,$8,$9,$2,$3,0*%
G04 Aperture macros list end*
%TA.AperFunction,ComponentPad*%
%ADD10C,1.600000*%
%TD*%
%TA.AperFunction,ComponentPad*%
%ADD11RoundRect,0.250000X-0.600000X-0.750000X0.600000X-0.750000X0.600000X0.750000X-0.600000X0.750000X0*%
%TD*%
%TA.AperFunction,ComponentPad*%
%ADD12O,1.700000X2.000000*%
%TD*%
%TA.AperFunction,ComponentPad*%
%ADD13RoundRect,0.250000X-0.550000X0.550000X-0.550000X-0.550000X0.550000X-0.550000X0.550000X0.550000X0*%
%TD*%
%TA.AperFunction,ComponentPad*%
%ADD14C,2.000000*%
%TD*%
%TA.AperFunction,ComponentPad*%
%ADD15R,1.700000X1.700000*%
%TD*%
%TA.AperFunction,ComponentPad*%
%ADD16C,1.700000*%
%TD*%
%TA.AperFunction,ComponentPad*%
%ADD17R,1.050000X1.500000*%
%TD*%
%TA.AperFunction,ComponentPad*%
%ADD18O,1.050000X1.500000*%
%TD*%
%TA.AperFunction,ComponentPad*%
%ADD19RoundRect,0.250000X-0.725000X0.600000X-0.725000X-0.600000X0.725000X-0.600000X0.725000X0.600000X0*%
%TD*%
%TA.AperFunction,ComponentPad*%
%ADD20O,1.950000X1.700000*%
%TD*%
%TA.AperFunction,ComponentPad*%
%ADD21RoundRect,0.250000X0.550000X0.550000X-0.550000X0.550000X-0.550000X-0.550000X0.550000X-0.550000X0*%
%TD*%
%TA.AperFunction,ViaPad*%
%ADD22C,0.600000*%
%TD*%
%TA.AperFunction,Conductor*%
%ADD23C,0.600000*%
%TD*%
%TA.AperFunction,Conductor*%
%ADD24C,0.400000*%
%TD*%
G04 APERTURE END LIST*
D10*
%TO.P,C5,1*%
%TO.N,Net-(U2-VCC)*%
X97549500Y-34590000D03*
%TO.P,C5,2*%
%TO.N,GND*%
X92549500Y-34590000D03*
%TD*%
%TO.P,C2,1*%
%TO.N,+5V*%
X48247500Y-42672000D03*
%TO.P,C2,2*%
%TO.N,GND*%
X43247500Y-42672000D03*
%TD*%
%TO.P,C4,1*%
%TO.N,GND*%
X99301500Y-28340000D03*
%TO.P,C4,2*%
%TO.N,+5VD*%
X94301500Y-28340000D03*
%TD*%
D11*
%TO.P,J2,1,Pin_1*%
%TO.N,Net-(J2-Pin_1)*%
X43969500Y-26035000D03*
D12*
%TO.P,J2,2,Pin_2*%
%TO.N,+5V*%
X46469500Y-26035000D03*
%TD*%
D10*
%TO.P,R4,1*%
%TO.N,Net-(Q2-B)*%
X81775500Y-34290000D03*
%TO.P,R4,2*%
%TO.N,GND*%
X74155500Y-34290000D03*
%TD*%
%TO.P,R5,1*%
%TO.N,D+*%
X74155500Y-28067000D03*
%TO.P,R5,2*%
%TO.N,+3.3V*%
X81775500Y-28067000D03*
%TD*%
%TO.P,R1,1*%
%TO.N,+5V*%
X74155500Y-37465000D03*
%TO.P,R1,2*%
%TO.N,Net-(Q1-G)*%
X81775500Y-37465000D03*
%TD*%
D13*
%TO.P,C3,1*%
%TO.N,+5VD*%
X87617500Y-28504000D03*
D10*
%TO.P,C3,2*%
%TO.N,GND*%
X87617500Y-32004000D03*
%TD*%
D14*
%TO.P,J1,A1,GND*%
%TO.N,GND*%
X37833500Y-25400000D03*
%TO.P,J1,A4,VBUS*%
%TO.N,Net-(J2-Pin_1)*%
X37833500Y-27940000D03*
%TO.P,J1,A5,CC1*%
%TO.N,CC1*%
X37833500Y-33020000D03*
%TO.P,J1,A6,D+*%
%TO.N,D+*%
X37833500Y-38100000D03*
%TO.P,J1,A7,D-*%
%TO.N,unconnected-(J1-D--PadA7)*%
X37833500Y-35560000D03*
%TO.P,J1,A8,SBU1*%
%TO.N,unconnected-(J1-SBU1-PadA8)*%
X37833500Y-40640000D03*
%TO.P,J1,B5,CC2*%
%TO.N,CC2*%
X37833500Y-43180000D03*
%TO.P,J1,B8,SBU2*%
%TO.N,unconnected-(J1-SBU2-PadB8)*%
X37833500Y-30480000D03*
%TD*%
D15*
%TO.P,U5,1,GND*%
%TO.N,GND*%
X103746500Y-24805000D03*
D16*
%TO.P,U5,2,DIN*%
%TO.N,Net-(U5-DIN)*%
X103746500Y-27345000D03*
%TO.P,U5,3,VDD*%
%TO.N,+5VD*%
X103746500Y-29885000D03*
%TD*%
D17*
%TO.P,Q2,1,E*%
%TO.N,GND*%
X80802313Y-42016000D03*
D18*
%TO.P,Q2,2,B*%
%TO.N,Net-(Q2-B)*%
X82072313Y-42016000D03*
%TO.P,Q2,3,C*%
%TO.N,Net-(Q1-G)*%
X83342313Y-42016000D03*
%TD*%
D15*
%TO.P,U6,1,ADJ*%
%TO.N,GND*%
X95999500Y-38608000D03*
D16*
%TO.P,U6,2,VO*%
%TO.N,Net-(U2-VCC)*%
X95999500Y-41148000D03*
%TO.P,U6,3,VI*%
%TO.N,+5V*%
X95999500Y-43688000D03*
%TD*%
D10*
%TO.P,R3,1*%
%TO.N,LED SW*%
X74155500Y-31115000D03*
%TO.P,R3,2*%
%TO.N,Net-(Q2-B)*%
X81775500Y-31115000D03*
%TD*%
%TO.P,R2,1*%
%TO.N,LED D*%
X91681500Y-24892000D03*
%TO.P,R2,2*%
%TO.N,Net-(U5-DIN)*%
X99301500Y-24892000D03*
%TD*%
D19*
%TO.P,U2,1,VCC*%
%TO.N,Net-(U2-VCC)*%
X102799500Y-37840000D03*
D20*
%TO.P,U2,2,GND*%
%TO.N,GND*%
X102799500Y-40340000D03*
%TO.P,U2,3,OUT*%
%TO.N,MIC*%
X102799500Y-42840000D03*
%TD*%
D21*
%TO.P,C1,1*%
%TO.N,+5V*%
X46977500Y-36576000D03*
D10*
%TO.P,C1,2*%
%TO.N,GND*%
X44977500Y-36576000D03*
%TD*%
D22*
%TO.N,+5V*%
X63995500Y-41402000D03*
%TO.N,+3.3V*%
X61709500Y-28956000D03*
%TO.N,MIC*%
X57137500Y-26416000D03*
X86093500Y-42672000D03*
%TO.N,D+*%
X40373500Y-30988000D03*
X61709500Y-27940000D03*
X40373500Y-38100000D03*
%TO.N,CC2*%
X48501500Y-40132000D03*
X48501500Y-33020000D03*
%TO.N,Net-(Q2-B)*%
X84569500Y-36576000D03*
%TO.N,LED D*%
X72377500Y-40640000D03*
X75933500Y-30988000D03*
%TD*%
D23*
%TO.N,+5V*%
X46469500Y-26035000D02*
X46469500Y-37116000D01*
X46437500Y-40862000D02*
X48247500Y-42672000D01*
X46977500Y-36576000D02*
X46437500Y-37116000D01*
X63995500Y-41402000D02*
X67932500Y-37465000D01*
X46437500Y-37116000D02*
X46437500Y-40862000D01*
X67932500Y-37465000D02*
X74155500Y-37465000D01*
D24*
%TO.N,+3.3V*%
X61709500Y-28956000D02*
X62217500Y-29464000D01*
X62217500Y-29464000D02*
X80378500Y-29464000D01*
X80378500Y-29464000D02*
X81775500Y-28067000D01*
%TO.N,MIC*%
X86093500Y-42672000D02*
X85585500Y-43180000D01*
X85585500Y-43180000D02*
X63741500Y-43180000D01*
X63741500Y-43180000D02*
X58153500Y-43180000D01*
X57137500Y-42164000D02*
X57137500Y-26416000D01*
X58153500Y-43180000D02*
X57137500Y-42164000D01*
%TO.N,D+*%
X39442500Y-37169000D02*
X39442500Y-31919000D01*
X61836500Y-28067000D02*
X74155500Y-28067000D01*
X61709500Y-27940000D02*
X61836500Y-28067000D01*
X39442500Y-31919000D02*
X40373500Y-30988000D01*
X40373500Y-38100000D02*
X39442500Y-37169000D01*
%TO.N,CC2*%
X48501500Y-40132000D02*
X48501500Y-33020000D01*
%TO.N,Net-(Q2-B)*%
X84569500Y-38354000D02*
X82072313Y-40343187D01*
X82072313Y-40343187D02*
X82072313Y-42016000D01*
X84569500Y-36576000D02*
X84569500Y-38354000D01*
%TO.N,LED D*%
X76441500Y-31496000D02*
X75933500Y-30988000D01*
X74917500Y-40640000D02*
X76441500Y-39116000D01*
X72377500Y-40640000D02*
X74917500Y-40640000D01*
X76441500Y-38608000D02*
X76441500Y-31496000D01*
X76441500Y-39116000D02*
X76441500Y-38608000D01*
%TD*%
%TA.AperFunction,Conductor*%
%TO.N,GND*%
G36*
X55430620Y-23380185D02*
G01*
X55476375Y-23432989D01*
X55487581Y-23484500D01*
X55487581Y-25540122D01*
X56598708Y-25540122D01*
X56665747Y-25559807D01*
X56711502Y-25612611D01*
X56721446Y-25681769D01*
X56692421Y-25745325D01*
X56667599Y-25767224D01*
X56627211Y-25794210D01*
X56627207Y-25794213D01*
X56515713Y-25905707D01*
X56515710Y-25905711D01*
X56428109Y-26036814D01*
X56428102Y-26036827D01*
X56367764Y-26182498D01*
X56367761Y-26182510D01*
X56337000Y-26337153D01*
X56337000Y-26494846D01*
X56367761Y-26649489D01*
X56367764Y-26649501D01*
X56427561Y-26793864D01*
X56437000Y-26841316D01*
X56437000Y-42095006D01*
X56437000Y-42232994D01*
X56437000Y-42232996D01*
X56436999Y-42232996D01*
X56463918Y-42368322D01*
X56463921Y-42368332D01*
X56516722Y-42495807D01*
X56593387Y-42610545D01*
X57706954Y-43724112D01*
X57821692Y-43800777D01*
X57949167Y-43853578D01*
X57949172Y-43853580D01*
X57949176Y-43853580D01*
X57949177Y-43853581D01*
X58084503Y-43880500D01*
X58084506Y-43880500D01*
X85654496Y-43880500D01*
X85745540Y-43862389D01*
X85789828Y-43853580D01*
X85853569Y-43827177D01*
X85917307Y-43800777D01*
X85917308Y-43800776D01*
X85917311Y-43800775D01*
X86032043Y-43724114D01*
X86288089Y-43468066D01*
X86328308Y-43441193D01*
X86472679Y-43381394D01*
X86603789Y-43293789D01*
X86715289Y-43182289D01*
X86802894Y-43051179D01*
X86863237Y-42905497D01*
X86894000Y-42750842D01*
X86894000Y-42593158D01*
X86894000Y-42593155D01*
X86893999Y-42593153D01*
X86889330Y-42569682D01*
X86863237Y-42438503D01*
X86855697Y-42420299D01*
X86802897Y-42292827D01*
X86802890Y-42292814D01*
X86715289Y-42161711D01*
X86715286Y-42161707D01*
X86603792Y-42050213D01*
X86603788Y-42050210D01*
X86472685Y-41962609D01*
X86472672Y-41962602D01*
X86327001Y-41902264D01*
X86326989Y-41902261D01*
X86172345Y-41871500D01*
X86172342Y-41871500D01*
X86014658Y-41871500D01*
X86014655Y-41871500D01*
X85860010Y-41902261D01*
X85859998Y-41902264D01*
X85714327Y-41962602D01*
X85714314Y-41962609D01*
X85583211Y-42050210D01*
X85583207Y-42050213D01*
X85471713Y-42161707D01*
X85471710Y-42161711D01*
X85384109Y-42292814D01*
X85384102Y-42292827D01*
X85338488Y-42402952D01*
X85294647Y-42457356D01*
X85228353Y-42479421D01*
X85223927Y-42479500D01*
X84491084Y-42479500D01*
X84424045Y-42459815D01*
X84378290Y-42407011D01*
X84368472Y-42348095D01*
X84367813Y-42348095D01*
X84367813Y-42344143D01*
X84367681Y-42343351D01*
X84367813Y-42342010D01*
X84367813Y-41689996D01*
X84367812Y-41689992D01*
X84363122Y-41666412D01*
X84328404Y-41491873D01*
X84251099Y-41305244D01*
X84251097Y-41305241D01*
X84251095Y-41305237D01*
X84138871Y-41137281D01*
X83996031Y-40994441D01*
X83828075Y-40882217D01*
X83828065Y-40882212D01*
X83641440Y-40804909D01*
X83641432Y-40804907D01*
X83443320Y-40765500D01*
X83443316Y-40765500D01*
X83241310Y-40765500D01*
X83241305Y-40765500D01*
X83043193Y-40804907D01*
X83043181Y-40804910D01*
X82968334Y-40835913D01*
X82898865Y-40843382D01*
X82836386Y-40812106D01*
X82800734Y-40752017D01*
X82803228Y-40682192D01*
X82843076Y-40624800D01*
X82843441Y-40624507D01*
X84983037Y-38920166D01*
X85016042Y-38898114D01*
X85036872Y-38877283D01*
X85059917Y-38858927D01*
X85082196Y-38832570D01*
X85089214Y-38824941D01*
X85113614Y-38800542D01*
X85129981Y-38776046D01*
X85149000Y-38753549D01*
X85168220Y-38718817D01*
X85190275Y-38685811D01*
X85198874Y-38665048D01*
X85204937Y-38652471D01*
X85215814Y-38632817D01*
X85220349Y-38618612D01*
X85226311Y-38599944D01*
X85226312Y-38599940D01*
X85227890Y-38594996D01*
X85243080Y-38558328D01*
X85248827Y-38529435D01*
X85257789Y-38501371D01*
X85262255Y-38461927D01*
X85270000Y-38422993D01*
X85270000Y-38393534D01*
X85273315Y-38364259D01*
X85270432Y-38329864D01*
X85270000Y-38319510D01*
X85270000Y-37001316D01*
X85279439Y-36953864D01*
X85339235Y-36809501D01*
X85339237Y-36809497D01*
X85370000Y-36654842D01*
X85370000Y-36497158D01*
X85370000Y-36497155D01*
X85369999Y-36497153D01*
X85359139Y-36442557D01*
X85339237Y-36342503D01*
X85317697Y-36290500D01*
X85278899Y-36196830D01*
X85278890Y-36196814D01*
X85250126Y-36153766D01*
X100324000Y-36153766D01*
X100324000Y-36326233D01*
X100357643Y-36495366D01*
X100357646Y-36495378D01*
X100423638Y-36654698D01*
X100423645Y-36654711D01*
X100519454Y-36798098D01*
X100519457Y-36798102D01*
X100641397Y-36920042D01*
X100641401Y-36920045D01*
X100784788Y-37015854D01*
X100784801Y-37015861D01*
X100927651Y-37075031D01*
X100944126Y-37081855D01*
X101113266Y-37115499D01*
X101113269Y-37115500D01*
X101200000Y-37115500D01*
X101267039Y-37135185D01*
X101312794Y-37187989D01*
X101324000Y-37239500D01*
X101324000Y-38490001D01*
X101324001Y-38490018D01*
X101334500Y-38592796D01*
X101334501Y-38592799D01*
X101360156Y-38670220D01*
X101389686Y-38759334D01*
X101476757Y-38900500D01*
X101481789Y-38908657D01*
X101605844Y-39032712D01*
X101761058Y-39128448D01*
X101807783Y-39180396D01*
X101819006Y-39249358D01*
X101791163Y-39313441D01*
X101783644Y-39321668D01*
X101644771Y-39460541D01*
X101519879Y-39632442D01*
X101423404Y-39821782D01*
X101357742Y-40023870D01*
X101357742Y-40023873D01*
X101347269Y-40090000D01*
X102395354Y-40090000D01*
X102356870Y-40156657D01*
X102324500Y-40277465D01*
X102324500Y-40402535D01*
X102356870Y-40523343D01*
X102395354Y-40590000D01*
X101347269Y-40590000D01*
X101357742Y-40656126D01*
X101357742Y-40656129D01*
X101423404Y-40858217D01*
X101519879Y-41047557D01*
X101644772Y-41219459D01*
X101644776Y-41219464D01*
X101795035Y-41369723D01*
X101795040Y-41369727D01*
X101959718Y-41489372D01*
X102002384Y-41544701D01*
X102008363Y-41614315D01*
X101975758Y-41676110D01*
X101959718Y-41690008D01*
X101794714Y-41809890D01*
X101794709Y-41809894D01*
X101644390Y-41960213D01*
X101519451Y-42132179D01*
X101422944Y-42321585D01*
X101422943Y-42321587D01*
X101422943Y-42321588D01*
X101397609Y-42399557D01*
X101357253Y-42523760D01*
X101333774Y-42672001D01*
X101324000Y-42733713D01*
X101324000Y-42946287D01*
X101357254Y-43156243D01*
X101421301Y-43353359D01*
X101422944Y-43358414D01*
X101519451Y-43547820D01*
X101644390Y-43719786D01*
X101794713Y-43870109D01*
X101966679Y-43995048D01*
X101966681Y-43995049D01*
X101966684Y-43995051D01*
X102156088Y-44091557D01*
X102358257Y-44157246D01*
X102568213Y-44190500D01*
X102568214Y-44190500D01*
X103030786Y-44190500D01*
X103030787Y-44190500D01*
X103240743Y-44157246D01*
X103442912Y-44091557D01*
X103632316Y-43995051D01*
X103675879Y-43963401D01*
X103804286Y-43870109D01*
X103804288Y-43870106D01*
X103804292Y-43870104D01*
X103954604Y-43719792D01*
X103954606Y-43719788D01*
X103954609Y-43719786D01*
X104079548Y-43547820D01*
X104079547Y-43547820D01*
X104079551Y-43547816D01*
X104176057Y-43358412D01*
X104241746Y-43156243D01*
X104275000Y-42946287D01*
X104275000Y-42733713D01*
X104241746Y-42523757D01*
X104176057Y-42321588D01*
X104079551Y-42132184D01*
X104079549Y-42132181D01*
X104079548Y-42132179D01*
X103954609Y-41960213D01*
X103804290Y-41809894D01*
X103804285Y-41809890D01*
X103639281Y-41690008D01*
X103596615Y-41634678D01*
X103590636Y-41565065D01*
X103623241Y-41503270D01*
X103639281Y-41489371D01*
X103803966Y-41369721D01*
X103954223Y-41219464D01*
X103954227Y-41219459D01*
X104079120Y-41047557D01*
X104175595Y-40858217D01*
X104241257Y-40656129D01*
X104241257Y-40656126D01*
X104251731Y-40590000D01*
X103203646Y-40590000D01*
X103242130Y-40523343D01*
X103274500Y-40402535D01*
X103274500Y-40277465D01*
X103242130Y-40156657D01*
X103203646Y-40090000D01*
X104251731Y-40090000D01*
X104241257Y-40023873D01*
X104241257Y-40023870D01*
X104175595Y-39821782D01*
X104079120Y-39632442D01*
X103954227Y-39460540D01*
X103954223Y-39460535D01*
X103815356Y-39321668D01*
X103781871Y-39260345D01*
X103786855Y-39190653D01*
X103828727Y-39134720D01*
X103837941Y-39128448D01*
X103843831Y-39124814D01*
X103843834Y-39124814D01*
X103993156Y-39032712D01*
X104117212Y-38908656D01*
X104209314Y-38759334D01*
X104264499Y-38592797D01*
X104275000Y-38490009D01*
X104274999Y-37189992D01*
X104274794Y-37187989D01*
X104264499Y-37087203D01*
X104264498Y-37087200D01*
X104260466Y-37075031D01*
X104209314Y-36920666D01*
X104117212Y-36771344D01*
X103993156Y-36647288D01*
X103877579Y-36576000D01*
X103843836Y-36555187D01*
X103843831Y-36555185D01*
X103790491Y-36537510D01*
X103677297Y-36500001D01*
X103677295Y-36500000D01*
X103574516Y-36489500D01*
X103574509Y-36489500D01*
X102193618Y-36489500D01*
X102126579Y-36469815D01*
X102080824Y-36417011D01*
X102070880Y-36347853D01*
X102072001Y-36341308D01*
X102075000Y-36326231D01*
X102075000Y-36153768D01*
X102074999Y-36153766D01*
X102071464Y-36135996D01*
X102041355Y-35984626D01*
X102041353Y-35984621D01*
X101975361Y-35825301D01*
X101975354Y-35825288D01*
X101879545Y-35681901D01*
X101879542Y-35681897D01*
X101757602Y-35559957D01*
X101757598Y-35559954D01*
X101614211Y-35464145D01*
X101614198Y-35464138D01*
X101454878Y-35398146D01*
X101454866Y-35398143D01*
X101285732Y-35364500D01*
X101285729Y-35364500D01*
X101113271Y-35364500D01*
X101113268Y-35364500D01*
X100944133Y-35398143D01*
X100944121Y-35398146D01*
X100784801Y-35464138D01*
X100784788Y-35464145D01*
X100641401Y-35559954D01*
X100641397Y-35559957D01*
X100519457Y-35681897D01*
X100519454Y-35681901D01*
X100423645Y-35825288D01*
X100423638Y-35825301D01*
X100357646Y-35984621D01*
X100357643Y-35984633D01*
X100324000Y-36153766D01*
X85250126Y-36153766D01*
X85191289Y-36065711D01*
X85191286Y-36065707D01*
X85079792Y-35954213D01*
X85079788Y-35954210D01*
X84948685Y-35866609D01*
X84948672Y-35866602D01*
X84803001Y-35806264D01*
X84802989Y-35806261D01*
X84648345Y-35775500D01*
X84648342Y-35775500D01*
X84490658Y-35775500D01*
X84490655Y-35775500D01*
X84336010Y-35806261D01*
X84335998Y-35806264D01*
X84190327Y-35866602D01*
X84190314Y-35866609D01*
X84059211Y-35954210D01*
X84059207Y-35954213D01*
X83947713Y-36065707D01*
X83947710Y-36065711D01*
X83860109Y-36196814D01*
X83860102Y-36196827D01*
X83799764Y-36342498D01*
X83799761Y-36342510D01*
X83769000Y-36497153D01*
X83769000Y-36654846D01*
X83799761Y-36809489D01*
X83799764Y-36809501D01*
X83859561Y-36953864D01*
X83869000Y-37001316D01*
X83869000Y-37956660D01*
X83849315Y-38023699D01*
X83822259Y-38053650D01*
X81662834Y-39773786D01*
X81658768Y-39777024D01*
X81625771Y-39799073D01*
X81604945Y-39819897D01*
X81599470Y-39824259D01*
X81599471Y-39824259D01*
X81581894Y-39838261D01*
X81559615Y-39864614D01*
X81552608Y-39872234D01*
X81528199Y-39896645D01*
X81528196Y-39896648D01*
X81515716Y-39915325D01*
X81515715Y-39915324D01*
X81511821Y-39921151D01*
X81492813Y-39943638D01*
X81473601Y-39978352D01*
X81470718Y-39982668D01*
X81470712Y-39982680D01*
X81451537Y-40011377D01*
X81442938Y-40032131D01*
X81442939Y-40032132D01*
X81440258Y-40038603D01*
X81426000Y-40064370D01*
X81413930Y-40102164D01*
X81411941Y-40106967D01*
X81398733Y-40138856D01*
X81398730Y-40138868D01*
X81394348Y-40160889D01*
X81394349Y-40160890D01*
X81392981Y-40167762D01*
X81384024Y-40195816D01*
X81379560Y-40235234D01*
X81378547Y-40240329D01*
X81378546Y-40240339D01*
X81373002Y-40268215D01*
X81371813Y-40274194D01*
X81371813Y-40303659D01*
X81368499Y-40332928D01*
X81371813Y-40372480D01*
X81371813Y-40642000D01*
X81352128Y-40709039D01*
X81299324Y-40754794D01*
X81247813Y-40766000D01*
X81052313Y-40766000D01*
X81052313Y-41650134D01*
X81052281Y-41652953D01*
X81052035Y-41663740D01*
X81046813Y-41689997D01*
X81046813Y-41730170D01*
X81032568Y-41715925D01*
X80947058Y-41666556D01*
X80851683Y-41641000D01*
X80752943Y-41641000D01*
X80657568Y-41666556D01*
X80572058Y-41715925D01*
X80552313Y-41735670D01*
X80552313Y-40766000D01*
X80229468Y-40766000D01*
X80169940Y-40772401D01*
X80169933Y-40772403D01*
X80035226Y-40822645D01*
X80035219Y-40822649D01*
X79920125Y-40908809D01*
X79920122Y-40908812D01*
X79833962Y-41023906D01*
X79833958Y-41023913D01*
X79783716Y-41158620D01*
X79783714Y-41158627D01*
X79777313Y-41218155D01*
X79777313Y-41766000D01*
X80521983Y-41766000D01*
X80502238Y-41785745D01*
X80452869Y-41871255D01*
X80427313Y-41966630D01*
X80427313Y-42065370D01*
X80452869Y-42160745D01*
X80502238Y-42246255D01*
X80521983Y-42266000D01*
X79777313Y-42266000D01*
X79777313Y-42355500D01*
X79757628Y-42422539D01*
X79704824Y-42468294D01*
X79653313Y-42479500D01*
X58495019Y-42479500D01*
X58427980Y-42459815D01*
X58407338Y-42443181D01*
X57874319Y-41910162D01*
X57840834Y-41848839D01*
X57838000Y-41822481D01*
X57838000Y-41323153D01*
X63195000Y-41323153D01*
X63195000Y-41480846D01*
X63225761Y-41635489D01*
X63225764Y-41635501D01*
X63286102Y-41781172D01*
X63286109Y-41781185D01*
X63373710Y-41912288D01*
X63373713Y-41912292D01*
X63485207Y-42023786D01*
X63485211Y-42023789D01*
X63616314Y-42111390D01*
X63616327Y-42111397D01*
X63737788Y-42161707D01*
X63762003Y-42171737D01*
X63916593Y-42202487D01*
X63916653Y-42202499D01*
X63916656Y-42202500D01*
X63916658Y-42202500D01*
X64074344Y-42202500D01*
X64074345Y-42202499D01*
X64228997Y-42171737D01*
X64374679Y-42111394D01*
X64505789Y-42023789D01*
X68227759Y-38301819D01*
X68289082Y-38268334D01*
X68315440Y-38265500D01*
X73066467Y-38265500D01*
X73133506Y-38285185D01*
X73160752Y-38308962D01*
X73163535Y-38312220D01*
X73308286Y-38456971D01*
X73447795Y-38558328D01*
X73473890Y-38577287D01*
X73582860Y-38632810D01*
X73656276Y-38670218D01*
X73656278Y-38670218D01*
X73656281Y-38670220D01*
X73760637Y-38704127D01*
X73850965Y-38733477D01*
X73952057Y-38749488D01*
X74053148Y-38765500D01*
X74053149Y-38765500D01*
X74257851Y-38765500D01*
X74257852Y-38765500D01*
X74460034Y-38733477D01*
X74654719Y-38670220D01*
X74837110Y-38577287D01*
X74941603Y-38501369D01*
X75002713Y-38456971D01*
X75002715Y-38456968D01*
X75002719Y-38456966D01*
X75147466Y-38312219D01*
X75147468Y-38312215D01*
X75147471Y-38312213D01*
X75209786Y-38226442D01*
X75267787Y-38146610D01*
X75360720Y-37964219D01*
X75423977Y-37769534D01*
X75456000Y-37567352D01*
X75456000Y-37362648D01*
X75436495Y-37239500D01*
X75423977Y-37160465D01*
X75360718Y-36965776D01*
X75327003Y-36899607D01*
X75267787Y-36783390D01*
X75246910Y-36754655D01*
X75147471Y-36617786D01*
X75002713Y-36473028D01*
X74837113Y-36352715D01*
X74837112Y-36352714D01*
X74837110Y-36352713D01*
X74780153Y-36323691D01*
X74654723Y-36259781D01*
X74460034Y-36196522D01*
X74285495Y-36168878D01*
X74257852Y-36164500D01*
X74053148Y-36164500D01*
X74028829Y-36168351D01*
X73850965Y-36196522D01*
X73656276Y-36259781D01*
X73473886Y-36352715D01*
X73308286Y-36473028D01*
X73163535Y-36617779D01*
X73160752Y-36621038D01*
X73102242Y-36659227D01*
X73066467Y-36664500D01*
X67853655Y-36664500D01*
X67699010Y-36695261D01*
X67698998Y-36695264D01*
X67553327Y-36755602D01*
X67553314Y-36755609D01*
X67422211Y-36843210D01*
X67422207Y-36843213D01*
X63373713Y-40891707D01*
X63373710Y-40891711D01*
X63286109Y-41022814D01*
X63286102Y-41022827D01*
X63225764Y-41168498D01*
X63225761Y-41168510D01*
X63195000Y-41323153D01*
X57838000Y-41323153D01*
X57838000Y-34187682D01*
X72855500Y-34187682D01*
X72855500Y-34392317D01*
X72887509Y-34594417D01*
X72950744Y-34789031D01*
X73043641Y-34971350D01*
X73043647Y-34971359D01*
X73076023Y-35015921D01*
X73076024Y-35015922D01*
X73755500Y-34336446D01*
X73755500Y-34342661D01*
X73782759Y-34444394D01*
X73835420Y-34535606D01*
X73909894Y-34610080D01*
X74001106Y-34662741D01*
X74102839Y-34690000D01*
X74109053Y-34690000D01*
X73429576Y-35369474D01*
X73474150Y-35401859D01*
X73656468Y-35494755D01*
X73851082Y-35557990D01*
X74053183Y-35590000D01*
X74257817Y-35590000D01*
X74459917Y-35557990D01*
X74654531Y-35494755D01*
X74836849Y-35401859D01*
X74881421Y-35369474D01*
X74201947Y-34690000D01*
X74208161Y-34690000D01*
X74309894Y-34662741D01*
X74401106Y-34610080D01*
X74475580Y-34535606D01*
X74528241Y-34444394D01*
X74555500Y-34342661D01*
X74555500Y-34336448D01*
X75234974Y-35015922D01*
X75234974Y-35015921D01*
X75267359Y-34971349D01*
X75360255Y-34789031D01*
X75423490Y-34594417D01*
X75455500Y-34392317D01*
X75455500Y-34187682D01*
X75423490Y-33985582D01*
X75360255Y-33790968D01*
X75267359Y-33608650D01*
X75234974Y-33564077D01*
X75234974Y-33564076D01*
X74555500Y-34243551D01*
X74555500Y-34237339D01*
X74528241Y-34135606D01*
X74475580Y-34044394D01*
X74401106Y-33969920D01*
X74309894Y-33917259D01*
X74208161Y-33890000D01*
X74201946Y-33890000D01*
X74881422Y-33210524D01*
X74881421Y-33210523D01*
X74836859Y-33178147D01*
X74836850Y-33178141D01*
X74654531Y-33085244D01*
X74459917Y-33022009D01*
X74257817Y-32990000D01*
X74053183Y-32990000D01*
X73851082Y-33022009D01*
X73656468Y-33085244D01*
X73474144Y-33178143D01*
X73429577Y-33210523D01*
X73429577Y-33210524D01*
X74109054Y-33890000D01*
X74102839Y-33890000D01*
X74001106Y-33917259D01*
X73909894Y-33969920D01*
X73835420Y-34044394D01*
X73782759Y-34135606D01*
X73755500Y-34237339D01*
X73755500Y-34243553D01*
X73076024Y-33564077D01*
X73076023Y-33564077D01*
X73043643Y-33608644D01*
X72950744Y-33790968D01*
X72887509Y-33985582D01*
X72855500Y-34187682D01*
X57838000Y-34187682D01*
X57838000Y-27861153D01*
X60909000Y-27861153D01*
X60909000Y-28018846D01*
X60939761Y-28173489D01*
X60939764Y-28173501D01*
X61000102Y-28319171D01*
X61000109Y-28319184D01*
X61040150Y-28379109D01*
X61061028Y-28445787D01*
X61042543Y-28513167D01*
X61040150Y-28516891D01*
X61000109Y-28576815D01*
X61000102Y-28576828D01*
X60939764Y-28722498D01*
X60939761Y-28722510D01*
X60909000Y-28877153D01*
X60909000Y-29034846D01*
X60939761Y-29189489D01*
X60939764Y-29189501D01*
X61000102Y-29335172D01*
X61000109Y-29335185D01*
X61087710Y-29466288D01*
X61087713Y-29466292D01*
X61199207Y-29577786D01*
X61199211Y-29577789D01*
X61330314Y-29665390D01*
X61330327Y-29665397D01*
X61474685Y-29725191D01*
X61481617Y-29729823D01*
X61486660Y-29730920D01*
X61514910Y-29752067D01*
X61673386Y-29910542D01*
X61754130Y-29991286D01*
X61770959Y-30008115D01*
X61885682Y-30084771D01*
X61885686Y-30084773D01*
X61885689Y-30084775D01*
X61960366Y-30115707D01*
X62013171Y-30137580D01*
X62040091Y-30142934D01*
X62137130Y-30162237D01*
X62148506Y-30164500D01*
X62148507Y-30164500D01*
X72995208Y-30164500D01*
X73062247Y-30184185D01*
X73108002Y-30236989D01*
X73117946Y-30306147D01*
X73095527Y-30361385D01*
X73043212Y-30433390D01*
X72950281Y-30615776D01*
X72887022Y-30810465D01*
X72855000Y-31012648D01*
X72855000Y-31217351D01*
X72887022Y-31419534D01*
X72950281Y-31614223D01*
X72996542Y-31705013D01*
X73037886Y-31786156D01*
X73043215Y-31796613D01*
X73163528Y-31962213D01*
X73308286Y-32106971D01*
X73448936Y-32209157D01*
X73473890Y-32227287D01*
X73590107Y-32286503D01*
X73656276Y-32320218D01*
X73656278Y-32320218D01*
X73656281Y-32320220D01*
X73760637Y-32354127D01*
X73850965Y-32383477D01*
X73902264Y-32391602D01*
X74053148Y-32415500D01*
X74053149Y-32415500D01*
X74257851Y-32415500D01*
X74257852Y-32415500D01*
X74460034Y-32383477D01*
X74654719Y-32320220D01*
X74837110Y-32227287D01*
X74931934Y-32158394D01*
X75002713Y-32106971D01*
X75002715Y-32106968D01*
X75002719Y-32106966D01*
X75147466Y-31962219D01*
X75147468Y-31962215D01*
X75147471Y-31962213D01*
X75267786Y-31796611D01*
X75273114Y-31786156D01*
X75314924Y-31704097D01*
X75362898Y-31653301D01*
X75430719Y-31636506D01*
X75494300Y-31657290D01*
X75554314Y-31697390D01*
X75554318Y-31697392D01*
X75554321Y-31697394D01*
X75664455Y-31743012D01*
X75718855Y-31786851D01*
X75740921Y-31853145D01*
X75741000Y-31857572D01*
X75741000Y-38774481D01*
X75721315Y-38841520D01*
X75704681Y-38862162D01*
X74663662Y-39903181D01*
X74602339Y-39936666D01*
X74575981Y-39939500D01*
X72802816Y-39939500D01*
X72755364Y-39930061D01*
X72611001Y-39870264D01*
X72610989Y-39870261D01*
X72456345Y-39839500D01*
X72456342Y-39839500D01*
X72298658Y-39839500D01*
X72298655Y-39839500D01*
X72144010Y-39870261D01*
X72143998Y-39870264D01*
X71998327Y-39930602D01*
X71998314Y-39930609D01*
X71867211Y-40018210D01*
X71867207Y-40018213D01*
X71755713Y-40129707D01*
X71755710Y-40129711D01*
X71668109Y-40260814D01*
X71668102Y-40260827D01*
X71607764Y-40406498D01*
X71607761Y-40406510D01*
X71577000Y-40561153D01*
X71577000Y-40718846D01*
X71607761Y-40873489D01*
X71607764Y-40873501D01*
X71668102Y-41019172D01*
X71668109Y-41019185D01*
X71755710Y-41150288D01*
X71755713Y-41150292D01*
X71867207Y-41261786D01*
X71867211Y-41261789D01*
X71998314Y-41349390D01*
X71998327Y-41349397D01*
X72129001Y-41403523D01*
X72144003Y-41409737D01*
X72298653Y-41440499D01*
X72298656Y-41440500D01*
X72298658Y-41440500D01*
X72456344Y-41440500D01*
X72456345Y-41440499D01*
X72610997Y-41409737D01*
X72703310Y-41371500D01*
X72755364Y-41349939D01*
X72802816Y-41340500D01*
X74986496Y-41340500D01*
X75077540Y-41322389D01*
X75121828Y-41313580D01*
X75185569Y-41287177D01*
X75249307Y-41260777D01*
X75249308Y-41260776D01*
X75249311Y-41260775D01*
X75364043Y-41184114D01*
X75389537Y-41158620D01*
X75420988Y-41127170D01*
X76985608Y-39562548D01*
X76985607Y-39562548D01*
X76985613Y-39562543D01*
X77020581Y-39510211D01*
X77023511Y-39505827D01*
X77062268Y-39447821D01*
X77062275Y-39447811D01*
X77100032Y-39356657D01*
X77115080Y-39320329D01*
X77120434Y-39293409D01*
X77142000Y-39184993D01*
X77142000Y-38539007D01*
X77142000Y-37362648D01*
X80475000Y-37362648D01*
X80475000Y-37567351D01*
X80507022Y-37769534D01*
X80570281Y-37964223D01*
X80614577Y-38051157D01*
X80660902Y-38142075D01*
X80663215Y-38146613D01*
X80783528Y-38312213D01*
X80928286Y-38456971D01*
X81067795Y-38558328D01*
X81093890Y-38577287D01*
X81202860Y-38632810D01*
X81276276Y-38670218D01*
X81276278Y-38670218D01*
X81276281Y-38670220D01*
X81380637Y-38704127D01*
X81470965Y-38733477D01*
X81572057Y-38749488D01*
X81673148Y-38765500D01*
X81673149Y-38765500D01*
X81877851Y-38765500D01*
X81877852Y-38765500D01*
X82080034Y-38733477D01*
X82274719Y-38670220D01*
X82457110Y-38577287D01*
X82561603Y-38501369D01*
X82622713Y-38456971D01*
X82622715Y-38456968D01*
X82622719Y-38456966D01*
X82767466Y-38312219D01*
X82767468Y-38312215D01*
X82767471Y-38312213D01*
X82829786Y-38226442D01*
X82887787Y-38146610D01*
X82980720Y-37964219D01*
X83043977Y-37769534D01*
X83076000Y-37567352D01*
X83076000Y-37362648D01*
X83056495Y-37239500D01*
X83043977Y-37160465D01*
X82980718Y-36965776D01*
X82947003Y-36899607D01*
X82887787Y-36783390D01*
X82866910Y-36754655D01*
X82767471Y-36617786D01*
X82622713Y-36473028D01*
X82457113Y-36352715D01*
X82457112Y-36352714D01*
X82457110Y-36352713D01*
X82400153Y-36323691D01*
X82274723Y-36259781D01*
X82080034Y-36196522D01*
X81905495Y-36168878D01*
X81877852Y-36164500D01*
X81673148Y-36164500D01*
X81648829Y-36168351D01*
X81470965Y-36196522D01*
X81276276Y-36259781D01*
X81093886Y-36352715D01*
X80928286Y-36473028D01*
X80783528Y-36617786D01*
X80663215Y-36783386D01*
X80570281Y-36965776D01*
X80507022Y-37160465D01*
X80475000Y-37362648D01*
X77142000Y-37362648D01*
X77142000Y-34187648D01*
X80475000Y-34187648D01*
X80475000Y-34392351D01*
X80507022Y-34594534D01*
X80570281Y-34789223D01*
X80593915Y-34835606D01*
X80663085Y-34971359D01*
X80663215Y-34971613D01*
X80783528Y-35137213D01*
X80928286Y-35281971D01*
X81051165Y-35371246D01*
X81093890Y-35402287D01*
X81210107Y-35461503D01*
X81276276Y-35495218D01*
X81276278Y-35495218D01*
X81276281Y-35495220D01*
X81380637Y-35529127D01*
X81470965Y-35558477D01*
X81572057Y-35574488D01*
X81673148Y-35590500D01*
X81673149Y-35590500D01*
X81877851Y-35590500D01*
X81877852Y-35590500D01*
X82080034Y-35558477D01*
X82274719Y-35495220D01*
X82457110Y-35402287D01*
X82562114Y-35325998D01*
X82622713Y-35281971D01*
X82622715Y-35281968D01*
X82622719Y-35281966D01*
X82767466Y-35137219D01*
X82767468Y-35137215D01*
X82767471Y-35137213D01*
X82821662Y-35062624D01*
X82887787Y-34971610D01*
X82980720Y-34789219D01*
X83043977Y-34594534D01*
X83060901Y-34487682D01*
X91249500Y-34487682D01*
X91249500Y-34692317D01*
X91281509Y-34894417D01*
X91344744Y-35089031D01*
X91437641Y-35271350D01*
X91437647Y-35271359D01*
X91470023Y-35315921D01*
X91470024Y-35315922D01*
X92149500Y-34636446D01*
X92149500Y-34642661D01*
X92176759Y-34744394D01*
X92229420Y-34835606D01*
X92303894Y-34910080D01*
X92395106Y-34962741D01*
X92496839Y-34990000D01*
X92503053Y-34990000D01*
X91823576Y-35669474D01*
X91868150Y-35701859D01*
X92050468Y-35794755D01*
X92245082Y-35857990D01*
X92447183Y-35890000D01*
X92651817Y-35890000D01*
X92853917Y-35857990D01*
X93048531Y-35794755D01*
X93230849Y-35701859D01*
X93275421Y-35669474D01*
X92595947Y-34990000D01*
X92602161Y-34990000D01*
X92703894Y-34962741D01*
X92795106Y-34910080D01*
X92869580Y-34835606D01*
X92922241Y-34744394D01*
X92949500Y-34642661D01*
X92949500Y-34636447D01*
X93628974Y-35315921D01*
X93661359Y-35271349D01*
X93754255Y-35089031D01*
X93817490Y-34894417D01*
X93849500Y-34692317D01*
X93849500Y-34487682D01*
X93849495Y-34487648D01*
X96249000Y-34487648D01*
X96249000Y-34692351D01*
X96281022Y-34894534D01*
X96344281Y-35089223D01*
X96405124Y-35208632D01*
X96437085Y-35271359D01*
X96437215Y-35271613D01*
X96557528Y-35437213D01*
X96702286Y-35581971D01*
X96822726Y-35669474D01*
X96867890Y-35702287D01*
X96984107Y-35761503D01*
X97050276Y-35795218D01*
X97050278Y-35795218D01*
X97050281Y-35795220D01*
X97142821Y-35825288D01*
X97244965Y-35858477D01*
X97346057Y-35874488D01*
X97447148Y-35890500D01*
X97447149Y-35890500D01*
X97651851Y-35890500D01*
X97651852Y-35890500D01*
X97854034Y-35858477D01*
X98048719Y-35795220D01*
X98231110Y-35702287D01*
X98355573Y-35611860D01*
X98396713Y-35581971D01*
X98396715Y-35581968D01*
X98396719Y-35581966D01*
X98541466Y-35437219D01*
X98541468Y-35437215D01*
X98541471Y-35437213D01*
X98594299Y-35364500D01*
X98661787Y-35271610D01*
X98754720Y-35089219D01*
X98817977Y-34894534D01*
X98850000Y-34692352D01*
X98850000Y-34487648D01*
X98830629Y-34365344D01*
X98817977Y-34285465D01*
X98776844Y-34158872D01*
X98754720Y-34090781D01*
X98754718Y-34090778D01*
X98754718Y-34090776D01*
X98701059Y-33985466D01*
X98661787Y-33908390D01*
X98629592Y-33864077D01*
X98541471Y-33742786D01*
X98396713Y-33598028D01*
X98231113Y-33477715D01*
X98231112Y-33477714D01*
X98231110Y-33477713D01*
X98174153Y-33448691D01*
X98048723Y-33384781D01*
X97854034Y-33321522D01*
X97679495Y-33293878D01*
X97651852Y-33289500D01*
X97447148Y-33289500D01*
X97422829Y-33293351D01*
X97244965Y-33321522D01*
X97050276Y-33384781D01*
X96867886Y-33477715D01*
X96702286Y-33598028D01*
X96557528Y-33742786D01*
X96437215Y-33908386D01*
X96344281Y-34090776D01*
X96281022Y-34285465D01*
X96249000Y-34487648D01*
X93849495Y-34487648D01*
X93817490Y-34285582D01*
X93754255Y-34090968D01*
X93661359Y-33908650D01*
X93628974Y-33864077D01*
X93628974Y-33864076D01*
X92949500Y-34543551D01*
X92949500Y-34537339D01*
X92922241Y-34435606D01*
X92869580Y-34344394D01*
X92795106Y-34269920D01*
X92703894Y-34217259D01*
X92602161Y-34190000D01*
X92595946Y-34190000D01*
X93275422Y-33510524D01*
X93275421Y-33510523D01*
X93230859Y-33478147D01*
X93230850Y-33478141D01*
X93048531Y-33385244D01*
X92853917Y-33322009D01*
X92651817Y-33290000D01*
X92447183Y-33290000D01*
X92245082Y-33322009D01*
X92050468Y-33385244D01*
X91868144Y-33478143D01*
X91823577Y-33510523D01*
X91823577Y-33510524D01*
X92503054Y-34190000D01*
X92496839Y-34190000D01*
X92395106Y-34217259D01*
X92303894Y-34269920D01*
X92229420Y-34344394D01*
X92176759Y-34435606D01*
X92149500Y-34537339D01*
X92149500Y-34543553D01*
X91470024Y-33864077D01*
X91470023Y-33864077D01*
X91437643Y-33908644D01*
X91344744Y-34090968D01*
X91281509Y-34285582D01*
X91249500Y-34487682D01*
X83060901Y-34487682D01*
X83076000Y-34392352D01*
X83076000Y-34187648D01*
X83060657Y-34090776D01*
X83043977Y-33985465D01*
X83004535Y-33864076D01*
X82980720Y-33790781D01*
X82980718Y-33790778D01*
X82980718Y-33790776D01*
X82890685Y-33614078D01*
X82887784Y-33608385D01*
X82767471Y-33442786D01*
X82622713Y-33298028D01*
X82457113Y-33177715D01*
X82457112Y-33177714D01*
X82457110Y-33177713D01*
X82396244Y-33146700D01*
X82274723Y-33084781D01*
X82080034Y-33021522D01*
X81905495Y-32993878D01*
X81877852Y-32989500D01*
X81673148Y-32989500D01*
X81648829Y-32993351D01*
X81470965Y-33021522D01*
X81276276Y-33084781D01*
X81093886Y-33177715D01*
X80928286Y-33298028D01*
X80783528Y-33442786D01*
X80663215Y-33608386D01*
X80570281Y-33790776D01*
X80507022Y-33985465D01*
X80475000Y-34187648D01*
X77142000Y-34187648D01*
X77142000Y-31427007D01*
X77142000Y-31427004D01*
X77120434Y-31318591D01*
X77115080Y-31291671D01*
X77078637Y-31203691D01*
X77062275Y-31164189D01*
X77062274Y-31164187D01*
X77062273Y-31164185D01*
X76985615Y-31049459D01*
X76948803Y-31012647D01*
X76888042Y-30951886D01*
X76729569Y-30793412D01*
X76702691Y-30753185D01*
X76642897Y-30608827D01*
X76642890Y-30608814D01*
X76555289Y-30477711D01*
X76555286Y-30477707D01*
X76453760Y-30376181D01*
X76420275Y-30314858D01*
X76425259Y-30245166D01*
X76467131Y-30189233D01*
X76532595Y-30164816D01*
X76541441Y-30164500D01*
X80447496Y-30164500D01*
X80555912Y-30142934D01*
X80582828Y-30137580D01*
X80599055Y-30130858D01*
X80668520Y-30123389D01*
X80731000Y-30154662D01*
X80766654Y-30214749D01*
X80764163Y-30284575D01*
X80746826Y-30318303D01*
X80663214Y-30433387D01*
X80570281Y-30615776D01*
X80507022Y-30810465D01*
X80475000Y-31012648D01*
X80475000Y-31217351D01*
X80507022Y-31419534D01*
X80570281Y-31614223D01*
X80616542Y-31705013D01*
X80657886Y-31786156D01*
X80663215Y-31796613D01*
X80783528Y-31962213D01*
X80928286Y-32106971D01*
X81068936Y-32209157D01*
X81093890Y-32227287D01*
X81210107Y-32286503D01*
X81276276Y-32320218D01*
X81276278Y-32320218D01*
X81276281Y-32320220D01*
X81380637Y-32354127D01*
X81470965Y-32383477D01*
X81522264Y-32391602D01*
X81673148Y-32415500D01*
X81673149Y-32415500D01*
X81877851Y-32415500D01*
X81877852Y-32415500D01*
X82080034Y-32383477D01*
X82274719Y-32320220D01*
X82457110Y-32227287D01*
X82551934Y-32158394D01*
X82622713Y-32106971D01*
X82622715Y-32106968D01*
X82622719Y-32106966D01*
X82767466Y-31962219D01*
X82767468Y-31962215D01*
X82767471Y-31962213D01*
X82811449Y-31901682D01*
X86317500Y-31901682D01*
X86317500Y-32106317D01*
X86349509Y-32308417D01*
X86412744Y-32503031D01*
X86505641Y-32685350D01*
X86505647Y-32685359D01*
X86538023Y-32729921D01*
X86538024Y-32729922D01*
X87217500Y-32050446D01*
X87217500Y-32056661D01*
X87244759Y-32158394D01*
X87297420Y-32249606D01*
X87371894Y-32324080D01*
X87463106Y-32376741D01*
X87564839Y-32404000D01*
X87571053Y-32404000D01*
X86891576Y-33083474D01*
X86936150Y-33115859D01*
X87118468Y-33208755D01*
X87313082Y-33271990D01*
X87515183Y-33304000D01*
X87719817Y-33304000D01*
X87921917Y-33271990D01*
X88116531Y-33208755D01*
X88298849Y-33115859D01*
X88343421Y-33083474D01*
X87663947Y-32404000D01*
X87670161Y-32404000D01*
X87771894Y-32376741D01*
X87863106Y-32324080D01*
X87937580Y-32249606D01*
X87990241Y-32158394D01*
X88017500Y-32056661D01*
X88017500Y-32050447D01*
X88696974Y-32729921D01*
X88729359Y-32685349D01*
X88822255Y-32503031D01*
X88885490Y-32308417D01*
X88917500Y-32106317D01*
X88917500Y-31901682D01*
X88885490Y-31699582D01*
X88822255Y-31504968D01*
X88729359Y-31322650D01*
X88696974Y-31278077D01*
X88696974Y-31278076D01*
X88017500Y-31957551D01*
X88017500Y-31951339D01*
X87990241Y-31849606D01*
X87937580Y-31758394D01*
X87863106Y-31683920D01*
X87771894Y-31631259D01*
X87670161Y-31604000D01*
X87663946Y-31604000D01*
X88343422Y-30924524D01*
X88343421Y-30924523D01*
X88298859Y-30892147D01*
X88298850Y-30892141D01*
X88116531Y-30799244D01*
X87921917Y-30736009D01*
X87719817Y-30704000D01*
X87515183Y-30704000D01*
X87313082Y-30736009D01*
X87118468Y-30799244D01*
X86936144Y-30892143D01*
X86891577Y-30924523D01*
X86891577Y-30924524D01*
X87571054Y-31604000D01*
X87564839Y-31604000D01*
X87463106Y-31631259D01*
X87371894Y-31683920D01*
X87297420Y-31758394D01*
X87244759Y-31849606D01*
X87217500Y-31951339D01*
X87217500Y-31957553D01*
X86538024Y-31278077D01*
X86538023Y-31278077D01*
X86505643Y-31322644D01*
X86412744Y-31504968D01*
X86349509Y-31699582D01*
X86317500Y-31901682D01*
X82811449Y-31901682D01*
X82867938Y-31823931D01*
X82877120Y-31811290D01*
X82887787Y-31796610D01*
X82980720Y-31614219D01*
X83043977Y-31419534D01*
X83076000Y-31217352D01*
X83076000Y-31012648D01*
X83062042Y-30924524D01*
X83043977Y-30810465D01*
X82980718Y-30615776D01*
X82947003Y-30549607D01*
X82887787Y-30433390D01*
X82880056Y-30422749D01*
X82767471Y-30267786D01*
X82622713Y-30123028D01*
X82457113Y-30002715D01*
X82457112Y-30002714D01*
X82457110Y-30002713D01*
X82400153Y-29973691D01*
X82274723Y-29909781D01*
X82080034Y-29846522D01*
X81905495Y-29818878D01*
X81877852Y-29814500D01*
X81673148Y-29814500D01*
X81648829Y-29818351D01*
X81470965Y-29846522D01*
X81276273Y-29909782D01*
X81254337Y-29920960D01*
X81185667Y-29933856D01*
X81120927Y-29907579D01*
X81080671Y-29850472D01*
X81077679Y-29780666D01*
X81110362Y-29722794D01*
X81193156Y-29640000D01*
X81449352Y-29383802D01*
X81510673Y-29350319D01*
X81556423Y-29349012D01*
X81673148Y-29367500D01*
X81673150Y-29367500D01*
X81877851Y-29367500D01*
X81877852Y-29367500D01*
X82080034Y-29335477D01*
X82274719Y-29272220D01*
X82457110Y-29179287D01*
X82560710Y-29104018D01*
X82622713Y-29058971D01*
X82622715Y-29058968D01*
X82622719Y-29058966D01*
X82767466Y-28914219D01*
X82767468Y-28914215D01*
X82767471Y-28914213D01*
X82822093Y-28839031D01*
X82887787Y-28748610D01*
X82980720Y-28566219D01*
X83043977Y-28371534D01*
X83076000Y-28169352D01*
X83076000Y-27964648D01*
X83066392Y-27903983D01*
X86317000Y-27903983D01*
X86317000Y-29104001D01*
X86317001Y-29104018D01*
X86327500Y-29206796D01*
X86327501Y-29206799D01*
X86380450Y-29366585D01*
X86382686Y-29373334D01*
X86474788Y-29522656D01*
X86598844Y-29646712D01*
X86748166Y-29738814D01*
X86914703Y-29793999D01*
X87017491Y-29804500D01*
X88217508Y-29804499D01*
X88320297Y-29793999D01*
X88486834Y-29738814D01*
X88636156Y-29646712D01*
X88760212Y-29522656D01*
X88852314Y-29373334D01*
X88907499Y-29206797D01*
X88918000Y-29104009D01*
X88917999Y-28237648D01*
X93001000Y-28237648D01*
X93001000Y-28442351D01*
X93033022Y-28644534D01*
X93096281Y-28839223D01*
X93136172Y-28917512D01*
X93189085Y-29021359D01*
X93189215Y-29021613D01*
X93309528Y-29187213D01*
X93454286Y-29331971D01*
X93574726Y-29419474D01*
X93619890Y-29452287D01*
X93718413Y-29502487D01*
X93802276Y-29545218D01*
X93802278Y-29545218D01*
X93802281Y-29545220D01*
X93874730Y-29568760D01*
X93996965Y-29608477D01*
X94098057Y-29624488D01*
X94199148Y-29640500D01*
X94199149Y-29640500D01*
X94403851Y-29640500D01*
X94403852Y-29640500D01*
X94606034Y-29608477D01*
X94800719Y-29545220D01*
X94983110Y-29452287D01*
X95091778Y-29373336D01*
X95148713Y-29331971D01*
X95148715Y-29331968D01*
X95148719Y-29331966D01*
X95293466Y-29187219D01*
X95293468Y-29187215D01*
X95293471Y-29187213D01*
X95349799Y-29109682D01*
X95413787Y-29021610D01*
X95506720Y-28839219D01*
X95569977Y-28644534D01*
X95602000Y-28442352D01*
X95602000Y-28237682D01*
X98001500Y-28237682D01*
X98001500Y-28442317D01*
X98033509Y-28644417D01*
X98096744Y-28839031D01*
X98189641Y-29021350D01*
X98189647Y-29021359D01*
X98222023Y-29065921D01*
X98222024Y-29065922D01*
X98901500Y-28386446D01*
X98901500Y-28392661D01*
X98928759Y-28494394D01*
X98981420Y-28585606D01*
X99055894Y-28660080D01*
X99147106Y-28712741D01*
X99248839Y-28740000D01*
X99255053Y-28740000D01*
X98575576Y-29419474D01*
X98620150Y-29451859D01*
X98802468Y-29544755D01*
X98997082Y-29607990D01*
X99199183Y-29640000D01*
X99403817Y-29640000D01*
X99605917Y-29607990D01*
X99800531Y-29544755D01*
X99982849Y-29451859D01*
X100027421Y-29419474D01*
X99347947Y-28740000D01*
X99354161Y-28740000D01*
X99455894Y-28712741D01*
X99547106Y-28660080D01*
X99621580Y-28585606D01*
X99674241Y-28494394D01*
X99701500Y-28392661D01*
X99701500Y-28386447D01*
X100380974Y-29065921D01*
X100413359Y-29021349D01*
X100506255Y-28839031D01*
X100569490Y-28644417D01*
X100601500Y-28442317D01*
X100601500Y-28237682D01*
X100569490Y-28035582D01*
X100506255Y-27840968D01*
X100413359Y-27658650D01*
X100380974Y-27614077D01*
X100380974Y-27614076D01*
X99701500Y-28293551D01*
X99701500Y-28287339D01*
X99674241Y-28185606D01*
X99621580Y-28094394D01*
X99547106Y-28019920D01*
X99455894Y-27967259D01*
X99354161Y-27940000D01*
X99347946Y-27940000D01*
X100027422Y-27260524D01*
X100027422Y-27260523D01*
X99982859Y-27228147D01*
X99982850Y-27228141D01*
X99800531Y-27135244D01*
X99605917Y-27072009D01*
X99403817Y-27040000D01*
X99199183Y-27040000D01*
X98997082Y-27072009D01*
X98802468Y-27135244D01*
X98620144Y-27228143D01*
X98575577Y-27260523D01*
X98575577Y-27260524D01*
X99255054Y-27940000D01*
X99248839Y-27940000D01*
X99147106Y-27967259D01*
X99055894Y-28019920D01*
X98981420Y-28094394D01*
X98928759Y-28185606D01*
X98901500Y-28287339D01*
X98901500Y-28293553D01*
X98222024Y-27614077D01*
X98222023Y-27614077D01*
X98189643Y-27658644D01*
X98096744Y-27840968D01*
X98033509Y-28035582D01*
X98001500Y-28237682D01*
X95602000Y-28237682D01*
X95602000Y-28237648D01*
X95591183Y-28169351D01*
X95569977Y-28035465D01*
X95527260Y-27903998D01*
X95506720Y-27840781D01*
X95506718Y-27840778D01*
X95506718Y-27840776D01*
X95438305Y-27706510D01*
X95413787Y-27658390D01*
X95396551Y-27634666D01*
X95293471Y-27492786D01*
X95148713Y-27348028D01*
X94983113Y-27227715D01*
X94983112Y-27227714D01*
X94983110Y-27227713D01*
X94926153Y-27198691D01*
X94800723Y-27134781D01*
X94606034Y-27071522D01*
X94431495Y-27043878D01*
X94403852Y-27039500D01*
X94199148Y-27039500D01*
X94174829Y-27043351D01*
X93996965Y-27071522D01*
X93802276Y-27134781D01*
X93619886Y-27227715D01*
X93454286Y-27348028D01*
X93309528Y-27492786D01*
X93189215Y-27658386D01*
X93096281Y-27840776D01*
X93033022Y-28035465D01*
X93001000Y-28237648D01*
X88917999Y-28237648D01*
X88917999Y-27903992D01*
X88913623Y-27861158D01*
X88907499Y-27801203D01*
X88907498Y-27801200D01*
X88894662Y-27762465D01*
X88852314Y-27634666D01*
X88760212Y-27485344D01*
X88636156Y-27361288D01*
X88543388Y-27304069D01*
X88486836Y-27269187D01*
X88486831Y-27269185D01*
X88460691Y-27260523D01*
X88320297Y-27214001D01*
X88320295Y-27214000D01*
X88217510Y-27203500D01*
X87017498Y-27203500D01*
X87017481Y-27203501D01*
X86914703Y-27214000D01*
X86914700Y-27214001D01*
X86748168Y-27269185D01*
X86748163Y-27269187D01*
X86598842Y-27361289D01*
X86474789Y-27485342D01*
X86382687Y-27634663D01*
X86382685Y-27634668D01*
X86358879Y-27706510D01*
X86327501Y-27801203D01*
X86327501Y-27801204D01*
X86327500Y-27801204D01*
X86317000Y-27903983D01*
X83066392Y-27903983D01*
X83050113Y-27801204D01*
X83043977Y-27762465D01*
X82987495Y-27588632D01*
X82980720Y-27567781D01*
X82980718Y-27567778D01*
X82980718Y-27567776D01*
X82942508Y-27492786D01*
X82887787Y-27385390D01*
X82867924Y-27358051D01*
X82767471Y-27219786D01*
X82622713Y-27075028D01*
X82457113Y-26954715D01*
X82457112Y-26954714D01*
X82457110Y-26954713D01*
X82400153Y-26925691D01*
X82274723Y-26861781D01*
X82080034Y-26798522D01*
X81905495Y-26770878D01*
X81877852Y-26766500D01*
X81673148Y-26766500D01*
X81648829Y-26770351D01*
X81470965Y-26798522D01*
X81276276Y-26861781D01*
X81093886Y-26954715D01*
X80928286Y-27075028D01*
X80783528Y-27219786D01*
X80663215Y-27385386D01*
X80570281Y-27567776D01*
X80507022Y-27762465D01*
X80475000Y-27964648D01*
X80475000Y-28169351D01*
X80493486Y-28286069D01*
X80484531Y-28355363D01*
X80458694Y-28393148D01*
X80124662Y-28727181D01*
X80063339Y-28760666D01*
X80036981Y-28763500D01*
X75462550Y-28763500D01*
X75395511Y-28743815D01*
X75349756Y-28691011D01*
X75339812Y-28621853D01*
X75352066Y-28583204D01*
X75360717Y-28566225D01*
X75360718Y-28566223D01*
X75360720Y-28566219D01*
X75423977Y-28371534D01*
X75456000Y-28169352D01*
X75456000Y-27964648D01*
X75446393Y-27903991D01*
X75423977Y-27762465D01*
X75367495Y-27588632D01*
X75360720Y-27567781D01*
X75360718Y-27567778D01*
X75360718Y-27567776D01*
X75322508Y-27492786D01*
X75267787Y-27385390D01*
X75247924Y-27358051D01*
X75147471Y-27219786D01*
X75002713Y-27075028D01*
X74837113Y-26954715D01*
X74837112Y-26954714D01*
X74837110Y-26954713D01*
X74780153Y-26925691D01*
X74654723Y-26861781D01*
X74460034Y-26798522D01*
X74285495Y-26770878D01*
X74257852Y-26766500D01*
X74053148Y-26766500D01*
X74028829Y-26770351D01*
X73850965Y-26798522D01*
X73656276Y-26861781D01*
X73473886Y-26954715D01*
X73308286Y-27075028D01*
X73163530Y-27219784D01*
X73094075Y-27315384D01*
X73038745Y-27358051D01*
X72993756Y-27366500D01*
X62319441Y-27366500D01*
X62252402Y-27346815D01*
X62231760Y-27330181D01*
X62219792Y-27318213D01*
X62219788Y-27318210D01*
X62088685Y-27230609D01*
X62088672Y-27230602D01*
X61943001Y-27170264D01*
X61942989Y-27170261D01*
X61788345Y-27139500D01*
X61788342Y-27139500D01*
X61630658Y-27139500D01*
X61630655Y-27139500D01*
X61476010Y-27170261D01*
X61475998Y-27170264D01*
X61330327Y-27230602D01*
X61330314Y-27230609D01*
X61199211Y-27318210D01*
X61199207Y-27318213D01*
X61087713Y-27429707D01*
X61087710Y-27429711D01*
X61000109Y-27560814D01*
X61000102Y-27560827D01*
X60939764Y-27706498D01*
X60939761Y-27706510D01*
X60909000Y-27861153D01*
X57838000Y-27861153D01*
X57838000Y-26841316D01*
X57847439Y-26793864D01*
X57907235Y-26649501D01*
X57907237Y-26649497D01*
X57938000Y-26494842D01*
X57938000Y-26337158D01*
X57938000Y-26337155D01*
X57937999Y-26337153D01*
X57924463Y-26269104D01*
X57907237Y-26182503D01*
X57907235Y-26182498D01*
X57846897Y-26036827D01*
X57846890Y-26036814D01*
X57759289Y-25905711D01*
X57759286Y-25905707D01*
X57647792Y-25794213D01*
X57647788Y-25794210D01*
X57607401Y-25767224D01*
X57562596Y-25713612D01*
X57553889Y-25644287D01*
X57584044Y-25581259D01*
X57643487Y-25544540D01*
X57676292Y-25540122D01*
X65647581Y-25540122D01*
X65647581Y-23484500D01*
X65667266Y-23417461D01*
X65720070Y-23371706D01*
X65771581Y-23360500D01*
X91462059Y-23360500D01*
X91529098Y-23380185D01*
X91574853Y-23432989D01*
X91584797Y-23502147D01*
X91555772Y-23565703D01*
X91496994Y-23603477D01*
X91481457Y-23606973D01*
X91376965Y-23623522D01*
X91182276Y-23686781D01*
X90999886Y-23779715D01*
X90834286Y-23900028D01*
X90689528Y-24044786D01*
X90569215Y-24210386D01*
X90476281Y-24392776D01*
X90413022Y-24587465D01*
X90390455Y-24729951D01*
X90381000Y-24789648D01*
X90381000Y-24994352D01*
X90382720Y-25005213D01*
X90413022Y-25196534D01*
X90476281Y-25391223D01*
X90516995Y-25471127D01*
X90566740Y-25568757D01*
X90569215Y-25573613D01*
X90689528Y-25739213D01*
X90834286Y-25883971D01*
X90960683Y-25975802D01*
X90999890Y-26004287D01*
X91116107Y-26063503D01*
X91182276Y-26097218D01*
X91182278Y-26097218D01*
X91182281Y-26097220D01*
X91229690Y-26112624D01*
X91376965Y-26160477D01*
X91478057Y-26176488D01*
X91579148Y-26192500D01*
X91579149Y-26192500D01*
X91783851Y-26192500D01*
X91783852Y-26192500D01*
X91986034Y-26160477D01*
X92180719Y-26097220D01*
X92363110Y-26004287D01*
X92456090Y-25936732D01*
X92528713Y-25883971D01*
X92528715Y-25883968D01*
X92528719Y-25883966D01*
X92673466Y-25739219D01*
X92673468Y-25739215D01*
X92673471Y-25739213D01*
X92741002Y-25646263D01*
X92793787Y-25573610D01*
X92886720Y-25391219D01*
X92949977Y-25196534D01*
X92982000Y-24994352D01*
X92982000Y-24789648D01*
X92972545Y-24729951D01*
X92949977Y-24587465D01*
X92886718Y-24392776D01*
X92841993Y-24305000D01*
X92793787Y-24210390D01*
X92760375Y-24164402D01*
X92673471Y-24044786D01*
X92528713Y-23900028D01*
X92363113Y-23779715D01*
X92363112Y-23779714D01*
X92363110Y-23779713D01*
X92306153Y-23750691D01*
X92180723Y-23686781D01*
X91986034Y-23623522D01*
X91881543Y-23606973D01*
X91818408Y-23577044D01*
X91781477Y-23517732D01*
X91782475Y-23447870D01*
X91821085Y-23389637D01*
X91885049Y-23361523D01*
X91900941Y-23360500D01*
X99082059Y-23360500D01*
X99149098Y-23380185D01*
X99194853Y-23432989D01*
X99204797Y-23502147D01*
X99175772Y-23565703D01*
X99116994Y-23603477D01*
X99101457Y-23606973D01*
X98996965Y-23623522D01*
X98802276Y-23686781D01*
X98619886Y-23779715D01*
X98454286Y-23900028D01*
X98309528Y-24044786D01*
X98189215Y-24210386D01*
X98096281Y-24392776D01*
X98033022Y-24587465D01*
X98010455Y-24729951D01*
X98001000Y-24789648D01*
X98001000Y-24994352D01*
X98002720Y-25005213D01*
X98033022Y-25196534D01*
X98096281Y-25391223D01*
X98136995Y-25471127D01*
X98186740Y-25568757D01*
X98189215Y-25573613D01*
X98309528Y-25739213D01*
X98454286Y-25883971D01*
X98580683Y-25975802D01*
X98619890Y-26004287D01*
X98736107Y-26063503D01*
X98802276Y-26097218D01*
X98802278Y-26097218D01*
X98802281Y-26097220D01*
X98849690Y-26112624D01*
X98996965Y-26160477D01*
X99098057Y-26176488D01*
X99199148Y-26192500D01*
X99199149Y-26192500D01*
X99403851Y-26192500D01*
X99403852Y-26192500D01*
X99606034Y-26160477D01*
X99800719Y-26097220D01*
X99983110Y-26004287D01*
X100076090Y-25936732D01*
X100148713Y-25883971D01*
X100148715Y-25883968D01*
X100148719Y-25883966D01*
X100293466Y-25739219D01*
X100293468Y-25739215D01*
X100293471Y-25739213D01*
X100361002Y-25646263D01*
X100413787Y-25573610D01*
X100506720Y-25391219D01*
X100569977Y-25196534D01*
X100602000Y-24994352D01*
X100602000Y-24789648D01*
X100592545Y-24729951D01*
X100569977Y-24587465D01*
X100506718Y-24392776D01*
X100461993Y-24305000D01*
X100413787Y-24210390D01*
X100380375Y-24164402D01*
X100293471Y-24044786D01*
X100148713Y-23900028D01*
X99983113Y-23779715D01*
X99983112Y-23779714D01*
X99983110Y-23779713D01*
X99926153Y-23750691D01*
X99800723Y-23686781D01*
X99606034Y-23623522D01*
X99501543Y-23606973D01*
X99438408Y-23577044D01*
X99401477Y-23517732D01*
X99402475Y-23447870D01*
X99441085Y-23389637D01*
X99505049Y-23361523D01*
X99520941Y-23360500D01*
X102483761Y-23360500D01*
X102550800Y-23380185D01*
X102596555Y-23432989D01*
X102606499Y-23502147D01*
X102577474Y-23565703D01*
X102558073Y-23583766D01*
X102539309Y-23597812D01*
X102453149Y-23712906D01*
X102453145Y-23712913D01*
X102402903Y-23847620D01*
X102402901Y-23847627D01*
X102396500Y-23907155D01*
X102396500Y-24555000D01*
X103313488Y-24555000D01*
X103280575Y-24612007D01*
X103246500Y-24739174D01*
X103246500Y-24870826D01*
X103280575Y-24997993D01*
X103313488Y-25055000D01*
X102396500Y-25055000D01*
X102396500Y-25702844D01*
X102402901Y-25762372D01*
X102402903Y-25762379D01*
X102453145Y-25897086D01*
X102453149Y-25897093D01*
X102539309Y-26012187D01*
X102539312Y-26012190D01*
X102654406Y-26098350D01*
X102654413Y-26098354D01*
X102785970Y-26147422D01*
X102841904Y-26189293D01*
X102866321Y-26254758D01*
X102851469Y-26323031D01*
X102830319Y-26351285D01*
X102716389Y-26465215D01*
X102591451Y-26637179D01*
X102494944Y-26826585D01*
X102429253Y-27028760D01*
X102397285Y-27230602D01*
X102396000Y-27238713D01*
X102396000Y-27451287D01*
X102401394Y-27485342D01*
X102425044Y-27634666D01*
X102429254Y-27661243D01*
X102487650Y-27840968D01*
X102494944Y-27863414D01*
X102591451Y-28052820D01*
X102716390Y-28224786D01*
X102866713Y-28375109D01*
X103038682Y-28500050D01*
X103047446Y-28504516D01*
X103098242Y-28552491D01*
X103115036Y-28620312D01*
X103092498Y-28686447D01*
X103047446Y-28725484D01*
X103038682Y-28729949D01*
X102866713Y-28854890D01*
X102716390Y-29005213D01*
X102591451Y-29177179D01*
X102494944Y-29366585D01*
X102429253Y-29568760D01*
X102396000Y-29778713D01*
X102396000Y-29991286D01*
X102427351Y-30189233D01*
X102429254Y-30201243D01*
X102482856Y-30366213D01*
X102494944Y-30403414D01*
X102591451Y-30592820D01*
X102716390Y-30764786D01*
X102866713Y-30915109D01*
X103038679Y-31040048D01*
X103038681Y-31040049D01*
X103038684Y-31040051D01*
X103228088Y-31136557D01*
X103430257Y-31202246D01*
X103640213Y-31235500D01*
X103640214Y-31235500D01*
X103852786Y-31235500D01*
X103852787Y-31235500D01*
X104062743Y-31202246D01*
X104264912Y-31136557D01*
X104454316Y-31040051D01*
X104521582Y-30991180D01*
X104626286Y-30915109D01*
X104626288Y-30915106D01*
X104626292Y-30915104D01*
X104776604Y-30764792D01*
X104776606Y-30764788D01*
X104776609Y-30764786D01*
X104901548Y-30592820D01*
X104901547Y-30592820D01*
X104901551Y-30592816D01*
X104998057Y-30403412D01*
X105063746Y-30201243D01*
X105097000Y-29991287D01*
X105097000Y-29778713D01*
X105063746Y-29568757D01*
X104998057Y-29366588D01*
X104901551Y-29177184D01*
X104901549Y-29177181D01*
X104901548Y-29177179D01*
X104776609Y-29005213D01*
X104626286Y-28854890D01*
X104454320Y-28729951D01*
X104447415Y-28726433D01*
X104445554Y-28725485D01*
X104394759Y-28677512D01*
X104377963Y-28609692D01*
X104400499Y-28543556D01*
X104445554Y-28504515D01*
X104454316Y-28500051D01*
X104529005Y-28445787D01*
X104626286Y-28375109D01*
X104626288Y-28375106D01*
X104626292Y-28375104D01*
X104776604Y-28224792D01*
X104776606Y-28224788D01*
X104776609Y-28224786D01*
X104901548Y-28052820D01*
X104901547Y-28052820D01*
X104901551Y-28052816D01*
X104998057Y-27863412D01*
X105063746Y-27661243D01*
X105097000Y-27451287D01*
X105097000Y-27238713D01*
X105063746Y-27028757D01*
X104998057Y-26826588D01*
X104901551Y-26637184D01*
X104901549Y-26637181D01*
X104901548Y-26637179D01*
X104776609Y-26465213D01*
X104662681Y-26351285D01*
X104629196Y-26289962D01*
X104634180Y-26220270D01*
X104676052Y-26164337D01*
X104707029Y-26147422D01*
X104838586Y-26098354D01*
X104838593Y-26098350D01*
X104953687Y-26012190D01*
X104953690Y-26012187D01*
X105039850Y-25897093D01*
X105039854Y-25897086D01*
X105090096Y-25762379D01*
X105090098Y-25762372D01*
X105096499Y-25702844D01*
X105096500Y-25702827D01*
X105096500Y-25055000D01*
X104179512Y-25055000D01*
X104212425Y-24997993D01*
X104246500Y-24870826D01*
X104246500Y-24739174D01*
X104212425Y-24612007D01*
X104179512Y-24555000D01*
X105096500Y-24555000D01*
X105096500Y-23907172D01*
X105096499Y-23907155D01*
X105090098Y-23847627D01*
X105090096Y-23847620D01*
X105039854Y-23712913D01*
X105039850Y-23712906D01*
X104953690Y-23597812D01*
X104934927Y-23583766D01*
X104893057Y-23527832D01*
X104888073Y-23458141D01*
X104921559Y-23396818D01*
X104982882Y-23363333D01*
X105009239Y-23360500D01*
X107764321Y-23360500D01*
X107831360Y-23380185D01*
X107877115Y-23432989D01*
X107887059Y-23502147D01*
X107858034Y-23565703D01*
X107826321Y-23591887D01*
X107685696Y-23673075D01*
X107477648Y-23832718D01*
X107292218Y-24018148D01*
X107132575Y-24226196D01*
X107001458Y-24453299D01*
X107001453Y-24453309D01*
X106901105Y-24695571D01*
X106901102Y-24695581D01*
X106846329Y-24900000D01*
X106833230Y-24948885D01*
X106799000Y-25208872D01*
X106799000Y-25471127D01*
X106825623Y-25673339D01*
X106833230Y-25731116D01*
X106898331Y-25974076D01*
X106901102Y-25984418D01*
X106901105Y-25984428D01*
X107001453Y-26226690D01*
X107001458Y-26226700D01*
X107132575Y-26453803D01*
X107292218Y-26661851D01*
X107292226Y-26661860D01*
X107477640Y-26847274D01*
X107477648Y-26847281D01*
X107477649Y-26847282D01*
X107526054Y-26884424D01*
X107685696Y-27006924D01*
X107912799Y-27138041D01*
X107912809Y-27138046D01*
X108155071Y-27238394D01*
X108155081Y-27238398D01*
X108408384Y-27306270D01*
X108668380Y-27340500D01*
X108668387Y-27340500D01*
X108930613Y-27340500D01*
X108930620Y-27340500D01*
X109190616Y-27306270D01*
X109443919Y-27238398D01*
X109648721Y-27153566D01*
X109686190Y-27138046D01*
X109686191Y-27138045D01*
X109686197Y-27138043D01*
X109913303Y-27006924D01*
X110121351Y-26847282D01*
X110121355Y-26847277D01*
X110121360Y-26847274D01*
X110306774Y-26661860D01*
X110306777Y-26661855D01*
X110306782Y-26661851D01*
X110466424Y-26453803D01*
X110507613Y-26382460D01*
X110558179Y-26334246D01*
X110626786Y-26321022D01*
X110691651Y-26346990D01*
X110732180Y-26403904D01*
X110739000Y-26444461D01*
X110739000Y-42155772D01*
X110719315Y-42222811D01*
X110666511Y-42268566D01*
X110597353Y-42278510D01*
X110533797Y-42249485D01*
X110507613Y-42217773D01*
X110493422Y-42193193D01*
X110350287Y-42006659D01*
X110333782Y-41985149D01*
X110333781Y-41985148D01*
X110333774Y-41985140D01*
X110148360Y-41799726D01*
X110148351Y-41799718D01*
X109940303Y-41640075D01*
X109713200Y-41508958D01*
X109713190Y-41508953D01*
X109470928Y-41408605D01*
X109470921Y-41408603D01*
X109470919Y-41408602D01*
X109217616Y-41340730D01*
X109159839Y-41333123D01*
X108957627Y-41306500D01*
X108957620Y-41306500D01*
X108695380Y-41306500D01*
X108695372Y-41306500D01*
X108464272Y-41336926D01*
X108435384Y-41340730D01*
X108201040Y-41403522D01*
X108182081Y-41408602D01*
X108182071Y-41408605D01*
X107939809Y-41508953D01*
X107939799Y-41508958D01*
X107712696Y-41640075D01*
X107504648Y-41799718D01*
X107319218Y-41985148D01*
X107159575Y-42193196D01*
X107028458Y-42420299D01*
X107028453Y-42420309D01*
X106928105Y-42662571D01*
X106928102Y-42662581D01*
X106863016Y-42905489D01*
X106860230Y-42915885D01*
X106826000Y-43175872D01*
X106826000Y-43438127D01*
X106844905Y-43581713D01*
X106860230Y-43698116D01*
X106910636Y-43886235D01*
X106928102Y-43951418D01*
X106928105Y-43951428D01*
X107028453Y-44193690D01*
X107028458Y-44193700D01*
X107159575Y-44420803D01*
X107319218Y-44628851D01*
X107319226Y-44628860D01*
X107504640Y-44814274D01*
X107504648Y-44814281D01*
X107712696Y-44973924D01*
X107788751Y-45017834D01*
X107836966Y-45068401D01*
X107850190Y-45137008D01*
X107824222Y-45201873D01*
X107767308Y-45242401D01*
X107726728Y-45249221D01*
X96354168Y-45247134D01*
X96287132Y-45227437D01*
X96241387Y-45174625D01*
X96231456Y-45105464D01*
X96260493Y-45041914D01*
X96315870Y-45005204D01*
X96517912Y-44939557D01*
X96707316Y-44843051D01*
X96729289Y-44827086D01*
X96879286Y-44718109D01*
X96879288Y-44718106D01*
X96879292Y-44718104D01*
X97029604Y-44567792D01*
X97029606Y-44567788D01*
X97029609Y-44567786D01*
X97154548Y-44395820D01*
X97154547Y-44395820D01*
X97154551Y-44395816D01*
X97251057Y-44206412D01*
X97316746Y-44004243D01*
X97350000Y-43794287D01*
X97350000Y-43581713D01*
X97316746Y-43371757D01*
X97251057Y-43169588D01*
X97154551Y-42980184D01*
X97154549Y-42980181D01*
X97154548Y-42980179D01*
X97029612Y-42808218D01*
X97029601Y-42808205D01*
X96879286Y-42657890D01*
X96707320Y-42532951D01*
X96700152Y-42529299D01*
X96698554Y-42528485D01*
X96647759Y-42480512D01*
X96630963Y-42412692D01*
X96653499Y-42346556D01*
X96698554Y-42307515D01*
X96707316Y-42303051D01*
X96785490Y-42246255D01*
X96879286Y-42178109D01*
X96879288Y-42178106D01*
X96879292Y-42178104D01*
X97029604Y-42027792D01*
X97029606Y-42027788D01*
X97029609Y-42027786D01*
X97154548Y-41855820D01*
X97154547Y-41855820D01*
X97154551Y-41855816D01*
X97251057Y-41666412D01*
X97316746Y-41464243D01*
X97350000Y-41254287D01*
X97350000Y-41041713D01*
X97316746Y-40831757D01*
X97251057Y-40629588D01*
X97154551Y-40440184D01*
X97154549Y-40440181D01*
X97154548Y-40440179D01*
X97029609Y-40268213D01*
X96915681Y-40154285D01*
X96882196Y-40092962D01*
X96887180Y-40023270D01*
X96929052Y-39967337D01*
X96960029Y-39950422D01*
X97091586Y-39901354D01*
X97091593Y-39901350D01*
X97206687Y-39815190D01*
X97206690Y-39815187D01*
X97292850Y-39700093D01*
X97292854Y-39700086D01*
X97343096Y-39565379D01*
X97343098Y-39565372D01*
X97349499Y-39505844D01*
X97349500Y-39505827D01*
X97349500Y-38858000D01*
X96432512Y-38858000D01*
X96465425Y-38800993D01*
X96499500Y-38673826D01*
X96499500Y-38542174D01*
X96465425Y-38415007D01*
X96432512Y-38358000D01*
X97349500Y-38358000D01*
X97349500Y-37710172D01*
X97349499Y-37710155D01*
X97343098Y-37650627D01*
X97343096Y-37650620D01*
X97292854Y-37515913D01*
X97292850Y-37515906D01*
X97206690Y-37400812D01*
X97206687Y-37400809D01*
X97091593Y-37314649D01*
X97091586Y-37314645D01*
X96956879Y-37264403D01*
X96956872Y-37264401D01*
X96897344Y-37258000D01*
X96249500Y-37258000D01*
X96249500Y-38174988D01*
X96192493Y-38142075D01*
X96065326Y-38108000D01*
X95933674Y-38108000D01*
X95806507Y-38142075D01*
X95749500Y-38174988D01*
X95749500Y-37258000D01*
X95101655Y-37258000D01*
X95042127Y-37264401D01*
X95042120Y-37264403D01*
X94907413Y-37314645D01*
X94907406Y-37314649D01*
X94792312Y-37400809D01*
X94792309Y-37400812D01*
X94706149Y-37515906D01*
X94706145Y-37515913D01*
X94655903Y-37650620D01*
X94655901Y-37650627D01*
X94649500Y-37710155D01*
X94649500Y-38358000D01*
X95566488Y-38358000D01*
X95533575Y-38415007D01*
X95499500Y-38542174D01*
X95499500Y-38673826D01*
X95533575Y-38800993D01*
X95566488Y-38858000D01*
X94649500Y-38858000D01*
X94649500Y-39505844D01*
X94655901Y-39565372D01*
X94655903Y-39565379D01*
X94706145Y-39700086D01*
X94706149Y-39700093D01*
X94792309Y-39815187D01*
X94792312Y-39815190D01*
X94907406Y-39901350D01*
X94907413Y-39901354D01*
X95038970Y-39950422D01*
X95094904Y-39992293D01*
X95119321Y-40057758D01*
X95104469Y-40126031D01*
X95083319Y-40154285D01*
X94969389Y-40268215D01*
X94844451Y-40440179D01*
X94747944Y-40629585D01*
X94682253Y-40831760D01*
X94649000Y-41041713D01*
X94649000Y-41254286D01*
X94673620Y-41409735D01*
X94682254Y-41464243D01*
X94737899Y-41635501D01*
X94747944Y-41666414D01*
X94844451Y-41855820D01*
X94969390Y-42027786D01*
X95119713Y-42178109D01*
X95291682Y-42303050D01*
X95300446Y-42307516D01*
X95351242Y-42355491D01*
X95368036Y-42423312D01*
X95345498Y-42489447D01*
X95300446Y-42528484D01*
X95291682Y-42532949D01*
X95119713Y-42657890D01*
X94969390Y-42808213D01*
X94844451Y-42980179D01*
X94747944Y-43169585D01*
X94682253Y-43371760D01*
X94649000Y-43581713D01*
X94649000Y-43794286D01*
X94680797Y-43995048D01*
X94682254Y-44004243D01*
X94743809Y-44193690D01*
X94747944Y-44206414D01*
X94844451Y-44395820D01*
X94969390Y-44567786D01*
X95119713Y-44718109D01*
X95291679Y-44843048D01*
X95291681Y-44843049D01*
X95291684Y-44843051D01*
X95481088Y-44939557D01*
X95682728Y-45005074D01*
X95740400Y-45044509D01*
X95767599Y-45108868D01*
X95755685Y-45177714D01*
X95708441Y-45229190D01*
X95644384Y-45247003D01*
X27580117Y-45234512D01*
X27580102Y-45234511D01*
X27518658Y-45234500D01*
X27509814Y-45234183D01*
X27309693Y-45219835D01*
X27292184Y-45217314D01*
X27100492Y-45175582D01*
X27083519Y-45170596D01*
X26899711Y-45102010D01*
X26883620Y-45094659D01*
X26711440Y-45000613D01*
X26696560Y-44991047D01*
X26539520Y-44873462D01*
X26526152Y-44861876D01*
X26387440Y-44723138D01*
X26375863Y-44709776D01*
X26258296Y-44552702D01*
X26248738Y-44537826D01*
X26154723Y-44365626D01*
X26147381Y-44349548D01*
X26078821Y-44165711D01*
X26073842Y-44148748D01*
X26058807Y-44079624D01*
X26032142Y-43957035D01*
X26029626Y-43939529D01*
X26024661Y-43870104D01*
X26015316Y-43739418D01*
X26015000Y-43730573D01*
X26015000Y-27821902D01*
X36333000Y-27821902D01*
X36333000Y-28058097D01*
X36369946Y-28291368D01*
X36442933Y-28515996D01*
X36533404Y-28693553D01*
X36550157Y-28726433D01*
X36688983Y-28917510D01*
X36855990Y-29084517D01*
X36890627Y-29109683D01*
X36933292Y-29165013D01*
X36939271Y-29234626D01*
X36906665Y-29296421D01*
X36890630Y-29310315D01*
X36872865Y-29323222D01*
X36855988Y-29335484D01*
X36688985Y-29502487D01*
X36688985Y-29502488D01*
X36688983Y-29502490D01*
X36674331Y-29522657D01*
X36550157Y-29693566D01*
X36442933Y-29904003D01*
X36369946Y-30128631D01*
X36333000Y-30361902D01*
X36333000Y-30598097D01*
X36369946Y-30831368D01*
X36442933Y-31055996D01*
X36498059Y-31164185D01*
X36550157Y-31266433D01*
X36688983Y-31457510D01*
X36855990Y-31624517D01*
X36890627Y-31649683D01*
X36933292Y-31705013D01*
X36939271Y-31774626D01*
X36906665Y-31836421D01*
X36890630Y-31850315D01*
X36880642Y-31857572D01*
X36855988Y-31875484D01*
X36688985Y-32042487D01*
X36688985Y-32042488D01*
X36688983Y-32042490D01*
X36642610Y-32106317D01*
X36550157Y-32233566D01*
X36442933Y-32444003D01*
X36369946Y-32668631D01*
X36333000Y-32901902D01*
X36333000Y-33138097D01*
X36369946Y-33371368D01*
X36442933Y-33595996D01*
X36517727Y-33742786D01*
X36550157Y-33806433D01*
X36688983Y-33997510D01*
X36855990Y-34164517D01*
X36890627Y-34189683D01*
X36933292Y-34245013D01*
X36939271Y-34314626D01*
X36906665Y-34376421D01*
X36890630Y-34390315D01*
X36887827Y-34392352D01*
X36855988Y-34415484D01*
X36688985Y-34582487D01*
X36688985Y-34582488D01*
X36688983Y-34582490D01*
X36668938Y-34610080D01*
X36550157Y-34773566D01*
X36442933Y-34984003D01*
X36369946Y-35208631D01*
X36333000Y-35441902D01*
X36333000Y-35678097D01*
X36369946Y-35911368D01*
X36442933Y-36135996D01*
X36541985Y-36330394D01*
X36550157Y-36346433D01*
X36688983Y-36537510D01*
X36855990Y-36704517D01*
X36890627Y-36729683D01*
X36933292Y-36785013D01*
X36939271Y-36854626D01*
X36906665Y-36916421D01*
X36890630Y-36930315D01*
X36872865Y-36943222D01*
X36855988Y-36955484D01*
X36688985Y-37122487D01*
X36688985Y-37122488D01*
X36688983Y-37122490D01*
X36629362Y-37204550D01*
X36550157Y-37313566D01*
X36442933Y-37524003D01*
X36369946Y-37748631D01*
X36333000Y-37981902D01*
X36333000Y-38218097D01*
X36369946Y-38451368D01*
X36442933Y-38675996D01*
X36535670Y-38858000D01*
X36550157Y-38886433D01*
X36688983Y-39077510D01*
X36855990Y-39244517D01*
X36890627Y-39269683D01*
X36933292Y-39325013D01*
X36939271Y-39394626D01*
X36906665Y-39456421D01*
X36890630Y-39470315D01*
X36872865Y-39483222D01*
X36855988Y-39495484D01*
X36688985Y-39662487D01*
X36688985Y-39662488D01*
X36688983Y-39662490D01*
X36661668Y-39700086D01*
X36550157Y-39853566D01*
X36442933Y-40064003D01*
X36369946Y-40288631D01*
X36333000Y-40521902D01*
X36333000Y-40758097D01*
X36369946Y-40991368D01*
X36442933Y-41215996D01*
X36522569Y-41372289D01*
X36550157Y-41426433D01*
X36688983Y-41617510D01*
X36855990Y-41784517D01*
X36890627Y-41809683D01*
X36933292Y-41865013D01*
X36939271Y-41934626D01*
X36906665Y-41996421D01*
X36890630Y-42010315D01*
X36882806Y-42016000D01*
X36855988Y-42035484D01*
X36688985Y-42202487D01*
X36688985Y-42202488D01*
X36688983Y-42202490D01*
X36666819Y-42232996D01*
X36550157Y-42393566D01*
X36442933Y-42604003D01*
X36369946Y-42828631D01*
X36333000Y-43061902D01*
X36333000Y-43298097D01*
X36369946Y-43531368D01*
X36442933Y-43755996D01*
X36548612Y-43963401D01*
X36550157Y-43966433D01*
X36688983Y-44157510D01*
X36855990Y-44324517D01*
X37047067Y-44463343D01*
X37146491Y-44514002D01*
X37257503Y-44570566D01*
X37257505Y-44570566D01*
X37257508Y-44570568D01*
X37377912Y-44609689D01*
X37482131Y-44643553D01*
X37715403Y-44680500D01*
X37715408Y-44680500D01*
X37951597Y-44680500D01*
X38184868Y-44643553D01*
X38230116Y-44628851D01*
X38409492Y-44570568D01*
X38619933Y-44463343D01*
X38811010Y-44324517D01*
X38978017Y-44157510D01*
X39116843Y-43966433D01*
X39224068Y-43755992D01*
X39297053Y-43531368D01*
X39307078Y-43468071D01*
X39334000Y-43298097D01*
X39334000Y-43061902D01*
X39297053Y-42828631D01*
X39266212Y-42733713D01*
X39224068Y-42604008D01*
X39206578Y-42569682D01*
X41947500Y-42569682D01*
X41947500Y-42774317D01*
X41979509Y-42976417D01*
X42042744Y-43171031D01*
X42135641Y-43353350D01*
X42135647Y-43353359D01*
X42168023Y-43397921D01*
X42168024Y-43397922D01*
X42847500Y-42718446D01*
X42847500Y-42724661D01*
X42874759Y-42826394D01*
X42927420Y-42917606D01*
X43001894Y-42992080D01*
X43093106Y-43044741D01*
X43194839Y-43072000D01*
X43201053Y-43072000D01*
X42521576Y-43751474D01*
X42566150Y-43783859D01*
X42748468Y-43876755D01*
X42943082Y-43939990D01*
X43145183Y-43972000D01*
X43349817Y-43972000D01*
X43551917Y-43939990D01*
X43746531Y-43876755D01*
X43928849Y-43783859D01*
X43973421Y-43751474D01*
X43293947Y-43072000D01*
X43300161Y-43072000D01*
X43401894Y-43044741D01*
X43493106Y-42992080D01*
X43567580Y-42917606D01*
X43620241Y-42826394D01*
X43647500Y-42724661D01*
X43647500Y-42718448D01*
X44326974Y-43397922D01*
X44326974Y-43397921D01*
X44359359Y-43353349D01*
X44452255Y-43171031D01*
X44515490Y-42976417D01*
X44547500Y-42774317D01*
X44547500Y-42569682D01*
X44515490Y-42367582D01*
X44452255Y-42172968D01*
X44359359Y-41990650D01*
X44326974Y-41946077D01*
X44326974Y-41946076D01*
X43647500Y-42625551D01*
X43647500Y-42619339D01*
X43620241Y-42517606D01*
X43567580Y-42426394D01*
X43493106Y-42351920D01*
X43401894Y-42299259D01*
X43300161Y-42272000D01*
X43293946Y-42272000D01*
X43973422Y-41592524D01*
X43973421Y-41592523D01*
X43928859Y-41560147D01*
X43928850Y-41560141D01*
X43746531Y-41467244D01*
X43551917Y-41404009D01*
X43349817Y-41372000D01*
X43145183Y-41372000D01*
X42943082Y-41404009D01*
X42748468Y-41467244D01*
X42566144Y-41560143D01*
X42521577Y-41592523D01*
X42521577Y-41592524D01*
X43201054Y-42272000D01*
X43194839Y-42272000D01*
X43093106Y-42299259D01*
X43001894Y-42351920D01*
X42927420Y-42426394D01*
X42874759Y-42517606D01*
X42847500Y-42619339D01*
X42847500Y-42625553D01*
X42168024Y-41946077D01*
X42168023Y-41946077D01*
X42135643Y-41990644D01*
X42042744Y-42172968D01*
X41979509Y-42367582D01*
X41947500Y-42569682D01*
X39206578Y-42569682D01*
X39116843Y-42393567D01*
X38978017Y-42202490D01*
X38811010Y-42035483D01*
X38776372Y-42010317D01*
X38733707Y-41954989D01*
X38727728Y-41885375D01*
X38760333Y-41823580D01*
X38776373Y-41809682D01*
X38811010Y-41784517D01*
X38978017Y-41617510D01*
X39116843Y-41426433D01*
X39224068Y-41215992D01*
X39297053Y-40991368D01*
X39305055Y-40940846D01*
X39334000Y-40758097D01*
X39334000Y-40521902D01*
X39297053Y-40288631D01*
X39255547Y-40160889D01*
X39224068Y-40064008D01*
X39224066Y-40064005D01*
X39224066Y-40064003D01*
X39148310Y-39915324D01*
X39116843Y-39853567D01*
X38978017Y-39662490D01*
X38811010Y-39495483D01*
X38776372Y-39470317D01*
X38733707Y-39414989D01*
X38727728Y-39345375D01*
X38760333Y-39283580D01*
X38776373Y-39269682D01*
X38811010Y-39244517D01*
X38978017Y-39077510D01*
X39116843Y-38886433D01*
X39224068Y-38675992D01*
X39297053Y-38451368D01*
X39311841Y-38358000D01*
X39318755Y-38314349D01*
X39324147Y-38302972D01*
X39325046Y-38290413D01*
X39338830Y-38271998D01*
X39348684Y-38251214D01*
X39359373Y-38244558D01*
X39366918Y-38234480D01*
X39388468Y-38226442D01*
X39407996Y-38214283D01*
X39420585Y-38214462D01*
X39432382Y-38210063D01*
X39454858Y-38214952D01*
X39477858Y-38215281D01*
X39489984Y-38222593D01*
X39500655Y-38224915D01*
X39528909Y-38246066D01*
X39577428Y-38294585D01*
X39604308Y-38334814D01*
X39664102Y-38479172D01*
X39664109Y-38479185D01*
X39751710Y-38610288D01*
X39751713Y-38610292D01*
X39863207Y-38721786D01*
X39863211Y-38721789D01*
X39994314Y-38809390D01*
X39994327Y-38809397D01*
X40111667Y-38858000D01*
X40140003Y-38869737D01*
X40282663Y-38898114D01*
X40294653Y-38900499D01*
X40294656Y-38900500D01*
X40294658Y-38900500D01*
X40452344Y-38900500D01*
X40452345Y-38900499D01*
X40606997Y-38869737D01*
X40752679Y-38809394D01*
X40883789Y-38721789D01*
X40995289Y-38610289D01*
X41082894Y-38479179D01*
X41143237Y-38333497D01*
X41174000Y-38178842D01*
X41174000Y-38021158D01*
X41174000Y-38021155D01*
X41173999Y-38021153D01*
X41161170Y-37956660D01*
X41143237Y-37866503D01*
X41122087Y-37815441D01*
X41082897Y-37720827D01*
X41082890Y-37720814D01*
X40995289Y-37589711D01*
X40995286Y-37589707D01*
X40883792Y-37478213D01*
X40883788Y-37478210D01*
X40752685Y-37390609D01*
X40752672Y-37390602D01*
X40608314Y-37330808D01*
X40568085Y-37303928D01*
X40179319Y-36915162D01*
X40145834Y-36853839D01*
X40143000Y-36827481D01*
X40143000Y-35911646D01*
X40162685Y-35844607D01*
X40215489Y-35798852D01*
X40284647Y-35788908D01*
X40342485Y-35813270D01*
X40411988Y-35866602D01*
X40529696Y-35956924D01*
X40756799Y-36088041D01*
X40756809Y-36088046D01*
X40999071Y-36188394D01*
X40999081Y-36188398D01*
X41252384Y-36256270D01*
X41512380Y-36290500D01*
X41512387Y-36290500D01*
X41774613Y-36290500D01*
X41774620Y-36290500D01*
X42034616Y-36256270D01*
X42287919Y-36188398D01*
X42530197Y-36088043D01*
X42757303Y-35956924D01*
X42965351Y-35797282D01*
X42965355Y-35797277D01*
X42965360Y-35797274D01*
X43150774Y-35611860D01*
X43150777Y-35611855D01*
X43150782Y-35611851D01*
X43310424Y-35403803D01*
X43441543Y-35176697D01*
X43448038Y-35161018D01*
X43477778Y-35089219D01*
X43541898Y-34934419D01*
X43609770Y-34681116D01*
X43644000Y-34421120D01*
X43644000Y-34158880D01*
X43609770Y-33898884D01*
X43541898Y-33645581D01*
X43526493Y-33608390D01*
X43441546Y-33403309D01*
X43441541Y-33403299D01*
X43310424Y-33176196D01*
X43150781Y-32968148D01*
X43150774Y-32968140D01*
X42965360Y-32782726D01*
X42965351Y-32782718D01*
X42757303Y-32623075D01*
X42530200Y-32491958D01*
X42530190Y-32491953D01*
X42287928Y-32391605D01*
X42287921Y-32391603D01*
X42287919Y-32391602D01*
X42034616Y-32323730D01*
X41976839Y-32316123D01*
X41774627Y-32289500D01*
X41774620Y-32289500D01*
X41512380Y-32289500D01*
X41512372Y-32289500D01*
X41281272Y-32319926D01*
X41252384Y-32323730D01*
X41054543Y-32376741D01*
X40999081Y-32391602D01*
X40999071Y-32391605D01*
X40756809Y-32491953D01*
X40756799Y-32491958D01*
X40529702Y-32623072D01*
X40506571Y-32640821D01*
X40342485Y-32766729D01*
X40277318Y-32791923D01*
X40208873Y-32777885D01*
X40158883Y-32729071D01*
X40143000Y-32668353D01*
X40143000Y-32260518D01*
X40162685Y-32193479D01*
X40179315Y-32172841D01*
X40568086Y-31784069D01*
X40608310Y-31757192D01*
X40662935Y-31734566D01*
X40752673Y-31697397D01*
X40752676Y-31697395D01*
X40752679Y-31697394D01*
X40883789Y-31609789D01*
X40995289Y-31498289D01*
X41082894Y-31367179D01*
X41143237Y-31221497D01*
X41174000Y-31066842D01*
X41174000Y-30909158D01*
X41174000Y-30909155D01*
X41173999Y-30909153D01*
X41159484Y-30836184D01*
X41143237Y-30754503D01*
X41085775Y-30615776D01*
X41082897Y-30608827D01*
X41082890Y-30608814D01*
X40995289Y-30477711D01*
X40995286Y-30477707D01*
X40883792Y-30366213D01*
X40883788Y-30366210D01*
X40752685Y-30278609D01*
X40752672Y-30278602D01*
X40607001Y-30218264D01*
X40606989Y-30218261D01*
X40452345Y-30187500D01*
X40452342Y-30187500D01*
X40294658Y-30187500D01*
X40294655Y-30187500D01*
X40140010Y-30218261D01*
X40139998Y-30218264D01*
X39994327Y-30278602D01*
X39994314Y-30278609D01*
X39863211Y-30366210D01*
X39863207Y-30366213D01*
X39751713Y-30477707D01*
X39751710Y-30477711D01*
X39664109Y-30608814D01*
X39664104Y-30608823D01*
X39604309Y-30753184D01*
X39599676Y-30760116D01*
X39598580Y-30765158D01*
X39577429Y-30793412D01*
X39521286Y-30849555D01*
X39459963Y-30883040D01*
X39390271Y-30878056D01*
X39334338Y-30836184D01*
X39309921Y-30770720D01*
X39311132Y-30742476D01*
X39334000Y-30598097D01*
X39334000Y-30361902D01*
X39297053Y-30128631D01*
X39263189Y-30024412D01*
X39224068Y-29904008D01*
X39224066Y-29904005D01*
X39224066Y-29904003D01*
X39135316Y-29729823D01*
X39116843Y-29693567D01*
X38978017Y-29502490D01*
X38811010Y-29335483D01*
X38776372Y-29310317D01*
X38733707Y-29254989D01*
X38727728Y-29185375D01*
X38760333Y-29123580D01*
X38776373Y-29109682D01*
X38784169Y-29104018D01*
X38811010Y-29084517D01*
X38978017Y-28917510D01*
X39116843Y-28726433D01*
X39224068Y-28515992D01*
X39297053Y-28291368D01*
X39305556Y-28237682D01*
X39334000Y-28058097D01*
X39334000Y-27821902D01*
X39297053Y-27588631D01*
X39231014Y-27385386D01*
X39224068Y-27364008D01*
X39224066Y-27364005D01*
X39224066Y-27364003D01*
X39160227Y-27238713D01*
X39116843Y-27153567D01*
X38978017Y-26962490D01*
X38811010Y-26795483D01*
X38751782Y-26752451D01*
X38709117Y-26697122D01*
X38701050Y-26642404D01*
X38702604Y-26622657D01*
X37962908Y-25882962D01*
X38026493Y-25865925D01*
X38140507Y-25800099D01*
X38233599Y-25707007D01*
X38299425Y-25592993D01*
X38316462Y-25529408D01*
X39056158Y-26269105D01*
X39056158Y-26269104D01*
X39116414Y-26186169D01*
X39116418Y-26186163D01*
X39223602Y-25975802D01*
X39296565Y-25751247D01*
X39333500Y-25518052D01*
X39333500Y-25281947D01*
X39328635Y-25251232D01*
X39326061Y-25234983D01*
X42619000Y-25234983D01*
X42619000Y-26835001D01*
X42619001Y-26835018D01*
X42629500Y-26937796D01*
X42629501Y-26937799D01*
X42684685Y-27104331D01*
X42684687Y-27104336D01*
X42705478Y-27138043D01*
X42776788Y-27253656D01*
X42900844Y-27377712D01*
X43050166Y-27469814D01*
X43216703Y-27524999D01*
X43319491Y-27535500D01*
X44619508Y-27535499D01*
X44722297Y-27524999D01*
X44888834Y-27469814D01*
X45038156Y-27377712D01*
X45162212Y-27253656D01*
X45254314Y-27104334D01*
X45254314Y-27104331D01*
X45257678Y-27098879D01*
X45309626Y-27052154D01*
X45378588Y-27040931D01*
X45442670Y-27068774D01*
X45450898Y-27076294D01*
X45589708Y-27215104D01*
X45617884Y-27235575D01*
X45660550Y-27290902D01*
X45669000Y-27335893D01*
X45669000Y-35266962D01*
X45649315Y-35334001D01*
X45596511Y-35379756D01*
X45527353Y-35389700D01*
X45488710Y-35377449D01*
X45476535Y-35371246D01*
X45281917Y-35308009D01*
X45079817Y-35276000D01*
X44875183Y-35276000D01*
X44673082Y-35308009D01*
X44478468Y-35371244D01*
X44296144Y-35464143D01*
X44251577Y-35496523D01*
X44251577Y-35496524D01*
X44931053Y-36176000D01*
X44924839Y-36176000D01*
X44823106Y-36203259D01*
X44731894Y-36255920D01*
X44657420Y-36330394D01*
X44604759Y-36421606D01*
X44577500Y-36523339D01*
X44577500Y-36529553D01*
X43898024Y-35850077D01*
X43898023Y-35850077D01*
X43865643Y-35894644D01*
X43772744Y-36076968D01*
X43709509Y-36271582D01*
X43677500Y-36473682D01*
X43677500Y-36678317D01*
X43709509Y-36880417D01*
X43772744Y-37075031D01*
X43865641Y-37257350D01*
X43865647Y-37257359D01*
X43898023Y-37301921D01*
X43898024Y-37301922D01*
X44577500Y-36622446D01*
X44577500Y-36628661D01*
X44604759Y-36730394D01*
X44657420Y-36821606D01*
X44731894Y-36896080D01*
X44823106Y-36948741D01*
X44924839Y-36976000D01*
X44931052Y-36976000D01*
X44251576Y-37655474D01*
X44296150Y-37687859D01*
X44478468Y-37780755D01*
X44673082Y-37843990D01*
X44875183Y-37876000D01*
X45079817Y-37876000D01*
X45281917Y-37843990D01*
X45474681Y-37781356D01*
X45544522Y-37779361D01*
X45604355Y-37815441D01*
X45635184Y-37878141D01*
X45637000Y-37899287D01*
X45637000Y-40940846D01*
X45667761Y-41095489D01*
X45667764Y-41095501D01*
X45728102Y-41241172D01*
X45728109Y-41241185D01*
X45815710Y-41372288D01*
X45815713Y-41372292D01*
X46911398Y-42467976D01*
X46944883Y-42529299D01*
X46947335Y-42565377D01*
X46947000Y-42569637D01*
X46947000Y-42774351D01*
X46979022Y-42976534D01*
X47042281Y-43171223D01*
X47104731Y-43293786D01*
X47135085Y-43353359D01*
X47135215Y-43353613D01*
X47255528Y-43519213D01*
X47400286Y-43663971D01*
X47520726Y-43751474D01*
X47565890Y-43784287D01*
X47682107Y-43843503D01*
X47748276Y-43877218D01*
X47748278Y-43877218D01*
X47748281Y-43877220D01*
X47822244Y-43901252D01*
X47942965Y-43940477D01*
X48017650Y-43952306D01*
X48145148Y-43972500D01*
X48145149Y-43972500D01*
X48349851Y-43972500D01*
X48349852Y-43972500D01*
X48552034Y-43940477D01*
X48746719Y-43877220D01*
X48929110Y-43784287D01*
X49092063Y-43665896D01*
X49094713Y-43663971D01*
X49094715Y-43663968D01*
X49094719Y-43663966D01*
X49239466Y-43519219D01*
X49239468Y-43519215D01*
X49239471Y-43519213D01*
X49293491Y-43444860D01*
X49359787Y-43353610D01*
X49452720Y-43171219D01*
X49515977Y-42976534D01*
X49548000Y-42774352D01*
X49548000Y-42569648D01*
X49541609Y-42529299D01*
X49515977Y-42367465D01*
X49462372Y-42202487D01*
X49452720Y-42172781D01*
X49452718Y-42172778D01*
X49452718Y-42172776D01*
X49390267Y-42050211D01*
X49359787Y-41990390D01*
X49352056Y-41979749D01*
X49239471Y-41824786D01*
X49094713Y-41680028D01*
X48929113Y-41559715D01*
X48929112Y-41559714D01*
X48929110Y-41559713D01*
X48856574Y-41522754D01*
X48746723Y-41466781D01*
X48552034Y-41403522D01*
X48354833Y-41372289D01*
X48349852Y-41371500D01*
X48145148Y-41371500D01*
X48145138Y-41371500D01*
X48140877Y-41371835D01*
X48072501Y-41357466D01*
X48043476Y-41335898D01*
X47274319Y-40566741D01*
X47240834Y-40505418D01*
X47238000Y-40479060D01*
X47238000Y-38000499D01*
X47257685Y-37933460D01*
X47310489Y-37887705D01*
X47362000Y-37876499D01*
X47577502Y-37876499D01*
X47577508Y-37876499D01*
X47664399Y-37867623D01*
X47733091Y-37880393D01*
X47783976Y-37928274D01*
X47801000Y-37990981D01*
X47801000Y-39706684D01*
X47791561Y-39754136D01*
X47731764Y-39898498D01*
X47731761Y-39898510D01*
X47701000Y-40053153D01*
X47701000Y-40210846D01*
X47731761Y-40365489D01*
X47731764Y-40365501D01*
X47792102Y-40511172D01*
X47792109Y-40511185D01*
X47879710Y-40642288D01*
X47879713Y-40642292D01*
X47991207Y-40753786D01*
X47991211Y-40753789D01*
X48122314Y-40841390D01*
X48122327Y-40841397D01*
X48220877Y-40882217D01*
X48268003Y-40901737D01*
X48422653Y-40932499D01*
X48422656Y-40932500D01*
X48422658Y-40932500D01*
X48580344Y-40932500D01*
X48580345Y-40932499D01*
X48734997Y-40901737D01*
X48880679Y-40841394D01*
X49011789Y-40753789D01*
X49123289Y-40642289D01*
X49210894Y-40511179D01*
X49271237Y-40365497D01*
X49302000Y-40210842D01*
X49302000Y-40053158D01*
X49302000Y-40053155D01*
X49301999Y-40053153D01*
X49295049Y-40018213D01*
X49271237Y-39898503D01*
X49252624Y-39853566D01*
X49211439Y-39754136D01*
X49202000Y-39706684D01*
X49202000Y-33445316D01*
X49211439Y-33397864D01*
X49271235Y-33253501D01*
X49271237Y-33253497D01*
X49302000Y-33098842D01*
X49302000Y-32941158D01*
X49302000Y-32941155D01*
X49301999Y-32941153D01*
X49271238Y-32786510D01*
X49271237Y-32786503D01*
X49267667Y-32777885D01*
X49210897Y-32640827D01*
X49210890Y-32640814D01*
X49123289Y-32509711D01*
X49123286Y-32509707D01*
X49011792Y-32398213D01*
X49011788Y-32398210D01*
X48880685Y-32310609D01*
X48880672Y-32310602D01*
X48735001Y-32250264D01*
X48734989Y-32250261D01*
X48580345Y-32219500D01*
X48580342Y-32219500D01*
X48422658Y-32219500D01*
X48422655Y-32219500D01*
X48268010Y-32250261D01*
X48267998Y-32250264D01*
X48122327Y-32310602D01*
X48122314Y-32310609D01*
X47991211Y-32398210D01*
X47991207Y-32398213D01*
X47879713Y-32509707D01*
X47879710Y-32509711D01*
X47792109Y-32640814D01*
X47792102Y-32640827D01*
X47731764Y-32786498D01*
X47731761Y-32786510D01*
X47701000Y-32941153D01*
X47701000Y-33098846D01*
X47731761Y-33253489D01*
X47731764Y-33253501D01*
X47791561Y-33397864D01*
X47801000Y-33445316D01*
X47801000Y-35161018D01*
X47781315Y-35228057D01*
X47728511Y-35273812D01*
X47664398Y-35284376D01*
X47577518Y-35275500D01*
X47577509Y-35275500D01*
X47394000Y-35275500D01*
X47326961Y-35255815D01*
X47281206Y-35203011D01*
X47270000Y-35151500D01*
X47270000Y-27335893D01*
X47289685Y-27268854D01*
X47321114Y-27235576D01*
X47349292Y-27215104D01*
X47499604Y-27064792D01*
X47499606Y-27064788D01*
X47499609Y-27064786D01*
X47624548Y-26892820D01*
X47624547Y-26892820D01*
X47624551Y-26892816D01*
X47721057Y-26703412D01*
X47786746Y-26501243D01*
X47820000Y-26291287D01*
X47820000Y-25778713D01*
X47786746Y-25568757D01*
X47721057Y-25366588D01*
X47624551Y-25177184D01*
X47624549Y-25177181D01*
X47624548Y-25177179D01*
X47499609Y-25005213D01*
X47349286Y-24854890D01*
X47177320Y-24729951D01*
X46987914Y-24633444D01*
X46987913Y-24633443D01*
X46987912Y-24633443D01*
X46785743Y-24567754D01*
X46785741Y-24567753D01*
X46785740Y-24567753D01*
X46624457Y-24542208D01*
X46575787Y-24534500D01*
X46363213Y-24534500D01*
X46314542Y-24542208D01*
X46153260Y-24567753D01*
X46153257Y-24567754D01*
X46011457Y-24613828D01*
X45951085Y-24633444D01*
X45761679Y-24729951D01*
X45589715Y-24854889D01*
X45450898Y-24993706D01*
X45389575Y-25027190D01*
X45319883Y-25022206D01*
X45263950Y-24980334D01*
X45257678Y-24971120D01*
X45162212Y-24816344D01*
X45038157Y-24692289D01*
X45038156Y-24692288D01*
X44910955Y-24613830D01*
X44888836Y-24600187D01*
X44888831Y-24600185D01*
X44887362Y-24599698D01*
X44722297Y-24545001D01*
X44722295Y-24545000D01*
X44619510Y-24534500D01*
X43319498Y-24534500D01*
X43319481Y-24534501D01*
X43216703Y-24545000D01*
X43216700Y-24545001D01*
X43050168Y-24600185D01*
X43050163Y-24600187D01*
X42900842Y-24692289D01*
X42776789Y-24816342D01*
X42684687Y-24965663D01*
X42684685Y-24965668D01*
X42671583Y-25005208D01*
X42629501Y-25132203D01*
X42629501Y-25132204D01*
X42629500Y-25132204D01*
X42619000Y-25234983D01*
X39326061Y-25234983D01*
X39296565Y-25048752D01*
X39223602Y-24824197D01*
X39116414Y-24613828D01*
X39056158Y-24530894D01*
X39056158Y-24530893D01*
X38316462Y-25270590D01*
X38299425Y-25207007D01*
X38233599Y-25092993D01*
X38140507Y-24999901D01*
X38026493Y-24934075D01*
X37962909Y-24917037D01*
X38702605Y-24177340D01*
X38702604Y-24177338D01*
X38619674Y-24117087D01*
X38409302Y-24009897D01*
X38184747Y-23936934D01*
X38184748Y-23936934D01*
X37951552Y-23900000D01*
X37715448Y-23900000D01*
X37482252Y-23936934D01*
X37257697Y-24009897D01*
X37047330Y-24117084D01*
X36964394Y-24177340D01*
X37704091Y-24917037D01*
X37640507Y-24934075D01*
X37526493Y-24999901D01*
X37433401Y-25092993D01*
X37367575Y-25207007D01*
X37350537Y-25270591D01*
X36610840Y-24530894D01*
X36550584Y-24613830D01*
X36443397Y-24824197D01*
X36370434Y-25048752D01*
X36333500Y-25281947D01*
X36333500Y-25518052D01*
X36370434Y-25751247D01*
X36443397Y-25975802D01*
X36550587Y-26186174D01*
X36610838Y-26269104D01*
X36610840Y-26269105D01*
X37350537Y-25529408D01*
X37367575Y-25592993D01*
X37433401Y-25707007D01*
X37526493Y-25800099D01*
X37640507Y-25865925D01*
X37704090Y-25882962D01*
X36964393Y-26622658D01*
X36965948Y-26642405D01*
X36951584Y-26710783D01*
X36915217Y-26752451D01*
X36855990Y-26795482D01*
X36688985Y-26962487D01*
X36688985Y-26962488D01*
X36688983Y-26962490D01*
X36656700Y-27006924D01*
X36550157Y-27153566D01*
X36442933Y-27364003D01*
X36369946Y-27588631D01*
X36333000Y-27821902D01*
X26015000Y-27821902D01*
X26015000Y-24849490D01*
X26015325Y-24840519D01*
X26017079Y-24816342D01*
X26030048Y-24637553D01*
X26032632Y-24619828D01*
X26075527Y-24425488D01*
X26080645Y-24408315D01*
X26151131Y-24222218D01*
X26158678Y-24205954D01*
X26255284Y-24031976D01*
X26265097Y-24016976D01*
X26385800Y-23858761D01*
X26397679Y-23845329D01*
X26539955Y-23706186D01*
X26553637Y-23694618D01*
X26714512Y-23577462D01*
X26729718Y-23567992D01*
X26905810Y-23475281D01*
X26922237Y-23468099D01*
X27065487Y-23417461D01*
X27109847Y-23401780D01*
X27127151Y-23397039D01*
X27128271Y-23396818D01*
X27300289Y-23362849D01*
X27324312Y-23360500D01*
X55363581Y-23360500D01*
X55430620Y-23380185D01*
G37*
%TD.AperFunction*%
%TD*%
M02*
