%TF.GenerationSoftware,KiCad,Pcbnew,9.0.6*%
%TF.CreationDate,2025-11-20T15:50:17-08:00*%
%TF.ProjectId,schematic,73636865-6d61-4746-9963-2e6b69636164,rev?*%
%TF.SameCoordinates,Original*%
%TF.FileFunction,Copper,L1,Top*%
%TF.FilePolarity,Positive*%
%FSLAX46Y46*%
G04 Gerber Fmt 4.6, Leading zero omitted, Abs format (unit mm)*
G04 Created by KiCad (PCBNEW 9.0.6) date 2025-11-20 15:50:17*
%MOMM*%
%LPD*%
G01*
G04 APERTURE LIST*
G04 Aperture macros list*
%AMRoundRect*
0 Rectangle with rounded corners*
0 $1 Rounding radius*
0 $2 $3 $4 $5 $6 $7 $8 $9 X,Y pos of 4 corners*
0 Add a 4 corners polygon primitive as box body*
4,1,4,$2,$3,$4,$5,$6,$7,$8,$9,$2,$3,0*
0 Add four circle primitives for the rounded corners*
1,1,$1+$1,$2,$3*
1,1,$1+$1,$4,$5*
1,1,$1+$1,$6,$7*
1,1,$1+$1,$8,$9*
0 Add four rect primitives between the rounded corners*
20,1,$1+$1,$2,$3,$4,$5,0*
20,1,$1+$1,$4,$5,$6,$7,0*
20,1,$1+$1,$6,$7,$8,$9,0*
20,1,$1+$1,$8,$9,$2,$3,0*%
G04 Aperture macros list end*
%TA.AperFunction,ComponentPad*%
%ADD10O,1.950000X1.700000*%
%TD*%
%TA.AperFunction,ComponentPad*%
%ADD11RoundRect,0.250000X-0.725000X0.600000X-0.725000X-0.600000X0.725000X-0.600000X0.725000X0.600000X0*%
%TD*%
%TA.AperFunction,SMDPad,CuDef*%
%ADD12C,4.000000*%
%TD*%
%TA.AperFunction,ComponentPad*%
%ADD13C,2.000000*%
%TD*%
%TA.AperFunction,ComponentPad*%
%ADD14RoundRect,0.250000X0.550000X0.550000X-0.550000X0.550000X-0.550000X-0.550000X0.550000X-0.550000X0*%
%TD*%
%TA.AperFunction,ComponentPad*%
%ADD15C,1.600000*%
%TD*%
%TA.AperFunction,SMDPad,CuDef*%
%ADD16RoundRect,0.250000X1.635000X0.650000X-1.635000X0.650000X-1.635000X-0.650000X1.635000X-0.650000X0*%
%TD*%
%TA.AperFunction,ComponentPad*%
%ADD17O,1.700000X2.000000*%
%TD*%
%TA.AperFunction,ComponentPad*%
%ADD18RoundRect,0.250000X-0.600000X-0.750000X0.600000X-0.750000X0.600000X0.750000X-0.600000X0.750000X0*%
%TD*%
%TA.AperFunction,ComponentPad*%
%ADD19R,1.050000X1.500000*%
%TD*%
%TA.AperFunction,ComponentPad*%
%ADD20O,1.050000X1.500000*%
%TD*%
%TA.AperFunction,SMDPad,CuDef*%
%ADD21RoundRect,0.150000X-0.150000X0.587500X-0.150000X-0.587500X0.150000X-0.587500X0.150000X0.587500X0*%
%TD*%
%TA.AperFunction,ComponentPad*%
%ADD22R,1.700000X1.700000*%
%TD*%
%TA.AperFunction,ComponentPad*%
%ADD23C,1.700000*%
%TD*%
%TA.AperFunction,ViaPad*%
%ADD24C,0.600000*%
%TD*%
%TA.AperFunction,Conductor*%
%ADD25C,0.600000*%
%TD*%
%TA.AperFunction,Conductor*%
%ADD26C,0.400000*%
%TD*%
G04 APERTURE END LIST*
D10*
%TO.P,U2,3,OUT*%
%TO.N,MIC*%
X114750000Y-53000000D03*
%TO.P,U2,2,GND*%
%TO.N,GND*%
X114750000Y-50500000D03*
D11*
%TO.P,U2,1,VCC*%
%TO.N,Net-(U2-VCC)*%
X114750000Y-48000000D03*
%TD*%
D12*
%TO.P,J1,*%
%TO.N,*%
X40069000Y-52450000D03*
X40069000Y-36450000D03*
D13*
%TO.P,J1,A1,GND*%
%TO.N,GND*%
X49784000Y-35560000D03*
%TO.P,J1,A4,VBUS*%
%TO.N,Net-(J2-Pin_1)*%
X49784000Y-38100000D03*
%TO.P,J1,A5,CC1*%
%TO.N,CC1*%
X49784000Y-43180000D03*
%TO.P,J1,A6,D+*%
%TO.N,unconnected-(J1-D+-PadA6)*%
X49784000Y-48260000D03*
%TO.P,J1,A7,D-*%
%TO.N,unconnected-(J1-D--PadA7)*%
X49784000Y-45720000D03*
%TO.P,J1,A8,SBU1*%
%TO.N,unconnected-(J1-SBU1-PadA8)*%
X49784000Y-50800000D03*
%TO.P,J1,B5,CC2*%
%TO.N,CC2*%
X49784000Y-53340000D03*
%TO.P,J1,B8,SBU2*%
%TO.N,unconnected-(J1-SBU2-PadB8)*%
X49784000Y-40640000D03*
%TD*%
D14*
%TO.P,C1,1*%
%TO.N,+5V*%
X58388000Y-47752000D03*
D15*
%TO.P,C1,2*%
%TO.N,GND*%
X56388000Y-47752000D03*
%TD*%
%TO.P,C2,1*%
%TO.N,+5V*%
X60198000Y-52832000D03*
%TO.P,C2,2*%
%TO.N,GND*%
X55198000Y-52832000D03*
%TD*%
D16*
%TO.P,U1,16,D21*%
%TO.N,unconnected-(U1-D21-Pad16)*%
X81388081Y-35700122D03*
%TO.P,U1,15,D20*%
%TO.N,unconnected-(U1-D20-Pad15)*%
X81388081Y-38240122D03*
%TO.P,U1,14,D10*%
%TO.N,unconnected-(U1-D10-Pad14)*%
X81388081Y-40780122D03*
%TO.P,U1,13,D9*%
%TO.N,unconnected-(U1-D9-Pad13)*%
X81388081Y-43320122D03*
%TO.P,U1,12,D8*%
%TO.N,unconnected-(U1-D8-Pad12)*%
X81388081Y-45860122D03*
%TO.P,U1,11,D7*%
%TO.N,unconnected-(U1-D7-Pad11)*%
X81388081Y-48400122D03*
%TO.P,U1,10,D6*%
%TO.N,unconnected-(U1-D6-Pad10)*%
X81388081Y-50940122D03*
%TO.P,U1,9,D5*%
%TO.N,unconnected-(U1-D5-Pad9)*%
X81388081Y-53480122D03*
%TO.P,U1,8,D0*%
%TO.N,MIC*%
X63608081Y-35700122D03*
%TO.P,U1,7,D1*%
%TO.N,LED D*%
X63608081Y-38240122D03*
%TO.P,U1,6,D2*%
%TO.N,CC1*%
X63608081Y-40780122D03*
%TO.P,U1,5,D3*%
%TO.N,CC2*%
X63608081Y-43320122D03*
%TO.P,U1,4,D4*%
%TO.N,LED SW*%
X63608081Y-45860122D03*
%TO.P,U1,3,3V3*%
%TO.N,unconnected-(U1-3V3-Pad3)*%
X63608081Y-48400122D03*
%TO.P,U1,2,GND*%
%TO.N,GND*%
X63608081Y-50940122D03*
%TO.P,U1,1,5V*%
%TO.N,+5V*%
X63608081Y-53480122D03*
%TD*%
D17*
%TO.P,J2,2,Pin_2*%
%TO.N,+5V*%
X58420000Y-36195000D03*
D18*
%TO.P,J2,1,Pin_1*%
%TO.N,Net-(J2-Pin_1)*%
X55920000Y-36195000D03*
%TD*%
D15*
%TO.P,C4,2*%
%TO.N,+5VD*%
X104500000Y-38500000D03*
%TO.P,C4,1*%
%TO.N,GND*%
X109500000Y-38500000D03*
%TD*%
%TO.P,R3,1*%
%TO.N,LED SW*%
X86106000Y-44378188D03*
%TO.P,R3,2*%
%TO.N,Net-(Q2-B)*%
X93726000Y-44378188D03*
%TD*%
%TO.P,R1,1*%
%TO.N,+5V*%
X86106000Y-47625000D03*
%TO.P,R1,2*%
%TO.N,Net-(Q1-G)*%
X93726000Y-47625000D03*
%TD*%
D19*
%TO.P,Q2,1,E*%
%TO.N,GND*%
X92752813Y-52176000D03*
D20*
%TO.P,Q2,2,B*%
%TO.N,Net-(Q2-B)*%
X94022813Y-52176000D03*
%TO.P,Q2,3,C*%
%TO.N,Net-(Q1-G)*%
X95292813Y-52176000D03*
%TD*%
D21*
%TO.P,Q1,1,G*%
%TO.N,Net-(Q1-G)*%
X88260000Y-50830000D03*
%TO.P,Q1,2,S*%
%TO.N,+5V*%
X86360000Y-50830000D03*
%TO.P,Q1,3,D*%
%TO.N,+5VD*%
X87310000Y-52705000D03*
%TD*%
D14*
%TO.P,C3,1*%
%TO.N,+5VD*%
X99250000Y-38750000D03*
D15*
%TO.P,C3,2*%
%TO.N,GND*%
X95750000Y-38750000D03*
%TD*%
%TO.P,C5,1*%
%TO.N,Net-(U2-VCC)*%
X109500000Y-44750000D03*
%TO.P,C5,2*%
%TO.N,GND*%
X104500000Y-44750000D03*
%TD*%
D22*
%TO.P,U5,1,GND*%
%TO.N,GND*%
X115697000Y-34965000D03*
D23*
%TO.P,U5,2,DIN*%
%TO.N,Net-(U5-DIN)*%
X115697000Y-37505000D03*
%TO.P,U5,3,VDD*%
%TO.N,+5VD*%
X115697000Y-40045000D03*
%TD*%
D22*
%TO.P,U6,1,ADJ*%
%TO.N,GND*%
X107950000Y-48768000D03*
D23*
%TO.P,U6,2,VO*%
%TO.N,Net-(U2-VCC)*%
X107950000Y-51308000D03*
%TO.P,U6,3,VI*%
%TO.N,+5V*%
X107950000Y-53848000D03*
%TD*%
D15*
%TO.P,R2,1*%
%TO.N,LED D*%
X103124000Y-35092000D03*
%TO.P,R2,2*%
%TO.N,Net-(U5-DIN)*%
X110744000Y-35092000D03*
%TD*%
D24*
%TO.N,Net-(Q2-B)*%
X96520000Y-46736000D03*
%TO.N,+5V*%
X75946000Y-51562000D03*
%TO.N,LED D*%
X78105000Y-34290000D03*
X73660000Y-38100000D03*
%TO.N,LED SW*%
X75946000Y-44450000D03*
%TD*%
D25*
%TO.N,+5VD*%
X107181000Y-40045000D02*
X115697000Y-40045000D01*
X104250000Y-38750000D02*
X104500000Y-38500000D01*
X105636000Y-38500000D02*
X107181000Y-40045000D01*
X99250000Y-38750000D02*
X104250000Y-38750000D01*
X104500000Y-38500000D02*
X105636000Y-38500000D01*
X91750000Y-42250000D02*
X95750000Y-42250000D01*
X91750000Y-44500000D02*
X91750000Y-42250000D01*
X95750000Y-42250000D02*
X99250000Y-38750000D01*
X87310000Y-48940000D02*
X91750000Y-44500000D01*
X87310000Y-52705000D02*
X87310000Y-48940000D01*
D26*
%TO.N,Net-(U2-VCC)*%
X114450000Y-48300000D02*
X114750000Y-48000000D01*
X111085000Y-48300000D02*
X114450000Y-48300000D01*
%TO.N,MIC*%
X115250000Y-53500000D02*
X114750000Y-53000000D01*
X115250000Y-53620000D02*
X115250000Y-53500000D01*
X113661000Y-55209000D02*
X115250000Y-53620000D01*
X79572536Y-55209000D02*
X113661000Y-55209000D01*
X78740000Y-54376464D02*
X79572536Y-55209000D01*
X78740000Y-41760464D02*
X78740000Y-54376464D01*
X73114739Y-36135203D02*
X78740000Y-41760464D01*
X62993081Y-35700122D02*
X73114739Y-35700122D01*
%TO.N,Net-(U2-VCC)*%
X110109000Y-49276000D02*
X111085000Y-48300000D01*
%TO.N,MIC*%
X73114739Y-35700122D02*
X73114739Y-36135203D01*
%TO.N,Net-(U2-VCC)*%
X110109000Y-45359000D02*
X109500000Y-44750000D01*
X110109000Y-49276000D02*
X110109000Y-45359000D01*
%TO.N,LED D*%
X102322000Y-34290000D02*
X103124000Y-35092000D01*
X78105000Y-34290000D02*
X102322000Y-34290000D01*
%TO.N,Net-(Q2-B)*%
X96520000Y-46736000D02*
X93726000Y-45466000D01*
X93726000Y-45466000D02*
X93726000Y-44378188D01*
D25*
%TO.N,+5V*%
X107950000Y-53975000D02*
X107950000Y-53848000D01*
X86966000Y-54581000D02*
X107344000Y-54581000D01*
X86360000Y-50830000D02*
X86360000Y-53975000D01*
D26*
%TO.N,Net-(U2-VCC)*%
X107950000Y-51308000D02*
X108077000Y-51308000D01*
D25*
%TO.N,+5V*%
X86360000Y-53975000D02*
X86966000Y-54581000D01*
D26*
%TO.N,Net-(U2-VCC)*%
X108077000Y-51308000D02*
X110109000Y-49276000D01*
D25*
%TO.N,+5V*%
X107344000Y-54581000D02*
X107950000Y-53975000D01*
D26*
%TO.N,Net-(Q1-G)*%
X91465000Y-47625000D02*
X93726000Y-47625000D01*
X88260000Y-50830000D02*
X91465000Y-47625000D01*
D25*
%TO.N,+5V*%
X86106000Y-48768000D02*
X86360000Y-49022000D01*
X86360000Y-49022000D02*
X86360000Y-50830000D01*
X86106000Y-47625000D02*
X86106000Y-48768000D01*
D26*
%TO.N,Net-(Q1-G)*%
X95292813Y-49191813D02*
X95292813Y-52176000D01*
X93726000Y-47625000D02*
X95292813Y-49191813D01*
D25*
%TO.N,+5V*%
X74027878Y-53480122D02*
X75946000Y-51562000D01*
X62993081Y-53480122D02*
X74027878Y-53480122D01*
D26*
%TO.N,LED SW*%
X74535878Y-45860122D02*
X75946000Y-44450000D01*
X62993081Y-45860122D02*
X74535878Y-45860122D01*
%TO.N,CC2*%
X59224645Y-43320122D02*
X62993081Y-43320122D01*
X49784000Y-52760767D02*
X59224645Y-43320122D01*
X49784000Y-53340000D02*
X49784000Y-52760767D01*
%TO.N,Net-(U5-DIN)*%
X113284000Y-35092000D02*
X110744000Y-35092000D01*
X115697000Y-37505000D02*
X113284000Y-35092000D01*
%TO.N,LED D*%
X73519878Y-38240122D02*
X73660000Y-38100000D01*
X62993081Y-38240122D02*
X73519878Y-38240122D01*
%TO.N,CC1*%
X52183878Y-40780122D02*
X62993081Y-40780122D01*
X49784000Y-43180000D02*
X52183878Y-40780122D01*
D25*
%TO.N,+5V*%
X62344959Y-52832000D02*
X62993081Y-53480122D01*
X60198000Y-52832000D02*
X62344959Y-52832000D01*
%TO.N,Net-(J2-Pin_1)*%
X51689000Y-36195000D02*
X55920000Y-36195000D01*
X49784000Y-38100000D02*
X51689000Y-36195000D01*
%TO.N,+5VD*%
X87310000Y-52705000D02*
X87334000Y-52681000D01*
%TD*%
%TA.AperFunction,Conductor*%
%TO.N,GND*%
G36*
X77510098Y-33540185D02*
G01*
X77555853Y-33592989D01*
X77565797Y-33662147D01*
X77536772Y-33725703D01*
X77530740Y-33732181D01*
X77483213Y-33779707D01*
X77483210Y-33779711D01*
X77395609Y-33910814D01*
X77395602Y-33910827D01*
X77335264Y-34056498D01*
X77335261Y-34056510D01*
X77304500Y-34211153D01*
X77304500Y-34368846D01*
X77335261Y-34523489D01*
X77335264Y-34523501D01*
X77395602Y-34669172D01*
X77395609Y-34669185D01*
X77483210Y-34800288D01*
X77483213Y-34800292D01*
X77594707Y-34911786D01*
X77594711Y-34911789D01*
X77725814Y-34999390D01*
X77725827Y-34999397D01*
X77871498Y-35059735D01*
X77871503Y-35059737D01*
X77970104Y-35079350D01*
X78026153Y-35090499D01*
X78026156Y-35090500D01*
X78026158Y-35090500D01*
X78183844Y-35090500D01*
X78183845Y-35090499D01*
X78338497Y-35059737D01*
X78446768Y-35014890D01*
X78482864Y-34999939D01*
X78530316Y-34990500D01*
X78878581Y-34990500D01*
X78945620Y-35010185D01*
X78991375Y-35062989D01*
X79002581Y-35114500D01*
X79002581Y-36400123D01*
X79002582Y-36400140D01*
X79013081Y-36502918D01*
X79013082Y-36502921D01*
X79068266Y-36669453D01*
X79068268Y-36669458D01*
X79160370Y-36818779D01*
X79224032Y-36882441D01*
X79257517Y-36943764D01*
X79252533Y-37013456D01*
X79224032Y-37057803D01*
X79160370Y-37121464D01*
X79068268Y-37270785D01*
X79068266Y-37270790D01*
X79054092Y-37313566D01*
X79013082Y-37437325D01*
X79013082Y-37437326D01*
X79013081Y-37437326D01*
X79002581Y-37540105D01*
X79002581Y-38940123D01*
X79002582Y-38940140D01*
X79013081Y-39042918D01*
X79013082Y-39042921D01*
X79068266Y-39209453D01*
X79068268Y-39209458D01*
X79160370Y-39358779D01*
X79224032Y-39422441D01*
X79257517Y-39483764D01*
X79252533Y-39553456D01*
X79224032Y-39597803D01*
X79160370Y-39661464D01*
X79068268Y-39810785D01*
X79068266Y-39810790D01*
X79062075Y-39829474D01*
X79013082Y-39977325D01*
X79013082Y-39977326D01*
X79013081Y-39977326D01*
X79002581Y-40080105D01*
X79002581Y-40733026D01*
X78982896Y-40800065D01*
X78930092Y-40845820D01*
X78860934Y-40855764D01*
X78797378Y-40826739D01*
X78790900Y-40820707D01*
X73851558Y-35881365D01*
X73818073Y-35820042D01*
X73815239Y-35793684D01*
X73815239Y-35631126D01*
X73788320Y-35495799D01*
X73788319Y-35495798D01*
X73788319Y-35495794D01*
X73787648Y-35494174D01*
X73735517Y-35368317D01*
X73735510Y-35368304D01*
X73658853Y-35253580D01*
X73658850Y-35253576D01*
X73561284Y-35156010D01*
X73561280Y-35156007D01*
X73446556Y-35079350D01*
X73446543Y-35079343D01*
X73319071Y-35026543D01*
X73319061Y-35026540D01*
X73183734Y-34999622D01*
X73183732Y-34999622D01*
X66105244Y-34999622D01*
X66038205Y-34979937D01*
X65992450Y-34927133D01*
X65983992Y-34901581D01*
X65983081Y-34897329D01*
X65980636Y-34889951D01*
X65927895Y-34730788D01*
X65835793Y-34581466D01*
X65711737Y-34457410D01*
X65562415Y-34365308D01*
X65395878Y-34310123D01*
X65395876Y-34310122D01*
X65293091Y-34299622D01*
X61923079Y-34299622D01*
X61923062Y-34299623D01*
X61820284Y-34310122D01*
X61820281Y-34310123D01*
X61653749Y-34365307D01*
X61653744Y-34365309D01*
X61504423Y-34457411D01*
X61380370Y-34581464D01*
X61288268Y-34730785D01*
X61288266Y-34730790D01*
X61278526Y-34760185D01*
X61233082Y-34897325D01*
X61233082Y-34897326D01*
X61233081Y-34897326D01*
X61222581Y-35000105D01*
X61222581Y-36400123D01*
X61222582Y-36400140D01*
X61233081Y-36502918D01*
X61233082Y-36502921D01*
X61288266Y-36669453D01*
X61288268Y-36669458D01*
X61380370Y-36818779D01*
X61444032Y-36882441D01*
X61477517Y-36943764D01*
X61472533Y-37013456D01*
X61444032Y-37057803D01*
X61380370Y-37121464D01*
X61288268Y-37270785D01*
X61288266Y-37270790D01*
X61274092Y-37313566D01*
X61233082Y-37437325D01*
X61233082Y-37437326D01*
X61233081Y-37437326D01*
X61222581Y-37540105D01*
X61222581Y-38940123D01*
X61222582Y-38940140D01*
X61233081Y-39042918D01*
X61233082Y-39042921D01*
X61288266Y-39209453D01*
X61288268Y-39209458D01*
X61380370Y-39358779D01*
X61444032Y-39422441D01*
X61477517Y-39483764D01*
X61472533Y-39553456D01*
X61444032Y-39597803D01*
X61380370Y-39661464D01*
X61288268Y-39810785D01*
X61288266Y-39810790D01*
X61233081Y-39977326D01*
X61232169Y-39981589D01*
X61198882Y-40043020D01*
X61137667Y-40076703D01*
X61110918Y-40079622D01*
X52114882Y-40079622D01*
X51979555Y-40106540D01*
X51979545Y-40106543D01*
X51852070Y-40159344D01*
X51737332Y-40236009D01*
X51737331Y-40236010D01*
X51479409Y-40493933D01*
X51418086Y-40527418D01*
X51348394Y-40522434D01*
X51292461Y-40480562D01*
X51269255Y-40425650D01*
X51247553Y-40288631D01*
X51202926Y-40151286D01*
X51174568Y-40064008D01*
X51174566Y-40064005D01*
X51174566Y-40064003D01*
X51067342Y-39853566D01*
X51049838Y-39829474D01*
X50928517Y-39662490D01*
X50761510Y-39495483D01*
X50726872Y-39470317D01*
X50684207Y-39414989D01*
X50678228Y-39345375D01*
X50710833Y-39283580D01*
X50726873Y-39269682D01*
X50761510Y-39244517D01*
X50928517Y-39077510D01*
X51067343Y-38886433D01*
X51174568Y-38675992D01*
X51247553Y-38451368D01*
X51258098Y-38384792D01*
X51284500Y-38218097D01*
X51284500Y-37981910D01*
X51279367Y-37949500D01*
X51260155Y-37828205D01*
X51269109Y-37758915D01*
X51294944Y-37721132D01*
X51984259Y-37031819D01*
X52045582Y-36998334D01*
X52071940Y-36995500D01*
X54457837Y-36995500D01*
X54524876Y-37015185D01*
X54570631Y-37067989D01*
X54579089Y-37093541D01*
X54579999Y-37097792D01*
X54635185Y-37264331D01*
X54635187Y-37264336D01*
X54655978Y-37298043D01*
X54727288Y-37413656D01*
X54851344Y-37537712D01*
X55000666Y-37629814D01*
X55167203Y-37684999D01*
X55269991Y-37695500D01*
X56570008Y-37695499D01*
X56672797Y-37684999D01*
X56839334Y-37629814D01*
X56988656Y-37537712D01*
X57112712Y-37413656D01*
X57204814Y-37264334D01*
X57204814Y-37264331D01*
X57208178Y-37258879D01*
X57260126Y-37212154D01*
X57329088Y-37200931D01*
X57393170Y-37228774D01*
X57401398Y-37236294D01*
X57540213Y-37375109D01*
X57712179Y-37500048D01*
X57712181Y-37500049D01*
X57712184Y-37500051D01*
X57901588Y-37596557D01*
X58103757Y-37662246D01*
X58313713Y-37695500D01*
X58313714Y-37695500D01*
X58526286Y-37695500D01*
X58526287Y-37695500D01*
X58736243Y-37662246D01*
X58938412Y-37596557D01*
X59127816Y-37500051D01*
X59174313Y-37466269D01*
X59299786Y-37375109D01*
X59299788Y-37375106D01*
X59299792Y-37375104D01*
X59450104Y-37224792D01*
X59450106Y-37224788D01*
X59450109Y-37224786D01*
X59575048Y-37052820D01*
X59575047Y-37052820D01*
X59575051Y-37052816D01*
X59671557Y-36863412D01*
X59737246Y-36661243D01*
X59770500Y-36451287D01*
X59770500Y-35938713D01*
X59737246Y-35728757D01*
X59671557Y-35526588D01*
X59575051Y-35337184D01*
X59575049Y-35337181D01*
X59575048Y-35337179D01*
X59450109Y-35165213D01*
X59299786Y-35014890D01*
X59127820Y-34889951D01*
X58938414Y-34793444D01*
X58938413Y-34793443D01*
X58938412Y-34793443D01*
X58736243Y-34727754D01*
X58736241Y-34727753D01*
X58736240Y-34727753D01*
X58574957Y-34702208D01*
X58526287Y-34694500D01*
X58313713Y-34694500D01*
X58265042Y-34702208D01*
X58103760Y-34727753D01*
X58103757Y-34727754D01*
X57961957Y-34773828D01*
X57901585Y-34793444D01*
X57712179Y-34889951D01*
X57540215Y-35014889D01*
X57401398Y-35153706D01*
X57340075Y-35187190D01*
X57270383Y-35182206D01*
X57214450Y-35140334D01*
X57208178Y-35131120D01*
X57127767Y-35000753D01*
X57112712Y-34976344D01*
X56988656Y-34852288D01*
X56861455Y-34773830D01*
X56839336Y-34760187D01*
X56839331Y-34760185D01*
X56837862Y-34759698D01*
X56672797Y-34705001D01*
X56672795Y-34705000D01*
X56570010Y-34694500D01*
X55269998Y-34694500D01*
X55269981Y-34694501D01*
X55167203Y-34705000D01*
X55167200Y-34705001D01*
X55000668Y-34760185D01*
X55000663Y-34760187D01*
X54851342Y-34852289D01*
X54727289Y-34976342D01*
X54635187Y-35125663D01*
X54635185Y-35125668D01*
X54580000Y-35292204D01*
X54579088Y-35296467D01*
X54545801Y-35357898D01*
X54484586Y-35391581D01*
X54457837Y-35394500D01*
X51610155Y-35394500D01*
X51455510Y-35425261D01*
X51455502Y-35425263D01*
X51437396Y-35432763D01*
X51367926Y-35440230D01*
X51305447Y-35408954D01*
X51269796Y-35348865D01*
X51267472Y-35337598D01*
X51247065Y-35208753D01*
X51247065Y-35208752D01*
X51174102Y-34984197D01*
X51066914Y-34773828D01*
X51006658Y-34690894D01*
X51006658Y-34690893D01*
X50266962Y-35430590D01*
X50249925Y-35367007D01*
X50184099Y-35252993D01*
X50091007Y-35159901D01*
X49976993Y-35094075D01*
X49913409Y-35077037D01*
X50653105Y-34337340D01*
X50653104Y-34337338D01*
X50570174Y-34277087D01*
X50359802Y-34169897D01*
X50135247Y-34096934D01*
X50135248Y-34096934D01*
X49902052Y-34060000D01*
X49665948Y-34060000D01*
X49432752Y-34096934D01*
X49208197Y-34169897D01*
X48997830Y-34277084D01*
X48914894Y-34337340D01*
X49654591Y-35077037D01*
X49591007Y-35094075D01*
X49476993Y-35159901D01*
X49383901Y-35252993D01*
X49318075Y-35367007D01*
X49301037Y-35430591D01*
X48561340Y-34690894D01*
X48501084Y-34773830D01*
X48393897Y-34984197D01*
X48320934Y-35208752D01*
X48284000Y-35441947D01*
X48284000Y-35678052D01*
X48320934Y-35911247D01*
X48393897Y-36135802D01*
X48501087Y-36346174D01*
X48561338Y-36429104D01*
X48561340Y-36429105D01*
X49301037Y-35689408D01*
X49318075Y-35752993D01*
X49383901Y-35867007D01*
X49476993Y-35960099D01*
X49591007Y-36025925D01*
X49654590Y-36042962D01*
X48914893Y-36782658D01*
X48916448Y-36802405D01*
X48902084Y-36870783D01*
X48865717Y-36912451D01*
X48806490Y-36955482D01*
X48639485Y-37122487D01*
X48639485Y-37122488D01*
X48639483Y-37122490D01*
X48583532Y-37199500D01*
X48500657Y-37313566D01*
X48393433Y-37524003D01*
X48320446Y-37748631D01*
X48283500Y-37981902D01*
X48283500Y-38218097D01*
X48320446Y-38451368D01*
X48393433Y-38675996D01*
X48480283Y-38846447D01*
X48500657Y-38886433D01*
X48639483Y-39077510D01*
X48806490Y-39244517D01*
X48841127Y-39269683D01*
X48883792Y-39325013D01*
X48889771Y-39394626D01*
X48857165Y-39456421D01*
X48841130Y-39470315D01*
X48823900Y-39482834D01*
X48806488Y-39495484D01*
X48639485Y-39662487D01*
X48639485Y-39662488D01*
X48639483Y-39662490D01*
X48608439Y-39705218D01*
X48500657Y-39853566D01*
X48393433Y-40064003D01*
X48320446Y-40288631D01*
X48283500Y-40521902D01*
X48283500Y-40758097D01*
X48320446Y-40991368D01*
X48393433Y-41215996D01*
X48467952Y-41362246D01*
X48500657Y-41426433D01*
X48639483Y-41617510D01*
X48806490Y-41784517D01*
X48841127Y-41809683D01*
X48883792Y-41865013D01*
X48889771Y-41934626D01*
X48857165Y-41996421D01*
X48841130Y-42010315D01*
X48832604Y-42016510D01*
X48806488Y-42035484D01*
X48639485Y-42202487D01*
X48639485Y-42202488D01*
X48639483Y-42202490D01*
X48579862Y-42284550D01*
X48500657Y-42393566D01*
X48393433Y-42604003D01*
X48320446Y-42828631D01*
X48283500Y-43061902D01*
X48283500Y-43298097D01*
X48320446Y-43531368D01*
X48393433Y-43755996D01*
X48468227Y-43902786D01*
X48500657Y-43966433D01*
X48639483Y-44157510D01*
X48806490Y-44324517D01*
X48841127Y-44349683D01*
X48883792Y-44405013D01*
X48889771Y-44474626D01*
X48857165Y-44536421D01*
X48841130Y-44550315D01*
X48823900Y-44562834D01*
X48806488Y-44575484D01*
X48639485Y-44742487D01*
X48639485Y-44742488D01*
X48639483Y-44742490D01*
X48634026Y-44750001D01*
X48500657Y-44933566D01*
X48393433Y-45144003D01*
X48320446Y-45368631D01*
X48283500Y-45601902D01*
X48283500Y-45838097D01*
X48320446Y-46071368D01*
X48393433Y-46295996D01*
X48498046Y-46501308D01*
X48500657Y-46506433D01*
X48639483Y-46697510D01*
X48806490Y-46864517D01*
X48841127Y-46889683D01*
X48883792Y-46945013D01*
X48889771Y-47014626D01*
X48857165Y-47076421D01*
X48841130Y-47090315D01*
X48823900Y-47102834D01*
X48806488Y-47115484D01*
X48639485Y-47282487D01*
X48639485Y-47282488D01*
X48639483Y-47282490D01*
X48588981Y-47352000D01*
X48500657Y-47473566D01*
X48393433Y-47684003D01*
X48320446Y-47908631D01*
X48283500Y-48141902D01*
X48283500Y-48378097D01*
X48320446Y-48611368D01*
X48393433Y-48835996D01*
X48487283Y-49020185D01*
X48500657Y-49046433D01*
X48639483Y-49237510D01*
X48806490Y-49404517D01*
X48841127Y-49429683D01*
X48883792Y-49485013D01*
X48889771Y-49554626D01*
X48857165Y-49616421D01*
X48841130Y-49630315D01*
X48823900Y-49642834D01*
X48806488Y-49655484D01*
X48639485Y-49822487D01*
X48639485Y-49822488D01*
X48639483Y-49822490D01*
X48612168Y-49860086D01*
X48500657Y-50013566D01*
X48393433Y-50224003D01*
X48320446Y-50448631D01*
X48283500Y-50681902D01*
X48283500Y-50918097D01*
X48320446Y-51151368D01*
X48393433Y-51375996D01*
X48452331Y-51491588D01*
X48500657Y-51586433D01*
X48639483Y-51777510D01*
X48806490Y-51944517D01*
X48841127Y-51969683D01*
X48883792Y-52025013D01*
X48889771Y-52094626D01*
X48857165Y-52156421D01*
X48841130Y-52170315D01*
X48830348Y-52178149D01*
X48806488Y-52195484D01*
X48639485Y-52362487D01*
X48639485Y-52362488D01*
X48639483Y-52362490D01*
X48622260Y-52386196D01*
X48500657Y-52553566D01*
X48393433Y-52764003D01*
X48320446Y-52988631D01*
X48283500Y-53221902D01*
X48283500Y-53458097D01*
X48320446Y-53691368D01*
X48393433Y-53915996D01*
X48499112Y-54123401D01*
X48500657Y-54126433D01*
X48639483Y-54317510D01*
X48806490Y-54484517D01*
X48997567Y-54623343D01*
X49096991Y-54674002D01*
X49208003Y-54730566D01*
X49208005Y-54730566D01*
X49208008Y-54730568D01*
X49310282Y-54763799D01*
X49432631Y-54803553D01*
X49665903Y-54840500D01*
X49665908Y-54840500D01*
X49902097Y-54840500D01*
X50135368Y-54803553D01*
X50359992Y-54730568D01*
X50570433Y-54623343D01*
X50761510Y-54484517D01*
X50928517Y-54317510D01*
X51067343Y-54126433D01*
X51174568Y-53915992D01*
X51247553Y-53691368D01*
X51252293Y-53661442D01*
X51284500Y-53458097D01*
X51284500Y-53221902D01*
X51247553Y-52988631D01*
X51179801Y-52780114D01*
X51174568Y-52764008D01*
X51157078Y-52729682D01*
X53898000Y-52729682D01*
X53898000Y-52934317D01*
X53930009Y-53136417D01*
X53993244Y-53331031D01*
X54086141Y-53513350D01*
X54086147Y-53513359D01*
X54118523Y-53557921D01*
X54118524Y-53557922D01*
X54798000Y-52878446D01*
X54798000Y-52884661D01*
X54825259Y-52986394D01*
X54877920Y-53077606D01*
X54952394Y-53152080D01*
X55043606Y-53204741D01*
X55145339Y-53232000D01*
X55151553Y-53232000D01*
X54472076Y-53911474D01*
X54516650Y-53943859D01*
X54698968Y-54036755D01*
X54893582Y-54099990D01*
X55095683Y-54132000D01*
X55300317Y-54132000D01*
X55502417Y-54099990D01*
X55697031Y-54036755D01*
X55879349Y-53943859D01*
X55923921Y-53911474D01*
X55244447Y-53232000D01*
X55250661Y-53232000D01*
X55352394Y-53204741D01*
X55443606Y-53152080D01*
X55518080Y-53077606D01*
X55570741Y-52986394D01*
X55598000Y-52884661D01*
X55598000Y-52878447D01*
X56277474Y-53557921D01*
X56309859Y-53513349D01*
X56402755Y-53331031D01*
X56465990Y-53136417D01*
X56498000Y-52934317D01*
X56498000Y-52729682D01*
X56465990Y-52527582D01*
X56402755Y-52332968D01*
X56309859Y-52150650D01*
X56277474Y-52106077D01*
X56277474Y-52106076D01*
X55598000Y-52785551D01*
X55598000Y-52779339D01*
X55570741Y-52677606D01*
X55518080Y-52586394D01*
X55443606Y-52511920D01*
X55352394Y-52459259D01*
X55250661Y-52432000D01*
X55244446Y-52432000D01*
X55923922Y-51752524D01*
X55923921Y-51752523D01*
X55879359Y-51720147D01*
X55879350Y-51720141D01*
X55697031Y-51627244D01*
X55502417Y-51564009D01*
X55300317Y-51532000D01*
X55095683Y-51532000D01*
X54893582Y-51564009D01*
X54698968Y-51627244D01*
X54516644Y-51720143D01*
X54472077Y-51752523D01*
X54472077Y-51752524D01*
X55151554Y-52432000D01*
X55145339Y-52432000D01*
X55043606Y-52459259D01*
X54952394Y-52511920D01*
X54877920Y-52586394D01*
X54825259Y-52677606D01*
X54798000Y-52779339D01*
X54798000Y-52785553D01*
X54118524Y-52106077D01*
X54118523Y-52106077D01*
X54086143Y-52150644D01*
X53993244Y-52332968D01*
X53930009Y-52527582D01*
X53898000Y-52729682D01*
X51157078Y-52729682D01*
X51079261Y-52576958D01*
X51079049Y-52576535D01*
X51072874Y-52542520D01*
X51066492Y-52508537D01*
X51066639Y-52508174D01*
X51066569Y-52507789D01*
X51079753Y-52475863D01*
X51092768Y-52443796D01*
X51093191Y-52443320D01*
X51093238Y-52443209D01*
X51093379Y-52443110D01*
X51102183Y-52433239D01*
X55100232Y-48435191D01*
X55161552Y-48401708D01*
X55231244Y-48406692D01*
X55287177Y-48448564D01*
X55288228Y-48449988D01*
X55308523Y-48477921D01*
X55308524Y-48477922D01*
X55988000Y-47798446D01*
X55988000Y-47804661D01*
X56015259Y-47906394D01*
X56067920Y-47997606D01*
X56142394Y-48072080D01*
X56233606Y-48124741D01*
X56335339Y-48152000D01*
X56341552Y-48152000D01*
X55662076Y-48831474D01*
X55706650Y-48863859D01*
X55888968Y-48956755D01*
X56083582Y-49019990D01*
X56285683Y-49052000D01*
X56490317Y-49052000D01*
X56692417Y-49019990D01*
X56887031Y-48956755D01*
X57069341Y-48863863D01*
X57069349Y-48863858D01*
X57139552Y-48812852D01*
X57205358Y-48789371D01*
X57273412Y-48805196D01*
X57300120Y-48825488D01*
X57369344Y-48894712D01*
X57518666Y-48986814D01*
X57685203Y-49041999D01*
X57787991Y-49052500D01*
X58988008Y-49052499D01*
X59090797Y-49041999D01*
X59257334Y-48986814D01*
X59406656Y-48894712D01*
X59530712Y-48770656D01*
X59622814Y-48621334D01*
X59677999Y-48454797D01*
X59688500Y-48352009D01*
X59688499Y-47151992D01*
X59685820Y-47125771D01*
X59677999Y-47049203D01*
X59677998Y-47049200D01*
X59658381Y-46990000D01*
X59622814Y-46882666D01*
X59530712Y-46733344D01*
X59406656Y-46609288D01*
X59313888Y-46552069D01*
X59257336Y-46517187D01*
X59257331Y-46517185D01*
X59229169Y-46507853D01*
X59090797Y-46462001D01*
X59090795Y-46462000D01*
X58988010Y-46451500D01*
X57787998Y-46451500D01*
X57787981Y-46451501D01*
X57685203Y-46462000D01*
X57685200Y-46462001D01*
X57518668Y-46517185D01*
X57518663Y-46517187D01*
X57369345Y-46609287D01*
X57300121Y-46678511D01*
X57270194Y-46694851D01*
X57240527Y-46711606D01*
X57239605Y-46711553D01*
X57238797Y-46711995D01*
X57204818Y-46709564D01*
X57170771Y-46707618D01*
X57169699Y-46707052D01*
X57169106Y-46707010D01*
X57139555Y-46691148D01*
X57085988Y-46652230D01*
X57043322Y-46596900D01*
X57037343Y-46527287D01*
X57069948Y-46465492D01*
X57071073Y-46464350D01*
X59478483Y-44056941D01*
X59539806Y-44023456D01*
X59566164Y-44020622D01*
X61110918Y-44020622D01*
X61177957Y-44040307D01*
X61223712Y-44093111D01*
X61232170Y-44118663D01*
X61233080Y-44122914D01*
X61264091Y-44216498D01*
X61288267Y-44289456D01*
X61374905Y-44429920D01*
X61380370Y-44438779D01*
X61444032Y-44502441D01*
X61477517Y-44563764D01*
X61472533Y-44633456D01*
X61444032Y-44677803D01*
X61380370Y-44741464D01*
X61288268Y-44890785D01*
X61288267Y-44890788D01*
X61233082Y-45057325D01*
X61233082Y-45057326D01*
X61233081Y-45057326D01*
X61222581Y-45160105D01*
X61222581Y-46560123D01*
X61222582Y-46560140D01*
X61233081Y-46662918D01*
X61233082Y-46662921D01*
X61283377Y-46814698D01*
X61288267Y-46829456D01*
X61374644Y-46969497D01*
X61380370Y-46978779D01*
X61444032Y-47042441D01*
X61477517Y-47103764D01*
X61472533Y-47173456D01*
X61444032Y-47217803D01*
X61380370Y-47281464D01*
X61288268Y-47430785D01*
X61288266Y-47430790D01*
X61283428Y-47445390D01*
X61233082Y-47597325D01*
X61233082Y-47597326D01*
X61233081Y-47597326D01*
X61222581Y-47700105D01*
X61222581Y-49100123D01*
X61222582Y-49100140D01*
X61233081Y-49202918D01*
X61233082Y-49202921D01*
X61288266Y-49369453D01*
X61288268Y-49369458D01*
X61312879Y-49409358D01*
X61373088Y-49506974D01*
X61380370Y-49518779D01*
X61444385Y-49582794D01*
X61477870Y-49644117D01*
X61472886Y-49713809D01*
X61444386Y-49758156D01*
X61380763Y-49821779D01*
X61288724Y-49970997D01*
X61288722Y-49971002D01*
X61233575Y-50137424D01*
X61233574Y-50137431D01*
X61223081Y-50240135D01*
X61223081Y-51640093D01*
X61223082Y-51640111D01*
X61231209Y-51719665D01*
X61218439Y-51788358D01*
X61170558Y-51839242D01*
X61102768Y-51856162D01*
X61036591Y-51833745D01*
X61034966Y-51832584D01*
X60879613Y-51719715D01*
X60879612Y-51719714D01*
X60879610Y-51719713D01*
X60768835Y-51663270D01*
X60697223Y-51626781D01*
X60502534Y-51563522D01*
X60314431Y-51533730D01*
X60300352Y-51531500D01*
X60095648Y-51531500D01*
X60081569Y-51533730D01*
X59893465Y-51563522D01*
X59698776Y-51626781D01*
X59516386Y-51719715D01*
X59350786Y-51840028D01*
X59206028Y-51984786D01*
X59085715Y-52150386D01*
X58992781Y-52332776D01*
X58929522Y-52527465D01*
X58897500Y-52729648D01*
X58897500Y-52934351D01*
X58929522Y-53136534D01*
X58992781Y-53331223D01*
X59041328Y-53426500D01*
X59085585Y-53513359D01*
X59085715Y-53513613D01*
X59206028Y-53679213D01*
X59350786Y-53823971D01*
X59471226Y-53911474D01*
X59516390Y-53944287D01*
X59614817Y-53994438D01*
X59698776Y-54037218D01*
X59698778Y-54037218D01*
X59698781Y-54037220D01*
X59772735Y-54061249D01*
X59893465Y-54100477D01*
X59994557Y-54116488D01*
X60095648Y-54132500D01*
X60095649Y-54132500D01*
X60300351Y-54132500D01*
X60300352Y-54132500D01*
X60502534Y-54100477D01*
X60697219Y-54037220D01*
X60879610Y-53944287D01*
X61025696Y-53838149D01*
X61091502Y-53814670D01*
X61159556Y-53830495D01*
X61208251Y-53880601D01*
X61222581Y-53938467D01*
X61222581Y-54180122D01*
X61222582Y-54180141D01*
X61233081Y-54282918D01*
X61233082Y-54282921D01*
X61288266Y-54449453D01*
X61288268Y-54449458D01*
X61322309Y-54504648D01*
X61380369Y-54598778D01*
X61504425Y-54722834D01*
X61653747Y-54814936D01*
X61820284Y-54870121D01*
X61923072Y-54880622D01*
X65293089Y-54880621D01*
X65395878Y-54870121D01*
X65562415Y-54814936D01*
X65711737Y-54722834D01*
X65835793Y-54598778D01*
X65927895Y-54449456D01*
X65955676Y-54365617D01*
X65995449Y-54308173D01*
X66059965Y-54281350D01*
X66073382Y-54280622D01*
X74106722Y-54280622D01*
X74106723Y-54280621D01*
X74261375Y-54249859D01*
X74407057Y-54189516D01*
X74538167Y-54101911D01*
X76567789Y-52072289D01*
X76581475Y-52051806D01*
X76655394Y-51941179D01*
X76715737Y-51795497D01*
X76723458Y-51756682D01*
X76725097Y-51748444D01*
X76725097Y-51748443D01*
X76746500Y-51640845D01*
X76746500Y-51483155D01*
X76746499Y-51483153D01*
X76715739Y-51328511D01*
X76715736Y-51328501D01*
X76702805Y-51297282D01*
X76655397Y-51182827D01*
X76655390Y-51182814D01*
X76567789Y-51051711D01*
X76567786Y-51051707D01*
X76456292Y-50940213D01*
X76456288Y-50940210D01*
X76325185Y-50852609D01*
X76325172Y-50852602D01*
X76179501Y-50792264D01*
X76179489Y-50792261D01*
X76024845Y-50761500D01*
X76024842Y-50761500D01*
X75867157Y-50761500D01*
X75867155Y-50761500D01*
X75768245Y-50781175D01*
X75725951Y-50789588D01*
X75717851Y-50791199D01*
X75712501Y-50792263D01*
X75712498Y-50792264D01*
X75566827Y-50852602D01*
X75566814Y-50852609D01*
X75457729Y-50925498D01*
X75457728Y-50925500D01*
X75456980Y-50926000D01*
X75435705Y-50940215D01*
X73732619Y-52643303D01*
X73671296Y-52676788D01*
X73644938Y-52679622D01*
X66073382Y-52679622D01*
X66006343Y-52659937D01*
X65960588Y-52607133D01*
X65955676Y-52594626D01*
X65944055Y-52559557D01*
X65927895Y-52510788D01*
X65835793Y-52361466D01*
X65771776Y-52297449D01*
X65738291Y-52236126D01*
X65743275Y-52166434D01*
X65771776Y-52122086D01*
X65835398Y-52058464D01*
X65927437Y-51909246D01*
X65927439Y-51909241D01*
X65982586Y-51742819D01*
X65982587Y-51742812D01*
X65993080Y-51640108D01*
X65993080Y-50240150D01*
X65993079Y-50240134D01*
X65982586Y-50137424D01*
X65927439Y-49971002D01*
X65927437Y-49970997D01*
X65835396Y-49821776D01*
X65771776Y-49758156D01*
X65738291Y-49696833D01*
X65743275Y-49627141D01*
X65771772Y-49582798D01*
X65835793Y-49518778D01*
X65927895Y-49369456D01*
X65983080Y-49202919D01*
X65993581Y-49100131D01*
X65993580Y-47700114D01*
X65989063Y-47655900D01*
X65983080Y-47597325D01*
X65983079Y-47597322D01*
X65966408Y-47547012D01*
X65927895Y-47430788D01*
X65835793Y-47281466D01*
X65772130Y-47217803D01*
X65738645Y-47156480D01*
X65743629Y-47086788D01*
X65772130Y-47042441D01*
X65799945Y-47014626D01*
X65835793Y-46978778D01*
X65927895Y-46829456D01*
X65983080Y-46662919D01*
X65983080Y-46662915D01*
X65983993Y-46658655D01*
X66017280Y-46597224D01*
X66078495Y-46563541D01*
X66105244Y-46560622D01*
X74604874Y-46560622D01*
X74695918Y-46542511D01*
X74740206Y-46533702D01*
X74806039Y-46506433D01*
X74867685Y-46480899D01*
X74867686Y-46480898D01*
X74867689Y-46480897D01*
X74982421Y-46404236D01*
X76140586Y-45246069D01*
X76180810Y-45219192D01*
X76267361Y-45183343D01*
X76325173Y-45159397D01*
X76325176Y-45159395D01*
X76325179Y-45159394D01*
X76456289Y-45071789D01*
X76567789Y-44960289D01*
X76655394Y-44829179D01*
X76715737Y-44683497D01*
X76746500Y-44528842D01*
X76746500Y-44371158D01*
X76746500Y-44371155D01*
X76746499Y-44371153D01*
X76736101Y-44318880D01*
X76715737Y-44216503D01*
X76702315Y-44184099D01*
X76655397Y-44070827D01*
X76655390Y-44070814D01*
X76567789Y-43939711D01*
X76567786Y-43939707D01*
X76456292Y-43828213D01*
X76456288Y-43828210D01*
X76325185Y-43740609D01*
X76325172Y-43740602D01*
X76179501Y-43680264D01*
X76179489Y-43680261D01*
X76024845Y-43649500D01*
X76024842Y-43649500D01*
X75867158Y-43649500D01*
X75867155Y-43649500D01*
X75712510Y-43680261D01*
X75712498Y-43680264D01*
X75566827Y-43740602D01*
X75566814Y-43740609D01*
X75435711Y-43828210D01*
X75435707Y-43828213D01*
X75324213Y-43939707D01*
X75324210Y-43939711D01*
X75236609Y-44070814D01*
X75236604Y-44070823D01*
X75176809Y-44215184D01*
X75149929Y-44255412D01*
X74282040Y-45123303D01*
X74220717Y-45156788D01*
X74194359Y-45159622D01*
X66105244Y-45159622D01*
X66038205Y-45139937D01*
X65992450Y-45087133D01*
X65983992Y-45061581D01*
X65983081Y-45057329D01*
X65967494Y-45010290D01*
X65927895Y-44890788D01*
X65835793Y-44741466D01*
X65772130Y-44677803D01*
X65738645Y-44616480D01*
X65743629Y-44546788D01*
X65772130Y-44502441D01*
X65800691Y-44473880D01*
X65835793Y-44438778D01*
X65927895Y-44289456D01*
X65983080Y-44122919D01*
X65993581Y-44020131D01*
X65993580Y-42620114D01*
X65983080Y-42517325D01*
X65927895Y-42350788D01*
X65835793Y-42201466D01*
X65772130Y-42137803D01*
X65738645Y-42076480D01*
X65743629Y-42006788D01*
X65772130Y-41962441D01*
X65799945Y-41934626D01*
X65835793Y-41898778D01*
X65927895Y-41749456D01*
X65983080Y-41582919D01*
X65993581Y-41480131D01*
X65993580Y-40080114D01*
X65983080Y-39977325D01*
X65927895Y-39810788D01*
X65835793Y-39661466D01*
X65772130Y-39597803D01*
X65738645Y-39536480D01*
X65743629Y-39466788D01*
X65772130Y-39422441D01*
X65799945Y-39394626D01*
X65835793Y-39358778D01*
X65927895Y-39209456D01*
X65983080Y-39042919D01*
X65983080Y-39042915D01*
X65983993Y-39038655D01*
X66017280Y-38977224D01*
X66078495Y-38943541D01*
X66105244Y-38940622D01*
X73588874Y-38940622D01*
X73724201Y-38913703D01*
X73724201Y-38913702D01*
X73724206Y-38913702D01*
X73760715Y-38898578D01*
X73783977Y-38891522D01*
X73835872Y-38881198D01*
X73893497Y-38869737D01*
X74039179Y-38809394D01*
X74170289Y-38721789D01*
X74281789Y-38610289D01*
X74320295Y-38552661D01*
X74324970Y-38545665D01*
X74378582Y-38500859D01*
X74447907Y-38492152D01*
X74510934Y-38522306D01*
X74515753Y-38526874D01*
X78003181Y-42014301D01*
X78036666Y-42075624D01*
X78039500Y-42101982D01*
X78039500Y-54307470D01*
X78039500Y-54445458D01*
X78039500Y-54445460D01*
X78039499Y-54445460D01*
X78066418Y-54580786D01*
X78066421Y-54580796D01*
X78119222Y-54708271D01*
X78195887Y-54823009D01*
X78195888Y-54823010D01*
X78570698Y-55197819D01*
X78604183Y-55259142D01*
X78599199Y-55328833D01*
X78557328Y-55384767D01*
X78491863Y-55409184D01*
X78483017Y-55409500D01*
X39723428Y-55409500D01*
X39714582Y-55409184D01*
X39692622Y-55407613D01*
X39514442Y-55394869D01*
X39496931Y-55392351D01*
X39305212Y-55350646D01*
X39288236Y-55345662D01*
X39104390Y-55277090D01*
X39088298Y-55269740D01*
X38916095Y-55175711D01*
X38901210Y-55166146D01*
X38744132Y-55048558D01*
X38730762Y-55036972D01*
X38592027Y-54898237D01*
X38580441Y-54884867D01*
X38577263Y-54880622D01*
X38462849Y-54727784D01*
X38453291Y-54712910D01*
X38406558Y-54627325D01*
X38391707Y-54559054D01*
X38416124Y-54493589D01*
X38472058Y-54451718D01*
X38541749Y-54446734D01*
X38592703Y-54470953D01*
X38619747Y-54492520D01*
X38619750Y-54492521D01*
X38619752Y-54492523D01*
X38857555Y-54641945D01*
X39110592Y-54763801D01*
X39276515Y-54821860D01*
X39375670Y-54856556D01*
X39375682Y-54856560D01*
X39649491Y-54919055D01*
X39649497Y-54919055D01*
X39649505Y-54919057D01*
X39835547Y-54940018D01*
X39928569Y-54950499D01*
X39928572Y-54950500D01*
X39928575Y-54950500D01*
X40209428Y-54950500D01*
X40209429Y-54950499D01*
X40352055Y-54934429D01*
X40488494Y-54919057D01*
X40488499Y-54919056D01*
X40488509Y-54919055D01*
X40762318Y-54856560D01*
X41027408Y-54763801D01*
X41280445Y-54641945D01*
X41518248Y-54492523D01*
X41737825Y-54317416D01*
X41936416Y-54118825D01*
X42111523Y-53899248D01*
X42260945Y-53661445D01*
X42382801Y-53408408D01*
X42475560Y-53143318D01*
X42538055Y-52869509D01*
X42539625Y-52855581D01*
X42557140Y-52700127D01*
X42569500Y-52590425D01*
X42569500Y-52309575D01*
X42556253Y-52192000D01*
X42538057Y-52030505D01*
X42538054Y-52030487D01*
X42534705Y-52015816D01*
X42475560Y-51756682D01*
X42472677Y-51748444D01*
X42447992Y-51677896D01*
X42382801Y-51491592D01*
X42260945Y-51238555D01*
X42111523Y-51000752D01*
X41936416Y-50781175D01*
X41737825Y-50582584D01*
X41712684Y-50562535D01*
X41674278Y-50531907D01*
X41518248Y-50407477D01*
X41280445Y-50258055D01*
X41280442Y-50258053D01*
X41027411Y-50136200D01*
X40762329Y-50043443D01*
X40762317Y-50043439D01*
X40488512Y-49980945D01*
X40488494Y-49980942D01*
X40209431Y-49949500D01*
X40209425Y-49949500D01*
X39928575Y-49949500D01*
X39928568Y-49949500D01*
X39649505Y-49980942D01*
X39649487Y-49980945D01*
X39375682Y-50043439D01*
X39375670Y-50043443D01*
X39110588Y-50136200D01*
X38857557Y-50258053D01*
X38619753Y-50407476D01*
X38420813Y-50566125D01*
X38356126Y-50592534D01*
X38287430Y-50579777D01*
X38236537Y-50531907D01*
X38219500Y-50469178D01*
X38219500Y-38430821D01*
X38239185Y-38363782D01*
X38291989Y-38318027D01*
X38361147Y-38308083D01*
X38420812Y-38333873D01*
X38619752Y-38492523D01*
X38857555Y-38641945D01*
X39110592Y-38763801D01*
X39240898Y-38809397D01*
X39375670Y-38856556D01*
X39375682Y-38856560D01*
X39649491Y-38919055D01*
X39649497Y-38919055D01*
X39649505Y-38919057D01*
X39835547Y-38940018D01*
X39928569Y-38950499D01*
X39928572Y-38950500D01*
X39928575Y-38950500D01*
X40209428Y-38950500D01*
X40209429Y-38950499D01*
X40354998Y-38934098D01*
X40488494Y-38919057D01*
X40488499Y-38919056D01*
X40488509Y-38919055D01*
X40762318Y-38856560D01*
X41027408Y-38763801D01*
X41280445Y-38641945D01*
X41518248Y-38492523D01*
X41737825Y-38317416D01*
X41936416Y-38118825D01*
X42111523Y-37899248D01*
X42260945Y-37661445D01*
X42382801Y-37408408D01*
X42475560Y-37143318D01*
X42538055Y-36869509D01*
X42569500Y-36590425D01*
X42569500Y-36309575D01*
X42554020Y-36172187D01*
X42538057Y-36030505D01*
X42538054Y-36030487D01*
X42521988Y-35960099D01*
X42475560Y-35756682D01*
X42382801Y-35491592D01*
X42260945Y-35238555D01*
X42111523Y-35000752D01*
X41936416Y-34781175D01*
X41737825Y-34582584D01*
X41518248Y-34407477D01*
X41310729Y-34277084D01*
X41280442Y-34258053D01*
X41027411Y-34136200D01*
X40762329Y-34043443D01*
X40762317Y-34043439D01*
X40488512Y-33980945D01*
X40488494Y-33980942D01*
X40209431Y-33949500D01*
X40209425Y-33949500D01*
X39928575Y-33949500D01*
X39928568Y-33949500D01*
X39649505Y-33980942D01*
X39649487Y-33980945D01*
X39375682Y-34043439D01*
X39375670Y-34043443D01*
X39110588Y-34136200D01*
X38857557Y-34258053D01*
X38619749Y-34407478D01*
X38616919Y-34409487D01*
X38616039Y-34408248D01*
X38611549Y-34410077D01*
X38603836Y-34417791D01*
X38579759Y-34423028D01*
X38556943Y-34432324D01*
X38546220Y-34430324D01*
X38535563Y-34432643D01*
X38512478Y-34424033D01*
X38488257Y-34419517D01*
X38480317Y-34412038D01*
X38470099Y-34408227D01*
X38455333Y-34388503D01*
X38437399Y-34371609D01*
X38434763Y-34361025D01*
X38428227Y-34352294D01*
X38426468Y-34327717D01*
X38420515Y-34303810D01*
X38423888Y-34291651D01*
X38423241Y-34282602D01*
X38435572Y-34249539D01*
X38453297Y-34217079D01*
X38462845Y-34202222D01*
X38580448Y-34045123D01*
X38592020Y-34031769D01*
X38730769Y-33893020D01*
X38744123Y-33881448D01*
X38901221Y-33763845D01*
X38916089Y-33754291D01*
X39088298Y-33660258D01*
X39104385Y-33652911D01*
X39288248Y-33584333D01*
X39305199Y-33579356D01*
X39496938Y-33537646D01*
X39514436Y-33535130D01*
X39714582Y-33520816D01*
X39723428Y-33520500D01*
X39784892Y-33520500D01*
X77443059Y-33520500D01*
X77510098Y-33540185D01*
G37*
%TD.AperFunction*%
%TA.AperFunction,Conductor*%
G36*
X119781860Y-33540185D02*
G01*
X119827615Y-33592989D01*
X119837559Y-33662147D01*
X119808534Y-33725703D01*
X119776821Y-33751887D01*
X119636196Y-33833075D01*
X119428148Y-33992718D01*
X119242718Y-34178148D01*
X119083075Y-34386196D01*
X118951958Y-34613299D01*
X118951953Y-34613309D01*
X118851605Y-34855571D01*
X118851602Y-34855581D01*
X118791645Y-35079347D01*
X118783730Y-35108885D01*
X118749500Y-35368872D01*
X118749500Y-35631127D01*
X118771859Y-35800949D01*
X118783730Y-35891116D01*
X118828982Y-36060000D01*
X118851602Y-36144418D01*
X118851605Y-36144428D01*
X118951953Y-36386690D01*
X118951958Y-36386700D01*
X119083075Y-36613803D01*
X119242718Y-36821851D01*
X119242726Y-36821860D01*
X119428140Y-37007274D01*
X119428148Y-37007281D01*
X119428149Y-37007282D01*
X119460126Y-37031819D01*
X119636196Y-37166924D01*
X119863299Y-37298041D01*
X119863309Y-37298046D01*
X120086769Y-37390606D01*
X120105581Y-37398398D01*
X120358884Y-37466270D01*
X120607188Y-37498960D01*
X120615469Y-37500051D01*
X120618880Y-37500500D01*
X120618887Y-37500500D01*
X120881113Y-37500500D01*
X120881120Y-37500500D01*
X121141116Y-37466270D01*
X121394419Y-37398398D01*
X121636697Y-37298043D01*
X121863803Y-37166924D01*
X122071851Y-37007282D01*
X122071855Y-37007277D01*
X122071860Y-37007274D01*
X122257274Y-36821860D01*
X122257277Y-36821855D01*
X122257282Y-36821851D01*
X122416924Y-36613803D01*
X122458113Y-36542460D01*
X122508679Y-36494246D01*
X122577286Y-36481022D01*
X122642151Y-36506990D01*
X122682680Y-36563904D01*
X122689500Y-36604461D01*
X122689500Y-52395538D01*
X122669815Y-52462577D01*
X122617011Y-52508332D01*
X122547853Y-52518276D01*
X122484297Y-52489251D01*
X122458113Y-52457538D01*
X122416924Y-52386196D01*
X122257281Y-52178148D01*
X122257274Y-52178140D01*
X122071860Y-51992726D01*
X122071851Y-51992718D01*
X121863803Y-51833075D01*
X121636700Y-51701958D01*
X121636690Y-51701953D01*
X121394428Y-51601605D01*
X121394421Y-51601603D01*
X121394419Y-51601602D01*
X121141116Y-51533730D01*
X121083339Y-51526123D01*
X120881127Y-51499500D01*
X120881120Y-51499500D01*
X120618880Y-51499500D01*
X120618872Y-51499500D01*
X120389335Y-51529721D01*
X120358884Y-51533730D01*
X120245881Y-51564009D01*
X120105581Y-51601602D01*
X120105571Y-51601605D01*
X119863309Y-51701953D01*
X119863299Y-51701958D01*
X119636196Y-51833075D01*
X119428148Y-51992718D01*
X119242718Y-52178148D01*
X119083075Y-52386196D01*
X118951958Y-52613299D01*
X118951953Y-52613309D01*
X118851605Y-52855571D01*
X118851602Y-52855581D01*
X118803962Y-53033379D01*
X118783730Y-53108885D01*
X118749500Y-53368872D01*
X118749500Y-53631127D01*
X118769167Y-53780500D01*
X118783730Y-53891116D01*
X118848831Y-54134076D01*
X118851602Y-54144418D01*
X118851605Y-54144428D01*
X118951953Y-54386690D01*
X118951958Y-54386700D01*
X119083075Y-54613803D01*
X119242718Y-54821851D01*
X119242726Y-54821860D01*
X119428140Y-55007274D01*
X119428148Y-55007281D01*
X119636193Y-55166922D01*
X119655577Y-55178113D01*
X119703792Y-55228680D01*
X119717014Y-55297288D01*
X119691046Y-55362152D01*
X119634132Y-55402680D01*
X119593576Y-55409500D01*
X114750519Y-55409500D01*
X114683480Y-55389815D01*
X114637725Y-55337011D01*
X114627781Y-55267853D01*
X114656806Y-55204297D01*
X114662838Y-55197819D01*
X115794105Y-54066551D01*
X115794104Y-54066551D01*
X115794113Y-54066543D01*
X115797649Y-54061252D01*
X115870775Y-53951811D01*
X115889026Y-53907747D01*
X115903267Y-53882318D01*
X115905097Y-53879798D01*
X115905104Y-53879792D01*
X116030051Y-53707816D01*
X116126557Y-53518412D01*
X116192246Y-53316243D01*
X116225500Y-53106287D01*
X116225500Y-52893713D01*
X116192246Y-52683757D01*
X116126557Y-52481588D01*
X116030051Y-52292184D01*
X116030049Y-52292181D01*
X116030048Y-52292179D01*
X115905109Y-52120213D01*
X115754790Y-51969894D01*
X115754785Y-51969890D01*
X115589781Y-51850008D01*
X115547115Y-51794678D01*
X115541136Y-51725065D01*
X115573741Y-51663270D01*
X115589781Y-51649371D01*
X115754466Y-51529721D01*
X115904723Y-51379464D01*
X115904727Y-51379459D01*
X116029620Y-51207557D01*
X116126095Y-51018217D01*
X116191757Y-50816129D01*
X116191757Y-50816126D01*
X116202231Y-50750000D01*
X115154146Y-50750000D01*
X115192630Y-50683343D01*
X115225000Y-50562535D01*
X115225000Y-50437465D01*
X115192630Y-50316657D01*
X115154146Y-50250000D01*
X116202231Y-50250000D01*
X116191757Y-50183873D01*
X116191757Y-50183870D01*
X116126095Y-49981782D01*
X116029620Y-49792442D01*
X115904727Y-49620540D01*
X115904723Y-49620535D01*
X115765856Y-49481668D01*
X115732371Y-49420345D01*
X115737355Y-49350653D01*
X115779227Y-49294720D01*
X115788441Y-49288448D01*
X115794331Y-49284814D01*
X115794334Y-49284814D01*
X115943656Y-49192712D01*
X116067712Y-49068656D01*
X116159814Y-48919334D01*
X116214999Y-48752797D01*
X116225500Y-48650009D01*
X116225499Y-47349992D01*
X116225294Y-47347989D01*
X116214999Y-47247203D01*
X116214998Y-47247200D01*
X116198691Y-47197989D01*
X116159814Y-47080666D01*
X116067712Y-46931344D01*
X115943656Y-46807288D01*
X115794334Y-46715186D01*
X115627797Y-46660001D01*
X115627795Y-46660000D01*
X115525016Y-46649500D01*
X115525009Y-46649500D01*
X114144118Y-46649500D01*
X114077079Y-46629815D01*
X114031324Y-46577011D01*
X114021380Y-46507853D01*
X114022501Y-46501308D01*
X114025500Y-46486231D01*
X114025500Y-46313768D01*
X114025499Y-46313766D01*
X114021964Y-46295996D01*
X113991855Y-46144626D01*
X113983681Y-46124892D01*
X113925861Y-45985301D01*
X113925854Y-45985288D01*
X113830045Y-45841901D01*
X113830042Y-45841897D01*
X113708102Y-45719957D01*
X113708098Y-45719954D01*
X113564711Y-45624145D01*
X113564698Y-45624138D01*
X113405378Y-45558146D01*
X113405366Y-45558143D01*
X113236232Y-45524500D01*
X113236229Y-45524500D01*
X113063771Y-45524500D01*
X113063768Y-45524500D01*
X112894633Y-45558143D01*
X112894621Y-45558146D01*
X112735301Y-45624138D01*
X112735288Y-45624145D01*
X112591901Y-45719954D01*
X112591897Y-45719957D01*
X112469957Y-45841897D01*
X112469954Y-45841901D01*
X112374145Y-45985288D01*
X112374138Y-45985301D01*
X112308146Y-46144621D01*
X112308143Y-46144633D01*
X112274500Y-46313766D01*
X112274500Y-46486233D01*
X112308143Y-46655366D01*
X112308146Y-46655378D01*
X112374138Y-46814698D01*
X112374145Y-46814711D01*
X112469954Y-46958098D01*
X112469957Y-46958102D01*
X112591897Y-47080042D01*
X112591901Y-47080045D01*
X112735288Y-47175854D01*
X112735301Y-47175861D01*
X112836559Y-47217803D01*
X112894626Y-47241855D01*
X113063766Y-47275499D01*
X113063769Y-47275500D01*
X113150500Y-47275500D01*
X113159185Y-47278050D01*
X113168147Y-47276762D01*
X113192187Y-47287740D01*
X113217539Y-47295185D01*
X113223466Y-47302025D01*
X113231703Y-47305787D01*
X113245992Y-47328021D01*
X113263294Y-47347989D01*
X113265581Y-47358503D01*
X113269477Y-47364565D01*
X113274500Y-47399500D01*
X113274500Y-47475500D01*
X113254815Y-47542539D01*
X113202011Y-47588294D01*
X113150500Y-47599500D01*
X111016002Y-47599500D01*
X110957691Y-47611099D01*
X110888099Y-47604872D01*
X110832922Y-47562008D01*
X110809678Y-47496119D01*
X110809500Y-47489482D01*
X110809500Y-45290008D01*
X110809500Y-45290007D01*
X110807248Y-45278688D01*
X110782580Y-45154672D01*
X110770119Y-45124591D01*
X110767843Y-45115116D01*
X110769115Y-45089564D01*
X110766381Y-45064128D01*
X110767840Y-45057187D01*
X110768477Y-45054532D01*
X110768496Y-45054417D01*
X110800500Y-44852352D01*
X110800500Y-44647648D01*
X110780307Y-44520156D01*
X110768477Y-44445465D01*
X110713361Y-44275836D01*
X110705220Y-44250781D01*
X110705218Y-44250778D01*
X110705218Y-44250776D01*
X110657696Y-44157510D01*
X110612287Y-44068390D01*
X110580092Y-44024077D01*
X110491971Y-43902786D01*
X110347213Y-43758028D01*
X110181613Y-43637715D01*
X110181612Y-43637714D01*
X110181610Y-43637713D01*
X110124653Y-43608691D01*
X109999223Y-43544781D01*
X109804534Y-43481522D01*
X109629995Y-43453878D01*
X109602352Y-43449500D01*
X109397648Y-43449500D01*
X109373329Y-43453351D01*
X109195465Y-43481522D01*
X109000776Y-43544781D01*
X108818386Y-43637715D01*
X108652786Y-43758028D01*
X108508028Y-43902786D01*
X108387715Y-44068386D01*
X108294781Y-44250776D01*
X108231522Y-44445465D01*
X108199500Y-44647648D01*
X108199500Y-44852351D01*
X108231522Y-45054534D01*
X108294781Y-45249223D01*
X108355624Y-45368632D01*
X108387585Y-45431359D01*
X108387715Y-45431613D01*
X108508028Y-45597213D01*
X108652786Y-45741971D01*
X108773226Y-45829474D01*
X108818390Y-45862287D01*
X108913928Y-45910966D01*
X109000776Y-45955218D01*
X109000778Y-45955218D01*
X109000781Y-45955220D01*
X109195466Y-46018477D01*
X109303898Y-46035651D01*
X109367033Y-46065580D01*
X109403964Y-46124892D01*
X109408500Y-46158124D01*
X109408500Y-47523962D01*
X109388815Y-47591001D01*
X109336011Y-47636756D01*
X109266853Y-47646700D01*
X109203297Y-47617675D01*
X109185234Y-47598274D01*
X109157187Y-47560809D01*
X109042093Y-47474649D01*
X109042086Y-47474645D01*
X108907379Y-47424403D01*
X108907372Y-47424401D01*
X108847844Y-47418000D01*
X108200000Y-47418000D01*
X108200000Y-48334988D01*
X108142993Y-48302075D01*
X108015826Y-48268000D01*
X107884174Y-48268000D01*
X107757007Y-48302075D01*
X107700000Y-48334988D01*
X107700000Y-47418000D01*
X107052155Y-47418000D01*
X106992627Y-47424401D01*
X106992620Y-47424403D01*
X106857913Y-47474645D01*
X106857906Y-47474649D01*
X106742812Y-47560809D01*
X106742809Y-47560812D01*
X106656649Y-47675906D01*
X106656645Y-47675913D01*
X106606403Y-47810620D01*
X106606401Y-47810627D01*
X106600000Y-47870155D01*
X106600000Y-48518000D01*
X107516988Y-48518000D01*
X107484075Y-48575007D01*
X107450000Y-48702174D01*
X107450000Y-48833826D01*
X107484075Y-48960993D01*
X107516988Y-49018000D01*
X106600000Y-49018000D01*
X106600000Y-49665844D01*
X106606401Y-49725372D01*
X106606403Y-49725379D01*
X106656645Y-49860086D01*
X106656649Y-49860093D01*
X106742809Y-49975187D01*
X106742812Y-49975190D01*
X106857906Y-50061350D01*
X106857913Y-50061354D01*
X106989470Y-50110422D01*
X107045404Y-50152293D01*
X107069821Y-50217758D01*
X107054969Y-50286031D01*
X107033819Y-50314285D01*
X106919889Y-50428215D01*
X106794951Y-50600179D01*
X106698444Y-50789585D01*
X106698443Y-50789587D01*
X106698443Y-50789588D01*
X106697574Y-50792263D01*
X106632753Y-50991760D01*
X106599500Y-51201713D01*
X106599500Y-51414286D01*
X106623136Y-51563522D01*
X106632754Y-51624243D01*
X106696153Y-51819365D01*
X106698444Y-51826414D01*
X106794951Y-52015820D01*
X106919890Y-52187786D01*
X107070213Y-52338109D01*
X107242182Y-52463050D01*
X107250946Y-52467516D01*
X107301742Y-52515491D01*
X107318536Y-52583312D01*
X107295998Y-52649447D01*
X107250946Y-52688484D01*
X107242182Y-52692949D01*
X107070213Y-52817890D01*
X106919890Y-52968213D01*
X106794951Y-53140179D01*
X106698444Y-53329585D01*
X106632753Y-53531760D01*
X106609924Y-53675898D01*
X106579995Y-53739033D01*
X106520683Y-53775964D01*
X106487451Y-53780500D01*
X88144536Y-53780500D01*
X88077497Y-53760815D01*
X88031742Y-53708011D01*
X88021798Y-53638853D01*
X88037803Y-53593380D01*
X88061744Y-53552898D01*
X88107598Y-53395069D01*
X88110500Y-53358194D01*
X88110500Y-52892708D01*
X88112883Y-52868516D01*
X88134500Y-52759844D01*
X88134500Y-52602155D01*
X88112883Y-52493482D01*
X88110500Y-52469290D01*
X88110500Y-52192000D01*
X88130185Y-52124961D01*
X88182989Y-52079206D01*
X88234500Y-52068000D01*
X88475686Y-52068000D01*
X88475694Y-52068000D01*
X88512569Y-52065098D01*
X88512571Y-52065097D01*
X88512573Y-52065097D01*
X88558330Y-52051803D01*
X88670398Y-52019244D01*
X88811865Y-51935581D01*
X88928081Y-51819365D01*
X89011744Y-51677898D01*
X89057598Y-51520069D01*
X89060500Y-51483194D01*
X89060500Y-51071518D01*
X89080185Y-51004479D01*
X89096819Y-50983837D01*
X91718837Y-48361819D01*
X91780160Y-48328334D01*
X91806518Y-48325500D01*
X92564256Y-48325500D01*
X92631295Y-48345185D01*
X92664575Y-48376616D01*
X92734030Y-48472215D01*
X92878786Y-48616971D01*
X93008262Y-48711039D01*
X93044390Y-48737287D01*
X93160607Y-48796503D01*
X93226776Y-48830218D01*
X93226778Y-48830218D01*
X93226781Y-48830220D01*
X93331137Y-48864127D01*
X93421465Y-48893477D01*
X93522557Y-48909488D01*
X93623648Y-48925500D01*
X93623649Y-48925500D01*
X93828350Y-48925500D01*
X93828352Y-48925500D01*
X93945068Y-48907013D01*
X94014362Y-48915967D01*
X94052148Y-48941805D01*
X94555994Y-49445651D01*
X94589479Y-49506974D01*
X94592313Y-49533332D01*
X94592313Y-50891322D01*
X94572628Y-50958361D01*
X94519824Y-51004116D01*
X94450666Y-51014060D01*
X94420860Y-51005883D01*
X94321940Y-50964909D01*
X94321932Y-50964907D01*
X94123820Y-50925500D01*
X94123816Y-50925500D01*
X93921810Y-50925500D01*
X93921805Y-50925500D01*
X93723693Y-50964907D01*
X93723681Y-50964910D01*
X93642474Y-50998547D01*
X93573004Y-51006016D01*
X93527953Y-50986405D01*
X93527685Y-50986897D01*
X93522187Y-50983894D01*
X93520708Y-50983251D01*
X93519899Y-50982645D01*
X93385192Y-50932403D01*
X93385185Y-50932401D01*
X93325657Y-50926000D01*
X93002813Y-50926000D01*
X93002813Y-51810134D01*
X93000430Y-51834326D01*
X92997313Y-51849997D01*
X92997313Y-51890170D01*
X92983068Y-51875925D01*
X92897558Y-51826556D01*
X92802183Y-51801000D01*
X92703443Y-51801000D01*
X92608068Y-51826556D01*
X92522558Y-51875925D01*
X92502813Y-51895670D01*
X92502813Y-50926000D01*
X92179968Y-50926000D01*
X92120440Y-50932401D01*
X92120433Y-50932403D01*
X91985726Y-50982645D01*
X91985719Y-50982649D01*
X91870625Y-51068809D01*
X91870622Y-51068812D01*
X91784462Y-51183906D01*
X91784458Y-51183913D01*
X91734216Y-51318620D01*
X91734214Y-51318627D01*
X91727813Y-51378155D01*
X91727813Y-51926000D01*
X92472483Y-51926000D01*
X92452738Y-51945745D01*
X92403369Y-52031255D01*
X92377813Y-52126630D01*
X92377813Y-52225370D01*
X92403369Y-52320745D01*
X92452738Y-52406255D01*
X92472483Y-52426000D01*
X91727813Y-52426000D01*
X91727813Y-52973844D01*
X91734214Y-53033372D01*
X91734216Y-53033379D01*
X91784458Y-53168086D01*
X91784462Y-53168093D01*
X91870622Y-53283187D01*
X91870625Y-53283190D01*
X91985719Y-53369350D01*
X91985726Y-53369354D01*
X92120433Y-53419596D01*
X92120440Y-53419598D01*
X92179968Y-53425999D01*
X92179985Y-53426000D01*
X92502813Y-53426000D01*
X92502813Y-52456330D01*
X92522558Y-52476075D01*
X92608068Y-52525444D01*
X92703443Y-52551000D01*
X92802183Y-52551000D01*
X92897558Y-52525444D01*
X92983068Y-52476075D01*
X92997313Y-52461830D01*
X92997313Y-52502003D01*
X92999060Y-52510788D01*
X93000430Y-52517671D01*
X93002813Y-52541865D01*
X93002813Y-53426000D01*
X93325641Y-53426000D01*
X93325657Y-53425999D01*
X93385185Y-53419598D01*
X93385189Y-53419597D01*
X93519902Y-53369352D01*
X93520709Y-53368748D01*
X93521658Y-53368393D01*
X93527689Y-53365101D01*
X93528162Y-53365967D01*
X93586173Y-53344329D01*
X93642474Y-53353451D01*
X93723686Y-53387091D01*
X93887101Y-53419596D01*
X93921805Y-53426499D01*
X93921809Y-53426500D01*
X93921810Y-53426500D01*
X94123817Y-53426500D01*
X94123818Y-53426499D01*
X94321940Y-53387091D01*
X94508569Y-53309786D01*
X94588923Y-53256094D01*
X94655599Y-53235217D01*
X94722979Y-53253701D01*
X94726678Y-53256078D01*
X94807057Y-53309786D01*
X94993686Y-53387091D01*
X95157101Y-53419596D01*
X95191805Y-53426499D01*
X95191809Y-53426500D01*
X95191810Y-53426500D01*
X95393817Y-53426500D01*
X95393818Y-53426499D01*
X95591940Y-53387091D01*
X95778569Y-53309786D01*
X95946531Y-53197558D01*
X96089371Y-53054718D01*
X96201599Y-52886756D01*
X96278904Y-52700127D01*
X96318313Y-52502003D01*
X96318313Y-51849997D01*
X96278904Y-51651873D01*
X96201599Y-51465244D01*
X96201597Y-51465241D01*
X96201595Y-51465237D01*
X96089371Y-51297281D01*
X96029632Y-51237542D01*
X95996147Y-51176219D01*
X95993313Y-51149861D01*
X95993313Y-49122817D01*
X95993312Y-49122815D01*
X95966394Y-48987490D01*
X95966393Y-48987487D01*
X95966393Y-48987485D01*
X95960633Y-48973580D01*
X95955438Y-48961039D01*
X95913591Y-48860009D01*
X95913590Y-48860008D01*
X95913588Y-48860002D01*
X95836927Y-48745270D01*
X95836925Y-48745267D01*
X95836924Y-48745266D01*
X95046189Y-47954532D01*
X95042805Y-47951148D01*
X95009320Y-47889825D01*
X95008013Y-47844068D01*
X95026500Y-47727349D01*
X95026500Y-47522648D01*
X94994477Y-47320465D01*
X94959432Y-47212609D01*
X94931220Y-47125781D01*
X94931217Y-47125776D01*
X94931216Y-47125771D01*
X94865069Y-46995952D01*
X94852172Y-46927283D01*
X94878448Y-46862543D01*
X94935554Y-46822285D01*
X95005360Y-46819293D01*
X95026864Y-46826772D01*
X95843543Y-47197989D01*
X95895333Y-47241982D01*
X95898210Y-47246288D01*
X95898215Y-47246294D01*
X96009707Y-47357786D01*
X96009711Y-47357789D01*
X96140814Y-47445390D01*
X96140827Y-47445397D01*
X96263283Y-47496119D01*
X96286503Y-47505737D01*
X96378126Y-47523962D01*
X96441153Y-47536499D01*
X96441156Y-47536500D01*
X96441158Y-47536500D01*
X96598844Y-47536500D01*
X96598845Y-47536499D01*
X96753497Y-47505737D01*
X96899179Y-47445394D01*
X96899404Y-47445244D01*
X96967864Y-47399500D01*
X97030289Y-47357789D01*
X97141789Y-47246289D01*
X97229394Y-47115179D01*
X97289737Y-46969497D01*
X97320500Y-46814842D01*
X97320500Y-46657158D01*
X97320500Y-46657155D01*
X97320499Y-46657153D01*
X97310978Y-46609287D01*
X97289737Y-46502503D01*
X97282996Y-46486229D01*
X97229397Y-46356827D01*
X97229390Y-46356814D01*
X97141789Y-46225711D01*
X97141786Y-46225707D01*
X97030292Y-46114213D01*
X97030288Y-46114210D01*
X96899185Y-46026609D01*
X96899172Y-46026602D01*
X96753501Y-45966264D01*
X96753489Y-45966261D01*
X96598845Y-45935500D01*
X96598842Y-45935500D01*
X96478593Y-45935500D01*
X96468188Y-45933246D01*
X96461163Y-45934269D01*
X96427281Y-45924385D01*
X96362854Y-45895100D01*
X94897446Y-45229004D01*
X94844561Y-45183343D01*
X94824758Y-45116339D01*
X94838273Y-45059824D01*
X94838286Y-45059799D01*
X94838287Y-45059798D01*
X94931220Y-44877407D01*
X94994477Y-44682722D01*
X95000027Y-44647682D01*
X103200000Y-44647682D01*
X103200000Y-44852317D01*
X103232009Y-45054417D01*
X103295244Y-45249031D01*
X103388141Y-45431350D01*
X103388147Y-45431359D01*
X103420523Y-45475921D01*
X103420524Y-45475922D01*
X104100000Y-44796446D01*
X104100000Y-44802661D01*
X104127259Y-44904394D01*
X104179920Y-44995606D01*
X104254394Y-45070080D01*
X104345606Y-45122741D01*
X104447339Y-45150000D01*
X104453553Y-45150000D01*
X103774076Y-45829474D01*
X103818650Y-45861859D01*
X104000968Y-45954755D01*
X104195582Y-46017990D01*
X104397683Y-46050000D01*
X104602317Y-46050000D01*
X104804417Y-46017990D01*
X104999031Y-45954755D01*
X105181349Y-45861859D01*
X105225921Y-45829474D01*
X104546447Y-45150000D01*
X104552661Y-45150000D01*
X104654394Y-45122741D01*
X104745606Y-45070080D01*
X104820080Y-44995606D01*
X104872741Y-44904394D01*
X104900000Y-44802661D01*
X104900000Y-44796448D01*
X105579474Y-45475922D01*
X105579474Y-45475921D01*
X105611859Y-45431349D01*
X105704755Y-45249031D01*
X105767990Y-45054417D01*
X105800000Y-44852317D01*
X105800000Y-44647682D01*
X105767990Y-44445582D01*
X105704755Y-44250968D01*
X105611859Y-44068650D01*
X105579474Y-44024077D01*
X105579474Y-44024076D01*
X104900000Y-44703551D01*
X104900000Y-44697339D01*
X104872741Y-44595606D01*
X104820080Y-44504394D01*
X104745606Y-44429920D01*
X104654394Y-44377259D01*
X104552661Y-44350000D01*
X104546446Y-44350000D01*
X105225922Y-43670524D01*
X105225921Y-43670523D01*
X105181359Y-43638147D01*
X105181350Y-43638141D01*
X104999031Y-43545244D01*
X104804417Y-43482009D01*
X104602317Y-43450000D01*
X104397683Y-43450000D01*
X104195582Y-43482009D01*
X104000968Y-43545244D01*
X103818644Y-43638143D01*
X103774077Y-43670523D01*
X103774077Y-43670524D01*
X104453554Y-44350000D01*
X104447339Y-44350000D01*
X104345606Y-44377259D01*
X104254394Y-44429920D01*
X104179920Y-44504394D01*
X104127259Y-44595606D01*
X104100000Y-44697339D01*
X104100000Y-44703553D01*
X103420524Y-44024077D01*
X103420523Y-44024077D01*
X103388143Y-44068644D01*
X103295244Y-44250968D01*
X103232009Y-44445582D01*
X103200000Y-44647682D01*
X95000027Y-44647682D01*
X95026500Y-44480540D01*
X95026500Y-44275836D01*
X95016894Y-44215184D01*
X94994477Y-44073653D01*
X94950955Y-43939707D01*
X94931220Y-43878969D01*
X94931218Y-43878966D01*
X94931218Y-43878964D01*
X94877775Y-43774078D01*
X94838284Y-43696573D01*
X94717971Y-43530974D01*
X94573219Y-43386222D01*
X94504365Y-43336197D01*
X94419883Y-43274817D01*
X94377218Y-43219489D01*
X94371239Y-43149876D01*
X94403844Y-43088080D01*
X94464683Y-43053723D01*
X94492769Y-43050500D01*
X95828844Y-43050500D01*
X95828845Y-43050499D01*
X95983497Y-43019737D01*
X96129179Y-42959394D01*
X96260289Y-42871789D01*
X99045259Y-40086817D01*
X99106582Y-40053333D01*
X99132940Y-40050499D01*
X99850002Y-40050499D01*
X99850008Y-40050499D01*
X99952797Y-40039999D01*
X100119334Y-39984814D01*
X100268656Y-39892712D01*
X100392712Y-39768656D01*
X100484814Y-39619334D01*
X100484814Y-39619332D01*
X100488605Y-39613187D01*
X100490399Y-39614293D01*
X100529687Y-39569663D01*
X100595908Y-39550500D01*
X103693057Y-39550500D01*
X103760096Y-39570185D01*
X103765942Y-39574182D01*
X103798454Y-39597803D01*
X103818390Y-39612287D01*
X103914905Y-39661464D01*
X104000776Y-39705218D01*
X104000778Y-39705218D01*
X104000781Y-39705220D01*
X104073230Y-39728760D01*
X104195465Y-39768477D01*
X104296557Y-39784488D01*
X104397648Y-39800500D01*
X104397649Y-39800500D01*
X104602351Y-39800500D01*
X104602352Y-39800500D01*
X104804534Y-39768477D01*
X104999219Y-39705220D01*
X105181610Y-39612287D01*
X105299570Y-39526585D01*
X105347648Y-39491655D01*
X105413454Y-39468175D01*
X105481508Y-39484001D01*
X105508214Y-39504292D01*
X106670707Y-40666786D01*
X106670711Y-40666789D01*
X106801814Y-40754390D01*
X106801827Y-40754397D01*
X106912081Y-40800065D01*
X106947503Y-40814737D01*
X107102153Y-40845499D01*
X107102156Y-40845500D01*
X107102158Y-40845500D01*
X107259842Y-40845500D01*
X114546106Y-40845500D01*
X114613145Y-40865185D01*
X114646422Y-40896612D01*
X114666896Y-40924792D01*
X114666898Y-40924794D01*
X114817213Y-41075109D01*
X114989179Y-41200048D01*
X114989181Y-41200049D01*
X114989184Y-41200051D01*
X115178588Y-41296557D01*
X115380757Y-41362246D01*
X115590713Y-41395500D01*
X115590714Y-41395500D01*
X115803286Y-41395500D01*
X115803287Y-41395500D01*
X116013243Y-41362246D01*
X116215412Y-41296557D01*
X116404816Y-41200051D01*
X116426789Y-41184086D01*
X116576786Y-41075109D01*
X116576788Y-41075106D01*
X116576792Y-41075104D01*
X116727104Y-40924792D01*
X116727106Y-40924788D01*
X116727109Y-40924786D01*
X116850902Y-40754397D01*
X116852051Y-40752816D01*
X116948557Y-40563412D01*
X117014246Y-40361243D01*
X117047500Y-40151287D01*
X117047500Y-39938713D01*
X117014246Y-39728757D01*
X116948557Y-39526588D01*
X116852051Y-39337184D01*
X116852049Y-39337181D01*
X116852048Y-39337179D01*
X116727109Y-39165213D01*
X116576786Y-39014890D01*
X116404820Y-38889951D01*
X116397915Y-38886433D01*
X116396054Y-38885485D01*
X116345259Y-38837512D01*
X116328463Y-38769692D01*
X116350999Y-38703556D01*
X116396054Y-38664515D01*
X116404816Y-38660051D01*
X116502478Y-38589096D01*
X116576786Y-38535109D01*
X116576788Y-38535106D01*
X116576792Y-38535104D01*
X116727104Y-38384792D01*
X116727106Y-38384788D01*
X116727109Y-38384786D01*
X116852048Y-38212820D01*
X116852047Y-38212820D01*
X116852051Y-38212816D01*
X116948557Y-38023412D01*
X117014246Y-37821243D01*
X117047500Y-37611287D01*
X117047500Y-37398713D01*
X117014246Y-37188757D01*
X116948557Y-36986588D01*
X116852051Y-36797184D01*
X116852049Y-36797181D01*
X116852048Y-36797179D01*
X116727109Y-36625213D01*
X116613181Y-36511285D01*
X116579696Y-36449962D01*
X116584680Y-36380270D01*
X116626552Y-36324337D01*
X116657529Y-36307422D01*
X116789086Y-36258354D01*
X116789093Y-36258350D01*
X116904187Y-36172190D01*
X116904190Y-36172187D01*
X116990350Y-36057093D01*
X116990354Y-36057086D01*
X117040596Y-35922379D01*
X117040598Y-35922372D01*
X117046999Y-35862844D01*
X117047000Y-35862827D01*
X117047000Y-35215000D01*
X116130012Y-35215000D01*
X116162925Y-35157993D01*
X116197000Y-35030826D01*
X116197000Y-34899174D01*
X116162925Y-34772007D01*
X116130012Y-34715000D01*
X117047000Y-34715000D01*
X117047000Y-34067172D01*
X117046999Y-34067155D01*
X117040598Y-34007627D01*
X117040596Y-34007620D01*
X116990354Y-33872913D01*
X116990350Y-33872906D01*
X116904190Y-33757812D01*
X116885427Y-33743766D01*
X116843557Y-33687832D01*
X116838573Y-33618141D01*
X116872059Y-33556818D01*
X116933382Y-33523333D01*
X116959739Y-33520500D01*
X119714821Y-33520500D01*
X119781860Y-33540185D01*
G37*
%TD.AperFunction*%
%TA.AperFunction,Conductor*%
G36*
X114501300Y-33540185D02*
G01*
X114547055Y-33592989D01*
X114556999Y-33662147D01*
X114527974Y-33725703D01*
X114508573Y-33743766D01*
X114489809Y-33757812D01*
X114403649Y-33872906D01*
X114403645Y-33872913D01*
X114353403Y-34007620D01*
X114353401Y-34007627D01*
X114347000Y-34067155D01*
X114347000Y-34715000D01*
X115263988Y-34715000D01*
X115231075Y-34772007D01*
X115197000Y-34899174D01*
X115197000Y-35030826D01*
X115231075Y-35157993D01*
X115263988Y-35215000D01*
X114449019Y-35215000D01*
X114381980Y-35195315D01*
X114361338Y-35178681D01*
X113730546Y-34547888D01*
X113730545Y-34547887D01*
X113615807Y-34471222D01*
X113488332Y-34418421D01*
X113488322Y-34418418D01*
X113352996Y-34391500D01*
X113352994Y-34391500D01*
X113352993Y-34391500D01*
X111905744Y-34391500D01*
X111838705Y-34371815D01*
X111805425Y-34340384D01*
X111803213Y-34337340D01*
X111788769Y-34317458D01*
X111735969Y-34244784D01*
X111591213Y-34100028D01*
X111425613Y-33979715D01*
X111425612Y-33979714D01*
X111425610Y-33979713D01*
X111366314Y-33949500D01*
X111243223Y-33886781D01*
X111048534Y-33823522D01*
X110873995Y-33795878D01*
X110846352Y-33791500D01*
X110641648Y-33791500D01*
X110617329Y-33795351D01*
X110439465Y-33823522D01*
X110244776Y-33886781D01*
X110062386Y-33979715D01*
X109896786Y-34100028D01*
X109752028Y-34244786D01*
X109631715Y-34410386D01*
X109538781Y-34592776D01*
X109475522Y-34787465D01*
X109443500Y-34989648D01*
X109443500Y-35194351D01*
X109475522Y-35396534D01*
X109538781Y-35591223D01*
X109631715Y-35773613D01*
X109752028Y-35939213D01*
X109896786Y-36083971D01*
X110018212Y-36172190D01*
X110062390Y-36204287D01*
X110168502Y-36258354D01*
X110244776Y-36297218D01*
X110244778Y-36297218D01*
X110244781Y-36297220D01*
X110328239Y-36324337D01*
X110439465Y-36360477D01*
X110540557Y-36376488D01*
X110641648Y-36392500D01*
X110641649Y-36392500D01*
X110846351Y-36392500D01*
X110846352Y-36392500D01*
X111048534Y-36360477D01*
X111243219Y-36297220D01*
X111425610Y-36204287D01*
X111522248Y-36134076D01*
X111591213Y-36083971D01*
X111591215Y-36083968D01*
X111591219Y-36083966D01*
X111735966Y-35939219D01*
X111805425Y-35843615D01*
X111860755Y-35800949D01*
X111905744Y-35792500D01*
X112942481Y-35792500D01*
X113009520Y-35812185D01*
X113030162Y-35828819D01*
X114336492Y-37135148D01*
X114369977Y-37196471D01*
X114371284Y-37242226D01*
X114346550Y-37398397D01*
X114346500Y-37398713D01*
X114346500Y-37611287D01*
X114350753Y-37638141D01*
X114379301Y-37818388D01*
X114379754Y-37821243D01*
X114438150Y-38000968D01*
X114445444Y-38023414D01*
X114541951Y-38212820D01*
X114666890Y-38384786D01*
X114817213Y-38535109D01*
X114989182Y-38660050D01*
X114997946Y-38664516D01*
X115048742Y-38712491D01*
X115065536Y-38780312D01*
X115042998Y-38846447D01*
X114997946Y-38885484D01*
X114989182Y-38889949D01*
X114817213Y-39014890D01*
X114666898Y-39165205D01*
X114666898Y-39165206D01*
X114666896Y-39165208D01*
X114646422Y-39193386D01*
X114591094Y-39236051D01*
X114546106Y-39244500D01*
X110782032Y-39244500D01*
X110714993Y-39224815D01*
X110669238Y-39172011D01*
X110659294Y-39102853D01*
X110671547Y-39064205D01*
X110704755Y-38999031D01*
X110767990Y-38804417D01*
X110800000Y-38602317D01*
X110800000Y-38397682D01*
X110767990Y-38195582D01*
X110704755Y-38000968D01*
X110611859Y-37818650D01*
X110579474Y-37774077D01*
X110579474Y-37774076D01*
X109900000Y-38453551D01*
X109900000Y-38447339D01*
X109872741Y-38345606D01*
X109820080Y-38254394D01*
X109745606Y-38179920D01*
X109654394Y-38127259D01*
X109552661Y-38100000D01*
X109546446Y-38100000D01*
X110225922Y-37420524D01*
X110225921Y-37420523D01*
X110181359Y-37388147D01*
X110181350Y-37388141D01*
X109999031Y-37295244D01*
X109804417Y-37232009D01*
X109602317Y-37200000D01*
X109397683Y-37200000D01*
X109195582Y-37232009D01*
X109000968Y-37295244D01*
X108818644Y-37388143D01*
X108774077Y-37420523D01*
X108774077Y-37420524D01*
X109453554Y-38100000D01*
X109447339Y-38100000D01*
X109345606Y-38127259D01*
X109254394Y-38179920D01*
X109179920Y-38254394D01*
X109127259Y-38345606D01*
X109100000Y-38447339D01*
X109100000Y-38453553D01*
X108420524Y-37774077D01*
X108420523Y-37774077D01*
X108388143Y-37818644D01*
X108295244Y-38000968D01*
X108232009Y-38195582D01*
X108200000Y-38397682D01*
X108200000Y-38602317D01*
X108232009Y-38804417D01*
X108295244Y-38999031D01*
X108328453Y-39064205D01*
X108341349Y-39132874D01*
X108315073Y-39197614D01*
X108257967Y-39237872D01*
X108217968Y-39244500D01*
X107563940Y-39244500D01*
X107496901Y-39224815D01*
X107476259Y-39208181D01*
X106146292Y-37878213D01*
X106146288Y-37878210D01*
X106015185Y-37790609D01*
X106015172Y-37790602D01*
X105869501Y-37730264D01*
X105869489Y-37730261D01*
X105714845Y-37699500D01*
X105714842Y-37699500D01*
X105589033Y-37699500D01*
X105559327Y-37690777D01*
X105529092Y-37684050D01*
X105524971Y-37680689D01*
X105521994Y-37679815D01*
X105500938Y-37662766D01*
X105494494Y-37656261D01*
X105491966Y-37652781D01*
X105347219Y-37508034D01*
X105347213Y-37508028D01*
X105181613Y-37387715D01*
X105181612Y-37387714D01*
X105181610Y-37387713D01*
X105120557Y-37356605D01*
X104999223Y-37294781D01*
X104804534Y-37231522D01*
X104629995Y-37203878D01*
X104602352Y-37199500D01*
X104397648Y-37199500D01*
X104373329Y-37203351D01*
X104195465Y-37231522D01*
X104000776Y-37294781D01*
X103818386Y-37387715D01*
X103652786Y-37508028D01*
X103508028Y-37652786D01*
X103387713Y-37818388D01*
X103355407Y-37881794D01*
X103307433Y-37932591D01*
X103244922Y-37949500D01*
X100595908Y-37949500D01*
X100528869Y-37929815D01*
X100490363Y-37885728D01*
X100488605Y-37886813D01*
X100484812Y-37880663D01*
X100392712Y-37731344D01*
X100268656Y-37607288D01*
X100157484Y-37538717D01*
X100119336Y-37515187D01*
X100119331Y-37515185D01*
X100115175Y-37513808D01*
X99952797Y-37460001D01*
X99952795Y-37460000D01*
X99850010Y-37449500D01*
X98649998Y-37449500D01*
X98649981Y-37449501D01*
X98547203Y-37460000D01*
X98547200Y-37460001D01*
X98380668Y-37515185D01*
X98380663Y-37515187D01*
X98231342Y-37607289D01*
X98107289Y-37731342D01*
X98015187Y-37880663D01*
X98015185Y-37880668D01*
X97997980Y-37932591D01*
X97960001Y-38047203D01*
X97960001Y-38047204D01*
X97960000Y-38047204D01*
X97949500Y-38149983D01*
X97949500Y-38867059D01*
X97929815Y-38934098D01*
X97913181Y-38954740D01*
X95454741Y-41413181D01*
X95393418Y-41446666D01*
X95367060Y-41449500D01*
X91671155Y-41449500D01*
X91516510Y-41480261D01*
X91516498Y-41480264D01*
X91370827Y-41540602D01*
X91370814Y-41540609D01*
X91239711Y-41628210D01*
X91239707Y-41628213D01*
X91128213Y-41739707D01*
X91128210Y-41739711D01*
X91040609Y-41870814D01*
X91040602Y-41870827D01*
X90980264Y-42016498D01*
X90980261Y-42016510D01*
X90949500Y-42171153D01*
X90949500Y-44117060D01*
X90929815Y-44184099D01*
X90913181Y-44204741D01*
X87604394Y-47513527D01*
X87543071Y-47547012D01*
X87473379Y-47542028D01*
X87417446Y-47500156D01*
X87394240Y-47445244D01*
X87391951Y-47430790D01*
X87374477Y-47320466D01*
X87311220Y-47125781D01*
X87311218Y-47125778D01*
X87311218Y-47125776D01*
X87264959Y-47034989D01*
X87218287Y-46943390D01*
X87189364Y-46903580D01*
X87097971Y-46777786D01*
X86953213Y-46633028D01*
X86787613Y-46512715D01*
X86787612Y-46512714D01*
X86787610Y-46512713D01*
X86694934Y-46465492D01*
X86605223Y-46419781D01*
X86410534Y-46356522D01*
X86235995Y-46328878D01*
X86208352Y-46324500D01*
X86003648Y-46324500D01*
X85979329Y-46328351D01*
X85801465Y-46356522D01*
X85606776Y-46419781D01*
X85424386Y-46512715D01*
X85258786Y-46633028D01*
X85114028Y-46777786D01*
X84993715Y-46943386D01*
X84900781Y-47125776D01*
X84837522Y-47320465D01*
X84805500Y-47522648D01*
X84805500Y-47727351D01*
X84837522Y-47929534D01*
X84900781Y-48124223D01*
X84964691Y-48249653D01*
X84991402Y-48302075D01*
X84993715Y-48306613D01*
X85114028Y-48472213D01*
X85258779Y-48616964D01*
X85262038Y-48619748D01*
X85300227Y-48678258D01*
X85305500Y-48714033D01*
X85305500Y-48846846D01*
X85336261Y-49001489D01*
X85336264Y-49001501D01*
X85396602Y-49147172D01*
X85396609Y-49147185D01*
X85484210Y-49278288D01*
X85484213Y-49278292D01*
X85523180Y-49317258D01*
X85556666Y-49378581D01*
X85559500Y-49404940D01*
X85559500Y-54053846D01*
X85590261Y-54208489D01*
X85590264Y-54208501D01*
X85643510Y-54337048D01*
X85650979Y-54406517D01*
X85619704Y-54468996D01*
X85559615Y-54504648D01*
X85528949Y-54508500D01*
X83860050Y-54508500D01*
X83793011Y-54488815D01*
X83747256Y-54436011D01*
X83737312Y-54366853D01*
X83742344Y-54345497D01*
X83763079Y-54282921D01*
X83763080Y-54282919D01*
X83773581Y-54180131D01*
X83773580Y-52780114D01*
X83763080Y-52677325D01*
X83707895Y-52510788D01*
X83615793Y-52361466D01*
X83552130Y-52297803D01*
X83518645Y-52236480D01*
X83523629Y-52166788D01*
X83552130Y-52122441D01*
X83579945Y-52094626D01*
X83615793Y-52058778D01*
X83707895Y-51909456D01*
X83763080Y-51742919D01*
X83773581Y-51640131D01*
X83773580Y-50240114D01*
X83773552Y-50239844D01*
X83763080Y-50137325D01*
X83763079Y-50137322D01*
X83762707Y-50136199D01*
X83707895Y-49970788D01*
X83615793Y-49821466D01*
X83552130Y-49757803D01*
X83518645Y-49696480D01*
X83523629Y-49626788D01*
X83552130Y-49582441D01*
X83579945Y-49554626D01*
X83615793Y-49518778D01*
X83707895Y-49369456D01*
X83763080Y-49202919D01*
X83773581Y-49100131D01*
X83773580Y-47700114D01*
X83769063Y-47655900D01*
X83763080Y-47597325D01*
X83763079Y-47597322D01*
X83746408Y-47547012D01*
X83707895Y-47430788D01*
X83615793Y-47281466D01*
X83552130Y-47217803D01*
X83518645Y-47156480D01*
X83523629Y-47086788D01*
X83552130Y-47042441D01*
X83579945Y-47014626D01*
X83615793Y-46978778D01*
X83707895Y-46829456D01*
X83763080Y-46662919D01*
X83773581Y-46560131D01*
X83773580Y-45160114D01*
X83773506Y-45159394D01*
X83763080Y-45057325D01*
X83763079Y-45057322D01*
X83747494Y-45010289D01*
X83707895Y-44890788D01*
X83615793Y-44741466D01*
X83552130Y-44677803D01*
X83518645Y-44616480D01*
X83523629Y-44546788D01*
X83552130Y-44502441D01*
X83580691Y-44473880D01*
X83615793Y-44438778D01*
X83707895Y-44289456D01*
X83712408Y-44275836D01*
X84805500Y-44275836D01*
X84805500Y-44480539D01*
X84837522Y-44682722D01*
X84900781Y-44877411D01*
X84943012Y-44960292D01*
X84992453Y-45057326D01*
X84993715Y-45059801D01*
X85114028Y-45225401D01*
X85258786Y-45370159D01*
X85404358Y-45475921D01*
X85424390Y-45490475D01*
X85540607Y-45549691D01*
X85606776Y-45583406D01*
X85606778Y-45583406D01*
X85606781Y-45583408D01*
X85711137Y-45617315D01*
X85801465Y-45646665D01*
X85876693Y-45658580D01*
X86003648Y-45678688D01*
X86003649Y-45678688D01*
X86208351Y-45678688D01*
X86208352Y-45678688D01*
X86410534Y-45646665D01*
X86605219Y-45583408D01*
X86787610Y-45490475D01*
X86903245Y-45406462D01*
X86953213Y-45370159D01*
X86953215Y-45370156D01*
X86953219Y-45370154D01*
X87097966Y-45225407D01*
X87097968Y-45225403D01*
X87097971Y-45225401D01*
X87172148Y-45123303D01*
X87218287Y-45059798D01*
X87311220Y-44877407D01*
X87374477Y-44682722D01*
X87406500Y-44480540D01*
X87406500Y-44275836D01*
X87396894Y-44215184D01*
X87374477Y-44073653D01*
X87330955Y-43939707D01*
X87311220Y-43878969D01*
X87311218Y-43878966D01*
X87311218Y-43878964D01*
X87248560Y-43755992D01*
X87218287Y-43696578D01*
X87175832Y-43638143D01*
X87097971Y-43530974D01*
X86953213Y-43386216D01*
X86787613Y-43265903D01*
X86787612Y-43265902D01*
X86787610Y-43265901D01*
X86730653Y-43236879D01*
X86605223Y-43172969D01*
X86410534Y-43109710D01*
X86235995Y-43082066D01*
X86208352Y-43077688D01*
X86003648Y-43077688D01*
X85979329Y-43081539D01*
X85801465Y-43109710D01*
X85606776Y-43172969D01*
X85424386Y-43265903D01*
X85258786Y-43386216D01*
X85114028Y-43530974D01*
X84993715Y-43696574D01*
X84900781Y-43878964D01*
X84837522Y-44073653D01*
X84805500Y-44275836D01*
X83712408Y-44275836D01*
X83763080Y-44122919D01*
X83773581Y-44020131D01*
X83773580Y-42620114D01*
X83763080Y-42517325D01*
X83707895Y-42350788D01*
X83615793Y-42201466D01*
X83552130Y-42137803D01*
X83518645Y-42076480D01*
X83523629Y-42006788D01*
X83552130Y-41962441D01*
X83579945Y-41934626D01*
X83615793Y-41898778D01*
X83707895Y-41749456D01*
X83763080Y-41582919D01*
X83773581Y-41480131D01*
X83773580Y-40080114D01*
X83763080Y-39977325D01*
X83707895Y-39810788D01*
X83615793Y-39661466D01*
X83552130Y-39597803D01*
X83518645Y-39536480D01*
X83523629Y-39466788D01*
X83552130Y-39422441D01*
X83579945Y-39394626D01*
X83615793Y-39358778D01*
X83707895Y-39209456D01*
X83763080Y-39042919D01*
X83773581Y-38940131D01*
X83773581Y-38647682D01*
X94450000Y-38647682D01*
X94450000Y-38852317D01*
X94482009Y-39054417D01*
X94545244Y-39249031D01*
X94638141Y-39431350D01*
X94638147Y-39431359D01*
X94670523Y-39475921D01*
X94670524Y-39475922D01*
X95350000Y-38796446D01*
X95350000Y-38802661D01*
X95377259Y-38904394D01*
X95429920Y-38995606D01*
X95504394Y-39070080D01*
X95595606Y-39122741D01*
X95697339Y-39150000D01*
X95703553Y-39150000D01*
X95024076Y-39829474D01*
X95068650Y-39861859D01*
X95250968Y-39954755D01*
X95445582Y-40017990D01*
X95647683Y-40050000D01*
X95852317Y-40050000D01*
X96054417Y-40017990D01*
X96249031Y-39954755D01*
X96431349Y-39861859D01*
X96475921Y-39829474D01*
X95796447Y-39150000D01*
X95802661Y-39150000D01*
X95904394Y-39122741D01*
X95995606Y-39070080D01*
X96070080Y-38995606D01*
X96122741Y-38904394D01*
X96150000Y-38802661D01*
X96150000Y-38796447D01*
X96829474Y-39475921D01*
X96861859Y-39431349D01*
X96954755Y-39249031D01*
X97017990Y-39054417D01*
X97050000Y-38852317D01*
X97050000Y-38647682D01*
X97017990Y-38445582D01*
X96954755Y-38250968D01*
X96861859Y-38068650D01*
X96829474Y-38024077D01*
X96829474Y-38024076D01*
X96150000Y-38703551D01*
X96150000Y-38697339D01*
X96122741Y-38595606D01*
X96070080Y-38504394D01*
X95995606Y-38429920D01*
X95904394Y-38377259D01*
X95802661Y-38350000D01*
X95796446Y-38350000D01*
X96475922Y-37670524D01*
X96475921Y-37670523D01*
X96431359Y-37638147D01*
X96431350Y-37638141D01*
X96249031Y-37545244D01*
X96054417Y-37482009D01*
X95852317Y-37450000D01*
X95647683Y-37450000D01*
X95445582Y-37482009D01*
X95250968Y-37545244D01*
X95068644Y-37638143D01*
X95024077Y-37670523D01*
X95024077Y-37670524D01*
X95703554Y-38350000D01*
X95697339Y-38350000D01*
X95595606Y-38377259D01*
X95504394Y-38429920D01*
X95429920Y-38504394D01*
X95377259Y-38595606D01*
X95350000Y-38697339D01*
X95350000Y-38703553D01*
X94670524Y-38024077D01*
X94670523Y-38024077D01*
X94638143Y-38068644D01*
X94545244Y-38250968D01*
X94482009Y-38445582D01*
X94450000Y-38647682D01*
X83773581Y-38647682D01*
X83773580Y-38218097D01*
X83773580Y-37717783D01*
X83773580Y-37540120D01*
X83773579Y-37540103D01*
X83763080Y-37437325D01*
X83763079Y-37437322D01*
X83755237Y-37413656D01*
X83707895Y-37270788D01*
X83615793Y-37121466D01*
X83552130Y-37057803D01*
X83518645Y-36996480D01*
X83523629Y-36926788D01*
X83552130Y-36882441D01*
X83571159Y-36863412D01*
X83615793Y-36818778D01*
X83707895Y-36669456D01*
X83763080Y-36502919D01*
X83773581Y-36400131D01*
X83773580Y-35114499D01*
X83793265Y-35047461D01*
X83846068Y-35001706D01*
X83897580Y-34990500D01*
X101699500Y-34990500D01*
X101766539Y-35010185D01*
X101812294Y-35062989D01*
X101823500Y-35114500D01*
X101823500Y-35194351D01*
X101855522Y-35396534D01*
X101918781Y-35591223D01*
X102011715Y-35773613D01*
X102132028Y-35939213D01*
X102276786Y-36083971D01*
X102398212Y-36172190D01*
X102442390Y-36204287D01*
X102548502Y-36258354D01*
X102624776Y-36297218D01*
X102624778Y-36297218D01*
X102624781Y-36297220D01*
X102708239Y-36324337D01*
X102819465Y-36360477D01*
X102920557Y-36376488D01*
X103021648Y-36392500D01*
X103021649Y-36392500D01*
X103226351Y-36392500D01*
X103226352Y-36392500D01*
X103428534Y-36360477D01*
X103623219Y-36297220D01*
X103805610Y-36204287D01*
X103902248Y-36134076D01*
X103971213Y-36083971D01*
X103971215Y-36083968D01*
X103971219Y-36083966D01*
X104115966Y-35939219D01*
X104115968Y-35939215D01*
X104115971Y-35939213D01*
X104185425Y-35843616D01*
X104236287Y-35773610D01*
X104329220Y-35591219D01*
X104392477Y-35396534D01*
X104424500Y-35194352D01*
X104424500Y-34989648D01*
X104402744Y-34852288D01*
X104392477Y-34787465D01*
X104335888Y-34613303D01*
X104329220Y-34592781D01*
X104329218Y-34592778D01*
X104329218Y-34592776D01*
X104281474Y-34499075D01*
X104236287Y-34410390D01*
X104203534Y-34365309D01*
X104115971Y-34244786D01*
X103971213Y-34100028D01*
X103805613Y-33979715D01*
X103805612Y-33979714D01*
X103805610Y-33979713D01*
X103746314Y-33949500D01*
X103623223Y-33886781D01*
X103428534Y-33823522D01*
X103253995Y-33795878D01*
X103226352Y-33791500D01*
X103021648Y-33791500D01*
X102904929Y-33809986D01*
X102901290Y-33809515D01*
X102897888Y-33810896D01*
X102866899Y-33805071D01*
X102835636Y-33801031D01*
X102831772Y-33798468D01*
X102829220Y-33797989D01*
X102810123Y-33784112D01*
X102800377Y-33777649D01*
X102799092Y-33776435D01*
X102768543Y-33745886D01*
X102762438Y-33741807D01*
X102754848Y-33734636D01*
X102742287Y-33713110D01*
X102726304Y-33693983D01*
X102724982Y-33683454D01*
X102719634Y-33674289D01*
X102720705Y-33649385D01*
X102717601Y-33624657D01*
X102722180Y-33615086D01*
X102722637Y-33604484D01*
X102737002Y-33584113D01*
X102747760Y-33561632D01*
X102756787Y-33556056D01*
X102762903Y-33547384D01*
X102785998Y-33538013D01*
X102807205Y-33524916D01*
X102823785Y-33522683D01*
X102827647Y-33521117D01*
X102830891Y-33521726D01*
X102840003Y-33520500D01*
X114434261Y-33520500D01*
X114501300Y-33540185D01*
G37*
%TD.AperFunction*%
%TA.AperFunction,Conductor*%
G36*
X113388081Y-49020185D02*
G01*
X113426580Y-49059402D01*
X113432288Y-49068656D01*
X113556344Y-49192712D01*
X113695087Y-49278289D01*
X113711558Y-49288448D01*
X113758283Y-49340396D01*
X113769506Y-49409358D01*
X113741663Y-49473441D01*
X113734144Y-49481668D01*
X113595271Y-49620541D01*
X113470379Y-49792442D01*
X113373904Y-49981782D01*
X113308242Y-50183870D01*
X113308242Y-50183873D01*
X113297769Y-50250000D01*
X114345854Y-50250000D01*
X114307370Y-50316657D01*
X114275000Y-50437465D01*
X114275000Y-50562535D01*
X114307370Y-50683343D01*
X114345854Y-50750000D01*
X113297769Y-50750000D01*
X113308242Y-50816126D01*
X113308242Y-50816129D01*
X113373904Y-51018217D01*
X113470379Y-51207557D01*
X113595272Y-51379459D01*
X113595276Y-51379464D01*
X113745535Y-51529723D01*
X113745540Y-51529727D01*
X113910218Y-51649372D01*
X113952884Y-51704701D01*
X113958863Y-51774315D01*
X113926258Y-51836110D01*
X113910218Y-51850008D01*
X113745214Y-51969890D01*
X113745209Y-51969894D01*
X113594890Y-52120213D01*
X113469951Y-52292179D01*
X113373444Y-52481585D01*
X113373443Y-52481587D01*
X113373443Y-52481588D01*
X113348109Y-52559557D01*
X113307753Y-52683760D01*
X113278901Y-52865924D01*
X113274500Y-52893713D01*
X113274500Y-53106287D01*
X113279272Y-53136417D01*
X113306730Y-53309782D01*
X113307754Y-53316243D01*
X113371801Y-53513359D01*
X113373444Y-53518414D01*
X113469951Y-53707820D01*
X113594890Y-53879786D01*
X113709542Y-53994438D01*
X113743027Y-54055761D01*
X113738043Y-54125453D01*
X113709542Y-54169800D01*
X113407162Y-54472181D01*
X113345839Y-54505666D01*
X113319481Y-54508500D01*
X109326061Y-54508500D01*
X109259022Y-54488815D01*
X109213267Y-54436011D01*
X109203323Y-54366853D01*
X109208130Y-54346182D01*
X109212589Y-54332458D01*
X109267246Y-54164243D01*
X109300500Y-53954287D01*
X109300500Y-53741713D01*
X109267246Y-53531757D01*
X109201557Y-53329588D01*
X109105051Y-53140184D01*
X109105049Y-53140181D01*
X109105048Y-53140179D01*
X108980109Y-52968213D01*
X108829786Y-52817890D01*
X108657820Y-52692951D01*
X108657115Y-52692591D01*
X108649054Y-52688485D01*
X108598259Y-52640512D01*
X108581463Y-52572692D01*
X108603999Y-52506556D01*
X108649054Y-52467515D01*
X108657816Y-52463051D01*
X108735990Y-52406255D01*
X108829786Y-52338109D01*
X108829788Y-52338106D01*
X108829792Y-52338104D01*
X108980104Y-52187792D01*
X108980106Y-52187788D01*
X108980109Y-52187786D01*
X109105048Y-52015820D01*
X109105047Y-52015820D01*
X109105051Y-52015816D01*
X109201557Y-51826412D01*
X109267246Y-51624243D01*
X109300500Y-51414287D01*
X109300500Y-51201713D01*
X109293079Y-51154861D01*
X109302033Y-51085571D01*
X109327868Y-51047787D01*
X110653114Y-49722543D01*
X110653114Y-49722542D01*
X111338837Y-49036819D01*
X111400160Y-49003334D01*
X111426518Y-49000500D01*
X113321042Y-49000500D01*
X113388081Y-49020185D01*
G37*
%TD.AperFunction*%
%TD*%
M02*
