%TF.GenerationSoftware,KiCad,Pcbnew,9.0.6*%
%TF.CreationDate,2025-11-24T14:35:39-08:00*%
%TF.ProjectId,schematic,73636865-6d61-4746-9963-2e6b69636164,rev?*%
%TF.SameCoordinates,Original*%
%TF.FileFunction,Copper,L1,Top*%
%TF.FilePolarity,Positive*%
%FSLAX46Y46*%
G04 Gerber Fmt 4.6, Leading zero omitted, Abs format (unit mm)*
G04 Created by KiCad (PCBNEW 9.0.6) date 2025-11-24 14:35:39*
%MOMM*%
%LPD*%
G01*
G04 APERTURE LIST*
G04 Aperture macros list*
%AMRoundRect*
0 Rectangle with rounded corners*
0 $1 Rounding radius*
0 $2 $3 $4 $5 $6 $7 $8 $9 X,Y pos of 4 corners*
0 Add a 4 corners polygon primitive as box body*
4,1,4,$2,$3,$4,$5,$6,$7,$8,$9,$2,$3,0*
0 Add four circle primitives for the rounded corners*
1,1,$1+$1,$2,$3*
1,1,$1+$1,$4,$5*
1,1,$1+$1,$6,$7*
1,1,$1+$1,$8,$9*
0 Add four rect primitives between the rounded corners*
20,1,$1+$1,$2,$3,$4,$5,0*
20,1,$1+$1,$4,$5,$6,$7,0*
20,1,$1+$1,$6,$7,$8,$9,0*
20,1,$1+$1,$8,$9,$2,$3,0*%
G04 Aperture macros list end*
%TA.AperFunction,ComponentPad*%
%ADD10C,1.600000*%
%TD*%
%TA.AperFunction,ComponentPad*%
%ADD11RoundRect,0.250000X-0.600000X-0.750000X0.600000X-0.750000X0.600000X0.750000X-0.600000X0.750000X0*%
%TD*%
%TA.AperFunction,ComponentPad*%
%ADD12O,1.700000X2.000000*%
%TD*%
%TA.AperFunction,SMDPad,CuDef*%
%ADD13RoundRect,0.150000X-0.150000X0.587500X-0.150000X-0.587500X0.150000X-0.587500X0.150000X0.587500X0*%
%TD*%
%TA.AperFunction,SMDPad,CuDef*%
%ADD14RoundRect,0.250000X1.635000X0.650000X-1.635000X0.650000X-1.635000X-0.650000X1.635000X-0.650000X0*%
%TD*%
%TA.AperFunction,ComponentPad*%
%ADD15RoundRect,0.250000X-0.550000X0.550000X-0.550000X-0.550000X0.550000X-0.550000X0.550000X0.550000X0*%
%TD*%
%TA.AperFunction,SMDPad,CuDef*%
%ADD16C,4.000000*%
%TD*%
%TA.AperFunction,ComponentPad*%
%ADD17C,2.000000*%
%TD*%
%TA.AperFunction,ComponentPad*%
%ADD18R,1.700000X1.700000*%
%TD*%
%TA.AperFunction,ComponentPad*%
%ADD19C,1.700000*%
%TD*%
%TA.AperFunction,ComponentPad*%
%ADD20R,1.050000X1.500000*%
%TD*%
%TA.AperFunction,ComponentPad*%
%ADD21O,1.050000X1.500000*%
%TD*%
%TA.AperFunction,ComponentPad*%
%ADD22RoundRect,0.250000X-0.725000X0.600000X-0.725000X-0.600000X0.725000X-0.600000X0.725000X0.600000X0*%
%TD*%
%TA.AperFunction,ComponentPad*%
%ADD23O,1.950000X1.700000*%
%TD*%
%TA.AperFunction,ComponentPad*%
%ADD24RoundRect,0.250000X0.550000X0.550000X-0.550000X0.550000X-0.550000X-0.550000X0.550000X-0.550000X0*%
%TD*%
%TA.AperFunction,ViaPad*%
%ADD25C,0.600000*%
%TD*%
%TA.AperFunction,Conductor*%
%ADD26C,0.600000*%
%TD*%
%TA.AperFunction,Conductor*%
%ADD27C,0.400000*%
%TD*%
G04 APERTURE END LIST*
D10*
%TO.P,C5,1*%
%TO.N,Net-(U2-VCC)*%
X97549500Y-34590000D03*
%TO.P,C5,2*%
%TO.N,GND*%
X92549500Y-34590000D03*
%TD*%
%TO.P,C2,1*%
%TO.N,+5V*%
X48247500Y-42672000D03*
%TO.P,C2,2*%
%TO.N,GND*%
X43247500Y-42672000D03*
%TD*%
%TO.P,C4,1*%
%TO.N,GND*%
X99301500Y-28340000D03*
%TO.P,C4,2*%
%TO.N,+5VD*%
X94301500Y-28340000D03*
%TD*%
D11*
%TO.P,J2,1,Pin_1*%
%TO.N,Net-(J2-Pin_1)*%
X43969500Y-26035000D03*
D12*
%TO.P,J2,2,Pin_2*%
%TO.N,+5V*%
X46469500Y-26035000D03*
%TD*%
D10*
%TO.P,R4,1*%
%TO.N,Net-(Q2-B)*%
X81775500Y-34290000D03*
%TO.P,R4,2*%
%TO.N,GND*%
X74155500Y-34290000D03*
%TD*%
%TO.P,R5,1*%
%TO.N,D+*%
X74155500Y-28067000D03*
%TO.P,R5,2*%
%TO.N,+3.3V*%
X81775500Y-28067000D03*
%TD*%
D13*
%TO.P,Q1,1,G*%
%TO.N,Net-(Q1-G)*%
X76309500Y-40670000D03*
%TO.P,Q1,2,S*%
%TO.N,+5V*%
X74409500Y-40670000D03*
%TO.P,Q1,3,D*%
%TO.N,+5VD*%
X75359500Y-42545000D03*
%TD*%
D10*
%TO.P,R1,1*%
%TO.N,+5V*%
X74155500Y-37465000D03*
%TO.P,R1,2*%
%TO.N,Net-(Q1-G)*%
X81775500Y-37465000D03*
%TD*%
D14*
%TO.P,U1,1,5V*%
%TO.N,+5V*%
X51657581Y-43320122D03*
%TO.P,U1,2,GND*%
%TO.N,GND*%
X51657581Y-40780122D03*
%TO.P,U1,3,3V3*%
%TO.N,+3.3V*%
X51657581Y-38240122D03*
%TO.P,U1,4,D4*%
%TO.N,CC1*%
X51657581Y-35700122D03*
%TO.P,U1,5,D3*%
%TO.N,CC2*%
X51657581Y-33160122D03*
%TO.P,U1,6,D2*%
%TO.N,unconnected-(U1-D2-Pad6)*%
X51657581Y-30620122D03*
%TO.P,U1,7,D1*%
%TO.N,D+*%
X51657581Y-28080122D03*
%TO.P,U1,8,D0*%
%TO.N,MIC*%
X51657581Y-25540122D03*
%TO.P,U1,9,D5*%
%TO.N,unconnected-(U1-D5-Pad9)*%
X69437581Y-43320122D03*
%TO.P,U1,10,D6*%
%TO.N,LED D*%
X69437581Y-40780122D03*
%TO.P,U1,11,D7*%
%TO.N,unconnected-(U1-D7-Pad11)*%
X69437581Y-38240122D03*
%TO.P,U1,12,D8*%
%TO.N,unconnected-(U1-D8-Pad12)*%
X69437581Y-35700122D03*
%TO.P,U1,13,D9*%
%TO.N,unconnected-(U1-D9-Pad13)*%
X69437581Y-33160122D03*
%TO.P,U1,14,D10*%
%TO.N,LED SW*%
X69437581Y-30620122D03*
%TO.P,U1,15,D20*%
%TO.N,unconnected-(U1-D20-Pad15)*%
X69437581Y-28080122D03*
%TO.P,U1,16,D21*%
%TO.N,unconnected-(U1-D21-Pad16)*%
X69437581Y-25540122D03*
%TD*%
D15*
%TO.P,C3,1*%
%TO.N,+5VD*%
X87617500Y-28504000D03*
D10*
%TO.P,C3,2*%
%TO.N,GND*%
X87617500Y-32004000D03*
%TD*%
D16*
%TO.P,J1,*%
%TO.N,*%
X28118500Y-42290000D03*
X28118500Y-26290000D03*
D17*
%TO.P,J1,A1,GND*%
%TO.N,GND*%
X37833500Y-25400000D03*
%TO.P,J1,A4,VBUS*%
%TO.N,Net-(J2-Pin_1)*%
X37833500Y-27940000D03*
%TO.P,J1,A5,CC1*%
%TO.N,CC1*%
X37833500Y-33020000D03*
%TO.P,J1,A6,D+*%
%TO.N,D+*%
X37833500Y-38100000D03*
%TO.P,J1,A7,D-*%
%TO.N,unconnected-(J1-D--PadA7)*%
X37833500Y-35560000D03*
%TO.P,J1,A8,SBU1*%
%TO.N,unconnected-(J1-SBU1-PadA8)*%
X37833500Y-40640000D03*
%TO.P,J1,B5,CC2*%
%TO.N,CC2*%
X37833500Y-43180000D03*
%TO.P,J1,B8,SBU2*%
%TO.N,unconnected-(J1-SBU2-PadB8)*%
X37833500Y-30480000D03*
%TD*%
D18*
%TO.P,U5,1,GND*%
%TO.N,GND*%
X103746500Y-24805000D03*
D19*
%TO.P,U5,2,DIN*%
%TO.N,Net-(U5-DIN)*%
X103746500Y-27345000D03*
%TO.P,U5,3,VDD*%
%TO.N,+5VD*%
X103746500Y-29885000D03*
%TD*%
D20*
%TO.P,Q2,1,E*%
%TO.N,GND*%
X80802313Y-42016000D03*
D21*
%TO.P,Q2,2,B*%
%TO.N,Net-(Q2-B)*%
X82072313Y-42016000D03*
%TO.P,Q2,3,C*%
%TO.N,Net-(Q1-G)*%
X83342313Y-42016000D03*
%TD*%
D18*
%TO.P,U6,1,ADJ*%
%TO.N,GND*%
X95999500Y-38608000D03*
D19*
%TO.P,U6,2,VO*%
%TO.N,Net-(U2-VCC)*%
X95999500Y-41148000D03*
%TO.P,U6,3,VI*%
%TO.N,+5V*%
X95999500Y-43688000D03*
%TD*%
D10*
%TO.P,R3,1*%
%TO.N,LED SW*%
X74155500Y-31115000D03*
%TO.P,R3,2*%
%TO.N,Net-(Q2-B)*%
X81775500Y-31115000D03*
%TD*%
%TO.P,R2,1*%
%TO.N,LED D*%
X91681500Y-24892000D03*
%TO.P,R2,2*%
%TO.N,Net-(U5-DIN)*%
X99301500Y-24892000D03*
%TD*%
D22*
%TO.P,U2,1,VCC*%
%TO.N,Net-(U2-VCC)*%
X102799500Y-37840000D03*
D23*
%TO.P,U2,2,GND*%
%TO.N,GND*%
X102799500Y-40340000D03*
%TO.P,U2,3,OUT*%
%TO.N,MIC*%
X102799500Y-42840000D03*
%TD*%
D24*
%TO.P,C1,1*%
%TO.N,+5V*%
X46977500Y-36576000D03*
D10*
%TO.P,C1,2*%
%TO.N,GND*%
X44977500Y-36576000D03*
%TD*%
D25*
%TO.N,+5V*%
X63995500Y-41402000D03*
%TO.N,+3.3V*%
X61709500Y-28956000D03*
%TO.N,MIC*%
X57137500Y-26416000D03*
X86093500Y-42672000D03*
%TO.N,D+*%
X40373500Y-30988000D03*
X61709500Y-27940000D03*
X40373500Y-38100000D03*
%TO.N,CC2*%
X48501500Y-40132000D03*
X48501500Y-33020000D03*
%TO.N,Net-(Q2-B)*%
X84569500Y-36576000D03*
%TO.N,LED D*%
X72377500Y-40640000D03*
X75933500Y-30988000D03*
%TD*%
D26*
%TO.N,+5V*%
X74409500Y-43815000D02*
X95872500Y-43815000D01*
X95999500Y-43815000D02*
X95999500Y-43688000D01*
X50394459Y-42672000D02*
X51042581Y-43320122D01*
X95872500Y-43815000D02*
X95999500Y-43688000D01*
X74155500Y-37465000D02*
X74155500Y-38608000D01*
X74409500Y-40670000D02*
X74409500Y-43815000D01*
X74409500Y-38862000D02*
X74409500Y-40670000D01*
X74155500Y-38608000D02*
X74409500Y-38862000D01*
X62077378Y-43320122D02*
X63995500Y-41402000D01*
X48247500Y-42672000D02*
X50394459Y-42672000D01*
X51042581Y-43320122D02*
X62077378Y-43320122D01*
%TO.N,+5VD*%
X83045500Y-29464000D02*
X84005500Y-28504000D01*
X87617500Y-28504000D02*
X94137500Y-28504000D01*
X94301500Y-28340000D02*
X94301500Y-28956000D01*
X75359500Y-38780000D02*
X75383500Y-38756000D01*
X95230500Y-29885000D02*
X103746500Y-29885000D01*
X75359500Y-42545000D02*
X75359500Y-38780000D01*
X75359500Y-42545000D02*
X75383500Y-42521000D01*
X75383500Y-34459000D02*
X80378500Y-29464000D01*
X75383500Y-38756000D02*
X75383500Y-34459000D01*
X80378500Y-29464000D02*
X83045500Y-29464000D01*
X84005500Y-28504000D02*
X87617500Y-28504000D01*
X94301500Y-28956000D02*
X95230500Y-29885000D01*
X94137500Y-28504000D02*
X94301500Y-28340000D01*
D27*
%TO.N,+3.3V*%
X52425378Y-38240122D02*
X61709500Y-28956000D01*
X51042581Y-38240122D02*
X52425378Y-38240122D01*
%TO.N,MIC*%
X103299500Y-43340000D02*
X102799500Y-42840000D01*
X57137500Y-26416000D02*
X56629500Y-25908000D01*
X56629500Y-25908000D02*
X51410459Y-25908000D01*
X103299500Y-43460000D02*
X103299500Y-43340000D01*
X51410459Y-25908000D02*
X51042581Y-25540122D01*
X86255500Y-42510000D02*
X86093500Y-42672000D01*
X102799500Y-42840000D02*
X102469500Y-42510000D01*
X102469500Y-42510000D02*
X86255500Y-42510000D01*
%TO.N,D+*%
X40373500Y-30988000D02*
X43281378Y-28080122D01*
X51042581Y-28080122D02*
X51182703Y-27940000D01*
X37833500Y-38100000D02*
X40373500Y-38100000D01*
X51182703Y-27940000D02*
X61709500Y-27940000D01*
X43281378Y-28080122D02*
X51042581Y-28080122D01*
%TO.N,Net-(U2-VCC)*%
X98158500Y-39116000D02*
X98158500Y-35199000D01*
X98158500Y-39116000D02*
X99134500Y-38140000D01*
X102499500Y-38140000D02*
X102799500Y-37840000D01*
X95999500Y-41148000D02*
X96126500Y-41148000D01*
X98158500Y-35199000D02*
X97549500Y-34590000D01*
X99134500Y-38140000D02*
X102499500Y-38140000D01*
X96126500Y-41148000D02*
X98158500Y-39116000D01*
%TO.N,Net-(U5-DIN)*%
X99301500Y-24892000D02*
X101714500Y-27305000D01*
X102349500Y-27305000D02*
X102389500Y-27345000D01*
X99936500Y-24892000D02*
X99301500Y-24892000D01*
X102389500Y-27345000D02*
X103746500Y-27345000D01*
X99976500Y-24932000D02*
X99936500Y-24892000D01*
X101714500Y-27305000D02*
X102349500Y-27305000D01*
%TO.N,CC1*%
X45538500Y-32089000D02*
X49149622Y-35700122D01*
X37833500Y-33020000D02*
X38764500Y-32089000D01*
X38764500Y-32089000D02*
X45538500Y-32089000D01*
X49149622Y-35700122D02*
X51042581Y-35700122D01*
%TO.N,CC2*%
X37833500Y-43180000D02*
X37833500Y-42600767D01*
X48501500Y-33020000D02*
X50902459Y-33020000D01*
X50902459Y-33020000D02*
X51042581Y-33160122D01*
X40881500Y-40132000D02*
X48501500Y-40132000D01*
X37833500Y-43180000D02*
X40881500Y-40132000D01*
X50394459Y-32512000D02*
X51042581Y-33160122D01*
%TO.N,Net-(Q1-G)*%
X83342313Y-39031813D02*
X83342313Y-42016000D01*
X79514500Y-37465000D02*
X81775500Y-37465000D01*
X76309500Y-40670000D02*
X79514500Y-37465000D01*
X81775500Y-37465000D02*
X83342313Y-39031813D01*
%TO.N,Net-(Q2-B)*%
X81775500Y-34290000D02*
X82283500Y-34290000D01*
X81775500Y-31115000D02*
X81775500Y-34290000D01*
X82283500Y-34290000D02*
X84569500Y-36576000D01*
%TO.N,LED D*%
X72237378Y-40780122D02*
X72377500Y-40640000D01*
X91006500Y-24765000D02*
X91554500Y-24765000D01*
X76441500Y-25400000D02*
X77457500Y-25400000D01*
X91554500Y-24765000D02*
X91681500Y-24892000D01*
X75933500Y-25908000D02*
X76441500Y-25400000D01*
X77965500Y-24892000D02*
X91681500Y-24892000D01*
X77457500Y-25400000D02*
X77965500Y-24892000D01*
X68822581Y-40780122D02*
X72237378Y-40780122D01*
X75933500Y-30988000D02*
X75933500Y-25908000D01*
%TO.N,LED SW*%
X68822581Y-30620122D02*
X70557434Y-30620122D01*
X74155500Y-31115000D02*
X69317459Y-31115000D01*
X69317459Y-31115000D02*
X68822581Y-30620122D01*
D26*
%TO.N,Net-(J2-Pin_1)*%
X39738500Y-26035000D02*
X43969500Y-26035000D01*
X37833500Y-27940000D02*
X39738500Y-26035000D01*
%TD*%
%TA.AperFunction,Conductor*%
%TO.N,GND*%
G36*
X107831360Y-23380185D02*
G01*
X107877115Y-23432989D01*
X107887059Y-23502147D01*
X107858034Y-23565703D01*
X107826321Y-23591887D01*
X107685696Y-23673075D01*
X107477648Y-23832718D01*
X107292218Y-24018148D01*
X107132575Y-24226196D01*
X107001458Y-24453299D01*
X107001453Y-24453309D01*
X106901105Y-24695571D01*
X106901102Y-24695581D01*
X106846329Y-24900000D01*
X106833230Y-24948885D01*
X106799000Y-25208872D01*
X106799000Y-25471127D01*
X106825623Y-25673339D01*
X106833230Y-25731116D01*
X106898331Y-25974076D01*
X106901102Y-25984418D01*
X106901105Y-25984428D01*
X107001453Y-26226690D01*
X107001458Y-26226700D01*
X107132575Y-26453803D01*
X107292218Y-26661851D01*
X107292226Y-26661860D01*
X107477640Y-26847274D01*
X107477648Y-26847281D01*
X107477649Y-26847282D01*
X107509626Y-26871819D01*
X107685696Y-27006924D01*
X107912799Y-27138041D01*
X107912809Y-27138046D01*
X108155071Y-27238394D01*
X108155081Y-27238398D01*
X108408384Y-27306270D01*
X108645662Y-27337509D01*
X108664969Y-27340051D01*
X108668380Y-27340500D01*
X108668387Y-27340500D01*
X108930613Y-27340500D01*
X108930620Y-27340500D01*
X109190616Y-27306270D01*
X109443919Y-27238398D01*
X109648721Y-27153566D01*
X109686190Y-27138046D01*
X109686191Y-27138045D01*
X109686197Y-27138043D01*
X109913303Y-27006924D01*
X110121351Y-26847282D01*
X110121355Y-26847277D01*
X110121360Y-26847274D01*
X110306774Y-26661860D01*
X110306777Y-26661855D01*
X110306782Y-26661851D01*
X110466424Y-26453803D01*
X110507613Y-26382460D01*
X110558179Y-26334246D01*
X110626786Y-26321022D01*
X110691651Y-26346990D01*
X110732180Y-26403904D01*
X110739000Y-26444461D01*
X110739000Y-42155772D01*
X110719315Y-42222811D01*
X110666511Y-42268566D01*
X110597353Y-42278510D01*
X110533797Y-42249485D01*
X110507613Y-42217773D01*
X110493422Y-42193193D01*
X110350115Y-42006434D01*
X110333782Y-41985149D01*
X110333781Y-41985148D01*
X110333774Y-41985140D01*
X110148360Y-41799726D01*
X110148351Y-41799718D01*
X109940303Y-41640075D01*
X109713200Y-41508958D01*
X109713190Y-41508953D01*
X109470928Y-41408605D01*
X109470921Y-41408603D01*
X109470919Y-41408602D01*
X109217616Y-41340730D01*
X109148208Y-41331592D01*
X108957627Y-41306500D01*
X108957620Y-41306500D01*
X108695380Y-41306500D01*
X108695372Y-41306500D01*
X108464272Y-41336926D01*
X108435384Y-41340730D01*
X108201040Y-41403522D01*
X108182081Y-41408602D01*
X108182071Y-41408605D01*
X107939809Y-41508953D01*
X107939799Y-41508958D01*
X107712696Y-41640075D01*
X107504648Y-41799718D01*
X107319218Y-41985148D01*
X107159575Y-42193196D01*
X107028458Y-42420299D01*
X107028453Y-42420309D01*
X106928105Y-42662571D01*
X106928102Y-42662581D01*
X106865902Y-42894718D01*
X106860230Y-42915885D01*
X106826000Y-43175872D01*
X106826000Y-43438127D01*
X106844905Y-43581713D01*
X106860230Y-43698116D01*
X106925610Y-43942119D01*
X106928102Y-43951418D01*
X106928105Y-43951428D01*
X107028453Y-44193690D01*
X107028458Y-44193700D01*
X107159575Y-44420803D01*
X107319218Y-44628851D01*
X107319226Y-44628860D01*
X107504640Y-44814274D01*
X107504648Y-44814281D01*
X107712696Y-44973924D01*
X107788751Y-45017834D01*
X107836966Y-45068401D01*
X107850190Y-45137008D01*
X107824222Y-45201873D01*
X107767308Y-45242401D01*
X107726728Y-45249221D01*
X96354168Y-45247134D01*
X96287132Y-45227437D01*
X96241387Y-45174625D01*
X96231456Y-45105464D01*
X96260493Y-45041914D01*
X96315870Y-45005204D01*
X96517912Y-44939557D01*
X96707316Y-44843051D01*
X96729289Y-44827086D01*
X96879286Y-44718109D01*
X96879288Y-44718106D01*
X96879292Y-44718104D01*
X97029604Y-44567792D01*
X97029606Y-44567788D01*
X97029609Y-44567786D01*
X97154548Y-44395820D01*
X97154547Y-44395820D01*
X97154551Y-44395816D01*
X97251057Y-44206412D01*
X97316746Y-44004243D01*
X97350000Y-43794287D01*
X97350000Y-43581713D01*
X97316746Y-43371757D01*
X97316744Y-43371751D01*
X97315609Y-43367022D01*
X97316918Y-43366707D01*
X97315092Y-43302989D01*
X97351166Y-43243152D01*
X97413864Y-43212318D01*
X97435021Y-43210500D01*
X101284792Y-43210500D01*
X101351831Y-43230185D01*
X101397586Y-43282989D01*
X101402721Y-43296176D01*
X101404935Y-43302989D01*
X101422944Y-43358416D01*
X101519451Y-43547820D01*
X101644390Y-43719786D01*
X101794713Y-43870109D01*
X101966679Y-43995048D01*
X101966681Y-43995049D01*
X101966684Y-43995051D01*
X102156088Y-44091557D01*
X102358257Y-44157246D01*
X102568213Y-44190500D01*
X102568214Y-44190500D01*
X103030786Y-44190500D01*
X103030787Y-44190500D01*
X103210557Y-44162027D01*
X103229955Y-44160500D01*
X103368495Y-44160500D01*
X103459541Y-44142389D01*
X103503828Y-44133580D01*
X103631311Y-44080775D01*
X103746042Y-44004114D01*
X103843614Y-43906542D01*
X103920275Y-43791811D01*
X103938526Y-43747747D01*
X103952767Y-43722318D01*
X103954597Y-43719798D01*
X103954604Y-43719792D01*
X104079551Y-43547816D01*
X104176057Y-43358412D01*
X104241746Y-43156243D01*
X104275000Y-42946287D01*
X104275000Y-42733713D01*
X104241746Y-42523757D01*
X104176057Y-42321588D01*
X104079551Y-42132184D01*
X104079549Y-42132181D01*
X104079548Y-42132179D01*
X103954609Y-41960213D01*
X103804290Y-41809894D01*
X103804285Y-41809890D01*
X103639281Y-41690008D01*
X103596615Y-41634678D01*
X103590636Y-41565065D01*
X103623241Y-41503270D01*
X103639281Y-41489371D01*
X103803966Y-41369721D01*
X103954223Y-41219464D01*
X103954227Y-41219459D01*
X104079120Y-41047557D01*
X104175595Y-40858217D01*
X104241257Y-40656129D01*
X104241257Y-40656126D01*
X104251731Y-40590000D01*
X103203646Y-40590000D01*
X103242130Y-40523343D01*
X103274500Y-40402535D01*
X103274500Y-40277465D01*
X103242130Y-40156657D01*
X103203646Y-40090000D01*
X104251731Y-40090000D01*
X104241257Y-40023873D01*
X104241257Y-40023870D01*
X104175595Y-39821782D01*
X104079120Y-39632442D01*
X103954227Y-39460540D01*
X103954223Y-39460535D01*
X103815356Y-39321668D01*
X103781871Y-39260345D01*
X103786855Y-39190653D01*
X103828727Y-39134720D01*
X103837941Y-39128448D01*
X103843831Y-39124814D01*
X103843834Y-39124814D01*
X103993156Y-39032712D01*
X104117212Y-38908656D01*
X104209314Y-38759334D01*
X104264499Y-38592797D01*
X104275000Y-38490009D01*
X104274999Y-37189992D01*
X104274794Y-37187989D01*
X104264499Y-37087203D01*
X104264498Y-37087200D01*
X104254757Y-37057803D01*
X104209314Y-36920666D01*
X104117212Y-36771344D01*
X103993156Y-36647288D01*
X103877579Y-36576000D01*
X103843836Y-36555187D01*
X103843831Y-36555185D01*
X103790491Y-36537510D01*
X103677297Y-36500001D01*
X103677295Y-36500000D01*
X103574516Y-36489500D01*
X103574509Y-36489500D01*
X102193618Y-36489500D01*
X102126579Y-36469815D01*
X102080824Y-36417011D01*
X102070880Y-36347853D01*
X102072001Y-36341308D01*
X102075000Y-36326231D01*
X102075000Y-36153768D01*
X102074999Y-36153766D01*
X102041355Y-35984626D01*
X102033181Y-35964892D01*
X101975361Y-35825301D01*
X101975354Y-35825288D01*
X101879545Y-35681901D01*
X101879542Y-35681897D01*
X101757602Y-35559957D01*
X101757598Y-35559954D01*
X101614211Y-35464145D01*
X101614198Y-35464138D01*
X101454878Y-35398146D01*
X101454866Y-35398143D01*
X101285732Y-35364500D01*
X101285729Y-35364500D01*
X101113271Y-35364500D01*
X101113268Y-35364500D01*
X100944133Y-35398143D01*
X100944121Y-35398146D01*
X100784801Y-35464138D01*
X100784788Y-35464145D01*
X100641401Y-35559954D01*
X100641397Y-35559957D01*
X100519457Y-35681897D01*
X100519454Y-35681901D01*
X100423645Y-35825288D01*
X100423638Y-35825301D01*
X100357646Y-35984621D01*
X100357643Y-35984633D01*
X100324000Y-36153766D01*
X100324000Y-36326233D01*
X100357643Y-36495366D01*
X100357646Y-36495378D01*
X100423638Y-36654698D01*
X100423645Y-36654711D01*
X100519454Y-36798098D01*
X100519457Y-36798102D01*
X100641397Y-36920042D01*
X100641401Y-36920045D01*
X100784788Y-37015854D01*
X100784801Y-37015861D01*
X100886059Y-37057803D01*
X100944126Y-37081855D01*
X101113266Y-37115499D01*
X101113269Y-37115500D01*
X101200000Y-37115500D01*
X101208685Y-37118050D01*
X101217647Y-37116762D01*
X101241687Y-37127740D01*
X101267039Y-37135185D01*
X101272966Y-37142025D01*
X101281203Y-37145787D01*
X101295492Y-37168021D01*
X101312794Y-37187989D01*
X101315081Y-37198503D01*
X101318977Y-37204565D01*
X101324000Y-37239500D01*
X101324000Y-37315500D01*
X101304315Y-37382539D01*
X101251511Y-37428294D01*
X101200000Y-37439500D01*
X99065502Y-37439500D01*
X99007191Y-37451099D01*
X98937599Y-37444872D01*
X98882422Y-37402008D01*
X98859178Y-37336119D01*
X98859000Y-37329482D01*
X98859000Y-35130004D01*
X98832081Y-34994676D01*
X98832078Y-34994667D01*
X98823351Y-34973599D01*
X98815881Y-34904130D01*
X98817340Y-34897187D01*
X98817977Y-34894532D01*
X98817996Y-34894417D01*
X98850000Y-34692352D01*
X98850000Y-34487648D01*
X98832383Y-34376421D01*
X98817977Y-34285465D01*
X98776844Y-34158872D01*
X98754720Y-34090781D01*
X98754718Y-34090778D01*
X98754718Y-34090776D01*
X98701059Y-33985466D01*
X98661787Y-33908390D01*
X98629592Y-33864077D01*
X98541471Y-33742786D01*
X98396713Y-33598028D01*
X98231113Y-33477715D01*
X98231112Y-33477714D01*
X98231110Y-33477713D01*
X98162552Y-33442781D01*
X98048723Y-33384781D01*
X97854034Y-33321522D01*
X97679495Y-33293878D01*
X97651852Y-33289500D01*
X97447148Y-33289500D01*
X97422829Y-33293351D01*
X97244965Y-33321522D01*
X97050276Y-33384781D01*
X96867886Y-33477715D01*
X96702286Y-33598028D01*
X96557528Y-33742786D01*
X96437215Y-33908386D01*
X96344281Y-34090776D01*
X96281022Y-34285465D01*
X96249000Y-34487648D01*
X96249000Y-34692351D01*
X96281022Y-34894534D01*
X96344281Y-35089223D01*
X96405124Y-35208632D01*
X96437085Y-35271359D01*
X96437215Y-35271613D01*
X96557528Y-35437213D01*
X96702286Y-35581971D01*
X96822726Y-35669474D01*
X96867890Y-35702287D01*
X96984107Y-35761503D01*
X97050276Y-35795218D01*
X97050278Y-35795218D01*
X97050281Y-35795220D01*
X97244966Y-35858477D01*
X97353398Y-35875651D01*
X97416533Y-35905580D01*
X97453464Y-35964892D01*
X97458000Y-35998124D01*
X97458000Y-37363962D01*
X97438315Y-37431001D01*
X97385511Y-37476756D01*
X97316353Y-37486700D01*
X97252797Y-37457675D01*
X97234734Y-37438274D01*
X97206687Y-37400809D01*
X97091593Y-37314649D01*
X97091586Y-37314645D01*
X96956879Y-37264403D01*
X96956872Y-37264401D01*
X96897344Y-37258000D01*
X96249500Y-37258000D01*
X96249500Y-38174988D01*
X96192493Y-38142075D01*
X96065326Y-38108000D01*
X95933674Y-38108000D01*
X95806507Y-38142075D01*
X95749500Y-38174988D01*
X95749500Y-37258000D01*
X95101655Y-37258000D01*
X95042127Y-37264401D01*
X95042120Y-37264403D01*
X94907413Y-37314645D01*
X94907406Y-37314649D01*
X94792312Y-37400809D01*
X94792309Y-37400812D01*
X94706149Y-37515906D01*
X94706145Y-37515913D01*
X94655903Y-37650620D01*
X94655901Y-37650627D01*
X94649500Y-37710155D01*
X94649500Y-38358000D01*
X95566488Y-38358000D01*
X95533575Y-38415007D01*
X95499500Y-38542174D01*
X95499500Y-38673826D01*
X95533575Y-38800993D01*
X95566488Y-38858000D01*
X94649500Y-38858000D01*
X94649500Y-39505844D01*
X94655901Y-39565372D01*
X94655903Y-39565379D01*
X94706145Y-39700086D01*
X94706149Y-39700093D01*
X94792309Y-39815187D01*
X94792312Y-39815190D01*
X94907406Y-39901350D01*
X94907413Y-39901354D01*
X95038970Y-39950422D01*
X95094904Y-39992293D01*
X95119321Y-40057758D01*
X95104469Y-40126031D01*
X95083319Y-40154285D01*
X94969389Y-40268215D01*
X94844451Y-40440179D01*
X94747944Y-40629585D01*
X94747943Y-40629587D01*
X94747943Y-40629588D01*
X94747074Y-40632263D01*
X94682253Y-40831760D01*
X94649000Y-41041713D01*
X94649000Y-41254286D01*
X94680584Y-41453703D01*
X94682254Y-41464243D01*
X94739386Y-41640075D01*
X94741695Y-41647182D01*
X94743690Y-41717023D01*
X94707610Y-41776856D01*
X94644909Y-41807684D01*
X94623764Y-41809500D01*
X86186504Y-41809500D01*
X86051177Y-41836418D01*
X86051167Y-41836421D01*
X85933257Y-41885261D01*
X85909998Y-41892317D01*
X85860007Y-41902261D01*
X85860000Y-41902263D01*
X85714327Y-41962602D01*
X85714314Y-41962609D01*
X85583211Y-42050210D01*
X85583207Y-42050213D01*
X85471713Y-42161707D01*
X85471710Y-42161711D01*
X85384109Y-42292814D01*
X85384102Y-42292827D01*
X85323764Y-42438498D01*
X85323761Y-42438510D01*
X85293000Y-42593153D01*
X85293000Y-42750846D01*
X85315967Y-42866309D01*
X85309740Y-42935900D01*
X85266877Y-42991078D01*
X85200987Y-43014322D01*
X85194350Y-43014500D01*
X84290823Y-43014500D01*
X84223784Y-42994815D01*
X84178029Y-42942011D01*
X84168085Y-42872853D01*
X84187721Y-42821609D01*
X84251095Y-42726762D01*
X84251095Y-42726761D01*
X84251099Y-42726756D01*
X84328404Y-42540127D01*
X84367813Y-42342003D01*
X84367813Y-41689997D01*
X84328404Y-41491873D01*
X84251099Y-41305244D01*
X84251097Y-41305241D01*
X84251095Y-41305237D01*
X84138871Y-41137281D01*
X84079132Y-41077542D01*
X84045647Y-41016219D01*
X84042813Y-40989861D01*
X84042813Y-38962817D01*
X84018482Y-38840501D01*
X84018481Y-38840497D01*
X84017356Y-38834842D01*
X84015893Y-38827484D01*
X83963088Y-38700002D01*
X83886427Y-38585270D01*
X83886425Y-38585267D01*
X83886424Y-38585266D01*
X83095689Y-37794532D01*
X83092305Y-37791148D01*
X83058820Y-37729825D01*
X83057513Y-37684068D01*
X83076000Y-37567352D01*
X83076000Y-37362648D01*
X83065998Y-37299500D01*
X83043977Y-37160465D01*
X82996990Y-37015854D01*
X82980720Y-36965781D01*
X82980718Y-36965778D01*
X82980718Y-36965776D01*
X82947003Y-36899607D01*
X82887787Y-36783390D01*
X82858864Y-36743580D01*
X82767471Y-36617786D01*
X82622713Y-36473028D01*
X82457113Y-36352715D01*
X82457112Y-36352714D01*
X82457110Y-36352713D01*
X82394668Y-36320897D01*
X82274723Y-36259781D01*
X82080034Y-36196522D01*
X81905495Y-36168878D01*
X81877852Y-36164500D01*
X81673148Y-36164500D01*
X81648829Y-36168351D01*
X81470965Y-36196522D01*
X81276276Y-36259781D01*
X81093886Y-36352715D01*
X80928286Y-36473028D01*
X80783530Y-36617784D01*
X80714075Y-36713384D01*
X80658745Y-36756051D01*
X80613756Y-36764500D01*
X79445503Y-36764500D01*
X79337090Y-36786065D01*
X79337089Y-36786065D01*
X79320879Y-36789289D01*
X79310169Y-36791420D01*
X79294046Y-36798099D01*
X79182691Y-36844223D01*
X79068324Y-36920642D01*
X79068282Y-36920670D01*
X79067957Y-36920886D01*
X76593162Y-39395681D01*
X76566234Y-39410384D01*
X76540416Y-39426977D01*
X76534215Y-39427868D01*
X76531839Y-39429166D01*
X76505481Y-39432000D01*
X76284000Y-39432000D01*
X76216961Y-39412315D01*
X76171206Y-39359511D01*
X76160000Y-39308000D01*
X76160000Y-38967708D01*
X76162383Y-38943516D01*
X76163057Y-38940131D01*
X76182311Y-38843334D01*
X76184000Y-38834844D01*
X76184000Y-34841940D01*
X76203685Y-34774901D01*
X76220319Y-34754259D01*
X78244657Y-32729921D01*
X80306850Y-30667727D01*
X80368171Y-30634244D01*
X80437863Y-30639228D01*
X80493796Y-30681100D01*
X80518213Y-30746564D01*
X80512461Y-30793724D01*
X80507025Y-30810455D01*
X80507023Y-30810464D01*
X80507023Y-30810465D01*
X80507023Y-30810466D01*
X80475000Y-31012648D01*
X80475000Y-31217352D01*
X80476696Y-31228060D01*
X80507022Y-31419534D01*
X80570281Y-31614223D01*
X80616542Y-31705013D01*
X80659080Y-31788499D01*
X80663215Y-31796613D01*
X80783528Y-31962213D01*
X80928284Y-32106969D01*
X81023885Y-32176426D01*
X81066551Y-32231755D01*
X81075000Y-32276744D01*
X81075000Y-33128255D01*
X81055315Y-33195294D01*
X81023885Y-33228573D01*
X80928287Y-33298028D01*
X80928282Y-33298032D01*
X80783528Y-33442786D01*
X80663215Y-33608386D01*
X80570281Y-33790776D01*
X80507022Y-33985465D01*
X80475000Y-34187648D01*
X80475000Y-34392351D01*
X80507022Y-34594534D01*
X80570281Y-34789223D01*
X80625361Y-34897322D01*
X80663085Y-34971359D01*
X80663215Y-34971613D01*
X80783528Y-35137213D01*
X80928286Y-35281971D01*
X81083249Y-35394556D01*
X81093890Y-35402287D01*
X81183285Y-35447836D01*
X81276276Y-35495218D01*
X81276278Y-35495218D01*
X81276281Y-35495220D01*
X81337610Y-35515147D01*
X81470965Y-35558477D01*
X81572057Y-35574488D01*
X81673148Y-35590500D01*
X81673149Y-35590500D01*
X81877851Y-35590500D01*
X81877852Y-35590500D01*
X82080034Y-35558477D01*
X82274719Y-35495220D01*
X82342404Y-35460732D01*
X82411070Y-35447836D01*
X82475811Y-35474111D01*
X82486379Y-35483536D01*
X83773428Y-36770585D01*
X83800308Y-36810814D01*
X83860102Y-36955172D01*
X83860109Y-36955185D01*
X83947710Y-37086288D01*
X83947713Y-37086292D01*
X84059207Y-37197786D01*
X84059211Y-37197789D01*
X84190314Y-37285390D01*
X84190327Y-37285397D01*
X84312783Y-37336119D01*
X84336003Y-37345737D01*
X84427626Y-37363962D01*
X84490653Y-37376499D01*
X84490656Y-37376500D01*
X84490658Y-37376500D01*
X84648344Y-37376500D01*
X84648345Y-37376499D01*
X84802997Y-37345737D01*
X84948679Y-37285394D01*
X85079789Y-37197789D01*
X85191289Y-37086289D01*
X85278894Y-36955179D01*
X85339237Y-36809497D01*
X85370000Y-36654842D01*
X85370000Y-36497158D01*
X85370000Y-36497155D01*
X85369999Y-36497153D01*
X85359139Y-36442557D01*
X85339237Y-36342503D01*
X85332496Y-36326229D01*
X85278897Y-36196827D01*
X85278890Y-36196814D01*
X85191289Y-36065711D01*
X85191286Y-36065707D01*
X85079792Y-35954213D01*
X85079788Y-35954210D01*
X84948685Y-35866609D01*
X84948672Y-35866602D01*
X84804314Y-35806808D01*
X84797381Y-35802175D01*
X84792339Y-35801079D01*
X84764085Y-35779928D01*
X83471839Y-34487682D01*
X91249500Y-34487682D01*
X91249500Y-34692317D01*
X91281509Y-34894417D01*
X91344744Y-35089031D01*
X91437641Y-35271350D01*
X91437647Y-35271359D01*
X91470023Y-35315921D01*
X91470024Y-35315922D01*
X92149500Y-34636446D01*
X92149500Y-34642661D01*
X92176759Y-34744394D01*
X92229420Y-34835606D01*
X92303894Y-34910080D01*
X92395106Y-34962741D01*
X92496839Y-34990000D01*
X92503053Y-34990000D01*
X91823576Y-35669474D01*
X91868150Y-35701859D01*
X92050468Y-35794755D01*
X92245082Y-35857990D01*
X92447183Y-35890000D01*
X92651817Y-35890000D01*
X92853917Y-35857990D01*
X93048531Y-35794755D01*
X93230849Y-35701859D01*
X93275421Y-35669474D01*
X92595947Y-34990000D01*
X92602161Y-34990000D01*
X92703894Y-34962741D01*
X92795106Y-34910080D01*
X92869580Y-34835606D01*
X92922241Y-34744394D01*
X92949500Y-34642661D01*
X92949500Y-34636447D01*
X93628974Y-35315921D01*
X93661359Y-35271349D01*
X93754255Y-35089031D01*
X93817490Y-34894417D01*
X93849500Y-34692317D01*
X93849500Y-34487682D01*
X93817490Y-34285582D01*
X93754255Y-34090968D01*
X93661359Y-33908650D01*
X93628974Y-33864077D01*
X93628974Y-33864076D01*
X92949500Y-34543551D01*
X92949500Y-34537339D01*
X92922241Y-34435606D01*
X92869580Y-34344394D01*
X92795106Y-34269920D01*
X92703894Y-34217259D01*
X92602161Y-34190000D01*
X92595946Y-34190000D01*
X93275422Y-33510524D01*
X93275421Y-33510523D01*
X93230859Y-33478147D01*
X93230850Y-33478141D01*
X93048531Y-33385244D01*
X92853917Y-33322009D01*
X92651817Y-33290000D01*
X92447183Y-33290000D01*
X92245082Y-33322009D01*
X92050468Y-33385244D01*
X91868144Y-33478143D01*
X91823577Y-33510523D01*
X91823577Y-33510524D01*
X92503054Y-34190000D01*
X92496839Y-34190000D01*
X92395106Y-34217259D01*
X92303894Y-34269920D01*
X92229420Y-34344394D01*
X92176759Y-34435606D01*
X92149500Y-34537339D01*
X92149500Y-34543553D01*
X91470024Y-33864077D01*
X91470023Y-33864077D01*
X91437643Y-33908644D01*
X91344744Y-34090968D01*
X91281509Y-34285582D01*
X91249500Y-34487682D01*
X83471839Y-34487682D01*
X83086459Y-34102302D01*
X83052974Y-34040979D01*
X83051667Y-34034018D01*
X83043977Y-33985466D01*
X83043977Y-33985465D01*
X83003251Y-33860125D01*
X82980720Y-33790781D01*
X82980718Y-33790778D01*
X82980718Y-33790776D01*
X82890685Y-33614078D01*
X82887784Y-33608385D01*
X82767471Y-33442786D01*
X82622717Y-33298032D01*
X82622712Y-33298028D01*
X82527115Y-33228573D01*
X82523774Y-33224241D01*
X82518797Y-33221968D01*
X82502664Y-33196865D01*
X82484449Y-33173243D01*
X82483196Y-33166571D01*
X82481023Y-33163190D01*
X82476000Y-33128255D01*
X82476000Y-32276744D01*
X82495685Y-32209705D01*
X82527115Y-32176426D01*
X82622715Y-32106969D01*
X82622715Y-32106968D01*
X82622719Y-32106966D01*
X82767466Y-31962219D01*
X82767468Y-31962215D01*
X82767471Y-31962213D01*
X82811449Y-31901682D01*
X86317500Y-31901682D01*
X86317500Y-32106317D01*
X86349509Y-32308417D01*
X86412744Y-32503031D01*
X86505641Y-32685350D01*
X86505647Y-32685359D01*
X86538023Y-32729921D01*
X86538024Y-32729922D01*
X87217500Y-32050446D01*
X87217500Y-32056661D01*
X87244759Y-32158394D01*
X87297420Y-32249606D01*
X87371894Y-32324080D01*
X87463106Y-32376741D01*
X87564839Y-32404000D01*
X87571053Y-32404000D01*
X86891576Y-33083474D01*
X86936150Y-33115859D01*
X87118468Y-33208755D01*
X87313082Y-33271990D01*
X87515183Y-33304000D01*
X87719817Y-33304000D01*
X87921917Y-33271990D01*
X88116531Y-33208755D01*
X88298849Y-33115859D01*
X88343421Y-33083474D01*
X87663947Y-32404000D01*
X87670161Y-32404000D01*
X87771894Y-32376741D01*
X87863106Y-32324080D01*
X87937580Y-32249606D01*
X87990241Y-32158394D01*
X88017500Y-32056661D01*
X88017500Y-32050447D01*
X88696974Y-32729921D01*
X88729359Y-32685349D01*
X88822255Y-32503031D01*
X88885490Y-32308417D01*
X88917500Y-32106317D01*
X88917500Y-31901682D01*
X88885490Y-31699582D01*
X88822255Y-31504968D01*
X88729359Y-31322650D01*
X88696974Y-31278077D01*
X88696974Y-31278076D01*
X88017500Y-31957551D01*
X88017500Y-31951339D01*
X87990241Y-31849606D01*
X87937580Y-31758394D01*
X87863106Y-31683920D01*
X87771894Y-31631259D01*
X87670161Y-31604000D01*
X87663946Y-31604000D01*
X88343422Y-30924524D01*
X88343421Y-30924523D01*
X88298859Y-30892147D01*
X88298850Y-30892141D01*
X88116531Y-30799244D01*
X87921917Y-30736009D01*
X87719817Y-30704000D01*
X87515183Y-30704000D01*
X87313082Y-30736009D01*
X87118468Y-30799244D01*
X86936144Y-30892143D01*
X86891577Y-30924523D01*
X86891577Y-30924524D01*
X87571054Y-31604000D01*
X87564839Y-31604000D01*
X87463106Y-31631259D01*
X87371894Y-31683920D01*
X87297420Y-31758394D01*
X87244759Y-31849606D01*
X87217500Y-31951339D01*
X87217500Y-31957553D01*
X86538024Y-31278077D01*
X86538023Y-31278077D01*
X86505643Y-31322644D01*
X86412744Y-31504968D01*
X86349509Y-31699582D01*
X86317500Y-31901682D01*
X82811449Y-31901682D01*
X82867938Y-31823931D01*
X82877120Y-31811290D01*
X82887787Y-31796610D01*
X82980720Y-31614219D01*
X83043977Y-31419534D01*
X83076000Y-31217352D01*
X83076000Y-31012648D01*
X83062042Y-30924524D01*
X83043977Y-30810465D01*
X82993378Y-30654738D01*
X82980720Y-30615781D01*
X82980718Y-30615778D01*
X82980718Y-30615776D01*
X82893598Y-30444795D01*
X82880702Y-30376126D01*
X82906978Y-30311385D01*
X82964085Y-30271128D01*
X83004083Y-30264500D01*
X83124344Y-30264500D01*
X83124345Y-30264499D01*
X83278997Y-30233737D01*
X83424679Y-30173394D01*
X83555789Y-30085789D01*
X84300759Y-29340819D01*
X84362082Y-29307334D01*
X84388440Y-29304500D01*
X86271592Y-29304500D01*
X86338631Y-29324185D01*
X86377136Y-29368271D01*
X86378895Y-29367187D01*
X86382685Y-29373332D01*
X86382686Y-29373334D01*
X86474788Y-29522656D01*
X86598844Y-29646712D01*
X86748166Y-29738814D01*
X86914703Y-29793999D01*
X87017491Y-29804500D01*
X88217508Y-29804499D01*
X88320297Y-29793999D01*
X88486834Y-29738814D01*
X88636156Y-29646712D01*
X88760212Y-29522656D01*
X88852314Y-29373334D01*
X88852314Y-29373332D01*
X88856105Y-29367187D01*
X88857899Y-29368293D01*
X88897187Y-29323663D01*
X88963408Y-29304500D01*
X93376376Y-29304500D01*
X93443415Y-29324185D01*
X93450231Y-29329250D01*
X93450339Y-29329102D01*
X93454280Y-29331965D01*
X93454281Y-29331966D01*
X93619890Y-29452287D01*
X93695810Y-29490970D01*
X93727195Y-29513773D01*
X94608711Y-30395289D01*
X94691129Y-30477707D01*
X94720212Y-30506790D01*
X94848959Y-30592816D01*
X94851321Y-30594394D01*
X94954333Y-30637062D01*
X94997002Y-30654737D01*
X95062317Y-30667729D01*
X95151652Y-30685499D01*
X95151655Y-30685500D01*
X95151657Y-30685500D01*
X95151658Y-30685500D01*
X102595606Y-30685500D01*
X102662645Y-30705185D01*
X102695922Y-30736612D01*
X102716396Y-30764792D01*
X102716398Y-30764794D01*
X102866713Y-30915109D01*
X103038679Y-31040048D01*
X103038681Y-31040049D01*
X103038684Y-31040051D01*
X103228088Y-31136557D01*
X103430257Y-31202246D01*
X103640213Y-31235500D01*
X103640214Y-31235500D01*
X103852786Y-31235500D01*
X103852787Y-31235500D01*
X104062743Y-31202246D01*
X104264912Y-31136557D01*
X104454316Y-31040051D01*
X104521582Y-30991180D01*
X104626286Y-30915109D01*
X104626288Y-30915106D01*
X104626292Y-30915104D01*
X104776604Y-30764792D01*
X104776606Y-30764788D01*
X104776609Y-30764786D01*
X104899594Y-30595510D01*
X104901551Y-30592816D01*
X104998057Y-30403412D01*
X105063746Y-30201243D01*
X105097000Y-29991287D01*
X105097000Y-29778713D01*
X105063746Y-29568757D01*
X104998057Y-29366588D01*
X104901551Y-29177184D01*
X104901549Y-29177181D01*
X104901548Y-29177179D01*
X104776609Y-29005213D01*
X104626286Y-28854890D01*
X104454320Y-28729951D01*
X104447415Y-28726433D01*
X104445554Y-28725485D01*
X104394759Y-28677512D01*
X104377963Y-28609692D01*
X104400499Y-28543556D01*
X104445554Y-28504515D01*
X104454316Y-28500051D01*
X104512751Y-28457596D01*
X104626286Y-28375109D01*
X104626288Y-28375106D01*
X104626292Y-28375104D01*
X104776604Y-28224792D01*
X104776606Y-28224788D01*
X104776609Y-28224786D01*
X104901548Y-28052820D01*
X104901547Y-28052820D01*
X104901551Y-28052816D01*
X104998057Y-27863412D01*
X105063746Y-27661243D01*
X105097000Y-27451287D01*
X105097000Y-27238713D01*
X105063746Y-27028757D01*
X104998057Y-26826588D01*
X104901551Y-26637184D01*
X104901549Y-26637181D01*
X104901548Y-26637179D01*
X104776609Y-26465213D01*
X104662681Y-26351285D01*
X104629196Y-26289962D01*
X104634180Y-26220270D01*
X104676052Y-26164337D01*
X104707029Y-26147422D01*
X104838586Y-26098354D01*
X104838593Y-26098350D01*
X104953687Y-26012190D01*
X104953690Y-26012187D01*
X105039850Y-25897093D01*
X105039854Y-25897086D01*
X105090096Y-25762379D01*
X105090098Y-25762372D01*
X105096499Y-25702844D01*
X105096500Y-25702827D01*
X105096500Y-25055000D01*
X104179512Y-25055000D01*
X104212425Y-24997993D01*
X104246500Y-24870826D01*
X104246500Y-24739174D01*
X104212425Y-24612007D01*
X104179512Y-24555000D01*
X105096500Y-24555000D01*
X105096500Y-23907172D01*
X105096499Y-23907155D01*
X105090098Y-23847627D01*
X105090096Y-23847620D01*
X105039854Y-23712913D01*
X105039850Y-23712906D01*
X104953690Y-23597812D01*
X104934927Y-23583766D01*
X104893057Y-23527832D01*
X104888073Y-23458141D01*
X104921559Y-23396818D01*
X104982882Y-23363333D01*
X105009239Y-23360500D01*
X107764321Y-23360500D01*
X107831360Y-23380185D01*
G37*
%TD.AperFunction*%
%TA.AperFunction,Conductor*%
G36*
X55430620Y-23380185D02*
G01*
X55476375Y-23432989D01*
X55487581Y-23484500D01*
X55487581Y-25083500D01*
X55467896Y-25150539D01*
X55415092Y-25196294D01*
X55363581Y-25207500D01*
X54167080Y-25207500D01*
X54100041Y-25187815D01*
X54054286Y-25135011D01*
X54043080Y-25083500D01*
X54043080Y-24840120D01*
X54043079Y-24840103D01*
X54032580Y-24737325D01*
X54032579Y-24737322D01*
X54027192Y-24721065D01*
X53977395Y-24570788D01*
X53885293Y-24421466D01*
X53761237Y-24297410D01*
X53633173Y-24218420D01*
X53611917Y-24205309D01*
X53611912Y-24205307D01*
X53570245Y-24191500D01*
X53445378Y-24150123D01*
X53445376Y-24150122D01*
X53342591Y-24139622D01*
X49972579Y-24139622D01*
X49972562Y-24139623D01*
X49869784Y-24150122D01*
X49869781Y-24150123D01*
X49703249Y-24205307D01*
X49703244Y-24205309D01*
X49553923Y-24297411D01*
X49429870Y-24421464D01*
X49337768Y-24570785D01*
X49337766Y-24570790D01*
X49317300Y-24632552D01*
X49282582Y-24737325D01*
X49282582Y-24737326D01*
X49282581Y-24737326D01*
X49272081Y-24840105D01*
X49272081Y-26240123D01*
X49272082Y-26240140D01*
X49282581Y-26342918D01*
X49282582Y-26342921D01*
X49326829Y-26476447D01*
X49337767Y-26509456D01*
X49427900Y-26655586D01*
X49429870Y-26658779D01*
X49493532Y-26722441D01*
X49527017Y-26783764D01*
X49522033Y-26853456D01*
X49493532Y-26897803D01*
X49429870Y-26961464D01*
X49337768Y-27110785D01*
X49337766Y-27110790D01*
X49282581Y-27277326D01*
X49281669Y-27281589D01*
X49248382Y-27343020D01*
X49187167Y-27376703D01*
X49160418Y-27379622D01*
X47484136Y-27379622D01*
X47417097Y-27359937D01*
X47371342Y-27307133D01*
X47361398Y-27237975D01*
X47390423Y-27174419D01*
X47396455Y-27167941D01*
X47445649Y-27118747D01*
X47499604Y-27064792D01*
X47499606Y-27064788D01*
X47499609Y-27064786D01*
X47624548Y-26892820D01*
X47624547Y-26892820D01*
X47624551Y-26892816D01*
X47721057Y-26703412D01*
X47786746Y-26501243D01*
X47820000Y-26291287D01*
X47820000Y-25778713D01*
X47786746Y-25568757D01*
X47721057Y-25366588D01*
X47624551Y-25177184D01*
X47624549Y-25177181D01*
X47624548Y-25177179D01*
X47499609Y-25005213D01*
X47349286Y-24854890D01*
X47177320Y-24729951D01*
X46987914Y-24633444D01*
X46987913Y-24633443D01*
X46987912Y-24633443D01*
X46785743Y-24567754D01*
X46785741Y-24567753D01*
X46785740Y-24567753D01*
X46624457Y-24542208D01*
X46575787Y-24534500D01*
X46363213Y-24534500D01*
X46314542Y-24542208D01*
X46153260Y-24567753D01*
X46153257Y-24567754D01*
X45961845Y-24629948D01*
X45951085Y-24633444D01*
X45761679Y-24729951D01*
X45589715Y-24854889D01*
X45450898Y-24993706D01*
X45389575Y-25027190D01*
X45319883Y-25022206D01*
X45263950Y-24980334D01*
X45257678Y-24971120D01*
X45177267Y-24840753D01*
X45162212Y-24816344D01*
X45038156Y-24692288D01*
X44910955Y-24613830D01*
X44888836Y-24600187D01*
X44888831Y-24600185D01*
X44887362Y-24599698D01*
X44722297Y-24545001D01*
X44722295Y-24545000D01*
X44619510Y-24534500D01*
X43319498Y-24534500D01*
X43319481Y-24534501D01*
X43216703Y-24545000D01*
X43216700Y-24545001D01*
X43050168Y-24600185D01*
X43050163Y-24600187D01*
X42900842Y-24692289D01*
X42776789Y-24816342D01*
X42684687Y-24965663D01*
X42684685Y-24965668D01*
X42629500Y-25132204D01*
X42628588Y-25136467D01*
X42595301Y-25197898D01*
X42534086Y-25231581D01*
X42507337Y-25234500D01*
X39659655Y-25234500D01*
X39505010Y-25265261D01*
X39505002Y-25265263D01*
X39486896Y-25272763D01*
X39417426Y-25280230D01*
X39354947Y-25248954D01*
X39319296Y-25188865D01*
X39316972Y-25177598D01*
X39296565Y-25048753D01*
X39296565Y-25048752D01*
X39223602Y-24824197D01*
X39116414Y-24613828D01*
X39056158Y-24530894D01*
X39056158Y-24530893D01*
X38316462Y-25270590D01*
X38299425Y-25207007D01*
X38233599Y-25092993D01*
X38140507Y-24999901D01*
X38026493Y-24934075D01*
X37962909Y-24917037D01*
X38702605Y-24177340D01*
X38702604Y-24177338D01*
X38619674Y-24117087D01*
X38409302Y-24009897D01*
X38184747Y-23936934D01*
X38184748Y-23936934D01*
X37951552Y-23900000D01*
X37715448Y-23900000D01*
X37482252Y-23936934D01*
X37257697Y-24009897D01*
X37047330Y-24117084D01*
X36964394Y-24177340D01*
X37704091Y-24917037D01*
X37640507Y-24934075D01*
X37526493Y-24999901D01*
X37433401Y-25092993D01*
X37367575Y-25207007D01*
X37350537Y-25270591D01*
X36610840Y-24530894D01*
X36550584Y-24613830D01*
X36443397Y-24824197D01*
X36370434Y-25048752D01*
X36333500Y-25281947D01*
X36333500Y-25518052D01*
X36370434Y-25751247D01*
X36443397Y-25975802D01*
X36550587Y-26186174D01*
X36610838Y-26269104D01*
X36610840Y-26269105D01*
X37350537Y-25529408D01*
X37367575Y-25592993D01*
X37433401Y-25707007D01*
X37526493Y-25800099D01*
X37640507Y-25865925D01*
X37704090Y-25882962D01*
X36964393Y-26622658D01*
X36965948Y-26642405D01*
X36951584Y-26710783D01*
X36915217Y-26752451D01*
X36855990Y-26795482D01*
X36688985Y-26962487D01*
X36688985Y-26962488D01*
X36688983Y-26962490D01*
X36673851Y-26983318D01*
X36550157Y-27153566D01*
X36442933Y-27364003D01*
X36369946Y-27588631D01*
X36333000Y-27821902D01*
X36333000Y-28058097D01*
X36369946Y-28291368D01*
X36442933Y-28515996D01*
X36529783Y-28686447D01*
X36550157Y-28726433D01*
X36688983Y-28917510D01*
X36855990Y-29084517D01*
X36890627Y-29109683D01*
X36933292Y-29165013D01*
X36939271Y-29234626D01*
X36906665Y-29296421D01*
X36890630Y-29310315D01*
X36873400Y-29322834D01*
X36855988Y-29335484D01*
X36688985Y-29502487D01*
X36688985Y-29502488D01*
X36688983Y-29502490D01*
X36674331Y-29522657D01*
X36550157Y-29693566D01*
X36442933Y-29904003D01*
X36369946Y-30128631D01*
X36333000Y-30361902D01*
X36333000Y-30598097D01*
X36369946Y-30831368D01*
X36442933Y-31055996D01*
X36504496Y-31176819D01*
X36550157Y-31266433D01*
X36688983Y-31457510D01*
X36855990Y-31624517D01*
X36890627Y-31649683D01*
X36933292Y-31705013D01*
X36939271Y-31774626D01*
X36906665Y-31836421D01*
X36890630Y-31850315D01*
X36873400Y-31862834D01*
X36855988Y-31875484D01*
X36688985Y-32042487D01*
X36688985Y-32042488D01*
X36688983Y-32042490D01*
X36642610Y-32106317D01*
X36550157Y-32233566D01*
X36442933Y-32444003D01*
X36369946Y-32668631D01*
X36333000Y-32901902D01*
X36333000Y-33138097D01*
X36369946Y-33371368D01*
X36442933Y-33595996D01*
X36517727Y-33742786D01*
X36550157Y-33806433D01*
X36688983Y-33997510D01*
X36855990Y-34164517D01*
X36890627Y-34189683D01*
X36933292Y-34245013D01*
X36939271Y-34314626D01*
X36906665Y-34376421D01*
X36890630Y-34390315D01*
X36887827Y-34392352D01*
X36855988Y-34415484D01*
X36688985Y-34582487D01*
X36688985Y-34582488D01*
X36688983Y-34582490D01*
X36668938Y-34610080D01*
X36550157Y-34773566D01*
X36442933Y-34984003D01*
X36369946Y-35208631D01*
X36333000Y-35441902D01*
X36333000Y-35678097D01*
X36369946Y-35911368D01*
X36442933Y-36135996D01*
X36541985Y-36330394D01*
X36550157Y-36346433D01*
X36688983Y-36537510D01*
X36855990Y-36704517D01*
X36890627Y-36729683D01*
X36933292Y-36785013D01*
X36939271Y-36854626D01*
X36906665Y-36916421D01*
X36890630Y-36930315D01*
X36873400Y-36942834D01*
X36855988Y-36955484D01*
X36688985Y-37122487D01*
X36688985Y-37122488D01*
X36688983Y-37122490D01*
X36634277Y-37197786D01*
X36550157Y-37313566D01*
X36442933Y-37524003D01*
X36369946Y-37748631D01*
X36333000Y-37981902D01*
X36333000Y-38218097D01*
X36369946Y-38451368D01*
X36442933Y-38675996D01*
X36523870Y-38834842D01*
X36550157Y-38886433D01*
X36688983Y-39077510D01*
X36855990Y-39244517D01*
X36890627Y-39269683D01*
X36933292Y-39325013D01*
X36939271Y-39394626D01*
X36906665Y-39456421D01*
X36890630Y-39470315D01*
X36873400Y-39482834D01*
X36855988Y-39495484D01*
X36688985Y-39662487D01*
X36688985Y-39662488D01*
X36688983Y-39662490D01*
X36635276Y-39736411D01*
X36550157Y-39853566D01*
X36442933Y-40064003D01*
X36369946Y-40288631D01*
X36333000Y-40521902D01*
X36333000Y-40758097D01*
X36369946Y-40991368D01*
X36442933Y-41215996D01*
X36510905Y-41349397D01*
X36550157Y-41426433D01*
X36688983Y-41617510D01*
X36855990Y-41784517D01*
X36890627Y-41809683D01*
X36933292Y-41865013D01*
X36939271Y-41934626D01*
X36906665Y-41996421D01*
X36890630Y-42010315D01*
X36882806Y-42016000D01*
X36855988Y-42035484D01*
X36688985Y-42202487D01*
X36688985Y-42202488D01*
X36688983Y-42202490D01*
X36674219Y-42222811D01*
X36550157Y-42393566D01*
X36442933Y-42604003D01*
X36369946Y-42828631D01*
X36333000Y-43061902D01*
X36333000Y-43298097D01*
X36369946Y-43531368D01*
X36442933Y-43755996D01*
X36548612Y-43963401D01*
X36550157Y-43966433D01*
X36688983Y-44157510D01*
X36855990Y-44324517D01*
X37047067Y-44463343D01*
X37146491Y-44514002D01*
X37257503Y-44570566D01*
X37257505Y-44570566D01*
X37257508Y-44570568D01*
X37301116Y-44584737D01*
X37482131Y-44643553D01*
X37715403Y-44680500D01*
X37715408Y-44680500D01*
X37951597Y-44680500D01*
X38184868Y-44643553D01*
X38230116Y-44628851D01*
X38409492Y-44570568D01*
X38619933Y-44463343D01*
X38811010Y-44324517D01*
X38978017Y-44157510D01*
X39116843Y-43966433D01*
X39224068Y-43755992D01*
X39297053Y-43531368D01*
X39301793Y-43501442D01*
X39334000Y-43298097D01*
X39334000Y-43061902D01*
X39297053Y-42828635D01*
X39297053Y-42828632D01*
X39290730Y-42809175D01*
X39288734Y-42739335D01*
X39320978Y-42683177D01*
X39434473Y-42569682D01*
X41947500Y-42569682D01*
X41947500Y-42774317D01*
X41979509Y-42976417D01*
X42042744Y-43171031D01*
X42135641Y-43353350D01*
X42135647Y-43353359D01*
X42168023Y-43397921D01*
X42168024Y-43397922D01*
X42847500Y-42718446D01*
X42847500Y-42724661D01*
X42874759Y-42826394D01*
X42927420Y-42917606D01*
X43001894Y-42992080D01*
X43093106Y-43044741D01*
X43194839Y-43072000D01*
X43201053Y-43072000D01*
X42521576Y-43751474D01*
X42566150Y-43783859D01*
X42748468Y-43876755D01*
X42943082Y-43939990D01*
X43145183Y-43972000D01*
X43349817Y-43972000D01*
X43551917Y-43939990D01*
X43746531Y-43876755D01*
X43928849Y-43783859D01*
X43973421Y-43751474D01*
X43293947Y-43072000D01*
X43300161Y-43072000D01*
X43401894Y-43044741D01*
X43493106Y-42992080D01*
X43567580Y-42917606D01*
X43620241Y-42826394D01*
X43647500Y-42724661D01*
X43647500Y-42718448D01*
X44326974Y-43397922D01*
X44326974Y-43397921D01*
X44359359Y-43353349D01*
X44452255Y-43171031D01*
X44515490Y-42976417D01*
X44547500Y-42774317D01*
X44547500Y-42569682D01*
X44547495Y-42569648D01*
X46947000Y-42569648D01*
X46947000Y-42774351D01*
X46979022Y-42976534D01*
X47042281Y-43171223D01*
X47081611Y-43248411D01*
X47135085Y-43353359D01*
X47135215Y-43353613D01*
X47255528Y-43519213D01*
X47400286Y-43663971D01*
X47520726Y-43751474D01*
X47565890Y-43784287D01*
X47682107Y-43843503D01*
X47748276Y-43877218D01*
X47748278Y-43877218D01*
X47748281Y-43877220D01*
X47799451Y-43893846D01*
X47942965Y-43940477D01*
X48017650Y-43952306D01*
X48145148Y-43972500D01*
X48145149Y-43972500D01*
X48349851Y-43972500D01*
X48349852Y-43972500D01*
X48552034Y-43940477D01*
X48746719Y-43877220D01*
X48929110Y-43784287D01*
X49075196Y-43678149D01*
X49141002Y-43654670D01*
X49209056Y-43670495D01*
X49257751Y-43720601D01*
X49272081Y-43778467D01*
X49272081Y-44020122D01*
X49272082Y-44020141D01*
X49282581Y-44122918D01*
X49282582Y-44122921D01*
X49329153Y-44263462D01*
X49337767Y-44289456D01*
X49429869Y-44438778D01*
X49553925Y-44562834D01*
X49703247Y-44654936D01*
X49869784Y-44710121D01*
X49972572Y-44720622D01*
X53342589Y-44720621D01*
X53445378Y-44710121D01*
X53611915Y-44654936D01*
X53761237Y-44562834D01*
X53885293Y-44438778D01*
X53977395Y-44289456D01*
X54005176Y-44205617D01*
X54044949Y-44148173D01*
X54109465Y-44121350D01*
X54122882Y-44120622D01*
X62156222Y-44120622D01*
X62156223Y-44120621D01*
X62310875Y-44089859D01*
X62456557Y-44029516D01*
X62587667Y-43941911D01*
X64617289Y-41912289D01*
X64632700Y-41889225D01*
X64704894Y-41781179D01*
X64765237Y-41635497D01*
X64772958Y-41596682D01*
X64774597Y-41588444D01*
X64774597Y-41588443D01*
X64796000Y-41480845D01*
X64796000Y-41323155D01*
X64795999Y-41323153D01*
X64783792Y-41261786D01*
X64765237Y-41168503D01*
X64752305Y-41137281D01*
X64704897Y-41022827D01*
X64704890Y-41022814D01*
X64617289Y-40891711D01*
X64617286Y-40891707D01*
X64505792Y-40780213D01*
X64505788Y-40780210D01*
X64374685Y-40692609D01*
X64374672Y-40692602D01*
X64229001Y-40632264D01*
X64228989Y-40632261D01*
X64074345Y-40601500D01*
X64074342Y-40601500D01*
X63916657Y-40601500D01*
X63916655Y-40601500D01*
X63817745Y-40621175D01*
X63775451Y-40629588D01*
X63767351Y-40631199D01*
X63762001Y-40632263D01*
X63761998Y-40632264D01*
X63616327Y-40692602D01*
X63616314Y-40692609D01*
X63507229Y-40765498D01*
X63507228Y-40765500D01*
X63506480Y-40766000D01*
X63485205Y-40780215D01*
X61782119Y-42483303D01*
X61720796Y-42516788D01*
X61694438Y-42519622D01*
X54122882Y-42519622D01*
X54055843Y-42499937D01*
X54010088Y-42447133D01*
X54005176Y-42434626D01*
X54000430Y-42420303D01*
X53977395Y-42350788D01*
X53885293Y-42201466D01*
X53821276Y-42137449D01*
X53787791Y-42076126D01*
X53792775Y-42006434D01*
X53821276Y-41962086D01*
X53884898Y-41898464D01*
X53976937Y-41749246D01*
X53976939Y-41749241D01*
X54032086Y-41582819D01*
X54032087Y-41582812D01*
X54042580Y-41480108D01*
X54042581Y-41480095D01*
X54042581Y-41030122D01*
X49272582Y-41030122D01*
X49272582Y-41480111D01*
X49280709Y-41559665D01*
X49267939Y-41628358D01*
X49220058Y-41679242D01*
X49152268Y-41696162D01*
X49086091Y-41673745D01*
X49084466Y-41672584D01*
X48929113Y-41559715D01*
X48929112Y-41559714D01*
X48929110Y-41559713D01*
X48845721Y-41517224D01*
X48746723Y-41466781D01*
X48552034Y-41403522D01*
X48377495Y-41375878D01*
X48349852Y-41371500D01*
X48145148Y-41371500D01*
X48120829Y-41375351D01*
X47942965Y-41403522D01*
X47748276Y-41466781D01*
X47565886Y-41559715D01*
X47400286Y-41680028D01*
X47255528Y-41824786D01*
X47135215Y-41990386D01*
X47042281Y-42172776D01*
X46979022Y-42367465D01*
X46947000Y-42569648D01*
X44547495Y-42569648D01*
X44515490Y-42367582D01*
X44452255Y-42172968D01*
X44359359Y-41990650D01*
X44326974Y-41946077D01*
X44326974Y-41946076D01*
X43647500Y-42625551D01*
X43647500Y-42619339D01*
X43620241Y-42517606D01*
X43567580Y-42426394D01*
X43493106Y-42351920D01*
X43401894Y-42299259D01*
X43300161Y-42272000D01*
X43293946Y-42272000D01*
X43973422Y-41592524D01*
X43973421Y-41592523D01*
X43928859Y-41560147D01*
X43928850Y-41560141D01*
X43746531Y-41467244D01*
X43551917Y-41404009D01*
X43349817Y-41372000D01*
X43145183Y-41372000D01*
X42943082Y-41404009D01*
X42748468Y-41467244D01*
X42566144Y-41560143D01*
X42521577Y-41592523D01*
X42521577Y-41592524D01*
X43201054Y-42272000D01*
X43194839Y-42272000D01*
X43093106Y-42299259D01*
X43001894Y-42351920D01*
X42927420Y-42426394D01*
X42874759Y-42517606D01*
X42847500Y-42619339D01*
X42847500Y-42625553D01*
X42168024Y-41946077D01*
X42168023Y-41946077D01*
X42135643Y-41990644D01*
X42042744Y-42172968D01*
X41979509Y-42367582D01*
X41947500Y-42569682D01*
X39434473Y-42569682D01*
X41135338Y-40868819D01*
X41196661Y-40835334D01*
X41223019Y-40832500D01*
X48076184Y-40832500D01*
X48123636Y-40841939D01*
X48220870Y-40882214D01*
X48268003Y-40901737D01*
X48387824Y-40925571D01*
X48422653Y-40932499D01*
X48422656Y-40932500D01*
X48422658Y-40932500D01*
X48580344Y-40932500D01*
X48580345Y-40932499D01*
X48734997Y-40901737D01*
X48850100Y-40854060D01*
X48880672Y-40841397D01*
X48880672Y-40841396D01*
X48880679Y-40841394D01*
X49011789Y-40753789D01*
X49123289Y-40642289D01*
X49137397Y-40621175D01*
X49161414Y-40585232D01*
X49215026Y-40540426D01*
X49264516Y-40530122D01*
X54042580Y-40530122D01*
X54042580Y-40080150D01*
X54042579Y-40080135D01*
X54032086Y-39977424D01*
X53976939Y-39811002D01*
X53976937Y-39810997D01*
X53884896Y-39661776D01*
X53821276Y-39598156D01*
X53787791Y-39536833D01*
X53792775Y-39467141D01*
X53821272Y-39422798D01*
X53885293Y-39358778D01*
X53977395Y-39209456D01*
X54032580Y-39042919D01*
X54043081Y-38940131D01*
X54043080Y-37664436D01*
X54062765Y-37597398D01*
X54079394Y-37576761D01*
X61904086Y-29752069D01*
X61944310Y-29725192D01*
X62020663Y-29693567D01*
X62088673Y-29665397D01*
X62088676Y-29665395D01*
X62088679Y-29665394D01*
X62219789Y-29577789D01*
X62331289Y-29466289D01*
X62418894Y-29335179D01*
X62479237Y-29189497D01*
X62510000Y-29034842D01*
X62510000Y-28877158D01*
X62510000Y-28877155D01*
X62509999Y-28877153D01*
X62503049Y-28842213D01*
X62479237Y-28722503D01*
X62475296Y-28712989D01*
X62418897Y-28576827D01*
X62418893Y-28576820D01*
X62415020Y-28571023D01*
X62378849Y-28516890D01*
X62357972Y-28450214D01*
X62376456Y-28382834D01*
X62378850Y-28379108D01*
X62418894Y-28319179D01*
X62479237Y-28173497D01*
X62510000Y-28018842D01*
X62510000Y-27861158D01*
X62510000Y-27861155D01*
X62509999Y-27861153D01*
X62490369Y-27762466D01*
X62479237Y-27706503D01*
X62477993Y-27703500D01*
X62418897Y-27560827D01*
X62418890Y-27560814D01*
X62331289Y-27429711D01*
X62331286Y-27429707D01*
X62219792Y-27318213D01*
X62219788Y-27318210D01*
X62088685Y-27230609D01*
X62088672Y-27230602D01*
X61943001Y-27170264D01*
X61942989Y-27170261D01*
X61788345Y-27139500D01*
X61788342Y-27139500D01*
X61630658Y-27139500D01*
X61630655Y-27139500D01*
X61476010Y-27170261D01*
X61475998Y-27170264D01*
X61331636Y-27230061D01*
X61284184Y-27239500D01*
X57745441Y-27239500D01*
X57678402Y-27219815D01*
X57632647Y-27167011D01*
X57622703Y-27097853D01*
X57651728Y-27034297D01*
X57657760Y-27027819D01*
X57759286Y-26926292D01*
X57759289Y-26926289D01*
X57846894Y-26795179D01*
X57907237Y-26649497D01*
X57938000Y-26494842D01*
X57938000Y-26337158D01*
X57938000Y-26337155D01*
X57937999Y-26337153D01*
X57924463Y-26269104D01*
X57907237Y-26182503D01*
X57903720Y-26174013D01*
X57846897Y-26036827D01*
X57846890Y-26036814D01*
X57759289Y-25905711D01*
X57759286Y-25905707D01*
X57647791Y-25794212D01*
X57647787Y-25794209D01*
X57607401Y-25767224D01*
X57562596Y-25713612D01*
X57553889Y-25644287D01*
X57584044Y-25581259D01*
X57643487Y-25544540D01*
X57676292Y-25540122D01*
X65647581Y-25540122D01*
X65647581Y-23484500D01*
X65667266Y-23417461D01*
X65720070Y-23371706D01*
X65771581Y-23360500D01*
X91462059Y-23360500D01*
X91529098Y-23380185D01*
X91574853Y-23432989D01*
X91584797Y-23502147D01*
X91555772Y-23565703D01*
X91496994Y-23603477D01*
X91481457Y-23606973D01*
X91376965Y-23623522D01*
X91182276Y-23686781D01*
X90999886Y-23779715D01*
X90834286Y-23900028D01*
X90689530Y-24044784D01*
X90638710Y-24114734D01*
X90620629Y-24139622D01*
X90620075Y-24140384D01*
X90564745Y-24183051D01*
X90519756Y-24191500D01*
X77896503Y-24191500D01*
X77788090Y-24213065D01*
X77788089Y-24213065D01*
X77774631Y-24215742D01*
X77761173Y-24218419D01*
X77742395Y-24226197D01*
X77708366Y-24240292D01*
X77708364Y-24240293D01*
X77708363Y-24240292D01*
X77633691Y-24271223D01*
X77524026Y-24344500D01*
X77524023Y-24344502D01*
X77518956Y-24347887D01*
X77518953Y-24347889D01*
X77203662Y-24663181D01*
X77142339Y-24696666D01*
X77115981Y-24699500D01*
X76372503Y-24699500D01*
X76264090Y-24721065D01*
X76264089Y-24721065D01*
X76250631Y-24723742D01*
X76237173Y-24726419D01*
X76237171Y-24726420D01*
X76184366Y-24748292D01*
X76184364Y-24748293D01*
X76184363Y-24748292D01*
X76109691Y-24779223D01*
X76011251Y-24845000D01*
X76011248Y-24845002D01*
X75994959Y-24855884D01*
X75994957Y-24855886D01*
X75389388Y-25461453D01*
X75389387Y-25461454D01*
X75312722Y-25576192D01*
X75259921Y-25703667D01*
X75259918Y-25703679D01*
X75241911Y-25794209D01*
X75241911Y-25794212D01*
X75233000Y-25839006D01*
X75233000Y-27005953D01*
X75213315Y-27072992D01*
X75160511Y-27118747D01*
X75091353Y-27128691D01*
X75027797Y-27099666D01*
X75021319Y-27093634D01*
X75002713Y-27075028D01*
X74837113Y-26954715D01*
X74837112Y-26954714D01*
X74837110Y-26954713D01*
X74780153Y-26925691D01*
X74654723Y-26861781D01*
X74460034Y-26798522D01*
X74285495Y-26770878D01*
X74257852Y-26766500D01*
X74053148Y-26766500D01*
X74028829Y-26770351D01*
X73850965Y-26798522D01*
X73656276Y-26861781D01*
X73473886Y-26954715D01*
X73308286Y-27075028D01*
X73163528Y-27219786D01*
X73043215Y-27385386D01*
X72950281Y-27567776D01*
X72887022Y-27762465D01*
X72855000Y-27964648D01*
X72855000Y-28169351D01*
X72887022Y-28371534D01*
X72950281Y-28566223D01*
X72998158Y-28660185D01*
X73031913Y-28726433D01*
X73043215Y-28748613D01*
X73163528Y-28914213D01*
X73308286Y-29058971D01*
X73454243Y-29165013D01*
X73473890Y-29179287D01*
X73534168Y-29210000D01*
X73656276Y-29272218D01*
X73656278Y-29272218D01*
X73656281Y-29272220D01*
X73730764Y-29296421D01*
X73850965Y-29335477D01*
X73943429Y-29350122D01*
X74053148Y-29367500D01*
X74053149Y-29367500D01*
X74257851Y-29367500D01*
X74257852Y-29367500D01*
X74460034Y-29335477D01*
X74654719Y-29272220D01*
X74837110Y-29179287D01*
X74967555Y-29084514D01*
X75002713Y-29058971D01*
X75002715Y-29058968D01*
X75002719Y-29058966D01*
X75021319Y-29040366D01*
X75082642Y-29006881D01*
X75152334Y-29011865D01*
X75208267Y-29053737D01*
X75232684Y-29119201D01*
X75233000Y-29128047D01*
X75233000Y-30053953D01*
X75213315Y-30120992D01*
X75160511Y-30166747D01*
X75091353Y-30176691D01*
X75027797Y-30147666D01*
X75021319Y-30141634D01*
X75002713Y-30123028D01*
X74837113Y-30002715D01*
X74837112Y-30002714D01*
X74837110Y-30002713D01*
X74780153Y-29973691D01*
X74654723Y-29909781D01*
X74460034Y-29846522D01*
X74275669Y-29817322D01*
X74257852Y-29814500D01*
X74053148Y-29814500D01*
X74035331Y-29817322D01*
X73850965Y-29846522D01*
X73656276Y-29909781D01*
X73473886Y-30002715D01*
X73308286Y-30123028D01*
X73163530Y-30267784D01*
X73109603Y-30342011D01*
X73095152Y-30361902D01*
X73094075Y-30363384D01*
X73038745Y-30406051D01*
X72993756Y-30414500D01*
X71947080Y-30414500D01*
X71880041Y-30394815D01*
X71834286Y-30342011D01*
X71823080Y-30290500D01*
X71823080Y-29920120D01*
X71823079Y-29920103D01*
X71812580Y-29817325D01*
X71812579Y-29817322D01*
X71808330Y-29804499D01*
X71757395Y-29650788D01*
X71665293Y-29501466D01*
X71601630Y-29437803D01*
X71568145Y-29376480D01*
X71573129Y-29306788D01*
X71601630Y-29262441D01*
X71629445Y-29234626D01*
X71665293Y-29198778D01*
X71757395Y-29049456D01*
X71812580Y-28882919D01*
X71823081Y-28780131D01*
X71823080Y-27380114D01*
X71812580Y-27277325D01*
X71757395Y-27110788D01*
X71665293Y-26961466D01*
X71601630Y-26897803D01*
X71568145Y-26836480D01*
X71573129Y-26766788D01*
X71601630Y-26722441D01*
X71620659Y-26703412D01*
X71665293Y-26658778D01*
X71757395Y-26509456D01*
X71812580Y-26342919D01*
X71823081Y-26240131D01*
X71823080Y-24840114D01*
X71818380Y-24794108D01*
X71812580Y-24737325D01*
X71812579Y-24737322D01*
X71807192Y-24721065D01*
X71757395Y-24570788D01*
X71665293Y-24421466D01*
X71541237Y-24297410D01*
X71413173Y-24218420D01*
X71391917Y-24205309D01*
X71391912Y-24205307D01*
X71350245Y-24191500D01*
X71225378Y-24150123D01*
X71225376Y-24150122D01*
X71122591Y-24139622D01*
X67752579Y-24139622D01*
X67752562Y-24139623D01*
X67649784Y-24150122D01*
X67649781Y-24150123D01*
X67483249Y-24205307D01*
X67483244Y-24205309D01*
X67333923Y-24297411D01*
X67209870Y-24421464D01*
X67117768Y-24570785D01*
X67117766Y-24570790D01*
X67097300Y-24632552D01*
X67062582Y-24737325D01*
X67062582Y-24737326D01*
X67062581Y-24737326D01*
X67052081Y-24840105D01*
X67052081Y-26240123D01*
X67052082Y-26240140D01*
X67062581Y-26342918D01*
X67062582Y-26342921D01*
X67106829Y-26476447D01*
X67117767Y-26509456D01*
X67207900Y-26655586D01*
X67209870Y-26658779D01*
X67273532Y-26722441D01*
X67307017Y-26783764D01*
X67302033Y-26853456D01*
X67273532Y-26897803D01*
X67209870Y-26961464D01*
X67117768Y-27110785D01*
X67117766Y-27110790D01*
X67096682Y-27174419D01*
X67062582Y-27277325D01*
X67062582Y-27277326D01*
X67062581Y-27277326D01*
X67052081Y-27380105D01*
X67052081Y-28780123D01*
X67052082Y-28780140D01*
X67062581Y-28882918D01*
X67062582Y-28882921D01*
X67117766Y-29049453D01*
X67117768Y-29049458D01*
X67134050Y-29075855D01*
X67204144Y-29189497D01*
X67209870Y-29198779D01*
X67273532Y-29262441D01*
X67307017Y-29323764D01*
X67302033Y-29393456D01*
X67273532Y-29437803D01*
X67209870Y-29501464D01*
X67117768Y-29650785D01*
X67117767Y-29650788D01*
X67062582Y-29817325D01*
X67062582Y-29817326D01*
X67062581Y-29817326D01*
X67052081Y-29920105D01*
X67052081Y-31320123D01*
X67052082Y-31320140D01*
X67062581Y-31422918D01*
X67062582Y-31422921D01*
X67117766Y-31589453D01*
X67117768Y-31589458D01*
X67130308Y-31609789D01*
X67188478Y-31704098D01*
X67209870Y-31738779D01*
X67273532Y-31802441D01*
X67307017Y-31863764D01*
X67302033Y-31933456D01*
X67273532Y-31977803D01*
X67209870Y-32041464D01*
X67117768Y-32190785D01*
X67117766Y-32190790D01*
X67089930Y-32274792D01*
X67062582Y-32357325D01*
X67062582Y-32357326D01*
X67062581Y-32357326D01*
X67052081Y-32460105D01*
X67052081Y-33860123D01*
X67052082Y-33860140D01*
X67062581Y-33962918D01*
X67062582Y-33962921D01*
X67104950Y-34090776D01*
X67117767Y-34129456D01*
X67204405Y-34269920D01*
X67209870Y-34278779D01*
X67273532Y-34342441D01*
X67307017Y-34403764D01*
X67302033Y-34473456D01*
X67273532Y-34517803D01*
X67209870Y-34581464D01*
X67117768Y-34730785D01*
X67117766Y-34730790D01*
X67089930Y-34814792D01*
X67062582Y-34897325D01*
X67062582Y-34897326D01*
X67062581Y-34897326D01*
X67052081Y-35000105D01*
X67052081Y-36400123D01*
X67052082Y-36400140D01*
X67062581Y-36502918D01*
X67062582Y-36502921D01*
X67112877Y-36654698D01*
X67117767Y-36669456D01*
X67204144Y-36809497D01*
X67209870Y-36818779D01*
X67273532Y-36882441D01*
X67307017Y-36943764D01*
X67302033Y-37013456D01*
X67273532Y-37057803D01*
X67209870Y-37121464D01*
X67117768Y-37270785D01*
X67117766Y-37270790D01*
X67096118Y-37336119D01*
X67062582Y-37437325D01*
X67062582Y-37437326D01*
X67062581Y-37437326D01*
X67052081Y-37540105D01*
X67052081Y-38940123D01*
X67052082Y-38940140D01*
X67062581Y-39042918D01*
X67062582Y-39042921D01*
X67117766Y-39209453D01*
X67117768Y-39209458D01*
X67142379Y-39249358D01*
X67202588Y-39346974D01*
X67209870Y-39358779D01*
X67273532Y-39422441D01*
X67307017Y-39483764D01*
X67302033Y-39553456D01*
X67273532Y-39597803D01*
X67209870Y-39661464D01*
X67117768Y-39810785D01*
X67117766Y-39810790D01*
X67093693Y-39883439D01*
X67062582Y-39977325D01*
X67062582Y-39977326D01*
X67062581Y-39977326D01*
X67052081Y-40080105D01*
X67052081Y-41480123D01*
X67052082Y-41480140D01*
X67062581Y-41582918D01*
X67062582Y-41582921D01*
X67117766Y-41749453D01*
X67117768Y-41749458D01*
X67134667Y-41776856D01*
X67209675Y-41898464D01*
X67209870Y-41898779D01*
X67273532Y-41962441D01*
X67307017Y-42023764D01*
X67302033Y-42093456D01*
X67273532Y-42137803D01*
X67209870Y-42201464D01*
X67117768Y-42350785D01*
X67117767Y-42350788D01*
X67062582Y-42517325D01*
X67062582Y-42517326D01*
X67062581Y-42517326D01*
X67052081Y-42620105D01*
X67052081Y-44020123D01*
X67052082Y-44020140D01*
X67062581Y-44122918D01*
X67062582Y-44122921D01*
X67109153Y-44263462D01*
X67117767Y-44289456D01*
X67209869Y-44438778D01*
X67333925Y-44562834D01*
X67483247Y-44654936D01*
X67649784Y-44710121D01*
X67752572Y-44720622D01*
X71122589Y-44720621D01*
X71225378Y-44710121D01*
X71391915Y-44654936D01*
X71541237Y-44562834D01*
X71665293Y-44438778D01*
X71757395Y-44289456D01*
X71812580Y-44122919D01*
X71823081Y-44020131D01*
X71823080Y-42620114D01*
X71820326Y-42593158D01*
X71812580Y-42517325D01*
X71812579Y-42517322D01*
X71799262Y-42477135D01*
X71757395Y-42350788D01*
X71665293Y-42201466D01*
X71601630Y-42137803D01*
X71568145Y-42076480D01*
X71573129Y-42006788D01*
X71601630Y-41962441D01*
X71629445Y-41934626D01*
X71665293Y-41898778D01*
X71757395Y-41749456D01*
X71812580Y-41582919D01*
X71812580Y-41582915D01*
X71813493Y-41578655D01*
X71846780Y-41517224D01*
X71907995Y-41483541D01*
X71934744Y-41480622D01*
X72306374Y-41480622D01*
X72441701Y-41453703D01*
X72441701Y-41453702D01*
X72441706Y-41453702D01*
X72478215Y-41438578D01*
X72501477Y-41431522D01*
X72553372Y-41421198D01*
X72610997Y-41409737D01*
X72756679Y-41349394D01*
X72887789Y-41261789D01*
X72999289Y-41150289D01*
X73086894Y-41019179D01*
X73147237Y-40873497D01*
X73178000Y-40718842D01*
X73178000Y-40561158D01*
X73178000Y-40561155D01*
X73177999Y-40561153D01*
X73173876Y-40540426D01*
X73147237Y-40406503D01*
X73098414Y-40288632D01*
X73086897Y-40260827D01*
X73086890Y-40260814D01*
X72999289Y-40129711D01*
X72999286Y-40129707D01*
X72887792Y-40018213D01*
X72887788Y-40018210D01*
X72756685Y-39930609D01*
X72756672Y-39930602D01*
X72611001Y-39870264D01*
X72610989Y-39870261D01*
X72456345Y-39839500D01*
X72456342Y-39839500D01*
X72298658Y-39839500D01*
X72298655Y-39839500D01*
X72144010Y-39870261D01*
X72143998Y-39870264D01*
X71998327Y-39930602D01*
X71998311Y-39930611D01*
X71968955Y-39950226D01*
X71902277Y-39971103D01*
X71834898Y-39952617D01*
X71788208Y-39900638D01*
X71782360Y-39886128D01*
X71757395Y-39810788D01*
X71665293Y-39661466D01*
X71601630Y-39597803D01*
X71568145Y-39536480D01*
X71573129Y-39466788D01*
X71601630Y-39422441D01*
X71629445Y-39394626D01*
X71665293Y-39358778D01*
X71757395Y-39209456D01*
X71812580Y-39042919D01*
X71823081Y-38940131D01*
X71823080Y-37540114D01*
X71818563Y-37495900D01*
X71812580Y-37437325D01*
X71812579Y-37437322D01*
X71797099Y-37390606D01*
X71757395Y-37270788D01*
X71665293Y-37121466D01*
X71601630Y-37057803D01*
X71568145Y-36996480D01*
X71573129Y-36926788D01*
X71601630Y-36882441D01*
X71629445Y-36854626D01*
X71665293Y-36818778D01*
X71757395Y-36669456D01*
X71812580Y-36502919D01*
X71823081Y-36400131D01*
X71823080Y-35000114D01*
X71820371Y-34973599D01*
X71812580Y-34897325D01*
X71812579Y-34897322D01*
X71776757Y-34789219D01*
X71757395Y-34730788D01*
X71665293Y-34581466D01*
X71601630Y-34517803D01*
X71568145Y-34456480D01*
X71573129Y-34386788D01*
X71601630Y-34342441D01*
X71629445Y-34314626D01*
X71665293Y-34278778D01*
X71757395Y-34129456D01*
X71812580Y-33962919D01*
X71823081Y-33860131D01*
X71823080Y-33138097D01*
X71823080Y-32460120D01*
X71823079Y-32460103D01*
X71812580Y-32357325D01*
X71812579Y-32357322D01*
X71801564Y-32324080D01*
X71757395Y-32190788D01*
X71665293Y-32041466D01*
X71651008Y-32027181D01*
X71617523Y-31965858D01*
X71622507Y-31896166D01*
X71664379Y-31840233D01*
X71729843Y-31815816D01*
X71738689Y-31815500D01*
X72993756Y-31815500D01*
X73060795Y-31835185D01*
X73094075Y-31866616D01*
X73163530Y-31962215D01*
X73308286Y-32106971D01*
X73449690Y-32209705D01*
X73473890Y-32227287D01*
X73570955Y-32276744D01*
X73656276Y-32320218D01*
X73656278Y-32320218D01*
X73656281Y-32320220D01*
X73760637Y-32354127D01*
X73850965Y-32383477D01*
X73943985Y-32398210D01*
X74053148Y-32415500D01*
X74053149Y-32415500D01*
X74257851Y-32415500D01*
X74257852Y-32415500D01*
X74460034Y-32383477D01*
X74654719Y-32320220D01*
X74837110Y-32227287D01*
X74931934Y-32158394D01*
X75002713Y-32106971D01*
X75002715Y-32106968D01*
X75002719Y-32106966D01*
X75147466Y-31962219D01*
X75147468Y-31962215D01*
X75147471Y-31962213D01*
X75254063Y-31815500D01*
X75267787Y-31796610D01*
X75314924Y-31704097D01*
X75362898Y-31653301D01*
X75430719Y-31636506D01*
X75494300Y-31657290D01*
X75554314Y-31697390D01*
X75554327Y-31697397D01*
X75681324Y-31750000D01*
X75700003Y-31757737D01*
X75854653Y-31788499D01*
X75854656Y-31788500D01*
X75854658Y-31788500D01*
X76012344Y-31788500D01*
X76012345Y-31788499D01*
X76166997Y-31757737D01*
X76312679Y-31697394D01*
X76443789Y-31609789D01*
X76555289Y-31498289D01*
X76642894Y-31367179D01*
X76703237Y-31221497D01*
X76734000Y-31066842D01*
X76734000Y-30909158D01*
X76734000Y-30909155D01*
X76733999Y-30909153D01*
X76730615Y-30892141D01*
X76703237Y-30754503D01*
X76672833Y-30681100D01*
X76643439Y-30610136D01*
X76634000Y-30562684D01*
X76634000Y-26249518D01*
X76642644Y-26220077D01*
X76649168Y-26190091D01*
X76652922Y-26185075D01*
X76653685Y-26182479D01*
X76670319Y-26161837D01*
X76695337Y-26136819D01*
X76756660Y-26103334D01*
X76783018Y-26100500D01*
X77526496Y-26100500D01*
X77617540Y-26082389D01*
X77661828Y-26073580D01*
X77750558Y-26036827D01*
X77789307Y-26020777D01*
X77789308Y-26020776D01*
X77789311Y-26020775D01*
X77904043Y-25944114D01*
X78219338Y-25628817D01*
X78280660Y-25595334D01*
X78307018Y-25592500D01*
X90519756Y-25592500D01*
X90586795Y-25612185D01*
X90620075Y-25643616D01*
X90689530Y-25739215D01*
X90834286Y-25883971D01*
X90960683Y-25975802D01*
X90999890Y-26004287D01*
X91116107Y-26063503D01*
X91182276Y-26097218D01*
X91182278Y-26097218D01*
X91182281Y-26097220D01*
X91229690Y-26112624D01*
X91376965Y-26160477D01*
X91478057Y-26176488D01*
X91579148Y-26192500D01*
X91579149Y-26192500D01*
X91783851Y-26192500D01*
X91783852Y-26192500D01*
X91986034Y-26160477D01*
X92180719Y-26097220D01*
X92363110Y-26004287D01*
X92456090Y-25936732D01*
X92528713Y-25883971D01*
X92528715Y-25883968D01*
X92528719Y-25883966D01*
X92673466Y-25739219D01*
X92673468Y-25739215D01*
X92673471Y-25739213D01*
X92741002Y-25646263D01*
X92793787Y-25573610D01*
X92886720Y-25391219D01*
X92949977Y-25196534D01*
X92982000Y-24994352D01*
X92982000Y-24789648D01*
X92972545Y-24729951D01*
X92949977Y-24587465D01*
X92897351Y-24425500D01*
X92886720Y-24392781D01*
X92886718Y-24392778D01*
X92886718Y-24392776D01*
X92824783Y-24271223D01*
X92793787Y-24210390D01*
X92750001Y-24150123D01*
X92673471Y-24044786D01*
X92528713Y-23900028D01*
X92363113Y-23779715D01*
X92363112Y-23779714D01*
X92363110Y-23779713D01*
X92306153Y-23750691D01*
X92180723Y-23686781D01*
X91986034Y-23623522D01*
X91881543Y-23606973D01*
X91818408Y-23577044D01*
X91781477Y-23517732D01*
X91782475Y-23447870D01*
X91821085Y-23389637D01*
X91885049Y-23361523D01*
X91900941Y-23360500D01*
X99082059Y-23360500D01*
X99149098Y-23380185D01*
X99194853Y-23432989D01*
X99204797Y-23502147D01*
X99175772Y-23565703D01*
X99116994Y-23603477D01*
X99101457Y-23606973D01*
X98996965Y-23623522D01*
X98802276Y-23686781D01*
X98619886Y-23779715D01*
X98454286Y-23900028D01*
X98309528Y-24044786D01*
X98189215Y-24210386D01*
X98096281Y-24392776D01*
X98033022Y-24587465D01*
X98009287Y-24737325D01*
X98001000Y-24789648D01*
X98001000Y-24994352D01*
X98002720Y-25005213D01*
X98033022Y-25196534D01*
X98096281Y-25391223D01*
X98136995Y-25471127D01*
X98186740Y-25568757D01*
X98189215Y-25573613D01*
X98309528Y-25739213D01*
X98454286Y-25883971D01*
X98580683Y-25975802D01*
X98619890Y-26004287D01*
X98736107Y-26063503D01*
X98802276Y-26097218D01*
X98802278Y-26097218D01*
X98802281Y-26097220D01*
X98849690Y-26112624D01*
X98996965Y-26160477D01*
X99098057Y-26176488D01*
X99199148Y-26192500D01*
X99199149Y-26192500D01*
X99403850Y-26192500D01*
X99403852Y-26192500D01*
X99520568Y-26174013D01*
X99589862Y-26182967D01*
X99627648Y-26208805D01*
X100402161Y-26983317D01*
X101170386Y-27751542D01*
X101240746Y-27821902D01*
X101267959Y-27849115D01*
X101382682Y-27925771D01*
X101382686Y-27925773D01*
X101382689Y-27925775D01*
X101457366Y-27956707D01*
X101510171Y-27978580D01*
X101531297Y-27982782D01*
X101596208Y-27995693D01*
X101645505Y-28005500D01*
X101645507Y-28005500D01*
X102128929Y-28005500D01*
X102176381Y-28014939D01*
X102181734Y-28017156D01*
X102185172Y-28018580D01*
X102185176Y-28018580D01*
X102185177Y-28018581D01*
X102320504Y-28045500D01*
X102320507Y-28045500D01*
X102522953Y-28045500D01*
X102589992Y-28065185D01*
X102623269Y-28096614D01*
X102638983Y-28118241D01*
X102716392Y-28224788D01*
X102866713Y-28375109D01*
X103038682Y-28500050D01*
X103047446Y-28504516D01*
X103098242Y-28552491D01*
X103115036Y-28620312D01*
X103092498Y-28686447D01*
X103047446Y-28725484D01*
X103038682Y-28729949D01*
X102866713Y-28854890D01*
X102716398Y-29005205D01*
X102716398Y-29005206D01*
X102716396Y-29005208D01*
X102695922Y-29033386D01*
X102640594Y-29076051D01*
X102595606Y-29084500D01*
X100583532Y-29084500D01*
X100516493Y-29064815D01*
X100470738Y-29012011D01*
X100460794Y-28942853D01*
X100473047Y-28904205D01*
X100506255Y-28839031D01*
X100569490Y-28644417D01*
X100601500Y-28442317D01*
X100601500Y-28237682D01*
X100569490Y-28035582D01*
X100506255Y-27840968D01*
X100413359Y-27658650D01*
X100380974Y-27614077D01*
X100380974Y-27614076D01*
X99701500Y-28293551D01*
X99701500Y-28287339D01*
X99674241Y-28185606D01*
X99621580Y-28094394D01*
X99547106Y-28019920D01*
X99455894Y-27967259D01*
X99354161Y-27940000D01*
X99347946Y-27940000D01*
X100027422Y-27260524D01*
X100027421Y-27260523D01*
X99982859Y-27228147D01*
X99982850Y-27228141D01*
X99800531Y-27135244D01*
X99605917Y-27072009D01*
X99403817Y-27040000D01*
X99199183Y-27040000D01*
X98997082Y-27072009D01*
X98802468Y-27135244D01*
X98620144Y-27228143D01*
X98575577Y-27260523D01*
X98575577Y-27260524D01*
X99255054Y-27940000D01*
X99248839Y-27940000D01*
X99147106Y-27967259D01*
X99055894Y-28019920D01*
X98981420Y-28094394D01*
X98928759Y-28185606D01*
X98901500Y-28287339D01*
X98901500Y-28293553D01*
X98222024Y-27614077D01*
X98222023Y-27614077D01*
X98189643Y-27658644D01*
X98096744Y-27840968D01*
X98033509Y-28035582D01*
X98001500Y-28237682D01*
X98001500Y-28442317D01*
X98033509Y-28644417D01*
X98096744Y-28839031D01*
X98129953Y-28904205D01*
X98142849Y-28972874D01*
X98116573Y-29037614D01*
X98059467Y-29077872D01*
X98019468Y-29084500D01*
X95613440Y-29084500D01*
X95583999Y-29075855D01*
X95554013Y-29069332D01*
X95548997Y-29065577D01*
X95546401Y-29064815D01*
X95525759Y-29048181D01*
X95506317Y-29028739D01*
X95472832Y-28967416D01*
X95477816Y-28897724D01*
X95483507Y-28884775D01*
X95506720Y-28839219D01*
X95569977Y-28644534D01*
X95602000Y-28442352D01*
X95602000Y-28237648D01*
X95583877Y-28123225D01*
X95569977Y-28035465D01*
X95534335Y-27925771D01*
X95506720Y-27840781D01*
X95506718Y-27840778D01*
X95506718Y-27840776D01*
X95454985Y-27739246D01*
X95413787Y-27658390D01*
X95381592Y-27614077D01*
X95293471Y-27492786D01*
X95148713Y-27348028D01*
X94983113Y-27227715D01*
X94983112Y-27227714D01*
X94983110Y-27227713D01*
X94900728Y-27185737D01*
X94800723Y-27134781D01*
X94606034Y-27071522D01*
X94431495Y-27043878D01*
X94403852Y-27039500D01*
X94199148Y-27039500D01*
X94174829Y-27043351D01*
X93996965Y-27071522D01*
X93802276Y-27134781D01*
X93619886Y-27227715D01*
X93454286Y-27348028D01*
X93309528Y-27492786D01*
X93193575Y-27652385D01*
X93138246Y-27695051D01*
X93093257Y-27703500D01*
X88963408Y-27703500D01*
X88896369Y-27683815D01*
X88857863Y-27639728D01*
X88856105Y-27640813D01*
X88852314Y-27634666D01*
X88760212Y-27485344D01*
X88636156Y-27361288D01*
X88500031Y-27277326D01*
X88486836Y-27269187D01*
X88486831Y-27269185D01*
X88460691Y-27260523D01*
X88320297Y-27214001D01*
X88320295Y-27214000D01*
X88217510Y-27203500D01*
X87017498Y-27203500D01*
X87017481Y-27203501D01*
X86914703Y-27214000D01*
X86914700Y-27214001D01*
X86748168Y-27269185D01*
X86748163Y-27269187D01*
X86598842Y-27361289D01*
X86474789Y-27485342D01*
X86474788Y-27485344D01*
X86395386Y-27614077D01*
X86378895Y-27640813D01*
X86377100Y-27639706D01*
X86337813Y-27684337D01*
X86271592Y-27703500D01*
X83926655Y-27703500D01*
X83772010Y-27734261D01*
X83771998Y-27734264D01*
X83626327Y-27794602D01*
X83626314Y-27794609D01*
X83495211Y-27882210D01*
X83495207Y-27882213D01*
X83287681Y-28089740D01*
X83226358Y-28123225D01*
X83156666Y-28118241D01*
X83100733Y-28076369D01*
X83076316Y-28010905D01*
X83076000Y-28002059D01*
X83076000Y-27964648D01*
X83043977Y-27762465D01*
X83010159Y-27658386D01*
X82980720Y-27567781D01*
X82980718Y-27567778D01*
X82980718Y-27567776D01*
X82942508Y-27492786D01*
X82887787Y-27385390D01*
X82870276Y-27361288D01*
X82767471Y-27219786D01*
X82622713Y-27075028D01*
X82457113Y-26954715D01*
X82457112Y-26954714D01*
X82457110Y-26954713D01*
X82400153Y-26925691D01*
X82274723Y-26861781D01*
X82080034Y-26798522D01*
X81905495Y-26770878D01*
X81877852Y-26766500D01*
X81673148Y-26766500D01*
X81648829Y-26770351D01*
X81470965Y-26798522D01*
X81276276Y-26861781D01*
X81093886Y-26954715D01*
X80928286Y-27075028D01*
X80783528Y-27219786D01*
X80663215Y-27385386D01*
X80570281Y-27567776D01*
X80507022Y-27762465D01*
X80476499Y-27955186D01*
X80475000Y-27964648D01*
X80475000Y-28169352D01*
X80483780Y-28224786D01*
X80507023Y-28371535D01*
X80507023Y-28371538D01*
X80549148Y-28501182D01*
X80551143Y-28571023D01*
X80515063Y-28630856D01*
X80452362Y-28661684D01*
X80431217Y-28663500D01*
X80299653Y-28663500D01*
X80145010Y-28694260D01*
X80145002Y-28694262D01*
X79999324Y-28754604D01*
X79999314Y-28754609D01*
X79868211Y-28842210D01*
X79868207Y-28842213D01*
X76069608Y-32640814D01*
X74873211Y-33837211D01*
X74820422Y-33890000D01*
X74761709Y-33948712D01*
X74674109Y-34079814D01*
X74674106Y-34079820D01*
X74651635Y-34134070D01*
X74624756Y-34174297D01*
X74555500Y-34243553D01*
X74555500Y-34237339D01*
X74528241Y-34135606D01*
X74475580Y-34044394D01*
X74401106Y-33969920D01*
X74309894Y-33917259D01*
X74208161Y-33890000D01*
X74201946Y-33890000D01*
X74881422Y-33210524D01*
X74881421Y-33210523D01*
X74836859Y-33178147D01*
X74836850Y-33178141D01*
X74654531Y-33085244D01*
X74459917Y-33022009D01*
X74257817Y-32990000D01*
X74053183Y-32990000D01*
X73851082Y-33022009D01*
X73656468Y-33085244D01*
X73474144Y-33178143D01*
X73429577Y-33210523D01*
X73429577Y-33210524D01*
X74109054Y-33890000D01*
X74102839Y-33890000D01*
X74001106Y-33917259D01*
X73909894Y-33969920D01*
X73835420Y-34044394D01*
X73782759Y-34135606D01*
X73755500Y-34237339D01*
X73755500Y-34243553D01*
X73076024Y-33564077D01*
X73076023Y-33564077D01*
X73043643Y-33608644D01*
X72950744Y-33790968D01*
X72887509Y-33985582D01*
X72855500Y-34187682D01*
X72855500Y-34392317D01*
X72887509Y-34594417D01*
X72950744Y-34789031D01*
X73043641Y-34971350D01*
X73043647Y-34971359D01*
X73076023Y-35015921D01*
X73076024Y-35015922D01*
X73755500Y-34336446D01*
X73755500Y-34342661D01*
X73782759Y-34444394D01*
X73835420Y-34535606D01*
X73909894Y-34610080D01*
X74001106Y-34662741D01*
X74102839Y-34690000D01*
X74109053Y-34690000D01*
X73429576Y-35369474D01*
X73474150Y-35401859D01*
X73656468Y-35494755D01*
X73851082Y-35557990D01*
X74053183Y-35590000D01*
X74257816Y-35590000D01*
X74439601Y-35561207D01*
X74508895Y-35570161D01*
X74562347Y-35615157D01*
X74582987Y-35681909D01*
X74583000Y-35683680D01*
X74583000Y-36070813D01*
X74563315Y-36137852D01*
X74510511Y-36183607D01*
X74441353Y-36193551D01*
X74439602Y-36193286D01*
X74286775Y-36169081D01*
X74257852Y-36164500D01*
X74053148Y-36164500D01*
X74028829Y-36168351D01*
X73850965Y-36196522D01*
X73656276Y-36259781D01*
X73473886Y-36352715D01*
X73308286Y-36473028D01*
X73163528Y-36617786D01*
X73043215Y-36783386D01*
X72950281Y-36965776D01*
X72887022Y-37160465D01*
X72860129Y-37330263D01*
X72855000Y-37362648D01*
X72855000Y-37567352D01*
X72858541Y-37589707D01*
X72887022Y-37769534D01*
X72950281Y-37964223D01*
X73014191Y-38089653D01*
X73040902Y-38142075D01*
X73043215Y-38146613D01*
X73163528Y-38312213D01*
X73308279Y-38456964D01*
X73311538Y-38459748D01*
X73349727Y-38518258D01*
X73355000Y-38554033D01*
X73355000Y-38686846D01*
X73385761Y-38841489D01*
X73385764Y-38841501D01*
X73446102Y-38987172D01*
X73446109Y-38987185D01*
X73533710Y-39118288D01*
X73533713Y-39118292D01*
X73572680Y-39157258D01*
X73606166Y-39218581D01*
X73609000Y-39244940D01*
X73609000Y-43893846D01*
X73639761Y-44048489D01*
X73639764Y-44048501D01*
X73700102Y-44194172D01*
X73700109Y-44194185D01*
X73787710Y-44325288D01*
X73787713Y-44325292D01*
X73899207Y-44436786D01*
X73899211Y-44436789D01*
X74030314Y-44524390D01*
X74030327Y-44524397D01*
X74175998Y-44584735D01*
X74176003Y-44584737D01*
X74271844Y-44603801D01*
X74330653Y-44615499D01*
X74330656Y-44615500D01*
X74330658Y-44615500D01*
X74488342Y-44615500D01*
X94965742Y-44615500D01*
X95032781Y-44635185D01*
X95053423Y-44651819D01*
X95119713Y-44718109D01*
X95291679Y-44843048D01*
X95291681Y-44843049D01*
X95291684Y-44843051D01*
X95481088Y-44939557D01*
X95682728Y-45005074D01*
X95740400Y-45044509D01*
X95767599Y-45108868D01*
X95755685Y-45177714D01*
X95708441Y-45229190D01*
X95644384Y-45247003D01*
X27580117Y-45234512D01*
X27580102Y-45234511D01*
X27518658Y-45234500D01*
X27509814Y-45234183D01*
X27309693Y-45219835D01*
X27292184Y-45217314D01*
X27100492Y-45175582D01*
X27083519Y-45170596D01*
X26899711Y-45102010D01*
X26883620Y-45094659D01*
X26711440Y-45000613D01*
X26696560Y-44991047D01*
X26539520Y-44873462D01*
X26526152Y-44861876D01*
X26387440Y-44723138D01*
X26375863Y-44709776D01*
X26258296Y-44552702D01*
X26248738Y-44537826D01*
X26154723Y-44365626D01*
X26147381Y-44349548D01*
X26078821Y-44165711D01*
X26073842Y-44148748D01*
X26061533Y-44092158D01*
X26066519Y-44022467D01*
X26108392Y-43966534D01*
X26173857Y-43942119D01*
X26242129Y-43956972D01*
X26270381Y-43978122D01*
X26449675Y-44157416D01*
X26669252Y-44332523D01*
X26907055Y-44481945D01*
X27160092Y-44603801D01*
X27359180Y-44673465D01*
X27425170Y-44696556D01*
X27425182Y-44696560D01*
X27698991Y-44759055D01*
X27698997Y-44759055D01*
X27699005Y-44759057D01*
X27885047Y-44780018D01*
X27978069Y-44790499D01*
X27978072Y-44790500D01*
X27978075Y-44790500D01*
X28258928Y-44790500D01*
X28258929Y-44790499D01*
X28401555Y-44774429D01*
X28537994Y-44759057D01*
X28537999Y-44759056D01*
X28538009Y-44759055D01*
X28811818Y-44696560D01*
X29076908Y-44603801D01*
X29329945Y-44481945D01*
X29567748Y-44332523D01*
X29787325Y-44157416D01*
X29985916Y-43958825D01*
X30161023Y-43739248D01*
X30310445Y-43501445D01*
X30432301Y-43248408D01*
X30525060Y-42983318D01*
X30587555Y-42709509D01*
X30591782Y-42671999D01*
X30606640Y-42540127D01*
X30619000Y-42430425D01*
X30619000Y-42149575D01*
X30597934Y-41962606D01*
X30587557Y-41870505D01*
X30587554Y-41870487D01*
X30579778Y-41836420D01*
X30525060Y-41596682D01*
X30522177Y-41588444D01*
X30497492Y-41517896D01*
X30432301Y-41331592D01*
X30310445Y-41078555D01*
X30161023Y-40840752D01*
X29985916Y-40621175D01*
X29787325Y-40422584D01*
X29762184Y-40402535D01*
X29715740Y-40365497D01*
X29567748Y-40247477D01*
X29329945Y-40098055D01*
X29329942Y-40098053D01*
X29076911Y-39976200D01*
X28811829Y-39883443D01*
X28811817Y-39883439D01*
X28538012Y-39820945D01*
X28537994Y-39820942D01*
X28258931Y-39789500D01*
X28258925Y-39789500D01*
X27978075Y-39789500D01*
X27978068Y-39789500D01*
X27699005Y-39820942D01*
X27698987Y-39820945D01*
X27425182Y-39883439D01*
X27425170Y-39883443D01*
X27160088Y-39976200D01*
X26907057Y-40098053D01*
X26669253Y-40247476D01*
X26449675Y-40422583D01*
X26251083Y-40621175D01*
X26235947Y-40640156D01*
X26178759Y-40680296D01*
X26108947Y-40683146D01*
X26048677Y-40647800D01*
X26017084Y-40585482D01*
X26015000Y-40562843D01*
X26015000Y-28017156D01*
X26034685Y-27950117D01*
X26087489Y-27904362D01*
X26156647Y-27894418D01*
X26220203Y-27923443D01*
X26235942Y-27939838D01*
X26251084Y-27958825D01*
X26449675Y-28157416D01*
X26669252Y-28332523D01*
X26907055Y-28481945D01*
X27160092Y-28603801D01*
X27325512Y-28661684D01*
X27425170Y-28696556D01*
X27425182Y-28696560D01*
X27698991Y-28759055D01*
X27698997Y-28759055D01*
X27699005Y-28759057D01*
X27885047Y-28780018D01*
X27978069Y-28790499D01*
X27978072Y-28790500D01*
X27978075Y-28790500D01*
X28258928Y-28790500D01*
X28258929Y-28790499D01*
X28401555Y-28774429D01*
X28537994Y-28759057D01*
X28537999Y-28759056D01*
X28538009Y-28759055D01*
X28811818Y-28696560D01*
X29076908Y-28603801D01*
X29329945Y-28481945D01*
X29567748Y-28332523D01*
X29787325Y-28157416D01*
X29985916Y-27958825D01*
X30161023Y-27739248D01*
X30310445Y-27501445D01*
X30432301Y-27248408D01*
X30525060Y-26983318D01*
X30587555Y-26709509D01*
X30590769Y-26680989D01*
X30611021Y-26501239D01*
X30619000Y-26430425D01*
X30619000Y-26149575D01*
X30602630Y-26004284D01*
X30587557Y-25870505D01*
X30587554Y-25870487D01*
X30571488Y-25800099D01*
X30525060Y-25596682D01*
X30524588Y-25595334D01*
X30481124Y-25471120D01*
X30432301Y-25331592D01*
X30310445Y-25078555D01*
X30161023Y-24840752D01*
X29985916Y-24621175D01*
X29787325Y-24422584D01*
X29749949Y-24392778D01*
X29738363Y-24383538D01*
X29567748Y-24247477D01*
X29360229Y-24117084D01*
X29329942Y-24098053D01*
X29076911Y-23976200D01*
X28811829Y-23883443D01*
X28811817Y-23883439D01*
X28538012Y-23820945D01*
X28537994Y-23820942D01*
X28258931Y-23789500D01*
X28258925Y-23789500D01*
X27978075Y-23789500D01*
X27978068Y-23789500D01*
X27699005Y-23820942D01*
X27698987Y-23820945D01*
X27425182Y-23883439D01*
X27425170Y-23883443D01*
X27160088Y-23976200D01*
X26907057Y-24098053D01*
X26669253Y-24247476D01*
X26449675Y-24422583D01*
X26270679Y-24601579D01*
X26270507Y-24601672D01*
X26270413Y-24601845D01*
X26239773Y-24618455D01*
X26209356Y-24635064D01*
X26209161Y-24635050D01*
X26208988Y-24635144D01*
X26174233Y-24632552D01*
X26139664Y-24630080D01*
X26139507Y-24629962D01*
X26139312Y-24629948D01*
X26111520Y-24609011D01*
X26083731Y-24588208D01*
X26083662Y-24588025D01*
X26083506Y-24587907D01*
X26071457Y-24555302D01*
X26059314Y-24522744D01*
X26059332Y-24522489D01*
X26059288Y-24522369D01*
X26061911Y-24487176D01*
X26075527Y-24425488D01*
X26080645Y-24408315D01*
X26151131Y-24222218D01*
X26158683Y-24205946D01*
X26159037Y-24205309D01*
X26255284Y-24031976D01*
X26265097Y-24016976D01*
X26385800Y-23858761D01*
X26397679Y-23845329D01*
X26539955Y-23706186D01*
X26553637Y-23694618D01*
X26714512Y-23577462D01*
X26729718Y-23567992D01*
X26905810Y-23475281D01*
X26922237Y-23468099D01*
X27065487Y-23417461D01*
X27109847Y-23401780D01*
X27127151Y-23397039D01*
X27128271Y-23396818D01*
X27300289Y-23362849D01*
X27324312Y-23360500D01*
X55363581Y-23360500D01*
X55430620Y-23380185D01*
G37*
%TD.AperFunction*%
%TA.AperFunction,Conductor*%
G36*
X80680795Y-38185185D02*
G01*
X80714075Y-38216616D01*
X80783530Y-38312215D01*
X80928286Y-38456971D01*
X81057762Y-38551039D01*
X81093890Y-38577287D01*
X81210107Y-38636503D01*
X81276276Y-38670218D01*
X81276278Y-38670218D01*
X81276281Y-38670220D01*
X81327451Y-38686846D01*
X81470965Y-38733477D01*
X81572057Y-38749488D01*
X81673148Y-38765500D01*
X81673149Y-38765500D01*
X81877850Y-38765500D01*
X81877852Y-38765500D01*
X81994568Y-38747013D01*
X82063862Y-38755967D01*
X82101648Y-38781805D01*
X82605494Y-39285651D01*
X82638979Y-39346974D01*
X82641813Y-39373332D01*
X82641813Y-40731322D01*
X82622128Y-40798361D01*
X82569324Y-40844116D01*
X82500166Y-40854060D01*
X82470360Y-40845883D01*
X82371440Y-40804909D01*
X82371432Y-40804907D01*
X82173320Y-40765500D01*
X82173316Y-40765500D01*
X81971310Y-40765500D01*
X81971305Y-40765500D01*
X81773193Y-40804907D01*
X81773181Y-40804910D01*
X81691974Y-40838547D01*
X81622504Y-40846016D01*
X81577453Y-40826405D01*
X81577185Y-40826897D01*
X81571687Y-40823894D01*
X81570208Y-40823251D01*
X81569399Y-40822645D01*
X81434692Y-40772403D01*
X81434685Y-40772401D01*
X81375157Y-40766000D01*
X81052313Y-40766000D01*
X81052313Y-41650134D01*
X81052281Y-41652953D01*
X81052035Y-41663740D01*
X81046813Y-41689997D01*
X81046813Y-41730170D01*
X81032568Y-41715925D01*
X80947058Y-41666556D01*
X80851683Y-41641000D01*
X80752943Y-41641000D01*
X80657568Y-41666556D01*
X80572058Y-41715925D01*
X80552313Y-41735670D01*
X80552313Y-40766000D01*
X80229468Y-40766000D01*
X80169940Y-40772401D01*
X80169933Y-40772403D01*
X80035226Y-40822645D01*
X80035219Y-40822649D01*
X79920125Y-40908809D01*
X79920122Y-40908812D01*
X79833962Y-41023906D01*
X79833958Y-41023913D01*
X79783716Y-41158620D01*
X79783714Y-41158627D01*
X79777313Y-41218155D01*
X79777313Y-41766000D01*
X80521983Y-41766000D01*
X80502238Y-41785745D01*
X80452869Y-41871255D01*
X80427313Y-41966630D01*
X80427313Y-42065370D01*
X80452869Y-42160745D01*
X80502238Y-42246255D01*
X80521983Y-42266000D01*
X79777313Y-42266000D01*
X79777313Y-42813841D01*
X79784131Y-42877243D01*
X79771727Y-42946003D01*
X79724117Y-42997141D01*
X79660842Y-43014500D01*
X76284000Y-43014500D01*
X76275314Y-43011949D01*
X76266353Y-43013238D01*
X76242312Y-43002259D01*
X76216961Y-42994815D01*
X76211033Y-42987974D01*
X76202797Y-42984213D01*
X76188507Y-42961978D01*
X76171206Y-42942011D01*
X76168918Y-42931496D01*
X76165023Y-42925435D01*
X76160000Y-42890500D01*
X76160000Y-42732708D01*
X76162383Y-42708516D01*
X76184000Y-42599844D01*
X76184000Y-42442155D01*
X76162383Y-42333482D01*
X76160000Y-42309290D01*
X76160000Y-42032000D01*
X76179685Y-41964961D01*
X76232489Y-41919206D01*
X76284000Y-41908000D01*
X76525186Y-41908000D01*
X76525194Y-41908000D01*
X76562069Y-41905098D01*
X76562071Y-41905097D01*
X76562073Y-41905097D01*
X76616704Y-41889225D01*
X76719898Y-41859244D01*
X76861365Y-41775581D01*
X76977581Y-41659365D01*
X77061244Y-41517898D01*
X77107098Y-41360069D01*
X77110000Y-41323194D01*
X77110000Y-40911518D01*
X77129685Y-40844479D01*
X77146319Y-40823837D01*
X79768337Y-38201819D01*
X79829660Y-38168334D01*
X79856018Y-38165500D01*
X80613756Y-38165500D01*
X80680795Y-38185185D01*
G37*
%TD.AperFunction*%
%TA.AperFunction,Conductor*%
G36*
X101437581Y-38860185D02*
G01*
X101476080Y-38899402D01*
X101481788Y-38908656D01*
X101605844Y-39032712D01*
X101744587Y-39118289D01*
X101761058Y-39128448D01*
X101807783Y-39180396D01*
X101819006Y-39249358D01*
X101791163Y-39313441D01*
X101783644Y-39321668D01*
X101644771Y-39460541D01*
X101519879Y-39632442D01*
X101423404Y-39821782D01*
X101357742Y-40023870D01*
X101357742Y-40023873D01*
X101347269Y-40090000D01*
X102395354Y-40090000D01*
X102356870Y-40156657D01*
X102324500Y-40277465D01*
X102324500Y-40402535D01*
X102356870Y-40523343D01*
X102395354Y-40590000D01*
X101347269Y-40590000D01*
X101357742Y-40656126D01*
X101357742Y-40656129D01*
X101423404Y-40858217D01*
X101519879Y-41047557D01*
X101644772Y-41219459D01*
X101644776Y-41219464D01*
X101795035Y-41369723D01*
X101795040Y-41369727D01*
X101959718Y-41489372D01*
X101976895Y-41511648D01*
X101996502Y-41531822D01*
X101997945Y-41538945D01*
X102002384Y-41544701D01*
X102004791Y-41572729D01*
X102010378Y-41600300D01*
X102007741Y-41607073D01*
X102008363Y-41614315D01*
X101995234Y-41639197D01*
X101985029Y-41665410D01*
X101977587Y-41672641D01*
X101975758Y-41676110D01*
X101959719Y-41690008D01*
X101895026Y-41737011D01*
X101827847Y-41785818D01*
X101762044Y-41809298D01*
X101754964Y-41809500D01*
X97375236Y-41809500D01*
X97308197Y-41789815D01*
X97262442Y-41737011D01*
X97252498Y-41667853D01*
X97257305Y-41647182D01*
X97259614Y-41640075D01*
X97316746Y-41464243D01*
X97350000Y-41254287D01*
X97350000Y-41041713D01*
X97342579Y-40994861D01*
X97351533Y-40925571D01*
X97377368Y-40887787D01*
X98702614Y-39562543D01*
X98702614Y-39562542D01*
X99388337Y-38876819D01*
X99449660Y-38843334D01*
X99476018Y-38840500D01*
X101370542Y-38840500D01*
X101437581Y-38860185D01*
G37*
%TD.AperFunction*%
%TA.AperFunction,Conductor*%
G36*
X40088892Y-32809185D02*
G01*
X40134647Y-32861989D01*
X40144591Y-32931147D01*
X40120229Y-32988985D01*
X40005815Y-33138092D01*
X39976572Y-33176202D01*
X39845458Y-33403299D01*
X39845453Y-33403309D01*
X39745105Y-33645571D01*
X39745102Y-33645581D01*
X39677230Y-33898884D01*
X39675945Y-33908644D01*
X39643000Y-34158872D01*
X39643000Y-34421127D01*
X39665831Y-34594534D01*
X39677230Y-34681116D01*
X39742331Y-34924076D01*
X39745102Y-34934418D01*
X39745105Y-34934428D01*
X39845453Y-35176690D01*
X39845458Y-35176700D01*
X39976575Y-35403803D01*
X40136218Y-35611851D01*
X40136226Y-35611860D01*
X40321640Y-35797274D01*
X40321648Y-35797281D01*
X40321649Y-35797282D01*
X40358147Y-35825288D01*
X40529696Y-35956924D01*
X40756799Y-36088041D01*
X40756809Y-36088046D01*
X40999071Y-36188394D01*
X40999081Y-36188398D01*
X41252384Y-36256270D01*
X41512380Y-36290500D01*
X41512387Y-36290500D01*
X41774613Y-36290500D01*
X41774620Y-36290500D01*
X42034616Y-36256270D01*
X42287919Y-36188398D01*
X42530197Y-36088043D01*
X42757303Y-35956924D01*
X42965351Y-35797282D01*
X42965355Y-35797277D01*
X42965360Y-35797274D01*
X43150774Y-35611860D01*
X43150777Y-35611855D01*
X43150782Y-35611851D01*
X43310424Y-35403803D01*
X43441543Y-35176697D01*
X43541898Y-34934419D01*
X43609770Y-34681116D01*
X43644000Y-34421120D01*
X43644000Y-34158880D01*
X43609770Y-33898884D01*
X43541898Y-33645581D01*
X43526493Y-33608390D01*
X43441546Y-33403309D01*
X43441541Y-33403299D01*
X43310427Y-33176202D01*
X43310426Y-33176201D01*
X43310424Y-33176197D01*
X43166770Y-32988985D01*
X43141577Y-32923818D01*
X43155615Y-32855373D01*
X43204429Y-32805383D01*
X43265147Y-32789500D01*
X45196981Y-32789500D01*
X45264020Y-32809185D01*
X45284662Y-32825819D01*
X47522662Y-35063819D01*
X47556147Y-35125142D01*
X47551163Y-35194834D01*
X47509291Y-35250767D01*
X47443827Y-35275184D01*
X47434981Y-35275500D01*
X46377498Y-35275500D01*
X46377481Y-35275501D01*
X46274703Y-35286000D01*
X46274700Y-35286001D01*
X46108168Y-35341185D01*
X46108163Y-35341187D01*
X45958845Y-35433287D01*
X45889621Y-35502511D01*
X45828297Y-35535995D01*
X45758606Y-35531010D01*
X45729055Y-35515147D01*
X45658852Y-35464142D01*
X45476531Y-35371244D01*
X45281917Y-35308009D01*
X45079817Y-35276000D01*
X44875183Y-35276000D01*
X44673082Y-35308009D01*
X44478468Y-35371244D01*
X44296144Y-35464143D01*
X44251577Y-35496523D01*
X44251577Y-35496524D01*
X44931053Y-36176000D01*
X44924839Y-36176000D01*
X44823106Y-36203259D01*
X44731894Y-36255920D01*
X44657420Y-36330394D01*
X44604759Y-36421606D01*
X44577500Y-36523339D01*
X44577500Y-36529553D01*
X43898024Y-35850077D01*
X43898023Y-35850077D01*
X43865643Y-35894644D01*
X43772744Y-36076968D01*
X43709509Y-36271582D01*
X43677500Y-36473682D01*
X43677500Y-36678317D01*
X43709509Y-36880417D01*
X43772744Y-37075031D01*
X43865641Y-37257350D01*
X43865647Y-37257359D01*
X43898023Y-37301921D01*
X43898024Y-37301922D01*
X44577500Y-36622446D01*
X44577500Y-36628661D01*
X44604759Y-36730394D01*
X44657420Y-36821606D01*
X44731894Y-36896080D01*
X44823106Y-36948741D01*
X44924839Y-36976000D01*
X44931052Y-36976000D01*
X44251576Y-37655474D01*
X44296150Y-37687859D01*
X44478468Y-37780755D01*
X44673082Y-37843990D01*
X44875183Y-37876000D01*
X45079817Y-37876000D01*
X45281917Y-37843990D01*
X45476531Y-37780755D01*
X45658841Y-37687863D01*
X45658849Y-37687858D01*
X45729052Y-37636852D01*
X45794858Y-37613371D01*
X45862912Y-37629196D01*
X45889620Y-37649488D01*
X45958844Y-37718712D01*
X46108166Y-37810814D01*
X46274703Y-37865999D01*
X46377491Y-37876500D01*
X47577508Y-37876499D01*
X47680297Y-37865999D01*
X47846834Y-37810814D01*
X47996156Y-37718712D01*
X48120212Y-37594656D01*
X48212314Y-37445334D01*
X48267499Y-37278797D01*
X48278000Y-37176009D01*
X48277999Y-36118517D01*
X48297683Y-36051479D01*
X48350487Y-36005724D01*
X48419646Y-35995780D01*
X48483202Y-36024805D01*
X48489680Y-36030837D01*
X48703075Y-36244233D01*
X48703076Y-36244234D01*
X48817814Y-36320899D01*
X48943273Y-36372865D01*
X48945294Y-36373702D01*
X48945298Y-36373702D01*
X48945299Y-36373703D01*
X49080625Y-36400622D01*
X49080628Y-36400622D01*
X49080629Y-36400622D01*
X49160418Y-36400622D01*
X49227457Y-36420307D01*
X49273212Y-36473111D01*
X49281670Y-36498663D01*
X49282580Y-36502914D01*
X49320645Y-36617786D01*
X49337767Y-36669456D01*
X49424144Y-36809497D01*
X49429870Y-36818779D01*
X49493532Y-36882441D01*
X49527017Y-36943764D01*
X49522033Y-37013456D01*
X49493532Y-37057803D01*
X49429870Y-37121464D01*
X49337768Y-37270785D01*
X49337766Y-37270790D01*
X49316118Y-37336119D01*
X49282582Y-37437325D01*
X49282582Y-37437326D01*
X49282581Y-37437326D01*
X49272081Y-37540105D01*
X49272081Y-38940123D01*
X49272082Y-38940140D01*
X49282581Y-39042918D01*
X49282582Y-39042921D01*
X49337766Y-39209453D01*
X49337768Y-39209458D01*
X49362379Y-39249358D01*
X49422588Y-39346974D01*
X49429870Y-39358779D01*
X49493885Y-39422794D01*
X49495229Y-39425255D01*
X49497631Y-39426707D01*
X49511876Y-39455743D01*
X49527370Y-39484117D01*
X49527169Y-39486914D01*
X49528406Y-39489434D01*
X49524692Y-39521553D01*
X49522386Y-39553809D01*
X49520605Y-39556906D01*
X49520382Y-39558841D01*
X49514347Y-39567795D01*
X49502131Y-39589050D01*
X49387518Y-39728974D01*
X49365236Y-39744181D01*
X49345180Y-39762221D01*
X49336811Y-39763582D01*
X49329809Y-39768362D01*
X49302845Y-39769109D01*
X49276218Y-39773442D01*
X49268441Y-39770063D01*
X49259966Y-39770298D01*
X49236876Y-39756347D01*
X49212136Y-39745598D01*
X49203879Y-39736411D01*
X49200164Y-39734167D01*
X49198123Y-39730008D01*
X49188489Y-39719289D01*
X49123292Y-39621715D01*
X49123286Y-39621707D01*
X49011792Y-39510213D01*
X49011788Y-39510210D01*
X48880685Y-39422609D01*
X48880672Y-39422602D01*
X48735001Y-39362264D01*
X48734989Y-39362261D01*
X48580345Y-39331500D01*
X48580342Y-39331500D01*
X48422658Y-39331500D01*
X48422655Y-39331500D01*
X48268010Y-39362261D01*
X48267998Y-39362264D01*
X48123636Y-39422061D01*
X48076184Y-39431500D01*
X40812504Y-39431500D01*
X40677177Y-39458418D01*
X40677167Y-39458421D01*
X40549692Y-39511222D01*
X40434954Y-39587887D01*
X40434953Y-39587888D01*
X39528909Y-40493933D01*
X39467586Y-40527418D01*
X39397894Y-40522434D01*
X39341961Y-40480562D01*
X39318755Y-40425650D01*
X39297053Y-40288631D01*
X39263189Y-40184412D01*
X39224068Y-40064008D01*
X39224066Y-40064005D01*
X39224066Y-40064003D01*
X39156094Y-39930602D01*
X39116843Y-39853567D01*
X38978017Y-39662490D01*
X38811010Y-39495483D01*
X38776372Y-39470317D01*
X38733707Y-39414989D01*
X38727728Y-39345375D01*
X38760333Y-39283580D01*
X38776373Y-39269682D01*
X38811010Y-39244517D01*
X38978017Y-39077510D01*
X39116843Y-38886433D01*
X39126132Y-38868203D01*
X39174108Y-38817408D01*
X39236616Y-38800500D01*
X39948184Y-38800500D01*
X39995636Y-38809939D01*
X40139998Y-38869735D01*
X40140003Y-38869737D01*
X40289138Y-38899402D01*
X40294653Y-38900499D01*
X40294656Y-38900500D01*
X40294658Y-38900500D01*
X40452344Y-38900500D01*
X40452345Y-38900499D01*
X40606997Y-38869737D01*
X40752679Y-38809394D01*
X40883789Y-38721789D01*
X40995289Y-38610289D01*
X41082894Y-38479179D01*
X41143237Y-38333497D01*
X41174000Y-38178842D01*
X41174000Y-38021158D01*
X41174000Y-38021155D01*
X41173999Y-38021153D01*
X41162674Y-37964219D01*
X41143237Y-37866503D01*
X41112024Y-37791148D01*
X41082897Y-37720827D01*
X41082890Y-37720814D01*
X40995289Y-37589711D01*
X40995286Y-37589707D01*
X40883792Y-37478213D01*
X40883788Y-37478210D01*
X40752685Y-37390609D01*
X40752672Y-37390602D01*
X40607001Y-37330264D01*
X40606989Y-37330261D01*
X40452345Y-37299500D01*
X40452342Y-37299500D01*
X40294658Y-37299500D01*
X40294655Y-37299500D01*
X40140010Y-37330261D01*
X40139998Y-37330264D01*
X39995636Y-37390061D01*
X39948184Y-37399500D01*
X39236616Y-37399500D01*
X39169577Y-37379815D01*
X39126132Y-37331797D01*
X39116842Y-37313566D01*
X39108382Y-37301922D01*
X38978017Y-37122490D01*
X38811010Y-36955483D01*
X38776372Y-36930317D01*
X38733707Y-36874989D01*
X38727728Y-36805375D01*
X38760333Y-36743580D01*
X38776373Y-36729682D01*
X38811010Y-36704517D01*
X38978017Y-36537510D01*
X39116843Y-36346433D01*
X39224068Y-36135992D01*
X39297053Y-35911368D01*
X39305507Y-35857990D01*
X39334000Y-35678097D01*
X39334000Y-35441902D01*
X39297053Y-35208631D01*
X39263189Y-35104412D01*
X39224068Y-34984008D01*
X39224066Y-34984005D01*
X39224066Y-34984003D01*
X39148453Y-34835606D01*
X39116843Y-34773567D01*
X38978017Y-34582490D01*
X38811010Y-34415483D01*
X38776372Y-34390317D01*
X38733707Y-34334989D01*
X38727728Y-34265375D01*
X38760333Y-34203580D01*
X38776373Y-34189682D01*
X38779126Y-34187682D01*
X38811010Y-34164517D01*
X38978017Y-33997510D01*
X39116843Y-33806433D01*
X39224068Y-33595992D01*
X39297053Y-33371368D01*
X39309099Y-33295313D01*
X39334000Y-33138097D01*
X39334000Y-32913500D01*
X39353685Y-32846461D01*
X39406489Y-32800706D01*
X39458000Y-32789500D01*
X40021853Y-32789500D01*
X40088892Y-32809185D01*
G37*
%TD.AperFunction*%
%TA.AperFunction,Conductor*%
G36*
X102550800Y-23380185D02*
G01*
X102596555Y-23432989D01*
X102606499Y-23502147D01*
X102577474Y-23565703D01*
X102558073Y-23583766D01*
X102539309Y-23597812D01*
X102453149Y-23712906D01*
X102453145Y-23712913D01*
X102402903Y-23847620D01*
X102402901Y-23847627D01*
X102396500Y-23907155D01*
X102396500Y-24555000D01*
X103313488Y-24555000D01*
X103280575Y-24612007D01*
X103246500Y-24739174D01*
X103246500Y-24870826D01*
X103280575Y-24997993D01*
X103313488Y-25055000D01*
X102396500Y-25055000D01*
X102396500Y-25702844D01*
X102402901Y-25762372D01*
X102402903Y-25762379D01*
X102453145Y-25897086D01*
X102453149Y-25897093D01*
X102539309Y-26012187D01*
X102539312Y-26012190D01*
X102654406Y-26098350D01*
X102654413Y-26098354D01*
X102785970Y-26147422D01*
X102841904Y-26189293D01*
X102866321Y-26254758D01*
X102851469Y-26323031D01*
X102830319Y-26351285D01*
X102716389Y-26465215D01*
X102637014Y-26574467D01*
X102581684Y-26617133D01*
X102512505Y-26623199D01*
X102418498Y-26604500D01*
X102418494Y-26604500D01*
X102418493Y-26604500D01*
X102056018Y-26604500D01*
X101988979Y-26584815D01*
X101968337Y-26568181D01*
X100675395Y-25275238D01*
X100641910Y-25213915D01*
X100646894Y-25144223D01*
X100648495Y-25140155D01*
X100650080Y-25136329D01*
X100661572Y-25078555D01*
X100677000Y-25000996D01*
X100677000Y-24863004D01*
X100650081Y-24727677D01*
X100650080Y-24727676D01*
X100650080Y-24727672D01*
X100647343Y-24721065D01*
X100597276Y-24600191D01*
X100597275Y-24600189D01*
X100561711Y-24546964D01*
X100546884Y-24516394D01*
X100537389Y-24487172D01*
X100506720Y-24392781D01*
X100413787Y-24210390D01*
X100370001Y-24150123D01*
X100293471Y-24044786D01*
X100148713Y-23900028D01*
X99983113Y-23779715D01*
X99983112Y-23779714D01*
X99983110Y-23779713D01*
X99926153Y-23750691D01*
X99800723Y-23686781D01*
X99606034Y-23623522D01*
X99501543Y-23606973D01*
X99438408Y-23577044D01*
X99401477Y-23517732D01*
X99402475Y-23447870D01*
X99441085Y-23389637D01*
X99505049Y-23361523D01*
X99520941Y-23360500D01*
X102483761Y-23360500D01*
X102550800Y-23380185D01*
G37*
%TD.AperFunction*%
%TD*%
M02*
