%TF.GenerationSoftware,KiCad,Pcbnew,9.0.6*%
%TF.CreationDate,2025-11-24T14:35:39-08:00*%
%TF.ProjectId,schematic,73636865-6d61-4746-9963-2e6b69636164,rev?*%
%TF.SameCoordinates,Original*%
%TF.FileFunction,Legend,Top*%
%TF.FilePolarity,Positive*%
%FSLAX46Y46*%
G04 Gerber Fmt 4.6, Leading zero omitted, Abs format (unit mm)*
G04 Created by KiCad (PCBNEW 9.0.6) date 2025-11-24 14:35:39*
%MOMM*%
%LPD*%
G01*
G04 APERTURE LIST*
%ADD10C,0.152400*%
%ADD11C,0.150000*%
%ADD12C,0.100000*%
%ADD13C,0.120000*%
G04 APERTURE END LIST*
D10*
X85204500Y-36703000D02*
X97904500Y-36703000D01*
X97904500Y-45576000D01*
X85204500Y-45576000D01*
X85204500Y-36703000D01*
D11*
X93569795Y-41224189D02*
X93569795Y-41071808D01*
X93569795Y-41071808D02*
X93607890Y-40995618D01*
X93607890Y-40995618D02*
X93684080Y-40919427D01*
X93684080Y-40919427D02*
X93836461Y-40881332D01*
X93836461Y-40881332D02*
X94103128Y-40881332D01*
X94103128Y-40881332D02*
X94255509Y-40919427D01*
X94255509Y-40919427D02*
X94331700Y-40995618D01*
X94331700Y-40995618D02*
X94369795Y-41071808D01*
X94369795Y-41071808D02*
X94369795Y-41224189D01*
X94369795Y-41224189D02*
X94331700Y-41300380D01*
X94331700Y-41300380D02*
X94255509Y-41376570D01*
X94255509Y-41376570D02*
X94103128Y-41414666D01*
X94103128Y-41414666D02*
X93836461Y-41414666D01*
X93836461Y-41414666D02*
X93684080Y-41376570D01*
X93684080Y-41376570D02*
X93607890Y-41300380D01*
X93607890Y-41300380D02*
X93569795Y-41224189D01*
X98228795Y-43296189D02*
X98228795Y-43143808D01*
X98228795Y-43143808D02*
X98266890Y-43067618D01*
X98266890Y-43067618D02*
X98343080Y-42991427D01*
X98343080Y-42991427D02*
X98495461Y-42953332D01*
X98495461Y-42953332D02*
X98762128Y-42953332D01*
X98762128Y-42953332D02*
X98914509Y-42991427D01*
X98914509Y-42991427D02*
X98990700Y-43067618D01*
X98990700Y-43067618D02*
X99028795Y-43143808D01*
X99028795Y-43143808D02*
X99028795Y-43296189D01*
X99028795Y-43296189D02*
X98990700Y-43372380D01*
X98990700Y-43372380D02*
X98914509Y-43448570D01*
X98914509Y-43448570D02*
X98762128Y-43486666D01*
X98762128Y-43486666D02*
X98495461Y-43486666D01*
X98495461Y-43486666D02*
X98343080Y-43448570D01*
X98343080Y-43448570D02*
X98266890Y-43372380D01*
X98266890Y-43372380D02*
X98228795Y-43296189D01*
X98228795Y-38406666D02*
X99028795Y-38139999D01*
X99028795Y-38139999D02*
X98228795Y-37873333D01*
X93569795Y-43954666D02*
X94369795Y-43687999D01*
X94369795Y-43687999D02*
X93569795Y-43421333D01*
X106614319Y-27566904D02*
X105614319Y-27566904D01*
X105614319Y-27566904D02*
X105614319Y-27328809D01*
X105614319Y-27328809D02*
X105661938Y-27185952D01*
X105661938Y-27185952D02*
X105757176Y-27090714D01*
X105757176Y-27090714D02*
X105852414Y-27043095D01*
X105852414Y-27043095D02*
X106042890Y-26995476D01*
X106042890Y-26995476D02*
X106185747Y-26995476D01*
X106185747Y-26995476D02*
X106376223Y-27043095D01*
X106376223Y-27043095D02*
X106471461Y-27090714D01*
X106471461Y-27090714D02*
X106566700Y-27185952D01*
X106566700Y-27185952D02*
X106614319Y-27328809D01*
X106614319Y-27328809D02*
X106614319Y-27566904D01*
X93607890Y-38398476D02*
X93569795Y-38474666D01*
X93569795Y-38474666D02*
X93569795Y-38588952D01*
X93569795Y-38588952D02*
X93607890Y-38703238D01*
X93607890Y-38703238D02*
X93684080Y-38779428D01*
X93684080Y-38779428D02*
X93760271Y-38817523D01*
X93760271Y-38817523D02*
X93912652Y-38855619D01*
X93912652Y-38855619D02*
X94026938Y-38855619D01*
X94026938Y-38855619D02*
X94179319Y-38817523D01*
X94179319Y-38817523D02*
X94255509Y-38779428D01*
X94255509Y-38779428D02*
X94331700Y-38703238D01*
X94331700Y-38703238D02*
X94369795Y-38588952D01*
X94369795Y-38588952D02*
X94369795Y-38512761D01*
X94369795Y-38512761D02*
X94331700Y-38398476D01*
X94331700Y-38398476D02*
X94293604Y-38360380D01*
X94293604Y-38360380D02*
X94026938Y-38360380D01*
X94026938Y-38360380D02*
X94026938Y-38512761D01*
X105661938Y-24503095D02*
X105614319Y-24598333D01*
X105614319Y-24598333D02*
X105614319Y-24741190D01*
X105614319Y-24741190D02*
X105661938Y-24884047D01*
X105661938Y-24884047D02*
X105757176Y-24979285D01*
X105757176Y-24979285D02*
X105852414Y-25026904D01*
X105852414Y-25026904D02*
X106042890Y-25074523D01*
X106042890Y-25074523D02*
X106185747Y-25074523D01*
X106185747Y-25074523D02*
X106376223Y-25026904D01*
X106376223Y-25026904D02*
X106471461Y-24979285D01*
X106471461Y-24979285D02*
X106566700Y-24884047D01*
X106566700Y-24884047D02*
X106614319Y-24741190D01*
X106614319Y-24741190D02*
X106614319Y-24645952D01*
X106614319Y-24645952D02*
X106566700Y-24503095D01*
X106566700Y-24503095D02*
X106519080Y-24455476D01*
X106519080Y-24455476D02*
X106185747Y-24455476D01*
X106185747Y-24455476D02*
X106185747Y-24645952D01*
X105614319Y-30178332D02*
X106614319Y-29844999D01*
X106614319Y-29844999D02*
X105614319Y-29511666D01*
X98266890Y-40470476D02*
X98228795Y-40546666D01*
X98228795Y-40546666D02*
X98228795Y-40660952D01*
X98228795Y-40660952D02*
X98266890Y-40775238D01*
X98266890Y-40775238D02*
X98343080Y-40851428D01*
X98343080Y-40851428D02*
X98419271Y-40889523D01*
X98419271Y-40889523D02*
X98571652Y-40927619D01*
X98571652Y-40927619D02*
X98685938Y-40927619D01*
X98685938Y-40927619D02*
X98838319Y-40889523D01*
X98838319Y-40889523D02*
X98914509Y-40851428D01*
X98914509Y-40851428D02*
X98990700Y-40775238D01*
X98990700Y-40775238D02*
X99028795Y-40660952D01*
X99028795Y-40660952D02*
X99028795Y-40584761D01*
X99028795Y-40584761D02*
X98990700Y-40470476D01*
X98990700Y-40470476D02*
X98952604Y-40432380D01*
X98952604Y-40432380D02*
X98685938Y-40432380D01*
X98685938Y-40432380D02*
X98685938Y-40584761D01*
X91432080Y-34748166D02*
X91479700Y-34795785D01*
X91479700Y-34795785D02*
X91527319Y-34938642D01*
X91527319Y-34938642D02*
X91527319Y-35033880D01*
X91527319Y-35033880D02*
X91479700Y-35176737D01*
X91479700Y-35176737D02*
X91384461Y-35271975D01*
X91384461Y-35271975D02*
X91289223Y-35319594D01*
X91289223Y-35319594D02*
X91098747Y-35367213D01*
X91098747Y-35367213D02*
X90955890Y-35367213D01*
X90955890Y-35367213D02*
X90765414Y-35319594D01*
X90765414Y-35319594D02*
X90670176Y-35271975D01*
X90670176Y-35271975D02*
X90574938Y-35176737D01*
X90574938Y-35176737D02*
X90527319Y-35033880D01*
X90527319Y-35033880D02*
X90527319Y-34938642D01*
X90527319Y-34938642D02*
X90574938Y-34795785D01*
X90574938Y-34795785D02*
X90622557Y-34748166D01*
X90527319Y-33843404D02*
X90527319Y-34319594D01*
X90527319Y-34319594D02*
X91003509Y-34367213D01*
X91003509Y-34367213D02*
X90955890Y-34319594D01*
X90955890Y-34319594D02*
X90908271Y-34224356D01*
X90908271Y-34224356D02*
X90908271Y-33986261D01*
X90908271Y-33986261D02*
X90955890Y-33891023D01*
X90955890Y-33891023D02*
X91003509Y-33843404D01*
X91003509Y-33843404D02*
X91098747Y-33795785D01*
X91098747Y-33795785D02*
X91336842Y-33795785D01*
X91336842Y-33795785D02*
X91432080Y-33843404D01*
X91432080Y-33843404D02*
X91479700Y-33891023D01*
X91479700Y-33891023D02*
X91527319Y-33986261D01*
X91527319Y-33986261D02*
X91527319Y-34224356D01*
X91527319Y-34224356D02*
X91479700Y-34319594D01*
X91479700Y-34319594D02*
X91432080Y-34367213D01*
X93501880Y-32877319D02*
X92930452Y-32877319D01*
X93216166Y-32877319D02*
X93216166Y-31877319D01*
X93216166Y-31877319D02*
X93120928Y-32020176D01*
X93120928Y-32020176D02*
X93025690Y-32115414D01*
X93025690Y-32115414D02*
X92930452Y-32163033D01*
X94120928Y-31877319D02*
X94216166Y-31877319D01*
X94216166Y-31877319D02*
X94311404Y-31924938D01*
X94311404Y-31924938D02*
X94359023Y-31972557D01*
X94359023Y-31972557D02*
X94406642Y-32067795D01*
X94406642Y-32067795D02*
X94454261Y-32258271D01*
X94454261Y-32258271D02*
X94454261Y-32496366D01*
X94454261Y-32496366D02*
X94406642Y-32686842D01*
X94406642Y-32686842D02*
X94359023Y-32782080D01*
X94359023Y-32782080D02*
X94311404Y-32829700D01*
X94311404Y-32829700D02*
X94216166Y-32877319D01*
X94216166Y-32877319D02*
X94120928Y-32877319D01*
X94120928Y-32877319D02*
X94025690Y-32829700D01*
X94025690Y-32829700D02*
X93978071Y-32782080D01*
X93978071Y-32782080D02*
X93930452Y-32686842D01*
X93930452Y-32686842D02*
X93882833Y-32496366D01*
X93882833Y-32496366D02*
X93882833Y-32258271D01*
X93882833Y-32258271D02*
X93930452Y-32067795D01*
X93930452Y-32067795D02*
X93978071Y-31972557D01*
X93978071Y-31972557D02*
X94025690Y-31924938D01*
X94025690Y-31924938D02*
X94120928Y-31877319D01*
X95073309Y-31877319D02*
X95168547Y-31877319D01*
X95168547Y-31877319D02*
X95263785Y-31924938D01*
X95263785Y-31924938D02*
X95311404Y-31972557D01*
X95311404Y-31972557D02*
X95359023Y-32067795D01*
X95359023Y-32067795D02*
X95406642Y-32258271D01*
X95406642Y-32258271D02*
X95406642Y-32496366D01*
X95406642Y-32496366D02*
X95359023Y-32686842D01*
X95359023Y-32686842D02*
X95311404Y-32782080D01*
X95311404Y-32782080D02*
X95263785Y-32829700D01*
X95263785Y-32829700D02*
X95168547Y-32877319D01*
X95168547Y-32877319D02*
X95073309Y-32877319D01*
X95073309Y-32877319D02*
X94978071Y-32829700D01*
X94978071Y-32829700D02*
X94930452Y-32782080D01*
X94930452Y-32782080D02*
X94882833Y-32686842D01*
X94882833Y-32686842D02*
X94835214Y-32496366D01*
X94835214Y-32496366D02*
X94835214Y-32258271D01*
X94835214Y-32258271D02*
X94882833Y-32067795D01*
X94882833Y-32067795D02*
X94930452Y-31972557D01*
X94930452Y-31972557D02*
X94978071Y-31924938D01*
X94978071Y-31924938D02*
X95073309Y-31877319D01*
X95835214Y-32210652D02*
X95835214Y-32877319D01*
X95835214Y-32305890D02*
X95882833Y-32258271D01*
X95882833Y-32258271D02*
X95978071Y-32210652D01*
X95978071Y-32210652D02*
X96120928Y-32210652D01*
X96120928Y-32210652D02*
X96216166Y-32258271D01*
X96216166Y-32258271D02*
X96263785Y-32353509D01*
X96263785Y-32353509D02*
X96263785Y-32877319D01*
X97073309Y-32353509D02*
X96739976Y-32353509D01*
X96739976Y-32877319D02*
X96739976Y-31877319D01*
X96739976Y-31877319D02*
X97216166Y-31877319D01*
X41749080Y-42838666D02*
X41796700Y-42886285D01*
X41796700Y-42886285D02*
X41844319Y-43029142D01*
X41844319Y-43029142D02*
X41844319Y-43124380D01*
X41844319Y-43124380D02*
X41796700Y-43267237D01*
X41796700Y-43267237D02*
X41701461Y-43362475D01*
X41701461Y-43362475D02*
X41606223Y-43410094D01*
X41606223Y-43410094D02*
X41415747Y-43457713D01*
X41415747Y-43457713D02*
X41272890Y-43457713D01*
X41272890Y-43457713D02*
X41082414Y-43410094D01*
X41082414Y-43410094D02*
X40987176Y-43362475D01*
X40987176Y-43362475D02*
X40891938Y-43267237D01*
X40891938Y-43267237D02*
X40844319Y-43124380D01*
X40844319Y-43124380D02*
X40844319Y-43029142D01*
X40844319Y-43029142D02*
X40891938Y-42886285D01*
X40891938Y-42886285D02*
X40939557Y-42838666D01*
X40939557Y-42457713D02*
X40891938Y-42410094D01*
X40891938Y-42410094D02*
X40844319Y-42314856D01*
X40844319Y-42314856D02*
X40844319Y-42076761D01*
X40844319Y-42076761D02*
X40891938Y-41981523D01*
X40891938Y-41981523D02*
X40939557Y-41933904D01*
X40939557Y-41933904D02*
X41034795Y-41886285D01*
X41034795Y-41886285D02*
X41130033Y-41886285D01*
X41130033Y-41886285D02*
X41272890Y-41933904D01*
X41272890Y-41933904D02*
X41844319Y-42505332D01*
X41844319Y-42505332D02*
X41844319Y-41886285D01*
X44159880Y-45412819D02*
X43588452Y-45412819D01*
X43874166Y-45412819D02*
X43874166Y-44412819D01*
X43874166Y-44412819D02*
X43778928Y-44555676D01*
X43778928Y-44555676D02*
X43683690Y-44650914D01*
X43683690Y-44650914D02*
X43588452Y-44698533D01*
X44778928Y-44412819D02*
X44874166Y-44412819D01*
X44874166Y-44412819D02*
X44969404Y-44460438D01*
X44969404Y-44460438D02*
X45017023Y-44508057D01*
X45017023Y-44508057D02*
X45064642Y-44603295D01*
X45064642Y-44603295D02*
X45112261Y-44793771D01*
X45112261Y-44793771D02*
X45112261Y-45031866D01*
X45112261Y-45031866D02*
X45064642Y-45222342D01*
X45064642Y-45222342D02*
X45017023Y-45317580D01*
X45017023Y-45317580D02*
X44969404Y-45365200D01*
X44969404Y-45365200D02*
X44874166Y-45412819D01*
X44874166Y-45412819D02*
X44778928Y-45412819D01*
X44778928Y-45412819D02*
X44683690Y-45365200D01*
X44683690Y-45365200D02*
X44636071Y-45317580D01*
X44636071Y-45317580D02*
X44588452Y-45222342D01*
X44588452Y-45222342D02*
X44540833Y-45031866D01*
X44540833Y-45031866D02*
X44540833Y-44793771D01*
X44540833Y-44793771D02*
X44588452Y-44603295D01*
X44588452Y-44603295D02*
X44636071Y-44508057D01*
X44636071Y-44508057D02*
X44683690Y-44460438D01*
X44683690Y-44460438D02*
X44778928Y-44412819D01*
X45731309Y-44412819D02*
X45826547Y-44412819D01*
X45826547Y-44412819D02*
X45921785Y-44460438D01*
X45921785Y-44460438D02*
X45969404Y-44508057D01*
X45969404Y-44508057D02*
X46017023Y-44603295D01*
X46017023Y-44603295D02*
X46064642Y-44793771D01*
X46064642Y-44793771D02*
X46064642Y-45031866D01*
X46064642Y-45031866D02*
X46017023Y-45222342D01*
X46017023Y-45222342D02*
X45969404Y-45317580D01*
X45969404Y-45317580D02*
X45921785Y-45365200D01*
X45921785Y-45365200D02*
X45826547Y-45412819D01*
X45826547Y-45412819D02*
X45731309Y-45412819D01*
X45731309Y-45412819D02*
X45636071Y-45365200D01*
X45636071Y-45365200D02*
X45588452Y-45317580D01*
X45588452Y-45317580D02*
X45540833Y-45222342D01*
X45540833Y-45222342D02*
X45493214Y-45031866D01*
X45493214Y-45031866D02*
X45493214Y-44793771D01*
X45493214Y-44793771D02*
X45540833Y-44603295D01*
X45540833Y-44603295D02*
X45588452Y-44508057D01*
X45588452Y-44508057D02*
X45636071Y-44460438D01*
X45636071Y-44460438D02*
X45731309Y-44412819D01*
X46493214Y-44746152D02*
X46493214Y-45412819D01*
X46493214Y-44841390D02*
X46540833Y-44793771D01*
X46540833Y-44793771D02*
X46636071Y-44746152D01*
X46636071Y-44746152D02*
X46778928Y-44746152D01*
X46778928Y-44746152D02*
X46874166Y-44793771D01*
X46874166Y-44793771D02*
X46921785Y-44889009D01*
X46921785Y-44889009D02*
X46921785Y-45412819D01*
X47731309Y-44889009D02*
X47397976Y-44889009D01*
X47397976Y-45412819D02*
X47397976Y-44412819D01*
X47397976Y-44412819D02*
X47874166Y-44412819D01*
X92930080Y-28506666D02*
X92977700Y-28554285D01*
X92977700Y-28554285D02*
X93025319Y-28697142D01*
X93025319Y-28697142D02*
X93025319Y-28792380D01*
X93025319Y-28792380D02*
X92977700Y-28935237D01*
X92977700Y-28935237D02*
X92882461Y-29030475D01*
X92882461Y-29030475D02*
X92787223Y-29078094D01*
X92787223Y-29078094D02*
X92596747Y-29125713D01*
X92596747Y-29125713D02*
X92453890Y-29125713D01*
X92453890Y-29125713D02*
X92263414Y-29078094D01*
X92263414Y-29078094D02*
X92168176Y-29030475D01*
X92168176Y-29030475D02*
X92072938Y-28935237D01*
X92072938Y-28935237D02*
X92025319Y-28792380D01*
X92025319Y-28792380D02*
X92025319Y-28697142D01*
X92025319Y-28697142D02*
X92072938Y-28554285D01*
X92072938Y-28554285D02*
X92120557Y-28506666D01*
X92358652Y-27649523D02*
X93025319Y-27649523D01*
X91977700Y-27887618D02*
X92691985Y-28125713D01*
X92691985Y-28125713D02*
X92691985Y-27506666D01*
X95253880Y-31080819D02*
X94682452Y-31080819D01*
X94968166Y-31080819D02*
X94968166Y-30080819D01*
X94968166Y-30080819D02*
X94872928Y-30223676D01*
X94872928Y-30223676D02*
X94777690Y-30318914D01*
X94777690Y-30318914D02*
X94682452Y-30366533D01*
X95872928Y-30080819D02*
X95968166Y-30080819D01*
X95968166Y-30080819D02*
X96063404Y-30128438D01*
X96063404Y-30128438D02*
X96111023Y-30176057D01*
X96111023Y-30176057D02*
X96158642Y-30271295D01*
X96158642Y-30271295D02*
X96206261Y-30461771D01*
X96206261Y-30461771D02*
X96206261Y-30699866D01*
X96206261Y-30699866D02*
X96158642Y-30890342D01*
X96158642Y-30890342D02*
X96111023Y-30985580D01*
X96111023Y-30985580D02*
X96063404Y-31033200D01*
X96063404Y-31033200D02*
X95968166Y-31080819D01*
X95968166Y-31080819D02*
X95872928Y-31080819D01*
X95872928Y-31080819D02*
X95777690Y-31033200D01*
X95777690Y-31033200D02*
X95730071Y-30985580D01*
X95730071Y-30985580D02*
X95682452Y-30890342D01*
X95682452Y-30890342D02*
X95634833Y-30699866D01*
X95634833Y-30699866D02*
X95634833Y-30461771D01*
X95634833Y-30461771D02*
X95682452Y-30271295D01*
X95682452Y-30271295D02*
X95730071Y-30176057D01*
X95730071Y-30176057D02*
X95777690Y-30128438D01*
X95777690Y-30128438D02*
X95872928Y-30080819D01*
X96825309Y-30080819D02*
X96920547Y-30080819D01*
X96920547Y-30080819D02*
X97015785Y-30128438D01*
X97015785Y-30128438D02*
X97063404Y-30176057D01*
X97063404Y-30176057D02*
X97111023Y-30271295D01*
X97111023Y-30271295D02*
X97158642Y-30461771D01*
X97158642Y-30461771D02*
X97158642Y-30699866D01*
X97158642Y-30699866D02*
X97111023Y-30890342D01*
X97111023Y-30890342D02*
X97063404Y-30985580D01*
X97063404Y-30985580D02*
X97015785Y-31033200D01*
X97015785Y-31033200D02*
X96920547Y-31080819D01*
X96920547Y-31080819D02*
X96825309Y-31080819D01*
X96825309Y-31080819D02*
X96730071Y-31033200D01*
X96730071Y-31033200D02*
X96682452Y-30985580D01*
X96682452Y-30985580D02*
X96634833Y-30890342D01*
X96634833Y-30890342D02*
X96587214Y-30699866D01*
X96587214Y-30699866D02*
X96587214Y-30461771D01*
X96587214Y-30461771D02*
X96634833Y-30271295D01*
X96634833Y-30271295D02*
X96682452Y-30176057D01*
X96682452Y-30176057D02*
X96730071Y-30128438D01*
X96730071Y-30128438D02*
X96825309Y-30080819D01*
X97587214Y-30414152D02*
X97587214Y-31080819D01*
X97587214Y-30509390D02*
X97634833Y-30461771D01*
X97634833Y-30461771D02*
X97730071Y-30414152D01*
X97730071Y-30414152D02*
X97872928Y-30414152D01*
X97872928Y-30414152D02*
X97968166Y-30461771D01*
X97968166Y-30461771D02*
X98015785Y-30557009D01*
X98015785Y-30557009D02*
X98015785Y-31080819D01*
X98825309Y-30557009D02*
X98491976Y-30557009D01*
X98491976Y-31080819D02*
X98491976Y-30080819D01*
X98491976Y-30080819D02*
X98968166Y-30080819D01*
X44886166Y-27394819D02*
X44886166Y-28109104D01*
X44886166Y-28109104D02*
X44838547Y-28251961D01*
X44838547Y-28251961D02*
X44743309Y-28347200D01*
X44743309Y-28347200D02*
X44600452Y-28394819D01*
X44600452Y-28394819D02*
X44505214Y-28394819D01*
X45314738Y-27490057D02*
X45362357Y-27442438D01*
X45362357Y-27442438D02*
X45457595Y-27394819D01*
X45457595Y-27394819D02*
X45695690Y-27394819D01*
X45695690Y-27394819D02*
X45790928Y-27442438D01*
X45790928Y-27442438D02*
X45838547Y-27490057D01*
X45838547Y-27490057D02*
X45886166Y-27585295D01*
X45886166Y-27585295D02*
X45886166Y-27680533D01*
X45886166Y-27680533D02*
X45838547Y-27823390D01*
X45838547Y-27823390D02*
X45267119Y-28394819D01*
X45267119Y-28394819D02*
X45886166Y-28394819D01*
X42437595Y-31442819D02*
X42437595Y-30442819D01*
X42437595Y-30442819D02*
X42818547Y-30442819D01*
X42818547Y-30442819D02*
X42913785Y-30490438D01*
X42913785Y-30490438D02*
X42961404Y-30538057D01*
X42961404Y-30538057D02*
X43009023Y-30633295D01*
X43009023Y-30633295D02*
X43009023Y-30776152D01*
X43009023Y-30776152D02*
X42961404Y-30871390D01*
X42961404Y-30871390D02*
X42913785Y-30919009D01*
X42913785Y-30919009D02*
X42818547Y-30966628D01*
X42818547Y-30966628D02*
X42437595Y-30966628D01*
X43342357Y-30442819D02*
X43580452Y-31442819D01*
X43580452Y-31442819D02*
X43770928Y-30728533D01*
X43770928Y-30728533D02*
X43961404Y-31442819D01*
X43961404Y-31442819D02*
X44199500Y-30442819D01*
X45151880Y-31442819D02*
X44818547Y-30966628D01*
X44580452Y-31442819D02*
X44580452Y-30442819D01*
X44580452Y-30442819D02*
X44961404Y-30442819D01*
X44961404Y-30442819D02*
X45056642Y-30490438D01*
X45056642Y-30490438D02*
X45104261Y-30538057D01*
X45104261Y-30538057D02*
X45151880Y-30633295D01*
X45151880Y-30633295D02*
X45151880Y-30776152D01*
X45151880Y-30776152D02*
X45104261Y-30871390D01*
X45104261Y-30871390D02*
X45056642Y-30919009D01*
X45056642Y-30919009D02*
X44961404Y-30966628D01*
X44961404Y-30966628D02*
X44580452Y-30966628D01*
X46294738Y-31395200D02*
X46437595Y-31442819D01*
X46437595Y-31442819D02*
X46675690Y-31442819D01*
X46675690Y-31442819D02*
X46770928Y-31395200D01*
X46770928Y-31395200D02*
X46818547Y-31347580D01*
X46818547Y-31347580D02*
X46866166Y-31252342D01*
X46866166Y-31252342D02*
X46866166Y-31157104D01*
X46866166Y-31157104D02*
X46818547Y-31061866D01*
X46818547Y-31061866D02*
X46770928Y-31014247D01*
X46770928Y-31014247D02*
X46675690Y-30966628D01*
X46675690Y-30966628D02*
X46485214Y-30919009D01*
X46485214Y-30919009D02*
X46389976Y-30871390D01*
X46389976Y-30871390D02*
X46342357Y-30823771D01*
X46342357Y-30823771D02*
X46294738Y-30728533D01*
X46294738Y-30728533D02*
X46294738Y-30633295D01*
X46294738Y-30633295D02*
X46342357Y-30538057D01*
X46342357Y-30538057D02*
X46389976Y-30490438D01*
X46389976Y-30490438D02*
X46485214Y-30442819D01*
X46485214Y-30442819D02*
X46723309Y-30442819D01*
X46723309Y-30442819D02*
X46866166Y-30490438D01*
X47199500Y-30442819D02*
X47437595Y-31442819D01*
X47437595Y-31442819D02*
X47628071Y-30728533D01*
X47628071Y-30728533D02*
X47818547Y-31442819D01*
X47818547Y-31442819D02*
X48056643Y-30442819D01*
X72959319Y-34456666D02*
X72483128Y-34789999D01*
X72959319Y-35028094D02*
X71959319Y-35028094D01*
X71959319Y-35028094D02*
X71959319Y-34647142D01*
X71959319Y-34647142D02*
X72006938Y-34551904D01*
X72006938Y-34551904D02*
X72054557Y-34504285D01*
X72054557Y-34504285D02*
X72149795Y-34456666D01*
X72149795Y-34456666D02*
X72292652Y-34456666D01*
X72292652Y-34456666D02*
X72387890Y-34504285D01*
X72387890Y-34504285D02*
X72435509Y-34551904D01*
X72435509Y-34551904D02*
X72483128Y-34647142D01*
X72483128Y-34647142D02*
X72483128Y-35028094D01*
X72292652Y-33599523D02*
X72959319Y-33599523D01*
X71911700Y-33837618D02*
X72625985Y-34075713D01*
X72625985Y-34075713D02*
X72625985Y-33456666D01*
X77370261Y-34744819D02*
X76798833Y-34744819D01*
X77084547Y-34744819D02*
X77084547Y-33744819D01*
X77084547Y-33744819D02*
X76989309Y-33887676D01*
X76989309Y-33887676D02*
X76894071Y-33982914D01*
X76894071Y-33982914D02*
X76798833Y-34030533D01*
X77989309Y-33744819D02*
X78084547Y-33744819D01*
X78084547Y-33744819D02*
X78179785Y-33792438D01*
X78179785Y-33792438D02*
X78227404Y-33840057D01*
X78227404Y-33840057D02*
X78275023Y-33935295D01*
X78275023Y-33935295D02*
X78322642Y-34125771D01*
X78322642Y-34125771D02*
X78322642Y-34363866D01*
X78322642Y-34363866D02*
X78275023Y-34554342D01*
X78275023Y-34554342D02*
X78227404Y-34649580D01*
X78227404Y-34649580D02*
X78179785Y-34697200D01*
X78179785Y-34697200D02*
X78084547Y-34744819D01*
X78084547Y-34744819D02*
X77989309Y-34744819D01*
X77989309Y-34744819D02*
X77894071Y-34697200D01*
X77894071Y-34697200D02*
X77846452Y-34649580D01*
X77846452Y-34649580D02*
X77798833Y-34554342D01*
X77798833Y-34554342D02*
X77751214Y-34363866D01*
X77751214Y-34363866D02*
X77751214Y-34125771D01*
X77751214Y-34125771D02*
X77798833Y-33935295D01*
X77798833Y-33935295D02*
X77846452Y-33840057D01*
X77846452Y-33840057D02*
X77894071Y-33792438D01*
X77894071Y-33792438D02*
X77989309Y-33744819D01*
X78751214Y-34744819D02*
X78751214Y-33744819D01*
X78846452Y-34363866D02*
X79132166Y-34744819D01*
X79132166Y-34078152D02*
X78751214Y-34459104D01*
X72933919Y-28208266D02*
X72457728Y-28541599D01*
X72933919Y-28779694D02*
X71933919Y-28779694D01*
X71933919Y-28779694D02*
X71933919Y-28398742D01*
X71933919Y-28398742D02*
X71981538Y-28303504D01*
X71981538Y-28303504D02*
X72029157Y-28255885D01*
X72029157Y-28255885D02*
X72124395Y-28208266D01*
X72124395Y-28208266D02*
X72267252Y-28208266D01*
X72267252Y-28208266D02*
X72362490Y-28255885D01*
X72362490Y-28255885D02*
X72410109Y-28303504D01*
X72410109Y-28303504D02*
X72457728Y-28398742D01*
X72457728Y-28398742D02*
X72457728Y-28779694D01*
X71933919Y-27303504D02*
X71933919Y-27779694D01*
X71933919Y-27779694D02*
X72410109Y-27827313D01*
X72410109Y-27827313D02*
X72362490Y-27779694D01*
X72362490Y-27779694D02*
X72314871Y-27684456D01*
X72314871Y-27684456D02*
X72314871Y-27446361D01*
X72314871Y-27446361D02*
X72362490Y-27351123D01*
X72362490Y-27351123D02*
X72410109Y-27303504D01*
X72410109Y-27303504D02*
X72505347Y-27255885D01*
X72505347Y-27255885D02*
X72743442Y-27255885D01*
X72743442Y-27255885D02*
X72838680Y-27303504D01*
X72838680Y-27303504D02*
X72886300Y-27351123D01*
X72886300Y-27351123D02*
X72933919Y-27446361D01*
X72933919Y-27446361D02*
X72933919Y-27684456D01*
X72933919Y-27684456D02*
X72886300Y-27779694D01*
X72886300Y-27779694D02*
X72838680Y-27827313D01*
X77275023Y-27855152D02*
X77275023Y-28521819D01*
X77036928Y-27474200D02*
X76798833Y-28188485D01*
X76798833Y-28188485D02*
X77417880Y-28188485D01*
X77703595Y-27521819D02*
X78370261Y-27521819D01*
X78370261Y-27521819D02*
X77941690Y-28521819D01*
X78751214Y-28521819D02*
X78751214Y-27521819D01*
X78846452Y-28140866D02*
X79132166Y-28521819D01*
X79132166Y-27855152D02*
X78751214Y-28236104D01*
X72704261Y-43640057D02*
X72609023Y-43592438D01*
X72609023Y-43592438D02*
X72513785Y-43497200D01*
X72513785Y-43497200D02*
X72370928Y-43354342D01*
X72370928Y-43354342D02*
X72275690Y-43306723D01*
X72275690Y-43306723D02*
X72180452Y-43306723D01*
X72228071Y-43544819D02*
X72132833Y-43497200D01*
X72132833Y-43497200D02*
X72037595Y-43401961D01*
X72037595Y-43401961D02*
X71989976Y-43211485D01*
X71989976Y-43211485D02*
X71989976Y-42878152D01*
X71989976Y-42878152D02*
X72037595Y-42687676D01*
X72037595Y-42687676D02*
X72132833Y-42592438D01*
X72132833Y-42592438D02*
X72228071Y-42544819D01*
X72228071Y-42544819D02*
X72418547Y-42544819D01*
X72418547Y-42544819D02*
X72513785Y-42592438D01*
X72513785Y-42592438D02*
X72609023Y-42687676D01*
X72609023Y-42687676D02*
X72656642Y-42878152D01*
X72656642Y-42878152D02*
X72656642Y-43211485D01*
X72656642Y-43211485D02*
X72609023Y-43401961D01*
X72609023Y-43401961D02*
X72513785Y-43497200D01*
X72513785Y-43497200D02*
X72418547Y-43544819D01*
X72418547Y-43544819D02*
X72228071Y-43544819D01*
X73609023Y-43544819D02*
X73037595Y-43544819D01*
X73323309Y-43544819D02*
X73323309Y-42544819D01*
X73323309Y-42544819D02*
X73228071Y-42687676D01*
X73228071Y-42687676D02*
X73132833Y-42782914D01*
X73132833Y-42782914D02*
X73037595Y-42830533D01*
X72758833Y-45157104D02*
X73235023Y-45157104D01*
X72663595Y-45442819D02*
X72996928Y-44442819D01*
X72996928Y-44442819D02*
X73330261Y-45442819D01*
X73854071Y-44442819D02*
X74044547Y-44442819D01*
X74044547Y-44442819D02*
X74139785Y-44490438D01*
X74139785Y-44490438D02*
X74235023Y-44585676D01*
X74235023Y-44585676D02*
X74282642Y-44776152D01*
X74282642Y-44776152D02*
X74282642Y-45109485D01*
X74282642Y-45109485D02*
X74235023Y-45299961D01*
X74235023Y-45299961D02*
X74139785Y-45395200D01*
X74139785Y-45395200D02*
X74044547Y-45442819D01*
X74044547Y-45442819D02*
X73854071Y-45442819D01*
X73854071Y-45442819D02*
X73758833Y-45395200D01*
X73758833Y-45395200D02*
X73663595Y-45299961D01*
X73663595Y-45299961D02*
X73615976Y-45109485D01*
X73615976Y-45109485D02*
X73615976Y-44776152D01*
X73615976Y-44776152D02*
X73663595Y-44585676D01*
X73663595Y-44585676D02*
X73758833Y-44490438D01*
X73758833Y-44490438D02*
X73854071Y-44442819D01*
X74615976Y-44442819D02*
X75235023Y-44442819D01*
X75235023Y-44442819D02*
X74901690Y-44823771D01*
X74901690Y-44823771D02*
X75044547Y-44823771D01*
X75044547Y-44823771D02*
X75139785Y-44871390D01*
X75139785Y-44871390D02*
X75187404Y-44919009D01*
X75187404Y-44919009D02*
X75235023Y-45014247D01*
X75235023Y-45014247D02*
X75235023Y-45252342D01*
X75235023Y-45252342D02*
X75187404Y-45347580D01*
X75187404Y-45347580D02*
X75139785Y-45395200D01*
X75139785Y-45395200D02*
X75044547Y-45442819D01*
X75044547Y-45442819D02*
X74758833Y-45442819D01*
X74758833Y-45442819D02*
X74663595Y-45395200D01*
X74663595Y-45395200D02*
X74615976Y-45347580D01*
X76092166Y-44776152D02*
X76092166Y-45442819D01*
X75854071Y-44395200D02*
X75615976Y-45109485D01*
X75615976Y-45109485D02*
X76235023Y-45109485D01*
X76806452Y-44442819D02*
X76901690Y-44442819D01*
X76901690Y-44442819D02*
X76996928Y-44490438D01*
X76996928Y-44490438D02*
X77044547Y-44538057D01*
X77044547Y-44538057D02*
X77092166Y-44633295D01*
X77092166Y-44633295D02*
X77139785Y-44823771D01*
X77139785Y-44823771D02*
X77139785Y-45061866D01*
X77139785Y-45061866D02*
X77092166Y-45252342D01*
X77092166Y-45252342D02*
X77044547Y-45347580D01*
X77044547Y-45347580D02*
X76996928Y-45395200D01*
X76996928Y-45395200D02*
X76901690Y-45442819D01*
X76901690Y-45442819D02*
X76806452Y-45442819D01*
X76806452Y-45442819D02*
X76711214Y-45395200D01*
X76711214Y-45395200D02*
X76663595Y-45347580D01*
X76663595Y-45347580D02*
X76615976Y-45252342D01*
X76615976Y-45252342D02*
X76568357Y-45061866D01*
X76568357Y-45061866D02*
X76568357Y-44823771D01*
X76568357Y-44823771D02*
X76615976Y-44633295D01*
X76615976Y-44633295D02*
X76663595Y-44538057D01*
X76663595Y-44538057D02*
X76711214Y-44490438D01*
X76711214Y-44490438D02*
X76806452Y-44442819D01*
X78092166Y-45442819D02*
X77520738Y-45442819D01*
X77806452Y-45442819D02*
X77806452Y-44442819D01*
X77806452Y-44442819D02*
X77711214Y-44585676D01*
X77711214Y-44585676D02*
X77615976Y-44680914D01*
X77615976Y-44680914D02*
X77520738Y-44728533D01*
X72959319Y-37631666D02*
X72483128Y-37964999D01*
X72959319Y-38203094D02*
X71959319Y-38203094D01*
X71959319Y-38203094D02*
X71959319Y-37822142D01*
X71959319Y-37822142D02*
X72006938Y-37726904D01*
X72006938Y-37726904D02*
X72054557Y-37679285D01*
X72054557Y-37679285D02*
X72149795Y-37631666D01*
X72149795Y-37631666D02*
X72292652Y-37631666D01*
X72292652Y-37631666D02*
X72387890Y-37679285D01*
X72387890Y-37679285D02*
X72435509Y-37726904D01*
X72435509Y-37726904D02*
X72483128Y-37822142D01*
X72483128Y-37822142D02*
X72483128Y-38203094D01*
X72959319Y-36679285D02*
X72959319Y-37250713D01*
X72959319Y-36964999D02*
X71959319Y-36964999D01*
X71959319Y-36964999D02*
X72102176Y-37060237D01*
X72102176Y-37060237D02*
X72197414Y-37155475D01*
X72197414Y-37155475D02*
X72245033Y-37250713D01*
X77286074Y-37975007D02*
X76714646Y-37975007D01*
X77000360Y-37975007D02*
X77000360Y-36975007D01*
X77000360Y-36975007D02*
X76905122Y-37117864D01*
X76905122Y-37117864D02*
X76809884Y-37213102D01*
X76809884Y-37213102D02*
X76714646Y-37260721D01*
X77905122Y-36975007D02*
X78000360Y-36975007D01*
X78000360Y-36975007D02*
X78095598Y-37022626D01*
X78095598Y-37022626D02*
X78143217Y-37070245D01*
X78143217Y-37070245D02*
X78190836Y-37165483D01*
X78190836Y-37165483D02*
X78238455Y-37355959D01*
X78238455Y-37355959D02*
X78238455Y-37594054D01*
X78238455Y-37594054D02*
X78190836Y-37784530D01*
X78190836Y-37784530D02*
X78143217Y-37879768D01*
X78143217Y-37879768D02*
X78095598Y-37927388D01*
X78095598Y-37927388D02*
X78000360Y-37975007D01*
X78000360Y-37975007D02*
X77905122Y-37975007D01*
X77905122Y-37975007D02*
X77809884Y-37927388D01*
X77809884Y-37927388D02*
X77762265Y-37879768D01*
X77762265Y-37879768D02*
X77714646Y-37784530D01*
X77714646Y-37784530D02*
X77667027Y-37594054D01*
X77667027Y-37594054D02*
X77667027Y-37355959D01*
X77667027Y-37355959D02*
X77714646Y-37165483D01*
X77714646Y-37165483D02*
X77762265Y-37070245D01*
X77762265Y-37070245D02*
X77809884Y-37022626D01*
X77809884Y-37022626D02*
X77905122Y-36975007D01*
X78667027Y-37975007D02*
X78667027Y-36975007D01*
X78762265Y-37594054D02*
X79047979Y-37975007D01*
X79047979Y-37308340D02*
X78667027Y-37689292D01*
X58492400Y-34242026D02*
X59301923Y-34242026D01*
X59301923Y-34242026D02*
X59397161Y-34194407D01*
X59397161Y-34194407D02*
X59444781Y-34146788D01*
X59444781Y-34146788D02*
X59492400Y-34051550D01*
X59492400Y-34051550D02*
X59492400Y-33861074D01*
X59492400Y-33861074D02*
X59444781Y-33765836D01*
X59444781Y-33765836D02*
X59397161Y-33718217D01*
X59397161Y-33718217D02*
X59301923Y-33670598D01*
X59301923Y-33670598D02*
X58492400Y-33670598D01*
X59492400Y-32670598D02*
X59492400Y-33242026D01*
X59492400Y-32956312D02*
X58492400Y-32956312D01*
X58492400Y-32956312D02*
X58635257Y-33051550D01*
X58635257Y-33051550D02*
X58730495Y-33146788D01*
X58730495Y-33146788D02*
X58778114Y-33242026D01*
X60468590Y-37218216D02*
X60468590Y-36884883D01*
X60992400Y-36742026D02*
X60992400Y-37218216D01*
X60992400Y-37218216D02*
X59992400Y-37218216D01*
X59992400Y-37218216D02*
X59992400Y-36742026D01*
X60944781Y-36361073D02*
X60992400Y-36218216D01*
X60992400Y-36218216D02*
X60992400Y-35980121D01*
X60992400Y-35980121D02*
X60944781Y-35884883D01*
X60944781Y-35884883D02*
X60897161Y-35837264D01*
X60897161Y-35837264D02*
X60801923Y-35789645D01*
X60801923Y-35789645D02*
X60706685Y-35789645D01*
X60706685Y-35789645D02*
X60611447Y-35837264D01*
X60611447Y-35837264D02*
X60563828Y-35884883D01*
X60563828Y-35884883D02*
X60516209Y-35980121D01*
X60516209Y-35980121D02*
X60468590Y-36170597D01*
X60468590Y-36170597D02*
X60420971Y-36265835D01*
X60420971Y-36265835D02*
X60373352Y-36313454D01*
X60373352Y-36313454D02*
X60278114Y-36361073D01*
X60278114Y-36361073D02*
X60182876Y-36361073D01*
X60182876Y-36361073D02*
X60087638Y-36313454D01*
X60087638Y-36313454D02*
X60040019Y-36265835D01*
X60040019Y-36265835D02*
X59992400Y-36170597D01*
X59992400Y-36170597D02*
X59992400Y-35932502D01*
X59992400Y-35932502D02*
X60040019Y-35789645D01*
X60992400Y-35361073D02*
X59992400Y-35361073D01*
X59992400Y-35361073D02*
X59992400Y-34980121D01*
X59992400Y-34980121D02*
X60040019Y-34884883D01*
X60040019Y-34884883D02*
X60087638Y-34837264D01*
X60087638Y-34837264D02*
X60182876Y-34789645D01*
X60182876Y-34789645D02*
X60325733Y-34789645D01*
X60325733Y-34789645D02*
X60420971Y-34837264D01*
X60420971Y-34837264D02*
X60468590Y-34884883D01*
X60468590Y-34884883D02*
X60516209Y-34980121D01*
X60516209Y-34980121D02*
X60516209Y-35361073D01*
X59992400Y-34456311D02*
X59992400Y-33837264D01*
X59992400Y-33837264D02*
X60373352Y-34170597D01*
X60373352Y-34170597D02*
X60373352Y-34027740D01*
X60373352Y-34027740D02*
X60420971Y-33932502D01*
X60420971Y-33932502D02*
X60468590Y-33884883D01*
X60468590Y-33884883D02*
X60563828Y-33837264D01*
X60563828Y-33837264D02*
X60801923Y-33837264D01*
X60801923Y-33837264D02*
X60897161Y-33884883D01*
X60897161Y-33884883D02*
X60944781Y-33932502D01*
X60944781Y-33932502D02*
X60992400Y-34027740D01*
X60992400Y-34027740D02*
X60992400Y-34313454D01*
X60992400Y-34313454D02*
X60944781Y-34408692D01*
X60944781Y-34408692D02*
X60897161Y-34456311D01*
X60087638Y-33456311D02*
X60040019Y-33408692D01*
X60040019Y-33408692D02*
X59992400Y-33313454D01*
X59992400Y-33313454D02*
X59992400Y-33075359D01*
X59992400Y-33075359D02*
X60040019Y-32980121D01*
X60040019Y-32980121D02*
X60087638Y-32932502D01*
X60087638Y-32932502D02*
X60182876Y-32884883D01*
X60182876Y-32884883D02*
X60278114Y-32884883D01*
X60278114Y-32884883D02*
X60420971Y-32932502D01*
X60420971Y-32932502D02*
X60992400Y-33503930D01*
X60992400Y-33503930D02*
X60992400Y-32884883D01*
X60611447Y-32456311D02*
X60611447Y-31694407D01*
X60897161Y-30646788D02*
X60944781Y-30694407D01*
X60944781Y-30694407D02*
X60992400Y-30837264D01*
X60992400Y-30837264D02*
X60992400Y-30932502D01*
X60992400Y-30932502D02*
X60944781Y-31075359D01*
X60944781Y-31075359D02*
X60849542Y-31170597D01*
X60849542Y-31170597D02*
X60754304Y-31218216D01*
X60754304Y-31218216D02*
X60563828Y-31265835D01*
X60563828Y-31265835D02*
X60420971Y-31265835D01*
X60420971Y-31265835D02*
X60230495Y-31218216D01*
X60230495Y-31218216D02*
X60135257Y-31170597D01*
X60135257Y-31170597D02*
X60040019Y-31075359D01*
X60040019Y-31075359D02*
X59992400Y-30932502D01*
X59992400Y-30932502D02*
X59992400Y-30837264D01*
X59992400Y-30837264D02*
X60040019Y-30694407D01*
X60040019Y-30694407D02*
X60087638Y-30646788D01*
X59992400Y-30313454D02*
X59992400Y-29694407D01*
X59992400Y-29694407D02*
X60373352Y-30027740D01*
X60373352Y-30027740D02*
X60373352Y-29884883D01*
X60373352Y-29884883D02*
X60420971Y-29789645D01*
X60420971Y-29789645D02*
X60468590Y-29742026D01*
X60468590Y-29742026D02*
X60563828Y-29694407D01*
X60563828Y-29694407D02*
X60801923Y-29694407D01*
X60801923Y-29694407D02*
X60897161Y-29742026D01*
X60897161Y-29742026D02*
X60944781Y-29789645D01*
X60944781Y-29789645D02*
X60992400Y-29884883D01*
X60992400Y-29884883D02*
X60992400Y-30170597D01*
X60992400Y-30170597D02*
X60944781Y-30265835D01*
X60944781Y-30265835D02*
X60897161Y-30313454D01*
X66580801Y-42815302D02*
X66580801Y-43815302D01*
X66580801Y-43815302D02*
X66342706Y-43815302D01*
X66342706Y-43815302D02*
X66199849Y-43767683D01*
X66199849Y-43767683D02*
X66104611Y-43672445D01*
X66104611Y-43672445D02*
X66056992Y-43577207D01*
X66056992Y-43577207D02*
X66009373Y-43386731D01*
X66009373Y-43386731D02*
X66009373Y-43243874D01*
X66009373Y-43243874D02*
X66056992Y-43053398D01*
X66056992Y-43053398D02*
X66104611Y-42958160D01*
X66104611Y-42958160D02*
X66199849Y-42862922D01*
X66199849Y-42862922D02*
X66342706Y-42815302D01*
X66342706Y-42815302D02*
X66580801Y-42815302D01*
X65104611Y-43815302D02*
X65580801Y-43815302D01*
X65580801Y-43815302D02*
X65628420Y-43339112D01*
X65628420Y-43339112D02*
X65580801Y-43386731D01*
X65580801Y-43386731D02*
X65485563Y-43434350D01*
X65485563Y-43434350D02*
X65247468Y-43434350D01*
X65247468Y-43434350D02*
X65152230Y-43386731D01*
X65152230Y-43386731D02*
X65104611Y-43339112D01*
X65104611Y-43339112D02*
X65056992Y-43243874D01*
X65056992Y-43243874D02*
X65056992Y-43005779D01*
X65056992Y-43005779D02*
X65104611Y-42910541D01*
X65104611Y-42910541D02*
X65152230Y-42862922D01*
X65152230Y-42862922D02*
X65247468Y-42815302D01*
X65247468Y-42815302D02*
X65485563Y-42815302D01*
X65485563Y-42815302D02*
X65580801Y-42862922D01*
X65580801Y-42862922D02*
X65628420Y-42910541D01*
X54554360Y-41227683D02*
X54649598Y-41275302D01*
X54649598Y-41275302D02*
X54792455Y-41275302D01*
X54792455Y-41275302D02*
X54935312Y-41227683D01*
X54935312Y-41227683D02*
X55030550Y-41132445D01*
X55030550Y-41132445D02*
X55078169Y-41037207D01*
X55078169Y-41037207D02*
X55125788Y-40846731D01*
X55125788Y-40846731D02*
X55125788Y-40703874D01*
X55125788Y-40703874D02*
X55078169Y-40513398D01*
X55078169Y-40513398D02*
X55030550Y-40418160D01*
X55030550Y-40418160D02*
X54935312Y-40322922D01*
X54935312Y-40322922D02*
X54792455Y-40275302D01*
X54792455Y-40275302D02*
X54697217Y-40275302D01*
X54697217Y-40275302D02*
X54554360Y-40322922D01*
X54554360Y-40322922D02*
X54506741Y-40370541D01*
X54506741Y-40370541D02*
X54506741Y-40703874D01*
X54506741Y-40703874D02*
X54697217Y-40703874D01*
X66580801Y-25035302D02*
X66580801Y-26035302D01*
X66580801Y-26035302D02*
X66342706Y-26035302D01*
X66342706Y-26035302D02*
X66199849Y-25987683D01*
X66199849Y-25987683D02*
X66104611Y-25892445D01*
X66104611Y-25892445D02*
X66056992Y-25797207D01*
X66056992Y-25797207D02*
X66009373Y-25606731D01*
X66009373Y-25606731D02*
X66009373Y-25463874D01*
X66009373Y-25463874D02*
X66056992Y-25273398D01*
X66056992Y-25273398D02*
X66104611Y-25178160D01*
X66104611Y-25178160D02*
X66199849Y-25082922D01*
X66199849Y-25082922D02*
X66342706Y-25035302D01*
X66342706Y-25035302D02*
X66580801Y-25035302D01*
X65628420Y-25940064D02*
X65580801Y-25987683D01*
X65580801Y-25987683D02*
X65485563Y-26035302D01*
X65485563Y-26035302D02*
X65247468Y-26035302D01*
X65247468Y-26035302D02*
X65152230Y-25987683D01*
X65152230Y-25987683D02*
X65104611Y-25940064D01*
X65104611Y-25940064D02*
X65056992Y-25844826D01*
X65056992Y-25844826D02*
X65056992Y-25749588D01*
X65056992Y-25749588D02*
X65104611Y-25606731D01*
X65104611Y-25606731D02*
X65676039Y-25035302D01*
X65676039Y-25035302D02*
X65056992Y-25035302D01*
X64104611Y-25035302D02*
X64676039Y-25035302D01*
X64390325Y-25035302D02*
X64390325Y-26035302D01*
X64390325Y-26035302D02*
X64485563Y-25892445D01*
X64485563Y-25892445D02*
X64580801Y-25797207D01*
X64580801Y-25797207D02*
X64676039Y-25749588D01*
X56030550Y-24908302D02*
X56030550Y-25908302D01*
X56030550Y-25908302D02*
X55792455Y-25908302D01*
X55792455Y-25908302D02*
X55649598Y-25860683D01*
X55649598Y-25860683D02*
X55554360Y-25765445D01*
X55554360Y-25765445D02*
X55506741Y-25670207D01*
X55506741Y-25670207D02*
X55459122Y-25479731D01*
X55459122Y-25479731D02*
X55459122Y-25336874D01*
X55459122Y-25336874D02*
X55506741Y-25146398D01*
X55506741Y-25146398D02*
X55554360Y-25051160D01*
X55554360Y-25051160D02*
X55649598Y-24955922D01*
X55649598Y-24955922D02*
X55792455Y-24908302D01*
X55792455Y-24908302D02*
X56030550Y-24908302D01*
X54840074Y-25908302D02*
X54744836Y-25908302D01*
X54744836Y-25908302D02*
X54649598Y-25860683D01*
X54649598Y-25860683D02*
X54601979Y-25813064D01*
X54601979Y-25813064D02*
X54554360Y-25717826D01*
X54554360Y-25717826D02*
X54506741Y-25527350D01*
X54506741Y-25527350D02*
X54506741Y-25289255D01*
X54506741Y-25289255D02*
X54554360Y-25098779D01*
X54554360Y-25098779D02*
X54601979Y-25003541D01*
X54601979Y-25003541D02*
X54649598Y-24955922D01*
X54649598Y-24955922D02*
X54744836Y-24908302D01*
X54744836Y-24908302D02*
X54840074Y-24908302D01*
X54840074Y-24908302D02*
X54935312Y-24955922D01*
X54935312Y-24955922D02*
X54982931Y-25003541D01*
X54982931Y-25003541D02*
X55030550Y-25098779D01*
X55030550Y-25098779D02*
X55078169Y-25289255D01*
X55078169Y-25289255D02*
X55078169Y-25527350D01*
X55078169Y-25527350D02*
X55030550Y-25717826D01*
X55030550Y-25717826D02*
X54982931Y-25813064D01*
X54982931Y-25813064D02*
X54935312Y-25860683D01*
X54935312Y-25860683D02*
X54840074Y-25908302D01*
X56030550Y-32655302D02*
X56030550Y-33655302D01*
X56030550Y-33655302D02*
X55792455Y-33655302D01*
X55792455Y-33655302D02*
X55649598Y-33607683D01*
X55649598Y-33607683D02*
X55554360Y-33512445D01*
X55554360Y-33512445D02*
X55506741Y-33417207D01*
X55506741Y-33417207D02*
X55459122Y-33226731D01*
X55459122Y-33226731D02*
X55459122Y-33083874D01*
X55459122Y-33083874D02*
X55506741Y-32893398D01*
X55506741Y-32893398D02*
X55554360Y-32798160D01*
X55554360Y-32798160D02*
X55649598Y-32702922D01*
X55649598Y-32702922D02*
X55792455Y-32655302D01*
X55792455Y-32655302D02*
X56030550Y-32655302D01*
X55125788Y-33655302D02*
X54506741Y-33655302D01*
X54506741Y-33655302D02*
X54840074Y-33274350D01*
X54840074Y-33274350D02*
X54697217Y-33274350D01*
X54697217Y-33274350D02*
X54601979Y-33226731D01*
X54601979Y-33226731D02*
X54554360Y-33179112D01*
X54554360Y-33179112D02*
X54506741Y-33083874D01*
X54506741Y-33083874D02*
X54506741Y-32845779D01*
X54506741Y-32845779D02*
X54554360Y-32750541D01*
X54554360Y-32750541D02*
X54601979Y-32702922D01*
X54601979Y-32702922D02*
X54697217Y-32655302D01*
X54697217Y-32655302D02*
X54982931Y-32655302D01*
X54982931Y-32655302D02*
X55078169Y-32702922D01*
X55078169Y-32702922D02*
X55125788Y-32750541D01*
X56030550Y-27575302D02*
X56030550Y-28575302D01*
X56030550Y-28575302D02*
X55792455Y-28575302D01*
X55792455Y-28575302D02*
X55649598Y-28527683D01*
X55649598Y-28527683D02*
X55554360Y-28432445D01*
X55554360Y-28432445D02*
X55506741Y-28337207D01*
X55506741Y-28337207D02*
X55459122Y-28146731D01*
X55459122Y-28146731D02*
X55459122Y-28003874D01*
X55459122Y-28003874D02*
X55506741Y-27813398D01*
X55506741Y-27813398D02*
X55554360Y-27718160D01*
X55554360Y-27718160D02*
X55649598Y-27622922D01*
X55649598Y-27622922D02*
X55792455Y-27575302D01*
X55792455Y-27575302D02*
X56030550Y-27575302D01*
X54506741Y-27575302D02*
X55078169Y-27575302D01*
X54792455Y-27575302D02*
X54792455Y-28575302D01*
X54792455Y-28575302D02*
X54887693Y-28432445D01*
X54887693Y-28432445D02*
X54982931Y-28337207D01*
X54982931Y-28337207D02*
X55078169Y-28289588D01*
X56935312Y-38735302D02*
X56316265Y-38735302D01*
X56316265Y-38735302D02*
X56649598Y-38354350D01*
X56649598Y-38354350D02*
X56506741Y-38354350D01*
X56506741Y-38354350D02*
X56411503Y-38306731D01*
X56411503Y-38306731D02*
X56363884Y-38259112D01*
X56363884Y-38259112D02*
X56316265Y-38163874D01*
X56316265Y-38163874D02*
X56316265Y-37925779D01*
X56316265Y-37925779D02*
X56363884Y-37830541D01*
X56363884Y-37830541D02*
X56411503Y-37782922D01*
X56411503Y-37782922D02*
X56506741Y-37735302D01*
X56506741Y-37735302D02*
X56792455Y-37735302D01*
X56792455Y-37735302D02*
X56887693Y-37782922D01*
X56887693Y-37782922D02*
X56935312Y-37830541D01*
X56030550Y-38735302D02*
X55697217Y-37735302D01*
X55697217Y-37735302D02*
X55363884Y-38735302D01*
X55125788Y-38735302D02*
X54506741Y-38735302D01*
X54506741Y-38735302D02*
X54840074Y-38354350D01*
X54840074Y-38354350D02*
X54697217Y-38354350D01*
X54697217Y-38354350D02*
X54601979Y-38306731D01*
X54601979Y-38306731D02*
X54554360Y-38259112D01*
X54554360Y-38259112D02*
X54506741Y-38163874D01*
X54506741Y-38163874D02*
X54506741Y-37925779D01*
X54506741Y-37925779D02*
X54554360Y-37830541D01*
X54554360Y-37830541D02*
X54601979Y-37782922D01*
X54601979Y-37782922D02*
X54697217Y-37735302D01*
X54697217Y-37735302D02*
X54982931Y-37735302D01*
X54982931Y-37735302D02*
X55078169Y-37782922D01*
X55078169Y-37782922D02*
X55125788Y-37830541D01*
X56030550Y-30115302D02*
X56030550Y-31115302D01*
X56030550Y-31115302D02*
X55792455Y-31115302D01*
X55792455Y-31115302D02*
X55649598Y-31067683D01*
X55649598Y-31067683D02*
X55554360Y-30972445D01*
X55554360Y-30972445D02*
X55506741Y-30877207D01*
X55506741Y-30877207D02*
X55459122Y-30686731D01*
X55459122Y-30686731D02*
X55459122Y-30543874D01*
X55459122Y-30543874D02*
X55506741Y-30353398D01*
X55506741Y-30353398D02*
X55554360Y-30258160D01*
X55554360Y-30258160D02*
X55649598Y-30162922D01*
X55649598Y-30162922D02*
X55792455Y-30115302D01*
X55792455Y-30115302D02*
X56030550Y-30115302D01*
X55078169Y-31020064D02*
X55030550Y-31067683D01*
X55030550Y-31067683D02*
X54935312Y-31115302D01*
X54935312Y-31115302D02*
X54697217Y-31115302D01*
X54697217Y-31115302D02*
X54601979Y-31067683D01*
X54601979Y-31067683D02*
X54554360Y-31020064D01*
X54554360Y-31020064D02*
X54506741Y-30924826D01*
X54506741Y-30924826D02*
X54506741Y-30829588D01*
X54506741Y-30829588D02*
X54554360Y-30686731D01*
X54554360Y-30686731D02*
X55125788Y-30115302D01*
X55125788Y-30115302D02*
X54506741Y-30115302D01*
X66580801Y-30115302D02*
X66580801Y-31115302D01*
X66580801Y-31115302D02*
X66342706Y-31115302D01*
X66342706Y-31115302D02*
X66199849Y-31067683D01*
X66199849Y-31067683D02*
X66104611Y-30972445D01*
X66104611Y-30972445D02*
X66056992Y-30877207D01*
X66056992Y-30877207D02*
X66009373Y-30686731D01*
X66009373Y-30686731D02*
X66009373Y-30543874D01*
X66009373Y-30543874D02*
X66056992Y-30353398D01*
X66056992Y-30353398D02*
X66104611Y-30258160D01*
X66104611Y-30258160D02*
X66199849Y-30162922D01*
X66199849Y-30162922D02*
X66342706Y-30115302D01*
X66342706Y-30115302D02*
X66580801Y-30115302D01*
X65056992Y-30115302D02*
X65628420Y-30115302D01*
X65342706Y-30115302D02*
X65342706Y-31115302D01*
X65342706Y-31115302D02*
X65437944Y-30972445D01*
X65437944Y-30972445D02*
X65533182Y-30877207D01*
X65533182Y-30877207D02*
X65628420Y-30829588D01*
X64437944Y-31115302D02*
X64342706Y-31115302D01*
X64342706Y-31115302D02*
X64247468Y-31067683D01*
X64247468Y-31067683D02*
X64199849Y-31020064D01*
X64199849Y-31020064D02*
X64152230Y-30924826D01*
X64152230Y-30924826D02*
X64104611Y-30734350D01*
X64104611Y-30734350D02*
X64104611Y-30496255D01*
X64104611Y-30496255D02*
X64152230Y-30305779D01*
X64152230Y-30305779D02*
X64199849Y-30210541D01*
X64199849Y-30210541D02*
X64247468Y-30162922D01*
X64247468Y-30162922D02*
X64342706Y-30115302D01*
X64342706Y-30115302D02*
X64437944Y-30115302D01*
X64437944Y-30115302D02*
X64533182Y-30162922D01*
X64533182Y-30162922D02*
X64580801Y-30210541D01*
X64580801Y-30210541D02*
X64628420Y-30305779D01*
X64628420Y-30305779D02*
X64676039Y-30496255D01*
X64676039Y-30496255D02*
X64676039Y-30734350D01*
X64676039Y-30734350D02*
X64628420Y-30924826D01*
X64628420Y-30924826D02*
X64580801Y-31020064D01*
X64580801Y-31020064D02*
X64533182Y-31067683D01*
X64533182Y-31067683D02*
X64437944Y-31115302D01*
X56030550Y-35195302D02*
X56030550Y-36195302D01*
X56030550Y-36195302D02*
X55792455Y-36195302D01*
X55792455Y-36195302D02*
X55649598Y-36147683D01*
X55649598Y-36147683D02*
X55554360Y-36052445D01*
X55554360Y-36052445D02*
X55506741Y-35957207D01*
X55506741Y-35957207D02*
X55459122Y-35766731D01*
X55459122Y-35766731D02*
X55459122Y-35623874D01*
X55459122Y-35623874D02*
X55506741Y-35433398D01*
X55506741Y-35433398D02*
X55554360Y-35338160D01*
X55554360Y-35338160D02*
X55649598Y-35242922D01*
X55649598Y-35242922D02*
X55792455Y-35195302D01*
X55792455Y-35195302D02*
X56030550Y-35195302D01*
X54601979Y-35861969D02*
X54601979Y-35195302D01*
X54840074Y-36242922D02*
X55078169Y-35528636D01*
X55078169Y-35528636D02*
X54459122Y-35528636D01*
X66580801Y-37735302D02*
X66580801Y-38735302D01*
X66580801Y-38735302D02*
X66342706Y-38735302D01*
X66342706Y-38735302D02*
X66199849Y-38687683D01*
X66199849Y-38687683D02*
X66104611Y-38592445D01*
X66104611Y-38592445D02*
X66056992Y-38497207D01*
X66056992Y-38497207D02*
X66009373Y-38306731D01*
X66009373Y-38306731D02*
X66009373Y-38163874D01*
X66009373Y-38163874D02*
X66056992Y-37973398D01*
X66056992Y-37973398D02*
X66104611Y-37878160D01*
X66104611Y-37878160D02*
X66199849Y-37782922D01*
X66199849Y-37782922D02*
X66342706Y-37735302D01*
X66342706Y-37735302D02*
X66580801Y-37735302D01*
X65676039Y-38735302D02*
X65009373Y-38735302D01*
X65009373Y-38735302D02*
X65437944Y-37735302D01*
X55411503Y-43815302D02*
X55887693Y-43815302D01*
X55887693Y-43815302D02*
X55935312Y-43339112D01*
X55935312Y-43339112D02*
X55887693Y-43386731D01*
X55887693Y-43386731D02*
X55792455Y-43434350D01*
X55792455Y-43434350D02*
X55554360Y-43434350D01*
X55554360Y-43434350D02*
X55459122Y-43386731D01*
X55459122Y-43386731D02*
X55411503Y-43339112D01*
X55411503Y-43339112D02*
X55363884Y-43243874D01*
X55363884Y-43243874D02*
X55363884Y-43005779D01*
X55363884Y-43005779D02*
X55411503Y-42910541D01*
X55411503Y-42910541D02*
X55459122Y-42862922D01*
X55459122Y-42862922D02*
X55554360Y-42815302D01*
X55554360Y-42815302D02*
X55792455Y-42815302D01*
X55792455Y-42815302D02*
X55887693Y-42862922D01*
X55887693Y-42862922D02*
X55935312Y-42910541D01*
X55078169Y-43815302D02*
X54744836Y-42815302D01*
X54744836Y-42815302D02*
X54411503Y-43815302D01*
X66580801Y-40275302D02*
X66580801Y-41275302D01*
X66580801Y-41275302D02*
X66342706Y-41275302D01*
X66342706Y-41275302D02*
X66199849Y-41227683D01*
X66199849Y-41227683D02*
X66104611Y-41132445D01*
X66104611Y-41132445D02*
X66056992Y-41037207D01*
X66056992Y-41037207D02*
X66009373Y-40846731D01*
X66009373Y-40846731D02*
X66009373Y-40703874D01*
X66009373Y-40703874D02*
X66056992Y-40513398D01*
X66056992Y-40513398D02*
X66104611Y-40418160D01*
X66104611Y-40418160D02*
X66199849Y-40322922D01*
X66199849Y-40322922D02*
X66342706Y-40275302D01*
X66342706Y-40275302D02*
X66580801Y-40275302D01*
X65152230Y-41275302D02*
X65342706Y-41275302D01*
X65342706Y-41275302D02*
X65437944Y-41227683D01*
X65437944Y-41227683D02*
X65485563Y-41180064D01*
X65485563Y-41180064D02*
X65580801Y-41037207D01*
X65580801Y-41037207D02*
X65628420Y-40846731D01*
X65628420Y-40846731D02*
X65628420Y-40465779D01*
X65628420Y-40465779D02*
X65580801Y-40370541D01*
X65580801Y-40370541D02*
X65533182Y-40322922D01*
X65533182Y-40322922D02*
X65437944Y-40275302D01*
X65437944Y-40275302D02*
X65247468Y-40275302D01*
X65247468Y-40275302D02*
X65152230Y-40322922D01*
X65152230Y-40322922D02*
X65104611Y-40370541D01*
X65104611Y-40370541D02*
X65056992Y-40465779D01*
X65056992Y-40465779D02*
X65056992Y-40703874D01*
X65056992Y-40703874D02*
X65104611Y-40799112D01*
X65104611Y-40799112D02*
X65152230Y-40846731D01*
X65152230Y-40846731D02*
X65247468Y-40894350D01*
X65247468Y-40894350D02*
X65437944Y-40894350D01*
X65437944Y-40894350D02*
X65533182Y-40846731D01*
X65533182Y-40846731D02*
X65580801Y-40799112D01*
X65580801Y-40799112D02*
X65628420Y-40703874D01*
X66580801Y-27575302D02*
X66580801Y-28575302D01*
X66580801Y-28575302D02*
X66342706Y-28575302D01*
X66342706Y-28575302D02*
X66199849Y-28527683D01*
X66199849Y-28527683D02*
X66104611Y-28432445D01*
X66104611Y-28432445D02*
X66056992Y-28337207D01*
X66056992Y-28337207D02*
X66009373Y-28146731D01*
X66009373Y-28146731D02*
X66009373Y-28003874D01*
X66009373Y-28003874D02*
X66056992Y-27813398D01*
X66056992Y-27813398D02*
X66104611Y-27718160D01*
X66104611Y-27718160D02*
X66199849Y-27622922D01*
X66199849Y-27622922D02*
X66342706Y-27575302D01*
X66342706Y-27575302D02*
X66580801Y-27575302D01*
X65628420Y-28480064D02*
X65580801Y-28527683D01*
X65580801Y-28527683D02*
X65485563Y-28575302D01*
X65485563Y-28575302D02*
X65247468Y-28575302D01*
X65247468Y-28575302D02*
X65152230Y-28527683D01*
X65152230Y-28527683D02*
X65104611Y-28480064D01*
X65104611Y-28480064D02*
X65056992Y-28384826D01*
X65056992Y-28384826D02*
X65056992Y-28289588D01*
X65056992Y-28289588D02*
X65104611Y-28146731D01*
X65104611Y-28146731D02*
X65676039Y-27575302D01*
X65676039Y-27575302D02*
X65056992Y-27575302D01*
X64437944Y-28575302D02*
X64342706Y-28575302D01*
X64342706Y-28575302D02*
X64247468Y-28527683D01*
X64247468Y-28527683D02*
X64199849Y-28480064D01*
X64199849Y-28480064D02*
X64152230Y-28384826D01*
X64152230Y-28384826D02*
X64104611Y-28194350D01*
X64104611Y-28194350D02*
X64104611Y-27956255D01*
X64104611Y-27956255D02*
X64152230Y-27765779D01*
X64152230Y-27765779D02*
X64199849Y-27670541D01*
X64199849Y-27670541D02*
X64247468Y-27622922D01*
X64247468Y-27622922D02*
X64342706Y-27575302D01*
X64342706Y-27575302D02*
X64437944Y-27575302D01*
X64437944Y-27575302D02*
X64533182Y-27622922D01*
X64533182Y-27622922D02*
X64580801Y-27670541D01*
X64580801Y-27670541D02*
X64628420Y-27765779D01*
X64628420Y-27765779D02*
X64676039Y-27956255D01*
X64676039Y-27956255D02*
X64676039Y-28194350D01*
X64676039Y-28194350D02*
X64628420Y-28384826D01*
X64628420Y-28384826D02*
X64580801Y-28480064D01*
X64580801Y-28480064D02*
X64533182Y-28527683D01*
X64533182Y-28527683D02*
X64437944Y-28575302D01*
X66580801Y-32655302D02*
X66580801Y-33655302D01*
X66580801Y-33655302D02*
X66342706Y-33655302D01*
X66342706Y-33655302D02*
X66199849Y-33607683D01*
X66199849Y-33607683D02*
X66104611Y-33512445D01*
X66104611Y-33512445D02*
X66056992Y-33417207D01*
X66056992Y-33417207D02*
X66009373Y-33226731D01*
X66009373Y-33226731D02*
X66009373Y-33083874D01*
X66009373Y-33083874D02*
X66056992Y-32893398D01*
X66056992Y-32893398D02*
X66104611Y-32798160D01*
X66104611Y-32798160D02*
X66199849Y-32702922D01*
X66199849Y-32702922D02*
X66342706Y-32655302D01*
X66342706Y-32655302D02*
X66580801Y-32655302D01*
X65533182Y-32655302D02*
X65342706Y-32655302D01*
X65342706Y-32655302D02*
X65247468Y-32702922D01*
X65247468Y-32702922D02*
X65199849Y-32750541D01*
X65199849Y-32750541D02*
X65104611Y-32893398D01*
X65104611Y-32893398D02*
X65056992Y-33083874D01*
X65056992Y-33083874D02*
X65056992Y-33464826D01*
X65056992Y-33464826D02*
X65104611Y-33560064D01*
X65104611Y-33560064D02*
X65152230Y-33607683D01*
X65152230Y-33607683D02*
X65247468Y-33655302D01*
X65247468Y-33655302D02*
X65437944Y-33655302D01*
X65437944Y-33655302D02*
X65533182Y-33607683D01*
X65533182Y-33607683D02*
X65580801Y-33560064D01*
X65580801Y-33560064D02*
X65628420Y-33464826D01*
X65628420Y-33464826D02*
X65628420Y-33226731D01*
X65628420Y-33226731D02*
X65580801Y-33131493D01*
X65580801Y-33131493D02*
X65533182Y-33083874D01*
X65533182Y-33083874D02*
X65437944Y-33036255D01*
X65437944Y-33036255D02*
X65247468Y-33036255D01*
X65247468Y-33036255D02*
X65152230Y-33083874D01*
X65152230Y-33083874D02*
X65104611Y-33131493D01*
X65104611Y-33131493D02*
X65056992Y-33226731D01*
X66580801Y-35195302D02*
X66580801Y-36195302D01*
X66580801Y-36195302D02*
X66342706Y-36195302D01*
X66342706Y-36195302D02*
X66199849Y-36147683D01*
X66199849Y-36147683D02*
X66104611Y-36052445D01*
X66104611Y-36052445D02*
X66056992Y-35957207D01*
X66056992Y-35957207D02*
X66009373Y-35766731D01*
X66009373Y-35766731D02*
X66009373Y-35623874D01*
X66009373Y-35623874D02*
X66056992Y-35433398D01*
X66056992Y-35433398D02*
X66104611Y-35338160D01*
X66104611Y-35338160D02*
X66199849Y-35242922D01*
X66199849Y-35242922D02*
X66342706Y-35195302D01*
X66342706Y-35195302D02*
X66580801Y-35195302D01*
X65437944Y-35766731D02*
X65533182Y-35814350D01*
X65533182Y-35814350D02*
X65580801Y-35861969D01*
X65580801Y-35861969D02*
X65628420Y-35957207D01*
X65628420Y-35957207D02*
X65628420Y-36004826D01*
X65628420Y-36004826D02*
X65580801Y-36100064D01*
X65580801Y-36100064D02*
X65533182Y-36147683D01*
X65533182Y-36147683D02*
X65437944Y-36195302D01*
X65437944Y-36195302D02*
X65247468Y-36195302D01*
X65247468Y-36195302D02*
X65152230Y-36147683D01*
X65152230Y-36147683D02*
X65104611Y-36100064D01*
X65104611Y-36100064D02*
X65056992Y-36004826D01*
X65056992Y-36004826D02*
X65056992Y-35957207D01*
X65056992Y-35957207D02*
X65104611Y-35861969D01*
X65104611Y-35861969D02*
X65152230Y-35814350D01*
X65152230Y-35814350D02*
X65247468Y-35766731D01*
X65247468Y-35766731D02*
X65437944Y-35766731D01*
X65437944Y-35766731D02*
X65533182Y-35719112D01*
X65533182Y-35719112D02*
X65580801Y-35671493D01*
X65580801Y-35671493D02*
X65628420Y-35576255D01*
X65628420Y-35576255D02*
X65628420Y-35385779D01*
X65628420Y-35385779D02*
X65580801Y-35290541D01*
X65580801Y-35290541D02*
X65533182Y-35242922D01*
X65533182Y-35242922D02*
X65437944Y-35195302D01*
X65437944Y-35195302D02*
X65247468Y-35195302D01*
X65247468Y-35195302D02*
X65152230Y-35242922D01*
X65152230Y-35242922D02*
X65104611Y-35290541D01*
X65104611Y-35290541D02*
X65056992Y-35385779D01*
X65056992Y-35385779D02*
X65056992Y-35576255D01*
X65056992Y-35576255D02*
X65104611Y-35671493D01*
X65104611Y-35671493D02*
X65152230Y-35719112D01*
X65152230Y-35719112D02*
X65247468Y-35766731D01*
X83767833Y-26648580D02*
X83720214Y-26696200D01*
X83720214Y-26696200D02*
X83577357Y-26743819D01*
X83577357Y-26743819D02*
X83482119Y-26743819D01*
X83482119Y-26743819D02*
X83339262Y-26696200D01*
X83339262Y-26696200D02*
X83244024Y-26600961D01*
X83244024Y-26600961D02*
X83196405Y-26505723D01*
X83196405Y-26505723D02*
X83148786Y-26315247D01*
X83148786Y-26315247D02*
X83148786Y-26172390D01*
X83148786Y-26172390D02*
X83196405Y-25981914D01*
X83196405Y-25981914D02*
X83244024Y-25886676D01*
X83244024Y-25886676D02*
X83339262Y-25791438D01*
X83339262Y-25791438D02*
X83482119Y-25743819D01*
X83482119Y-25743819D02*
X83577357Y-25743819D01*
X83577357Y-25743819D02*
X83720214Y-25791438D01*
X83720214Y-25791438D02*
X83767833Y-25839057D01*
X84101167Y-25743819D02*
X84720214Y-25743819D01*
X84720214Y-25743819D02*
X84386881Y-26124771D01*
X84386881Y-26124771D02*
X84529738Y-26124771D01*
X84529738Y-26124771D02*
X84624976Y-26172390D01*
X84624976Y-26172390D02*
X84672595Y-26220009D01*
X84672595Y-26220009D02*
X84720214Y-26315247D01*
X84720214Y-26315247D02*
X84720214Y-26553342D01*
X84720214Y-26553342D02*
X84672595Y-26648580D01*
X84672595Y-26648580D02*
X84624976Y-26696200D01*
X84624976Y-26696200D02*
X84529738Y-26743819D01*
X84529738Y-26743819D02*
X84244024Y-26743819D01*
X84244024Y-26743819D02*
X84148786Y-26696200D01*
X84148786Y-26696200D02*
X84101167Y-26648580D01*
X85974642Y-34760819D02*
X85784166Y-34760819D01*
X85784166Y-34760819D02*
X85688928Y-34808438D01*
X85688928Y-34808438D02*
X85641309Y-34856057D01*
X85641309Y-34856057D02*
X85546071Y-34998914D01*
X85546071Y-34998914D02*
X85498452Y-35189390D01*
X85498452Y-35189390D02*
X85498452Y-35570342D01*
X85498452Y-35570342D02*
X85546071Y-35665580D01*
X85546071Y-35665580D02*
X85593690Y-35713200D01*
X85593690Y-35713200D02*
X85688928Y-35760819D01*
X85688928Y-35760819D02*
X85879404Y-35760819D01*
X85879404Y-35760819D02*
X85974642Y-35713200D01*
X85974642Y-35713200D02*
X86022261Y-35665580D01*
X86022261Y-35665580D02*
X86069880Y-35570342D01*
X86069880Y-35570342D02*
X86069880Y-35332247D01*
X86069880Y-35332247D02*
X86022261Y-35237009D01*
X86022261Y-35237009D02*
X85974642Y-35189390D01*
X85974642Y-35189390D02*
X85879404Y-35141771D01*
X85879404Y-35141771D02*
X85688928Y-35141771D01*
X85688928Y-35141771D02*
X85593690Y-35189390D01*
X85593690Y-35189390D02*
X85546071Y-35237009D01*
X85546071Y-35237009D02*
X85498452Y-35332247D01*
X86641309Y-35189390D02*
X86546071Y-35141771D01*
X86546071Y-35141771D02*
X86498452Y-35094152D01*
X86498452Y-35094152D02*
X86450833Y-34998914D01*
X86450833Y-34998914D02*
X86450833Y-34951295D01*
X86450833Y-34951295D02*
X86498452Y-34856057D01*
X86498452Y-34856057D02*
X86546071Y-34808438D01*
X86546071Y-34808438D02*
X86641309Y-34760819D01*
X86641309Y-34760819D02*
X86831785Y-34760819D01*
X86831785Y-34760819D02*
X86927023Y-34808438D01*
X86927023Y-34808438D02*
X86974642Y-34856057D01*
X86974642Y-34856057D02*
X87022261Y-34951295D01*
X87022261Y-34951295D02*
X87022261Y-34998914D01*
X87022261Y-34998914D02*
X86974642Y-35094152D01*
X86974642Y-35094152D02*
X86927023Y-35141771D01*
X86927023Y-35141771D02*
X86831785Y-35189390D01*
X86831785Y-35189390D02*
X86641309Y-35189390D01*
X86641309Y-35189390D02*
X86546071Y-35237009D01*
X86546071Y-35237009D02*
X86498452Y-35284628D01*
X86498452Y-35284628D02*
X86450833Y-35379866D01*
X86450833Y-35379866D02*
X86450833Y-35570342D01*
X86450833Y-35570342D02*
X86498452Y-35665580D01*
X86498452Y-35665580D02*
X86546071Y-35713200D01*
X86546071Y-35713200D02*
X86641309Y-35760819D01*
X86641309Y-35760819D02*
X86831785Y-35760819D01*
X86831785Y-35760819D02*
X86927023Y-35713200D01*
X86927023Y-35713200D02*
X86974642Y-35665580D01*
X86974642Y-35665580D02*
X87022261Y-35570342D01*
X87022261Y-35570342D02*
X87022261Y-35379866D01*
X87022261Y-35379866D02*
X86974642Y-35284628D01*
X86974642Y-35284628D02*
X86927023Y-35237009D01*
X86927023Y-35237009D02*
X86831785Y-35189390D01*
X87641309Y-34760819D02*
X87736547Y-34760819D01*
X87736547Y-34760819D02*
X87831785Y-34808438D01*
X87831785Y-34808438D02*
X87879404Y-34856057D01*
X87879404Y-34856057D02*
X87927023Y-34951295D01*
X87927023Y-34951295D02*
X87974642Y-35141771D01*
X87974642Y-35141771D02*
X87974642Y-35379866D01*
X87974642Y-35379866D02*
X87927023Y-35570342D01*
X87927023Y-35570342D02*
X87879404Y-35665580D01*
X87879404Y-35665580D02*
X87831785Y-35713200D01*
X87831785Y-35713200D02*
X87736547Y-35760819D01*
X87736547Y-35760819D02*
X87641309Y-35760819D01*
X87641309Y-35760819D02*
X87546071Y-35713200D01*
X87546071Y-35713200D02*
X87498452Y-35665580D01*
X87498452Y-35665580D02*
X87450833Y-35570342D01*
X87450833Y-35570342D02*
X87403214Y-35379866D01*
X87403214Y-35379866D02*
X87403214Y-35141771D01*
X87403214Y-35141771D02*
X87450833Y-34951295D01*
X87450833Y-34951295D02*
X87498452Y-34856057D01*
X87498452Y-34856057D02*
X87546071Y-34808438D01*
X87546071Y-34808438D02*
X87641309Y-34760819D01*
X88831785Y-35094152D02*
X88831785Y-35760819D01*
X88403214Y-35094152D02*
X88403214Y-35617961D01*
X88403214Y-35617961D02*
X88450833Y-35713200D01*
X88450833Y-35713200D02*
X88546071Y-35760819D01*
X88546071Y-35760819D02*
X88688928Y-35760819D01*
X88688928Y-35760819D02*
X88784166Y-35713200D01*
X88784166Y-35713200D02*
X88831785Y-35665580D01*
X89641309Y-35237009D02*
X89307976Y-35237009D01*
X89307976Y-35760819D02*
X89307976Y-34760819D01*
X89307976Y-34760819D02*
X89784166Y-34760819D01*
D12*
X29162919Y-34623333D02*
X29877204Y-34623333D01*
X29877204Y-34623333D02*
X30020061Y-34670952D01*
X30020061Y-34670952D02*
X30115300Y-34766190D01*
X30115300Y-34766190D02*
X30162919Y-34909047D01*
X30162919Y-34909047D02*
X30162919Y-35004285D01*
X30162919Y-33623333D02*
X30162919Y-34194761D01*
X30162919Y-33909047D02*
X29162919Y-33909047D01*
X29162919Y-33909047D02*
X29305776Y-34004285D01*
X29305776Y-34004285D02*
X29401014Y-34099523D01*
X29401014Y-34099523D02*
X29448633Y-34194761D01*
D11*
X34240319Y-40813904D02*
X35049842Y-40813904D01*
X35049842Y-40813904D02*
X35145080Y-40766285D01*
X35145080Y-40766285D02*
X35192700Y-40718666D01*
X35192700Y-40718666D02*
X35240319Y-40623428D01*
X35240319Y-40623428D02*
X35240319Y-40432952D01*
X35240319Y-40432952D02*
X35192700Y-40337714D01*
X35192700Y-40337714D02*
X35145080Y-40290095D01*
X35145080Y-40290095D02*
X35049842Y-40242476D01*
X35049842Y-40242476D02*
X34240319Y-40242476D01*
X35192700Y-39813904D02*
X35240319Y-39671047D01*
X35240319Y-39671047D02*
X35240319Y-39432952D01*
X35240319Y-39432952D02*
X35192700Y-39337714D01*
X35192700Y-39337714D02*
X35145080Y-39290095D01*
X35145080Y-39290095D02*
X35049842Y-39242476D01*
X35049842Y-39242476D02*
X34954604Y-39242476D01*
X34954604Y-39242476D02*
X34859366Y-39290095D01*
X34859366Y-39290095D02*
X34811747Y-39337714D01*
X34811747Y-39337714D02*
X34764128Y-39432952D01*
X34764128Y-39432952D02*
X34716509Y-39623428D01*
X34716509Y-39623428D02*
X34668890Y-39718666D01*
X34668890Y-39718666D02*
X34621271Y-39766285D01*
X34621271Y-39766285D02*
X34526033Y-39813904D01*
X34526033Y-39813904D02*
X34430795Y-39813904D01*
X34430795Y-39813904D02*
X34335557Y-39766285D01*
X34335557Y-39766285D02*
X34287938Y-39718666D01*
X34287938Y-39718666D02*
X34240319Y-39623428D01*
X34240319Y-39623428D02*
X34240319Y-39385333D01*
X34240319Y-39385333D02*
X34287938Y-39242476D01*
X34716509Y-38480571D02*
X34764128Y-38337714D01*
X34764128Y-38337714D02*
X34811747Y-38290095D01*
X34811747Y-38290095D02*
X34906985Y-38242476D01*
X34906985Y-38242476D02*
X35049842Y-38242476D01*
X35049842Y-38242476D02*
X35145080Y-38290095D01*
X35145080Y-38290095D02*
X35192700Y-38337714D01*
X35192700Y-38337714D02*
X35240319Y-38432952D01*
X35240319Y-38432952D02*
X35240319Y-38813904D01*
X35240319Y-38813904D02*
X34240319Y-38813904D01*
X34240319Y-38813904D02*
X34240319Y-38480571D01*
X34240319Y-38480571D02*
X34287938Y-38385333D01*
X34287938Y-38385333D02*
X34335557Y-38337714D01*
X34335557Y-38337714D02*
X34430795Y-38290095D01*
X34430795Y-38290095D02*
X34526033Y-38290095D01*
X34526033Y-38290095D02*
X34621271Y-38337714D01*
X34621271Y-38337714D02*
X34668890Y-38385333D01*
X34668890Y-38385333D02*
X34716509Y-38480571D01*
X34716509Y-38480571D02*
X34716509Y-38813904D01*
X35145080Y-36480571D02*
X35192700Y-36528190D01*
X35192700Y-36528190D02*
X35240319Y-36671047D01*
X35240319Y-36671047D02*
X35240319Y-36766285D01*
X35240319Y-36766285D02*
X35192700Y-36909142D01*
X35192700Y-36909142D02*
X35097461Y-37004380D01*
X35097461Y-37004380D02*
X35002223Y-37051999D01*
X35002223Y-37051999D02*
X34811747Y-37099618D01*
X34811747Y-37099618D02*
X34668890Y-37099618D01*
X34668890Y-37099618D02*
X34478414Y-37051999D01*
X34478414Y-37051999D02*
X34383176Y-37004380D01*
X34383176Y-37004380D02*
X34287938Y-36909142D01*
X34287938Y-36909142D02*
X34240319Y-36766285D01*
X34240319Y-36766285D02*
X34240319Y-36671047D01*
X34240319Y-36671047D02*
X34287938Y-36528190D01*
X34287938Y-36528190D02*
X34335557Y-36480571D01*
X34335557Y-35337713D02*
X34287938Y-35290094D01*
X34287938Y-35290094D02*
X34240319Y-35194856D01*
X34240319Y-35194856D02*
X34240319Y-34956761D01*
X34240319Y-34956761D02*
X34287938Y-34861523D01*
X34287938Y-34861523D02*
X34335557Y-34813904D01*
X34335557Y-34813904D02*
X34430795Y-34766285D01*
X34430795Y-34766285D02*
X34526033Y-34766285D01*
X34526033Y-34766285D02*
X34668890Y-34813904D01*
X34668890Y-34813904D02*
X35240319Y-35385332D01*
X35240319Y-35385332D02*
X35240319Y-34766285D01*
X35145080Y-34337713D02*
X35192700Y-34290094D01*
X35192700Y-34290094D02*
X35240319Y-34337713D01*
X35240319Y-34337713D02*
X35192700Y-34385332D01*
X35192700Y-34385332D02*
X35145080Y-34337713D01*
X35145080Y-34337713D02*
X35240319Y-34337713D01*
X34240319Y-33671047D02*
X34240319Y-33575809D01*
X34240319Y-33575809D02*
X34287938Y-33480571D01*
X34287938Y-33480571D02*
X34335557Y-33432952D01*
X34335557Y-33432952D02*
X34430795Y-33385333D01*
X34430795Y-33385333D02*
X34621271Y-33337714D01*
X34621271Y-33337714D02*
X34859366Y-33337714D01*
X34859366Y-33337714D02*
X35049842Y-33385333D01*
X35049842Y-33385333D02*
X35145080Y-33432952D01*
X35145080Y-33432952D02*
X35192700Y-33480571D01*
X35192700Y-33480571D02*
X35240319Y-33575809D01*
X35240319Y-33575809D02*
X35240319Y-33671047D01*
X35240319Y-33671047D02*
X35192700Y-33766285D01*
X35192700Y-33766285D02*
X35145080Y-33813904D01*
X35145080Y-33813904D02*
X35049842Y-33861523D01*
X35049842Y-33861523D02*
X34859366Y-33909142D01*
X34859366Y-33909142D02*
X34621271Y-33909142D01*
X34621271Y-33909142D02*
X34430795Y-33861523D01*
X34430795Y-33861523D02*
X34335557Y-33813904D01*
X34335557Y-33813904D02*
X34287938Y-33766285D01*
X34287938Y-33766285D02*
X34240319Y-33671047D01*
X34668890Y-32004380D02*
X34621271Y-32099618D01*
X34621271Y-32099618D02*
X34573652Y-32147237D01*
X34573652Y-32147237D02*
X34478414Y-32194856D01*
X34478414Y-32194856D02*
X34430795Y-32194856D01*
X34430795Y-32194856D02*
X34335557Y-32147237D01*
X34335557Y-32147237D02*
X34287938Y-32099618D01*
X34287938Y-32099618D02*
X34240319Y-32004380D01*
X34240319Y-32004380D02*
X34240319Y-31813904D01*
X34240319Y-31813904D02*
X34287938Y-31718666D01*
X34287938Y-31718666D02*
X34335557Y-31671047D01*
X34335557Y-31671047D02*
X34430795Y-31623428D01*
X34430795Y-31623428D02*
X34478414Y-31623428D01*
X34478414Y-31623428D02*
X34573652Y-31671047D01*
X34573652Y-31671047D02*
X34621271Y-31718666D01*
X34621271Y-31718666D02*
X34668890Y-31813904D01*
X34668890Y-31813904D02*
X34668890Y-32004380D01*
X34668890Y-32004380D02*
X34716509Y-32099618D01*
X34716509Y-32099618D02*
X34764128Y-32147237D01*
X34764128Y-32147237D02*
X34859366Y-32194856D01*
X34859366Y-32194856D02*
X35049842Y-32194856D01*
X35049842Y-32194856D02*
X35145080Y-32147237D01*
X35145080Y-32147237D02*
X35192700Y-32099618D01*
X35192700Y-32099618D02*
X35240319Y-32004380D01*
X35240319Y-32004380D02*
X35240319Y-31813904D01*
X35240319Y-31813904D02*
X35192700Y-31718666D01*
X35192700Y-31718666D02*
X35145080Y-31671047D01*
X35145080Y-31671047D02*
X35049842Y-31623428D01*
X35049842Y-31623428D02*
X34859366Y-31623428D01*
X34859366Y-31623428D02*
X34764128Y-31671047D01*
X34764128Y-31671047D02*
X34716509Y-31718666D01*
X34716509Y-31718666D02*
X34668890Y-31813904D01*
X35240319Y-31194856D02*
X34240319Y-31194856D01*
X34240319Y-31194856D02*
X34240319Y-30813904D01*
X34240319Y-30813904D02*
X34287938Y-30718666D01*
X34287938Y-30718666D02*
X34335557Y-30671047D01*
X34335557Y-30671047D02*
X34430795Y-30623428D01*
X34430795Y-30623428D02*
X34573652Y-30623428D01*
X34573652Y-30623428D02*
X34668890Y-30671047D01*
X34668890Y-30671047D02*
X34716509Y-30718666D01*
X34716509Y-30718666D02*
X34764128Y-30813904D01*
X34764128Y-30813904D02*
X34764128Y-31194856D01*
X35240319Y-30194856D02*
X34573652Y-30194856D01*
X34240319Y-30194856D02*
X34287938Y-30242475D01*
X34287938Y-30242475D02*
X34335557Y-30194856D01*
X34335557Y-30194856D02*
X34287938Y-30147237D01*
X34287938Y-30147237D02*
X34240319Y-30194856D01*
X34240319Y-30194856D02*
X34335557Y-30194856D01*
X34573652Y-29718666D02*
X35240319Y-29718666D01*
X34668890Y-29718666D02*
X34621271Y-29671047D01*
X34621271Y-29671047D02*
X34573652Y-29575809D01*
X34573652Y-29575809D02*
X34573652Y-29432952D01*
X34573652Y-29432952D02*
X34621271Y-29337714D01*
X34621271Y-29337714D02*
X34716509Y-29290095D01*
X34716509Y-29290095D02*
X35240319Y-29290095D01*
X102857595Y-31839819D02*
X102857595Y-32649342D01*
X102857595Y-32649342D02*
X102905214Y-32744580D01*
X102905214Y-32744580D02*
X102952833Y-32792200D01*
X102952833Y-32792200D02*
X103048071Y-32839819D01*
X103048071Y-32839819D02*
X103238547Y-32839819D01*
X103238547Y-32839819D02*
X103333785Y-32792200D01*
X103333785Y-32792200D02*
X103381404Y-32744580D01*
X103381404Y-32744580D02*
X103429023Y-32649342D01*
X103429023Y-32649342D02*
X103429023Y-31839819D01*
X104381404Y-31839819D02*
X103905214Y-31839819D01*
X103905214Y-31839819D02*
X103857595Y-32316009D01*
X103857595Y-32316009D02*
X103905214Y-32268390D01*
X103905214Y-32268390D02*
X104000452Y-32220771D01*
X104000452Y-32220771D02*
X104238547Y-32220771D01*
X104238547Y-32220771D02*
X104333785Y-32268390D01*
X104333785Y-32268390D02*
X104381404Y-32316009D01*
X104381404Y-32316009D02*
X104429023Y-32411247D01*
X104429023Y-32411247D02*
X104429023Y-32649342D01*
X104429023Y-32649342D02*
X104381404Y-32744580D01*
X104381404Y-32744580D02*
X104333785Y-32792200D01*
X104333785Y-32792200D02*
X104238547Y-32839819D01*
X104238547Y-32839819D02*
X104000452Y-32839819D01*
X104000452Y-32839819D02*
X103905214Y-32792200D01*
X103905214Y-32792200D02*
X103857595Y-32744580D01*
X100661319Y-30614523D02*
X101661319Y-30376428D01*
X101661319Y-30376428D02*
X100947033Y-30185952D01*
X100947033Y-30185952D02*
X101661319Y-29995476D01*
X101661319Y-29995476D02*
X100661319Y-29757381D01*
X101613700Y-29424047D02*
X101661319Y-29281190D01*
X101661319Y-29281190D02*
X101661319Y-29043095D01*
X101661319Y-29043095D02*
X101613700Y-28947857D01*
X101613700Y-28947857D02*
X101566080Y-28900238D01*
X101566080Y-28900238D02*
X101470842Y-28852619D01*
X101470842Y-28852619D02*
X101375604Y-28852619D01*
X101375604Y-28852619D02*
X101280366Y-28900238D01*
X101280366Y-28900238D02*
X101232747Y-28947857D01*
X101232747Y-28947857D02*
X101185128Y-29043095D01*
X101185128Y-29043095D02*
X101137509Y-29233571D01*
X101137509Y-29233571D02*
X101089890Y-29328809D01*
X101089890Y-29328809D02*
X101042271Y-29376428D01*
X101042271Y-29376428D02*
X100947033Y-29424047D01*
X100947033Y-29424047D02*
X100851795Y-29424047D01*
X100851795Y-29424047D02*
X100756557Y-29376428D01*
X100756557Y-29376428D02*
X100708938Y-29328809D01*
X100708938Y-29328809D02*
X100661319Y-29233571D01*
X100661319Y-29233571D02*
X100661319Y-28995476D01*
X100661319Y-28995476D02*
X100708938Y-28852619D01*
X100756557Y-28471666D02*
X100708938Y-28424047D01*
X100708938Y-28424047D02*
X100661319Y-28328809D01*
X100661319Y-28328809D02*
X100661319Y-28090714D01*
X100661319Y-28090714D02*
X100708938Y-27995476D01*
X100708938Y-27995476D02*
X100756557Y-27947857D01*
X100756557Y-27947857D02*
X100851795Y-27900238D01*
X100851795Y-27900238D02*
X100947033Y-27900238D01*
X100947033Y-27900238D02*
X101089890Y-27947857D01*
X101089890Y-27947857D02*
X101661319Y-28519285D01*
X101661319Y-28519285D02*
X101661319Y-27900238D01*
X101089890Y-27328809D02*
X101042271Y-27424047D01*
X101042271Y-27424047D02*
X100994652Y-27471666D01*
X100994652Y-27471666D02*
X100899414Y-27519285D01*
X100899414Y-27519285D02*
X100851795Y-27519285D01*
X100851795Y-27519285D02*
X100756557Y-27471666D01*
X100756557Y-27471666D02*
X100708938Y-27424047D01*
X100708938Y-27424047D02*
X100661319Y-27328809D01*
X100661319Y-27328809D02*
X100661319Y-27138333D01*
X100661319Y-27138333D02*
X100708938Y-27043095D01*
X100708938Y-27043095D02*
X100756557Y-26995476D01*
X100756557Y-26995476D02*
X100851795Y-26947857D01*
X100851795Y-26947857D02*
X100899414Y-26947857D01*
X100899414Y-26947857D02*
X100994652Y-26995476D01*
X100994652Y-26995476D02*
X101042271Y-27043095D01*
X101042271Y-27043095D02*
X101089890Y-27138333D01*
X101089890Y-27138333D02*
X101089890Y-27328809D01*
X101089890Y-27328809D02*
X101137509Y-27424047D01*
X101137509Y-27424047D02*
X101185128Y-27471666D01*
X101185128Y-27471666D02*
X101280366Y-27519285D01*
X101280366Y-27519285D02*
X101470842Y-27519285D01*
X101470842Y-27519285D02*
X101566080Y-27471666D01*
X101566080Y-27471666D02*
X101613700Y-27424047D01*
X101613700Y-27424047D02*
X101661319Y-27328809D01*
X101661319Y-27328809D02*
X101661319Y-27138333D01*
X101661319Y-27138333D02*
X101613700Y-27043095D01*
X101613700Y-27043095D02*
X101566080Y-26995476D01*
X101566080Y-26995476D02*
X101470842Y-26947857D01*
X101470842Y-26947857D02*
X101280366Y-26947857D01*
X101280366Y-26947857D02*
X101185128Y-26995476D01*
X101185128Y-26995476D02*
X101137509Y-27043095D01*
X101137509Y-27043095D02*
X101089890Y-27138333D01*
X101661319Y-25995476D02*
X101661319Y-26566904D01*
X101661319Y-26281190D02*
X100661319Y-26281190D01*
X100661319Y-26281190D02*
X100804176Y-26376428D01*
X100804176Y-26376428D02*
X100899414Y-26471666D01*
X100899414Y-26471666D02*
X100947033Y-26566904D01*
X100756557Y-25614523D02*
X100708938Y-25566904D01*
X100708938Y-25566904D02*
X100661319Y-25471666D01*
X100661319Y-25471666D02*
X100661319Y-25233571D01*
X100661319Y-25233571D02*
X100708938Y-25138333D01*
X100708938Y-25138333D02*
X100756557Y-25090714D01*
X100756557Y-25090714D02*
X100851795Y-25043095D01*
X100851795Y-25043095D02*
X100947033Y-25043095D01*
X100947033Y-25043095D02*
X101089890Y-25090714D01*
X101089890Y-25090714D02*
X101661319Y-25662142D01*
X101661319Y-25662142D02*
X101661319Y-25043095D01*
X101137509Y-24281190D02*
X101185128Y-24138333D01*
X101185128Y-24138333D02*
X101232747Y-24090714D01*
X101232747Y-24090714D02*
X101327985Y-24043095D01*
X101327985Y-24043095D02*
X101470842Y-24043095D01*
X101470842Y-24043095D02*
X101566080Y-24090714D01*
X101566080Y-24090714D02*
X101613700Y-24138333D01*
X101613700Y-24138333D02*
X101661319Y-24233571D01*
X101661319Y-24233571D02*
X101661319Y-24614523D01*
X101661319Y-24614523D02*
X100661319Y-24614523D01*
X100661319Y-24614523D02*
X100661319Y-24281190D01*
X100661319Y-24281190D02*
X100708938Y-24185952D01*
X100708938Y-24185952D02*
X100756557Y-24138333D01*
X100756557Y-24138333D02*
X100851795Y-24090714D01*
X100851795Y-24090714D02*
X100947033Y-24090714D01*
X100947033Y-24090714D02*
X101042271Y-24138333D01*
X101042271Y-24138333D02*
X101089890Y-24185952D01*
X101089890Y-24185952D02*
X101137509Y-24281190D01*
X101137509Y-24281190D02*
X101137509Y-24614523D01*
X78954261Y-40390057D02*
X78859023Y-40342438D01*
X78859023Y-40342438D02*
X78763785Y-40247200D01*
X78763785Y-40247200D02*
X78620928Y-40104342D01*
X78620928Y-40104342D02*
X78525690Y-40056723D01*
X78525690Y-40056723D02*
X78430452Y-40056723D01*
X78478071Y-40294819D02*
X78382833Y-40247200D01*
X78382833Y-40247200D02*
X78287595Y-40151961D01*
X78287595Y-40151961D02*
X78239976Y-39961485D01*
X78239976Y-39961485D02*
X78239976Y-39628152D01*
X78239976Y-39628152D02*
X78287595Y-39437676D01*
X78287595Y-39437676D02*
X78382833Y-39342438D01*
X78382833Y-39342438D02*
X78478071Y-39294819D01*
X78478071Y-39294819D02*
X78668547Y-39294819D01*
X78668547Y-39294819D02*
X78763785Y-39342438D01*
X78763785Y-39342438D02*
X78859023Y-39437676D01*
X78859023Y-39437676D02*
X78906642Y-39628152D01*
X78906642Y-39628152D02*
X78906642Y-39961485D01*
X78906642Y-39961485D02*
X78859023Y-40151961D01*
X78859023Y-40151961D02*
X78763785Y-40247200D01*
X78763785Y-40247200D02*
X78668547Y-40294819D01*
X78668547Y-40294819D02*
X78478071Y-40294819D01*
X79287595Y-39390057D02*
X79335214Y-39342438D01*
X79335214Y-39342438D02*
X79430452Y-39294819D01*
X79430452Y-39294819D02*
X79668547Y-39294819D01*
X79668547Y-39294819D02*
X79763785Y-39342438D01*
X79763785Y-39342438D02*
X79811404Y-39390057D01*
X79811404Y-39390057D02*
X79859023Y-39485295D01*
X79859023Y-39485295D02*
X79859023Y-39580533D01*
X79859023Y-39580533D02*
X79811404Y-39723390D01*
X79811404Y-39723390D02*
X79239976Y-40294819D01*
X79239976Y-40294819D02*
X79859023Y-40294819D01*
X79315214Y-44508057D02*
X79362833Y-44460438D01*
X79362833Y-44460438D02*
X79458071Y-44412819D01*
X79458071Y-44412819D02*
X79696166Y-44412819D01*
X79696166Y-44412819D02*
X79791404Y-44460438D01*
X79791404Y-44460438D02*
X79839023Y-44508057D01*
X79839023Y-44508057D02*
X79886642Y-44603295D01*
X79886642Y-44603295D02*
X79886642Y-44698533D01*
X79886642Y-44698533D02*
X79839023Y-44841390D01*
X79839023Y-44841390D02*
X79267595Y-45412819D01*
X79267595Y-45412819D02*
X79886642Y-45412819D01*
X80315214Y-45412819D02*
X80315214Y-44412819D01*
X80315214Y-44412819D02*
X80886642Y-45412819D01*
X80886642Y-45412819D02*
X80886642Y-44412819D01*
X81315214Y-44508057D02*
X81362833Y-44460438D01*
X81362833Y-44460438D02*
X81458071Y-44412819D01*
X81458071Y-44412819D02*
X81696166Y-44412819D01*
X81696166Y-44412819D02*
X81791404Y-44460438D01*
X81791404Y-44460438D02*
X81839023Y-44508057D01*
X81839023Y-44508057D02*
X81886642Y-44603295D01*
X81886642Y-44603295D02*
X81886642Y-44698533D01*
X81886642Y-44698533D02*
X81839023Y-44841390D01*
X81839023Y-44841390D02*
X81267595Y-45412819D01*
X81267595Y-45412819D02*
X81886642Y-45412819D01*
X82267595Y-44508057D02*
X82315214Y-44460438D01*
X82315214Y-44460438D02*
X82410452Y-44412819D01*
X82410452Y-44412819D02*
X82648547Y-44412819D01*
X82648547Y-44412819D02*
X82743785Y-44460438D01*
X82743785Y-44460438D02*
X82791404Y-44508057D01*
X82791404Y-44508057D02*
X82839023Y-44603295D01*
X82839023Y-44603295D02*
X82839023Y-44698533D01*
X82839023Y-44698533D02*
X82791404Y-44841390D01*
X82791404Y-44841390D02*
X82219976Y-45412819D01*
X82219976Y-45412819D02*
X82839023Y-45412819D01*
X83219976Y-44508057D02*
X83267595Y-44460438D01*
X83267595Y-44460438D02*
X83362833Y-44412819D01*
X83362833Y-44412819D02*
X83600928Y-44412819D01*
X83600928Y-44412819D02*
X83696166Y-44460438D01*
X83696166Y-44460438D02*
X83743785Y-44508057D01*
X83743785Y-44508057D02*
X83791404Y-44603295D01*
X83791404Y-44603295D02*
X83791404Y-44698533D01*
X83791404Y-44698533D02*
X83743785Y-44841390D01*
X83743785Y-44841390D02*
X83172357Y-45412819D01*
X83172357Y-45412819D02*
X83791404Y-45412819D01*
X84172357Y-44508057D02*
X84219976Y-44460438D01*
X84219976Y-44460438D02*
X84315214Y-44412819D01*
X84315214Y-44412819D02*
X84553309Y-44412819D01*
X84553309Y-44412819D02*
X84648547Y-44460438D01*
X84648547Y-44460438D02*
X84696166Y-44508057D01*
X84696166Y-44508057D02*
X84743785Y-44603295D01*
X84743785Y-44603295D02*
X84743785Y-44698533D01*
X84743785Y-44698533D02*
X84696166Y-44841390D01*
X84696166Y-44841390D02*
X84124738Y-45412819D01*
X84124738Y-45412819D02*
X84743785Y-45412819D01*
X88596319Y-44830904D02*
X89405842Y-44830904D01*
X89405842Y-44830904D02*
X89501080Y-44783285D01*
X89501080Y-44783285D02*
X89548700Y-44735666D01*
X89548700Y-44735666D02*
X89596319Y-44640428D01*
X89596319Y-44640428D02*
X89596319Y-44449952D01*
X89596319Y-44449952D02*
X89548700Y-44354714D01*
X89548700Y-44354714D02*
X89501080Y-44307095D01*
X89501080Y-44307095D02*
X89405842Y-44259476D01*
X89405842Y-44259476D02*
X88596319Y-44259476D01*
X88596319Y-43354714D02*
X88596319Y-43545190D01*
X88596319Y-43545190D02*
X88643938Y-43640428D01*
X88643938Y-43640428D02*
X88691557Y-43688047D01*
X88691557Y-43688047D02*
X88834414Y-43783285D01*
X88834414Y-43783285D02*
X89024890Y-43830904D01*
X89024890Y-43830904D02*
X89405842Y-43830904D01*
X89405842Y-43830904D02*
X89501080Y-43783285D01*
X89501080Y-43783285D02*
X89548700Y-43735666D01*
X89548700Y-43735666D02*
X89596319Y-43640428D01*
X89596319Y-43640428D02*
X89596319Y-43449952D01*
X89596319Y-43449952D02*
X89548700Y-43354714D01*
X89548700Y-43354714D02*
X89501080Y-43307095D01*
X89501080Y-43307095D02*
X89405842Y-43259476D01*
X89405842Y-43259476D02*
X89167747Y-43259476D01*
X89167747Y-43259476D02*
X89072509Y-43307095D01*
X89072509Y-43307095D02*
X89024890Y-43354714D01*
X89024890Y-43354714D02*
X88977271Y-43449952D01*
X88977271Y-43449952D02*
X88977271Y-43640428D01*
X88977271Y-43640428D02*
X89024890Y-43735666D01*
X89024890Y-43735666D02*
X89072509Y-43783285D01*
X89072509Y-43783285D02*
X89167747Y-43830904D01*
X90834604Y-44719475D02*
X90834604Y-44243285D01*
X91120319Y-44814713D02*
X90120319Y-44481380D01*
X90120319Y-44481380D02*
X91120319Y-44148047D01*
X91120319Y-43814713D02*
X90120319Y-43814713D01*
X90120319Y-43814713D02*
X90834604Y-43481380D01*
X90834604Y-43481380D02*
X90120319Y-43148047D01*
X90120319Y-43148047D02*
X91120319Y-43148047D01*
X91072700Y-42719475D02*
X91120319Y-42576618D01*
X91120319Y-42576618D02*
X91120319Y-42338523D01*
X91120319Y-42338523D02*
X91072700Y-42243285D01*
X91072700Y-42243285D02*
X91025080Y-42195666D01*
X91025080Y-42195666D02*
X90929842Y-42148047D01*
X90929842Y-42148047D02*
X90834604Y-42148047D01*
X90834604Y-42148047D02*
X90739366Y-42195666D01*
X90739366Y-42195666D02*
X90691747Y-42243285D01*
X90691747Y-42243285D02*
X90644128Y-42338523D01*
X90644128Y-42338523D02*
X90596509Y-42528999D01*
X90596509Y-42528999D02*
X90548890Y-42624237D01*
X90548890Y-42624237D02*
X90501271Y-42671856D01*
X90501271Y-42671856D02*
X90406033Y-42719475D01*
X90406033Y-42719475D02*
X90310795Y-42719475D01*
X90310795Y-42719475D02*
X90215557Y-42671856D01*
X90215557Y-42671856D02*
X90167938Y-42624237D01*
X90167938Y-42624237D02*
X90120319Y-42528999D01*
X90120319Y-42528999D02*
X90120319Y-42290904D01*
X90120319Y-42290904D02*
X90167938Y-42148047D01*
X91120319Y-41195666D02*
X91120319Y-41767094D01*
X91120319Y-41481380D02*
X90120319Y-41481380D01*
X90120319Y-41481380D02*
X90263176Y-41576618D01*
X90263176Y-41576618D02*
X90358414Y-41671856D01*
X90358414Y-41671856D02*
X90406033Y-41767094D01*
X91120319Y-40243285D02*
X91120319Y-40814713D01*
X91120319Y-40528999D02*
X90120319Y-40528999D01*
X90120319Y-40528999D02*
X90263176Y-40624237D01*
X90263176Y-40624237D02*
X90358414Y-40719475D01*
X90358414Y-40719475D02*
X90406033Y-40814713D01*
X91120319Y-39290904D02*
X91120319Y-39862332D01*
X91120319Y-39576618D02*
X90120319Y-39576618D01*
X90120319Y-39576618D02*
X90263176Y-39671856D01*
X90263176Y-39671856D02*
X90358414Y-39767094D01*
X90358414Y-39767094D02*
X90406033Y-39862332D01*
X90120319Y-38957570D02*
X90120319Y-38290904D01*
X90120319Y-38290904D02*
X91120319Y-38719475D01*
X72959319Y-31281666D02*
X72483128Y-31614999D01*
X72959319Y-31853094D02*
X71959319Y-31853094D01*
X71959319Y-31853094D02*
X71959319Y-31472142D01*
X71959319Y-31472142D02*
X72006938Y-31376904D01*
X72006938Y-31376904D02*
X72054557Y-31329285D01*
X72054557Y-31329285D02*
X72149795Y-31281666D01*
X72149795Y-31281666D02*
X72292652Y-31281666D01*
X72292652Y-31281666D02*
X72387890Y-31329285D01*
X72387890Y-31329285D02*
X72435509Y-31376904D01*
X72435509Y-31376904D02*
X72483128Y-31472142D01*
X72483128Y-31472142D02*
X72483128Y-31853094D01*
X71959319Y-30948332D02*
X71959319Y-30329285D01*
X71959319Y-30329285D02*
X72340271Y-30662618D01*
X72340271Y-30662618D02*
X72340271Y-30519761D01*
X72340271Y-30519761D02*
X72387890Y-30424523D01*
X72387890Y-30424523D02*
X72435509Y-30376904D01*
X72435509Y-30376904D02*
X72530747Y-30329285D01*
X72530747Y-30329285D02*
X72768842Y-30329285D01*
X72768842Y-30329285D02*
X72864080Y-30376904D01*
X72864080Y-30376904D02*
X72911700Y-30424523D01*
X72911700Y-30424523D02*
X72959319Y-30519761D01*
X72959319Y-30519761D02*
X72959319Y-30805475D01*
X72959319Y-30805475D02*
X72911700Y-30900713D01*
X72911700Y-30900713D02*
X72864080Y-30948332D01*
X77762265Y-31625007D02*
X77190837Y-31625007D01*
X77476551Y-31625007D02*
X77476551Y-30625007D01*
X77476551Y-30625007D02*
X77381313Y-30767864D01*
X77381313Y-30767864D02*
X77286075Y-30863102D01*
X77286075Y-30863102D02*
X77190837Y-30910721D01*
X78190837Y-31625007D02*
X78190837Y-30625007D01*
X78286075Y-31244054D02*
X78571789Y-31625007D01*
X78571789Y-30958340D02*
X78190837Y-31339292D01*
X90358319Y-24677666D02*
X89882128Y-25010999D01*
X90358319Y-25249094D02*
X89358319Y-25249094D01*
X89358319Y-25249094D02*
X89358319Y-24868142D01*
X89358319Y-24868142D02*
X89405938Y-24772904D01*
X89405938Y-24772904D02*
X89453557Y-24725285D01*
X89453557Y-24725285D02*
X89548795Y-24677666D01*
X89548795Y-24677666D02*
X89691652Y-24677666D01*
X89691652Y-24677666D02*
X89786890Y-24725285D01*
X89786890Y-24725285D02*
X89834509Y-24772904D01*
X89834509Y-24772904D02*
X89882128Y-24868142D01*
X89882128Y-24868142D02*
X89882128Y-25249094D01*
X89453557Y-24296713D02*
X89405938Y-24249094D01*
X89405938Y-24249094D02*
X89358319Y-24153856D01*
X89358319Y-24153856D02*
X89358319Y-23915761D01*
X89358319Y-23915761D02*
X89405938Y-23820523D01*
X89405938Y-23820523D02*
X89453557Y-23772904D01*
X89453557Y-23772904D02*
X89548795Y-23725285D01*
X89548795Y-23725285D02*
X89644033Y-23725285D01*
X89644033Y-23725285D02*
X89786890Y-23772904D01*
X89786890Y-23772904D02*
X90358319Y-24344332D01*
X90358319Y-24344332D02*
X90358319Y-23725285D01*
X93681976Y-24402057D02*
X93729595Y-24354438D01*
X93729595Y-24354438D02*
X93824833Y-24306819D01*
X93824833Y-24306819D02*
X94062928Y-24306819D01*
X94062928Y-24306819D02*
X94158166Y-24354438D01*
X94158166Y-24354438D02*
X94205785Y-24402057D01*
X94205785Y-24402057D02*
X94253404Y-24497295D01*
X94253404Y-24497295D02*
X94253404Y-24592533D01*
X94253404Y-24592533D02*
X94205785Y-24735390D01*
X94205785Y-24735390D02*
X93634357Y-25306819D01*
X93634357Y-25306819D02*
X94253404Y-25306819D01*
X94634357Y-24402057D02*
X94681976Y-24354438D01*
X94681976Y-24354438D02*
X94777214Y-24306819D01*
X94777214Y-24306819D02*
X95015309Y-24306819D01*
X95015309Y-24306819D02*
X95110547Y-24354438D01*
X95110547Y-24354438D02*
X95158166Y-24402057D01*
X95158166Y-24402057D02*
X95205785Y-24497295D01*
X95205785Y-24497295D02*
X95205785Y-24592533D01*
X95205785Y-24592533D02*
X95158166Y-24735390D01*
X95158166Y-24735390D02*
X94586738Y-25306819D01*
X94586738Y-25306819D02*
X95205785Y-25306819D01*
X95824833Y-24306819D02*
X95920071Y-24306819D01*
X95920071Y-24306819D02*
X96015309Y-24354438D01*
X96015309Y-24354438D02*
X96062928Y-24402057D01*
X96062928Y-24402057D02*
X96110547Y-24497295D01*
X96110547Y-24497295D02*
X96158166Y-24687771D01*
X96158166Y-24687771D02*
X96158166Y-24925866D01*
X96158166Y-24925866D02*
X96110547Y-25116342D01*
X96110547Y-25116342D02*
X96062928Y-25211580D01*
X96062928Y-25211580D02*
X96015309Y-25259200D01*
X96015309Y-25259200D02*
X95920071Y-25306819D01*
X95920071Y-25306819D02*
X95824833Y-25306819D01*
X95824833Y-25306819D02*
X95729595Y-25259200D01*
X95729595Y-25259200D02*
X95681976Y-25211580D01*
X95681976Y-25211580D02*
X95634357Y-25116342D01*
X95634357Y-25116342D02*
X95586738Y-24925866D01*
X95586738Y-24925866D02*
X95586738Y-24687771D01*
X95586738Y-24687771D02*
X95634357Y-24497295D01*
X95634357Y-24497295D02*
X95681976Y-24402057D01*
X95681976Y-24402057D02*
X95729595Y-24354438D01*
X95729595Y-24354438D02*
X95824833Y-24306819D01*
X96539119Y-25306819D02*
X96777214Y-25306819D01*
X96777214Y-25306819D02*
X96777214Y-25116342D01*
X96777214Y-25116342D02*
X96681976Y-25068723D01*
X96681976Y-25068723D02*
X96586738Y-24973485D01*
X96586738Y-24973485D02*
X96539119Y-24830628D01*
X96539119Y-24830628D02*
X96539119Y-24592533D01*
X96539119Y-24592533D02*
X96586738Y-24449676D01*
X96586738Y-24449676D02*
X96681976Y-24354438D01*
X96681976Y-24354438D02*
X96824833Y-24306819D01*
X96824833Y-24306819D02*
X97015309Y-24306819D01*
X97015309Y-24306819D02*
X97158166Y-24354438D01*
X97158166Y-24354438D02*
X97253404Y-24449676D01*
X97253404Y-24449676D02*
X97301023Y-24592533D01*
X97301023Y-24592533D02*
X97301023Y-24830628D01*
X97301023Y-24830628D02*
X97253404Y-24973485D01*
X97253404Y-24973485D02*
X97158166Y-25068723D01*
X97158166Y-25068723D02*
X97062928Y-25116342D01*
X97062928Y-25116342D02*
X97062928Y-25306819D01*
X97062928Y-25306819D02*
X97301023Y-25306819D01*
X99497595Y-33444819D02*
X99497595Y-34254342D01*
X99497595Y-34254342D02*
X99545214Y-34349580D01*
X99545214Y-34349580D02*
X99592833Y-34397200D01*
X99592833Y-34397200D02*
X99688071Y-34444819D01*
X99688071Y-34444819D02*
X99878547Y-34444819D01*
X99878547Y-34444819D02*
X99973785Y-34397200D01*
X99973785Y-34397200D02*
X100021404Y-34349580D01*
X100021404Y-34349580D02*
X100069023Y-34254342D01*
X100069023Y-34254342D02*
X100069023Y-33444819D01*
X100497595Y-33540057D02*
X100545214Y-33492438D01*
X100545214Y-33492438D02*
X100640452Y-33444819D01*
X100640452Y-33444819D02*
X100878547Y-33444819D01*
X100878547Y-33444819D02*
X100973785Y-33492438D01*
X100973785Y-33492438D02*
X101021404Y-33540057D01*
X101021404Y-33540057D02*
X101069023Y-33635295D01*
X101069023Y-33635295D02*
X101069023Y-33730533D01*
X101069023Y-33730533D02*
X101021404Y-33873390D01*
X101021404Y-33873390D02*
X100449976Y-34444819D01*
X100449976Y-34444819D02*
X101069023Y-34444819D01*
X103466404Y-33809652D02*
X103466404Y-34476319D01*
X103228309Y-33428700D02*
X102990214Y-34142985D01*
X102990214Y-34142985D02*
X103609261Y-34142985D01*
X104418785Y-33809652D02*
X104418785Y-34476319D01*
X104180690Y-33428700D02*
X103942595Y-34142985D01*
X103942595Y-34142985D02*
X104561642Y-34142985D01*
X105371166Y-33476319D02*
X105180690Y-33476319D01*
X105180690Y-33476319D02*
X105085452Y-33523938D01*
X105085452Y-33523938D02*
X105037833Y-33571557D01*
X105037833Y-33571557D02*
X104942595Y-33714414D01*
X104942595Y-33714414D02*
X104894976Y-33904890D01*
X104894976Y-33904890D02*
X104894976Y-34285842D01*
X104894976Y-34285842D02*
X104942595Y-34381080D01*
X104942595Y-34381080D02*
X104990214Y-34428700D01*
X104990214Y-34428700D02*
X105085452Y-34476319D01*
X105085452Y-34476319D02*
X105275928Y-34476319D01*
X105275928Y-34476319D02*
X105371166Y-34428700D01*
X105371166Y-34428700D02*
X105418785Y-34381080D01*
X105418785Y-34381080D02*
X105466404Y-34285842D01*
X105466404Y-34285842D02*
X105466404Y-34047747D01*
X105466404Y-34047747D02*
X105418785Y-33952509D01*
X105418785Y-33952509D02*
X105371166Y-33904890D01*
X105371166Y-33904890D02*
X105275928Y-33857271D01*
X105275928Y-33857271D02*
X105085452Y-33857271D01*
X105085452Y-33857271D02*
X104990214Y-33904890D01*
X104990214Y-33904890D02*
X104942595Y-33952509D01*
X104942595Y-33952509D02*
X104894976Y-34047747D01*
X106323547Y-33476319D02*
X106133071Y-33476319D01*
X106133071Y-33476319D02*
X106037833Y-33523938D01*
X106037833Y-33523938D02*
X105990214Y-33571557D01*
X105990214Y-33571557D02*
X105894976Y-33714414D01*
X105894976Y-33714414D02*
X105847357Y-33904890D01*
X105847357Y-33904890D02*
X105847357Y-34285842D01*
X105847357Y-34285842D02*
X105894976Y-34381080D01*
X105894976Y-34381080D02*
X105942595Y-34428700D01*
X105942595Y-34428700D02*
X106037833Y-34476319D01*
X106037833Y-34476319D02*
X106228309Y-34476319D01*
X106228309Y-34476319D02*
X106323547Y-34428700D01*
X106323547Y-34428700D02*
X106371166Y-34381080D01*
X106371166Y-34381080D02*
X106418785Y-34285842D01*
X106418785Y-34285842D02*
X106418785Y-34047747D01*
X106418785Y-34047747D02*
X106371166Y-33952509D01*
X106371166Y-33952509D02*
X106323547Y-33904890D01*
X106323547Y-33904890D02*
X106228309Y-33857271D01*
X106228309Y-33857271D02*
X106037833Y-33857271D01*
X106037833Y-33857271D02*
X105942595Y-33904890D01*
X105942595Y-33904890D02*
X105894976Y-33952509D01*
X105894976Y-33952509D02*
X105847357Y-34047747D01*
X44270833Y-33379580D02*
X44223214Y-33427200D01*
X44223214Y-33427200D02*
X44080357Y-33474819D01*
X44080357Y-33474819D02*
X43985119Y-33474819D01*
X43985119Y-33474819D02*
X43842262Y-33427200D01*
X43842262Y-33427200D02*
X43747024Y-33331961D01*
X43747024Y-33331961D02*
X43699405Y-33236723D01*
X43699405Y-33236723D02*
X43651786Y-33046247D01*
X43651786Y-33046247D02*
X43651786Y-32903390D01*
X43651786Y-32903390D02*
X43699405Y-32712914D01*
X43699405Y-32712914D02*
X43747024Y-32617676D01*
X43747024Y-32617676D02*
X43842262Y-32522438D01*
X43842262Y-32522438D02*
X43985119Y-32474819D01*
X43985119Y-32474819D02*
X44080357Y-32474819D01*
X44080357Y-32474819D02*
X44223214Y-32522438D01*
X44223214Y-32522438D02*
X44270833Y-32570057D01*
X45223214Y-33474819D02*
X44651786Y-33474819D01*
X44937500Y-33474819D02*
X44937500Y-32474819D01*
X44937500Y-32474819D02*
X44842262Y-32617676D01*
X44842262Y-32617676D02*
X44747024Y-32712914D01*
X44747024Y-32712914D02*
X44651786Y-32760533D01*
X44413880Y-40586819D02*
X43842452Y-40586819D01*
X44128166Y-40586819D02*
X44128166Y-39586819D01*
X44128166Y-39586819D02*
X44032928Y-39729676D01*
X44032928Y-39729676D02*
X43937690Y-39824914D01*
X43937690Y-39824914D02*
X43842452Y-39872533D01*
X45032928Y-39586819D02*
X45128166Y-39586819D01*
X45128166Y-39586819D02*
X45223404Y-39634438D01*
X45223404Y-39634438D02*
X45271023Y-39682057D01*
X45271023Y-39682057D02*
X45318642Y-39777295D01*
X45318642Y-39777295D02*
X45366261Y-39967771D01*
X45366261Y-39967771D02*
X45366261Y-40205866D01*
X45366261Y-40205866D02*
X45318642Y-40396342D01*
X45318642Y-40396342D02*
X45271023Y-40491580D01*
X45271023Y-40491580D02*
X45223404Y-40539200D01*
X45223404Y-40539200D02*
X45128166Y-40586819D01*
X45128166Y-40586819D02*
X45032928Y-40586819D01*
X45032928Y-40586819D02*
X44937690Y-40539200D01*
X44937690Y-40539200D02*
X44890071Y-40491580D01*
X44890071Y-40491580D02*
X44842452Y-40396342D01*
X44842452Y-40396342D02*
X44794833Y-40205866D01*
X44794833Y-40205866D02*
X44794833Y-39967771D01*
X44794833Y-39967771D02*
X44842452Y-39777295D01*
X44842452Y-39777295D02*
X44890071Y-39682057D01*
X44890071Y-39682057D02*
X44937690Y-39634438D01*
X44937690Y-39634438D02*
X45032928Y-39586819D01*
X45985309Y-39586819D02*
X46080547Y-39586819D01*
X46080547Y-39586819D02*
X46175785Y-39634438D01*
X46175785Y-39634438D02*
X46223404Y-39682057D01*
X46223404Y-39682057D02*
X46271023Y-39777295D01*
X46271023Y-39777295D02*
X46318642Y-39967771D01*
X46318642Y-39967771D02*
X46318642Y-40205866D01*
X46318642Y-40205866D02*
X46271023Y-40396342D01*
X46271023Y-40396342D02*
X46223404Y-40491580D01*
X46223404Y-40491580D02*
X46175785Y-40539200D01*
X46175785Y-40539200D02*
X46080547Y-40586819D01*
X46080547Y-40586819D02*
X45985309Y-40586819D01*
X45985309Y-40586819D02*
X45890071Y-40539200D01*
X45890071Y-40539200D02*
X45842452Y-40491580D01*
X45842452Y-40491580D02*
X45794833Y-40396342D01*
X45794833Y-40396342D02*
X45747214Y-40205866D01*
X45747214Y-40205866D02*
X45747214Y-39967771D01*
X45747214Y-39967771D02*
X45794833Y-39777295D01*
X45794833Y-39777295D02*
X45842452Y-39682057D01*
X45842452Y-39682057D02*
X45890071Y-39634438D01*
X45890071Y-39634438D02*
X45985309Y-39586819D01*
X47175785Y-39920152D02*
X47175785Y-40586819D01*
X46747214Y-39920152D02*
X46747214Y-40443961D01*
X46747214Y-40443961D02*
X46794833Y-40539200D01*
X46794833Y-40539200D02*
X46890071Y-40586819D01*
X46890071Y-40586819D02*
X47032928Y-40586819D01*
X47032928Y-40586819D02*
X47128166Y-40539200D01*
X47128166Y-40539200D02*
X47175785Y-40491580D01*
X47985309Y-40063009D02*
X47651976Y-40063009D01*
X47651976Y-40586819D02*
X47651976Y-39586819D01*
X47651976Y-39586819D02*
X48128166Y-39586819D01*
D13*
%TO.C,C5*%
X92429500Y-33220000D02*
X97669500Y-33220000D01*
X92429500Y-33557000D02*
X92429500Y-33220000D01*
X92429500Y-35960000D02*
X92429500Y-35623000D01*
X97669500Y-33220000D02*
X97669500Y-33557000D01*
X97669500Y-35623000D02*
X97669500Y-35960000D01*
X97669500Y-35960000D02*
X92429500Y-35960000D01*
%TO.C,C2*%
X43127500Y-41302000D02*
X48367500Y-41302000D01*
X43127500Y-41639000D02*
X43127500Y-41302000D01*
X43127500Y-44042000D02*
X43127500Y-43705000D01*
X48367500Y-41302000D02*
X48367500Y-41639000D01*
X48367500Y-43705000D02*
X48367500Y-44042000D01*
X48367500Y-44042000D02*
X43127500Y-44042000D01*
%TO.C,C4*%
X94181500Y-26970000D02*
X99421500Y-26970000D01*
X94181500Y-27307000D02*
X94181500Y-26970000D01*
X94181500Y-29710000D02*
X94181500Y-29373000D01*
X99421500Y-26970000D02*
X99421500Y-27307000D01*
X99421500Y-29373000D02*
X99421500Y-29710000D01*
X99421500Y-29710000D02*
X94181500Y-29710000D01*
%TO.C,J2*%
X41119500Y-23285000D02*
X41119500Y-24535000D01*
X41409500Y-23575000D02*
X41409500Y-29545000D01*
X41409500Y-29545000D02*
X49029500Y-29545000D01*
X41419500Y-23585000D02*
X41419500Y-24335000D01*
X41419500Y-24335000D02*
X43219500Y-24335000D01*
X41419500Y-25835000D02*
X42169500Y-25835000D01*
X42169500Y-25835000D02*
X42169500Y-28785000D01*
X42169500Y-28785000D02*
X45219500Y-28785000D01*
X42369500Y-23285000D02*
X41119500Y-23285000D01*
X43219500Y-23585000D02*
X41419500Y-23585000D01*
X43219500Y-24335000D02*
X43219500Y-23585000D01*
X44719500Y-23585000D02*
X44719500Y-24335000D01*
X44719500Y-24335000D02*
X45719500Y-24335000D01*
X45719500Y-23585000D02*
X44719500Y-23585000D01*
X45719500Y-24335000D02*
X45719500Y-23585000D01*
X47219500Y-23585000D02*
X47219500Y-24335000D01*
X47219500Y-24335000D02*
X49019500Y-24335000D01*
X48269500Y-25835000D02*
X48269500Y-28785000D01*
X48269500Y-28785000D02*
X45219500Y-28785000D01*
X49019500Y-23585000D02*
X47219500Y-23585000D01*
X49019500Y-24335000D02*
X49019500Y-23585000D01*
X49019500Y-25835000D02*
X48269500Y-25835000D01*
X49029500Y-23575000D02*
X41409500Y-23575000D01*
X49029500Y-29545000D02*
X49029500Y-23575000D01*
%TO.C,R4*%
X74695500Y-32920000D02*
X74695500Y-33250000D01*
X74695500Y-35660000D02*
X74695500Y-35330000D01*
X81235500Y-32920000D02*
X74695500Y-32920000D01*
X81235500Y-33250000D02*
X81235500Y-32920000D01*
X81235500Y-35330000D02*
X81235500Y-35660000D01*
X81235500Y-35660000D02*
X74695500Y-35660000D01*
%TO.C,R5*%
X74695500Y-26697000D02*
X81235500Y-26697000D01*
X74695500Y-27027000D02*
X74695500Y-26697000D01*
X74695500Y-29107000D02*
X74695500Y-29437000D01*
X74695500Y-29437000D02*
X81235500Y-29437000D01*
X81235500Y-26697000D02*
X81235500Y-27027000D01*
X81235500Y-29437000D02*
X81235500Y-29107000D01*
%TO.C,Q1*%
X73799500Y-40847500D02*
X73849500Y-40847500D01*
X73799500Y-42367500D02*
X73799500Y-40847500D01*
X74799500Y-42367500D02*
X73799500Y-42367500D01*
X74969500Y-40847500D02*
X75749500Y-40847500D01*
X76869500Y-40847500D02*
X76919500Y-40847500D01*
X76919500Y-40847500D02*
X76919500Y-42367500D01*
X76919500Y-42367500D02*
X75919500Y-42367500D01*
X75739500Y-40307500D02*
X75409500Y-40547500D01*
X75409500Y-40067500D01*
X75739500Y-40307500D01*
G36*
X75739500Y-40307500D02*
G01*
X75409500Y-40547500D01*
X75409500Y-40067500D01*
X75739500Y-40307500D01*
G37*
%TO.C,R1*%
X74695500Y-36095000D02*
X81235500Y-36095000D01*
X74695500Y-36425000D02*
X74695500Y-36095000D01*
X74695500Y-38505000D02*
X74695500Y-38835000D01*
X74695500Y-38835000D02*
X81235500Y-38835000D01*
X81235500Y-36095000D02*
X81235500Y-36425000D01*
X81235500Y-38835000D02*
X81235500Y-38505000D01*
D12*
%TO.C,U1*%
X51677581Y-23000122D02*
X51677581Y-45860122D01*
X51677581Y-45860122D02*
X56122581Y-45860122D01*
X56757581Y-45860122D02*
X56757581Y-47130122D01*
X56757581Y-47130122D02*
X64377581Y-47130122D01*
X64377581Y-47130122D02*
X64377581Y-45860122D01*
X65012581Y-45860122D02*
X69457581Y-45860122D01*
X69457581Y-23000122D02*
X51677581Y-23000122D01*
X69457581Y-45860122D02*
X69457581Y-23000122D01*
X63742581Y-24270122D02*
X57392581Y-24270122D01*
X57392581Y-23000122D01*
X63742581Y-23000122D01*
X63742581Y-24270122D01*
X64377581Y-47130122D02*
X56757581Y-47130122D01*
X56757581Y-42050122D01*
X64377581Y-42050122D01*
X64377581Y-47130122D01*
X58662581Y-40780122D02*
G75*
G02*
X57392581Y-40780122I-635000J0D01*
G01*
X57392581Y-40780122D02*
G75*
G02*
X58662581Y-40780122I635000J0D01*
G01*
X63742581Y-40780122D02*
G75*
G02*
X62472581Y-40780122I-635000J0D01*
G01*
X62472581Y-40780122D02*
G75*
G02*
X63742581Y-40780122I635000J0D01*
G01*
D13*
%TO.C,C3*%
X86577500Y-30974000D02*
X83600500Y-30974000D01*
X86577500Y-31014000D02*
X83608500Y-31014000D01*
X86577500Y-31054000D02*
X83615500Y-31054000D01*
X86577500Y-31094000D02*
X83624500Y-31094000D01*
X86577500Y-31134000D02*
X83632500Y-31134000D01*
X86577500Y-31174000D02*
X83641500Y-31174000D01*
X86577500Y-31214000D02*
X83650500Y-31214000D01*
X86577500Y-31254000D02*
X83660500Y-31254000D01*
X86577500Y-31294000D02*
X83670500Y-31294000D01*
X86577500Y-31334000D02*
X83681500Y-31334000D01*
X86577500Y-31374000D02*
X83692500Y-31374000D01*
X86577500Y-31414000D02*
X83704500Y-31414000D01*
X86577500Y-31454000D02*
X83716500Y-31454000D01*
X86577500Y-31494000D02*
X83728500Y-31494000D01*
X86577500Y-31534000D02*
X83741500Y-31534000D01*
X86577500Y-31574000D02*
X83754500Y-31574000D01*
X86577500Y-31614000D02*
X83768500Y-31614000D01*
X86577500Y-31654000D02*
X83782500Y-31654000D01*
X86577500Y-31694000D02*
X83797500Y-31694000D01*
X86577500Y-31734000D02*
X83812500Y-31734000D01*
X86577500Y-31774000D02*
X83828500Y-31774000D01*
X86577500Y-31814000D02*
X83844500Y-31814000D01*
X86577500Y-31854000D02*
X83860500Y-31854000D01*
X86577500Y-31894000D02*
X83877500Y-31894000D01*
X86577500Y-31934000D02*
X83895500Y-31934000D01*
X86577500Y-31974000D02*
X83913500Y-31974000D01*
X86577500Y-32014000D02*
X83932500Y-32014000D01*
X86577500Y-32054000D02*
X83951500Y-32054000D01*
X86577500Y-32094000D02*
X83971500Y-32094000D01*
X86577500Y-32134000D02*
X83991500Y-32134000D01*
X86577500Y-32174000D02*
X84012500Y-32174000D01*
X86577500Y-32214000D02*
X84033500Y-32214000D01*
X86577500Y-32254000D02*
X84055500Y-32254000D01*
X86577500Y-32294000D02*
X84078500Y-32294000D01*
X86577500Y-32334000D02*
X84101500Y-32334000D01*
X86577500Y-32374000D02*
X84124500Y-32374000D01*
X86577500Y-32414000D02*
X84149500Y-32414000D01*
X86577500Y-32454000D02*
X84174500Y-32454000D01*
X86577500Y-32494000D02*
X84199500Y-32494000D01*
X86577500Y-32534000D02*
X84225500Y-32534000D01*
X86577500Y-32574000D02*
X84252500Y-32574000D01*
X86577500Y-32614000D02*
X84280500Y-32614000D01*
X86577500Y-32654000D02*
X84308500Y-32654000D01*
X86577500Y-32694000D02*
X84337500Y-32694000D01*
X86577500Y-32734000D02*
X84367500Y-32734000D01*
X86577500Y-32774000D02*
X84398500Y-32774000D01*
X86577500Y-32814000D02*
X84429500Y-32814000D01*
X86577500Y-32854000D02*
X84461500Y-32854000D01*
X86577500Y-32894000D02*
X84494500Y-32894000D01*
X86577500Y-32934000D02*
X84528500Y-32934000D01*
X86577500Y-32974000D02*
X84562500Y-32974000D01*
X86577500Y-33014000D02*
X84598500Y-33014000D01*
X88150500Y-34334000D02*
X87084500Y-34334000D01*
X88385500Y-34294000D02*
X86849500Y-34294000D01*
X88564500Y-34254000D02*
X86670500Y-34254000D01*
X88714500Y-34214000D02*
X86520500Y-34214000D01*
X88845500Y-34174000D02*
X86389500Y-34174000D01*
X88963500Y-34134000D02*
X86271500Y-34134000D01*
X89070500Y-34094000D02*
X86164500Y-34094000D01*
X89169500Y-34054000D02*
X86065500Y-34054000D01*
X89261500Y-34014000D02*
X85973500Y-34014000D01*
X89348500Y-33974000D02*
X85886500Y-33974000D01*
X89430500Y-33934000D02*
X85804500Y-33934000D01*
X89507500Y-33894000D02*
X85727500Y-33894000D01*
X89581500Y-33854000D02*
X85653500Y-33854000D01*
X89651500Y-33814000D02*
X85583500Y-33814000D01*
X89718500Y-33774000D02*
X85516500Y-33774000D01*
X89782500Y-33734000D02*
X85452500Y-33734000D01*
X89844500Y-33694000D02*
X85390500Y-33694000D01*
X89904500Y-33654000D02*
X85330500Y-33654000D01*
X89932500Y-25844302D02*
X89932500Y-26644302D01*
X89961500Y-33614000D02*
X85273500Y-33614000D01*
X90017500Y-33574000D02*
X85217500Y-33574000D01*
X90070500Y-33534000D02*
X85164500Y-33534000D01*
X90122500Y-33494000D02*
X85112500Y-33494000D01*
X90172500Y-33454000D02*
X85062500Y-33454000D01*
X90221500Y-33414000D02*
X85013500Y-33414000D01*
X90268500Y-33374000D02*
X84966500Y-33374000D01*
X90313500Y-33334000D02*
X84921500Y-33334000D01*
X90332500Y-26244302D02*
X89532500Y-26244302D01*
X90358500Y-33294000D02*
X84876500Y-33294000D01*
X90401500Y-33254000D02*
X84833500Y-33254000D01*
X90443500Y-33214000D02*
X84791500Y-33214000D01*
X90484500Y-33174000D02*
X84750500Y-33174000D01*
X90523500Y-33134000D02*
X84711500Y-33134000D01*
X90562500Y-33094000D02*
X84672500Y-33094000D01*
X90599500Y-33054000D02*
X84635500Y-33054000D01*
X90636500Y-33014000D02*
X88657500Y-33014000D01*
X90672500Y-32974000D02*
X88657500Y-32974000D01*
X90706500Y-32934000D02*
X88657500Y-32934000D01*
X90740500Y-32894000D02*
X88657500Y-32894000D01*
X90773500Y-32854000D02*
X88657500Y-32854000D01*
X90805500Y-32814000D02*
X88657500Y-32814000D01*
X90836500Y-32774000D02*
X88657500Y-32774000D01*
X90867500Y-32734000D02*
X88657500Y-32734000D01*
X90897500Y-32694000D02*
X88657500Y-32694000D01*
X90926500Y-32654000D02*
X88657500Y-32654000D01*
X90954500Y-32614000D02*
X88657500Y-32614000D01*
X90982500Y-32574000D02*
X88657500Y-32574000D01*
X91009500Y-32534000D02*
X88657500Y-32534000D01*
X91035500Y-32494000D02*
X88657500Y-32494000D01*
X91060500Y-32454000D02*
X88657500Y-32454000D01*
X91085500Y-32414000D02*
X88657500Y-32414000D01*
X91110500Y-32374000D02*
X88657500Y-32374000D01*
X91133500Y-32334000D02*
X88657500Y-32334000D01*
X91156500Y-32294000D02*
X88657500Y-32294000D01*
X91179500Y-32254000D02*
X88657500Y-32254000D01*
X91201500Y-32214000D02*
X88657500Y-32214000D01*
X91222500Y-32174000D02*
X88657500Y-32174000D01*
X91243500Y-32134000D02*
X88657500Y-32134000D01*
X91263500Y-32094000D02*
X88657500Y-32094000D01*
X91283500Y-32054000D02*
X88657500Y-32054000D01*
X91302500Y-32014000D02*
X88657500Y-32014000D01*
X91321500Y-31974000D02*
X88657500Y-31974000D01*
X91339500Y-31934000D02*
X88657500Y-31934000D01*
X91357500Y-31894000D02*
X88657500Y-31894000D01*
X91374500Y-31854000D02*
X88657500Y-31854000D01*
X91390500Y-31814000D02*
X88657500Y-31814000D01*
X91406500Y-31774000D02*
X88657500Y-31774000D01*
X91422500Y-31734000D02*
X88657500Y-31734000D01*
X91437500Y-31694000D02*
X88657500Y-31694000D01*
X91452500Y-31654000D02*
X88657500Y-31654000D01*
X91466500Y-31614000D02*
X88657500Y-31614000D01*
X91480500Y-31574000D02*
X88657500Y-31574000D01*
X91493500Y-31534000D02*
X88657500Y-31534000D01*
X91506500Y-31494000D02*
X88657500Y-31494000D01*
X91518500Y-31454000D02*
X88657500Y-31454000D01*
X91530500Y-31414000D02*
X88657500Y-31414000D01*
X91542500Y-31374000D02*
X88657500Y-31374000D01*
X91553500Y-31334000D02*
X88657500Y-31334000D01*
X91564500Y-31294000D02*
X88657500Y-31294000D01*
X91574500Y-31254000D02*
X88657500Y-31254000D01*
X91584500Y-31214000D02*
X88657500Y-31214000D01*
X91593500Y-31174000D02*
X88657500Y-31174000D01*
X91602500Y-31134000D02*
X88657500Y-31134000D01*
X91610500Y-31094000D02*
X88657500Y-31094000D01*
X91619500Y-31054000D02*
X88657500Y-31054000D01*
X91626500Y-31014000D02*
X88657500Y-31014000D01*
X91634500Y-30974000D02*
X88657500Y-30974000D01*
X91640500Y-30934000D02*
X83594500Y-30934000D01*
X91647500Y-30894000D02*
X83587500Y-30894000D01*
X91653500Y-30854000D02*
X83581500Y-30854000D01*
X91659500Y-30814000D02*
X83575500Y-30814000D01*
X91664500Y-30774000D02*
X83570500Y-30774000D01*
X91669500Y-30734000D02*
X83565500Y-30734000D01*
X91673500Y-30694000D02*
X83561500Y-30694000D01*
X91678500Y-30654000D02*
X83556500Y-30654000D01*
X91681500Y-30614000D02*
X83553500Y-30614000D01*
X91685500Y-30574000D02*
X83549500Y-30574000D01*
X91687500Y-30534000D02*
X83547500Y-30534000D01*
X91690500Y-30494000D02*
X83544500Y-30494000D01*
X91692500Y-30454000D02*
X83542500Y-30454000D01*
X91694500Y-30414000D02*
X83540500Y-30414000D01*
X91695500Y-30374000D02*
X83539500Y-30374000D01*
X91696500Y-30334000D02*
X83538500Y-30334000D01*
X91697500Y-30254000D02*
X83537500Y-30254000D01*
X91697500Y-30294000D02*
X83537500Y-30294000D01*
X91737500Y-30254000D02*
G75*
G02*
X83497500Y-30254000I-4120000J0D01*
G01*
X83497500Y-30254000D02*
G75*
G02*
X91737500Y-30254000I4120000J0D01*
G01*
D12*
%TO.C,J1*%
X25768500Y-25630000D02*
X25768500Y-42950000D01*
X25768500Y-42950000D02*
X25768962Y-43003556D01*
X25768962Y-25576444D02*
X25768500Y-25630000D01*
X25768962Y-43003556D02*
X25776603Y-43110395D01*
X25776603Y-25469605D02*
X25768962Y-25576444D01*
X25776603Y-43110395D02*
X25791847Y-43216417D01*
X25791847Y-25363582D02*
X25776603Y-25469605D01*
X25791847Y-43216417D02*
X25814616Y-43321082D01*
X25814615Y-25258918D02*
X25791847Y-25363582D01*
X25814616Y-43321082D02*
X25844793Y-43423855D01*
X25844792Y-25156145D02*
X25814615Y-25258918D01*
X25844793Y-43423855D02*
X25882225Y-43524214D01*
X25882224Y-25055786D02*
X25844792Y-25156145D01*
X25882225Y-43524214D02*
X25926721Y-43621647D01*
X25926720Y-24958353D02*
X25882224Y-25055786D01*
X25926721Y-43621647D02*
X25978054Y-43715657D01*
X25978054Y-24864343D02*
X25926720Y-24958353D01*
X25978054Y-43715657D02*
X26035963Y-43805765D01*
X26035963Y-24774234D02*
X25978054Y-24864343D01*
X26035963Y-43805765D02*
X26100153Y-43891513D01*
X26100153Y-24688487D02*
X26035963Y-24774234D01*
X26100153Y-43891513D02*
X26170297Y-43972463D01*
X26170297Y-24607536D02*
X26100153Y-24688487D01*
X26170297Y-43972463D02*
X26246037Y-44048203D01*
X26246036Y-24531797D02*
X26170297Y-24607536D01*
X26246037Y-44048203D02*
X26326987Y-44118347D01*
X26326987Y-24461653D02*
X26246036Y-24531797D01*
X26326987Y-44118347D02*
X26412735Y-44182537D01*
X26412734Y-24397463D02*
X26326987Y-24461653D01*
X26412735Y-44182537D02*
X26502843Y-44240446D01*
X26502843Y-24339554D02*
X26412734Y-24397463D01*
X26502843Y-44240446D02*
X26596853Y-44291779D01*
X26596853Y-24288220D02*
X26502843Y-24339554D01*
X26596853Y-44291779D02*
X26694286Y-44336275D01*
X26694286Y-24243724D02*
X26596853Y-24288220D01*
X26694286Y-44336275D02*
X26794645Y-44373707D01*
X26794645Y-24206292D02*
X26694286Y-24243724D01*
X26794645Y-44373707D02*
X26897418Y-44403884D01*
X26897418Y-24176115D02*
X26794645Y-24206292D01*
X26897418Y-44403884D02*
X27002083Y-44426653D01*
X27002082Y-24153347D02*
X26897418Y-24176115D01*
X27002083Y-44426653D02*
X27108105Y-44441897D01*
X27108105Y-24138103D02*
X27002082Y-24153347D01*
X27108105Y-44441897D02*
X27214944Y-44449538D01*
X27214944Y-24130462D02*
X27108105Y-24138103D01*
X27214944Y-44449538D02*
X27268500Y-44450000D01*
X27268500Y-24130000D02*
X27214944Y-24130462D01*
X27268500Y-44450000D02*
X38238500Y-44450000D01*
X38238500Y-24130000D02*
X27268500Y-24130000D01*
X38238500Y-44450000D02*
X38292056Y-44449538D01*
X38292056Y-24130462D02*
X38238500Y-24130000D01*
X38292056Y-44449538D02*
X38398895Y-44441897D01*
X38398895Y-24138103D02*
X38292056Y-24130462D01*
X38398895Y-44441897D02*
X38504917Y-44426653D01*
X38504917Y-44426653D02*
X38609582Y-44403884D01*
X38504918Y-24153347D02*
X38398895Y-24138103D01*
X38609582Y-24176115D02*
X38504918Y-24153347D01*
X38609582Y-44403884D02*
X38712355Y-44373707D01*
X38712355Y-24206292D02*
X38609582Y-24176115D01*
X38712355Y-44373707D02*
X38812714Y-44336275D01*
X38812714Y-24243724D02*
X38712355Y-24206292D01*
X38812714Y-44336275D02*
X38910147Y-44291779D01*
X38910147Y-24288220D02*
X38812714Y-24243724D01*
X38910147Y-44291779D02*
X39004157Y-44240446D01*
X39004157Y-24339554D02*
X38910147Y-24288220D01*
X39004157Y-44240446D02*
X39094265Y-44182537D01*
X39094265Y-44182537D02*
X39180013Y-44118347D01*
X39094266Y-24397463D02*
X39004157Y-24339554D01*
X39180013Y-24461653D02*
X39094266Y-24397463D01*
X39180013Y-44118347D02*
X39260963Y-44048203D01*
X39260963Y-44048203D02*
X39336703Y-43972463D01*
X39260964Y-24531797D02*
X39180013Y-24461653D01*
X39336703Y-24607536D02*
X39260964Y-24531797D01*
X39336703Y-43972463D02*
X39406847Y-43891513D01*
X39406847Y-24688487D02*
X39336703Y-24607536D01*
X39406847Y-43891513D02*
X39471037Y-43805765D01*
X39471037Y-24774234D02*
X39406847Y-24688487D01*
X39471037Y-43805765D02*
X39528946Y-43715657D01*
X39528946Y-24864343D02*
X39471037Y-24774234D01*
X39528946Y-43715657D02*
X39580279Y-43621647D01*
X39580279Y-43621647D02*
X39624775Y-43524214D01*
X39580280Y-24958353D02*
X39528946Y-24864343D01*
X39624775Y-43524214D02*
X39662207Y-43423855D01*
X39624776Y-25055786D02*
X39580280Y-24958353D01*
X39662207Y-43423855D02*
X39692384Y-43321082D01*
X39662208Y-25156145D02*
X39624776Y-25055786D01*
X39692384Y-43321082D02*
X39715153Y-43216417D01*
X39692385Y-25258918D02*
X39662208Y-25156145D01*
X39715153Y-25363582D02*
X39692385Y-25258918D01*
X39715153Y-43216417D02*
X39730397Y-43110395D01*
X39730397Y-25469605D02*
X39715153Y-25363582D01*
X39730397Y-43110395D02*
X39738038Y-43003556D01*
X39738038Y-25576444D02*
X39730397Y-25469605D01*
X39738038Y-43003556D02*
X39738500Y-42950000D01*
X39738500Y-25630000D02*
X39738038Y-25576444D01*
X39738500Y-42950000D02*
X39738500Y-25630000D01*
X25768500Y-38790000D02*
X33268500Y-38790000D01*
X33268500Y-29790000D01*
X25768500Y-29790000D01*
X25768500Y-38790000D01*
D13*
%TO.C,U5*%
X102366500Y-23425000D02*
X103746500Y-23425000D01*
X102366500Y-24805000D02*
X102366500Y-23425000D01*
X102366500Y-26075000D02*
X102366500Y-31265000D01*
X102366500Y-26075000D02*
X105126500Y-26075000D01*
X102366500Y-31265000D02*
X105126500Y-31265000D01*
X105126500Y-26075000D02*
X105126500Y-31265000D01*
%TO.C,Q2*%
X80272313Y-43866000D02*
X83872313Y-43866000D01*
X80233835Y-43854478D02*
G75*
G02*
X82072313Y-39415999I1838478J1838478D01*
G01*
X82072313Y-39416000D02*
G75*
G02*
X83910791Y-43854478I0J-2600000D01*
G01*
%TO.C,U6*%
X94619500Y-37228000D02*
X95999500Y-37228000D01*
X94619500Y-38608000D02*
X94619500Y-37228000D01*
X94619500Y-39878000D02*
X94619500Y-45068000D01*
X94619500Y-39878000D02*
X97379500Y-39878000D01*
X94619500Y-45068000D02*
X97379500Y-45068000D01*
X97379500Y-39878000D02*
X97379500Y-45068000D01*
%TO.C,R3*%
X74695500Y-29745000D02*
X81235500Y-29745000D01*
X74695500Y-30075000D02*
X74695500Y-29745000D01*
X74695500Y-32155000D02*
X74695500Y-32485000D01*
X74695500Y-32485000D02*
X81235500Y-32485000D01*
X81235500Y-29745000D02*
X81235500Y-30075000D01*
X81235500Y-32485000D02*
X81235500Y-32155000D01*
%TO.C,R2*%
X92221500Y-23522000D02*
X98761500Y-23522000D01*
X92221500Y-23852000D02*
X92221500Y-23522000D01*
X92221500Y-25932000D02*
X92221500Y-26262000D01*
X92221500Y-26262000D02*
X98761500Y-26262000D01*
X98761500Y-23522000D02*
X98761500Y-23852000D01*
X98761500Y-26262000D02*
X98761500Y-25932000D01*
%TO.C,U2*%
X99489500Y-35230000D02*
X99489500Y-45450000D01*
X99489500Y-45450000D02*
X106109500Y-45450000D01*
X100199500Y-44440000D02*
X100199500Y-36240000D01*
X102199500Y-36240000D02*
X104499500Y-36240000D01*
X102799500Y-35230000D02*
X102799500Y-36240000D01*
X102799500Y-45450000D02*
X102799500Y-44440000D01*
X104499500Y-36240000D02*
X104499500Y-44440000D01*
X104499500Y-44440000D02*
X100199500Y-44440000D01*
X105109500Y-37940000D02*
X106109500Y-37940000D01*
X105109500Y-39540000D02*
X105109500Y-37940000D01*
X105109500Y-41140000D02*
X105709500Y-41140000D01*
X105109500Y-42740000D02*
X105109500Y-41140000D01*
X105709500Y-39540000D02*
X105109500Y-39540000D01*
X105709500Y-41140000D02*
X105709500Y-39540000D01*
X106109500Y-35230000D02*
X99489500Y-35230000D01*
X106109500Y-37940000D02*
X106109500Y-35230000D01*
X106109500Y-42740000D02*
X105109500Y-42740000D01*
X106109500Y-45450000D02*
X106109500Y-42740000D01*
X106409500Y-34930000D02*
X105159500Y-34930000D01*
X106409500Y-36180000D02*
X106409500Y-34930000D01*
%TO.C,C1*%
X43377500Y-36859000D02*
X43377500Y-36293000D01*
X43417500Y-37093000D02*
X43417500Y-36059000D01*
X43457500Y-37253000D02*
X43457500Y-35899000D01*
X43497500Y-37381000D02*
X43497500Y-35771000D01*
X43537500Y-37490000D02*
X43537500Y-35662000D01*
X43577500Y-37587000D02*
X43577500Y-35565000D01*
X43617500Y-37674000D02*
X43617500Y-35478000D01*
X43657500Y-37753000D02*
X43657500Y-35399000D01*
X43697500Y-37827000D02*
X43697500Y-35325000D01*
X43737500Y-37895000D02*
X43737500Y-35257000D01*
X43777500Y-37959000D02*
X43777500Y-35193000D01*
X43817500Y-38019000D02*
X43817500Y-35133000D01*
X43857500Y-38075000D02*
X43857500Y-35077000D01*
X43897500Y-38129000D02*
X43897500Y-35023000D01*
X43937500Y-38180000D02*
X43937500Y-34972000D01*
X43977500Y-35536000D02*
X43977500Y-34924000D01*
X43977500Y-38228000D02*
X43977500Y-37616000D01*
X44017500Y-35536000D02*
X44017500Y-34877000D01*
X44017500Y-38275000D02*
X44017500Y-37616000D01*
X44057500Y-35536000D02*
X44057500Y-34833000D01*
X44057500Y-38319000D02*
X44057500Y-37616000D01*
X44097500Y-35536000D02*
X44097500Y-34791000D01*
X44097500Y-38361000D02*
X44097500Y-37616000D01*
X44137500Y-35536000D02*
X44137500Y-34751000D01*
X44137500Y-38401000D02*
X44137500Y-37616000D01*
X44177500Y-35536000D02*
X44177500Y-34712000D01*
X44177500Y-38440000D02*
X44177500Y-37616000D01*
X44217500Y-35536000D02*
X44217500Y-34675000D01*
X44217500Y-38477000D02*
X44217500Y-37616000D01*
X44257500Y-35536000D02*
X44257500Y-34640000D01*
X44257500Y-38512000D02*
X44257500Y-37616000D01*
X44297500Y-35536000D02*
X44297500Y-34606000D01*
X44297500Y-38546000D02*
X44297500Y-37616000D01*
X44337500Y-35536000D02*
X44337500Y-34573000D01*
X44337500Y-38579000D02*
X44337500Y-37616000D01*
X44377500Y-35536000D02*
X44377500Y-34541000D01*
X44377500Y-38611000D02*
X44377500Y-37616000D01*
X44417500Y-35536000D02*
X44417500Y-34511000D01*
X44417500Y-38641000D02*
X44417500Y-37616000D01*
X44457500Y-35536000D02*
X44457500Y-34482000D01*
X44457500Y-38670000D02*
X44457500Y-37616000D01*
X44497500Y-35536000D02*
X44497500Y-34454000D01*
X44497500Y-38698000D02*
X44497500Y-37616000D01*
X44537500Y-35536000D02*
X44537500Y-34427000D01*
X44537500Y-38725000D02*
X44537500Y-37616000D01*
X44577500Y-35536000D02*
X44577500Y-34401000D01*
X44577500Y-38751000D02*
X44577500Y-37616000D01*
X44617500Y-35536000D02*
X44617500Y-34377000D01*
X44617500Y-38775000D02*
X44617500Y-37616000D01*
X44657500Y-35536000D02*
X44657500Y-34353000D01*
X44657500Y-38799000D02*
X44657500Y-37616000D01*
X44697500Y-35536000D02*
X44697500Y-34330000D01*
X44697500Y-38822000D02*
X44697500Y-37616000D01*
X44737500Y-35536000D02*
X44737500Y-34308000D01*
X44737500Y-38844000D02*
X44737500Y-37616000D01*
X44777500Y-35536000D02*
X44777500Y-34287000D01*
X44777500Y-38865000D02*
X44777500Y-37616000D01*
X44817500Y-35536000D02*
X44817500Y-34267000D01*
X44817500Y-38885000D02*
X44817500Y-37616000D01*
X44857500Y-35536000D02*
X44857500Y-34247000D01*
X44857500Y-38905000D02*
X44857500Y-37616000D01*
X44897500Y-35536000D02*
X44897500Y-34229000D01*
X44897500Y-38923000D02*
X44897500Y-37616000D01*
X44937500Y-35536000D02*
X44937500Y-34211000D01*
X44937500Y-38941000D02*
X44937500Y-37616000D01*
X44977500Y-35536000D02*
X44977500Y-34194000D01*
X44977500Y-38958000D02*
X44977500Y-37616000D01*
X45017500Y-35536000D02*
X45017500Y-34178000D01*
X45017500Y-38974000D02*
X45017500Y-37616000D01*
X45057500Y-35536000D02*
X45057500Y-34163000D01*
X45057500Y-38989000D02*
X45057500Y-37616000D01*
X45097500Y-35536000D02*
X45097500Y-34148000D01*
X45097500Y-39004000D02*
X45097500Y-37616000D01*
X45137500Y-35536000D02*
X45137500Y-34134000D01*
X45137500Y-39018000D02*
X45137500Y-37616000D01*
X45177500Y-35536000D02*
X45177500Y-34121000D01*
X45177500Y-39031000D02*
X45177500Y-37616000D01*
X45217500Y-35536000D02*
X45217500Y-34109000D01*
X45217500Y-39043000D02*
X45217500Y-37616000D01*
X45257500Y-35536000D02*
X45257500Y-34097000D01*
X45257500Y-39055000D02*
X45257500Y-37616000D01*
X45297500Y-35536000D02*
X45297500Y-34086000D01*
X45297500Y-39066000D02*
X45297500Y-37616000D01*
X45337500Y-35536000D02*
X45337500Y-34075000D01*
X45337500Y-39077000D02*
X45337500Y-37616000D01*
X45377500Y-35536000D02*
X45377500Y-34066000D01*
X45377500Y-39086000D02*
X45377500Y-37616000D01*
X45417500Y-35536000D02*
X45417500Y-34057000D01*
X45417500Y-39095000D02*
X45417500Y-37616000D01*
X45457500Y-35536000D02*
X45457500Y-34048000D01*
X45457500Y-39104000D02*
X45457500Y-37616000D01*
X45497500Y-35536000D02*
X45497500Y-34040000D01*
X45497500Y-39112000D02*
X45497500Y-37616000D01*
X45537500Y-35536000D02*
X45537500Y-34033000D01*
X45537500Y-39119000D02*
X45537500Y-37616000D01*
X45577500Y-35536000D02*
X45577500Y-34027000D01*
X45577500Y-39125000D02*
X45577500Y-37616000D01*
X45617500Y-35536000D02*
X45617500Y-34021000D01*
X45617500Y-39131000D02*
X45617500Y-37616000D01*
X45657500Y-35536000D02*
X45657500Y-34016000D01*
X45657500Y-39136000D02*
X45657500Y-37616000D01*
X45697500Y-35536000D02*
X45697500Y-34011000D01*
X45697500Y-39141000D02*
X45697500Y-37616000D01*
X45737500Y-35536000D02*
X45737500Y-34007000D01*
X45737500Y-39145000D02*
X45737500Y-37616000D01*
X45777500Y-35536000D02*
X45777500Y-34004000D01*
X45777500Y-39148000D02*
X45777500Y-37616000D01*
X45817500Y-35536000D02*
X45817500Y-34001000D01*
X45817500Y-39151000D02*
X45817500Y-37616000D01*
X45857500Y-35536000D02*
X45857500Y-33999000D01*
X45857500Y-39153000D02*
X45857500Y-37616000D01*
X45897500Y-35536000D02*
X45897500Y-33997000D01*
X45897500Y-39155000D02*
X45897500Y-37616000D01*
X45937500Y-35536000D02*
X45937500Y-33996000D01*
X45937500Y-39156000D02*
X45937500Y-37616000D01*
X45977500Y-35536000D02*
X45977500Y-33996000D01*
X45977500Y-39156000D02*
X45977500Y-37616000D01*
X48532275Y-38301000D02*
X48532275Y-37801000D01*
X48782275Y-38051000D02*
X48282275Y-38051000D01*
X48597500Y-36576000D02*
G75*
G02*
X43357500Y-36576000I-2620000J0D01*
G01*
X43357500Y-36576000D02*
G75*
G02*
X48597500Y-36576000I2620000J0D01*
G01*
%TD*%
%LPC*%
G36*
X96246242Y-42874601D02*
G01*
X96400187Y-42938367D01*
X96538734Y-43030941D01*
X96656559Y-43148766D01*
X96749133Y-43287313D01*
X96812899Y-43441258D01*
X96845407Y-43604685D01*
X96845407Y-43771315D01*
X96812899Y-43934742D01*
X96749133Y-44088687D01*
X96656559Y-44227234D01*
X96538734Y-44345059D01*
X96400187Y-44437633D01*
X96246242Y-44501399D01*
X96082815Y-44533907D01*
X95916185Y-44533907D01*
X95752758Y-44501399D01*
X95598813Y-44437633D01*
X95460266Y-44345059D01*
X95342441Y-44227234D01*
X95249867Y-44088687D01*
X95186101Y-43934742D01*
X95153593Y-43771315D01*
X95153593Y-43604685D01*
X95186101Y-43441258D01*
X95249867Y-43287313D01*
X95342441Y-43148766D01*
X95460266Y-43030941D01*
X95598813Y-42938367D01*
X95752758Y-42874601D01*
X95916185Y-42842093D01*
X96082815Y-42842093D01*
X96246242Y-42874601D01*
G37*
G36*
X28508681Y-40328429D02*
G01*
X28761379Y-40396140D01*
X29003077Y-40496255D01*
X29229640Y-40627061D01*
X29437192Y-40786320D01*
X29622180Y-40971308D01*
X29781439Y-41178860D01*
X29912245Y-41405423D01*
X30012360Y-41647121D01*
X30080071Y-41899819D01*
X30114218Y-42159194D01*
X30114218Y-42420806D01*
X30080071Y-42680181D01*
X30012360Y-42932879D01*
X29912245Y-43174577D01*
X29781439Y-43401140D01*
X29622180Y-43608692D01*
X29437192Y-43793680D01*
X29229640Y-43952939D01*
X29003077Y-44083745D01*
X28761379Y-44183860D01*
X28508681Y-44251571D01*
X28249306Y-44285718D01*
X27987694Y-44285718D01*
X27728319Y-44251571D01*
X27475621Y-44183860D01*
X27233923Y-44083745D01*
X27007360Y-43952939D01*
X26799808Y-43793680D01*
X26614820Y-43608692D01*
X26455561Y-43401140D01*
X26324755Y-43174577D01*
X26224640Y-42932879D01*
X26156929Y-42680181D01*
X26122782Y-42420806D01*
X26122782Y-42159194D01*
X26156929Y-41899819D01*
X26224640Y-41647121D01*
X26324755Y-41405423D01*
X26455561Y-41178860D01*
X26614820Y-40971308D01*
X26799808Y-40786320D01*
X27007360Y-40627061D01*
X27233923Y-40496255D01*
X27475621Y-40396140D01*
X27728319Y-40328429D01*
X27987694Y-40294282D01*
X28249306Y-40294282D01*
X28508681Y-40328429D01*
G37*
G36*
X53297431Y-42421086D02*
G01*
X53347621Y-42426909D01*
X53364770Y-42434481D01*
X53388252Y-42439152D01*
X53413391Y-42455949D01*
X53433277Y-42464730D01*
X53446858Y-42478311D01*
X53469358Y-42493345D01*
X53484391Y-42515844D01*
X53497972Y-42529425D01*
X53506751Y-42549308D01*
X53523551Y-42574451D01*
X53528222Y-42597934D01*
X53535793Y-42615081D01*
X53541614Y-42665261D01*
X53542581Y-42670122D01*
X53542581Y-43970122D01*
X53541613Y-43974985D01*
X53535793Y-44025162D01*
X53528222Y-44042307D01*
X53523551Y-44065793D01*
X53506750Y-44090937D01*
X53497972Y-44110818D01*
X53484393Y-44124396D01*
X53469358Y-44146899D01*
X53446855Y-44161934D01*
X53433277Y-44175513D01*
X53413396Y-44184291D01*
X53388252Y-44201092D01*
X53364766Y-44205763D01*
X53347621Y-44213334D01*
X53297442Y-44219154D01*
X53292581Y-44220122D01*
X50022581Y-44220122D01*
X50017719Y-44219154D01*
X49967540Y-44213334D01*
X49950393Y-44205763D01*
X49926910Y-44201092D01*
X49901767Y-44184292D01*
X49881884Y-44175513D01*
X49868303Y-44161932D01*
X49845804Y-44146899D01*
X49830770Y-44124399D01*
X49817189Y-44110818D01*
X49808408Y-44090932D01*
X49791611Y-44065793D01*
X49786940Y-44042311D01*
X49779368Y-44025162D01*
X49773545Y-43974971D01*
X49772581Y-43970122D01*
X49772581Y-42670122D01*
X49773545Y-42665272D01*
X49779368Y-42615081D01*
X49786940Y-42597930D01*
X49791611Y-42574451D01*
X49808407Y-42549313D01*
X49817189Y-42529425D01*
X49830772Y-42515841D01*
X49845804Y-42493345D01*
X49868300Y-42478313D01*
X49881884Y-42464730D01*
X49901772Y-42455948D01*
X49926910Y-42439152D01*
X49950389Y-42434481D01*
X49967540Y-42426909D01*
X50017732Y-42421086D01*
X50022581Y-42420122D01*
X53292581Y-42420122D01*
X53297431Y-42421086D01*
G37*
G36*
X71077431Y-42421086D02*
G01*
X71127621Y-42426909D01*
X71144770Y-42434481D01*
X71168252Y-42439152D01*
X71193391Y-42455949D01*
X71213277Y-42464730D01*
X71226858Y-42478311D01*
X71249358Y-42493345D01*
X71264391Y-42515844D01*
X71277972Y-42529425D01*
X71286751Y-42549308D01*
X71303551Y-42574451D01*
X71308222Y-42597934D01*
X71315793Y-42615081D01*
X71321614Y-42665261D01*
X71322581Y-42670122D01*
X71322581Y-43970122D01*
X71321613Y-43974985D01*
X71315793Y-44025162D01*
X71308222Y-44042307D01*
X71303551Y-44065793D01*
X71286750Y-44090937D01*
X71277972Y-44110818D01*
X71264393Y-44124396D01*
X71249358Y-44146899D01*
X71226855Y-44161934D01*
X71213277Y-44175513D01*
X71193396Y-44184291D01*
X71168252Y-44201092D01*
X71144766Y-44205763D01*
X71127621Y-44213334D01*
X71077442Y-44219154D01*
X71072581Y-44220122D01*
X67802581Y-44220122D01*
X67797719Y-44219154D01*
X67747540Y-44213334D01*
X67730393Y-44205763D01*
X67706910Y-44201092D01*
X67681767Y-44184292D01*
X67661884Y-44175513D01*
X67648303Y-44161932D01*
X67625804Y-44146899D01*
X67610770Y-44124399D01*
X67597189Y-44110818D01*
X67588408Y-44090932D01*
X67571611Y-44065793D01*
X67566940Y-44042311D01*
X67559368Y-44025162D01*
X67553545Y-43974971D01*
X67552581Y-43970122D01*
X67552581Y-42670122D01*
X67553545Y-42665272D01*
X67559368Y-42615081D01*
X67566940Y-42597930D01*
X67571611Y-42574451D01*
X67588407Y-42549313D01*
X67597189Y-42529425D01*
X67610772Y-42515841D01*
X67625804Y-42493345D01*
X67648300Y-42478313D01*
X67661884Y-42464730D01*
X67681772Y-42455948D01*
X67706910Y-42439152D01*
X67730389Y-42434481D01*
X67747540Y-42426909D01*
X67797732Y-42421086D01*
X67802581Y-42420122D01*
X71072581Y-42420122D01*
X71077431Y-42421086D01*
G37*
G36*
X38123785Y-42223060D02*
G01*
X38304897Y-42298079D01*
X38467893Y-42406990D01*
X38606510Y-42545607D01*
X38715421Y-42708603D01*
X38790440Y-42889715D01*
X38828685Y-43081983D01*
X38828685Y-43278017D01*
X38790440Y-43470285D01*
X38715421Y-43651397D01*
X38606510Y-43814393D01*
X38467893Y-43953010D01*
X38304897Y-44061921D01*
X38123785Y-44136940D01*
X37931517Y-44175185D01*
X37735483Y-44175185D01*
X37543215Y-44136940D01*
X37362103Y-44061921D01*
X37199107Y-43953010D01*
X37060490Y-43814393D01*
X36951579Y-43651397D01*
X36876560Y-43470285D01*
X36838315Y-43278017D01*
X36838315Y-43081983D01*
X36876560Y-42889715D01*
X36951579Y-42708603D01*
X37060490Y-42545607D01*
X37199107Y-42406990D01*
X37362103Y-42298079D01*
X37543215Y-42223060D01*
X37735483Y-42184815D01*
X37931517Y-42184815D01*
X38123785Y-42223060D01*
G37*
G36*
X103007815Y-41994093D02*
G01*
X103171242Y-42026601D01*
X103325187Y-42090367D01*
X103463734Y-42182941D01*
X103581559Y-42300766D01*
X103674133Y-42439313D01*
X103737899Y-42593258D01*
X103770407Y-42756685D01*
X103770407Y-42923315D01*
X103737899Y-43086742D01*
X103674133Y-43240687D01*
X103581559Y-43379234D01*
X103463734Y-43497059D01*
X103325187Y-43589633D01*
X103171242Y-43653399D01*
X103007815Y-43685907D01*
X102924500Y-43690000D01*
X102923022Y-43690000D01*
X102675978Y-43690000D01*
X102674500Y-43690000D01*
X102591185Y-43685907D01*
X102427758Y-43653399D01*
X102273813Y-43589633D01*
X102135266Y-43497059D01*
X102017441Y-43379234D01*
X101924867Y-43240687D01*
X101861101Y-43086742D01*
X101828593Y-42923315D01*
X101828593Y-42756685D01*
X101861101Y-42593258D01*
X101924867Y-42439313D01*
X102017441Y-42300766D01*
X102135266Y-42182941D01*
X102273813Y-42090367D01*
X102427758Y-42026601D01*
X102591185Y-41994093D01*
X102674500Y-41990000D01*
X102924500Y-41990000D01*
X103007815Y-41994093D01*
G37*
G36*
X43479728Y-41906448D02*
G01*
X43624617Y-41966463D01*
X43755015Y-42053592D01*
X43865908Y-42164485D01*
X43953037Y-42294883D01*
X44013052Y-42439772D01*
X44043648Y-42593586D01*
X44043648Y-42750414D01*
X44013052Y-42904228D01*
X43953037Y-43049117D01*
X43865908Y-43179515D01*
X43755015Y-43290408D01*
X43624617Y-43377537D01*
X43479728Y-43437552D01*
X43325914Y-43468148D01*
X43169086Y-43468148D01*
X43015272Y-43437552D01*
X42870383Y-43377537D01*
X42739985Y-43290408D01*
X42629092Y-43179515D01*
X42541963Y-43049117D01*
X42481948Y-42904228D01*
X42451352Y-42750414D01*
X42451352Y-42593586D01*
X42481948Y-42439772D01*
X42541963Y-42294883D01*
X42629092Y-42164485D01*
X42739985Y-42053592D01*
X42870383Y-41966463D01*
X43015272Y-41906448D01*
X43169086Y-41875852D01*
X43325914Y-41875852D01*
X43479728Y-41906448D01*
G37*
G36*
X48479728Y-41906448D02*
G01*
X48624617Y-41966463D01*
X48755015Y-42053592D01*
X48865908Y-42164485D01*
X48953037Y-42294883D01*
X49013052Y-42439772D01*
X49043648Y-42593586D01*
X49043648Y-42750414D01*
X49013052Y-42904228D01*
X48953037Y-43049117D01*
X48865908Y-43179515D01*
X48755015Y-43290408D01*
X48624617Y-43377537D01*
X48479728Y-43437552D01*
X48325914Y-43468148D01*
X48169086Y-43468148D01*
X48015272Y-43437552D01*
X47870383Y-43377537D01*
X47739985Y-43290408D01*
X47629092Y-43179515D01*
X47541963Y-43049117D01*
X47481948Y-42904228D01*
X47451352Y-42750414D01*
X47451352Y-42593586D01*
X47481948Y-42439772D01*
X47541963Y-42294883D01*
X47629092Y-42164485D01*
X47739985Y-42053592D01*
X47870383Y-41966463D01*
X48015272Y-41906448D01*
X48169086Y-41875852D01*
X48325914Y-41875852D01*
X48479728Y-41906448D01*
G37*
G36*
X75566903Y-41818918D02*
G01*
X75615566Y-41851434D01*
X75648082Y-41900097D01*
X75659500Y-41957500D01*
X75659500Y-43132500D01*
X75648082Y-43189903D01*
X75615566Y-43238566D01*
X75566903Y-43271082D01*
X75509500Y-43282500D01*
X75209500Y-43282500D01*
X75152097Y-43271082D01*
X75103434Y-43238566D01*
X75070918Y-43189903D01*
X75059500Y-43132500D01*
X75059500Y-41957500D01*
X75070918Y-41900097D01*
X75103434Y-41851434D01*
X75152097Y-41818918D01*
X75209500Y-41807500D01*
X75509500Y-41807500D01*
X75566903Y-41818918D01*
G37*
G36*
X81327313Y-42766000D02*
G01*
X80277313Y-42766000D01*
X80277313Y-41266000D01*
X81327313Y-41266000D01*
X81327313Y-42766000D01*
G37*
G36*
X82273222Y-41305963D02*
G01*
X82391913Y-41374489D01*
X82488824Y-41471400D01*
X82557350Y-41590091D01*
X82592822Y-41722474D01*
X82597313Y-41791000D01*
X82597313Y-42241000D01*
X82592822Y-42309526D01*
X82557350Y-42441909D01*
X82488824Y-42560600D01*
X82391913Y-42657511D01*
X82273222Y-42726037D01*
X82140839Y-42761509D01*
X82003787Y-42761509D01*
X81871404Y-42726037D01*
X81752713Y-42657511D01*
X81655802Y-42560600D01*
X81587276Y-42441909D01*
X81551804Y-42309526D01*
X81547313Y-42241000D01*
X81547313Y-41791000D01*
X81551804Y-41722474D01*
X81587276Y-41590091D01*
X81655802Y-41471400D01*
X81752713Y-41374489D01*
X81871404Y-41305963D01*
X82003787Y-41270491D01*
X82140839Y-41270491D01*
X82273222Y-41305963D01*
G37*
G36*
X83543222Y-41305963D02*
G01*
X83661913Y-41374489D01*
X83758824Y-41471400D01*
X83827350Y-41590091D01*
X83862822Y-41722474D01*
X83867313Y-41791000D01*
X83867313Y-42241000D01*
X83862822Y-42309526D01*
X83827350Y-42441909D01*
X83758824Y-42560600D01*
X83661913Y-42657511D01*
X83543222Y-42726037D01*
X83410839Y-42761509D01*
X83273787Y-42761509D01*
X83141404Y-42726037D01*
X83022713Y-42657511D01*
X82925802Y-42560600D01*
X82857276Y-42441909D01*
X82821804Y-42309526D01*
X82817313Y-42241000D01*
X82817313Y-41791000D01*
X82821804Y-41722474D01*
X82857276Y-41590091D01*
X82925802Y-41471400D01*
X83022713Y-41374489D01*
X83141404Y-41305963D01*
X83273787Y-41270491D01*
X83410839Y-41270491D01*
X83543222Y-41305963D01*
G37*
G36*
X96246242Y-40334601D02*
G01*
X96400187Y-40398367D01*
X96538734Y-40490941D01*
X96656559Y-40608766D01*
X96749133Y-40747313D01*
X96812899Y-40901258D01*
X96845407Y-41064685D01*
X96845407Y-41231315D01*
X96812899Y-41394742D01*
X96749133Y-41548687D01*
X96656559Y-41687234D01*
X96538734Y-41805059D01*
X96400187Y-41897633D01*
X96246242Y-41961399D01*
X96082815Y-41993907D01*
X95916185Y-41993907D01*
X95752758Y-41961399D01*
X95598813Y-41897633D01*
X95460266Y-41805059D01*
X95342441Y-41687234D01*
X95249867Y-41548687D01*
X95186101Y-41394742D01*
X95153593Y-41231315D01*
X95153593Y-41064685D01*
X95186101Y-40901258D01*
X95249867Y-40747313D01*
X95342441Y-40608766D01*
X95460266Y-40490941D01*
X95598813Y-40398367D01*
X95752758Y-40334601D01*
X95916185Y-40302093D01*
X96082815Y-40302093D01*
X96246242Y-40334601D01*
G37*
G36*
X53297431Y-39881086D02*
G01*
X53347621Y-39886909D01*
X53364770Y-39894481D01*
X53388252Y-39899152D01*
X53413391Y-39915949D01*
X53433277Y-39924730D01*
X53446858Y-39938311D01*
X53469358Y-39953345D01*
X53484391Y-39975844D01*
X53497972Y-39989425D01*
X53506751Y-40009308D01*
X53523551Y-40034451D01*
X53528222Y-40057934D01*
X53535793Y-40075081D01*
X53541614Y-40125261D01*
X53542581Y-40130122D01*
X53542581Y-41430122D01*
X53541613Y-41434985D01*
X53535793Y-41485162D01*
X53528222Y-41502307D01*
X53523551Y-41525793D01*
X53506750Y-41550937D01*
X53497972Y-41570818D01*
X53484393Y-41584396D01*
X53469358Y-41606899D01*
X53446855Y-41621934D01*
X53433277Y-41635513D01*
X53413396Y-41644291D01*
X53388252Y-41661092D01*
X53364766Y-41665763D01*
X53347621Y-41673334D01*
X53297442Y-41679154D01*
X53292581Y-41680122D01*
X50022581Y-41680122D01*
X50017719Y-41679154D01*
X49967540Y-41673334D01*
X49950393Y-41665763D01*
X49926910Y-41661092D01*
X49901767Y-41644292D01*
X49881884Y-41635513D01*
X49868303Y-41621932D01*
X49845804Y-41606899D01*
X49830770Y-41584399D01*
X49817189Y-41570818D01*
X49808408Y-41550932D01*
X49791611Y-41525793D01*
X49786940Y-41502311D01*
X49779368Y-41485162D01*
X49773545Y-41434971D01*
X49772581Y-41430122D01*
X49772581Y-40130122D01*
X49773545Y-40125272D01*
X49779368Y-40075081D01*
X49786940Y-40057930D01*
X49791611Y-40034451D01*
X49808407Y-40009313D01*
X49817189Y-39989425D01*
X49830772Y-39975841D01*
X49845804Y-39953345D01*
X49868300Y-39938313D01*
X49881884Y-39924730D01*
X49901772Y-39915948D01*
X49926910Y-39899152D01*
X49950389Y-39894481D01*
X49967540Y-39886909D01*
X50017732Y-39881086D01*
X50022581Y-39880122D01*
X53292581Y-39880122D01*
X53297431Y-39881086D01*
G37*
G36*
X71077431Y-39881086D02*
G01*
X71127621Y-39886909D01*
X71144770Y-39894481D01*
X71168252Y-39899152D01*
X71193391Y-39915949D01*
X71213277Y-39924730D01*
X71226858Y-39938311D01*
X71249358Y-39953345D01*
X71264391Y-39975844D01*
X71277972Y-39989425D01*
X71286751Y-40009308D01*
X71303551Y-40034451D01*
X71308222Y-40057934D01*
X71315793Y-40075081D01*
X71321614Y-40125261D01*
X71322581Y-40130122D01*
X71322581Y-41430122D01*
X71321613Y-41434985D01*
X71315793Y-41485162D01*
X71308222Y-41502307D01*
X71303551Y-41525793D01*
X71286750Y-41550937D01*
X71277972Y-41570818D01*
X71264393Y-41584396D01*
X71249358Y-41606899D01*
X71226855Y-41621934D01*
X71213277Y-41635513D01*
X71193396Y-41644291D01*
X71168252Y-41661092D01*
X71144766Y-41665763D01*
X71127621Y-41673334D01*
X71077442Y-41679154D01*
X71072581Y-41680122D01*
X67802581Y-41680122D01*
X67797719Y-41679154D01*
X67747540Y-41673334D01*
X67730393Y-41665763D01*
X67706910Y-41661092D01*
X67681767Y-41644292D01*
X67661884Y-41635513D01*
X67648303Y-41621932D01*
X67625804Y-41606899D01*
X67610770Y-41584399D01*
X67597189Y-41570818D01*
X67588408Y-41550932D01*
X67571611Y-41525793D01*
X67566940Y-41502311D01*
X67559368Y-41485162D01*
X67553545Y-41434971D01*
X67552581Y-41430122D01*
X67552581Y-40130122D01*
X67553545Y-40125272D01*
X67559368Y-40075081D01*
X67566940Y-40057930D01*
X67571611Y-40034451D01*
X67588407Y-40009313D01*
X67597189Y-39989425D01*
X67610772Y-39975841D01*
X67625804Y-39953345D01*
X67648300Y-39938313D01*
X67661884Y-39924730D01*
X67681772Y-39915948D01*
X67706910Y-39899152D01*
X67730389Y-39894481D01*
X67747540Y-39886909D01*
X67797732Y-39881086D01*
X67802581Y-39880122D01*
X71072581Y-39880122D01*
X71077431Y-39881086D01*
G37*
G36*
X38123785Y-39683060D02*
G01*
X38304897Y-39758079D01*
X38467893Y-39866990D01*
X38606510Y-40005607D01*
X38715421Y-40168603D01*
X38790440Y-40349715D01*
X38828685Y-40541983D01*
X38828685Y-40738017D01*
X38790440Y-40930285D01*
X38715421Y-41111397D01*
X38606510Y-41274393D01*
X38467893Y-41413010D01*
X38304897Y-41521921D01*
X38123785Y-41596940D01*
X37931517Y-41635185D01*
X37735483Y-41635185D01*
X37543215Y-41596940D01*
X37362103Y-41521921D01*
X37199107Y-41413010D01*
X37060490Y-41274393D01*
X36951579Y-41111397D01*
X36876560Y-40930285D01*
X36838315Y-40738017D01*
X36838315Y-40541983D01*
X36876560Y-40349715D01*
X36951579Y-40168603D01*
X37060490Y-40005607D01*
X37199107Y-39866990D01*
X37362103Y-39758079D01*
X37543215Y-39683060D01*
X37735483Y-39644815D01*
X37931517Y-39644815D01*
X38123785Y-39683060D01*
G37*
G36*
X74616903Y-39943918D02*
G01*
X74665566Y-39976434D01*
X74698082Y-40025097D01*
X74709500Y-40082500D01*
X74709500Y-41257500D01*
X74698082Y-41314903D01*
X74665566Y-41363566D01*
X74616903Y-41396082D01*
X74559500Y-41407500D01*
X74259500Y-41407500D01*
X74202097Y-41396082D01*
X74153434Y-41363566D01*
X74120918Y-41314903D01*
X74109500Y-41257500D01*
X74109500Y-40082500D01*
X74120918Y-40025097D01*
X74153434Y-39976434D01*
X74202097Y-39943918D01*
X74259500Y-39932500D01*
X74559500Y-39932500D01*
X74616903Y-39943918D01*
G37*
G36*
X76516903Y-39943918D02*
G01*
X76565566Y-39976434D01*
X76598082Y-40025097D01*
X76609500Y-40082500D01*
X76609500Y-41257500D01*
X76598082Y-41314903D01*
X76565566Y-41363566D01*
X76516903Y-41396082D01*
X76459500Y-41407500D01*
X76159500Y-41407500D01*
X76102097Y-41396082D01*
X76053434Y-41363566D01*
X76020918Y-41314903D01*
X76009500Y-41257500D01*
X76009500Y-40082500D01*
X76020918Y-40025097D01*
X76053434Y-39976434D01*
X76102097Y-39943918D01*
X76159500Y-39932500D01*
X76459500Y-39932500D01*
X76516903Y-39943918D01*
G37*
G36*
X103007815Y-39494093D02*
G01*
X103171242Y-39526601D01*
X103325187Y-39590367D01*
X103463734Y-39682941D01*
X103581559Y-39800766D01*
X103674133Y-39939313D01*
X103737899Y-40093258D01*
X103770407Y-40256685D01*
X103770407Y-40423315D01*
X103737899Y-40586742D01*
X103674133Y-40740687D01*
X103581559Y-40879234D01*
X103463734Y-40997059D01*
X103325187Y-41089633D01*
X103171242Y-41153399D01*
X103007815Y-41185907D01*
X102924500Y-41190000D01*
X102923022Y-41190000D01*
X102675978Y-41190000D01*
X102674500Y-41190000D01*
X102591185Y-41185907D01*
X102427758Y-41153399D01*
X102273813Y-41089633D01*
X102135266Y-40997059D01*
X102017441Y-40879234D01*
X101924867Y-40740687D01*
X101861101Y-40586742D01*
X101828593Y-40423315D01*
X101828593Y-40256685D01*
X101861101Y-40093258D01*
X101924867Y-39939313D01*
X102017441Y-39800766D01*
X102135266Y-39682941D01*
X102273813Y-39590367D01*
X102427758Y-39526601D01*
X102591185Y-39494093D01*
X102674500Y-39490000D01*
X102924500Y-39490000D01*
X103007815Y-39494093D01*
G37*
G36*
X96849500Y-39458000D02*
G01*
X95149500Y-39458000D01*
X95149500Y-37758000D01*
X96849500Y-37758000D01*
X96849500Y-39458000D01*
G37*
G36*
X53297431Y-37341086D02*
G01*
X53347621Y-37346909D01*
X53364770Y-37354481D01*
X53388252Y-37359152D01*
X53413391Y-37375949D01*
X53433277Y-37384730D01*
X53446858Y-37398311D01*
X53469358Y-37413345D01*
X53484391Y-37435844D01*
X53497972Y-37449425D01*
X53506751Y-37469308D01*
X53523551Y-37494451D01*
X53528222Y-37517934D01*
X53535793Y-37535081D01*
X53541614Y-37585261D01*
X53542581Y-37590122D01*
X53542581Y-38890122D01*
X53541613Y-38894985D01*
X53535793Y-38945162D01*
X53528222Y-38962307D01*
X53523551Y-38985793D01*
X53506750Y-39010937D01*
X53497972Y-39030818D01*
X53484393Y-39044396D01*
X53469358Y-39066899D01*
X53446855Y-39081934D01*
X53433277Y-39095513D01*
X53413396Y-39104291D01*
X53388252Y-39121092D01*
X53364766Y-39125763D01*
X53347621Y-39133334D01*
X53297442Y-39139154D01*
X53292581Y-39140122D01*
X50022581Y-39140122D01*
X50017719Y-39139154D01*
X49967540Y-39133334D01*
X49950393Y-39125763D01*
X49926910Y-39121092D01*
X49901767Y-39104292D01*
X49881884Y-39095513D01*
X49868303Y-39081932D01*
X49845804Y-39066899D01*
X49830770Y-39044399D01*
X49817189Y-39030818D01*
X49808408Y-39010932D01*
X49791611Y-38985793D01*
X49786940Y-38962311D01*
X49779368Y-38945162D01*
X49773545Y-38894971D01*
X49772581Y-38890122D01*
X49772581Y-37590122D01*
X49773545Y-37585272D01*
X49779368Y-37535081D01*
X49786940Y-37517930D01*
X49791611Y-37494451D01*
X49808407Y-37469313D01*
X49817189Y-37449425D01*
X49830772Y-37435841D01*
X49845804Y-37413345D01*
X49868300Y-37398313D01*
X49881884Y-37384730D01*
X49901772Y-37375948D01*
X49926910Y-37359152D01*
X49950389Y-37354481D01*
X49967540Y-37346909D01*
X50017732Y-37341086D01*
X50022581Y-37340122D01*
X53292581Y-37340122D01*
X53297431Y-37341086D01*
G37*
G36*
X71077431Y-37341086D02*
G01*
X71127621Y-37346909D01*
X71144770Y-37354481D01*
X71168252Y-37359152D01*
X71193391Y-37375949D01*
X71213277Y-37384730D01*
X71226858Y-37398311D01*
X71249358Y-37413345D01*
X71264391Y-37435844D01*
X71277972Y-37449425D01*
X71286751Y-37469308D01*
X71303551Y-37494451D01*
X71308222Y-37517934D01*
X71315793Y-37535081D01*
X71321614Y-37585261D01*
X71322581Y-37590122D01*
X71322581Y-38890122D01*
X71321613Y-38894985D01*
X71315793Y-38945162D01*
X71308222Y-38962307D01*
X71303551Y-38985793D01*
X71286750Y-39010937D01*
X71277972Y-39030818D01*
X71264393Y-39044396D01*
X71249358Y-39066899D01*
X71226855Y-39081934D01*
X71213277Y-39095513D01*
X71193396Y-39104291D01*
X71168252Y-39121092D01*
X71144766Y-39125763D01*
X71127621Y-39133334D01*
X71077442Y-39139154D01*
X71072581Y-39140122D01*
X67802581Y-39140122D01*
X67797719Y-39139154D01*
X67747540Y-39133334D01*
X67730393Y-39125763D01*
X67706910Y-39121092D01*
X67681767Y-39104292D01*
X67661884Y-39095513D01*
X67648303Y-39081932D01*
X67625804Y-39066899D01*
X67610770Y-39044399D01*
X67597189Y-39030818D01*
X67588408Y-39010932D01*
X67571611Y-38985793D01*
X67566940Y-38962311D01*
X67559368Y-38945162D01*
X67553545Y-38894971D01*
X67552581Y-38890122D01*
X67552581Y-37590122D01*
X67553545Y-37585272D01*
X67559368Y-37535081D01*
X67566940Y-37517930D01*
X67571611Y-37494451D01*
X67588407Y-37469313D01*
X67597189Y-37449425D01*
X67610772Y-37435841D01*
X67625804Y-37413345D01*
X67648300Y-37398313D01*
X67661884Y-37384730D01*
X67681772Y-37375948D01*
X67706910Y-37359152D01*
X67730389Y-37354481D01*
X67747540Y-37346909D01*
X67797732Y-37341086D01*
X67802581Y-37340122D01*
X71072581Y-37340122D01*
X71077431Y-37341086D01*
G37*
G36*
X38123785Y-37143060D02*
G01*
X38304897Y-37218079D01*
X38467893Y-37326990D01*
X38606510Y-37465607D01*
X38715421Y-37628603D01*
X38790440Y-37809715D01*
X38828685Y-38001983D01*
X38828685Y-38198017D01*
X38790440Y-38390285D01*
X38715421Y-38571397D01*
X38606510Y-38734393D01*
X38467893Y-38873010D01*
X38304897Y-38981921D01*
X38123785Y-39056940D01*
X37931517Y-39095185D01*
X37735483Y-39095185D01*
X37543215Y-39056940D01*
X37362103Y-38981921D01*
X37199107Y-38873010D01*
X37060490Y-38734393D01*
X36951579Y-38571397D01*
X36876560Y-38390285D01*
X36838315Y-38198017D01*
X36838315Y-38001983D01*
X36876560Y-37809715D01*
X36951579Y-37628603D01*
X37060490Y-37465607D01*
X37199107Y-37326990D01*
X37362103Y-37218079D01*
X37543215Y-37143060D01*
X37735483Y-37104815D01*
X37931517Y-37104815D01*
X38123785Y-37143060D01*
G37*
G36*
X103529350Y-36990964D02*
G01*
X103579540Y-36996787D01*
X103596689Y-37004359D01*
X103620171Y-37009030D01*
X103645310Y-37025827D01*
X103665196Y-37034608D01*
X103678777Y-37048189D01*
X103701277Y-37063223D01*
X103716310Y-37085722D01*
X103729891Y-37099303D01*
X103738670Y-37119186D01*
X103755470Y-37144329D01*
X103760141Y-37167812D01*
X103767712Y-37184959D01*
X103773533Y-37235139D01*
X103774500Y-37240000D01*
X103774500Y-38440000D01*
X103773532Y-38444863D01*
X103767712Y-38495040D01*
X103760141Y-38512185D01*
X103755470Y-38535671D01*
X103738669Y-38560815D01*
X103729891Y-38580696D01*
X103716312Y-38594274D01*
X103701277Y-38616777D01*
X103678774Y-38631812D01*
X103665196Y-38645391D01*
X103645315Y-38654169D01*
X103620171Y-38670970D01*
X103596685Y-38675641D01*
X103579540Y-38683212D01*
X103529361Y-38689032D01*
X103524500Y-38690000D01*
X102074500Y-38690000D01*
X102069638Y-38689032D01*
X102019459Y-38683212D01*
X102002312Y-38675641D01*
X101978829Y-38670970D01*
X101953686Y-38654170D01*
X101933803Y-38645391D01*
X101920222Y-38631810D01*
X101897723Y-38616777D01*
X101882689Y-38594277D01*
X101869108Y-38580696D01*
X101860327Y-38560810D01*
X101843530Y-38535671D01*
X101838859Y-38512189D01*
X101831287Y-38495040D01*
X101825464Y-38444849D01*
X101824500Y-38440000D01*
X101824500Y-37240000D01*
X101825464Y-37235150D01*
X101831287Y-37184959D01*
X101838859Y-37167808D01*
X101843530Y-37144329D01*
X101860326Y-37119191D01*
X101869108Y-37099303D01*
X101882691Y-37085719D01*
X101897723Y-37063223D01*
X101920219Y-37048191D01*
X101933803Y-37034608D01*
X101953691Y-37025826D01*
X101978829Y-37009030D01*
X102002308Y-37004359D01*
X102019459Y-36996787D01*
X102069651Y-36990964D01*
X102074500Y-36990000D01*
X103524500Y-36990000D01*
X103529350Y-36990964D01*
G37*
G36*
X74387728Y-36699448D02*
G01*
X74532617Y-36759463D01*
X74663015Y-36846592D01*
X74773908Y-36957485D01*
X74861037Y-37087883D01*
X74921052Y-37232772D01*
X74951648Y-37386586D01*
X74951648Y-37543414D01*
X74921052Y-37697228D01*
X74861037Y-37842117D01*
X74773908Y-37972515D01*
X74663015Y-38083408D01*
X74532617Y-38170537D01*
X74387728Y-38230552D01*
X74233914Y-38261148D01*
X74077086Y-38261148D01*
X73923272Y-38230552D01*
X73778383Y-38170537D01*
X73647985Y-38083408D01*
X73537092Y-37972515D01*
X73449963Y-37842117D01*
X73389948Y-37697228D01*
X73359352Y-37543414D01*
X73359352Y-37386586D01*
X73389948Y-37232772D01*
X73449963Y-37087883D01*
X73537092Y-36957485D01*
X73647985Y-36846592D01*
X73778383Y-36759463D01*
X73923272Y-36699448D01*
X74077086Y-36668852D01*
X74233914Y-36668852D01*
X74387728Y-36699448D01*
G37*
G36*
X82007728Y-36699448D02*
G01*
X82152617Y-36759463D01*
X82283015Y-36846592D01*
X82393908Y-36957485D01*
X82481037Y-37087883D01*
X82541052Y-37232772D01*
X82571648Y-37386586D01*
X82571648Y-37543414D01*
X82541052Y-37697228D01*
X82481037Y-37842117D01*
X82393908Y-37972515D01*
X82283015Y-38083408D01*
X82152617Y-38170537D01*
X82007728Y-38230552D01*
X81853914Y-38261148D01*
X81697086Y-38261148D01*
X81543272Y-38230552D01*
X81398383Y-38170537D01*
X81267985Y-38083408D01*
X81157092Y-37972515D01*
X81069963Y-37842117D01*
X81009948Y-37697228D01*
X80979352Y-37543414D01*
X80979352Y-37386586D01*
X81009948Y-37232772D01*
X81069963Y-37087883D01*
X81157092Y-36957485D01*
X81267985Y-36846592D01*
X81398383Y-36759463D01*
X81543272Y-36699448D01*
X81697086Y-36668852D01*
X81853914Y-36668852D01*
X82007728Y-36699448D01*
G37*
G36*
X47532350Y-35776964D02*
G01*
X47582540Y-35782787D01*
X47599689Y-35790359D01*
X47623171Y-35795030D01*
X47648310Y-35811827D01*
X47668196Y-35820608D01*
X47681777Y-35834189D01*
X47704277Y-35849223D01*
X47719310Y-35871722D01*
X47732891Y-35885303D01*
X47741670Y-35905186D01*
X47758470Y-35930329D01*
X47763141Y-35953812D01*
X47770712Y-35970959D01*
X47776533Y-36021139D01*
X47777500Y-36026000D01*
X47777500Y-37126000D01*
X47776532Y-37130863D01*
X47770712Y-37181040D01*
X47763141Y-37198185D01*
X47758470Y-37221671D01*
X47741669Y-37246815D01*
X47732891Y-37266696D01*
X47719312Y-37280274D01*
X47704277Y-37302777D01*
X47681774Y-37317812D01*
X47668196Y-37331391D01*
X47648315Y-37340169D01*
X47623171Y-37356970D01*
X47599685Y-37361641D01*
X47582540Y-37369212D01*
X47532361Y-37375032D01*
X47527500Y-37376000D01*
X46427500Y-37376000D01*
X46422638Y-37375032D01*
X46372459Y-37369212D01*
X46355312Y-37361641D01*
X46331829Y-37356970D01*
X46306686Y-37340170D01*
X46286803Y-37331391D01*
X46273222Y-37317810D01*
X46250723Y-37302777D01*
X46235689Y-37280277D01*
X46222108Y-37266696D01*
X46213327Y-37246810D01*
X46196530Y-37221671D01*
X46191859Y-37198189D01*
X46184287Y-37181040D01*
X46178464Y-37130849D01*
X46177500Y-37126000D01*
X46177500Y-36026000D01*
X46178464Y-36021150D01*
X46184287Y-35970959D01*
X46191859Y-35953808D01*
X46196530Y-35930329D01*
X46213326Y-35905191D01*
X46222108Y-35885303D01*
X46235691Y-35871719D01*
X46250723Y-35849223D01*
X46273219Y-35834191D01*
X46286803Y-35820608D01*
X46306691Y-35811826D01*
X46331829Y-35795030D01*
X46355308Y-35790359D01*
X46372459Y-35782787D01*
X46422651Y-35776964D01*
X46427500Y-35776000D01*
X47527500Y-35776000D01*
X47532350Y-35776964D01*
G37*
G36*
X45209728Y-35810448D02*
G01*
X45354617Y-35870463D01*
X45485015Y-35957592D01*
X45595908Y-36068485D01*
X45683037Y-36198883D01*
X45743052Y-36343772D01*
X45773648Y-36497586D01*
X45773648Y-36654414D01*
X45743052Y-36808228D01*
X45683037Y-36953117D01*
X45595908Y-37083515D01*
X45485015Y-37194408D01*
X45354617Y-37281537D01*
X45209728Y-37341552D01*
X45055914Y-37372148D01*
X44899086Y-37372148D01*
X44745272Y-37341552D01*
X44600383Y-37281537D01*
X44469985Y-37194408D01*
X44359092Y-37083515D01*
X44271963Y-36953117D01*
X44211948Y-36808228D01*
X44181352Y-36654414D01*
X44181352Y-36497586D01*
X44211948Y-36343772D01*
X44271963Y-36198883D01*
X44359092Y-36068485D01*
X44469985Y-35957592D01*
X44600383Y-35870463D01*
X44745272Y-35810448D01*
X44899086Y-35779852D01*
X45055914Y-35779852D01*
X45209728Y-35810448D01*
G37*
G36*
X101380928Y-35641912D02*
G01*
X101494123Y-35688799D01*
X101595996Y-35756868D01*
X101682632Y-35843504D01*
X101750701Y-35945377D01*
X101797588Y-36058572D01*
X101821490Y-36178739D01*
X101821490Y-36301261D01*
X101797588Y-36421428D01*
X101750701Y-36534623D01*
X101682632Y-36636496D01*
X101595996Y-36723132D01*
X101494123Y-36791201D01*
X101380928Y-36838088D01*
X101260761Y-36861990D01*
X101138239Y-36861990D01*
X101018072Y-36838088D01*
X100904877Y-36791201D01*
X100803004Y-36723132D01*
X100716368Y-36636496D01*
X100648299Y-36534623D01*
X100601412Y-36421428D01*
X100577510Y-36301261D01*
X100577510Y-36178739D01*
X100601412Y-36058572D01*
X100648299Y-35945377D01*
X100716368Y-35843504D01*
X100803004Y-35756868D01*
X100904877Y-35688799D01*
X101018072Y-35641912D01*
X101138239Y-35618010D01*
X101260761Y-35618010D01*
X101380928Y-35641912D01*
G37*
G36*
X53297431Y-34801086D02*
G01*
X53347621Y-34806909D01*
X53364770Y-34814481D01*
X53388252Y-34819152D01*
X53413391Y-34835949D01*
X53433277Y-34844730D01*
X53446858Y-34858311D01*
X53469358Y-34873345D01*
X53484391Y-34895844D01*
X53497972Y-34909425D01*
X53506751Y-34929308D01*
X53523551Y-34954451D01*
X53528222Y-34977934D01*
X53535793Y-34995081D01*
X53541614Y-35045261D01*
X53542581Y-35050122D01*
X53542581Y-36350122D01*
X53541613Y-36354985D01*
X53535793Y-36405162D01*
X53528222Y-36422307D01*
X53523551Y-36445793D01*
X53506750Y-36470937D01*
X53497972Y-36490818D01*
X53484393Y-36504396D01*
X53469358Y-36526899D01*
X53446855Y-36541934D01*
X53433277Y-36555513D01*
X53413396Y-36564291D01*
X53388252Y-36581092D01*
X53364766Y-36585763D01*
X53347621Y-36593334D01*
X53297442Y-36599154D01*
X53292581Y-36600122D01*
X50022581Y-36600122D01*
X50017719Y-36599154D01*
X49967540Y-36593334D01*
X49950393Y-36585763D01*
X49926910Y-36581092D01*
X49901767Y-36564292D01*
X49881884Y-36555513D01*
X49868303Y-36541932D01*
X49845804Y-36526899D01*
X49830770Y-36504399D01*
X49817189Y-36490818D01*
X49808408Y-36470932D01*
X49791611Y-36445793D01*
X49786940Y-36422311D01*
X49779368Y-36405162D01*
X49773545Y-36354971D01*
X49772581Y-36350122D01*
X49772581Y-35050122D01*
X49773545Y-35045272D01*
X49779368Y-34995081D01*
X49786940Y-34977930D01*
X49791611Y-34954451D01*
X49808407Y-34929313D01*
X49817189Y-34909425D01*
X49830772Y-34895841D01*
X49845804Y-34873345D01*
X49868300Y-34858313D01*
X49881884Y-34844730D01*
X49901772Y-34835948D01*
X49926910Y-34819152D01*
X49950389Y-34814481D01*
X49967540Y-34806909D01*
X50017732Y-34801086D01*
X50022581Y-34800122D01*
X53292581Y-34800122D01*
X53297431Y-34801086D01*
G37*
G36*
X71077431Y-34801086D02*
G01*
X71127621Y-34806909D01*
X71144770Y-34814481D01*
X71168252Y-34819152D01*
X71193391Y-34835949D01*
X71213277Y-34844730D01*
X71226858Y-34858311D01*
X71249358Y-34873345D01*
X71264391Y-34895844D01*
X71277972Y-34909425D01*
X71286751Y-34929308D01*
X71303551Y-34954451D01*
X71308222Y-34977934D01*
X71315793Y-34995081D01*
X71321614Y-35045261D01*
X71322581Y-35050122D01*
X71322581Y-36350122D01*
X71321613Y-36354985D01*
X71315793Y-36405162D01*
X71308222Y-36422307D01*
X71303551Y-36445793D01*
X71286750Y-36470937D01*
X71277972Y-36490818D01*
X71264393Y-36504396D01*
X71249358Y-36526899D01*
X71226855Y-36541934D01*
X71213277Y-36555513D01*
X71193396Y-36564291D01*
X71168252Y-36581092D01*
X71144766Y-36585763D01*
X71127621Y-36593334D01*
X71077442Y-36599154D01*
X71072581Y-36600122D01*
X67802581Y-36600122D01*
X67797719Y-36599154D01*
X67747540Y-36593334D01*
X67730393Y-36585763D01*
X67706910Y-36581092D01*
X67681767Y-36564292D01*
X67661884Y-36555513D01*
X67648303Y-36541932D01*
X67625804Y-36526899D01*
X67610770Y-36504399D01*
X67597189Y-36490818D01*
X67588408Y-36470932D01*
X67571611Y-36445793D01*
X67566940Y-36422311D01*
X67559368Y-36405162D01*
X67553545Y-36354971D01*
X67552581Y-36350122D01*
X67552581Y-35050122D01*
X67553545Y-35045272D01*
X67559368Y-34995081D01*
X67566940Y-34977930D01*
X67571611Y-34954451D01*
X67588407Y-34929313D01*
X67597189Y-34909425D01*
X67610772Y-34895841D01*
X67625804Y-34873345D01*
X67648300Y-34858313D01*
X67661884Y-34844730D01*
X67681772Y-34835948D01*
X67706910Y-34819152D01*
X67730389Y-34814481D01*
X67747540Y-34806909D01*
X67797732Y-34801086D01*
X67802581Y-34800122D01*
X71072581Y-34800122D01*
X71077431Y-34801086D01*
G37*
G36*
X38123785Y-34603060D02*
G01*
X38304897Y-34678079D01*
X38467893Y-34786990D01*
X38606510Y-34925607D01*
X38715421Y-35088603D01*
X38790440Y-35269715D01*
X38828685Y-35461983D01*
X38828685Y-35658017D01*
X38790440Y-35850285D01*
X38715421Y-36031397D01*
X38606510Y-36194393D01*
X38467893Y-36333010D01*
X38304897Y-36441921D01*
X38123785Y-36516940D01*
X37931517Y-36555185D01*
X37735483Y-36555185D01*
X37543215Y-36516940D01*
X37362103Y-36441921D01*
X37199107Y-36333010D01*
X37060490Y-36194393D01*
X36951579Y-36031397D01*
X36876560Y-35850285D01*
X36838315Y-35658017D01*
X36838315Y-35461983D01*
X36876560Y-35269715D01*
X36951579Y-35088603D01*
X37060490Y-34925607D01*
X37199107Y-34786990D01*
X37362103Y-34678079D01*
X37543215Y-34603060D01*
X37735483Y-34564815D01*
X37931517Y-34564815D01*
X38123785Y-34603060D01*
G37*
G36*
X92781728Y-33824448D02*
G01*
X92926617Y-33884463D01*
X93057015Y-33971592D01*
X93167908Y-34082485D01*
X93255037Y-34212883D01*
X93315052Y-34357772D01*
X93345648Y-34511586D01*
X93345648Y-34668414D01*
X93315052Y-34822228D01*
X93255037Y-34967117D01*
X93167908Y-35097515D01*
X93057015Y-35208408D01*
X92926617Y-35295537D01*
X92781728Y-35355552D01*
X92627914Y-35386148D01*
X92471086Y-35386148D01*
X92317272Y-35355552D01*
X92172383Y-35295537D01*
X92041985Y-35208408D01*
X91931092Y-35097515D01*
X91843963Y-34967117D01*
X91783948Y-34822228D01*
X91753352Y-34668414D01*
X91753352Y-34511586D01*
X91783948Y-34357772D01*
X91843963Y-34212883D01*
X91931092Y-34082485D01*
X92041985Y-33971592D01*
X92172383Y-33884463D01*
X92317272Y-33824448D01*
X92471086Y-33793852D01*
X92627914Y-33793852D01*
X92781728Y-33824448D01*
G37*
G36*
X97781728Y-33824448D02*
G01*
X97926617Y-33884463D01*
X98057015Y-33971592D01*
X98167908Y-34082485D01*
X98255037Y-34212883D01*
X98315052Y-34357772D01*
X98345648Y-34511586D01*
X98345648Y-34668414D01*
X98315052Y-34822228D01*
X98255037Y-34967117D01*
X98167908Y-35097515D01*
X98057015Y-35208408D01*
X97926617Y-35295537D01*
X97781728Y-35355552D01*
X97627914Y-35386148D01*
X97471086Y-35386148D01*
X97317272Y-35355552D01*
X97172383Y-35295537D01*
X97041985Y-35208408D01*
X96931092Y-35097515D01*
X96843963Y-34967117D01*
X96783948Y-34822228D01*
X96753352Y-34668414D01*
X96753352Y-34511586D01*
X96783948Y-34357772D01*
X96843963Y-34212883D01*
X96931092Y-34082485D01*
X97041985Y-33971592D01*
X97172383Y-33884463D01*
X97317272Y-33824448D01*
X97471086Y-33793852D01*
X97627914Y-33793852D01*
X97781728Y-33824448D01*
G37*
G36*
X74387728Y-33524448D02*
G01*
X74532617Y-33584463D01*
X74663015Y-33671592D01*
X74773908Y-33782485D01*
X74861037Y-33912883D01*
X74921052Y-34057772D01*
X74951648Y-34211586D01*
X74951648Y-34368414D01*
X74921052Y-34522228D01*
X74861037Y-34667117D01*
X74773908Y-34797515D01*
X74663015Y-34908408D01*
X74532617Y-34995537D01*
X74387728Y-35055552D01*
X74233914Y-35086148D01*
X74077086Y-35086148D01*
X73923272Y-35055552D01*
X73778383Y-34995537D01*
X73647985Y-34908408D01*
X73537092Y-34797515D01*
X73449963Y-34667117D01*
X73389948Y-34522228D01*
X73359352Y-34368414D01*
X73359352Y-34211586D01*
X73389948Y-34057772D01*
X73449963Y-33912883D01*
X73537092Y-33782485D01*
X73647985Y-33671592D01*
X73778383Y-33584463D01*
X73923272Y-33524448D01*
X74077086Y-33493852D01*
X74233914Y-33493852D01*
X74387728Y-33524448D01*
G37*
G36*
X82007728Y-33524448D02*
G01*
X82152617Y-33584463D01*
X82283015Y-33671592D01*
X82393908Y-33782485D01*
X82481037Y-33912883D01*
X82541052Y-34057772D01*
X82571648Y-34211586D01*
X82571648Y-34368414D01*
X82541052Y-34522228D01*
X82481037Y-34667117D01*
X82393908Y-34797515D01*
X82283015Y-34908408D01*
X82152617Y-34995537D01*
X82007728Y-35055552D01*
X81853914Y-35086148D01*
X81697086Y-35086148D01*
X81543272Y-35055552D01*
X81398383Y-34995537D01*
X81267985Y-34908408D01*
X81157092Y-34797515D01*
X81069963Y-34667117D01*
X81009948Y-34522228D01*
X80979352Y-34368414D01*
X80979352Y-34211586D01*
X81009948Y-34057772D01*
X81069963Y-33912883D01*
X81157092Y-33782485D01*
X81267985Y-33671592D01*
X81398383Y-33584463D01*
X81543272Y-33524448D01*
X81697086Y-33493852D01*
X81853914Y-33493852D01*
X82007728Y-33524448D01*
G37*
G36*
X53297431Y-32261086D02*
G01*
X53347621Y-32266909D01*
X53364770Y-32274481D01*
X53388252Y-32279152D01*
X53413391Y-32295949D01*
X53433277Y-32304730D01*
X53446858Y-32318311D01*
X53469358Y-32333345D01*
X53484391Y-32355844D01*
X53497972Y-32369425D01*
X53506751Y-32389308D01*
X53523551Y-32414451D01*
X53528222Y-32437934D01*
X53535793Y-32455081D01*
X53541614Y-32505261D01*
X53542581Y-32510122D01*
X53542581Y-33810122D01*
X53541613Y-33814985D01*
X53535793Y-33865162D01*
X53528222Y-33882307D01*
X53523551Y-33905793D01*
X53506750Y-33930937D01*
X53497972Y-33950818D01*
X53484393Y-33964396D01*
X53469358Y-33986899D01*
X53446855Y-34001934D01*
X53433277Y-34015513D01*
X53413396Y-34024291D01*
X53388252Y-34041092D01*
X53364766Y-34045763D01*
X53347621Y-34053334D01*
X53297442Y-34059154D01*
X53292581Y-34060122D01*
X50022581Y-34060122D01*
X50017719Y-34059154D01*
X49967540Y-34053334D01*
X49950393Y-34045763D01*
X49926910Y-34041092D01*
X49901767Y-34024292D01*
X49881884Y-34015513D01*
X49868303Y-34001932D01*
X49845804Y-33986899D01*
X49830770Y-33964399D01*
X49817189Y-33950818D01*
X49808408Y-33930932D01*
X49791611Y-33905793D01*
X49786940Y-33882311D01*
X49779368Y-33865162D01*
X49773545Y-33814971D01*
X49772581Y-33810122D01*
X49772581Y-32510122D01*
X49773545Y-32505272D01*
X49779368Y-32455081D01*
X49786940Y-32437930D01*
X49791611Y-32414451D01*
X49808407Y-32389313D01*
X49817189Y-32369425D01*
X49830772Y-32355841D01*
X49845804Y-32333345D01*
X49868300Y-32318313D01*
X49881884Y-32304730D01*
X49901772Y-32295948D01*
X49926910Y-32279152D01*
X49950389Y-32274481D01*
X49967540Y-32266909D01*
X50017732Y-32261086D01*
X50022581Y-32260122D01*
X53292581Y-32260122D01*
X53297431Y-32261086D01*
G37*
G36*
X71077431Y-32261086D02*
G01*
X71127621Y-32266909D01*
X71144770Y-32274481D01*
X71168252Y-32279152D01*
X71193391Y-32295949D01*
X71213277Y-32304730D01*
X71226858Y-32318311D01*
X71249358Y-32333345D01*
X71264391Y-32355844D01*
X71277972Y-32369425D01*
X71286751Y-32389308D01*
X71303551Y-32414451D01*
X71308222Y-32437934D01*
X71315793Y-32455081D01*
X71321614Y-32505261D01*
X71322581Y-32510122D01*
X71322581Y-33810122D01*
X71321613Y-33814985D01*
X71315793Y-33865162D01*
X71308222Y-33882307D01*
X71303551Y-33905793D01*
X71286750Y-33930937D01*
X71277972Y-33950818D01*
X71264393Y-33964396D01*
X71249358Y-33986899D01*
X71226855Y-34001934D01*
X71213277Y-34015513D01*
X71193396Y-34024291D01*
X71168252Y-34041092D01*
X71144766Y-34045763D01*
X71127621Y-34053334D01*
X71077442Y-34059154D01*
X71072581Y-34060122D01*
X67802581Y-34060122D01*
X67797719Y-34059154D01*
X67747540Y-34053334D01*
X67730393Y-34045763D01*
X67706910Y-34041092D01*
X67681767Y-34024292D01*
X67661884Y-34015513D01*
X67648303Y-34001932D01*
X67625804Y-33986899D01*
X67610770Y-33964399D01*
X67597189Y-33950818D01*
X67588408Y-33930932D01*
X67571611Y-33905793D01*
X67566940Y-33882311D01*
X67559368Y-33865162D01*
X67553545Y-33814971D01*
X67552581Y-33810122D01*
X67552581Y-32510122D01*
X67553545Y-32505272D01*
X67559368Y-32455081D01*
X67566940Y-32437930D01*
X67571611Y-32414451D01*
X67588407Y-32389313D01*
X67597189Y-32369425D01*
X67610772Y-32355841D01*
X67625804Y-32333345D01*
X67648300Y-32318313D01*
X67661884Y-32304730D01*
X67681772Y-32295948D01*
X67706910Y-32279152D01*
X67730389Y-32274481D01*
X67747540Y-32266909D01*
X67797732Y-32261086D01*
X67802581Y-32260122D01*
X71072581Y-32260122D01*
X71077431Y-32261086D01*
G37*
G36*
X38123785Y-32063060D02*
G01*
X38304897Y-32138079D01*
X38467893Y-32246990D01*
X38606510Y-32385607D01*
X38715421Y-32548603D01*
X38790440Y-32729715D01*
X38828685Y-32921983D01*
X38828685Y-33118017D01*
X38790440Y-33310285D01*
X38715421Y-33491397D01*
X38606510Y-33654393D01*
X38467893Y-33793010D01*
X38304897Y-33901921D01*
X38123785Y-33976940D01*
X37931517Y-34015185D01*
X37735483Y-34015185D01*
X37543215Y-33976940D01*
X37362103Y-33901921D01*
X37199107Y-33793010D01*
X37060490Y-33654393D01*
X36951579Y-33491397D01*
X36876560Y-33310285D01*
X36838315Y-33118017D01*
X36838315Y-32921983D01*
X36876560Y-32729715D01*
X36951579Y-32548603D01*
X37060490Y-32385607D01*
X37199107Y-32246990D01*
X37362103Y-32138079D01*
X37543215Y-32063060D01*
X37735483Y-32024815D01*
X37931517Y-32024815D01*
X38123785Y-32063060D01*
G37*
G36*
X87849728Y-31238448D02*
G01*
X87994617Y-31298463D01*
X88125015Y-31385592D01*
X88235908Y-31496485D01*
X88323037Y-31626883D01*
X88383052Y-31771772D01*
X88413648Y-31925586D01*
X88413648Y-32082414D01*
X88383052Y-32236228D01*
X88323037Y-32381117D01*
X88235908Y-32511515D01*
X88125015Y-32622408D01*
X87994617Y-32709537D01*
X87849728Y-32769552D01*
X87695914Y-32800148D01*
X87539086Y-32800148D01*
X87385272Y-32769552D01*
X87240383Y-32709537D01*
X87109985Y-32622408D01*
X86999092Y-32511515D01*
X86911963Y-32381117D01*
X86851948Y-32236228D01*
X86821352Y-32082414D01*
X86821352Y-31925586D01*
X86851948Y-31771772D01*
X86911963Y-31626883D01*
X86999092Y-31496485D01*
X87109985Y-31385592D01*
X87240383Y-31298463D01*
X87385272Y-31238448D01*
X87539086Y-31207852D01*
X87695914Y-31207852D01*
X87849728Y-31238448D01*
G37*
G36*
X74387728Y-30349448D02*
G01*
X74532617Y-30409463D01*
X74663015Y-30496592D01*
X74773908Y-30607485D01*
X74861037Y-30737883D01*
X74921052Y-30882772D01*
X74951648Y-31036586D01*
X74951648Y-31193414D01*
X74921052Y-31347228D01*
X74861037Y-31492117D01*
X74773908Y-31622515D01*
X74663015Y-31733408D01*
X74532617Y-31820537D01*
X74387728Y-31880552D01*
X74233914Y-31911148D01*
X74077086Y-31911148D01*
X73923272Y-31880552D01*
X73778383Y-31820537D01*
X73647985Y-31733408D01*
X73537092Y-31622515D01*
X73449963Y-31492117D01*
X73389948Y-31347228D01*
X73359352Y-31193414D01*
X73359352Y-31036586D01*
X73389948Y-30882772D01*
X73449963Y-30737883D01*
X73537092Y-30607485D01*
X73647985Y-30496592D01*
X73778383Y-30409463D01*
X73923272Y-30349448D01*
X74077086Y-30318852D01*
X74233914Y-30318852D01*
X74387728Y-30349448D01*
G37*
G36*
X82007728Y-30349448D02*
G01*
X82152617Y-30409463D01*
X82283015Y-30496592D01*
X82393908Y-30607485D01*
X82481037Y-30737883D01*
X82541052Y-30882772D01*
X82571648Y-31036586D01*
X82571648Y-31193414D01*
X82541052Y-31347228D01*
X82481037Y-31492117D01*
X82393908Y-31622515D01*
X82283015Y-31733408D01*
X82152617Y-31820537D01*
X82007728Y-31880552D01*
X81853914Y-31911148D01*
X81697086Y-31911148D01*
X81543272Y-31880552D01*
X81398383Y-31820537D01*
X81267985Y-31733408D01*
X81157092Y-31622515D01*
X81069963Y-31492117D01*
X81009948Y-31347228D01*
X80979352Y-31193414D01*
X80979352Y-31036586D01*
X81009948Y-30882772D01*
X81069963Y-30737883D01*
X81157092Y-30607485D01*
X81267985Y-30496592D01*
X81398383Y-30409463D01*
X81543272Y-30349448D01*
X81697086Y-30318852D01*
X81853914Y-30318852D01*
X82007728Y-30349448D01*
G37*
G36*
X53297431Y-29721086D02*
G01*
X53347621Y-29726909D01*
X53364770Y-29734481D01*
X53388252Y-29739152D01*
X53413391Y-29755949D01*
X53433277Y-29764730D01*
X53446858Y-29778311D01*
X53469358Y-29793345D01*
X53484391Y-29815844D01*
X53497972Y-29829425D01*
X53506751Y-29849308D01*
X53523551Y-29874451D01*
X53528222Y-29897934D01*
X53535793Y-29915081D01*
X53541614Y-29965261D01*
X53542581Y-29970122D01*
X53542581Y-31270122D01*
X53541613Y-31274985D01*
X53535793Y-31325162D01*
X53528222Y-31342307D01*
X53523551Y-31365793D01*
X53506750Y-31390937D01*
X53497972Y-31410818D01*
X53484393Y-31424396D01*
X53469358Y-31446899D01*
X53446855Y-31461934D01*
X53433277Y-31475513D01*
X53413396Y-31484291D01*
X53388252Y-31501092D01*
X53364766Y-31505763D01*
X53347621Y-31513334D01*
X53297442Y-31519154D01*
X53292581Y-31520122D01*
X50022581Y-31520122D01*
X50017719Y-31519154D01*
X49967540Y-31513334D01*
X49950393Y-31505763D01*
X49926910Y-31501092D01*
X49901767Y-31484292D01*
X49881884Y-31475513D01*
X49868303Y-31461932D01*
X49845804Y-31446899D01*
X49830770Y-31424399D01*
X49817189Y-31410818D01*
X49808408Y-31390932D01*
X49791611Y-31365793D01*
X49786940Y-31342311D01*
X49779368Y-31325162D01*
X49773545Y-31274971D01*
X49772581Y-31270122D01*
X49772581Y-29970122D01*
X49773545Y-29965272D01*
X49779368Y-29915081D01*
X49786940Y-29897930D01*
X49791611Y-29874451D01*
X49808407Y-29849313D01*
X49817189Y-29829425D01*
X49830772Y-29815841D01*
X49845804Y-29793345D01*
X49868300Y-29778313D01*
X49881884Y-29764730D01*
X49901772Y-29755948D01*
X49926910Y-29739152D01*
X49950389Y-29734481D01*
X49967540Y-29726909D01*
X50017732Y-29721086D01*
X50022581Y-29720122D01*
X53292581Y-29720122D01*
X53297431Y-29721086D01*
G37*
G36*
X71077431Y-29721086D02*
G01*
X71127621Y-29726909D01*
X71144770Y-29734481D01*
X71168252Y-29739152D01*
X71193391Y-29755949D01*
X71213277Y-29764730D01*
X71226858Y-29778311D01*
X71249358Y-29793345D01*
X71264391Y-29815844D01*
X71277972Y-29829425D01*
X71286751Y-29849308D01*
X71303551Y-29874451D01*
X71308222Y-29897934D01*
X71315793Y-29915081D01*
X71321614Y-29965261D01*
X71322581Y-29970122D01*
X71322581Y-31270122D01*
X71321613Y-31274985D01*
X71315793Y-31325162D01*
X71308222Y-31342307D01*
X71303551Y-31365793D01*
X71286750Y-31390937D01*
X71277972Y-31410818D01*
X71264393Y-31424396D01*
X71249358Y-31446899D01*
X71226855Y-31461934D01*
X71213277Y-31475513D01*
X71193396Y-31484291D01*
X71168252Y-31501092D01*
X71144766Y-31505763D01*
X71127621Y-31513334D01*
X71077442Y-31519154D01*
X71072581Y-31520122D01*
X67802581Y-31520122D01*
X67797719Y-31519154D01*
X67747540Y-31513334D01*
X67730393Y-31505763D01*
X67706910Y-31501092D01*
X67681767Y-31484292D01*
X67661884Y-31475513D01*
X67648303Y-31461932D01*
X67625804Y-31446899D01*
X67610770Y-31424399D01*
X67597189Y-31410818D01*
X67588408Y-31390932D01*
X67571611Y-31365793D01*
X67566940Y-31342311D01*
X67559368Y-31325162D01*
X67553545Y-31274971D01*
X67552581Y-31270122D01*
X67552581Y-29970122D01*
X67553545Y-29965272D01*
X67559368Y-29915081D01*
X67566940Y-29897930D01*
X67571611Y-29874451D01*
X67588407Y-29849313D01*
X67597189Y-29829425D01*
X67610772Y-29815841D01*
X67625804Y-29793345D01*
X67648300Y-29778313D01*
X67661884Y-29764730D01*
X67681772Y-29755948D01*
X67706910Y-29739152D01*
X67730389Y-29734481D01*
X67747540Y-29726909D01*
X67797732Y-29721086D01*
X67802581Y-29720122D01*
X71072581Y-29720122D01*
X71077431Y-29721086D01*
G37*
G36*
X38123785Y-29523060D02*
G01*
X38304897Y-29598079D01*
X38467893Y-29706990D01*
X38606510Y-29845607D01*
X38715421Y-30008603D01*
X38790440Y-30189715D01*
X38828685Y-30381983D01*
X38828685Y-30578017D01*
X38790440Y-30770285D01*
X38715421Y-30951397D01*
X38606510Y-31114393D01*
X38467893Y-31253010D01*
X38304897Y-31361921D01*
X38123785Y-31436940D01*
X37931517Y-31475185D01*
X37735483Y-31475185D01*
X37543215Y-31436940D01*
X37362103Y-31361921D01*
X37199107Y-31253010D01*
X37060490Y-31114393D01*
X36951579Y-30951397D01*
X36876560Y-30770285D01*
X36838315Y-30578017D01*
X36838315Y-30381983D01*
X36876560Y-30189715D01*
X36951579Y-30008603D01*
X37060490Y-29845607D01*
X37199107Y-29706990D01*
X37362103Y-29598079D01*
X37543215Y-29523060D01*
X37735483Y-29484815D01*
X37931517Y-29484815D01*
X38123785Y-29523060D01*
G37*
G36*
X103993242Y-29071601D02*
G01*
X104147187Y-29135367D01*
X104285734Y-29227941D01*
X104403559Y-29345766D01*
X104496133Y-29484313D01*
X104559899Y-29638258D01*
X104592407Y-29801685D01*
X104592407Y-29968315D01*
X104559899Y-30131742D01*
X104496133Y-30285687D01*
X104403559Y-30424234D01*
X104285734Y-30542059D01*
X104147187Y-30634633D01*
X103993242Y-30698399D01*
X103829815Y-30730907D01*
X103663185Y-30730907D01*
X103499758Y-30698399D01*
X103345813Y-30634633D01*
X103207266Y-30542059D01*
X103089441Y-30424234D01*
X102996867Y-30285687D01*
X102933101Y-30131742D01*
X102900593Y-29968315D01*
X102900593Y-29801685D01*
X102933101Y-29638258D01*
X102996867Y-29484313D01*
X103089441Y-29345766D01*
X103207266Y-29227941D01*
X103345813Y-29135367D01*
X103499758Y-29071601D01*
X103663185Y-29039093D01*
X103829815Y-29039093D01*
X103993242Y-29071601D01*
G37*
G36*
X88172350Y-27704964D02*
G01*
X88222540Y-27710787D01*
X88239689Y-27718359D01*
X88263171Y-27723030D01*
X88288310Y-27739827D01*
X88308196Y-27748608D01*
X88321777Y-27762189D01*
X88344277Y-27777223D01*
X88359310Y-27799722D01*
X88372891Y-27813303D01*
X88381670Y-27833186D01*
X88398470Y-27858329D01*
X88403141Y-27881812D01*
X88410712Y-27898959D01*
X88416533Y-27949139D01*
X88417500Y-27954000D01*
X88417500Y-29054000D01*
X88416532Y-29058863D01*
X88410712Y-29109040D01*
X88403141Y-29126185D01*
X88398470Y-29149671D01*
X88381669Y-29174815D01*
X88372891Y-29194696D01*
X88359312Y-29208274D01*
X88344277Y-29230777D01*
X88321774Y-29245812D01*
X88308196Y-29259391D01*
X88288315Y-29268169D01*
X88263171Y-29284970D01*
X88239685Y-29289641D01*
X88222540Y-29297212D01*
X88172361Y-29303032D01*
X88167500Y-29304000D01*
X87067500Y-29304000D01*
X87062638Y-29303032D01*
X87012459Y-29297212D01*
X86995312Y-29289641D01*
X86971829Y-29284970D01*
X86946686Y-29268170D01*
X86926803Y-29259391D01*
X86913222Y-29245810D01*
X86890723Y-29230777D01*
X86875689Y-29208277D01*
X86862108Y-29194696D01*
X86853327Y-29174810D01*
X86836530Y-29149671D01*
X86831859Y-29126189D01*
X86824287Y-29109040D01*
X86818464Y-29058849D01*
X86817500Y-29054000D01*
X86817500Y-27954000D01*
X86818464Y-27949150D01*
X86824287Y-27898959D01*
X86831859Y-27881808D01*
X86836530Y-27858329D01*
X86853326Y-27833191D01*
X86862108Y-27813303D01*
X86875691Y-27799719D01*
X86890723Y-27777223D01*
X86913219Y-27762191D01*
X86926803Y-27748608D01*
X86946691Y-27739826D01*
X86971829Y-27723030D01*
X86995308Y-27718359D01*
X87012459Y-27710787D01*
X87062651Y-27704964D01*
X87067500Y-27704000D01*
X88167500Y-27704000D01*
X88172350Y-27704964D01*
G37*
G36*
X94533728Y-27574448D02*
G01*
X94678617Y-27634463D01*
X94809015Y-27721592D01*
X94919908Y-27832485D01*
X95007037Y-27962883D01*
X95067052Y-28107772D01*
X95097648Y-28261586D01*
X95097648Y-28418414D01*
X95067052Y-28572228D01*
X95007037Y-28717117D01*
X94919908Y-28847515D01*
X94809015Y-28958408D01*
X94678617Y-29045537D01*
X94533728Y-29105552D01*
X94379914Y-29136148D01*
X94223086Y-29136148D01*
X94069272Y-29105552D01*
X93924383Y-29045537D01*
X93793985Y-28958408D01*
X93683092Y-28847515D01*
X93595963Y-28717117D01*
X93535948Y-28572228D01*
X93505352Y-28418414D01*
X93505352Y-28261586D01*
X93535948Y-28107772D01*
X93595963Y-27962883D01*
X93683092Y-27832485D01*
X93793985Y-27721592D01*
X93924383Y-27634463D01*
X94069272Y-27574448D01*
X94223086Y-27543852D01*
X94379914Y-27543852D01*
X94533728Y-27574448D01*
G37*
G36*
X99533728Y-27574448D02*
G01*
X99678617Y-27634463D01*
X99809015Y-27721592D01*
X99919908Y-27832485D01*
X100007037Y-27962883D01*
X100067052Y-28107772D01*
X100097648Y-28261586D01*
X100097648Y-28418414D01*
X100067052Y-28572228D01*
X100007037Y-28717117D01*
X99919908Y-28847515D01*
X99809015Y-28958408D01*
X99678617Y-29045537D01*
X99533728Y-29105552D01*
X99379914Y-29136148D01*
X99223086Y-29136148D01*
X99069272Y-29105552D01*
X98924383Y-29045537D01*
X98793985Y-28958408D01*
X98683092Y-28847515D01*
X98595963Y-28717117D01*
X98535948Y-28572228D01*
X98505352Y-28418414D01*
X98505352Y-28261586D01*
X98535948Y-28107772D01*
X98595963Y-27962883D01*
X98683092Y-27832485D01*
X98793985Y-27721592D01*
X98924383Y-27634463D01*
X99069272Y-27574448D01*
X99223086Y-27543852D01*
X99379914Y-27543852D01*
X99533728Y-27574448D01*
G37*
G36*
X53297431Y-27181086D02*
G01*
X53347621Y-27186909D01*
X53364770Y-27194481D01*
X53388252Y-27199152D01*
X53413391Y-27215949D01*
X53433277Y-27224730D01*
X53446858Y-27238311D01*
X53469358Y-27253345D01*
X53484391Y-27275844D01*
X53497972Y-27289425D01*
X53506751Y-27309308D01*
X53523551Y-27334451D01*
X53528222Y-27357934D01*
X53535793Y-27375081D01*
X53541614Y-27425261D01*
X53542581Y-27430122D01*
X53542581Y-28730122D01*
X53541613Y-28734985D01*
X53535793Y-28785162D01*
X53528222Y-28802307D01*
X53523551Y-28825793D01*
X53506750Y-28850937D01*
X53497972Y-28870818D01*
X53484393Y-28884396D01*
X53469358Y-28906899D01*
X53446855Y-28921934D01*
X53433277Y-28935513D01*
X53413396Y-28944291D01*
X53388252Y-28961092D01*
X53364766Y-28965763D01*
X53347621Y-28973334D01*
X53297442Y-28979154D01*
X53292581Y-28980122D01*
X50022581Y-28980122D01*
X50017719Y-28979154D01*
X49967540Y-28973334D01*
X49950393Y-28965763D01*
X49926910Y-28961092D01*
X49901767Y-28944292D01*
X49881884Y-28935513D01*
X49868303Y-28921932D01*
X49845804Y-28906899D01*
X49830770Y-28884399D01*
X49817189Y-28870818D01*
X49808408Y-28850932D01*
X49791611Y-28825793D01*
X49786940Y-28802311D01*
X49779368Y-28785162D01*
X49773545Y-28734971D01*
X49772581Y-28730122D01*
X49772581Y-27430122D01*
X49773545Y-27425272D01*
X49779368Y-27375081D01*
X49786940Y-27357930D01*
X49791611Y-27334451D01*
X49808407Y-27309313D01*
X49817189Y-27289425D01*
X49830772Y-27275841D01*
X49845804Y-27253345D01*
X49868300Y-27238313D01*
X49881884Y-27224730D01*
X49901772Y-27215948D01*
X49926910Y-27199152D01*
X49950389Y-27194481D01*
X49967540Y-27186909D01*
X50017732Y-27181086D01*
X50022581Y-27180122D01*
X53292581Y-27180122D01*
X53297431Y-27181086D01*
G37*
G36*
X71077431Y-27181086D02*
G01*
X71127621Y-27186909D01*
X71144770Y-27194481D01*
X71168252Y-27199152D01*
X71193391Y-27215949D01*
X71213277Y-27224730D01*
X71226858Y-27238311D01*
X71249358Y-27253345D01*
X71264391Y-27275844D01*
X71277972Y-27289425D01*
X71286751Y-27309308D01*
X71303551Y-27334451D01*
X71308222Y-27357934D01*
X71315793Y-27375081D01*
X71321614Y-27425261D01*
X71322581Y-27430122D01*
X71322581Y-28730122D01*
X71321613Y-28734985D01*
X71315793Y-28785162D01*
X71308222Y-28802307D01*
X71303551Y-28825793D01*
X71286750Y-28850937D01*
X71277972Y-28870818D01*
X71264393Y-28884396D01*
X71249358Y-28906899D01*
X71226855Y-28921934D01*
X71213277Y-28935513D01*
X71193396Y-28944291D01*
X71168252Y-28961092D01*
X71144766Y-28965763D01*
X71127621Y-28973334D01*
X71077442Y-28979154D01*
X71072581Y-28980122D01*
X67802581Y-28980122D01*
X67797719Y-28979154D01*
X67747540Y-28973334D01*
X67730393Y-28965763D01*
X67706910Y-28961092D01*
X67681767Y-28944292D01*
X67661884Y-28935513D01*
X67648303Y-28921932D01*
X67625804Y-28906899D01*
X67610770Y-28884399D01*
X67597189Y-28870818D01*
X67588408Y-28850932D01*
X67571611Y-28825793D01*
X67566940Y-28802311D01*
X67559368Y-28785162D01*
X67553545Y-28734971D01*
X67552581Y-28730122D01*
X67552581Y-27430122D01*
X67553545Y-27425272D01*
X67559368Y-27375081D01*
X67566940Y-27357930D01*
X67571611Y-27334451D01*
X67588407Y-27309313D01*
X67597189Y-27289425D01*
X67610772Y-27275841D01*
X67625804Y-27253345D01*
X67648300Y-27238313D01*
X67661884Y-27224730D01*
X67681772Y-27215948D01*
X67706910Y-27199152D01*
X67730389Y-27194481D01*
X67747540Y-27186909D01*
X67797732Y-27181086D01*
X67802581Y-27180122D01*
X71072581Y-27180122D01*
X71077431Y-27181086D01*
G37*
G36*
X38123785Y-26983060D02*
G01*
X38304897Y-27058079D01*
X38467893Y-27166990D01*
X38606510Y-27305607D01*
X38715421Y-27468603D01*
X38790440Y-27649715D01*
X38828685Y-27841983D01*
X38828685Y-28038017D01*
X38790440Y-28230285D01*
X38715421Y-28411397D01*
X38606510Y-28574393D01*
X38467893Y-28713010D01*
X38304897Y-28821921D01*
X38123785Y-28896940D01*
X37931517Y-28935185D01*
X37735483Y-28935185D01*
X37543215Y-28896940D01*
X37362103Y-28821921D01*
X37199107Y-28713010D01*
X37060490Y-28574393D01*
X36951579Y-28411397D01*
X36876560Y-28230285D01*
X36838315Y-28038017D01*
X36838315Y-27841983D01*
X36876560Y-27649715D01*
X36951579Y-27468603D01*
X37060490Y-27305607D01*
X37199107Y-27166990D01*
X37362103Y-27058079D01*
X37543215Y-26983060D01*
X37735483Y-26944815D01*
X37931517Y-26944815D01*
X38123785Y-26983060D01*
G37*
G36*
X74387728Y-27301448D02*
G01*
X74532617Y-27361463D01*
X74663015Y-27448592D01*
X74773908Y-27559485D01*
X74861037Y-27689883D01*
X74921052Y-27834772D01*
X74951648Y-27988586D01*
X74951648Y-28145414D01*
X74921052Y-28299228D01*
X74861037Y-28444117D01*
X74773908Y-28574515D01*
X74663015Y-28685408D01*
X74532617Y-28772537D01*
X74387728Y-28832552D01*
X74233914Y-28863148D01*
X74077086Y-28863148D01*
X73923272Y-28832552D01*
X73778383Y-28772537D01*
X73647985Y-28685408D01*
X73537092Y-28574515D01*
X73449963Y-28444117D01*
X73389948Y-28299228D01*
X73359352Y-28145414D01*
X73359352Y-27988586D01*
X73389948Y-27834772D01*
X73449963Y-27689883D01*
X73537092Y-27559485D01*
X73647985Y-27448592D01*
X73778383Y-27361463D01*
X73923272Y-27301448D01*
X74077086Y-27270852D01*
X74233914Y-27270852D01*
X74387728Y-27301448D01*
G37*
G36*
X82007728Y-27301448D02*
G01*
X82152617Y-27361463D01*
X82283015Y-27448592D01*
X82393908Y-27559485D01*
X82481037Y-27689883D01*
X82541052Y-27834772D01*
X82571648Y-27988586D01*
X82571648Y-28145414D01*
X82541052Y-28299228D01*
X82481037Y-28444117D01*
X82393908Y-28574515D01*
X82283015Y-28685408D01*
X82152617Y-28772537D01*
X82007728Y-28832552D01*
X81853914Y-28863148D01*
X81697086Y-28863148D01*
X81543272Y-28832552D01*
X81398383Y-28772537D01*
X81267985Y-28685408D01*
X81157092Y-28574515D01*
X81069963Y-28444117D01*
X81009948Y-28299228D01*
X80979352Y-28145414D01*
X80979352Y-27988586D01*
X81009948Y-27834772D01*
X81069963Y-27689883D01*
X81157092Y-27559485D01*
X81267985Y-27448592D01*
X81398383Y-27361463D01*
X81543272Y-27301448D01*
X81697086Y-27270852D01*
X81853914Y-27270852D01*
X82007728Y-27301448D01*
G37*
G36*
X28508681Y-24328429D02*
G01*
X28761379Y-24396140D01*
X29003077Y-24496255D01*
X29229640Y-24627061D01*
X29437192Y-24786320D01*
X29622180Y-24971308D01*
X29781439Y-25178860D01*
X29912245Y-25405423D01*
X30012360Y-25647121D01*
X30080071Y-25899819D01*
X30114218Y-26159194D01*
X30114218Y-26420806D01*
X30080071Y-26680181D01*
X30012360Y-26932879D01*
X29912245Y-27174577D01*
X29781439Y-27401140D01*
X29622180Y-27608692D01*
X29437192Y-27793680D01*
X29229640Y-27952939D01*
X29003077Y-28083745D01*
X28761379Y-28183860D01*
X28508681Y-28251571D01*
X28249306Y-28285718D01*
X27987694Y-28285718D01*
X27728319Y-28251571D01*
X27475621Y-28183860D01*
X27233923Y-28083745D01*
X27007360Y-27952939D01*
X26799808Y-27793680D01*
X26614820Y-27608692D01*
X26455561Y-27401140D01*
X26324755Y-27174577D01*
X26224640Y-26932879D01*
X26156929Y-26680181D01*
X26122782Y-26420806D01*
X26122782Y-26159194D01*
X26156929Y-25899819D01*
X26224640Y-25647121D01*
X26324755Y-25405423D01*
X26455561Y-25178860D01*
X26614820Y-24971308D01*
X26799808Y-24786320D01*
X27007360Y-24627061D01*
X27233923Y-24496255D01*
X27475621Y-24396140D01*
X27728319Y-24328429D01*
X27987694Y-24294282D01*
X28249306Y-24294282D01*
X28508681Y-24328429D01*
G37*
G36*
X103993242Y-26531601D02*
G01*
X104147187Y-26595367D01*
X104285734Y-26687941D01*
X104403559Y-26805766D01*
X104496133Y-26944313D01*
X104559899Y-27098258D01*
X104592407Y-27261685D01*
X104592407Y-27428315D01*
X104559899Y-27591742D01*
X104496133Y-27745687D01*
X104403559Y-27884234D01*
X104285734Y-28002059D01*
X104147187Y-28094633D01*
X103993242Y-28158399D01*
X103829815Y-28190907D01*
X103663185Y-28190907D01*
X103499758Y-28158399D01*
X103345813Y-28094633D01*
X103207266Y-28002059D01*
X103089441Y-27884234D01*
X102996867Y-27745687D01*
X102933101Y-27591742D01*
X102900593Y-27428315D01*
X102900593Y-27261685D01*
X102933101Y-27098258D01*
X102996867Y-26944313D01*
X103089441Y-26805766D01*
X103207266Y-26687941D01*
X103345813Y-26595367D01*
X103499758Y-26531601D01*
X103663185Y-26499093D01*
X103829815Y-26499093D01*
X103993242Y-26531601D01*
G37*
G36*
X44574350Y-25035964D02*
G01*
X44624540Y-25041787D01*
X44641689Y-25049359D01*
X44665171Y-25054030D01*
X44690310Y-25070827D01*
X44710196Y-25079608D01*
X44723777Y-25093189D01*
X44746277Y-25108223D01*
X44761310Y-25130722D01*
X44774891Y-25144303D01*
X44783670Y-25164186D01*
X44800470Y-25189329D01*
X44805141Y-25212812D01*
X44812712Y-25229959D01*
X44818533Y-25280139D01*
X44819500Y-25285000D01*
X44819500Y-26785000D01*
X44818532Y-26789863D01*
X44812712Y-26840040D01*
X44805141Y-26857185D01*
X44800470Y-26880671D01*
X44783669Y-26905815D01*
X44774891Y-26925696D01*
X44761312Y-26939274D01*
X44746277Y-26961777D01*
X44723774Y-26976812D01*
X44710196Y-26990391D01*
X44690315Y-26999169D01*
X44665171Y-27015970D01*
X44641685Y-27020641D01*
X44624540Y-27028212D01*
X44574361Y-27034032D01*
X44569500Y-27035000D01*
X43369500Y-27035000D01*
X43364638Y-27034032D01*
X43314459Y-27028212D01*
X43297312Y-27020641D01*
X43273829Y-27015970D01*
X43248686Y-26999170D01*
X43228803Y-26990391D01*
X43215222Y-26976810D01*
X43192723Y-26961777D01*
X43177689Y-26939277D01*
X43164108Y-26925696D01*
X43155327Y-26905810D01*
X43138530Y-26880671D01*
X43133859Y-26857189D01*
X43126287Y-26840040D01*
X43120464Y-26789849D01*
X43119500Y-26785000D01*
X43119500Y-25285000D01*
X43120464Y-25280150D01*
X43126287Y-25229959D01*
X43133859Y-25212808D01*
X43138530Y-25189329D01*
X43155326Y-25164191D01*
X43164108Y-25144303D01*
X43177691Y-25130719D01*
X43192723Y-25108223D01*
X43215219Y-25093191D01*
X43228803Y-25079608D01*
X43248691Y-25070826D01*
X43273829Y-25054030D01*
X43297308Y-25049359D01*
X43314459Y-25041787D01*
X43364651Y-25035964D01*
X43369500Y-25035000D01*
X44569500Y-25035000D01*
X44574350Y-25035964D01*
G37*
G36*
X46716242Y-25071601D02*
G01*
X46870187Y-25135367D01*
X47008734Y-25227941D01*
X47126559Y-25345766D01*
X47219133Y-25484313D01*
X47282899Y-25638258D01*
X47315407Y-25801685D01*
X47319500Y-25885000D01*
X47319500Y-26185000D01*
X47315407Y-26268315D01*
X47282899Y-26431742D01*
X47219133Y-26585687D01*
X47126559Y-26724234D01*
X47008734Y-26842059D01*
X46870187Y-26934633D01*
X46716242Y-26998399D01*
X46552815Y-27030907D01*
X46386185Y-27030907D01*
X46222758Y-26998399D01*
X46068813Y-26934633D01*
X45930266Y-26842059D01*
X45812441Y-26724234D01*
X45719867Y-26585687D01*
X45656101Y-26431742D01*
X45623593Y-26268315D01*
X45619500Y-26185000D01*
X45619500Y-25885000D01*
X45623593Y-25801685D01*
X45656101Y-25638258D01*
X45719867Y-25484313D01*
X45812441Y-25345766D01*
X45930266Y-25227941D01*
X46068813Y-25135367D01*
X46222758Y-25071601D01*
X46386185Y-25039093D01*
X46552815Y-25039093D01*
X46716242Y-25071601D01*
G37*
G36*
X53297431Y-24641086D02*
G01*
X53347621Y-24646909D01*
X53364770Y-24654481D01*
X53388252Y-24659152D01*
X53413391Y-24675949D01*
X53433277Y-24684730D01*
X53446858Y-24698311D01*
X53469358Y-24713345D01*
X53484391Y-24735844D01*
X53497972Y-24749425D01*
X53506751Y-24769308D01*
X53523551Y-24794451D01*
X53528222Y-24817934D01*
X53535793Y-24835081D01*
X53541614Y-24885261D01*
X53542581Y-24890122D01*
X53542581Y-26190122D01*
X53541613Y-26194985D01*
X53535793Y-26245162D01*
X53528222Y-26262307D01*
X53523551Y-26285793D01*
X53506750Y-26310937D01*
X53497972Y-26330818D01*
X53484393Y-26344396D01*
X53469358Y-26366899D01*
X53446855Y-26381934D01*
X53433277Y-26395513D01*
X53413396Y-26404291D01*
X53388252Y-26421092D01*
X53364766Y-26425763D01*
X53347621Y-26433334D01*
X53297442Y-26439154D01*
X53292581Y-26440122D01*
X50022581Y-26440122D01*
X50017719Y-26439154D01*
X49967540Y-26433334D01*
X49950393Y-26425763D01*
X49926910Y-26421092D01*
X49901767Y-26404292D01*
X49881884Y-26395513D01*
X49868303Y-26381932D01*
X49845804Y-26366899D01*
X49830770Y-26344399D01*
X49817189Y-26330818D01*
X49808408Y-26310932D01*
X49791611Y-26285793D01*
X49786940Y-26262311D01*
X49779368Y-26245162D01*
X49773545Y-26194971D01*
X49772581Y-26190122D01*
X49772581Y-24890122D01*
X49773545Y-24885272D01*
X49779368Y-24835081D01*
X49786940Y-24817930D01*
X49791611Y-24794451D01*
X49808407Y-24769313D01*
X49817189Y-24749425D01*
X49830772Y-24735841D01*
X49845804Y-24713345D01*
X49868300Y-24698313D01*
X49881884Y-24684730D01*
X49901772Y-24675948D01*
X49926910Y-24659152D01*
X49950389Y-24654481D01*
X49967540Y-24646909D01*
X50017732Y-24641086D01*
X50022581Y-24640122D01*
X53292581Y-24640122D01*
X53297431Y-24641086D01*
G37*
G36*
X71077431Y-24641086D02*
G01*
X71127621Y-24646909D01*
X71144770Y-24654481D01*
X71168252Y-24659152D01*
X71193391Y-24675949D01*
X71213277Y-24684730D01*
X71226858Y-24698311D01*
X71249358Y-24713345D01*
X71264391Y-24735844D01*
X71277972Y-24749425D01*
X71286751Y-24769308D01*
X71303551Y-24794451D01*
X71308222Y-24817934D01*
X71315793Y-24835081D01*
X71321614Y-24885261D01*
X71322581Y-24890122D01*
X71322581Y-26190122D01*
X71321613Y-26194985D01*
X71315793Y-26245162D01*
X71308222Y-26262307D01*
X71303551Y-26285793D01*
X71286750Y-26310937D01*
X71277972Y-26330818D01*
X71264393Y-26344396D01*
X71249358Y-26366899D01*
X71226855Y-26381934D01*
X71213277Y-26395513D01*
X71193396Y-26404291D01*
X71168252Y-26421092D01*
X71144766Y-26425763D01*
X71127621Y-26433334D01*
X71077442Y-26439154D01*
X71072581Y-26440122D01*
X67802581Y-26440122D01*
X67797719Y-26439154D01*
X67747540Y-26433334D01*
X67730393Y-26425763D01*
X67706910Y-26421092D01*
X67681767Y-26404292D01*
X67661884Y-26395513D01*
X67648303Y-26381932D01*
X67625804Y-26366899D01*
X67610770Y-26344399D01*
X67597189Y-26330818D01*
X67588408Y-26310932D01*
X67571611Y-26285793D01*
X67566940Y-26262311D01*
X67559368Y-26245162D01*
X67553545Y-26194971D01*
X67552581Y-26190122D01*
X67552581Y-24890122D01*
X67553545Y-24885272D01*
X67559368Y-24835081D01*
X67566940Y-24817930D01*
X67571611Y-24794451D01*
X67588407Y-24769313D01*
X67597189Y-24749425D01*
X67610772Y-24735841D01*
X67625804Y-24713345D01*
X67648300Y-24698313D01*
X67661884Y-24684730D01*
X67681772Y-24675948D01*
X67706910Y-24659152D01*
X67730389Y-24654481D01*
X67747540Y-24646909D01*
X67797732Y-24641086D01*
X67802581Y-24640122D01*
X71072581Y-24640122D01*
X71077431Y-24641086D01*
G37*
G36*
X38123785Y-24443060D02*
G01*
X38304897Y-24518079D01*
X38467893Y-24626990D01*
X38606510Y-24765607D01*
X38715421Y-24928603D01*
X38790440Y-25109715D01*
X38828685Y-25301983D01*
X38828685Y-25498017D01*
X38790440Y-25690285D01*
X38715421Y-25871397D01*
X38606510Y-26034393D01*
X38467893Y-26173010D01*
X38304897Y-26281921D01*
X38123785Y-26356940D01*
X37931517Y-26395185D01*
X37735483Y-26395185D01*
X37543215Y-26356940D01*
X37362103Y-26281921D01*
X37199107Y-26173010D01*
X37060490Y-26034393D01*
X36951579Y-25871397D01*
X36876560Y-25690285D01*
X36838315Y-25498017D01*
X36838315Y-25301983D01*
X36876560Y-25109715D01*
X36951579Y-24928603D01*
X37060490Y-24765607D01*
X37199107Y-24626990D01*
X37362103Y-24518079D01*
X37543215Y-24443060D01*
X37735483Y-24404815D01*
X37931517Y-24404815D01*
X38123785Y-24443060D01*
G37*
G36*
X91913728Y-24126448D02*
G01*
X92058617Y-24186463D01*
X92189015Y-24273592D01*
X92299908Y-24384485D01*
X92387037Y-24514883D01*
X92447052Y-24659772D01*
X92477648Y-24813586D01*
X92477648Y-24970414D01*
X92447052Y-25124228D01*
X92387037Y-25269117D01*
X92299908Y-25399515D01*
X92189015Y-25510408D01*
X92058617Y-25597537D01*
X91913728Y-25657552D01*
X91759914Y-25688148D01*
X91603086Y-25688148D01*
X91449272Y-25657552D01*
X91304383Y-25597537D01*
X91173985Y-25510408D01*
X91063092Y-25399515D01*
X90975963Y-25269117D01*
X90915948Y-25124228D01*
X90885352Y-24970414D01*
X90885352Y-24813586D01*
X90915948Y-24659772D01*
X90975963Y-24514883D01*
X91063092Y-24384485D01*
X91173985Y-24273592D01*
X91304383Y-24186463D01*
X91449272Y-24126448D01*
X91603086Y-24095852D01*
X91759914Y-24095852D01*
X91913728Y-24126448D01*
G37*
G36*
X99533728Y-24126448D02*
G01*
X99678617Y-24186463D01*
X99809015Y-24273592D01*
X99919908Y-24384485D01*
X100007037Y-24514883D01*
X100067052Y-24659772D01*
X100097648Y-24813586D01*
X100097648Y-24970414D01*
X100067052Y-25124228D01*
X100007037Y-25269117D01*
X99919908Y-25399515D01*
X99809015Y-25510408D01*
X99678617Y-25597537D01*
X99533728Y-25657552D01*
X99379914Y-25688148D01*
X99223086Y-25688148D01*
X99069272Y-25657552D01*
X98924383Y-25597537D01*
X98793985Y-25510408D01*
X98683092Y-25399515D01*
X98595963Y-25269117D01*
X98535948Y-25124228D01*
X98505352Y-24970414D01*
X98505352Y-24813586D01*
X98535948Y-24659772D01*
X98595963Y-24514883D01*
X98683092Y-24384485D01*
X98793985Y-24273592D01*
X98924383Y-24186463D01*
X99069272Y-24126448D01*
X99223086Y-24095852D01*
X99379914Y-24095852D01*
X99533728Y-24126448D01*
G37*
G36*
X104596500Y-25655000D02*
G01*
X102896500Y-25655000D01*
X102896500Y-23955000D01*
X104596500Y-23955000D01*
X104596500Y-25655000D01*
G37*
%LPD*%
M02*
