%TF.GenerationSoftware,KiCad,Pcbnew,9.0.6*%
%TF.CreationDate,2025-11-21T15:00:40-08:00*%
%TF.ProjectId,schematic,73636865-6d61-4746-9963-2e6b69636164,rev?*%
%TF.SameCoordinates,Original*%
%TF.FileFunction,Copper,L4,Bot*%
%TF.FilePolarity,Positive*%
%FSLAX46Y46*%
G04 Gerber Fmt 4.6, Leading zero omitted, Abs format (unit mm)*
G04 Created by KiCad (PCBNEW 9.0.6) date 2025-11-21 15:00:40*
%MOMM*%
%LPD*%
G01*
G04 APERTURE LIST*
G04 Aperture macros list*
%AMRoundRect*
0 Rectangle with rounded corners*
0 $1 Rounding radius*
0 $2 $3 $4 $5 $6 $7 $8 $9 X,Y pos of 4 corners*
0 Add a 4 corners polygon primitive as box body*
4,1,4,$2,$3,$4,$5,$6,$7,$8,$9,$2,$3,0*
0 Add four circle primitives for the rounded corners*
1,1,$1+$1,$2,$3*
1,1,$1+$1,$4,$5*
1,1,$1+$1,$6,$7*
1,1,$1+$1,$8,$9*
0 Add four rect primitives between the rounded corners*
20,1,$1+$1,$2,$3,$4,$5,0*
20,1,$1+$1,$4,$5,$6,$7,0*
20,1,$1+$1,$6,$7,$8,$9,0*
20,1,$1+$1,$8,$9,$2,$3,0*%
G04 Aperture macros list end*
%TA.AperFunction,ComponentPad*%
%ADD10C,1.600000*%
%TD*%
%TA.AperFunction,ComponentPad*%
%ADD11RoundRect,0.250000X-0.600000X-0.750000X0.600000X-0.750000X0.600000X0.750000X-0.600000X0.750000X0*%
%TD*%
%TA.AperFunction,ComponentPad*%
%ADD12O,1.700000X2.000000*%
%TD*%
%TA.AperFunction,ComponentPad*%
%ADD13RoundRect,0.250000X-0.550000X0.550000X-0.550000X-0.550000X0.550000X-0.550000X0.550000X0.550000X0*%
%TD*%
%TA.AperFunction,ComponentPad*%
%ADD14C,2.000000*%
%TD*%
%TA.AperFunction,ComponentPad*%
%ADD15R,1.700000X1.700000*%
%TD*%
%TA.AperFunction,ComponentPad*%
%ADD16C,1.700000*%
%TD*%
%TA.AperFunction,ComponentPad*%
%ADD17R,1.050000X1.500000*%
%TD*%
%TA.AperFunction,ComponentPad*%
%ADD18O,1.050000X1.500000*%
%TD*%
%TA.AperFunction,ComponentPad*%
%ADD19RoundRect,0.250000X-0.725000X0.600000X-0.725000X-0.600000X0.725000X-0.600000X0.725000X0.600000X0*%
%TD*%
%TA.AperFunction,ComponentPad*%
%ADD20O,1.950000X1.700000*%
%TD*%
%TA.AperFunction,ComponentPad*%
%ADD21RoundRect,0.250000X0.550000X0.550000X-0.550000X0.550000X-0.550000X-0.550000X0.550000X-0.550000X0*%
%TD*%
%TA.AperFunction,ViaPad*%
%ADD22C,0.600000*%
%TD*%
%TA.AperFunction,Conductor*%
%ADD23C,0.600000*%
%TD*%
%TA.AperFunction,Conductor*%
%ADD24C,0.400000*%
%TD*%
G04 APERTURE END LIST*
D10*
%TO.P,C5,1*%
%TO.N,Net-(U2-VCC)*%
X109500000Y-44750000D03*
%TO.P,C5,2*%
%TO.N,GND*%
X104500000Y-44750000D03*
%TD*%
%TO.P,C2,1*%
%TO.N,+5V*%
X60198000Y-52832000D03*
%TO.P,C2,2*%
%TO.N,GND*%
X55198000Y-52832000D03*
%TD*%
%TO.P,C4,1*%
%TO.N,GND*%
X111252000Y-38500000D03*
%TO.P,C4,2*%
%TO.N,+5VD*%
X106252000Y-38500000D03*
%TD*%
D11*
%TO.P,J2,1,Pin_1*%
%TO.N,Net-(J2-Pin_1)*%
X55920000Y-36195000D03*
D12*
%TO.P,J2,2,Pin_2*%
%TO.N,+5V*%
X58420000Y-36195000D03*
%TD*%
D10*
%TO.P,R4,1*%
%TO.N,Net-(Q2-B)*%
X93726000Y-44450000D03*
%TO.P,R4,2*%
%TO.N,GND*%
X86106000Y-44450000D03*
%TD*%
%TO.P,R5,1*%
%TO.N,D+*%
X86106000Y-38227000D03*
%TO.P,R5,2*%
%TO.N,+3.3V*%
X93726000Y-38227000D03*
%TD*%
%TO.P,R1,1*%
%TO.N,+5V*%
X86106000Y-47625000D03*
%TO.P,R1,2*%
%TO.N,Net-(Q1-G)*%
X93726000Y-47625000D03*
%TD*%
D13*
%TO.P,C3,1*%
%TO.N,+5VD*%
X99568000Y-38664000D03*
D10*
%TO.P,C3,2*%
%TO.N,GND*%
X99568000Y-42164000D03*
%TD*%
D14*
%TO.P,J1,A1,GND*%
%TO.N,GND*%
X49784000Y-35560000D03*
%TO.P,J1,A4,VBUS*%
%TO.N,Net-(J2-Pin_1)*%
X49784000Y-38100000D03*
%TO.P,J1,A5,CC1*%
%TO.N,CC1*%
X49784000Y-43180000D03*
%TO.P,J1,A6,D+*%
%TO.N,D+*%
X49784000Y-48260000D03*
%TO.P,J1,A7,D-*%
%TO.N,Net-(J1-D--PadA7)*%
X49784000Y-45720000D03*
%TO.P,J1,A8,SBU1*%
%TO.N,unconnected-(J1-SBU1-PadA8)*%
X49784000Y-50800000D03*
%TO.P,J1,B5,CC2*%
%TO.N,CC2*%
X49784000Y-53340000D03*
%TO.P,J1,B8,SBU2*%
%TO.N,unconnected-(J1-SBU2-PadB8)*%
X49784000Y-40640000D03*
%TD*%
D15*
%TO.P,U5,1,GND*%
%TO.N,GND*%
X115697000Y-34965000D03*
D16*
%TO.P,U5,2,DIN*%
%TO.N,Net-(U5-DIN)*%
X115697000Y-37505000D03*
%TO.P,U5,3,VDD*%
%TO.N,+5VD*%
X115697000Y-40045000D03*
%TD*%
D17*
%TO.P,Q2,1,E*%
%TO.N,GND*%
X92752813Y-52176000D03*
D18*
%TO.P,Q2,2,B*%
%TO.N,Net-(Q2-B)*%
X94022813Y-52176000D03*
%TO.P,Q2,3,C*%
%TO.N,Net-(Q1-G)*%
X95292813Y-52176000D03*
%TD*%
D15*
%TO.P,U6,1,ADJ*%
%TO.N,GND*%
X107950000Y-48768000D03*
D16*
%TO.P,U6,2,VO*%
%TO.N,Net-(U2-VCC)*%
X107950000Y-51308000D03*
%TO.P,U6,3,VI*%
%TO.N,+5V*%
X107950000Y-53848000D03*
%TD*%
D10*
%TO.P,R3,1*%
%TO.N,LED SW*%
X86106000Y-41275000D03*
%TO.P,R3,2*%
%TO.N,Net-(Q2-B)*%
X93726000Y-41275000D03*
%TD*%
%TO.P,R2,1*%
%TO.N,LED D*%
X103632000Y-35052000D03*
%TO.P,R2,2*%
%TO.N,Net-(U5-DIN)*%
X111252000Y-35052000D03*
%TD*%
D19*
%TO.P,U2,1,VCC*%
%TO.N,Net-(U2-VCC)*%
X114750000Y-48000000D03*
D20*
%TO.P,U2,2,GND*%
%TO.N,GND*%
X114750000Y-50500000D03*
%TO.P,U2,3,OUT*%
%TO.N,MIC*%
X114750000Y-53000000D03*
%TD*%
D21*
%TO.P,C1,1*%
%TO.N,+5V*%
X58928000Y-46736000D03*
D10*
%TO.P,C1,2*%
%TO.N,GND*%
X56928000Y-46736000D03*
%TD*%
D22*
%TO.N,+5V*%
X75946000Y-51562000D03*
%TO.N,+3.3V*%
X73660000Y-39116000D03*
%TO.N,MIC*%
X69088000Y-36576000D03*
X98044000Y-52832000D03*
%TO.N,D+*%
X52324000Y-41148000D03*
X73660000Y-38100000D03*
X52324000Y-48260000D03*
%TO.N,CC2*%
X60452000Y-50292000D03*
X60452000Y-43180000D03*
%TO.N,Net-(Q2-B)*%
X96520000Y-46736000D03*
%TO.N,LED D*%
X84328000Y-50800000D03*
X87884000Y-41148000D03*
%TD*%
D23*
%TO.N,+5V*%
X58420000Y-36195000D02*
X58420000Y-47276000D01*
X58388000Y-51022000D02*
X60198000Y-52832000D01*
X58928000Y-46736000D02*
X58388000Y-47276000D01*
X75946000Y-51562000D02*
X79883000Y-47625000D01*
X58388000Y-47276000D02*
X58388000Y-51022000D01*
X79883000Y-47625000D02*
X86106000Y-47625000D01*
D24*
%TO.N,+3.3V*%
X73660000Y-39116000D02*
X74168000Y-39624000D01*
X74168000Y-39624000D02*
X92329000Y-39624000D01*
X92329000Y-39624000D02*
X93726000Y-38227000D01*
%TO.N,MIC*%
X98044000Y-52832000D02*
X97536000Y-53340000D01*
X97536000Y-53340000D02*
X75692000Y-53340000D01*
X75692000Y-53340000D02*
X70104000Y-53340000D01*
X69088000Y-52324000D02*
X69088000Y-36576000D01*
X70104000Y-53340000D02*
X69088000Y-52324000D01*
%TO.N,D+*%
X51393000Y-47329000D02*
X51393000Y-42079000D01*
X73787000Y-38227000D02*
X86106000Y-38227000D01*
X73660000Y-38100000D02*
X73787000Y-38227000D01*
X51393000Y-42079000D02*
X52324000Y-41148000D01*
X52324000Y-48260000D02*
X51393000Y-47329000D01*
%TO.N,CC2*%
X60452000Y-50292000D02*
X60452000Y-43180000D01*
%TO.N,Net-(Q2-B)*%
X96520000Y-48514000D02*
X94022813Y-50503187D01*
X94022813Y-50503187D02*
X94022813Y-52176000D01*
X96520000Y-46736000D02*
X96520000Y-48514000D01*
%TO.N,LED D*%
X88392000Y-41656000D02*
X87884000Y-41148000D01*
X86868000Y-50800000D02*
X88392000Y-49276000D01*
X84328000Y-50800000D02*
X86868000Y-50800000D01*
X88392000Y-48768000D02*
X88392000Y-41656000D01*
X88392000Y-49276000D02*
X88392000Y-48768000D01*
%TD*%
%TA.AperFunction,Conductor*%
%TO.N,GND*%
G36*
X103479598Y-33540185D02*
G01*
X103525353Y-33592989D01*
X103535297Y-33662147D01*
X103506272Y-33725703D01*
X103447494Y-33763477D01*
X103431957Y-33766973D01*
X103327465Y-33783522D01*
X103132776Y-33846781D01*
X102950386Y-33939715D01*
X102784786Y-34060028D01*
X102640028Y-34204786D01*
X102519715Y-34370386D01*
X102426781Y-34552776D01*
X102363522Y-34747465D01*
X102340955Y-34889951D01*
X102331500Y-34949648D01*
X102331500Y-35154352D01*
X102333220Y-35165213D01*
X102363522Y-35356534D01*
X102426781Y-35551223D01*
X102467495Y-35631127D01*
X102517240Y-35728757D01*
X102519715Y-35733613D01*
X102640028Y-35899213D01*
X102784786Y-36043971D01*
X102911183Y-36135802D01*
X102950390Y-36164287D01*
X103066607Y-36223503D01*
X103132776Y-36257218D01*
X103132778Y-36257218D01*
X103132781Y-36257220D01*
X103180190Y-36272624D01*
X103327465Y-36320477D01*
X103428557Y-36336488D01*
X103529648Y-36352500D01*
X103529649Y-36352500D01*
X103734351Y-36352500D01*
X103734352Y-36352500D01*
X103936534Y-36320477D01*
X104131219Y-36257220D01*
X104313610Y-36164287D01*
X104406590Y-36096732D01*
X104479213Y-36043971D01*
X104479215Y-36043968D01*
X104479219Y-36043966D01*
X104623966Y-35899219D01*
X104623968Y-35899215D01*
X104623971Y-35899213D01*
X104713852Y-35775500D01*
X104744287Y-35733610D01*
X104837220Y-35551219D01*
X104900477Y-35356534D01*
X104932500Y-35154352D01*
X104932500Y-34949648D01*
X104923045Y-34889951D01*
X104900477Y-34747465D01*
X104837218Y-34552776D01*
X104792493Y-34465000D01*
X104744287Y-34370390D01*
X104710875Y-34324402D01*
X104623971Y-34204786D01*
X104479213Y-34060028D01*
X104313613Y-33939715D01*
X104313612Y-33939714D01*
X104313610Y-33939713D01*
X104256653Y-33910691D01*
X104131223Y-33846781D01*
X103936534Y-33783522D01*
X103832043Y-33766973D01*
X103768908Y-33737044D01*
X103731977Y-33677732D01*
X103732975Y-33607870D01*
X103771585Y-33549637D01*
X103835549Y-33521523D01*
X103851441Y-33520500D01*
X111032559Y-33520500D01*
X111099598Y-33540185D01*
X111145353Y-33592989D01*
X111155297Y-33662147D01*
X111126272Y-33725703D01*
X111067494Y-33763477D01*
X111051957Y-33766973D01*
X110947465Y-33783522D01*
X110752776Y-33846781D01*
X110570386Y-33939715D01*
X110404786Y-34060028D01*
X110260028Y-34204786D01*
X110139715Y-34370386D01*
X110046781Y-34552776D01*
X109983522Y-34747465D01*
X109960955Y-34889951D01*
X109951500Y-34949648D01*
X109951500Y-35154352D01*
X109953220Y-35165213D01*
X109983522Y-35356534D01*
X110046781Y-35551223D01*
X110087495Y-35631127D01*
X110137240Y-35728757D01*
X110139715Y-35733613D01*
X110260028Y-35899213D01*
X110404786Y-36043971D01*
X110531183Y-36135802D01*
X110570390Y-36164287D01*
X110686607Y-36223503D01*
X110752776Y-36257218D01*
X110752778Y-36257218D01*
X110752781Y-36257220D01*
X110800190Y-36272624D01*
X110947465Y-36320477D01*
X111048557Y-36336488D01*
X111149648Y-36352500D01*
X111149649Y-36352500D01*
X111354351Y-36352500D01*
X111354352Y-36352500D01*
X111556534Y-36320477D01*
X111751219Y-36257220D01*
X111933610Y-36164287D01*
X112026590Y-36096732D01*
X112099213Y-36043971D01*
X112099215Y-36043968D01*
X112099219Y-36043966D01*
X112243966Y-35899219D01*
X112243968Y-35899215D01*
X112243971Y-35899213D01*
X112333852Y-35775500D01*
X112364287Y-35733610D01*
X112457220Y-35551219D01*
X112520477Y-35356534D01*
X112552500Y-35154352D01*
X112552500Y-34949648D01*
X112543045Y-34889951D01*
X112520477Y-34747465D01*
X112457218Y-34552776D01*
X112412493Y-34465000D01*
X112364287Y-34370390D01*
X112330875Y-34324402D01*
X112243971Y-34204786D01*
X112099213Y-34060028D01*
X111933613Y-33939715D01*
X111933612Y-33939714D01*
X111933610Y-33939713D01*
X111876653Y-33910691D01*
X111751223Y-33846781D01*
X111556534Y-33783522D01*
X111452043Y-33766973D01*
X111388908Y-33737044D01*
X111351977Y-33677732D01*
X111352975Y-33607870D01*
X111391585Y-33549637D01*
X111455549Y-33521523D01*
X111471441Y-33520500D01*
X114434261Y-33520500D01*
X114501300Y-33540185D01*
X114547055Y-33592989D01*
X114556999Y-33662147D01*
X114527974Y-33725703D01*
X114508573Y-33743766D01*
X114489809Y-33757812D01*
X114403649Y-33872906D01*
X114403645Y-33872913D01*
X114353403Y-34007620D01*
X114353401Y-34007627D01*
X114347000Y-34067155D01*
X114347000Y-34715000D01*
X115263988Y-34715000D01*
X115231075Y-34772007D01*
X115197000Y-34899174D01*
X115197000Y-35030826D01*
X115231075Y-35157993D01*
X115263988Y-35215000D01*
X114347000Y-35215000D01*
X114347000Y-35862844D01*
X114353401Y-35922372D01*
X114353403Y-35922379D01*
X114403645Y-36057086D01*
X114403649Y-36057093D01*
X114489809Y-36172187D01*
X114489812Y-36172190D01*
X114604906Y-36258350D01*
X114604913Y-36258354D01*
X114736470Y-36307422D01*
X114792404Y-36349293D01*
X114816821Y-36414758D01*
X114801969Y-36483031D01*
X114780819Y-36511285D01*
X114666889Y-36625215D01*
X114541951Y-36797179D01*
X114445444Y-36986585D01*
X114379753Y-37188760D01*
X114347785Y-37390602D01*
X114346500Y-37398713D01*
X114346500Y-37611287D01*
X114351894Y-37645342D01*
X114375544Y-37794666D01*
X114379754Y-37821243D01*
X114438150Y-38000968D01*
X114445444Y-38023414D01*
X114541951Y-38212820D01*
X114666890Y-38384786D01*
X114817213Y-38535109D01*
X114989182Y-38660050D01*
X114997946Y-38664516D01*
X115048742Y-38712491D01*
X115065536Y-38780312D01*
X115042998Y-38846447D01*
X114997946Y-38885484D01*
X114989182Y-38889949D01*
X114817213Y-39014890D01*
X114666890Y-39165213D01*
X114541951Y-39337179D01*
X114445444Y-39526585D01*
X114379753Y-39728760D01*
X114346500Y-39938713D01*
X114346500Y-40151286D01*
X114377851Y-40349233D01*
X114379754Y-40361243D01*
X114433356Y-40526213D01*
X114445444Y-40563414D01*
X114541951Y-40752820D01*
X114666890Y-40924786D01*
X114817213Y-41075109D01*
X114989179Y-41200048D01*
X114989181Y-41200049D01*
X114989184Y-41200051D01*
X115178588Y-41296557D01*
X115380757Y-41362246D01*
X115590713Y-41395500D01*
X115590714Y-41395500D01*
X115803286Y-41395500D01*
X115803287Y-41395500D01*
X116013243Y-41362246D01*
X116215412Y-41296557D01*
X116404816Y-41200051D01*
X116472082Y-41151180D01*
X116576786Y-41075109D01*
X116576788Y-41075106D01*
X116576792Y-41075104D01*
X116727104Y-40924792D01*
X116727106Y-40924788D01*
X116727109Y-40924786D01*
X116852048Y-40752820D01*
X116852047Y-40752820D01*
X116852051Y-40752816D01*
X116948557Y-40563412D01*
X117014246Y-40361243D01*
X117047500Y-40151287D01*
X117047500Y-39938713D01*
X117014246Y-39728757D01*
X116948557Y-39526588D01*
X116852051Y-39337184D01*
X116852049Y-39337181D01*
X116852048Y-39337179D01*
X116727109Y-39165213D01*
X116576786Y-39014890D01*
X116404820Y-38889951D01*
X116397915Y-38886433D01*
X116396054Y-38885485D01*
X116345259Y-38837512D01*
X116328463Y-38769692D01*
X116350999Y-38703556D01*
X116396054Y-38664515D01*
X116404816Y-38660051D01*
X116479505Y-38605787D01*
X116576786Y-38535109D01*
X116576788Y-38535106D01*
X116576792Y-38535104D01*
X116727104Y-38384792D01*
X116727106Y-38384788D01*
X116727109Y-38384786D01*
X116852048Y-38212820D01*
X116852047Y-38212820D01*
X116852051Y-38212816D01*
X116948557Y-38023412D01*
X117014246Y-37821243D01*
X117047500Y-37611287D01*
X117047500Y-37398713D01*
X117014246Y-37188757D01*
X116948557Y-36986588D01*
X116852051Y-36797184D01*
X116852049Y-36797181D01*
X116852048Y-36797179D01*
X116727109Y-36625213D01*
X116613181Y-36511285D01*
X116579696Y-36449962D01*
X116584680Y-36380270D01*
X116626552Y-36324337D01*
X116657529Y-36307422D01*
X116789086Y-36258354D01*
X116789093Y-36258350D01*
X116904187Y-36172190D01*
X116904190Y-36172187D01*
X116990350Y-36057093D01*
X116990354Y-36057086D01*
X117040596Y-35922379D01*
X117040598Y-35922372D01*
X117046999Y-35862844D01*
X117047000Y-35862827D01*
X117047000Y-35215000D01*
X116130012Y-35215000D01*
X116162925Y-35157993D01*
X116197000Y-35030826D01*
X116197000Y-34899174D01*
X116162925Y-34772007D01*
X116130012Y-34715000D01*
X117047000Y-34715000D01*
X117047000Y-34067172D01*
X117046999Y-34067155D01*
X117040598Y-34007627D01*
X117040596Y-34007620D01*
X116990354Y-33872913D01*
X116990350Y-33872906D01*
X116904190Y-33757812D01*
X116885427Y-33743766D01*
X116843557Y-33687832D01*
X116838573Y-33618141D01*
X116872059Y-33556818D01*
X116933382Y-33523333D01*
X116959739Y-33520500D01*
X119714821Y-33520500D01*
X119781860Y-33540185D01*
X119827615Y-33592989D01*
X119837559Y-33662147D01*
X119808534Y-33725703D01*
X119776821Y-33751887D01*
X119636196Y-33833075D01*
X119428148Y-33992718D01*
X119242718Y-34178148D01*
X119083075Y-34386196D01*
X118951958Y-34613299D01*
X118951953Y-34613309D01*
X118851605Y-34855571D01*
X118851602Y-34855581D01*
X118796829Y-35060000D01*
X118783730Y-35108885D01*
X118749500Y-35368872D01*
X118749500Y-35631127D01*
X118772559Y-35806264D01*
X118783730Y-35891116D01*
X118848831Y-36134076D01*
X118851602Y-36144418D01*
X118851605Y-36144428D01*
X118951953Y-36386690D01*
X118951958Y-36386700D01*
X119083075Y-36613803D01*
X119242718Y-36821851D01*
X119242726Y-36821860D01*
X119428140Y-37007274D01*
X119428148Y-37007281D01*
X119428149Y-37007282D01*
X119476554Y-37044424D01*
X119636196Y-37166924D01*
X119863299Y-37298041D01*
X119863309Y-37298046D01*
X120105571Y-37398394D01*
X120105581Y-37398398D01*
X120358884Y-37466270D01*
X120618880Y-37500500D01*
X120618887Y-37500500D01*
X120881113Y-37500500D01*
X120881120Y-37500500D01*
X121141116Y-37466270D01*
X121394419Y-37398398D01*
X121599221Y-37313566D01*
X121636690Y-37298046D01*
X121636691Y-37298045D01*
X121636697Y-37298043D01*
X121863803Y-37166924D01*
X122071851Y-37007282D01*
X122071855Y-37007277D01*
X122071860Y-37007274D01*
X122257274Y-36821860D01*
X122257277Y-36821855D01*
X122257282Y-36821851D01*
X122416924Y-36613803D01*
X122458113Y-36542460D01*
X122508679Y-36494246D01*
X122577286Y-36481022D01*
X122642151Y-36506990D01*
X122682680Y-36563904D01*
X122689500Y-36604461D01*
X122689500Y-52395538D01*
X122669815Y-52462577D01*
X122617011Y-52508332D01*
X122547853Y-52518276D01*
X122484297Y-52489251D01*
X122458113Y-52457538D01*
X122416924Y-52386196D01*
X122270583Y-52195483D01*
X122257282Y-52178149D01*
X122257281Y-52178148D01*
X122257274Y-52178140D01*
X122071860Y-51992726D01*
X122071851Y-51992718D01*
X121863803Y-51833075D01*
X121636700Y-51701958D01*
X121636690Y-51701953D01*
X121394428Y-51601605D01*
X121394421Y-51601603D01*
X121394419Y-51601602D01*
X121141116Y-51533730D01*
X121083339Y-51526123D01*
X120881127Y-51499500D01*
X120881120Y-51499500D01*
X120618880Y-51499500D01*
X120618872Y-51499500D01*
X120389335Y-51529721D01*
X120358884Y-51533730D01*
X120224500Y-51569738D01*
X120105581Y-51601602D01*
X120105571Y-51601605D01*
X119863309Y-51701953D01*
X119863299Y-51701958D01*
X119636196Y-51833075D01*
X119428148Y-51992718D01*
X119242718Y-52178148D01*
X119083075Y-52386196D01*
X118951958Y-52613299D01*
X118951953Y-52613309D01*
X118851605Y-52855571D01*
X118851602Y-52855581D01*
X118795355Y-53065501D01*
X118783730Y-53108885D01*
X118749500Y-53368872D01*
X118749500Y-53631127D01*
X118764060Y-53741713D01*
X118783730Y-53891116D01*
X118848831Y-54134076D01*
X118851602Y-54144418D01*
X118851605Y-54144428D01*
X118951953Y-54386690D01*
X118951958Y-54386700D01*
X119083075Y-54613803D01*
X119242718Y-54821851D01*
X119242726Y-54821860D01*
X119428140Y-55007274D01*
X119428148Y-55007281D01*
X119636196Y-55166924D01*
X119655067Y-55177819D01*
X119703283Y-55228386D01*
X119716506Y-55296993D01*
X119690538Y-55361858D01*
X119633623Y-55402386D01*
X119593044Y-55409206D01*
X108304667Y-55407134D01*
X108237631Y-55387437D01*
X108191886Y-55334625D01*
X108181955Y-55265464D01*
X108210992Y-55201914D01*
X108266368Y-55165205D01*
X108468412Y-55099557D01*
X108657816Y-55003051D01*
X108679789Y-54987086D01*
X108829786Y-54878109D01*
X108829788Y-54878106D01*
X108829792Y-54878104D01*
X108980104Y-54727792D01*
X108980106Y-54727788D01*
X108980109Y-54727786D01*
X109105048Y-54555820D01*
X109105047Y-54555820D01*
X109105051Y-54555816D01*
X109201557Y-54366412D01*
X109267246Y-54164243D01*
X109300500Y-53954287D01*
X109300500Y-53741713D01*
X109267246Y-53531757D01*
X109201557Y-53329588D01*
X109105051Y-53140184D01*
X109105049Y-53140181D01*
X109105048Y-53140179D01*
X108980112Y-52968218D01*
X108980101Y-52968205D01*
X108829786Y-52817890D01*
X108657820Y-52692951D01*
X108650652Y-52689299D01*
X108649054Y-52688485D01*
X108598259Y-52640512D01*
X108581463Y-52572692D01*
X108603999Y-52506556D01*
X108649054Y-52467515D01*
X108657816Y-52463051D01*
X108735990Y-52406255D01*
X108829786Y-52338109D01*
X108829788Y-52338106D01*
X108829792Y-52338104D01*
X108980104Y-52187792D01*
X108980106Y-52187788D01*
X108980109Y-52187786D01*
X109105048Y-52015820D01*
X109105047Y-52015820D01*
X109105051Y-52015816D01*
X109201557Y-51826412D01*
X109267246Y-51624243D01*
X109300500Y-51414287D01*
X109300500Y-51201713D01*
X109267246Y-50991757D01*
X109201557Y-50789588D01*
X109105051Y-50600184D01*
X109105049Y-50600181D01*
X109105048Y-50600179D01*
X108980109Y-50428213D01*
X108866181Y-50314285D01*
X108832696Y-50252962D01*
X108837680Y-50183270D01*
X108879552Y-50127337D01*
X108910529Y-50110422D01*
X109042086Y-50061354D01*
X109042093Y-50061350D01*
X109157187Y-49975190D01*
X109157190Y-49975187D01*
X109243350Y-49860093D01*
X109243354Y-49860086D01*
X109293596Y-49725379D01*
X109293598Y-49725372D01*
X109299999Y-49665844D01*
X109300000Y-49665827D01*
X109300000Y-49018000D01*
X108383012Y-49018000D01*
X108415925Y-48960993D01*
X108450000Y-48833826D01*
X108450000Y-48702174D01*
X108415925Y-48575007D01*
X108383012Y-48518000D01*
X109300000Y-48518000D01*
X109300000Y-47870172D01*
X109299999Y-47870155D01*
X109293598Y-47810627D01*
X109293596Y-47810620D01*
X109243354Y-47675913D01*
X109243350Y-47675906D01*
X109157190Y-47560812D01*
X109157187Y-47560809D01*
X109042093Y-47474649D01*
X109042086Y-47474645D01*
X108907379Y-47424403D01*
X108907372Y-47424401D01*
X108847844Y-47418000D01*
X108200000Y-47418000D01*
X108200000Y-48334988D01*
X108142993Y-48302075D01*
X108015826Y-48268000D01*
X107884174Y-48268000D01*
X107757007Y-48302075D01*
X107700000Y-48334988D01*
X107700000Y-47418000D01*
X107052155Y-47418000D01*
X106992627Y-47424401D01*
X106992620Y-47424403D01*
X106857913Y-47474645D01*
X106857906Y-47474649D01*
X106742812Y-47560809D01*
X106742809Y-47560812D01*
X106656649Y-47675906D01*
X106656645Y-47675913D01*
X106606403Y-47810620D01*
X106606401Y-47810627D01*
X106600000Y-47870155D01*
X106600000Y-48518000D01*
X107516988Y-48518000D01*
X107484075Y-48575007D01*
X107450000Y-48702174D01*
X107450000Y-48833826D01*
X107484075Y-48960993D01*
X107516988Y-49018000D01*
X106600000Y-49018000D01*
X106600000Y-49665844D01*
X106606401Y-49725372D01*
X106606403Y-49725379D01*
X106656645Y-49860086D01*
X106656649Y-49860093D01*
X106742809Y-49975187D01*
X106742812Y-49975190D01*
X106857906Y-50061350D01*
X106857913Y-50061354D01*
X106989470Y-50110422D01*
X107045404Y-50152293D01*
X107069821Y-50217758D01*
X107054969Y-50286031D01*
X107033819Y-50314285D01*
X106919889Y-50428215D01*
X106794951Y-50600179D01*
X106698444Y-50789585D01*
X106632753Y-50991760D01*
X106599500Y-51201713D01*
X106599500Y-51414286D01*
X106624120Y-51569735D01*
X106632754Y-51624243D01*
X106688399Y-51795501D01*
X106698444Y-51826414D01*
X106794951Y-52015820D01*
X106919890Y-52187786D01*
X107070213Y-52338109D01*
X107242182Y-52463050D01*
X107250946Y-52467516D01*
X107301742Y-52515491D01*
X107318536Y-52583312D01*
X107295998Y-52649447D01*
X107250946Y-52688484D01*
X107242182Y-52692949D01*
X107070213Y-52817890D01*
X106919890Y-52968213D01*
X106794951Y-53140179D01*
X106698444Y-53329585D01*
X106632753Y-53531760D01*
X106599500Y-53741713D01*
X106599500Y-53954286D01*
X106631297Y-54155048D01*
X106632754Y-54164243D01*
X106682554Y-54317512D01*
X106698444Y-54366414D01*
X106794951Y-54555820D01*
X106919890Y-54727786D01*
X107070213Y-54878109D01*
X107242179Y-55003048D01*
X107242181Y-55003049D01*
X107242184Y-55003051D01*
X107431588Y-55099557D01*
X107633227Y-55165073D01*
X107690902Y-55204511D01*
X107718100Y-55268869D01*
X107706185Y-55337715D01*
X107658941Y-55389191D01*
X107594885Y-55407004D01*
X39530617Y-55394512D01*
X39530602Y-55394511D01*
X39469158Y-55394500D01*
X39460314Y-55394183D01*
X39260193Y-55379835D01*
X39242684Y-55377314D01*
X39050992Y-55335582D01*
X39034019Y-55330596D01*
X38850211Y-55262010D01*
X38834120Y-55254659D01*
X38661940Y-55160613D01*
X38647060Y-55151047D01*
X38490020Y-55033462D01*
X38476652Y-55021876D01*
X38337940Y-54883138D01*
X38326363Y-54869776D01*
X38208796Y-54712702D01*
X38199238Y-54697826D01*
X38105223Y-54525626D01*
X38097881Y-54509548D01*
X38029321Y-54325711D01*
X38024342Y-54308748D01*
X38011902Y-54251555D01*
X37982642Y-54117035D01*
X37980126Y-54099529D01*
X37975161Y-54030104D01*
X37965816Y-53899418D01*
X37965500Y-53890573D01*
X37965500Y-37981902D01*
X48283500Y-37981902D01*
X48283500Y-38218097D01*
X48320446Y-38451368D01*
X48393433Y-38675996D01*
X48483904Y-38853553D01*
X48500657Y-38886433D01*
X48639483Y-39077510D01*
X48806490Y-39244517D01*
X48841127Y-39269683D01*
X48883792Y-39325013D01*
X48889771Y-39394626D01*
X48857165Y-39456421D01*
X48841130Y-39470315D01*
X48823365Y-39483222D01*
X48806488Y-39495484D01*
X48639485Y-39662487D01*
X48639485Y-39662488D01*
X48639483Y-39662490D01*
X48624831Y-39682657D01*
X48500657Y-39853566D01*
X48393433Y-40064003D01*
X48320446Y-40288631D01*
X48283500Y-40521902D01*
X48283500Y-40758097D01*
X48320446Y-40991368D01*
X48393433Y-41215996D01*
X48448559Y-41324185D01*
X48500657Y-41426433D01*
X48639483Y-41617510D01*
X48806490Y-41784517D01*
X48841127Y-41809683D01*
X48883792Y-41865013D01*
X48889771Y-41934626D01*
X48857165Y-41996421D01*
X48841130Y-42010315D01*
X48831142Y-42017572D01*
X48806488Y-42035484D01*
X48639485Y-42202487D01*
X48639485Y-42202488D01*
X48639483Y-42202490D01*
X48593110Y-42266317D01*
X48500657Y-42393566D01*
X48393433Y-42604003D01*
X48320446Y-42828631D01*
X48283500Y-43061902D01*
X48283500Y-43298097D01*
X48320446Y-43531368D01*
X48393433Y-43755996D01*
X48468227Y-43902786D01*
X48500657Y-43966433D01*
X48639483Y-44157510D01*
X48806490Y-44324517D01*
X48841127Y-44349683D01*
X48883792Y-44405013D01*
X48889771Y-44474626D01*
X48857165Y-44536421D01*
X48841130Y-44550315D01*
X48838327Y-44552352D01*
X48806488Y-44575484D01*
X48639485Y-44742487D01*
X48639485Y-44742488D01*
X48639483Y-44742490D01*
X48619438Y-44770080D01*
X48500657Y-44933566D01*
X48393433Y-45144003D01*
X48320446Y-45368631D01*
X48283500Y-45601902D01*
X48283500Y-45838097D01*
X48320446Y-46071368D01*
X48393433Y-46295996D01*
X48492485Y-46490394D01*
X48500657Y-46506433D01*
X48639483Y-46697510D01*
X48806490Y-46864517D01*
X48841127Y-46889683D01*
X48883792Y-46945013D01*
X48889771Y-47014626D01*
X48857165Y-47076421D01*
X48841130Y-47090315D01*
X48823365Y-47103222D01*
X48806488Y-47115484D01*
X48639485Y-47282487D01*
X48639485Y-47282488D01*
X48639483Y-47282490D01*
X48579862Y-47364550D01*
X48500657Y-47473566D01*
X48393433Y-47684003D01*
X48320446Y-47908631D01*
X48283500Y-48141902D01*
X48283500Y-48378097D01*
X48320446Y-48611368D01*
X48393433Y-48835996D01*
X48486170Y-49018000D01*
X48500657Y-49046433D01*
X48639483Y-49237510D01*
X48806490Y-49404517D01*
X48841127Y-49429683D01*
X48883792Y-49485013D01*
X48889771Y-49554626D01*
X48857165Y-49616421D01*
X48841130Y-49630315D01*
X48823365Y-49643222D01*
X48806488Y-49655484D01*
X48639485Y-49822487D01*
X48639485Y-49822488D01*
X48639483Y-49822490D01*
X48612168Y-49860086D01*
X48500657Y-50013566D01*
X48393433Y-50224003D01*
X48320446Y-50448631D01*
X48283500Y-50681902D01*
X48283500Y-50918097D01*
X48320446Y-51151368D01*
X48393433Y-51375996D01*
X48473069Y-51532289D01*
X48500657Y-51586433D01*
X48639483Y-51777510D01*
X48806490Y-51944517D01*
X48841127Y-51969683D01*
X48883792Y-52025013D01*
X48889771Y-52094626D01*
X48857165Y-52156421D01*
X48841130Y-52170315D01*
X48830348Y-52178149D01*
X48806488Y-52195484D01*
X48639485Y-52362487D01*
X48639485Y-52362488D01*
X48639483Y-52362490D01*
X48617319Y-52392996D01*
X48500657Y-52553566D01*
X48393433Y-52764003D01*
X48320446Y-52988631D01*
X48283500Y-53221902D01*
X48283500Y-53458097D01*
X48320446Y-53691368D01*
X48393433Y-53915996D01*
X48499112Y-54123401D01*
X48500657Y-54126433D01*
X48639483Y-54317510D01*
X48806490Y-54484517D01*
X48997567Y-54623343D01*
X49096991Y-54674002D01*
X49208003Y-54730566D01*
X49208005Y-54730566D01*
X49208008Y-54730568D01*
X49328412Y-54769689D01*
X49432631Y-54803553D01*
X49665903Y-54840500D01*
X49665908Y-54840500D01*
X49902097Y-54840500D01*
X50135368Y-54803553D01*
X50359992Y-54730568D01*
X50570433Y-54623343D01*
X50761510Y-54484517D01*
X50928517Y-54317510D01*
X51067343Y-54126433D01*
X51174568Y-53915992D01*
X51247553Y-53691368D01*
X51257578Y-53628071D01*
X51284500Y-53458097D01*
X51284500Y-53221902D01*
X51247553Y-52988631D01*
X51216712Y-52893713D01*
X51174568Y-52764008D01*
X51157078Y-52729682D01*
X53898000Y-52729682D01*
X53898000Y-52934317D01*
X53930009Y-53136417D01*
X53993244Y-53331031D01*
X54086141Y-53513350D01*
X54086147Y-53513359D01*
X54118523Y-53557921D01*
X54118524Y-53557922D01*
X54798000Y-52878446D01*
X54798000Y-52884661D01*
X54825259Y-52986394D01*
X54877920Y-53077606D01*
X54952394Y-53152080D01*
X55043606Y-53204741D01*
X55145339Y-53232000D01*
X55151553Y-53232000D01*
X54472076Y-53911474D01*
X54516650Y-53943859D01*
X54698968Y-54036755D01*
X54893582Y-54099990D01*
X55095683Y-54132000D01*
X55300317Y-54132000D01*
X55502417Y-54099990D01*
X55697031Y-54036755D01*
X55879349Y-53943859D01*
X55923921Y-53911474D01*
X55244447Y-53232000D01*
X55250661Y-53232000D01*
X55352394Y-53204741D01*
X55443606Y-53152080D01*
X55518080Y-53077606D01*
X55570741Y-52986394D01*
X55598000Y-52884661D01*
X55598000Y-52878447D01*
X56277474Y-53557921D01*
X56309859Y-53513349D01*
X56402755Y-53331031D01*
X56465990Y-53136417D01*
X56498000Y-52934317D01*
X56498000Y-52729682D01*
X56465990Y-52527582D01*
X56402755Y-52332968D01*
X56309859Y-52150650D01*
X56277474Y-52106077D01*
X56277474Y-52106076D01*
X55598000Y-52785551D01*
X55598000Y-52779339D01*
X55570741Y-52677606D01*
X55518080Y-52586394D01*
X55443606Y-52511920D01*
X55352394Y-52459259D01*
X55250661Y-52432000D01*
X55244446Y-52432000D01*
X55923922Y-51752524D01*
X55923921Y-51752523D01*
X55879359Y-51720147D01*
X55879350Y-51720141D01*
X55697031Y-51627244D01*
X55502417Y-51564009D01*
X55300317Y-51532000D01*
X55095683Y-51532000D01*
X54893582Y-51564009D01*
X54698968Y-51627244D01*
X54516644Y-51720143D01*
X54472077Y-51752523D01*
X54472077Y-51752524D01*
X55151554Y-52432000D01*
X55145339Y-52432000D01*
X55043606Y-52459259D01*
X54952394Y-52511920D01*
X54877920Y-52586394D01*
X54825259Y-52677606D01*
X54798000Y-52779339D01*
X54798000Y-52785553D01*
X54118524Y-52106077D01*
X54118523Y-52106077D01*
X54086143Y-52150644D01*
X53993244Y-52332968D01*
X53930009Y-52527582D01*
X53898000Y-52729682D01*
X51157078Y-52729682D01*
X51067343Y-52553567D01*
X50928517Y-52362490D01*
X50761510Y-52195483D01*
X50726872Y-52170317D01*
X50684207Y-52114989D01*
X50678228Y-52045375D01*
X50710833Y-51983580D01*
X50726873Y-51969682D01*
X50761510Y-51944517D01*
X50928517Y-51777510D01*
X51067343Y-51586433D01*
X51174568Y-51375992D01*
X51247553Y-51151368D01*
X51255555Y-51100846D01*
X51284500Y-50918097D01*
X51284500Y-50681902D01*
X51247553Y-50448631D01*
X51206047Y-50320889D01*
X51174568Y-50224008D01*
X51174566Y-50224005D01*
X51174566Y-50224003D01*
X51098810Y-50075324D01*
X51067343Y-50013567D01*
X50928517Y-49822490D01*
X50761510Y-49655483D01*
X50726872Y-49630317D01*
X50684207Y-49574989D01*
X50678228Y-49505375D01*
X50710833Y-49443580D01*
X50726873Y-49429682D01*
X50761510Y-49404517D01*
X50928517Y-49237510D01*
X51067343Y-49046433D01*
X51174568Y-48835992D01*
X51247553Y-48611368D01*
X51262341Y-48518000D01*
X51269255Y-48474349D01*
X51274647Y-48462972D01*
X51275546Y-48450413D01*
X51289330Y-48431998D01*
X51299184Y-48411214D01*
X51309873Y-48404558D01*
X51317418Y-48394480D01*
X51338968Y-48386442D01*
X51358496Y-48374283D01*
X51371085Y-48374462D01*
X51382882Y-48370063D01*
X51405358Y-48374952D01*
X51428358Y-48375281D01*
X51440484Y-48382593D01*
X51451155Y-48384915D01*
X51479409Y-48406066D01*
X51527928Y-48454585D01*
X51554808Y-48494814D01*
X51614602Y-48639172D01*
X51614609Y-48639185D01*
X51702210Y-48770288D01*
X51702213Y-48770292D01*
X51813707Y-48881786D01*
X51813711Y-48881789D01*
X51944814Y-48969390D01*
X51944827Y-48969397D01*
X52062167Y-49018000D01*
X52090503Y-49029737D01*
X52233163Y-49058114D01*
X52245153Y-49060499D01*
X52245156Y-49060500D01*
X52245158Y-49060500D01*
X52402844Y-49060500D01*
X52402845Y-49060499D01*
X52557497Y-49029737D01*
X52703179Y-48969394D01*
X52834289Y-48881789D01*
X52945789Y-48770289D01*
X53033394Y-48639179D01*
X53093737Y-48493497D01*
X53124500Y-48338842D01*
X53124500Y-48181158D01*
X53124500Y-48181155D01*
X53124499Y-48181153D01*
X53111670Y-48116660D01*
X53093737Y-48026503D01*
X53072587Y-47975441D01*
X53033397Y-47880827D01*
X53033390Y-47880814D01*
X52945789Y-47749711D01*
X52945786Y-47749707D01*
X52834292Y-47638213D01*
X52834288Y-47638210D01*
X52703185Y-47550609D01*
X52703172Y-47550602D01*
X52558814Y-47490808D01*
X52518585Y-47463928D01*
X52129819Y-47075162D01*
X52096334Y-47013839D01*
X52093500Y-46987481D01*
X52093500Y-46071646D01*
X52113185Y-46004607D01*
X52165989Y-45958852D01*
X52235147Y-45948908D01*
X52292985Y-45973270D01*
X52362488Y-46026602D01*
X52480196Y-46116924D01*
X52707299Y-46248041D01*
X52707309Y-46248046D01*
X52949571Y-46348394D01*
X52949581Y-46348398D01*
X53202884Y-46416270D01*
X53462880Y-46450500D01*
X53462887Y-46450500D01*
X53725113Y-46450500D01*
X53725120Y-46450500D01*
X53985116Y-46416270D01*
X54238419Y-46348398D01*
X54480697Y-46248043D01*
X54707803Y-46116924D01*
X54915851Y-45957282D01*
X54915855Y-45957277D01*
X54915860Y-45957274D01*
X55101274Y-45771860D01*
X55101277Y-45771855D01*
X55101282Y-45771851D01*
X55260924Y-45563803D01*
X55392043Y-45336697D01*
X55398538Y-45321018D01*
X55428278Y-45249219D01*
X55492398Y-45094419D01*
X55560270Y-44841116D01*
X55594500Y-44581120D01*
X55594500Y-44318880D01*
X55560270Y-44058884D01*
X55492398Y-43805581D01*
X55476993Y-43768390D01*
X55392046Y-43563309D01*
X55392041Y-43563299D01*
X55260924Y-43336196D01*
X55101281Y-43128148D01*
X55101274Y-43128140D01*
X54915860Y-42942726D01*
X54915851Y-42942718D01*
X54707803Y-42783075D01*
X54480700Y-42651958D01*
X54480690Y-42651953D01*
X54238428Y-42551605D01*
X54238421Y-42551603D01*
X54238419Y-42551602D01*
X53985116Y-42483730D01*
X53927339Y-42476123D01*
X53725127Y-42449500D01*
X53725120Y-42449500D01*
X53462880Y-42449500D01*
X53462872Y-42449500D01*
X53231772Y-42479926D01*
X53202884Y-42483730D01*
X53005043Y-42536741D01*
X52949581Y-42551602D01*
X52949571Y-42551605D01*
X52707309Y-42651953D01*
X52707299Y-42651958D01*
X52480202Y-42783072D01*
X52457071Y-42800821D01*
X52292985Y-42926729D01*
X52227818Y-42951923D01*
X52159373Y-42937885D01*
X52109383Y-42889071D01*
X52093500Y-42828353D01*
X52093500Y-42420518D01*
X52113185Y-42353479D01*
X52129815Y-42332841D01*
X52518586Y-41944069D01*
X52558810Y-41917192D01*
X52613435Y-41894566D01*
X52703173Y-41857397D01*
X52703176Y-41857395D01*
X52703179Y-41857394D01*
X52834289Y-41769789D01*
X52945789Y-41658289D01*
X53033394Y-41527179D01*
X53093737Y-41381497D01*
X53124500Y-41226842D01*
X53124500Y-41069158D01*
X53124500Y-41069155D01*
X53124499Y-41069153D01*
X53109984Y-40996184D01*
X53093737Y-40914503D01*
X53036275Y-40775776D01*
X53033397Y-40768827D01*
X53033390Y-40768814D01*
X52945789Y-40637711D01*
X52945786Y-40637707D01*
X52834292Y-40526213D01*
X52834288Y-40526210D01*
X52703185Y-40438609D01*
X52703172Y-40438602D01*
X52557501Y-40378264D01*
X52557489Y-40378261D01*
X52402845Y-40347500D01*
X52402842Y-40347500D01*
X52245158Y-40347500D01*
X52245155Y-40347500D01*
X52090510Y-40378261D01*
X52090498Y-40378264D01*
X51944827Y-40438602D01*
X51944814Y-40438609D01*
X51813711Y-40526210D01*
X51813707Y-40526213D01*
X51702213Y-40637707D01*
X51702210Y-40637711D01*
X51614609Y-40768814D01*
X51614604Y-40768823D01*
X51554809Y-40913184D01*
X51550176Y-40920116D01*
X51549080Y-40925158D01*
X51527929Y-40953412D01*
X51471786Y-41009555D01*
X51410463Y-41043040D01*
X51340771Y-41038056D01*
X51284838Y-40996184D01*
X51260421Y-40930720D01*
X51261632Y-40902476D01*
X51284500Y-40758097D01*
X51284500Y-40521902D01*
X51247553Y-40288631D01*
X51213689Y-40184412D01*
X51174568Y-40064008D01*
X51174566Y-40064005D01*
X51174566Y-40064003D01*
X51085816Y-39889823D01*
X51067343Y-39853567D01*
X50928517Y-39662490D01*
X50761510Y-39495483D01*
X50726872Y-39470317D01*
X50684207Y-39414989D01*
X50678228Y-39345375D01*
X50710833Y-39283580D01*
X50726873Y-39269682D01*
X50734669Y-39264018D01*
X50761510Y-39244517D01*
X50928517Y-39077510D01*
X51067343Y-38886433D01*
X51174568Y-38675992D01*
X51247553Y-38451368D01*
X51256056Y-38397682D01*
X51284500Y-38218097D01*
X51284500Y-37981902D01*
X51247553Y-37748631D01*
X51181514Y-37545386D01*
X51174568Y-37524008D01*
X51174566Y-37524005D01*
X51174566Y-37524003D01*
X51110727Y-37398713D01*
X51067343Y-37313567D01*
X50928517Y-37122490D01*
X50761510Y-36955483D01*
X50702282Y-36912451D01*
X50659617Y-36857122D01*
X50651550Y-36802404D01*
X50653104Y-36782657D01*
X49913408Y-36042962D01*
X49976993Y-36025925D01*
X50091007Y-35960099D01*
X50184099Y-35867007D01*
X50249925Y-35752993D01*
X50266962Y-35689409D01*
X51006658Y-36429105D01*
X51006658Y-36429104D01*
X51066914Y-36346169D01*
X51066918Y-36346163D01*
X51174102Y-36135802D01*
X51247065Y-35911247D01*
X51284000Y-35678052D01*
X51284000Y-35441947D01*
X51279135Y-35411232D01*
X51276561Y-35394983D01*
X54569500Y-35394983D01*
X54569500Y-36995001D01*
X54569501Y-36995018D01*
X54580000Y-37097796D01*
X54580001Y-37097799D01*
X54635185Y-37264331D01*
X54635187Y-37264336D01*
X54655978Y-37298043D01*
X54727288Y-37413656D01*
X54851344Y-37537712D01*
X55000666Y-37629814D01*
X55167203Y-37684999D01*
X55269991Y-37695500D01*
X56570008Y-37695499D01*
X56672797Y-37684999D01*
X56839334Y-37629814D01*
X56988656Y-37537712D01*
X57112712Y-37413656D01*
X57204814Y-37264334D01*
X57204814Y-37264331D01*
X57208178Y-37258879D01*
X57260126Y-37212154D01*
X57329088Y-37200931D01*
X57393170Y-37228774D01*
X57401398Y-37236294D01*
X57540208Y-37375104D01*
X57568384Y-37395575D01*
X57611050Y-37450902D01*
X57619500Y-37495893D01*
X57619500Y-45426962D01*
X57599815Y-45494001D01*
X57547011Y-45539756D01*
X57477853Y-45549700D01*
X57439210Y-45537449D01*
X57427035Y-45531246D01*
X57232417Y-45468009D01*
X57030317Y-45436000D01*
X56825683Y-45436000D01*
X56623582Y-45468009D01*
X56428968Y-45531244D01*
X56246644Y-45624143D01*
X56202077Y-45656523D01*
X56202077Y-45656524D01*
X56881553Y-46336000D01*
X56875339Y-46336000D01*
X56773606Y-46363259D01*
X56682394Y-46415920D01*
X56607920Y-46490394D01*
X56555259Y-46581606D01*
X56528000Y-46683339D01*
X56528000Y-46689553D01*
X55848524Y-46010077D01*
X55848523Y-46010077D01*
X55816143Y-46054644D01*
X55723244Y-46236968D01*
X55660009Y-46431582D01*
X55628000Y-46633682D01*
X55628000Y-46838317D01*
X55660009Y-47040417D01*
X55723244Y-47235031D01*
X55816141Y-47417350D01*
X55816147Y-47417359D01*
X55848523Y-47461921D01*
X55848524Y-47461922D01*
X56528000Y-46782446D01*
X56528000Y-46788661D01*
X56555259Y-46890394D01*
X56607920Y-46981606D01*
X56682394Y-47056080D01*
X56773606Y-47108741D01*
X56875339Y-47136000D01*
X56881552Y-47136000D01*
X56202076Y-47815474D01*
X56246650Y-47847859D01*
X56428968Y-47940755D01*
X56623582Y-48003990D01*
X56825683Y-48036000D01*
X57030317Y-48036000D01*
X57232417Y-48003990D01*
X57425181Y-47941356D01*
X57495022Y-47939361D01*
X57554855Y-47975441D01*
X57585684Y-48038141D01*
X57587500Y-48059287D01*
X57587500Y-51100846D01*
X57618261Y-51255489D01*
X57618264Y-51255501D01*
X57678602Y-51401172D01*
X57678609Y-51401185D01*
X57766210Y-51532288D01*
X57766213Y-51532292D01*
X58861898Y-52627976D01*
X58895383Y-52689299D01*
X58897835Y-52725377D01*
X58897500Y-52729637D01*
X58897500Y-52934351D01*
X58929522Y-53136534D01*
X58992781Y-53331223D01*
X59011969Y-53368880D01*
X59085585Y-53513359D01*
X59085715Y-53513613D01*
X59206028Y-53679213D01*
X59350786Y-53823971D01*
X59471226Y-53911474D01*
X59516390Y-53944287D01*
X59632607Y-54003503D01*
X59698776Y-54037218D01*
X59698778Y-54037218D01*
X59698781Y-54037220D01*
X59772744Y-54061252D01*
X59893465Y-54100477D01*
X59994557Y-54116488D01*
X60095648Y-54132500D01*
X60095649Y-54132500D01*
X60300351Y-54132500D01*
X60300352Y-54132500D01*
X60502534Y-54100477D01*
X60697219Y-54037220D01*
X60879610Y-53944287D01*
X61042563Y-53825896D01*
X61045213Y-53823971D01*
X61045215Y-53823968D01*
X61045219Y-53823966D01*
X61189966Y-53679219D01*
X61189968Y-53679215D01*
X61189971Y-53679213D01*
X61243991Y-53604860D01*
X61310287Y-53513610D01*
X61403220Y-53331219D01*
X61466477Y-53136534D01*
X61498500Y-52934352D01*
X61498500Y-52729648D01*
X61492109Y-52689299D01*
X61466477Y-52527465D01*
X61420576Y-52386197D01*
X61403220Y-52332781D01*
X61403218Y-52332778D01*
X61403218Y-52332776D01*
X61340767Y-52210211D01*
X61310287Y-52150390D01*
X61302556Y-52139749D01*
X61189971Y-51984786D01*
X61045213Y-51840028D01*
X60879613Y-51719715D01*
X60879612Y-51719714D01*
X60879610Y-51719713D01*
X60768835Y-51663270D01*
X60697223Y-51626781D01*
X60502534Y-51563522D01*
X60305333Y-51532289D01*
X60300352Y-51531500D01*
X60095648Y-51531500D01*
X60095638Y-51531500D01*
X60091377Y-51531835D01*
X60023001Y-51517466D01*
X59993976Y-51495898D01*
X59224819Y-50726741D01*
X59191334Y-50665418D01*
X59188500Y-50639060D01*
X59188500Y-48160499D01*
X59208185Y-48093460D01*
X59260989Y-48047705D01*
X59312500Y-48036499D01*
X59528002Y-48036499D01*
X59528008Y-48036499D01*
X59614899Y-48027623D01*
X59683591Y-48040393D01*
X59734476Y-48088274D01*
X59751500Y-48150981D01*
X59751500Y-49866684D01*
X59742061Y-49914136D01*
X59682264Y-50058498D01*
X59682261Y-50058510D01*
X59651500Y-50213153D01*
X59651500Y-50370846D01*
X59682261Y-50525489D01*
X59682264Y-50525501D01*
X59742602Y-50671172D01*
X59742609Y-50671185D01*
X59830210Y-50802288D01*
X59830213Y-50802292D01*
X59941707Y-50913786D01*
X59941711Y-50913789D01*
X60072814Y-51001390D01*
X60072827Y-51001397D01*
X60171377Y-51042217D01*
X60218503Y-51061737D01*
X60373153Y-51092499D01*
X60373156Y-51092500D01*
X60373158Y-51092500D01*
X60530844Y-51092500D01*
X60530845Y-51092499D01*
X60685497Y-51061737D01*
X60831179Y-51001394D01*
X60962289Y-50913789D01*
X61073789Y-50802289D01*
X61161394Y-50671179D01*
X61221737Y-50525497D01*
X61252500Y-50370842D01*
X61252500Y-50213158D01*
X61252500Y-50213155D01*
X61252499Y-50213153D01*
X61245549Y-50178213D01*
X61221737Y-50058503D01*
X61203124Y-50013566D01*
X61161939Y-49914136D01*
X61152500Y-49866684D01*
X61152500Y-43605316D01*
X61161939Y-43557864D01*
X61221735Y-43413501D01*
X61221737Y-43413497D01*
X61252500Y-43258842D01*
X61252500Y-43101158D01*
X61252500Y-43101155D01*
X61252499Y-43101153D01*
X61221738Y-42946510D01*
X61221737Y-42946503D01*
X61218167Y-42937885D01*
X61161397Y-42800827D01*
X61161390Y-42800814D01*
X61073789Y-42669711D01*
X61073786Y-42669707D01*
X60962292Y-42558213D01*
X60962288Y-42558210D01*
X60831185Y-42470609D01*
X60831172Y-42470602D01*
X60685501Y-42410264D01*
X60685489Y-42410261D01*
X60530845Y-42379500D01*
X60530842Y-42379500D01*
X60373158Y-42379500D01*
X60373155Y-42379500D01*
X60218510Y-42410261D01*
X60218498Y-42410264D01*
X60072827Y-42470602D01*
X60072814Y-42470609D01*
X59941711Y-42558210D01*
X59941707Y-42558213D01*
X59830213Y-42669707D01*
X59830210Y-42669711D01*
X59742609Y-42800814D01*
X59742602Y-42800827D01*
X59682264Y-42946498D01*
X59682261Y-42946510D01*
X59651500Y-43101153D01*
X59651500Y-43258846D01*
X59682261Y-43413489D01*
X59682264Y-43413501D01*
X59742061Y-43557864D01*
X59751500Y-43605316D01*
X59751500Y-45321018D01*
X59731815Y-45388057D01*
X59679011Y-45433812D01*
X59614898Y-45444376D01*
X59528018Y-45435500D01*
X59528009Y-45435500D01*
X59344500Y-45435500D01*
X59277461Y-45415815D01*
X59231706Y-45363011D01*
X59220500Y-45311500D01*
X59220500Y-37495893D01*
X59240185Y-37428854D01*
X59271614Y-37395576D01*
X59299792Y-37375104D01*
X59450104Y-37224792D01*
X59450106Y-37224788D01*
X59450109Y-37224786D01*
X59575048Y-37052820D01*
X59575047Y-37052820D01*
X59575051Y-37052816D01*
X59671557Y-36863412D01*
X59737246Y-36661243D01*
X59763235Y-36497153D01*
X68287500Y-36497153D01*
X68287500Y-36654846D01*
X68318261Y-36809489D01*
X68318264Y-36809501D01*
X68378061Y-36953864D01*
X68387500Y-37001316D01*
X68387500Y-52255006D01*
X68387500Y-52392994D01*
X68387500Y-52392996D01*
X68387499Y-52392996D01*
X68414418Y-52528322D01*
X68414421Y-52528332D01*
X68467222Y-52655807D01*
X68543887Y-52770545D01*
X69657454Y-53884112D01*
X69772192Y-53960777D01*
X69899667Y-54013578D01*
X69899672Y-54013580D01*
X69899676Y-54013580D01*
X69899677Y-54013581D01*
X70035003Y-54040500D01*
X70035006Y-54040500D01*
X97604996Y-54040500D01*
X97696040Y-54022389D01*
X97740328Y-54013580D01*
X97842737Y-53971161D01*
X97867807Y-53960777D01*
X97867808Y-53960776D01*
X97867811Y-53960775D01*
X97982543Y-53884114D01*
X98238589Y-53628066D01*
X98278808Y-53601193D01*
X98423179Y-53541394D01*
X98554289Y-53453789D01*
X98665789Y-53342289D01*
X98753394Y-53211179D01*
X98813737Y-53065497D01*
X98844500Y-52910842D01*
X98844500Y-52753158D01*
X98844500Y-52753155D01*
X98844499Y-52753153D01*
X98839830Y-52729682D01*
X98813737Y-52598503D01*
X98807125Y-52582539D01*
X98753397Y-52452827D01*
X98753390Y-52452814D01*
X98665789Y-52321711D01*
X98665786Y-52321707D01*
X98554292Y-52210213D01*
X98554288Y-52210210D01*
X98423185Y-52122609D01*
X98423172Y-52122602D01*
X98277501Y-52062264D01*
X98277489Y-52062261D01*
X98122845Y-52031500D01*
X98122842Y-52031500D01*
X97965158Y-52031500D01*
X97965155Y-52031500D01*
X97810510Y-52062261D01*
X97810498Y-52062264D01*
X97664827Y-52122602D01*
X97664814Y-52122609D01*
X97533711Y-52210210D01*
X97533707Y-52210213D01*
X97422213Y-52321707D01*
X97422210Y-52321711D01*
X97334609Y-52452814D01*
X97334602Y-52452827D01*
X97288988Y-52562952D01*
X97245147Y-52617356D01*
X97178853Y-52639421D01*
X97174427Y-52639500D01*
X96441584Y-52639500D01*
X96374545Y-52619815D01*
X96328790Y-52567011D01*
X96318972Y-52508095D01*
X96318313Y-52508095D01*
X96318313Y-52504143D01*
X96318181Y-52503351D01*
X96318313Y-52502010D01*
X96318313Y-51849996D01*
X96318312Y-51849992D01*
X96313622Y-51826412D01*
X96278904Y-51651873D01*
X96201599Y-51465244D01*
X96201597Y-51465241D01*
X96201595Y-51465237D01*
X96089371Y-51297281D01*
X95946531Y-51154441D01*
X95778575Y-51042217D01*
X95778565Y-51042212D01*
X95591940Y-50964909D01*
X95591932Y-50964907D01*
X95393820Y-50925500D01*
X95393816Y-50925500D01*
X95191810Y-50925500D01*
X95191805Y-50925500D01*
X94993693Y-50964907D01*
X94993681Y-50964910D01*
X94918834Y-50995913D01*
X94849365Y-51003382D01*
X94786886Y-50972106D01*
X94751234Y-50912017D01*
X94753728Y-50842192D01*
X94793576Y-50784800D01*
X94793941Y-50784507D01*
X96933537Y-49080166D01*
X96966542Y-49058114D01*
X96987372Y-49037283D01*
X97010417Y-49018927D01*
X97032696Y-48992570D01*
X97039714Y-48984941D01*
X97064114Y-48960542D01*
X97080481Y-48936046D01*
X97099500Y-48913549D01*
X97118720Y-48878817D01*
X97140775Y-48845811D01*
X97149374Y-48825048D01*
X97155437Y-48812471D01*
X97166314Y-48792817D01*
X97170849Y-48778612D01*
X97176811Y-48759944D01*
X97176812Y-48759940D01*
X97178390Y-48754996D01*
X97193580Y-48718328D01*
X97199327Y-48689435D01*
X97208289Y-48661371D01*
X97212755Y-48621927D01*
X97220500Y-48582993D01*
X97220500Y-48553534D01*
X97223815Y-48524259D01*
X97220932Y-48489864D01*
X97220500Y-48479510D01*
X97220500Y-47161316D01*
X97229939Y-47113864D01*
X97289735Y-46969501D01*
X97289737Y-46969497D01*
X97320500Y-46814842D01*
X97320500Y-46657158D01*
X97320500Y-46657155D01*
X97320499Y-46657153D01*
X97309639Y-46602557D01*
X97289737Y-46502503D01*
X97268197Y-46450500D01*
X97229399Y-46356830D01*
X97229390Y-46356814D01*
X97200626Y-46313766D01*
X112274500Y-46313766D01*
X112274500Y-46486233D01*
X112308143Y-46655366D01*
X112308146Y-46655378D01*
X112374138Y-46814698D01*
X112374145Y-46814711D01*
X112469954Y-46958098D01*
X112469957Y-46958102D01*
X112591897Y-47080042D01*
X112591901Y-47080045D01*
X112735288Y-47175854D01*
X112735301Y-47175861D01*
X112878151Y-47235031D01*
X112894626Y-47241855D01*
X113063766Y-47275499D01*
X113063769Y-47275500D01*
X113150500Y-47275500D01*
X113217539Y-47295185D01*
X113263294Y-47347989D01*
X113274500Y-47399500D01*
X113274500Y-48650001D01*
X113274501Y-48650018D01*
X113285000Y-48752796D01*
X113285001Y-48752799D01*
X113310656Y-48830220D01*
X113340186Y-48919334D01*
X113427257Y-49060500D01*
X113432289Y-49068657D01*
X113556344Y-49192712D01*
X113711558Y-49288448D01*
X113758283Y-49340396D01*
X113769506Y-49409358D01*
X113741663Y-49473441D01*
X113734144Y-49481668D01*
X113595271Y-49620541D01*
X113470379Y-49792442D01*
X113373904Y-49981782D01*
X113308242Y-50183870D01*
X113308242Y-50183873D01*
X113297769Y-50250000D01*
X114345854Y-50250000D01*
X114307370Y-50316657D01*
X114275000Y-50437465D01*
X114275000Y-50562535D01*
X114307370Y-50683343D01*
X114345854Y-50750000D01*
X113297769Y-50750000D01*
X113308242Y-50816126D01*
X113308242Y-50816129D01*
X113373904Y-51018217D01*
X113470379Y-51207557D01*
X113595272Y-51379459D01*
X113595276Y-51379464D01*
X113745535Y-51529723D01*
X113745540Y-51529727D01*
X113910218Y-51649372D01*
X113952884Y-51704701D01*
X113958863Y-51774315D01*
X113926258Y-51836110D01*
X113910218Y-51850008D01*
X113745214Y-51969890D01*
X113745209Y-51969894D01*
X113594890Y-52120213D01*
X113469951Y-52292179D01*
X113373444Y-52481585D01*
X113373443Y-52481587D01*
X113373443Y-52481588D01*
X113348109Y-52559557D01*
X113307753Y-52683760D01*
X113278901Y-52865924D01*
X113274500Y-52893713D01*
X113274500Y-53106287D01*
X113307754Y-53316243D01*
X113371801Y-53513359D01*
X113373444Y-53518414D01*
X113469951Y-53707820D01*
X113594890Y-53879786D01*
X113745213Y-54030109D01*
X113917179Y-54155048D01*
X113917181Y-54155049D01*
X113917184Y-54155051D01*
X114106588Y-54251557D01*
X114308757Y-54317246D01*
X114518713Y-54350500D01*
X114518714Y-54350500D01*
X114981286Y-54350500D01*
X114981287Y-54350500D01*
X115191243Y-54317246D01*
X115393412Y-54251557D01*
X115582816Y-54155051D01*
X115626379Y-54123401D01*
X115754786Y-54030109D01*
X115754788Y-54030106D01*
X115754792Y-54030104D01*
X115905104Y-53879792D01*
X115905106Y-53879788D01*
X115905109Y-53879786D01*
X116030048Y-53707820D01*
X116030047Y-53707820D01*
X116030051Y-53707816D01*
X116126557Y-53518412D01*
X116192246Y-53316243D01*
X116225500Y-53106287D01*
X116225500Y-52893713D01*
X116192246Y-52683757D01*
X116126557Y-52481588D01*
X116030051Y-52292184D01*
X116030049Y-52292181D01*
X116030048Y-52292179D01*
X115905109Y-52120213D01*
X115754790Y-51969894D01*
X115754785Y-51969890D01*
X115589781Y-51850008D01*
X115547115Y-51794678D01*
X115541136Y-51725065D01*
X115573741Y-51663270D01*
X115589781Y-51649371D01*
X115754466Y-51529721D01*
X115904723Y-51379464D01*
X115904727Y-51379459D01*
X116029620Y-51207557D01*
X116126095Y-51018217D01*
X116191757Y-50816129D01*
X116191757Y-50816126D01*
X116202231Y-50750000D01*
X115154146Y-50750000D01*
X115192630Y-50683343D01*
X115225000Y-50562535D01*
X115225000Y-50437465D01*
X115192630Y-50316657D01*
X115154146Y-50250000D01*
X116202231Y-50250000D01*
X116191757Y-50183873D01*
X116191757Y-50183870D01*
X116126095Y-49981782D01*
X116029620Y-49792442D01*
X115904727Y-49620540D01*
X115904723Y-49620535D01*
X115765856Y-49481668D01*
X115732371Y-49420345D01*
X115737355Y-49350653D01*
X115779227Y-49294720D01*
X115788441Y-49288448D01*
X115794331Y-49284814D01*
X115794334Y-49284814D01*
X115943656Y-49192712D01*
X116067712Y-49068656D01*
X116159814Y-48919334D01*
X116214999Y-48752797D01*
X116225500Y-48650009D01*
X116225499Y-47349992D01*
X116225294Y-47347989D01*
X116214999Y-47247203D01*
X116214998Y-47247200D01*
X116210966Y-47235031D01*
X116159814Y-47080666D01*
X116067712Y-46931344D01*
X115943656Y-46807288D01*
X115828079Y-46736000D01*
X115794336Y-46715187D01*
X115794331Y-46715185D01*
X115740991Y-46697510D01*
X115627797Y-46660001D01*
X115627795Y-46660000D01*
X115525016Y-46649500D01*
X115525009Y-46649500D01*
X114144118Y-46649500D01*
X114077079Y-46629815D01*
X114031324Y-46577011D01*
X114021380Y-46507853D01*
X114022501Y-46501308D01*
X114025500Y-46486231D01*
X114025500Y-46313768D01*
X114025499Y-46313766D01*
X114021964Y-46295996D01*
X113991855Y-46144626D01*
X113991853Y-46144621D01*
X113925861Y-45985301D01*
X113925854Y-45985288D01*
X113830045Y-45841901D01*
X113830042Y-45841897D01*
X113708102Y-45719957D01*
X113708098Y-45719954D01*
X113564711Y-45624145D01*
X113564698Y-45624138D01*
X113405378Y-45558146D01*
X113405366Y-45558143D01*
X113236232Y-45524500D01*
X113236229Y-45524500D01*
X113063771Y-45524500D01*
X113063768Y-45524500D01*
X112894633Y-45558143D01*
X112894621Y-45558146D01*
X112735301Y-45624138D01*
X112735288Y-45624145D01*
X112591901Y-45719954D01*
X112591897Y-45719957D01*
X112469957Y-45841897D01*
X112469954Y-45841901D01*
X112374145Y-45985288D01*
X112374138Y-45985301D01*
X112308146Y-46144621D01*
X112308143Y-46144633D01*
X112274500Y-46313766D01*
X97200626Y-46313766D01*
X97141789Y-46225711D01*
X97141786Y-46225707D01*
X97030292Y-46114213D01*
X97030288Y-46114210D01*
X96899185Y-46026609D01*
X96899172Y-46026602D01*
X96753501Y-45966264D01*
X96753489Y-45966261D01*
X96598845Y-45935500D01*
X96598842Y-45935500D01*
X96441158Y-45935500D01*
X96441155Y-45935500D01*
X96286510Y-45966261D01*
X96286498Y-45966264D01*
X96140827Y-46026602D01*
X96140814Y-46026609D01*
X96009711Y-46114210D01*
X96009707Y-46114213D01*
X95898213Y-46225707D01*
X95898210Y-46225711D01*
X95810609Y-46356814D01*
X95810602Y-46356827D01*
X95750264Y-46502498D01*
X95750261Y-46502510D01*
X95719500Y-46657153D01*
X95719500Y-46814846D01*
X95750261Y-46969489D01*
X95750264Y-46969501D01*
X95810061Y-47113864D01*
X95819500Y-47161316D01*
X95819500Y-48116660D01*
X95799815Y-48183699D01*
X95772759Y-48213650D01*
X93613334Y-49933786D01*
X93609268Y-49937024D01*
X93576271Y-49959073D01*
X93555445Y-49979897D01*
X93549970Y-49984259D01*
X93549971Y-49984259D01*
X93532394Y-49998261D01*
X93510115Y-50024614D01*
X93503108Y-50032234D01*
X93478699Y-50056645D01*
X93478696Y-50056648D01*
X93466216Y-50075325D01*
X93466215Y-50075324D01*
X93462321Y-50081151D01*
X93443313Y-50103638D01*
X93424101Y-50138352D01*
X93421218Y-50142668D01*
X93421212Y-50142680D01*
X93402037Y-50171377D01*
X93393438Y-50192131D01*
X93393439Y-50192132D01*
X93390758Y-50198603D01*
X93376500Y-50224370D01*
X93364430Y-50262164D01*
X93362441Y-50266967D01*
X93349233Y-50298856D01*
X93349230Y-50298868D01*
X93344848Y-50320889D01*
X93344849Y-50320890D01*
X93343481Y-50327762D01*
X93334524Y-50355816D01*
X93330060Y-50395234D01*
X93329047Y-50400329D01*
X93329046Y-50400339D01*
X93323502Y-50428215D01*
X93322313Y-50434194D01*
X93322313Y-50463659D01*
X93318999Y-50492928D01*
X93322313Y-50532480D01*
X93322313Y-50802000D01*
X93302628Y-50869039D01*
X93249824Y-50914794D01*
X93198313Y-50926000D01*
X93002813Y-50926000D01*
X93002813Y-51810134D01*
X93002781Y-51812953D01*
X93002535Y-51823740D01*
X92997313Y-51849997D01*
X92997313Y-51890170D01*
X92983068Y-51875925D01*
X92897558Y-51826556D01*
X92802183Y-51801000D01*
X92703443Y-51801000D01*
X92608068Y-51826556D01*
X92522558Y-51875925D01*
X92502813Y-51895670D01*
X92502813Y-50926000D01*
X92179968Y-50926000D01*
X92120440Y-50932401D01*
X92120433Y-50932403D01*
X91985726Y-50982645D01*
X91985719Y-50982649D01*
X91870625Y-51068809D01*
X91870622Y-51068812D01*
X91784462Y-51183906D01*
X91784458Y-51183913D01*
X91734216Y-51318620D01*
X91734214Y-51318627D01*
X91727813Y-51378155D01*
X91727813Y-51926000D01*
X92472483Y-51926000D01*
X92452738Y-51945745D01*
X92403369Y-52031255D01*
X92377813Y-52126630D01*
X92377813Y-52225370D01*
X92403369Y-52320745D01*
X92452738Y-52406255D01*
X92472483Y-52426000D01*
X91727813Y-52426000D01*
X91727813Y-52515500D01*
X91708128Y-52582539D01*
X91655324Y-52628294D01*
X91603813Y-52639500D01*
X70445519Y-52639500D01*
X70378480Y-52619815D01*
X70357838Y-52603181D01*
X69824819Y-52070162D01*
X69791334Y-52008839D01*
X69788500Y-51982481D01*
X69788500Y-51483153D01*
X75145500Y-51483153D01*
X75145500Y-51640846D01*
X75176261Y-51795489D01*
X75176264Y-51795501D01*
X75236602Y-51941172D01*
X75236609Y-51941185D01*
X75324210Y-52072288D01*
X75324213Y-52072292D01*
X75435707Y-52183786D01*
X75435711Y-52183789D01*
X75566814Y-52271390D01*
X75566827Y-52271397D01*
X75688288Y-52321707D01*
X75712503Y-52331737D01*
X75867093Y-52362487D01*
X75867153Y-52362499D01*
X75867156Y-52362500D01*
X75867158Y-52362500D01*
X76024844Y-52362500D01*
X76024845Y-52362499D01*
X76179497Y-52331737D01*
X76325179Y-52271394D01*
X76456289Y-52183789D01*
X80178259Y-48461819D01*
X80239582Y-48428334D01*
X80265940Y-48425500D01*
X85016967Y-48425500D01*
X85084006Y-48445185D01*
X85111252Y-48468962D01*
X85114035Y-48472220D01*
X85258786Y-48616971D01*
X85398295Y-48718328D01*
X85424390Y-48737287D01*
X85533360Y-48792810D01*
X85606776Y-48830218D01*
X85606778Y-48830218D01*
X85606781Y-48830220D01*
X85711137Y-48864127D01*
X85801465Y-48893477D01*
X85902557Y-48909488D01*
X86003648Y-48925500D01*
X86003649Y-48925500D01*
X86208351Y-48925500D01*
X86208352Y-48925500D01*
X86410534Y-48893477D01*
X86605219Y-48830220D01*
X86787610Y-48737287D01*
X86892103Y-48661369D01*
X86953213Y-48616971D01*
X86953215Y-48616968D01*
X86953219Y-48616966D01*
X87097966Y-48472219D01*
X87097968Y-48472215D01*
X87097971Y-48472213D01*
X87160286Y-48386442D01*
X87218287Y-48306610D01*
X87311220Y-48124219D01*
X87374477Y-47929534D01*
X87406500Y-47727352D01*
X87406500Y-47522648D01*
X87386995Y-47399500D01*
X87374477Y-47320465D01*
X87311218Y-47125776D01*
X87277503Y-47059607D01*
X87218287Y-46943390D01*
X87197410Y-46914655D01*
X87097971Y-46777786D01*
X86953213Y-46633028D01*
X86787613Y-46512715D01*
X86787612Y-46512714D01*
X86787610Y-46512713D01*
X86730653Y-46483691D01*
X86605223Y-46419781D01*
X86410534Y-46356522D01*
X86235995Y-46328878D01*
X86208352Y-46324500D01*
X86003648Y-46324500D01*
X85979329Y-46328351D01*
X85801465Y-46356522D01*
X85606776Y-46419781D01*
X85424386Y-46512715D01*
X85258786Y-46633028D01*
X85114035Y-46777779D01*
X85111252Y-46781038D01*
X85052742Y-46819227D01*
X85016967Y-46824500D01*
X79804155Y-46824500D01*
X79649510Y-46855261D01*
X79649498Y-46855264D01*
X79503827Y-46915602D01*
X79503814Y-46915609D01*
X79372711Y-47003210D01*
X79372707Y-47003213D01*
X75324213Y-51051707D01*
X75324210Y-51051711D01*
X75236609Y-51182814D01*
X75236602Y-51182827D01*
X75176264Y-51328498D01*
X75176261Y-51328510D01*
X75145500Y-51483153D01*
X69788500Y-51483153D01*
X69788500Y-44347682D01*
X84806000Y-44347682D01*
X84806000Y-44552317D01*
X84838009Y-44754417D01*
X84901244Y-44949031D01*
X84994141Y-45131350D01*
X84994147Y-45131359D01*
X85026523Y-45175921D01*
X85026524Y-45175922D01*
X85706000Y-44496446D01*
X85706000Y-44502661D01*
X85733259Y-44604394D01*
X85785920Y-44695606D01*
X85860394Y-44770080D01*
X85951606Y-44822741D01*
X86053339Y-44850000D01*
X86059553Y-44850000D01*
X85380076Y-45529474D01*
X85424650Y-45561859D01*
X85606968Y-45654755D01*
X85801582Y-45717990D01*
X86003683Y-45750000D01*
X86208317Y-45750000D01*
X86410417Y-45717990D01*
X86605031Y-45654755D01*
X86787349Y-45561859D01*
X86831921Y-45529474D01*
X86152447Y-44850000D01*
X86158661Y-44850000D01*
X86260394Y-44822741D01*
X86351606Y-44770080D01*
X86426080Y-44695606D01*
X86478741Y-44604394D01*
X86506000Y-44502661D01*
X86506000Y-44496447D01*
X87185474Y-45175921D01*
X87217859Y-45131349D01*
X87310755Y-44949031D01*
X87373990Y-44754417D01*
X87406000Y-44552317D01*
X87406000Y-44347682D01*
X87373990Y-44145582D01*
X87310755Y-43950968D01*
X87217859Y-43768650D01*
X87185474Y-43724077D01*
X87185474Y-43724076D01*
X86506000Y-44403551D01*
X86506000Y-44397339D01*
X86478741Y-44295606D01*
X86426080Y-44204394D01*
X86351606Y-44129920D01*
X86260394Y-44077259D01*
X86158661Y-44050000D01*
X86152446Y-44050000D01*
X86831922Y-43370524D01*
X86831921Y-43370523D01*
X86787359Y-43338147D01*
X86787350Y-43338141D01*
X86605031Y-43245244D01*
X86410417Y-43182009D01*
X86208317Y-43150000D01*
X86003683Y-43150000D01*
X85801582Y-43182009D01*
X85606968Y-43245244D01*
X85424644Y-43338143D01*
X85380077Y-43370523D01*
X85380077Y-43370524D01*
X86059554Y-44050000D01*
X86053339Y-44050000D01*
X85951606Y-44077259D01*
X85860394Y-44129920D01*
X85785920Y-44204394D01*
X85733259Y-44295606D01*
X85706000Y-44397339D01*
X85706000Y-44403553D01*
X85026524Y-43724077D01*
X85026523Y-43724077D01*
X84994143Y-43768644D01*
X84901244Y-43950968D01*
X84838009Y-44145582D01*
X84806000Y-44347682D01*
X69788500Y-44347682D01*
X69788500Y-38021153D01*
X72859500Y-38021153D01*
X72859500Y-38178846D01*
X72890261Y-38333489D01*
X72890264Y-38333501D01*
X72950602Y-38479171D01*
X72950609Y-38479184D01*
X72990650Y-38539109D01*
X73011528Y-38605787D01*
X72993043Y-38673167D01*
X72990650Y-38676891D01*
X72950609Y-38736815D01*
X72950602Y-38736828D01*
X72890264Y-38882498D01*
X72890261Y-38882510D01*
X72859500Y-39037153D01*
X72859500Y-39194846D01*
X72890261Y-39349489D01*
X72890264Y-39349501D01*
X72950602Y-39495172D01*
X72950609Y-39495185D01*
X73038210Y-39626288D01*
X73038213Y-39626292D01*
X73149707Y-39737786D01*
X73149711Y-39737789D01*
X73280814Y-39825390D01*
X73280827Y-39825397D01*
X73425185Y-39885191D01*
X73432117Y-39889823D01*
X73437160Y-39890920D01*
X73465410Y-39912067D01*
X73623886Y-40070542D01*
X73704630Y-40151286D01*
X73721459Y-40168115D01*
X73836182Y-40244771D01*
X73836186Y-40244773D01*
X73836189Y-40244775D01*
X73910866Y-40275707D01*
X73963671Y-40297580D01*
X73990591Y-40302934D01*
X74087630Y-40322237D01*
X74099006Y-40324500D01*
X74099007Y-40324500D01*
X84945708Y-40324500D01*
X85012747Y-40344185D01*
X85058502Y-40396989D01*
X85068446Y-40466147D01*
X85046027Y-40521385D01*
X84993712Y-40593390D01*
X84900781Y-40775776D01*
X84837522Y-40970465D01*
X84805500Y-41172648D01*
X84805500Y-41377351D01*
X84837522Y-41579534D01*
X84900781Y-41774223D01*
X84947042Y-41865013D01*
X84988386Y-41946156D01*
X84993715Y-41956613D01*
X85114028Y-42122213D01*
X85258786Y-42266971D01*
X85399436Y-42369157D01*
X85424390Y-42387287D01*
X85540607Y-42446503D01*
X85606776Y-42480218D01*
X85606778Y-42480218D01*
X85606781Y-42480220D01*
X85711137Y-42514127D01*
X85801465Y-42543477D01*
X85852764Y-42551602D01*
X86003648Y-42575500D01*
X86003649Y-42575500D01*
X86208351Y-42575500D01*
X86208352Y-42575500D01*
X86410534Y-42543477D01*
X86605219Y-42480220D01*
X86787610Y-42387287D01*
X86882434Y-42318394D01*
X86953213Y-42266971D01*
X86953215Y-42266968D01*
X86953219Y-42266966D01*
X87097966Y-42122219D01*
X87097968Y-42122215D01*
X87097971Y-42122213D01*
X87218286Y-41956611D01*
X87223614Y-41946156D01*
X87265424Y-41864097D01*
X87313398Y-41813301D01*
X87381219Y-41796506D01*
X87444800Y-41817290D01*
X87504814Y-41857390D01*
X87504818Y-41857392D01*
X87504821Y-41857394D01*
X87614955Y-41903012D01*
X87669355Y-41946851D01*
X87691421Y-42013145D01*
X87691500Y-42017572D01*
X87691500Y-48934481D01*
X87671815Y-49001520D01*
X87655181Y-49022162D01*
X86614162Y-50063181D01*
X86552839Y-50096666D01*
X86526481Y-50099500D01*
X84753316Y-50099500D01*
X84705864Y-50090061D01*
X84561501Y-50030264D01*
X84561489Y-50030261D01*
X84406845Y-49999500D01*
X84406842Y-49999500D01*
X84249158Y-49999500D01*
X84249155Y-49999500D01*
X84094510Y-50030261D01*
X84094498Y-50030264D01*
X83948827Y-50090602D01*
X83948814Y-50090609D01*
X83817711Y-50178210D01*
X83817707Y-50178213D01*
X83706213Y-50289707D01*
X83706210Y-50289711D01*
X83618609Y-50420814D01*
X83618602Y-50420827D01*
X83558264Y-50566498D01*
X83558261Y-50566510D01*
X83527500Y-50721153D01*
X83527500Y-50878846D01*
X83558261Y-51033489D01*
X83558264Y-51033501D01*
X83618602Y-51179172D01*
X83618609Y-51179185D01*
X83706210Y-51310288D01*
X83706213Y-51310292D01*
X83817707Y-51421786D01*
X83817711Y-51421789D01*
X83948814Y-51509390D01*
X83948827Y-51509397D01*
X84079501Y-51563523D01*
X84094503Y-51569737D01*
X84249153Y-51600499D01*
X84249156Y-51600500D01*
X84249158Y-51600500D01*
X84406844Y-51600500D01*
X84406845Y-51600499D01*
X84561497Y-51569737D01*
X84653810Y-51531500D01*
X84705864Y-51509939D01*
X84753316Y-51500500D01*
X86936996Y-51500500D01*
X87028040Y-51482389D01*
X87072328Y-51473580D01*
X87136069Y-51447177D01*
X87199807Y-51420777D01*
X87199808Y-51420776D01*
X87199811Y-51420775D01*
X87314543Y-51344114D01*
X87340037Y-51318620D01*
X87371488Y-51287170D01*
X88936108Y-49722548D01*
X88936107Y-49722548D01*
X88936113Y-49722543D01*
X88971081Y-49670211D01*
X88974011Y-49665827D01*
X89012768Y-49607821D01*
X89012775Y-49607811D01*
X89050532Y-49516657D01*
X89065580Y-49480329D01*
X89070934Y-49453409D01*
X89092500Y-49344993D01*
X89092500Y-48699007D01*
X89092500Y-47522648D01*
X92425500Y-47522648D01*
X92425500Y-47727351D01*
X92457522Y-47929534D01*
X92520781Y-48124223D01*
X92565077Y-48211157D01*
X92611402Y-48302075D01*
X92613715Y-48306613D01*
X92734028Y-48472213D01*
X92878786Y-48616971D01*
X93018295Y-48718328D01*
X93044390Y-48737287D01*
X93153360Y-48792810D01*
X93226776Y-48830218D01*
X93226778Y-48830218D01*
X93226781Y-48830220D01*
X93331137Y-48864127D01*
X93421465Y-48893477D01*
X93522557Y-48909488D01*
X93623648Y-48925500D01*
X93623649Y-48925500D01*
X93828351Y-48925500D01*
X93828352Y-48925500D01*
X94030534Y-48893477D01*
X94225219Y-48830220D01*
X94407610Y-48737287D01*
X94512103Y-48661369D01*
X94573213Y-48616971D01*
X94573215Y-48616968D01*
X94573219Y-48616966D01*
X94717966Y-48472219D01*
X94717968Y-48472215D01*
X94717971Y-48472213D01*
X94780286Y-48386442D01*
X94838287Y-48306610D01*
X94931220Y-48124219D01*
X94994477Y-47929534D01*
X95026500Y-47727352D01*
X95026500Y-47522648D01*
X95006995Y-47399500D01*
X94994477Y-47320465D01*
X94931218Y-47125776D01*
X94897503Y-47059607D01*
X94838287Y-46943390D01*
X94817410Y-46914655D01*
X94717971Y-46777786D01*
X94573213Y-46633028D01*
X94407613Y-46512715D01*
X94407612Y-46512714D01*
X94407610Y-46512713D01*
X94350653Y-46483691D01*
X94225223Y-46419781D01*
X94030534Y-46356522D01*
X93855995Y-46328878D01*
X93828352Y-46324500D01*
X93623648Y-46324500D01*
X93599329Y-46328351D01*
X93421465Y-46356522D01*
X93226776Y-46419781D01*
X93044386Y-46512715D01*
X92878786Y-46633028D01*
X92734028Y-46777786D01*
X92613715Y-46943386D01*
X92520781Y-47125776D01*
X92457522Y-47320465D01*
X92425500Y-47522648D01*
X89092500Y-47522648D01*
X89092500Y-44347648D01*
X92425500Y-44347648D01*
X92425500Y-44552351D01*
X92457522Y-44754534D01*
X92520781Y-44949223D01*
X92544415Y-44995606D01*
X92613585Y-45131359D01*
X92613715Y-45131613D01*
X92734028Y-45297213D01*
X92878786Y-45441971D01*
X93001665Y-45531246D01*
X93044390Y-45562287D01*
X93160607Y-45621503D01*
X93226776Y-45655218D01*
X93226778Y-45655218D01*
X93226781Y-45655220D01*
X93331137Y-45689127D01*
X93421465Y-45718477D01*
X93522557Y-45734488D01*
X93623648Y-45750500D01*
X93623649Y-45750500D01*
X93828351Y-45750500D01*
X93828352Y-45750500D01*
X94030534Y-45718477D01*
X94225219Y-45655220D01*
X94407610Y-45562287D01*
X94512614Y-45485998D01*
X94573213Y-45441971D01*
X94573215Y-45441968D01*
X94573219Y-45441966D01*
X94717966Y-45297219D01*
X94717968Y-45297215D01*
X94717971Y-45297213D01*
X94772162Y-45222624D01*
X94838287Y-45131610D01*
X94931220Y-44949219D01*
X94994477Y-44754534D01*
X95011401Y-44647682D01*
X103200000Y-44647682D01*
X103200000Y-44852317D01*
X103232009Y-45054417D01*
X103295244Y-45249031D01*
X103388141Y-45431350D01*
X103388147Y-45431359D01*
X103420523Y-45475921D01*
X103420524Y-45475922D01*
X104100000Y-44796446D01*
X104100000Y-44802661D01*
X104127259Y-44904394D01*
X104179920Y-44995606D01*
X104254394Y-45070080D01*
X104345606Y-45122741D01*
X104447339Y-45150000D01*
X104453553Y-45150000D01*
X103774076Y-45829474D01*
X103818650Y-45861859D01*
X104000968Y-45954755D01*
X104195582Y-46017990D01*
X104397683Y-46050000D01*
X104602317Y-46050000D01*
X104804417Y-46017990D01*
X104999031Y-45954755D01*
X105181349Y-45861859D01*
X105225921Y-45829474D01*
X104546447Y-45150000D01*
X104552661Y-45150000D01*
X104654394Y-45122741D01*
X104745606Y-45070080D01*
X104820080Y-44995606D01*
X104872741Y-44904394D01*
X104900000Y-44802661D01*
X104900000Y-44796448D01*
X105579474Y-45475922D01*
X105579474Y-45475921D01*
X105611859Y-45431349D01*
X105704755Y-45249031D01*
X105767990Y-45054417D01*
X105800000Y-44852317D01*
X105800000Y-44647682D01*
X105799995Y-44647648D01*
X108199500Y-44647648D01*
X108199500Y-44852351D01*
X108231522Y-45054534D01*
X108294781Y-45249223D01*
X108355624Y-45368632D01*
X108387585Y-45431359D01*
X108387715Y-45431613D01*
X108508028Y-45597213D01*
X108652786Y-45741971D01*
X108773226Y-45829474D01*
X108818390Y-45862287D01*
X108934607Y-45921503D01*
X109000776Y-45955218D01*
X109000778Y-45955218D01*
X109000781Y-45955220D01*
X109093321Y-45985288D01*
X109195465Y-46018477D01*
X109296557Y-46034488D01*
X109397648Y-46050500D01*
X109397649Y-46050500D01*
X109602351Y-46050500D01*
X109602352Y-46050500D01*
X109804534Y-46018477D01*
X109999219Y-45955220D01*
X110181610Y-45862287D01*
X110306073Y-45771860D01*
X110347213Y-45741971D01*
X110347215Y-45741968D01*
X110347219Y-45741966D01*
X110491966Y-45597219D01*
X110491968Y-45597215D01*
X110491971Y-45597213D01*
X110544799Y-45524500D01*
X110612287Y-45431610D01*
X110705220Y-45249219D01*
X110768477Y-45054534D01*
X110800500Y-44852352D01*
X110800500Y-44647648D01*
X110781129Y-44525344D01*
X110768477Y-44445465D01*
X110727344Y-44318872D01*
X110705220Y-44250781D01*
X110705218Y-44250778D01*
X110705218Y-44250776D01*
X110651559Y-44145466D01*
X110612287Y-44068390D01*
X110580092Y-44024077D01*
X110491971Y-43902786D01*
X110347213Y-43758028D01*
X110181613Y-43637715D01*
X110181612Y-43637714D01*
X110181610Y-43637713D01*
X110124653Y-43608691D01*
X109999223Y-43544781D01*
X109804534Y-43481522D01*
X109629995Y-43453878D01*
X109602352Y-43449500D01*
X109397648Y-43449500D01*
X109373329Y-43453351D01*
X109195465Y-43481522D01*
X109000776Y-43544781D01*
X108818386Y-43637715D01*
X108652786Y-43758028D01*
X108508028Y-43902786D01*
X108387715Y-44068386D01*
X108294781Y-44250776D01*
X108231522Y-44445465D01*
X108199500Y-44647648D01*
X105799995Y-44647648D01*
X105767990Y-44445582D01*
X105704755Y-44250968D01*
X105611859Y-44068650D01*
X105579474Y-44024077D01*
X105579474Y-44024076D01*
X104900000Y-44703551D01*
X104900000Y-44697339D01*
X104872741Y-44595606D01*
X104820080Y-44504394D01*
X104745606Y-44429920D01*
X104654394Y-44377259D01*
X104552661Y-44350000D01*
X104546446Y-44350000D01*
X105225922Y-43670524D01*
X105225921Y-43670523D01*
X105181359Y-43638147D01*
X105181350Y-43638141D01*
X104999031Y-43545244D01*
X104804417Y-43482009D01*
X104602317Y-43450000D01*
X104397683Y-43450000D01*
X104195582Y-43482009D01*
X104000968Y-43545244D01*
X103818644Y-43638143D01*
X103774077Y-43670523D01*
X103774077Y-43670524D01*
X104453554Y-44350000D01*
X104447339Y-44350000D01*
X104345606Y-44377259D01*
X104254394Y-44429920D01*
X104179920Y-44504394D01*
X104127259Y-44595606D01*
X104100000Y-44697339D01*
X104100000Y-44703553D01*
X103420524Y-44024077D01*
X103420523Y-44024077D01*
X103388143Y-44068644D01*
X103295244Y-44250968D01*
X103232009Y-44445582D01*
X103200000Y-44647682D01*
X95011401Y-44647682D01*
X95026500Y-44552352D01*
X95026500Y-44347648D01*
X95011157Y-44250776D01*
X94994477Y-44145465D01*
X94955035Y-44024076D01*
X94931220Y-43950781D01*
X94931218Y-43950778D01*
X94931218Y-43950776D01*
X94841185Y-43774078D01*
X94838284Y-43768385D01*
X94717971Y-43602786D01*
X94573213Y-43458028D01*
X94407613Y-43337715D01*
X94407612Y-43337714D01*
X94407610Y-43337713D01*
X94346744Y-43306700D01*
X94225223Y-43244781D01*
X94030534Y-43181522D01*
X93855995Y-43153878D01*
X93828352Y-43149500D01*
X93623648Y-43149500D01*
X93599329Y-43153351D01*
X93421465Y-43181522D01*
X93226776Y-43244781D01*
X93044386Y-43337715D01*
X92878786Y-43458028D01*
X92734028Y-43602786D01*
X92613715Y-43768386D01*
X92520781Y-43950776D01*
X92457522Y-44145465D01*
X92425500Y-44347648D01*
X89092500Y-44347648D01*
X89092500Y-41587007D01*
X89092500Y-41587004D01*
X89070934Y-41478591D01*
X89065580Y-41451671D01*
X89029137Y-41363691D01*
X89012775Y-41324189D01*
X89012774Y-41324187D01*
X89012773Y-41324185D01*
X88936115Y-41209459D01*
X88899303Y-41172647D01*
X88838542Y-41111886D01*
X88680069Y-40953412D01*
X88653191Y-40913185D01*
X88593397Y-40768827D01*
X88593390Y-40768814D01*
X88505789Y-40637711D01*
X88505786Y-40637707D01*
X88404260Y-40536181D01*
X88370775Y-40474858D01*
X88375759Y-40405166D01*
X88417631Y-40349233D01*
X88483095Y-40324816D01*
X88491941Y-40324500D01*
X92397996Y-40324500D01*
X92506412Y-40302934D01*
X92533328Y-40297580D01*
X92549555Y-40290858D01*
X92619020Y-40283389D01*
X92681500Y-40314662D01*
X92717154Y-40374749D01*
X92714663Y-40444575D01*
X92697326Y-40478303D01*
X92613714Y-40593387D01*
X92520781Y-40775776D01*
X92457522Y-40970465D01*
X92425500Y-41172648D01*
X92425500Y-41377351D01*
X92457522Y-41579534D01*
X92520781Y-41774223D01*
X92567042Y-41865013D01*
X92608386Y-41946156D01*
X92613715Y-41956613D01*
X92734028Y-42122213D01*
X92878786Y-42266971D01*
X93019436Y-42369157D01*
X93044390Y-42387287D01*
X93160607Y-42446503D01*
X93226776Y-42480218D01*
X93226778Y-42480218D01*
X93226781Y-42480220D01*
X93331137Y-42514127D01*
X93421465Y-42543477D01*
X93472764Y-42551602D01*
X93623648Y-42575500D01*
X93623649Y-42575500D01*
X93828351Y-42575500D01*
X93828352Y-42575500D01*
X94030534Y-42543477D01*
X94225219Y-42480220D01*
X94407610Y-42387287D01*
X94502434Y-42318394D01*
X94573213Y-42266971D01*
X94573215Y-42266968D01*
X94573219Y-42266966D01*
X94717966Y-42122219D01*
X94717968Y-42122215D01*
X94717971Y-42122213D01*
X94761949Y-42061682D01*
X98268000Y-42061682D01*
X98268000Y-42266317D01*
X98300009Y-42468417D01*
X98363244Y-42663031D01*
X98456141Y-42845350D01*
X98456147Y-42845359D01*
X98488523Y-42889921D01*
X98488524Y-42889922D01*
X99168000Y-42210446D01*
X99168000Y-42216661D01*
X99195259Y-42318394D01*
X99247920Y-42409606D01*
X99322394Y-42484080D01*
X99413606Y-42536741D01*
X99515339Y-42564000D01*
X99521553Y-42564000D01*
X98842076Y-43243474D01*
X98886650Y-43275859D01*
X99068968Y-43368755D01*
X99263582Y-43431990D01*
X99465683Y-43464000D01*
X99670317Y-43464000D01*
X99872417Y-43431990D01*
X100067031Y-43368755D01*
X100249349Y-43275859D01*
X100293921Y-43243474D01*
X99614447Y-42564000D01*
X99620661Y-42564000D01*
X99722394Y-42536741D01*
X99813606Y-42484080D01*
X99888080Y-42409606D01*
X99940741Y-42318394D01*
X99968000Y-42216661D01*
X99968000Y-42210447D01*
X100647474Y-42889921D01*
X100679859Y-42845349D01*
X100772755Y-42663031D01*
X100835990Y-42468417D01*
X100868000Y-42266317D01*
X100868000Y-42061682D01*
X100835990Y-41859582D01*
X100772755Y-41664968D01*
X100679859Y-41482650D01*
X100647474Y-41438077D01*
X100647474Y-41438076D01*
X99968000Y-42117551D01*
X99968000Y-42111339D01*
X99940741Y-42009606D01*
X99888080Y-41918394D01*
X99813606Y-41843920D01*
X99722394Y-41791259D01*
X99620661Y-41764000D01*
X99614446Y-41764000D01*
X100293922Y-41084524D01*
X100293921Y-41084523D01*
X100249359Y-41052147D01*
X100249350Y-41052141D01*
X100067031Y-40959244D01*
X99872417Y-40896009D01*
X99670317Y-40864000D01*
X99465683Y-40864000D01*
X99263582Y-40896009D01*
X99068968Y-40959244D01*
X98886644Y-41052143D01*
X98842077Y-41084523D01*
X98842077Y-41084524D01*
X99521554Y-41764000D01*
X99515339Y-41764000D01*
X99413606Y-41791259D01*
X99322394Y-41843920D01*
X99247920Y-41918394D01*
X99195259Y-42009606D01*
X99168000Y-42111339D01*
X99168000Y-42117553D01*
X98488524Y-41438077D01*
X98488523Y-41438077D01*
X98456143Y-41482644D01*
X98363244Y-41664968D01*
X98300009Y-41859582D01*
X98268000Y-42061682D01*
X94761949Y-42061682D01*
X94818438Y-41983931D01*
X94827620Y-41971290D01*
X94838287Y-41956610D01*
X94931220Y-41774219D01*
X94994477Y-41579534D01*
X95026500Y-41377352D01*
X95026500Y-41172648D01*
X95012542Y-41084524D01*
X94994477Y-40970465D01*
X94931218Y-40775776D01*
X94897503Y-40709607D01*
X94838287Y-40593390D01*
X94830556Y-40582749D01*
X94717971Y-40427786D01*
X94573213Y-40283028D01*
X94407613Y-40162715D01*
X94407612Y-40162714D01*
X94407610Y-40162713D01*
X94350653Y-40133691D01*
X94225223Y-40069781D01*
X94030534Y-40006522D01*
X93855995Y-39978878D01*
X93828352Y-39974500D01*
X93623648Y-39974500D01*
X93599329Y-39978351D01*
X93421465Y-40006522D01*
X93226773Y-40069782D01*
X93204837Y-40080960D01*
X93136167Y-40093856D01*
X93071427Y-40067579D01*
X93031171Y-40010472D01*
X93028179Y-39940666D01*
X93060862Y-39882794D01*
X93143656Y-39800000D01*
X93399852Y-39543802D01*
X93461173Y-39510319D01*
X93506923Y-39509012D01*
X93623648Y-39527500D01*
X93623650Y-39527500D01*
X93828351Y-39527500D01*
X93828352Y-39527500D01*
X94030534Y-39495477D01*
X94225219Y-39432220D01*
X94407610Y-39339287D01*
X94511210Y-39264018D01*
X94573213Y-39218971D01*
X94573215Y-39218968D01*
X94573219Y-39218966D01*
X94717966Y-39074219D01*
X94717968Y-39074215D01*
X94717971Y-39074213D01*
X94772593Y-38999031D01*
X94838287Y-38908610D01*
X94931220Y-38726219D01*
X94994477Y-38531534D01*
X95026500Y-38329352D01*
X95026500Y-38124648D01*
X95016892Y-38063983D01*
X98267500Y-38063983D01*
X98267500Y-39264001D01*
X98267501Y-39264018D01*
X98278000Y-39366796D01*
X98278001Y-39366799D01*
X98330950Y-39526585D01*
X98333186Y-39533334D01*
X98425288Y-39682656D01*
X98549344Y-39806712D01*
X98698666Y-39898814D01*
X98865203Y-39953999D01*
X98967991Y-39964500D01*
X100168008Y-39964499D01*
X100270797Y-39953999D01*
X100437334Y-39898814D01*
X100586656Y-39806712D01*
X100710712Y-39682656D01*
X100802814Y-39533334D01*
X100857999Y-39366797D01*
X100868500Y-39264009D01*
X100868499Y-38397648D01*
X104951500Y-38397648D01*
X104951500Y-38602351D01*
X104983522Y-38804534D01*
X105046781Y-38999223D01*
X105086672Y-39077512D01*
X105139585Y-39181359D01*
X105139715Y-39181613D01*
X105260028Y-39347213D01*
X105404786Y-39491971D01*
X105525226Y-39579474D01*
X105570390Y-39612287D01*
X105668913Y-39662487D01*
X105752776Y-39705218D01*
X105752778Y-39705218D01*
X105752781Y-39705220D01*
X105825230Y-39728760D01*
X105947465Y-39768477D01*
X106048557Y-39784488D01*
X106149648Y-39800500D01*
X106149649Y-39800500D01*
X106354351Y-39800500D01*
X106354352Y-39800500D01*
X106556534Y-39768477D01*
X106751219Y-39705220D01*
X106933610Y-39612287D01*
X107042278Y-39533336D01*
X107099213Y-39491971D01*
X107099215Y-39491968D01*
X107099219Y-39491966D01*
X107243966Y-39347219D01*
X107243968Y-39347215D01*
X107243971Y-39347213D01*
X107300299Y-39269682D01*
X107364287Y-39181610D01*
X107457220Y-38999219D01*
X107520477Y-38804534D01*
X107552500Y-38602352D01*
X107552500Y-38397682D01*
X109952000Y-38397682D01*
X109952000Y-38602317D01*
X109984009Y-38804417D01*
X110047244Y-38999031D01*
X110140141Y-39181350D01*
X110140147Y-39181359D01*
X110172523Y-39225921D01*
X110172524Y-39225922D01*
X110852000Y-38546446D01*
X110852000Y-38552661D01*
X110879259Y-38654394D01*
X110931920Y-38745606D01*
X111006394Y-38820080D01*
X111097606Y-38872741D01*
X111199339Y-38900000D01*
X111205553Y-38900000D01*
X110526076Y-39579474D01*
X110570650Y-39611859D01*
X110752968Y-39704755D01*
X110947582Y-39767990D01*
X111149683Y-39800000D01*
X111354317Y-39800000D01*
X111556417Y-39767990D01*
X111751031Y-39704755D01*
X111933349Y-39611859D01*
X111977921Y-39579474D01*
X111298447Y-38900000D01*
X111304661Y-38900000D01*
X111406394Y-38872741D01*
X111497606Y-38820080D01*
X111572080Y-38745606D01*
X111624741Y-38654394D01*
X111652000Y-38552661D01*
X111652000Y-38546448D01*
X112331474Y-39225922D01*
X112331474Y-39225921D01*
X112363859Y-39181349D01*
X112456755Y-38999031D01*
X112519990Y-38804417D01*
X112552000Y-38602317D01*
X112552000Y-38397682D01*
X112519990Y-38195582D01*
X112456755Y-38000968D01*
X112363859Y-37818650D01*
X112331474Y-37774077D01*
X112331474Y-37774076D01*
X111652000Y-38453551D01*
X111652000Y-38447339D01*
X111624741Y-38345606D01*
X111572080Y-38254394D01*
X111497606Y-38179920D01*
X111406394Y-38127259D01*
X111304661Y-38100000D01*
X111298446Y-38100000D01*
X111977922Y-37420524D01*
X111977922Y-37420523D01*
X111933359Y-37388147D01*
X111933350Y-37388141D01*
X111751031Y-37295244D01*
X111556417Y-37232009D01*
X111354317Y-37200000D01*
X111149683Y-37200000D01*
X110947582Y-37232009D01*
X110752968Y-37295244D01*
X110570644Y-37388143D01*
X110526077Y-37420523D01*
X110526077Y-37420524D01*
X111205554Y-38100000D01*
X111199339Y-38100000D01*
X111097606Y-38127259D01*
X111006394Y-38179920D01*
X110931920Y-38254394D01*
X110879259Y-38345606D01*
X110852000Y-38447339D01*
X110852000Y-38453553D01*
X110172524Y-37774077D01*
X110172523Y-37774077D01*
X110140143Y-37818644D01*
X110047244Y-38000968D01*
X109984009Y-38195582D01*
X109952000Y-38397682D01*
X107552500Y-38397682D01*
X107552500Y-38397648D01*
X107541683Y-38329351D01*
X107520477Y-38195465D01*
X107477760Y-38063998D01*
X107457220Y-38000781D01*
X107457218Y-38000778D01*
X107457218Y-38000776D01*
X107388805Y-37866510D01*
X107364287Y-37818390D01*
X107347051Y-37794666D01*
X107243971Y-37652786D01*
X107099213Y-37508028D01*
X106933613Y-37387715D01*
X106933612Y-37387714D01*
X106933610Y-37387713D01*
X106876653Y-37358691D01*
X106751223Y-37294781D01*
X106556534Y-37231522D01*
X106381995Y-37203878D01*
X106354352Y-37199500D01*
X106149648Y-37199500D01*
X106125329Y-37203351D01*
X105947465Y-37231522D01*
X105752776Y-37294781D01*
X105570386Y-37387715D01*
X105404786Y-37508028D01*
X105260028Y-37652786D01*
X105139715Y-37818386D01*
X105046781Y-38000776D01*
X104983522Y-38195465D01*
X104951500Y-38397648D01*
X100868499Y-38397648D01*
X100868499Y-38063992D01*
X100864123Y-38021158D01*
X100857999Y-37961203D01*
X100857998Y-37961200D01*
X100845162Y-37922465D01*
X100802814Y-37794666D01*
X100710712Y-37645344D01*
X100586656Y-37521288D01*
X100493888Y-37464069D01*
X100437336Y-37429187D01*
X100437331Y-37429185D01*
X100411191Y-37420523D01*
X100270797Y-37374001D01*
X100270795Y-37374000D01*
X100168010Y-37363500D01*
X98967998Y-37363500D01*
X98967981Y-37363501D01*
X98865203Y-37374000D01*
X98865200Y-37374001D01*
X98698668Y-37429185D01*
X98698663Y-37429187D01*
X98549342Y-37521289D01*
X98425289Y-37645342D01*
X98333187Y-37794663D01*
X98333185Y-37794668D01*
X98309379Y-37866510D01*
X98278001Y-37961203D01*
X98278001Y-37961204D01*
X98278000Y-37961204D01*
X98267500Y-38063983D01*
X95016892Y-38063983D01*
X95000613Y-37961204D01*
X94994477Y-37922465D01*
X94937995Y-37748632D01*
X94931220Y-37727781D01*
X94931218Y-37727778D01*
X94931218Y-37727776D01*
X94893008Y-37652786D01*
X94838287Y-37545390D01*
X94818424Y-37518051D01*
X94717971Y-37379786D01*
X94573213Y-37235028D01*
X94407613Y-37114715D01*
X94407612Y-37114714D01*
X94407610Y-37114713D01*
X94350653Y-37085691D01*
X94225223Y-37021781D01*
X94030534Y-36958522D01*
X93855995Y-36930878D01*
X93828352Y-36926500D01*
X93623648Y-36926500D01*
X93599329Y-36930351D01*
X93421465Y-36958522D01*
X93226776Y-37021781D01*
X93044386Y-37114715D01*
X92878786Y-37235028D01*
X92734028Y-37379786D01*
X92613715Y-37545386D01*
X92520781Y-37727776D01*
X92457522Y-37922465D01*
X92425500Y-38124648D01*
X92425500Y-38329351D01*
X92443986Y-38446069D01*
X92435031Y-38515363D01*
X92409194Y-38553148D01*
X92075162Y-38887181D01*
X92013839Y-38920666D01*
X91987481Y-38923500D01*
X87413050Y-38923500D01*
X87346011Y-38903815D01*
X87300256Y-38851011D01*
X87290312Y-38781853D01*
X87302566Y-38743204D01*
X87311217Y-38726225D01*
X87311218Y-38726223D01*
X87311220Y-38726219D01*
X87374477Y-38531534D01*
X87406500Y-38329352D01*
X87406500Y-38124648D01*
X87396893Y-38063991D01*
X87374477Y-37922465D01*
X87317995Y-37748632D01*
X87311220Y-37727781D01*
X87311218Y-37727778D01*
X87311218Y-37727776D01*
X87273008Y-37652786D01*
X87218287Y-37545390D01*
X87198424Y-37518051D01*
X87097971Y-37379786D01*
X86953213Y-37235028D01*
X86787613Y-37114715D01*
X86787612Y-37114714D01*
X86787610Y-37114713D01*
X86730653Y-37085691D01*
X86605223Y-37021781D01*
X86410534Y-36958522D01*
X86235995Y-36930878D01*
X86208352Y-36926500D01*
X86003648Y-36926500D01*
X85979329Y-36930351D01*
X85801465Y-36958522D01*
X85606776Y-37021781D01*
X85424386Y-37114715D01*
X85258786Y-37235028D01*
X85114030Y-37379784D01*
X85044575Y-37475384D01*
X84989245Y-37518051D01*
X84944256Y-37526500D01*
X74269941Y-37526500D01*
X74202902Y-37506815D01*
X74182260Y-37490181D01*
X74170292Y-37478213D01*
X74170288Y-37478210D01*
X74039185Y-37390609D01*
X74039172Y-37390602D01*
X73893501Y-37330264D01*
X73893489Y-37330261D01*
X73738845Y-37299500D01*
X73738842Y-37299500D01*
X73581158Y-37299500D01*
X73581155Y-37299500D01*
X73426510Y-37330261D01*
X73426498Y-37330264D01*
X73280827Y-37390602D01*
X73280814Y-37390609D01*
X73149711Y-37478210D01*
X73149707Y-37478213D01*
X73038213Y-37589707D01*
X73038210Y-37589711D01*
X72950609Y-37720814D01*
X72950602Y-37720827D01*
X72890264Y-37866498D01*
X72890261Y-37866510D01*
X72859500Y-38021153D01*
X69788500Y-38021153D01*
X69788500Y-37001316D01*
X69797939Y-36953864D01*
X69857735Y-36809501D01*
X69857737Y-36809497D01*
X69888500Y-36654842D01*
X69888500Y-36497158D01*
X69888500Y-36497155D01*
X69888499Y-36497153D01*
X69874963Y-36429104D01*
X69857737Y-36342503D01*
X69857735Y-36342498D01*
X69797397Y-36196827D01*
X69797390Y-36196814D01*
X69709789Y-36065711D01*
X69709786Y-36065707D01*
X69598292Y-35954213D01*
X69598288Y-35954210D01*
X69467185Y-35866609D01*
X69467172Y-35866602D01*
X69321501Y-35806264D01*
X69321489Y-35806261D01*
X69166845Y-35775500D01*
X69166842Y-35775500D01*
X69009158Y-35775500D01*
X69009155Y-35775500D01*
X68854510Y-35806261D01*
X68854498Y-35806264D01*
X68708827Y-35866602D01*
X68708814Y-35866609D01*
X68577711Y-35954210D01*
X68577707Y-35954213D01*
X68466213Y-36065707D01*
X68466210Y-36065711D01*
X68378609Y-36196814D01*
X68378602Y-36196827D01*
X68318264Y-36342498D01*
X68318261Y-36342510D01*
X68287500Y-36497153D01*
X59763235Y-36497153D01*
X59770500Y-36451287D01*
X59770500Y-35938713D01*
X59737246Y-35728757D01*
X59671557Y-35526588D01*
X59575051Y-35337184D01*
X59575049Y-35337181D01*
X59575048Y-35337179D01*
X59450109Y-35165213D01*
X59299786Y-35014890D01*
X59127820Y-34889951D01*
X58938414Y-34793444D01*
X58938413Y-34793443D01*
X58938412Y-34793443D01*
X58736243Y-34727754D01*
X58736241Y-34727753D01*
X58736240Y-34727753D01*
X58574957Y-34702208D01*
X58526287Y-34694500D01*
X58313713Y-34694500D01*
X58265042Y-34702208D01*
X58103760Y-34727753D01*
X58103757Y-34727754D01*
X57961957Y-34773828D01*
X57901585Y-34793444D01*
X57712179Y-34889951D01*
X57540215Y-35014889D01*
X57401398Y-35153706D01*
X57340075Y-35187190D01*
X57270383Y-35182206D01*
X57214450Y-35140334D01*
X57208178Y-35131120D01*
X57112712Y-34976344D01*
X56988657Y-34852289D01*
X56988656Y-34852288D01*
X56861455Y-34773830D01*
X56839336Y-34760187D01*
X56839331Y-34760185D01*
X56837862Y-34759698D01*
X56672797Y-34705001D01*
X56672795Y-34705000D01*
X56570010Y-34694500D01*
X55269998Y-34694500D01*
X55269981Y-34694501D01*
X55167203Y-34705000D01*
X55167200Y-34705001D01*
X55000668Y-34760185D01*
X55000663Y-34760187D01*
X54851342Y-34852289D01*
X54727289Y-34976342D01*
X54635187Y-35125663D01*
X54635185Y-35125668D01*
X54622083Y-35165208D01*
X54580001Y-35292203D01*
X54580001Y-35292204D01*
X54580000Y-35292204D01*
X54569500Y-35394983D01*
X51276561Y-35394983D01*
X51247065Y-35208752D01*
X51174102Y-34984197D01*
X51066914Y-34773828D01*
X51006658Y-34690894D01*
X51006658Y-34690893D01*
X50266962Y-35430590D01*
X50249925Y-35367007D01*
X50184099Y-35252993D01*
X50091007Y-35159901D01*
X49976993Y-35094075D01*
X49913409Y-35077037D01*
X50653105Y-34337340D01*
X50653104Y-34337338D01*
X50570174Y-34277087D01*
X50359802Y-34169897D01*
X50135247Y-34096934D01*
X50135248Y-34096934D01*
X49902052Y-34060000D01*
X49665948Y-34060000D01*
X49432752Y-34096934D01*
X49208197Y-34169897D01*
X48997830Y-34277084D01*
X48914894Y-34337340D01*
X49654591Y-35077037D01*
X49591007Y-35094075D01*
X49476993Y-35159901D01*
X49383901Y-35252993D01*
X49318075Y-35367007D01*
X49301037Y-35430591D01*
X48561340Y-34690894D01*
X48501084Y-34773830D01*
X48393897Y-34984197D01*
X48320934Y-35208752D01*
X48284000Y-35441947D01*
X48284000Y-35678052D01*
X48320934Y-35911247D01*
X48393897Y-36135802D01*
X48501087Y-36346174D01*
X48561338Y-36429104D01*
X48561340Y-36429105D01*
X49301037Y-35689408D01*
X49318075Y-35752993D01*
X49383901Y-35867007D01*
X49476993Y-35960099D01*
X49591007Y-36025925D01*
X49654590Y-36042962D01*
X48914893Y-36782658D01*
X48916448Y-36802405D01*
X48902084Y-36870783D01*
X48865717Y-36912451D01*
X48806490Y-36955482D01*
X48639485Y-37122487D01*
X48639485Y-37122488D01*
X48639483Y-37122490D01*
X48607200Y-37166924D01*
X48500657Y-37313566D01*
X48393433Y-37524003D01*
X48320446Y-37748631D01*
X48283500Y-37981902D01*
X37965500Y-37981902D01*
X37965500Y-35009490D01*
X37965825Y-35000519D01*
X37967579Y-34976342D01*
X37980548Y-34797553D01*
X37983132Y-34779828D01*
X38026027Y-34585488D01*
X38031145Y-34568315D01*
X38101631Y-34382218D01*
X38109178Y-34365954D01*
X38205784Y-34191976D01*
X38215597Y-34176976D01*
X38336300Y-34018761D01*
X38348179Y-34005329D01*
X38490455Y-33866186D01*
X38504137Y-33854618D01*
X38665012Y-33737462D01*
X38680218Y-33727992D01*
X38856310Y-33635281D01*
X38872737Y-33628099D01*
X39005297Y-33581240D01*
X39060347Y-33561780D01*
X39077651Y-33557039D01*
X39078771Y-33556818D01*
X39250789Y-33522849D01*
X39274812Y-33520500D01*
X103412559Y-33520500D01*
X103479598Y-33540185D01*
G37*
%TD.AperFunction*%
%TD*%
M02*
