%TF.GenerationSoftware,KiCad,Pcbnew,9.0.6*%
%TF.CreationDate,2025-11-21T01:38:01-08:00*%
%TF.ProjectId,schematic,73636865-6d61-4746-9963-2e6b69636164,rev?*%
%TF.SameCoordinates,Original*%
%TF.FileFunction,Legend,Bot*%
%TF.FilePolarity,Positive*%
%FSLAX46Y46*%
G04 Gerber Fmt 4.6, Leading zero omitted, Abs format (unit mm)*
G04 Created by KiCad (PCBNEW 9.0.6) date 2025-11-21 01:38:01*
%MOMM*%
%LPD*%
G01*
G04 APERTURE LIST*
%ADD10C,0.004015*%
%ADD11C,0.133835*%
%ADD12C,0.000000*%
%ADD13C,0.150000*%
G04 APERTURE END LIST*
D10*
X65339246Y-43774317D02*
X65349844Y-43775338D01*
X65360348Y-43777044D01*
X65370752Y-43779476D01*
X65381050Y-43782676D01*
X65391236Y-43786683D01*
X65401303Y-43791541D01*
X65411245Y-43797288D01*
X65421057Y-43803967D01*
X65430731Y-43811618D01*
X65440262Y-43820282D01*
X65529972Y-43914612D01*
X65618986Y-44005852D01*
X65707191Y-44093940D01*
X65794470Y-44178814D01*
X65880709Y-44260412D01*
X65965794Y-44338672D01*
X66049609Y-44413530D01*
X66132040Y-44484925D01*
X66227593Y-44558854D01*
X66328104Y-44634281D01*
X66433571Y-44710394D01*
X66543993Y-44786385D01*
X66659367Y-44861442D01*
X66718912Y-44898367D01*
X66779693Y-44934756D01*
X66841713Y-44970506D01*
X66904969Y-45005516D01*
X66969463Y-45039686D01*
X67035193Y-45072913D01*
X67140328Y-45122686D01*
X67248480Y-45169526D01*
X67359648Y-45213049D01*
X67473832Y-45252869D01*
X67532055Y-45271270D01*
X67591031Y-45288601D01*
X67650761Y-45304814D01*
X67711245Y-45319860D01*
X67772482Y-45333692D01*
X67834473Y-45346261D01*
X67897217Y-45357519D01*
X67960714Y-45367418D01*
X68029336Y-45377595D01*
X68134224Y-45390402D01*
X68196812Y-45395837D01*
X68264318Y-45399581D01*
X68335361Y-45400854D01*
X68408556Y-45398873D01*
X68482522Y-45392855D01*
X68555876Y-45382018D01*
X68591891Y-45374548D01*
X68627234Y-45365580D01*
X68661734Y-45355016D01*
X68695215Y-45342758D01*
X68727507Y-45328709D01*
X68758436Y-45312770D01*
X68787829Y-45294844D01*
X68815513Y-45274833D01*
X68841316Y-45252640D01*
X68865065Y-45228166D01*
X68886586Y-45201313D01*
X68905708Y-45171985D01*
X68910334Y-45164460D01*
X68915101Y-45157489D01*
X68919998Y-45151070D01*
X68925015Y-45145198D01*
X68930140Y-45139868D01*
X68935365Y-45135077D01*
X68940678Y-45130820D01*
X68946068Y-45127093D01*
X68951527Y-45123892D01*
X68957042Y-45121213D01*
X68962604Y-45119052D01*
X68968202Y-45117404D01*
X68973827Y-45116266D01*
X68979467Y-45115632D01*
X68985112Y-45115500D01*
X68990751Y-45115864D01*
X68996375Y-45116721D01*
X69001973Y-45118066D01*
X69007535Y-45119896D01*
X69013050Y-45122205D01*
X69018507Y-45124991D01*
X69023896Y-45128248D01*
X69029208Y-45131973D01*
X69034431Y-45136162D01*
X69039555Y-45140810D01*
X69044570Y-45145913D01*
X69049465Y-45151466D01*
X69054230Y-45157467D01*
X69058854Y-45163910D01*
X69063328Y-45170792D01*
X69067640Y-45178107D01*
X69071781Y-45185853D01*
X69091985Y-45219397D01*
X69116624Y-45249913D01*
X69145377Y-45277528D01*
X69177920Y-45302368D01*
X69213934Y-45324561D01*
X69253096Y-45344234D01*
X69295084Y-45361514D01*
X69339576Y-45376527D01*
X69386252Y-45389400D01*
X69434788Y-45400261D01*
X69536157Y-45416454D01*
X69641109Y-45426119D01*
X69747071Y-45430274D01*
X69851468Y-45429933D01*
X69951727Y-45426113D01*
X70129535Y-45412095D01*
X70259901Y-45396346D01*
X70322236Y-45386991D01*
X70388143Y-45375637D01*
X70453017Y-45362855D01*
X70516864Y-45348703D01*
X70579687Y-45333237D01*
X70641492Y-45316517D01*
X70702283Y-45298598D01*
X70762064Y-45279538D01*
X70820840Y-45259396D01*
X70898937Y-45230454D01*
X70975205Y-45199770D01*
X71049657Y-45167490D01*
X71122304Y-45133757D01*
X71193157Y-45098714D01*
X71262229Y-45062506D01*
X71329531Y-45025277D01*
X71395074Y-44987171D01*
X71520933Y-44908900D01*
X71639899Y-44828847D01*
X71752066Y-44748161D01*
X71857527Y-44667995D01*
X71907413Y-44621945D01*
X71957232Y-44574419D01*
X72007074Y-44525410D01*
X72057032Y-44474910D01*
X72107195Y-44422914D01*
X72157656Y-44369413D01*
X72208506Y-44314402D01*
X72259836Y-44257873D01*
X72383413Y-44117111D01*
X72418633Y-44078250D01*
X72455109Y-44039524D01*
X72492603Y-44001731D01*
X72530879Y-43965674D01*
X72569699Y-43932152D01*
X72608827Y-43901966D01*
X72648025Y-43875918D01*
X72667576Y-43864695D01*
X72687056Y-43854807D01*
X72706434Y-43846354D01*
X72725682Y-43839435D01*
X72744770Y-43834151D01*
X72763668Y-43830602D01*
X72782346Y-43828888D01*
X72800774Y-43829109D01*
X72818924Y-43831366D01*
X72836766Y-43835757D01*
X72846195Y-43839017D01*
X72855673Y-43842948D01*
X72865121Y-43847521D01*
X72874462Y-43852704D01*
X72883618Y-43858468D01*
X72892510Y-43864782D01*
X72901061Y-43871615D01*
X72909192Y-43878938D01*
X72916825Y-43886720D01*
X72923883Y-43894930D01*
X72930287Y-43903538D01*
X72935960Y-43912515D01*
X72938497Y-43917131D01*
X72940823Y-43921828D01*
X72942926Y-43926602D01*
X72944798Y-43931449D01*
X72946428Y-43936365D01*
X72947807Y-43941347D01*
X72948926Y-43946390D01*
X72949773Y-43951491D01*
X72950517Y-43960560D01*
X72950219Y-43969296D01*
X72948923Y-43977725D01*
X72946671Y-43985876D01*
X72943506Y-43993776D01*
X72939471Y-44001455D01*
X72934607Y-44008938D01*
X72928959Y-44016255D01*
X72922569Y-44023433D01*
X72915478Y-44030500D01*
X72907731Y-44037484D01*
X72899369Y-44044413D01*
X72880972Y-44058217D01*
X72860630Y-44072135D01*
X72815473Y-44101206D01*
X72791342Y-44116805D01*
X72766630Y-44133411D01*
X72741678Y-44151246D01*
X72729220Y-44160695D01*
X72716829Y-44170534D01*
X72704550Y-44180793D01*
X72692423Y-44191498D01*
X72680494Y-44202678D01*
X72668803Y-44214361D01*
X72661707Y-44221853D01*
X72654729Y-44229555D01*
X72647879Y-44237473D01*
X72641168Y-44245614D01*
X72634605Y-44253984D01*
X72628201Y-44262590D01*
X72621966Y-44271438D01*
X72615908Y-44280536D01*
X72610040Y-44289889D01*
X72604370Y-44299505D01*
X72598909Y-44309390D01*
X72593666Y-44319551D01*
X72588652Y-44329994D01*
X72583877Y-44340726D01*
X72579351Y-44351754D01*
X72575084Y-44363085D01*
X72563518Y-44398384D01*
X72554144Y-44433166D01*
X72546624Y-44467247D01*
X72540616Y-44500440D01*
X72531781Y-44563423D01*
X72524921Y-44620634D01*
X72521383Y-44646611D01*
X72517318Y-44670589D01*
X72512388Y-44692383D01*
X72506253Y-44711806D01*
X72498572Y-44728675D01*
X72494047Y-44736093D01*
X72489007Y-44742803D01*
X72483412Y-44748782D01*
X72477218Y-44754006D01*
X72470382Y-44758452D01*
X72462863Y-44762098D01*
X72453907Y-44765071D01*
X72444906Y-44766705D01*
X72435859Y-44767087D01*
X72426765Y-44766304D01*
X72417625Y-44764444D01*
X72408437Y-44761593D01*
X72399201Y-44757838D01*
X72389916Y-44753266D01*
X72380583Y-44747965D01*
X72371199Y-44742022D01*
X72352282Y-44728555D01*
X72333159Y-44713564D01*
X72313827Y-44697744D01*
X72294282Y-44681792D01*
X72274519Y-44666404D01*
X72254534Y-44652277D01*
X72244457Y-44645904D01*
X72234323Y-44640107D01*
X72224131Y-44634974D01*
X72213881Y-44630592D01*
X72203572Y-44627047D01*
X72193204Y-44624426D01*
X72182776Y-44622818D01*
X72172288Y-44622308D01*
X72161739Y-44622984D01*
X72151128Y-44624933D01*
X72135429Y-44630362D01*
X72121141Y-44638461D01*
X72108160Y-44649060D01*
X72096384Y-44661990D01*
X72085710Y-44677084D01*
X72076036Y-44694172D01*
X72067260Y-44713085D01*
X72059278Y-44733655D01*
X72045289Y-44779092D01*
X72033247Y-44829132D01*
X72011724Y-44937622D01*
X72000602Y-44993374D01*
X71988144Y-45048331D01*
X71973531Y-45101143D01*
X71965160Y-45126322D01*
X71955942Y-45150460D01*
X71945775Y-45173387D01*
X71934556Y-45194934D01*
X71922182Y-45214932D01*
X71908552Y-45233214D01*
X71893562Y-45249609D01*
X71877110Y-45263950D01*
X71859093Y-45276068D01*
X71839409Y-45285795D01*
X71825625Y-45290740D01*
X71812051Y-45294182D01*
X71798663Y-45296215D01*
X71785439Y-45296937D01*
X71772358Y-45296442D01*
X71759395Y-45294827D01*
X71746529Y-45292187D01*
X71733738Y-45288619D01*
X71720998Y-45284218D01*
X71708287Y-45279080D01*
X71682864Y-45266976D01*
X71657288Y-45253074D01*
X71631379Y-45238141D01*
X71604957Y-45222944D01*
X71577842Y-45208249D01*
X71549855Y-45194824D01*
X71535477Y-45188827D01*
X71520814Y-45183434D01*
X71505843Y-45178743D01*
X71490541Y-45174848D01*
X71474886Y-45171845D01*
X71458855Y-45169831D01*
X71442426Y-45168901D01*
X71425576Y-45169151D01*
X71408284Y-45170677D01*
X71390525Y-45173574D01*
X71363896Y-45180486D01*
X71338921Y-45190060D01*
X71315495Y-45202119D01*
X71293513Y-45216482D01*
X71272871Y-45232972D01*
X71253464Y-45251409D01*
X71235188Y-45271615D01*
X71217938Y-45293411D01*
X71201609Y-45316618D01*
X71186098Y-45341057D01*
X71157107Y-45392918D01*
X71130129Y-45447562D01*
X71104328Y-45503560D01*
X71052906Y-45613893D01*
X71025613Y-45665369D01*
X71011205Y-45689558D01*
X70996150Y-45712476D01*
X70980343Y-45733944D01*
X70963680Y-45753784D01*
X70946056Y-45771817D01*
X70927366Y-45787864D01*
X70907506Y-45801745D01*
X70886372Y-45813284D01*
X70863859Y-45822299D01*
X70839861Y-45828614D01*
X70818314Y-45831663D01*
X70797301Y-45832278D01*
X70776783Y-45830619D01*
X70756720Y-45826846D01*
X70737071Y-45821116D01*
X70717798Y-45813591D01*
X70698861Y-45804430D01*
X70680219Y-45793792D01*
X70661834Y-45781837D01*
X70643666Y-45768724D01*
X70607820Y-45739664D01*
X70572364Y-45707887D01*
X70536981Y-45674670D01*
X70501353Y-45641289D01*
X70465163Y-45609020D01*
X70428093Y-45579140D01*
X70409129Y-45565495D01*
X70389825Y-45552925D01*
X70370143Y-45541591D01*
X70350043Y-45531651D01*
X70329484Y-45523265D01*
X70308428Y-45516594D01*
X70286834Y-45511795D01*
X70264663Y-45509030D01*
X70241875Y-45508457D01*
X70218430Y-45510236D01*
X70191290Y-45515355D01*
X70165604Y-45523520D01*
X70141283Y-45534523D01*
X70118239Y-45548158D01*
X70096384Y-45564219D01*
X70075629Y-45582497D01*
X70055885Y-45602787D01*
X70037065Y-45624881D01*
X70019080Y-45648572D01*
X70001841Y-45673655D01*
X69969248Y-45727164D01*
X69938579Y-45783754D01*
X69909127Y-45841769D01*
X69851040Y-45955458D01*
X69820991Y-46007822D01*
X69789328Y-46054991D01*
X69772670Y-46076111D01*
X69755343Y-46095312D01*
X69737259Y-46112387D01*
X69718329Y-46127130D01*
X69698465Y-46139333D01*
X69677578Y-46148789D01*
X69655580Y-46155292D01*
X69632383Y-46158635D01*
X69609477Y-46158652D01*
X69587315Y-46155532D01*
X69565840Y-46149479D01*
X69544995Y-46140700D01*
X69524723Y-46129401D01*
X69504967Y-46115787D01*
X69485672Y-46100064D01*
X69466779Y-46082438D01*
X69448232Y-46063114D01*
X69429973Y-46042299D01*
X69394097Y-45997016D01*
X69323311Y-45897604D01*
X69287492Y-45846766D01*
X69250783Y-45797369D01*
X69212728Y-45751058D01*
X69193054Y-45729574D01*
X69172874Y-45709479D01*
X69152129Y-45690979D01*
X69130764Y-45674279D01*
X69108722Y-45659586D01*
X69085946Y-45647104D01*
X69062378Y-45637040D01*
X69037963Y-45629599D01*
X69012642Y-45624988D01*
X68986360Y-45623411D01*
X68960090Y-45625005D01*
X68934783Y-45629631D01*
X68910382Y-45637084D01*
X68886831Y-45647157D01*
X68864071Y-45659646D01*
X68842047Y-45674345D01*
X68820702Y-45691048D01*
X68799978Y-45709550D01*
X68779818Y-45729644D01*
X68760167Y-45751126D01*
X68722158Y-45797430D01*
X68685498Y-45846817D01*
X68649729Y-45897641D01*
X68579046Y-45997025D01*
X68543221Y-46042295D01*
X68524988Y-46063105D01*
X68506466Y-46082424D01*
X68487598Y-46100046D01*
X68468326Y-46115767D01*
X68448594Y-46129380D01*
X68428345Y-46140680D01*
X68407522Y-46149461D01*
X68386068Y-46155517D01*
X68363927Y-46158644D01*
X68341040Y-46158635D01*
X68317853Y-46155301D01*
X68295864Y-46148805D01*
X68274985Y-46139356D01*
X68255128Y-46127159D01*
X68236204Y-46112421D01*
X68218124Y-46095349D01*
X68200801Y-46076151D01*
X68184146Y-46055033D01*
X68168071Y-46032203D01*
X68152487Y-46007866D01*
X68122438Y-45955502D01*
X68064346Y-45841807D01*
X68034889Y-45783786D01*
X68004213Y-45727190D01*
X67971613Y-45673675D01*
X67954371Y-45648589D01*
X67936382Y-45624895D01*
X67917558Y-45602798D01*
X67897811Y-45582505D01*
X67877052Y-45564225D01*
X67855194Y-45548162D01*
X67832147Y-45534526D01*
X67807824Y-45523521D01*
X67782135Y-45515355D01*
X67754993Y-45510236D01*
X67731550Y-45508457D01*
X67708763Y-45509030D01*
X67686593Y-45511795D01*
X67665001Y-45516594D01*
X67643945Y-45523265D01*
X67623388Y-45531651D01*
X67603288Y-45541591D01*
X67583607Y-45552925D01*
X67564305Y-45565495D01*
X67545341Y-45579140D01*
X67508272Y-45609020D01*
X67472083Y-45641289D01*
X67436456Y-45674670D01*
X67401074Y-45707887D01*
X67365619Y-45739664D01*
X67329773Y-45768724D01*
X67311605Y-45781837D01*
X67293220Y-45793792D01*
X67274579Y-45804430D01*
X67255642Y-45813591D01*
X67236369Y-45821116D01*
X67216720Y-45826846D01*
X67196657Y-45830619D01*
X67176138Y-45832278D01*
X67155126Y-45831663D01*
X67133579Y-45828614D01*
X67109581Y-45822299D01*
X67087068Y-45813284D01*
X67065933Y-45801745D01*
X67046073Y-45787864D01*
X67027383Y-45771817D01*
X67009758Y-45753784D01*
X66993095Y-45733944D01*
X66977287Y-45712476D01*
X66962232Y-45689558D01*
X66947823Y-45665369D01*
X66920529Y-45613893D01*
X66869106Y-45503560D01*
X66843303Y-45447562D01*
X66816325Y-45392918D01*
X66787334Y-45341057D01*
X66771823Y-45316618D01*
X66755495Y-45293411D01*
X66738245Y-45271615D01*
X66719969Y-45251409D01*
X66700563Y-45232972D01*
X66679922Y-45216482D01*
X66657941Y-45202119D01*
X66634515Y-45190060D01*
X66609541Y-45180486D01*
X66582914Y-45173574D01*
X66565155Y-45170677D01*
X66547863Y-45169151D01*
X66531013Y-45168901D01*
X66514583Y-45169831D01*
X66498552Y-45171845D01*
X66482897Y-45174848D01*
X66467594Y-45178743D01*
X66452623Y-45183434D01*
X66437959Y-45188827D01*
X66423581Y-45194824D01*
X66395592Y-45208249D01*
X66368476Y-45222944D01*
X66342052Y-45238141D01*
X66316142Y-45253074D01*
X66290564Y-45266976D01*
X66265139Y-45279080D01*
X66252428Y-45284218D01*
X66239688Y-45288619D01*
X66226896Y-45292187D01*
X66214029Y-45294827D01*
X66201066Y-45296442D01*
X66187984Y-45296937D01*
X66174760Y-45296215D01*
X66161372Y-45294182D01*
X66147798Y-45290740D01*
X66134014Y-45285795D01*
X66114331Y-45276068D01*
X66096316Y-45263950D01*
X66079865Y-45249609D01*
X66064876Y-45233214D01*
X66051246Y-45214932D01*
X66038873Y-45194934D01*
X66027655Y-45173387D01*
X66017488Y-45150460D01*
X65999899Y-45101143D01*
X65985286Y-45048331D01*
X65972828Y-44993374D01*
X65961705Y-44937622D01*
X65940181Y-44829132D01*
X65928138Y-44779092D01*
X65914147Y-44733655D01*
X65906165Y-44713085D01*
X65897388Y-44694172D01*
X65887714Y-44677084D01*
X65877040Y-44661990D01*
X65865264Y-44649060D01*
X65852283Y-44638461D01*
X65837994Y-44630362D01*
X65822295Y-44624933D01*
X65811684Y-44622984D01*
X65801135Y-44622308D01*
X65790647Y-44622818D01*
X65780220Y-44624426D01*
X65769852Y-44627047D01*
X65759543Y-44630592D01*
X65749294Y-44634974D01*
X65739102Y-44640107D01*
X65728968Y-44645904D01*
X65718892Y-44652277D01*
X65698908Y-44666404D01*
X65679146Y-44681792D01*
X65659601Y-44697744D01*
X65640270Y-44713564D01*
X65621148Y-44728555D01*
X65602231Y-44742022D01*
X65592847Y-44747965D01*
X65583514Y-44753266D01*
X65574229Y-44757838D01*
X65564992Y-44761593D01*
X65555803Y-44764444D01*
X65546662Y-44766304D01*
X65537568Y-44767087D01*
X65528519Y-44766705D01*
X65519517Y-44765071D01*
X65510559Y-44762098D01*
X65502870Y-44758341D01*
X65496056Y-44753788D01*
X65490058Y-44748461D01*
X65484814Y-44742385D01*
X65480264Y-44735582D01*
X65476348Y-44728076D01*
X65473005Y-44719890D01*
X65470174Y-44711049D01*
X65467795Y-44701575D01*
X65465807Y-44691492D01*
X65462761Y-44669592D01*
X65460553Y-44645538D01*
X65458696Y-44619517D01*
X65456707Y-44591717D01*
X65454100Y-44562326D01*
X65450391Y-44531532D01*
X65445094Y-44499522D01*
X65441699Y-44483120D01*
X65437726Y-44466485D01*
X65433113Y-44449639D01*
X65427800Y-44432608D01*
X65421727Y-44415413D01*
X65414833Y-44398078D01*
X65407057Y-44380628D01*
X65398338Y-44363085D01*
X65392300Y-44351932D01*
X65386029Y-44341073D01*
X65379536Y-44330502D01*
X65372830Y-44320212D01*
X65365920Y-44310198D01*
X65358817Y-44300453D01*
X65351530Y-44290971D01*
X65344068Y-44281746D01*
X65336442Y-44272772D01*
X65328661Y-44264044D01*
X65320734Y-44255553D01*
X65312672Y-44247296D01*
X65304484Y-44239264D01*
X65296179Y-44231453D01*
X65287767Y-44223857D01*
X65279259Y-44216468D01*
X65279014Y-44220747D01*
X65278903Y-44222895D01*
X65278807Y-44225050D01*
X65249818Y-44201744D01*
X65220223Y-44180267D01*
X65190382Y-44160417D01*
X65160656Y-44141991D01*
X65050101Y-44078495D01*
X65026350Y-44064161D01*
X65004875Y-44050040D01*
X64986034Y-44035929D01*
X64970189Y-44021626D01*
X64963503Y-44014339D01*
X64957700Y-44006929D01*
X64952827Y-43999369D01*
X64948927Y-43991635D01*
X64946046Y-43983702D01*
X64944229Y-43975543D01*
X64943522Y-43967135D01*
X64943968Y-43958451D01*
X64945043Y-43951980D01*
X64946700Y-43945704D01*
X64948906Y-43939622D01*
X64951625Y-43933731D01*
X64954822Y-43928033D01*
X64958463Y-43922524D01*
X64962513Y-43917204D01*
X64966937Y-43912072D01*
X64971700Y-43907127D01*
X64976768Y-43902368D01*
X64982106Y-43897793D01*
X64987678Y-43893402D01*
X64999389Y-43885165D01*
X65011622Y-43877648D01*
X65024098Y-43870842D01*
X65036541Y-43864739D01*
X65048670Y-43859329D01*
X65060209Y-43854604D01*
X65080398Y-43847170D01*
X65094884Y-43842366D01*
X65117118Y-43834761D01*
X65139497Y-43826457D01*
X65184491Y-43809061D01*
X65207006Y-43800624D01*
X65229469Y-43792800D01*
X65251828Y-43785914D01*
X65274035Y-43780295D01*
X65296040Y-43776271D01*
X65306951Y-43774959D01*
X65317793Y-43774169D01*
X65328560Y-43773942D01*
X65339246Y-43774317D01*
G36*
X65339246Y-43774317D02*
G01*
X65349844Y-43775338D01*
X65360348Y-43777044D01*
X65370752Y-43779476D01*
X65381050Y-43782676D01*
X65391236Y-43786683D01*
X65401303Y-43791541D01*
X65411245Y-43797288D01*
X65421057Y-43803967D01*
X65430731Y-43811618D01*
X65440262Y-43820282D01*
X65529972Y-43914612D01*
X65618986Y-44005852D01*
X65707191Y-44093940D01*
X65794470Y-44178814D01*
X65880709Y-44260412D01*
X65965794Y-44338672D01*
X66049609Y-44413530D01*
X66132040Y-44484925D01*
X66227593Y-44558854D01*
X66328104Y-44634281D01*
X66433571Y-44710394D01*
X66543993Y-44786385D01*
X66659367Y-44861442D01*
X66718912Y-44898367D01*
X66779693Y-44934756D01*
X66841713Y-44970506D01*
X66904969Y-45005516D01*
X66969463Y-45039686D01*
X67035193Y-45072913D01*
X67140328Y-45122686D01*
X67248480Y-45169526D01*
X67359648Y-45213049D01*
X67473832Y-45252869D01*
X67532055Y-45271270D01*
X67591031Y-45288601D01*
X67650761Y-45304814D01*
X67711245Y-45319860D01*
X67772482Y-45333692D01*
X67834473Y-45346261D01*
X67897217Y-45357519D01*
X67960714Y-45367418D01*
X68029336Y-45377595D01*
X68134224Y-45390402D01*
X68196812Y-45395837D01*
X68264318Y-45399581D01*
X68335361Y-45400854D01*
X68408556Y-45398873D01*
X68482522Y-45392855D01*
X68555876Y-45382018D01*
X68591891Y-45374548D01*
X68627234Y-45365580D01*
X68661734Y-45355016D01*
X68695215Y-45342758D01*
X68727507Y-45328709D01*
X68758436Y-45312770D01*
X68787829Y-45294844D01*
X68815513Y-45274833D01*
X68841316Y-45252640D01*
X68865065Y-45228166D01*
X68886586Y-45201313D01*
X68905708Y-45171985D01*
X68910334Y-45164460D01*
X68915101Y-45157489D01*
X68919998Y-45151070D01*
X68925015Y-45145198D01*
X68930140Y-45139868D01*
X68935365Y-45135077D01*
X68940678Y-45130820D01*
X68946068Y-45127093D01*
X68951527Y-45123892D01*
X68957042Y-45121213D01*
X68962604Y-45119052D01*
X68968202Y-45117404D01*
X68973827Y-45116266D01*
X68979467Y-45115632D01*
X68985112Y-45115500D01*
X68990751Y-45115864D01*
X68996375Y-45116721D01*
X69001973Y-45118066D01*
X69007535Y-45119896D01*
X69013050Y-45122205D01*
X69018507Y-45124991D01*
X69023896Y-45128248D01*
X69029208Y-45131973D01*
X69034431Y-45136162D01*
X69039555Y-45140810D01*
X69044570Y-45145913D01*
X69049465Y-45151466D01*
X69054230Y-45157467D01*
X69058854Y-45163910D01*
X69063328Y-45170792D01*
X69067640Y-45178107D01*
X69071781Y-45185853D01*
X69091985Y-45219397D01*
X69116624Y-45249913D01*
X69145377Y-45277528D01*
X69177920Y-45302368D01*
X69213934Y-45324561D01*
X69253096Y-45344234D01*
X69295084Y-45361514D01*
X69339576Y-45376527D01*
X69386252Y-45389400D01*
X69434788Y-45400261D01*
X69536157Y-45416454D01*
X69641109Y-45426119D01*
X69747071Y-45430274D01*
X69851468Y-45429933D01*
X69951727Y-45426113D01*
X70129535Y-45412095D01*
X70259901Y-45396346D01*
X70322236Y-45386991D01*
X70388143Y-45375637D01*
X70453017Y-45362855D01*
X70516864Y-45348703D01*
X70579687Y-45333237D01*
X70641492Y-45316517D01*
X70702283Y-45298598D01*
X70762064Y-45279538D01*
X70820840Y-45259396D01*
X70898937Y-45230454D01*
X70975205Y-45199770D01*
X71049657Y-45167490D01*
X71122304Y-45133757D01*
X71193157Y-45098714D01*
X71262229Y-45062506D01*
X71329531Y-45025277D01*
X71395074Y-44987171D01*
X71520933Y-44908900D01*
X71639899Y-44828847D01*
X71752066Y-44748161D01*
X71857527Y-44667995D01*
X71907413Y-44621945D01*
X71957232Y-44574419D01*
X72007074Y-44525410D01*
X72057032Y-44474910D01*
X72107195Y-44422914D01*
X72157656Y-44369413D01*
X72208506Y-44314402D01*
X72259836Y-44257873D01*
X72383413Y-44117111D01*
X72418633Y-44078250D01*
X72455109Y-44039524D01*
X72492603Y-44001731D01*
X72530879Y-43965674D01*
X72569699Y-43932152D01*
X72608827Y-43901966D01*
X72648025Y-43875918D01*
X72667576Y-43864695D01*
X72687056Y-43854807D01*
X72706434Y-43846354D01*
X72725682Y-43839435D01*
X72744770Y-43834151D01*
X72763668Y-43830602D01*
X72782346Y-43828888D01*
X72800774Y-43829109D01*
X72818924Y-43831366D01*
X72836766Y-43835757D01*
X72846195Y-43839017D01*
X72855673Y-43842948D01*
X72865121Y-43847521D01*
X72874462Y-43852704D01*
X72883618Y-43858468D01*
X72892510Y-43864782D01*
X72901061Y-43871615D01*
X72909192Y-43878938D01*
X72916825Y-43886720D01*
X72923883Y-43894930D01*
X72930287Y-43903538D01*
X72935960Y-43912515D01*
X72938497Y-43917131D01*
X72940823Y-43921828D01*
X72942926Y-43926602D01*
X72944798Y-43931449D01*
X72946428Y-43936365D01*
X72947807Y-43941347D01*
X72948926Y-43946390D01*
X72949773Y-43951491D01*
X72950517Y-43960560D01*
X72950219Y-43969296D01*
X72948923Y-43977725D01*
X72946671Y-43985876D01*
X72943506Y-43993776D01*
X72939471Y-44001455D01*
X72934607Y-44008938D01*
X72928959Y-44016255D01*
X72922569Y-44023433D01*
X72915478Y-44030500D01*
X72907731Y-44037484D01*
X72899369Y-44044413D01*
X72880972Y-44058217D01*
X72860630Y-44072135D01*
X72815473Y-44101206D01*
X72791342Y-44116805D01*
X72766630Y-44133411D01*
X72741678Y-44151246D01*
X72729220Y-44160695D01*
X72716829Y-44170534D01*
X72704550Y-44180793D01*
X72692423Y-44191498D01*
X72680494Y-44202678D01*
X72668803Y-44214361D01*
X72661707Y-44221853D01*
X72654729Y-44229555D01*
X72647879Y-44237473D01*
X72641168Y-44245614D01*
X72634605Y-44253984D01*
X72628201Y-44262590D01*
X72621966Y-44271438D01*
X72615908Y-44280536D01*
X72610040Y-44289889D01*
X72604370Y-44299505D01*
X72598909Y-44309390D01*
X72593666Y-44319551D01*
X72588652Y-44329994D01*
X72583877Y-44340726D01*
X72579351Y-44351754D01*
X72575084Y-44363085D01*
X72563518Y-44398384D01*
X72554144Y-44433166D01*
X72546624Y-44467247D01*
X72540616Y-44500440D01*
X72531781Y-44563423D01*
X72524921Y-44620634D01*
X72521383Y-44646611D01*
X72517318Y-44670589D01*
X72512388Y-44692383D01*
X72506253Y-44711806D01*
X72498572Y-44728675D01*
X72494047Y-44736093D01*
X72489007Y-44742803D01*
X72483412Y-44748782D01*
X72477218Y-44754006D01*
X72470382Y-44758452D01*
X72462863Y-44762098D01*
X72453907Y-44765071D01*
X72444906Y-44766705D01*
X72435859Y-44767087D01*
X72426765Y-44766304D01*
X72417625Y-44764444D01*
X72408437Y-44761593D01*
X72399201Y-44757838D01*
X72389916Y-44753266D01*
X72380583Y-44747965D01*
X72371199Y-44742022D01*
X72352282Y-44728555D01*
X72333159Y-44713564D01*
X72313827Y-44697744D01*
X72294282Y-44681792D01*
X72274519Y-44666404D01*
X72254534Y-44652277D01*
X72244457Y-44645904D01*
X72234323Y-44640107D01*
X72224131Y-44634974D01*
X72213881Y-44630592D01*
X72203572Y-44627047D01*
X72193204Y-44624426D01*
X72182776Y-44622818D01*
X72172288Y-44622308D01*
X72161739Y-44622984D01*
X72151128Y-44624933D01*
X72135429Y-44630362D01*
X72121141Y-44638461D01*
X72108160Y-44649060D01*
X72096384Y-44661990D01*
X72085710Y-44677084D01*
X72076036Y-44694172D01*
X72067260Y-44713085D01*
X72059278Y-44733655D01*
X72045289Y-44779092D01*
X72033247Y-44829132D01*
X72011724Y-44937622D01*
X72000602Y-44993374D01*
X71988144Y-45048331D01*
X71973531Y-45101143D01*
X71965160Y-45126322D01*
X71955942Y-45150460D01*
X71945775Y-45173387D01*
X71934556Y-45194934D01*
X71922182Y-45214932D01*
X71908552Y-45233214D01*
X71893562Y-45249609D01*
X71877110Y-45263950D01*
X71859093Y-45276068D01*
X71839409Y-45285795D01*
X71825625Y-45290740D01*
X71812051Y-45294182D01*
X71798663Y-45296215D01*
X71785439Y-45296937D01*
X71772358Y-45296442D01*
X71759395Y-45294827D01*
X71746529Y-45292187D01*
X71733738Y-45288619D01*
X71720998Y-45284218D01*
X71708287Y-45279080D01*
X71682864Y-45266976D01*
X71657288Y-45253074D01*
X71631379Y-45238141D01*
X71604957Y-45222944D01*
X71577842Y-45208249D01*
X71549855Y-45194824D01*
X71535477Y-45188827D01*
X71520814Y-45183434D01*
X71505843Y-45178743D01*
X71490541Y-45174848D01*
X71474886Y-45171845D01*
X71458855Y-45169831D01*
X71442426Y-45168901D01*
X71425576Y-45169151D01*
X71408284Y-45170677D01*
X71390525Y-45173574D01*
X71363896Y-45180486D01*
X71338921Y-45190060D01*
X71315495Y-45202119D01*
X71293513Y-45216482D01*
X71272871Y-45232972D01*
X71253464Y-45251409D01*
X71235188Y-45271615D01*
X71217938Y-45293411D01*
X71201609Y-45316618D01*
X71186098Y-45341057D01*
X71157107Y-45392918D01*
X71130129Y-45447562D01*
X71104328Y-45503560D01*
X71052906Y-45613893D01*
X71025613Y-45665369D01*
X71011205Y-45689558D01*
X70996150Y-45712476D01*
X70980343Y-45733944D01*
X70963680Y-45753784D01*
X70946056Y-45771817D01*
X70927366Y-45787864D01*
X70907506Y-45801745D01*
X70886372Y-45813284D01*
X70863859Y-45822299D01*
X70839861Y-45828614D01*
X70818314Y-45831663D01*
X70797301Y-45832278D01*
X70776783Y-45830619D01*
X70756720Y-45826846D01*
X70737071Y-45821116D01*
X70717798Y-45813591D01*
X70698861Y-45804430D01*
X70680219Y-45793792D01*
X70661834Y-45781837D01*
X70643666Y-45768724D01*
X70607820Y-45739664D01*
X70572364Y-45707887D01*
X70536981Y-45674670D01*
X70501353Y-45641289D01*
X70465163Y-45609020D01*
X70428093Y-45579140D01*
X70409129Y-45565495D01*
X70389825Y-45552925D01*
X70370143Y-45541591D01*
X70350043Y-45531651D01*
X70329484Y-45523265D01*
X70308428Y-45516594D01*
X70286834Y-45511795D01*
X70264663Y-45509030D01*
X70241875Y-45508457D01*
X70218430Y-45510236D01*
X70191290Y-45515355D01*
X70165604Y-45523520D01*
X70141283Y-45534523D01*
X70118239Y-45548158D01*
X70096384Y-45564219D01*
X70075629Y-45582497D01*
X70055885Y-45602787D01*
X70037065Y-45624881D01*
X70019080Y-45648572D01*
X70001841Y-45673655D01*
X69969248Y-45727164D01*
X69938579Y-45783754D01*
X69909127Y-45841769D01*
X69851040Y-45955458D01*
X69820991Y-46007822D01*
X69789328Y-46054991D01*
X69772670Y-46076111D01*
X69755343Y-46095312D01*
X69737259Y-46112387D01*
X69718329Y-46127130D01*
X69698465Y-46139333D01*
X69677578Y-46148789D01*
X69655580Y-46155292D01*
X69632383Y-46158635D01*
X69609477Y-46158652D01*
X69587315Y-46155532D01*
X69565840Y-46149479D01*
X69544995Y-46140700D01*
X69524723Y-46129401D01*
X69504967Y-46115787D01*
X69485672Y-46100064D01*
X69466779Y-46082438D01*
X69448232Y-46063114D01*
X69429973Y-46042299D01*
X69394097Y-45997016D01*
X69323311Y-45897604D01*
X69287492Y-45846766D01*
X69250783Y-45797369D01*
X69212728Y-45751058D01*
X69193054Y-45729574D01*
X69172874Y-45709479D01*
X69152129Y-45690979D01*
X69130764Y-45674279D01*
X69108722Y-45659586D01*
X69085946Y-45647104D01*
X69062378Y-45637040D01*
X69037963Y-45629599D01*
X69012642Y-45624988D01*
X68986360Y-45623411D01*
X68960090Y-45625005D01*
X68934783Y-45629631D01*
X68910382Y-45637084D01*
X68886831Y-45647157D01*
X68864071Y-45659646D01*
X68842047Y-45674345D01*
X68820702Y-45691048D01*
X68799978Y-45709550D01*
X68779818Y-45729644D01*
X68760167Y-45751126D01*
X68722158Y-45797430D01*
X68685498Y-45846817D01*
X68649729Y-45897641D01*
X68579046Y-45997025D01*
X68543221Y-46042295D01*
X68524988Y-46063105D01*
X68506466Y-46082424D01*
X68487598Y-46100046D01*
X68468326Y-46115767D01*
X68448594Y-46129380D01*
X68428345Y-46140680D01*
X68407522Y-46149461D01*
X68386068Y-46155517D01*
X68363927Y-46158644D01*
X68341040Y-46158635D01*
X68317853Y-46155301D01*
X68295864Y-46148805D01*
X68274985Y-46139356D01*
X68255128Y-46127159D01*
X68236204Y-46112421D01*
X68218124Y-46095349D01*
X68200801Y-46076151D01*
X68184146Y-46055033D01*
X68168071Y-46032203D01*
X68152487Y-46007866D01*
X68122438Y-45955502D01*
X68064346Y-45841807D01*
X68034889Y-45783786D01*
X68004213Y-45727190D01*
X67971613Y-45673675D01*
X67954371Y-45648589D01*
X67936382Y-45624895D01*
X67917558Y-45602798D01*
X67897811Y-45582505D01*
X67877052Y-45564225D01*
X67855194Y-45548162D01*
X67832147Y-45534526D01*
X67807824Y-45523521D01*
X67782135Y-45515355D01*
X67754993Y-45510236D01*
X67731550Y-45508457D01*
X67708763Y-45509030D01*
X67686593Y-45511795D01*
X67665001Y-45516594D01*
X67643945Y-45523265D01*
X67623388Y-45531651D01*
X67603288Y-45541591D01*
X67583607Y-45552925D01*
X67564305Y-45565495D01*
X67545341Y-45579140D01*
X67508272Y-45609020D01*
X67472083Y-45641289D01*
X67436456Y-45674670D01*
X67401074Y-45707887D01*
X67365619Y-45739664D01*
X67329773Y-45768724D01*
X67311605Y-45781837D01*
X67293220Y-45793792D01*
X67274579Y-45804430D01*
X67255642Y-45813591D01*
X67236369Y-45821116D01*
X67216720Y-45826846D01*
X67196657Y-45830619D01*
X67176138Y-45832278D01*
X67155126Y-45831663D01*
X67133579Y-45828614D01*
X67109581Y-45822299D01*
X67087068Y-45813284D01*
X67065933Y-45801745D01*
X67046073Y-45787864D01*
X67027383Y-45771817D01*
X67009758Y-45753784D01*
X66993095Y-45733944D01*
X66977287Y-45712476D01*
X66962232Y-45689558D01*
X66947823Y-45665369D01*
X66920529Y-45613893D01*
X66869106Y-45503560D01*
X66843303Y-45447562D01*
X66816325Y-45392918D01*
X66787334Y-45341057D01*
X66771823Y-45316618D01*
X66755495Y-45293411D01*
X66738245Y-45271615D01*
X66719969Y-45251409D01*
X66700563Y-45232972D01*
X66679922Y-45216482D01*
X66657941Y-45202119D01*
X66634515Y-45190060D01*
X66609541Y-45180486D01*
X66582914Y-45173574D01*
X66565155Y-45170677D01*
X66547863Y-45169151D01*
X66531013Y-45168901D01*
X66514583Y-45169831D01*
X66498552Y-45171845D01*
X66482897Y-45174848D01*
X66467594Y-45178743D01*
X66452623Y-45183434D01*
X66437959Y-45188827D01*
X66423581Y-45194824D01*
X66395592Y-45208249D01*
X66368476Y-45222944D01*
X66342052Y-45238141D01*
X66316142Y-45253074D01*
X66290564Y-45266976D01*
X66265139Y-45279080D01*
X66252428Y-45284218D01*
X66239688Y-45288619D01*
X66226896Y-45292187D01*
X66214029Y-45294827D01*
X66201066Y-45296442D01*
X66187984Y-45296937D01*
X66174760Y-45296215D01*
X66161372Y-45294182D01*
X66147798Y-45290740D01*
X66134014Y-45285795D01*
X66114331Y-45276068D01*
X66096316Y-45263950D01*
X66079865Y-45249609D01*
X66064876Y-45233214D01*
X66051246Y-45214932D01*
X66038873Y-45194934D01*
X66027655Y-45173387D01*
X66017488Y-45150460D01*
X65999899Y-45101143D01*
X65985286Y-45048331D01*
X65972828Y-44993374D01*
X65961705Y-44937622D01*
X65940181Y-44829132D01*
X65928138Y-44779092D01*
X65914147Y-44733655D01*
X65906165Y-44713085D01*
X65897388Y-44694172D01*
X65887714Y-44677084D01*
X65877040Y-44661990D01*
X65865264Y-44649060D01*
X65852283Y-44638461D01*
X65837994Y-44630362D01*
X65822295Y-44624933D01*
X65811684Y-44622984D01*
X65801135Y-44622308D01*
X65790647Y-44622818D01*
X65780220Y-44624426D01*
X65769852Y-44627047D01*
X65759543Y-44630592D01*
X65749294Y-44634974D01*
X65739102Y-44640107D01*
X65728968Y-44645904D01*
X65718892Y-44652277D01*
X65698908Y-44666404D01*
X65679146Y-44681792D01*
X65659601Y-44697744D01*
X65640270Y-44713564D01*
X65621148Y-44728555D01*
X65602231Y-44742022D01*
X65592847Y-44747965D01*
X65583514Y-44753266D01*
X65574229Y-44757838D01*
X65564992Y-44761593D01*
X65555803Y-44764444D01*
X65546662Y-44766304D01*
X65537568Y-44767087D01*
X65528519Y-44766705D01*
X65519517Y-44765071D01*
X65510559Y-44762098D01*
X65502870Y-44758341D01*
X65496056Y-44753788D01*
X65490058Y-44748461D01*
X65484814Y-44742385D01*
X65480264Y-44735582D01*
X65476348Y-44728076D01*
X65473005Y-44719890D01*
X65470174Y-44711049D01*
X65467795Y-44701575D01*
X65465807Y-44691492D01*
X65462761Y-44669592D01*
X65460553Y-44645538D01*
X65458696Y-44619517D01*
X65456707Y-44591717D01*
X65454100Y-44562326D01*
X65450391Y-44531532D01*
X65445094Y-44499522D01*
X65441699Y-44483120D01*
X65437726Y-44466485D01*
X65433113Y-44449639D01*
X65427800Y-44432608D01*
X65421727Y-44415413D01*
X65414833Y-44398078D01*
X65407057Y-44380628D01*
X65398338Y-44363085D01*
X65392300Y-44351932D01*
X65386029Y-44341073D01*
X65379536Y-44330502D01*
X65372830Y-44320212D01*
X65365920Y-44310198D01*
X65358817Y-44300453D01*
X65351530Y-44290971D01*
X65344068Y-44281746D01*
X65336442Y-44272772D01*
X65328661Y-44264044D01*
X65320734Y-44255553D01*
X65312672Y-44247296D01*
X65304484Y-44239264D01*
X65296179Y-44231453D01*
X65287767Y-44223857D01*
X65279259Y-44216468D01*
X65279014Y-44220747D01*
X65278903Y-44222895D01*
X65278807Y-44225050D01*
X65249818Y-44201744D01*
X65220223Y-44180267D01*
X65190382Y-44160417D01*
X65160656Y-44141991D01*
X65050101Y-44078495D01*
X65026350Y-44064161D01*
X65004875Y-44050040D01*
X64986034Y-44035929D01*
X64970189Y-44021626D01*
X64963503Y-44014339D01*
X64957700Y-44006929D01*
X64952827Y-43999369D01*
X64948927Y-43991635D01*
X64946046Y-43983702D01*
X64944229Y-43975543D01*
X64943522Y-43967135D01*
X64943968Y-43958451D01*
X64945043Y-43951980D01*
X64946700Y-43945704D01*
X64948906Y-43939622D01*
X64951625Y-43933731D01*
X64954822Y-43928033D01*
X64958463Y-43922524D01*
X64962513Y-43917204D01*
X64966937Y-43912072D01*
X64971700Y-43907127D01*
X64976768Y-43902368D01*
X64982106Y-43897793D01*
X64987678Y-43893402D01*
X64999389Y-43885165D01*
X65011622Y-43877648D01*
X65024098Y-43870842D01*
X65036541Y-43864739D01*
X65048670Y-43859329D01*
X65060209Y-43854604D01*
X65080398Y-43847170D01*
X65094884Y-43842366D01*
X65117118Y-43834761D01*
X65139497Y-43826457D01*
X65184491Y-43809061D01*
X65207006Y-43800624D01*
X65229469Y-43792800D01*
X65251828Y-43785914D01*
X65274035Y-43780295D01*
X65296040Y-43776271D01*
X65306951Y-43774959D01*
X65317793Y-43774169D01*
X65328560Y-43773942D01*
X65339246Y-43774317D01*
G37*
D11*
X70503115Y-46770763D02*
X70512086Y-46767888D01*
X70521064Y-46764989D01*
X70529996Y-46762084D01*
X70538935Y-46759156D01*
X70547828Y-46756222D01*
X70556727Y-46753264D01*
X70565580Y-46750301D01*
X70574440Y-46747314D01*
X70583254Y-46744321D01*
X70592074Y-46741306D01*
X70600849Y-46738284D01*
X70609629Y-46735239D01*
X70618365Y-46732188D01*
X70627105Y-46729115D01*
X70635801Y-46726036D01*
X70644501Y-46722934D01*
X70653158Y-46719826D01*
X70661819Y-46716695D01*
X70670436Y-46713559D01*
X70679057Y-46710400D01*
X70687635Y-46707235D01*
X70696215Y-46704048D01*
X70704754Y-46700855D01*
X70713295Y-46697640D01*
X70721794Y-46694419D01*
X70730295Y-46691176D01*
X70738754Y-46687927D01*
X70747215Y-46684657D01*
X70755635Y-46681380D01*
X70764056Y-46678081D01*
X70772436Y-46674777D01*
X70780817Y-46671451D01*
X70789158Y-46668120D01*
X70797499Y-46664766D01*
X70805800Y-46661407D01*
X70814102Y-46658026D01*
X70822363Y-46654640D01*
X70830625Y-46651232D01*
X70838847Y-46647819D01*
X70847069Y-46644384D01*
X70855252Y-46640943D01*
X70863434Y-46637481D01*
X70871577Y-46634014D01*
X70879719Y-46630525D01*
X70887823Y-46627031D01*
X70895925Y-46623516D01*
X70903989Y-46619995D01*
X70912053Y-46616453D01*
X70920077Y-46612906D01*
X70928101Y-46609337D01*
X70936086Y-46605764D01*
X70944070Y-46602169D01*
X70952016Y-46598569D01*
X70959960Y-46594948D01*
X70967867Y-46591322D01*
X70975772Y-46587674D01*
X70983639Y-46584022D01*
X70991504Y-46580349D01*
X70999333Y-46576671D01*
X71007159Y-46572971D01*
X71014948Y-46569267D01*
X71022734Y-46565542D01*
X71030484Y-46561812D01*
X71038232Y-46558062D01*
X71045943Y-46554306D01*
X71053651Y-46550529D01*
X71061323Y-46546748D01*
X71068992Y-46542946D01*
X71076625Y-46539140D01*
X71084255Y-46535312D01*
X71091849Y-46531480D01*
X71099440Y-46527627D01*
X71106996Y-46523770D01*
X71114547Y-46519892D01*
X71122064Y-46516009D01*
X71129577Y-46512106D01*
X71137055Y-46508198D01*
X71144530Y-46504270D01*
X71151969Y-46500337D01*
X71159405Y-46496384D01*
X71166806Y-46492426D01*
X71174203Y-46488448D01*
X71181565Y-46484465D01*
X71188923Y-46480462D01*
X71196248Y-46476455D01*
X71203567Y-46472427D01*
X71210853Y-46468395D01*
X71218135Y-46464343D01*
X71225382Y-46460286D01*
X71232625Y-46456209D01*
X71239835Y-46452127D01*
X71247040Y-46448026D01*
X71254211Y-46443920D01*
X71261378Y-46439794D01*
X71268511Y-46435663D01*
X71275640Y-46431513D01*
X71282735Y-46427358D01*
X71289826Y-46423184D01*
X71296884Y-46419005D01*
X71303936Y-46414806D01*
X71310956Y-46410603D01*
X71317971Y-46406379D01*
X71324953Y-46402152D01*
X71331930Y-46397905D01*
X71338875Y-46393653D01*
X71345814Y-46389382D01*
X71352722Y-46385107D01*
X71359623Y-46380811D01*
X71366493Y-46376512D01*
X71373357Y-46372193D01*
X71380190Y-46367869D01*
X71387017Y-46363526D01*
X71393813Y-46359179D01*
X71400602Y-46354812D01*
X71407361Y-46350441D01*
X71414112Y-46346050D01*
X71420834Y-46341655D01*
X71427549Y-46337241D01*
X71434234Y-46332822D01*
X71440911Y-46328384D01*
X71447559Y-46323942D01*
X71454200Y-46319481D01*
X71460811Y-46315015D01*
X71467415Y-46310529D01*
X71473990Y-46306040D01*
X71480557Y-46301531D01*
X71487095Y-46297018D01*
X71493625Y-46292486D01*
X71500127Y-46287950D01*
X71506620Y-46283394D01*
X71513085Y-46278834D01*
X71519543Y-46274255D01*
X71525972Y-46269672D01*
X71532393Y-46265069D01*
X71538785Y-46260462D01*
X71545170Y-46255837D01*
X71551526Y-46251207D01*
X71557875Y-46246558D01*
X71564195Y-46241904D01*
X71570507Y-46237232D01*
X71576792Y-46232555D01*
X71583068Y-46227860D01*
X71589317Y-46223160D01*
X71595557Y-46218441D01*
X71601770Y-46213718D01*
X71607974Y-46208976D01*
X71614151Y-46204229D01*
X71620320Y-46199464D01*
X71626462Y-46194695D01*
X71632595Y-46189906D01*
X71638701Y-46185114D01*
X71644798Y-46180302D01*
X71650869Y-46175487D01*
X71656931Y-46170652D01*
X71662966Y-46165813D01*
X71668993Y-46160956D01*
X71674993Y-46156094D01*
X71680984Y-46151213D01*
X71686950Y-46146328D01*
X71692906Y-46141424D01*
X71698836Y-46136516D01*
X71704757Y-46131589D01*
X71710652Y-46126658D01*
X71716538Y-46121708D01*
X71722398Y-46116754D01*
X71728249Y-46111781D01*
X71734074Y-46106804D01*
X71739890Y-46101808D01*
X71745681Y-46096808D01*
X71751462Y-46091789D01*
X71757218Y-46086765D01*
X71762965Y-46081723D01*
X71768687Y-46076677D01*
X71774399Y-46071612D01*
X71780086Y-46066543D01*
X71785763Y-46061455D01*
X71791416Y-46056362D01*
X71797059Y-46051252D01*
X71802678Y-46046136D01*
X71808286Y-46041002D01*
X71813871Y-46035864D01*
X71819445Y-46030707D01*
X71824995Y-46025545D01*
X71830536Y-46020365D01*
X71836052Y-46015181D01*
X71841558Y-46009978D01*
X71847040Y-46004770D01*
X71852513Y-45999544D01*
X71857961Y-45994314D01*
X71863399Y-45989065D01*
X71868814Y-45983811D01*
X71874218Y-45978539D01*
X71879599Y-45973262D01*
X71884970Y-45967967D01*
X71890317Y-45962667D01*
X71895654Y-45957348D01*
X71900967Y-45952025D01*
X71906271Y-45946684D01*
X71911551Y-45941338D01*
X71916821Y-45935973D01*
X71922067Y-45930604D01*
X71927304Y-45925216D01*
X71932517Y-45919824D01*
X71937720Y-45914413D01*
X71942900Y-45908997D01*
X71948070Y-45903563D01*
X71953217Y-45898124D01*
X71958353Y-45892667D01*
X71963467Y-45887204D01*
X71968570Y-45881724D01*
X71973650Y-45876238D01*
X71978720Y-45870735D01*
X71983768Y-45865226D01*
X71988805Y-45859699D01*
X71993820Y-45854167D01*
X71998824Y-45848616D01*
X72003806Y-45843060D01*
X72008777Y-45837487D01*
X72013726Y-45831908D01*
X72018664Y-45826311D01*
X72023580Y-45820708D01*
X72028486Y-45815088D01*
X72033370Y-45809461D01*
X72038242Y-45803818D01*
X72043093Y-45798168D01*
X72047933Y-45792500D01*
X72052752Y-45786827D01*
X72057559Y-45781136D01*
X72062345Y-45775439D01*
X72067120Y-45769725D01*
X72071874Y-45764004D01*
X72076616Y-45758266D01*
X72081337Y-45752522D01*
X72086047Y-45746760D01*
X72090736Y-45740992D01*
X72095414Y-45735206D01*
X72100070Y-45729414D01*
X72104716Y-45723605D01*
X72109340Y-45717789D01*
X72113953Y-45711956D01*
X72118545Y-45706116D01*
X72123126Y-45700259D01*
X72127686Y-45694396D01*
X72132235Y-45688515D01*
X72136763Y-45682627D01*
X72141279Y-45676722D01*
X72145775Y-45670810D01*
X72150260Y-45664881D01*
X72154724Y-45658945D01*
X72159176Y-45652992D01*
X72163608Y-45647032D01*
X72168028Y-45641055D01*
X72172429Y-45635071D01*
X72176817Y-45629069D01*
X72181185Y-45623061D01*
X72185542Y-45617035D01*
X72190241Y-45610496D01*
D12*
G36*
X69155122Y-46312753D02*
G01*
X69285527Y-46322297D01*
X69415186Y-46336632D01*
X69542937Y-46355345D01*
X69667614Y-46378021D01*
X69788053Y-46404247D01*
X69903088Y-46433609D01*
X70011556Y-46465695D01*
X70112292Y-46500089D01*
X70204132Y-46536379D01*
X70285909Y-46574150D01*
X70356461Y-46612991D01*
X70414622Y-46652485D01*
X70459227Y-46692221D01*
X70476082Y-46712051D01*
X70489112Y-46731785D01*
X70498171Y-46751373D01*
X70503113Y-46770762D01*
X70366488Y-46811953D01*
X70231818Y-46848000D01*
X70099714Y-46879239D01*
X69970787Y-46906007D01*
X69845648Y-46928641D01*
X69724907Y-46947476D01*
X69499061Y-46975098D01*
X69298135Y-46991564D01*
X69127014Y-46999568D01*
X68990583Y-47001800D01*
X68893727Y-47000953D01*
X68808331Y-46998891D01*
X68688170Y-46993800D01*
X68537295Y-46983413D01*
X68451607Y-46975527D01*
X68359761Y-46965466D01*
X68262262Y-46952949D01*
X68159618Y-46937692D01*
X68052336Y-46919413D01*
X67940920Y-46897826D01*
X67825879Y-46872651D01*
X67707719Y-46843602D01*
X67586946Y-46810398D01*
X67464067Y-46772754D01*
X67468900Y-46752847D01*
X67478085Y-46732695D01*
X67491468Y-46712359D01*
X67508900Y-46691897D01*
X67530228Y-46671368D01*
X67555302Y-46650832D01*
X67583968Y-46630348D01*
X67616076Y-46609975D01*
X67651474Y-46589773D01*
X67690011Y-46569800D01*
X67775895Y-46530781D01*
X67872514Y-46493392D01*
X67978657Y-46458105D01*
X68093110Y-46425397D01*
X68214662Y-46395739D01*
X68342099Y-46369607D01*
X68474210Y-46347474D01*
X68609782Y-46329814D01*
X68747603Y-46317101D01*
X68886459Y-46309810D01*
X69025139Y-46308412D01*
X69155122Y-46312753D01*
G37*
D11*
X71932779Y-40683157D02*
X71955671Y-40683888D01*
X71978384Y-40685235D01*
X72000872Y-40687173D01*
X72023088Y-40689680D01*
X72044986Y-40692731D01*
X72066519Y-40696302D01*
X72087642Y-40700369D01*
X72108308Y-40704908D01*
X72128470Y-40709895D01*
X72148083Y-40715306D01*
X72190686Y-40729102D01*
X72231779Y-40745212D01*
X72271388Y-40763496D01*
X72309540Y-40783817D01*
X72346259Y-40806038D01*
X72381572Y-40830020D01*
X72415504Y-40855626D01*
X72448081Y-40882718D01*
X72479328Y-40911157D01*
X72509271Y-40940807D01*
X72537937Y-40971530D01*
X72565350Y-41003187D01*
X72616522Y-41068754D01*
X72662993Y-41136406D01*
X72704969Y-41205040D01*
X72742655Y-41273553D01*
X72776257Y-41340844D01*
X72805980Y-41405809D01*
X72832031Y-41467347D01*
X72854614Y-41524354D01*
X72890200Y-41620366D01*
X72899961Y-41648688D01*
X72909220Y-41678714D01*
X72918057Y-41710660D01*
X72926552Y-41744741D01*
X72934783Y-41781172D01*
X72942829Y-41820167D01*
X72958685Y-41906711D01*
X72974753Y-42006092D01*
X72991666Y-42120029D01*
X73030559Y-42398451D01*
X73065468Y-42659409D01*
X73080377Y-42783285D01*
X73092395Y-42899664D01*
X73100625Y-43006225D01*
X73104171Y-43100647D01*
X73103908Y-43142580D01*
X73102138Y-43180608D01*
X73098749Y-43214441D01*
X73093629Y-43243788D01*
X73150914Y-43380319D01*
X73196284Y-43516675D01*
X73230761Y-43652065D01*
X73255366Y-43785700D01*
X73271119Y-43916788D01*
X73279041Y-44044538D01*
X73280154Y-44168161D01*
X73275478Y-44286866D01*
X73266034Y-44399861D01*
X73252843Y-44506357D01*
X73236926Y-44605563D01*
X73219304Y-44696689D01*
X73183028Y-44851536D01*
X73152182Y-44964574D01*
X73122274Y-45063427D01*
X73089358Y-45159321D01*
X73053626Y-45252288D01*
X73015269Y-45342362D01*
X72931441Y-45513964D01*
X72839405Y-45674394D01*
X72740687Y-45823922D01*
X72636816Y-45962814D01*
X72529320Y-46091339D01*
X72419727Y-46209764D01*
X72309565Y-46318357D01*
X72200364Y-46417386D01*
X72093650Y-46507120D01*
X71990952Y-46587825D01*
X71803718Y-46723221D01*
X71650886Y-46825719D01*
X71458824Y-46944826D01*
X71267197Y-47049449D01*
X71076747Y-47140530D01*
X70888216Y-47219009D01*
X70702343Y-47285829D01*
X70519872Y-47341930D01*
X70341542Y-47388253D01*
X70168096Y-47425740D01*
X70000274Y-47455333D01*
X69838818Y-47477972D01*
X69684470Y-47494598D01*
X69537970Y-47506154D01*
X69271481Y-47517817D01*
X69045281Y-47520491D01*
X68835612Y-47519389D01*
X68580000Y-47509696D01*
X68436964Y-47499281D01*
X68284842Y-47483903D01*
X68124431Y-47462623D01*
X67956532Y-47434503D01*
X67781943Y-47398603D01*
X67601465Y-47353985D01*
X67415897Y-47299711D01*
X67226037Y-47234843D01*
X67032686Y-47158440D01*
X66836643Y-47069566D01*
X66638706Y-46967281D01*
X66539278Y-46910816D01*
X66439677Y-46850646D01*
X66267452Y-46741806D01*
X66170014Y-46677334D01*
X66066805Y-46605673D01*
X65959159Y-46526455D01*
X65848411Y-46439314D01*
X65735896Y-46343882D01*
X65622948Y-46239793D01*
X65510901Y-46126680D01*
X65401091Y-46004176D01*
X65294853Y-45871914D01*
X65243489Y-45802010D01*
X65193519Y-45729528D01*
X65145109Y-45654424D01*
X65098426Y-45576650D01*
X65053637Y-45496162D01*
X65010908Y-45412914D01*
X64970407Y-45326859D01*
X64932299Y-45237953D01*
X64896753Y-45146148D01*
X64863934Y-45051399D01*
X64827225Y-44935303D01*
X64805716Y-44860746D01*
X64783618Y-44776174D01*
X64762062Y-44682332D01*
X64742183Y-44579961D01*
X64725114Y-44469807D01*
X64711990Y-44352612D01*
X64703943Y-44229120D01*
X64702107Y-44100074D01*
X64707616Y-43966219D01*
X64713479Y-43897720D01*
X64721604Y-43828297D01*
X64732131Y-43758043D01*
X64745204Y-43687052D01*
X64760963Y-43615416D01*
X64779550Y-43543227D01*
X64801107Y-43470580D01*
X64825775Y-43397567D01*
X64853697Y-43324280D01*
X64885014Y-43250814D01*
X64879314Y-43222224D01*
X64875438Y-43188917D01*
X64873266Y-43151199D01*
X64872681Y-43109375D01*
X64873564Y-43063750D01*
X64875797Y-43014630D01*
X64883842Y-42907129D01*
X64895871Y-42789316D01*
X64910939Y-42663635D01*
X64946410Y-42398451D01*
X64985327Y-42120029D01*
X65002260Y-42006092D01*
X65018347Y-41906711D01*
X65034214Y-41820167D01*
X65050488Y-41744741D01*
X65067798Y-41678714D01*
X65086770Y-41620366D01*
X65122404Y-41524354D01*
X65171060Y-41405809D01*
X65200787Y-41340844D01*
X65234388Y-41273553D01*
X65272070Y-41205040D01*
X65314039Y-41136406D01*
X65360501Y-41068754D01*
X65411664Y-41003187D01*
X65439072Y-40971530D01*
X65467732Y-40940807D01*
X65497670Y-40911157D01*
X65528912Y-40882718D01*
X65561484Y-40855626D01*
X65595412Y-40830020D01*
X65630721Y-40806038D01*
X65667437Y-40783817D01*
X65705585Y-40763496D01*
X65745193Y-40745212D01*
X65786284Y-40729102D01*
X65828886Y-40715306D01*
X65848499Y-40709895D01*
X65868661Y-40704908D01*
X65889327Y-40700369D01*
X65910450Y-40696302D01*
X65931984Y-40692731D01*
X65953881Y-40689680D01*
X65976097Y-40687173D01*
X65998585Y-40685235D01*
X66021298Y-40683888D01*
X66044191Y-40683157D01*
X66067216Y-40683067D01*
X66090328Y-40683640D01*
X66113480Y-40684902D01*
X66136625Y-40686875D01*
X66159719Y-40689585D01*
X66182713Y-40693055D01*
X66197084Y-40695219D01*
X66211456Y-40697700D01*
X66225819Y-40700506D01*
X66240163Y-40703645D01*
X66254478Y-40707123D01*
X66268753Y-40710950D01*
X66282978Y-40715131D01*
X66297142Y-40719676D01*
X66311236Y-40724591D01*
X66325250Y-40729885D01*
X66339172Y-40735564D01*
X66352992Y-40741636D01*
X66366701Y-40748109D01*
X66380288Y-40754991D01*
X66393743Y-40762289D01*
X66407054Y-40770011D01*
X66429220Y-40783490D01*
X66443347Y-40792593D01*
X66458973Y-40803248D01*
X66475703Y-40815434D01*
X66493141Y-40829134D01*
X66510889Y-40844328D01*
X66528552Y-40860998D01*
X66545732Y-40879124D01*
X66554017Y-40888728D01*
X66562033Y-40898688D01*
X66569731Y-40909004D01*
X66577060Y-40919671D01*
X66583971Y-40930689D01*
X66590414Y-40942055D01*
X66596340Y-40953765D01*
X66601700Y-40965819D01*
X66606444Y-40978213D01*
X66610521Y-40990945D01*
X66613884Y-41004013D01*
X66616481Y-41017415D01*
X66618264Y-41031148D01*
X66619183Y-41045210D01*
X66619235Y-41058131D01*
X66618575Y-41071458D01*
X66617208Y-41085049D01*
X66615134Y-41098764D01*
X66612358Y-41112464D01*
X66608882Y-41126008D01*
X66604708Y-41139257D01*
X66599840Y-41152068D01*
X66594279Y-41164304D01*
X66588030Y-41175823D01*
X66581093Y-41186485D01*
X66573473Y-41196150D01*
X66569407Y-41200565D01*
X66565171Y-41204679D01*
X66560766Y-41208473D01*
X66556191Y-41211930D01*
X66551447Y-41215032D01*
X66546535Y-41217763D01*
X66541454Y-41220105D01*
X66536205Y-41222039D01*
X66532621Y-41223112D01*
X66529077Y-41223951D01*
X66525570Y-41224561D01*
X66522093Y-41224946D01*
X66518640Y-41225112D01*
X66515206Y-41225062D01*
X66511785Y-41224803D01*
X66508372Y-41224340D01*
X66504961Y-41223676D01*
X66501546Y-41222817D01*
X66498122Y-41221768D01*
X66494683Y-41220534D01*
X66491223Y-41219119D01*
X66487737Y-41217529D01*
X66484219Y-41215768D01*
X66480664Y-41213842D01*
X66468279Y-41231742D01*
X66455862Y-41250145D01*
X66449711Y-41259573D01*
X66443634Y-41269174D01*
X66437659Y-41278964D01*
X66431814Y-41288957D01*
X66413280Y-41324648D01*
X66397748Y-41360669D01*
X66384997Y-41396872D01*
X66374811Y-41433107D01*
X66366971Y-41469226D01*
X66361257Y-41505082D01*
X66357453Y-41540525D01*
X66355340Y-41575406D01*
X66354698Y-41609578D01*
X66355311Y-41642892D01*
X66356960Y-41675199D01*
X66359425Y-41706350D01*
X66365935Y-41764594D01*
X66373094Y-41816435D01*
X66377714Y-41844925D01*
X66383265Y-41872810D01*
X66389706Y-41900095D01*
X66396996Y-41926786D01*
X66405094Y-41952889D01*
X66413958Y-41978409D01*
X66423548Y-42003354D01*
X66433821Y-42027727D01*
X66512532Y-42014582D01*
X66588725Y-42004596D01*
X66662268Y-41997335D01*
X66733027Y-41992365D01*
X66800868Y-41989254D01*
X66865660Y-41987569D01*
X66985557Y-41986740D01*
X67078827Y-41988079D01*
X67167235Y-41991956D01*
X67251070Y-41998206D01*
X67330621Y-42006665D01*
X67406176Y-42017170D01*
X67478026Y-42029555D01*
X67611760Y-42059314D01*
X67734133Y-42094629D01*
X67847456Y-42134188D01*
X67954039Y-42176677D01*
X68056193Y-42220784D01*
X68256453Y-42308605D01*
X68359179Y-42349692D01*
X68466718Y-42387148D01*
X68581378Y-42419659D01*
X68705471Y-42445914D01*
X68771777Y-42456285D01*
X68841307Y-42464599D01*
X68914350Y-42470693D01*
X68991195Y-42474402D01*
X69065530Y-42475495D01*
X69135623Y-42474081D01*
X69201808Y-42470320D01*
X69264423Y-42464373D01*
X69323803Y-42456400D01*
X69380283Y-42446562D01*
X69434200Y-42435018D01*
X69485888Y-42421929D01*
X69583926Y-42391759D01*
X69677083Y-42357332D01*
X69859497Y-42280843D01*
X69954128Y-42241346D01*
X70054623Y-42202723D01*
X70163669Y-42166258D01*
X70222238Y-42149235D01*
X70283952Y-42133232D01*
X70349147Y-42118411D01*
X70418159Y-42104930D01*
X70491323Y-42092951D01*
X70568976Y-42082633D01*
X70651453Y-42074137D01*
X70739090Y-42067624D01*
X70832222Y-42063254D01*
X70931186Y-42061186D01*
X71013988Y-42061295D01*
X71093658Y-42062932D01*
X71170234Y-42065997D01*
X71243754Y-42070387D01*
X71314255Y-42076001D01*
X71381774Y-42082736D01*
X71446349Y-42090490D01*
X71508016Y-42099162D01*
X71508184Y-42099162D01*
X71524640Y-42067650D01*
X71532483Y-42051499D01*
X71540050Y-42035083D01*
X71547327Y-42018398D01*
X71554297Y-42001442D01*
X71560946Y-41984212D01*
X71567259Y-41966707D01*
X71573221Y-41948923D01*
X71578818Y-41930858D01*
X71584033Y-41912510D01*
X71588853Y-41893876D01*
X71593262Y-41874954D01*
X71597246Y-41855742D01*
X71600788Y-41836236D01*
X71603875Y-41816435D01*
X71611089Y-41764594D01*
X71617638Y-41706350D01*
X71620117Y-41675199D01*
X71621776Y-41642892D01*
X71622394Y-41609578D01*
X71621755Y-41575406D01*
X71619640Y-41540525D01*
X71615829Y-41505082D01*
X71610107Y-41469226D01*
X71602252Y-41433107D01*
X71592048Y-41396872D01*
X71579276Y-41360669D01*
X71571859Y-41342627D01*
X71563718Y-41324648D01*
X71554826Y-41306752D01*
X71545155Y-41288957D01*
X71539358Y-41278964D01*
X71533406Y-41269174D01*
X71527332Y-41259573D01*
X71521170Y-41250145D01*
X71508714Y-41231742D01*
X71496305Y-41213842D01*
X71492752Y-41215768D01*
X71489240Y-41217529D01*
X71485762Y-41219119D01*
X71482313Y-41220534D01*
X71478887Y-41221768D01*
X71475477Y-41222817D01*
X71472077Y-41223676D01*
X71468681Y-41224340D01*
X71465284Y-41224803D01*
X71461878Y-41225062D01*
X71458458Y-41225112D01*
X71455018Y-41224946D01*
X71451551Y-41224561D01*
X71448052Y-41223951D01*
X71444514Y-41223112D01*
X71440931Y-41222039D01*
X71435667Y-41220105D01*
X71430573Y-41217763D01*
X71425647Y-41215032D01*
X71420891Y-41211930D01*
X71416305Y-41208473D01*
X71411889Y-41204679D01*
X71407644Y-41200565D01*
X71403570Y-41196150D01*
X71399667Y-41191451D01*
X71395936Y-41186485D01*
X71392377Y-41181270D01*
X71388990Y-41175823D01*
X71385775Y-41170162D01*
X71382734Y-41164304D01*
X71379866Y-41158267D01*
X71377172Y-41152068D01*
X71372305Y-41139257D01*
X71368138Y-41126008D01*
X71364671Y-41112464D01*
X71361909Y-41098764D01*
X71359853Y-41085049D01*
X71358507Y-41071458D01*
X71357873Y-41058131D01*
X71357954Y-41045210D01*
X71358858Y-41031148D01*
X71360628Y-41017415D01*
X71363215Y-41004013D01*
X71366567Y-40990945D01*
X71370637Y-40978213D01*
X71375374Y-40965819D01*
X71380728Y-40953765D01*
X71386650Y-40942055D01*
X71393090Y-40930689D01*
X71399998Y-40919671D01*
X71407325Y-40909004D01*
X71415021Y-40898688D01*
X71431322Y-40879124D01*
X71448502Y-40860998D01*
X71466164Y-40844328D01*
X71483911Y-40829134D01*
X71501346Y-40815434D01*
X71518070Y-40803248D01*
X71547798Y-40783490D01*
X71569915Y-40770011D01*
X71583255Y-40762289D01*
X71596730Y-40754991D01*
X71610330Y-40748109D01*
X71624048Y-40741636D01*
X71637872Y-40735564D01*
X71651793Y-40729885D01*
X71665803Y-40724591D01*
X71679890Y-40719676D01*
X71694046Y-40715131D01*
X71708261Y-40710950D01*
X71722526Y-40707123D01*
X71736830Y-40703645D01*
X71751165Y-40700506D01*
X71765521Y-40697700D01*
X71779888Y-40695219D01*
X71794257Y-40693055D01*
X71817251Y-40689585D01*
X71840344Y-40686875D01*
X71863490Y-40684902D01*
X71886642Y-40683640D01*
X71909754Y-40683067D01*
X71932779Y-40683157D01*
X72190241Y-45610496D02*
X72198951Y-45598274D01*
X72207628Y-45585961D01*
X72216270Y-45573558D01*
X72224877Y-45561067D01*
X72233447Y-45548489D01*
X72241979Y-45535825D01*
X72250472Y-45523076D01*
X72258925Y-45510243D01*
X72267336Y-45497329D01*
X72275704Y-45484334D01*
X72284028Y-45471260D01*
X72292307Y-45458109D01*
X72300539Y-45444882D01*
X72308723Y-45431581D01*
X72316857Y-45418209D01*
X72324941Y-45404766D01*
X72332973Y-45391255D01*
X72340951Y-45377678D01*
X72348874Y-45364038D01*
X72356741Y-45350335D01*
X72364550Y-45336573D01*
X72372299Y-45322755D01*
X72379988Y-45308882D01*
X72387614Y-45294956D01*
X72395176Y-45280982D01*
X72402673Y-45266961D01*
X72410102Y-45252895D01*
X72417464Y-45238789D01*
X72424755Y-45224645D01*
X72431974Y-45210466D01*
X72439120Y-45196255D01*
X72446191Y-45182016D01*
X72453186Y-45167751D01*
X72460102Y-45153464D01*
X72466939Y-45139158D01*
X72473695Y-45124838D01*
X72480368Y-45110506D01*
X72486957Y-45096167D01*
X72493459Y-45081823D01*
X72499874Y-45067479D01*
X72506200Y-45053139D01*
X72512436Y-45038807D01*
X72518579Y-45024487D01*
X72524629Y-45010182D01*
X72530584Y-44995897D01*
X72533526Y-44988762D01*
X72536442Y-44981637D01*
X72539335Y-44974515D01*
X72542203Y-44967405D01*
X72545046Y-44960299D01*
X72547864Y-44953206D01*
X72550657Y-44946118D01*
X72553424Y-44939043D01*
X72556167Y-44931976D01*
X72558883Y-44924922D01*
X72561574Y-44917878D01*
X72564238Y-44910847D01*
X72566877Y-44903828D01*
X72569489Y-44896822D01*
X72572075Y-44889830D01*
X72574635Y-44882852D01*
X72577167Y-44875889D01*
X72579673Y-44868941D01*
X72582152Y-44862009D01*
X72584604Y-44855093D01*
X72587028Y-44848195D01*
X72589426Y-44841313D01*
X72591795Y-44834451D01*
X72594138Y-44827606D01*
X72596452Y-44820782D01*
X72598739Y-44813976D01*
X72600998Y-44807192D01*
X72603229Y-44800426D01*
X72605431Y-44793685D01*
X72607607Y-44786963D01*
X72609752Y-44780267D01*
X72611871Y-44773589D01*
X72613960Y-44766940D01*
X72616021Y-44760310D01*
X72618053Y-44753710D01*
X72620058Y-44747129D01*
X72622032Y-44740580D01*
X72623979Y-44734051D01*
X72625895Y-44727555D01*
X72627785Y-44721080D01*
X72629644Y-44714639D01*
X72631475Y-44708219D01*
X72633276Y-44701836D01*
X72635050Y-44695474D01*
X72636792Y-44689149D01*
X72638508Y-44682847D01*
X72640192Y-44676584D01*
X72641850Y-44670343D01*
X72643476Y-44664142D01*
X72645076Y-44657965D01*
X72646644Y-44651829D01*
X72648185Y-44645717D01*
X72649695Y-44639648D01*
X72651179Y-44633602D01*
X72652631Y-44627601D01*
X72654056Y-44621624D01*
X72655450Y-44615693D01*
X72656818Y-44609786D01*
X72658154Y-44603926D01*
X72659465Y-44598091D01*
X72660744Y-44592304D01*
X72661996Y-44586542D01*
X72663218Y-44580829D01*
X72664414Y-44575142D01*
X72665579Y-44569504D01*
X72666718Y-44563893D01*
X72667826Y-44558333D01*
X72668909Y-44552798D01*
X72669961Y-44547316D01*
X72670987Y-44541860D01*
X72671984Y-44536457D01*
X72672955Y-44531081D01*
X72673896Y-44525758D01*
X72674812Y-44520462D01*
X72675698Y-44515221D01*
X72676559Y-44510006D01*
X72677391Y-44504847D01*
X72678198Y-44499715D01*
X72678977Y-44494638D01*
X72679730Y-44489589D01*
X72680456Y-44484596D01*
X72681156Y-44479631D01*
X72681829Y-44474723D01*
X72682478Y-44469842D01*
X72683099Y-44465018D01*
X72683696Y-44460223D01*
X72684265Y-44455485D01*
X72684811Y-44450774D01*
X72685331Y-44446122D01*
X72685827Y-44441497D01*
X72686296Y-44436931D01*
X72686743Y-44432392D01*
X72687164Y-44427913D01*
X72687562Y-44423460D01*
X72687934Y-44419067D01*
X72688284Y-44414701D01*
X72688610Y-44410394D01*
X72688913Y-44406115D01*
X72689192Y-44401895D01*
X72689449Y-44397703D01*
X72689682Y-44393569D01*
X72689894Y-44389463D01*
X72690082Y-44385415D01*
X72690249Y-44381396D01*
X72690394Y-44377434D01*
X72690518Y-44373501D01*
X72690619Y-44369625D01*
X72690700Y-44365777D01*
X72690760Y-44361988D01*
X72690799Y-44358225D01*
X72690818Y-44354521D01*
X72690816Y-44350843D01*
X72690794Y-44347223D01*
X72690753Y-44343630D01*
X72690692Y-44340094D01*
X72690611Y-44336585D01*
X72690512Y-44333133D01*
X72690393Y-44329707D01*
X72690257Y-44326338D01*
X72690101Y-44322995D01*
X72689928Y-44319707D01*
X72689736Y-44316446D01*
X72689527Y-44313241D01*
X72689300Y-44310061D01*
X72689056Y-44306936D01*
X72688795Y-44303836D01*
X72688518Y-44300791D01*
X72688223Y-44297771D01*
X72687913Y-44294804D01*
X72687586Y-44291863D01*
X72687244Y-44288975D01*
X72686885Y-44286111D01*
X72686513Y-44283300D01*
X72686123Y-44280513D01*
X72685720Y-44277777D01*
X72685301Y-44275066D01*
X72684869Y-44272406D01*
X72684421Y-44269770D01*
X72683961Y-44267183D01*
X72683485Y-44264620D01*
X72682997Y-44262106D01*
X72682494Y-44259616D01*
X72681979Y-44257174D01*
X72681450Y-44254756D01*
X72680910Y-44252384D01*
X72680354Y-44250036D01*
X72679789Y-44247733D01*
X72679209Y-44245454D01*
X72678620Y-44243220D01*
X72678016Y-44241009D01*
X72677404Y-44238842D01*
X72676776Y-44236698D01*
X72676141Y-44234596D01*
X72675492Y-44232518D01*
X72674834Y-44230481D01*
X72674163Y-44228467D01*
X72673484Y-44226494D01*
X72672792Y-44224543D01*
X72672092Y-44222632D01*
X72671379Y-44220743D01*
X72670660Y-44218893D01*
X72669927Y-44217064D01*
X72668803Y-44214361D01*
X65278807Y-44216083D02*
X65278508Y-44223417D01*
X65278282Y-44230913D01*
X65278131Y-44238572D01*
X65278058Y-44246394D01*
X65278063Y-44254380D01*
X65278149Y-44262532D01*
X65278317Y-44270849D01*
X65278568Y-44279333D01*
X65278904Y-44287983D01*
X65279327Y-44296800D01*
X65279839Y-44305784D01*
X65280440Y-44314935D01*
X65281133Y-44324252D01*
X65281918Y-44333736D01*
X65282798Y-44343386D01*
X65283773Y-44353202D01*
X65284846Y-44363182D01*
X65286016Y-44373326D01*
X65287287Y-44383634D01*
X65288658Y-44394103D01*
X65290131Y-44404734D01*
X65291707Y-44415523D01*
X65293387Y-44426471D01*
X65295172Y-44437574D01*
X65297063Y-44448832D01*
X65299062Y-44460243D01*
X65301168Y-44471804D01*
X65303382Y-44483513D01*
X65305706Y-44495368D01*
X65308140Y-44507366D01*
X65310684Y-44519505D01*
X65313339Y-44531782D01*
X65316105Y-44544195D01*
X65318983Y-44556739D01*
X65321973Y-44569413D01*
X65325075Y-44582213D01*
X65328290Y-44595136D01*
X65331617Y-44608178D01*
X65335056Y-44621335D01*
X65338607Y-44634606D01*
X65342271Y-44647985D01*
X65346046Y-44661469D01*
X65349933Y-44675054D01*
X65353931Y-44688736D01*
X65358041Y-44702512D01*
X65362260Y-44716378D01*
X65366590Y-44730328D01*
X65371029Y-44744361D01*
X65373289Y-44751407D01*
X65375576Y-44758470D01*
X65377890Y-44765554D01*
X65380231Y-44772653D01*
X65382599Y-44779771D01*
X65384994Y-44786905D01*
X65387415Y-44794056D01*
X65389862Y-44801221D01*
X65392336Y-44808403D01*
X65394836Y-44815599D01*
X65397362Y-44822809D01*
X65399915Y-44830033D01*
X65402493Y-44837270D01*
X65405096Y-44844519D01*
X65407726Y-44851780D01*
X65410381Y-44859054D01*
X65413061Y-44866337D01*
X65415767Y-44873632D01*
X65418497Y-44880936D01*
X65421253Y-44888251D01*
X65424032Y-44895573D01*
X65426838Y-44902905D01*
X65429667Y-44910243D01*
X65432521Y-44917591D01*
X65435398Y-44924943D01*
X65438301Y-44932305D01*
X65441226Y-44939669D01*
X65444176Y-44947042D01*
X65447148Y-44954417D01*
X65450145Y-44961799D01*
X65453164Y-44969182D01*
X65456208Y-44976572D01*
X65459272Y-44983960D01*
X65462361Y-44991356D01*
X65465471Y-44998749D01*
X65468606Y-45006149D01*
X65471760Y-45013544D01*
X65474938Y-45020945D01*
X65478136Y-45028341D01*
X65481359Y-45035742D01*
X65484600Y-45043136D01*
X65487865Y-45050535D01*
X65491148Y-45057926D01*
X65494456Y-45065322D01*
X65497781Y-45072708D01*
X65501130Y-45080098D01*
X65504496Y-45087477D01*
X65507885Y-45094860D01*
X65511292Y-45102231D01*
X65514721Y-45109605D01*
X65518167Y-45116965D01*
X65521636Y-45124328D01*
X65525120Y-45131677D01*
X65528628Y-45139028D01*
X65532150Y-45146363D01*
X65535696Y-45153701D01*
X65539256Y-45161021D01*
X65542838Y-45168343D01*
X65546434Y-45175646D01*
X65550053Y-45182951D01*
X65553685Y-45190237D01*
X65557340Y-45197523D01*
X65561007Y-45204789D01*
X65564696Y-45212056D01*
X65568398Y-45219301D01*
X65572121Y-45226546D01*
X65575856Y-45233769D01*
X65579614Y-45240991D01*
X65583381Y-45248191D01*
X65587171Y-45255389D01*
X65590971Y-45262563D01*
X65594793Y-45269736D01*
X65598625Y-45276884D01*
X65602478Y-45284030D01*
X65606340Y-45291151D01*
X65610223Y-45298269D01*
X65614116Y-45305362D01*
X65618029Y-45312451D01*
X65621951Y-45319513D01*
X65625893Y-45326572D01*
X65629844Y-45333603D01*
X65633815Y-45340631D01*
X65637793Y-45347630D01*
X65641792Y-45354625D01*
X65645797Y-45361591D01*
X65649823Y-45368553D01*
X65653855Y-45375485D01*
X65657908Y-45382412D01*
X65661966Y-45389309D01*
X65666044Y-45396201D01*
X65670127Y-45403062D01*
X65674230Y-45409917D01*
X65678338Y-45416742D01*
X65682466Y-45423559D01*
X65686598Y-45430346D01*
X65690749Y-45437125D01*
X65694905Y-45443873D01*
X65699079Y-45450614D01*
X65703257Y-45457322D01*
X65707454Y-45464023D01*
X65711655Y-45470691D01*
X65715874Y-45477351D01*
X65720096Y-45483979D01*
X65724336Y-45490598D01*
X65728579Y-45497183D01*
X65732840Y-45503760D01*
X65737103Y-45510303D01*
X65741384Y-45516837D01*
X65745667Y-45523337D01*
X65749968Y-45529828D01*
X65754270Y-45536285D01*
X65758590Y-45542732D01*
X65762910Y-45549144D01*
X65767249Y-45555546D01*
X65771587Y-45561913D01*
X65775944Y-45568271D01*
X65780300Y-45574593D01*
X65784673Y-45580904D01*
X65789047Y-45587180D01*
X65793437Y-45593446D01*
X65797827Y-45599676D01*
X65802234Y-45605894D01*
X65806640Y-45612077D01*
X65811062Y-45618249D01*
X65812826Y-45620701D01*
X65812826Y-45620701D02*
X65819893Y-45630444D01*
X65827072Y-45640205D01*
X65834364Y-45649986D01*
X65841770Y-45659786D01*
X65849290Y-45669604D01*
X65856925Y-45679441D01*
X65864676Y-45689298D01*
X65872544Y-45699172D01*
X65880528Y-45709066D01*
X65888630Y-45718978D01*
X65896850Y-45728909D01*
X65905189Y-45738859D01*
X65913648Y-45748826D01*
X65922227Y-45758812D01*
X65930927Y-45768816D01*
X65939748Y-45778838D01*
X65948691Y-45788878D01*
X65957757Y-45798936D01*
X65966946Y-45809011D01*
X65976259Y-45819103D01*
X65985696Y-45829213D01*
X65995259Y-45839339D01*
X66004947Y-45849482D01*
X66014761Y-45859642D01*
X66024702Y-45869818D01*
X66034769Y-45880010D01*
X66044965Y-45890217D01*
X66055289Y-45900440D01*
X66065741Y-45910679D01*
X66076323Y-45920932D01*
X66087034Y-45931199D01*
X66097875Y-45941481D01*
X66108847Y-45951776D01*
X66119949Y-45962084D01*
X66131183Y-45972406D01*
X66142548Y-45982740D01*
X66154045Y-45993086D01*
X66165674Y-46003444D01*
X66177435Y-46013813D01*
X66189329Y-46024192D01*
X66201356Y-46034581D01*
X66213516Y-46044981D01*
X66225809Y-46055388D01*
X66238235Y-46065805D01*
X66250794Y-46076229D01*
X66263487Y-46086660D01*
X66276314Y-46097097D01*
X66289273Y-46107541D01*
X66302366Y-46117989D01*
X66315591Y-46128441D01*
X66328950Y-46138897D01*
X66342441Y-46149355D01*
X66356064Y-46159815D01*
X66369819Y-46170275D01*
X66383705Y-46180736D01*
X66397722Y-46191195D01*
X66411870Y-46201652D01*
X66426147Y-46212106D01*
X66440553Y-46222555D01*
X66455086Y-46232999D01*
X66469747Y-46243436D01*
X66484535Y-46253865D01*
X66499447Y-46264285D01*
X66514482Y-46274695D01*
X66529641Y-46285092D01*
X66544920Y-46295476D01*
X66560319Y-46305844D01*
X66575835Y-46316197D01*
X66591468Y-46326530D01*
X66607214Y-46336844D01*
X66623072Y-46347136D01*
X66639040Y-46357404D01*
X66655115Y-46367647D01*
X66671294Y-46377861D01*
X66687575Y-46388046D01*
X66703954Y-46398199D01*
X66720428Y-46408317D01*
X66736994Y-46418398D01*
X66753649Y-46428440D01*
X66770387Y-46438440D01*
X66787205Y-46448395D01*
X66804098Y-46458302D01*
X66821062Y-46468158D01*
X66838091Y-46477960D01*
X66855179Y-46487705D01*
X66872322Y-46497390D01*
X66889512Y-46507010D01*
X66906742Y-46516562D01*
X66924007Y-46526042D01*
X66941297Y-46535446D01*
X66958606Y-46544770D01*
X66975925Y-46554009D01*
X66993244Y-46563158D01*
X67010554Y-46572213D01*
X67027845Y-46581168D01*
X67045106Y-46590019D01*
X67062325Y-46598759D01*
X67079491Y-46607384D01*
X67096590Y-46615886D01*
X67113609Y-46624260D01*
X67130534Y-46632500D01*
X67147349Y-46640598D01*
X67164039Y-46648549D01*
X67180587Y-46656344D01*
X67196976Y-46663977D01*
X67213188Y-46671439D01*
X67229203Y-46678725D01*
X67237140Y-46682303D01*
X67245002Y-46685826D01*
X67252823Y-46689308D01*
X67260565Y-46692733D01*
X67268259Y-46696116D01*
X67275871Y-46699441D01*
X67283426Y-46702719D01*
X67290898Y-46705940D01*
X67298304Y-46709110D01*
X67305624Y-46712223D01*
X67312870Y-46715282D01*
X67320027Y-46718282D01*
X67327102Y-46721226D01*
X67334086Y-46724110D01*
X67340978Y-46726936D01*
X67347776Y-46729701D01*
X67354475Y-46732405D01*
X67361078Y-46735048D01*
X67367571Y-46737626D01*
X67373968Y-46740145D01*
X67380246Y-46742595D01*
X67386426Y-46744986D01*
X67392480Y-46747306D01*
X67398434Y-46749567D01*
X67404253Y-46751755D01*
X67409971Y-46753885D01*
X67415548Y-46755940D01*
X67421022Y-46757936D01*
X67426348Y-46759857D01*
X67431573Y-46761720D01*
X67436642Y-46763507D01*
X67441609Y-46765236D01*
X67446416Y-46766889D01*
X67451122Y-46768486D01*
X67455664Y-46770005D01*
X67460105Y-46771471D01*
X67464052Y-46772754D01*
D12*
G36*
X72106291Y-41254162D02*
G01*
X72124155Y-41258725D01*
X72142265Y-41265691D01*
X72160575Y-41274924D01*
X72179043Y-41286285D01*
X72197623Y-41299637D01*
X72216272Y-41314843D01*
X72234944Y-41331764D01*
X72253597Y-41350264D01*
X72272184Y-41370205D01*
X72290663Y-41391449D01*
X72327116Y-41437296D01*
X72362601Y-41486705D01*
X72396765Y-41538575D01*
X72429253Y-41591806D01*
X72459710Y-41645296D01*
X72487782Y-41697946D01*
X72513114Y-41748655D01*
X72535353Y-41796322D01*
X72554143Y-41839846D01*
X72573782Y-41889555D01*
X72592613Y-41941679D01*
X72610262Y-41995572D01*
X72626351Y-42050585D01*
X72640506Y-42106070D01*
X72652350Y-42161381D01*
X72661510Y-42215870D01*
X72667607Y-42268890D01*
X72670269Y-42319793D01*
X72669117Y-42367931D01*
X72663778Y-42412657D01*
X72659421Y-42433539D01*
X72653875Y-42453324D01*
X72647095Y-42471933D01*
X72639033Y-42489285D01*
X72629642Y-42505297D01*
X72618876Y-42519891D01*
X72606687Y-42532983D01*
X72593029Y-42544495D01*
X72577854Y-42554344D01*
X72561116Y-42562450D01*
X72545006Y-42568741D01*
X72529577Y-42574095D01*
X72514780Y-42578541D01*
X72500566Y-42582106D01*
X72486885Y-42584817D01*
X72473688Y-42586702D01*
X72460926Y-42587788D01*
X72448549Y-42588104D01*
X72436508Y-42587675D01*
X72424753Y-42586531D01*
X72413236Y-42584698D01*
X72401908Y-42582204D01*
X72390718Y-42579076D01*
X72379617Y-42575343D01*
X72368556Y-42571031D01*
X72357487Y-42566168D01*
X72335123Y-42554899D01*
X72312131Y-42541756D01*
X72288116Y-42526960D01*
X72262684Y-42510730D01*
X72205990Y-42474850D01*
X72173940Y-42455640D01*
X72138894Y-42435878D01*
X72030735Y-42378630D01*
X71988706Y-42355684D01*
X71970451Y-42344878D01*
X71953939Y-42334228D01*
X71939099Y-42323520D01*
X71925857Y-42312539D01*
X71914142Y-42301069D01*
X71903881Y-42288895D01*
X71895003Y-42275803D01*
X71887433Y-42261576D01*
X71881102Y-42246000D01*
X71875935Y-42228859D01*
X71872421Y-42214168D01*
X71869566Y-42200139D01*
X71867342Y-42186713D01*
X71865725Y-42173828D01*
X71864687Y-42161422D01*
X71864202Y-42149434D01*
X71864245Y-42137803D01*
X71864789Y-42126468D01*
X71865807Y-42115368D01*
X71867274Y-42104441D01*
X71869163Y-42093626D01*
X71871448Y-42082862D01*
X71877102Y-42061241D01*
X71884024Y-42039088D01*
X71920208Y-41935364D01*
X71930328Y-41903205D01*
X71940458Y-41867576D01*
X71950387Y-41827985D01*
X71959906Y-41783943D01*
X71968039Y-41737708D01*
X71974171Y-41692045D01*
X71978640Y-41647219D01*
X71981780Y-41603501D01*
X71985421Y-41520455D01*
X71987781Y-41445050D01*
X71991549Y-41379429D01*
X71994801Y-41350957D01*
X71999412Y-41325735D01*
X72005719Y-41304031D01*
X72014058Y-41286112D01*
X72019095Y-41278655D01*
X72024765Y-41272246D01*
X72031111Y-41266917D01*
X72038175Y-41262701D01*
X72054614Y-41256273D01*
X72071476Y-41252799D01*
X72088716Y-41252141D01*
X72106291Y-41254162D01*
G37*
G36*
X65880043Y-41252799D02*
G01*
X65896905Y-41256273D01*
X65913344Y-41262701D01*
X65920408Y-41266917D01*
X65926754Y-41272246D01*
X65932424Y-41278655D01*
X65937461Y-41286112D01*
X65945800Y-41304031D01*
X65952107Y-41325735D01*
X65956718Y-41350957D01*
X65959970Y-41379429D01*
X65963738Y-41445050D01*
X65966098Y-41520455D01*
X65969739Y-41603501D01*
X65972879Y-41647219D01*
X65977348Y-41692045D01*
X65983480Y-41737708D01*
X65991612Y-41783943D01*
X66001132Y-41827985D01*
X66011061Y-41867576D01*
X66021191Y-41903205D01*
X66031311Y-41935364D01*
X66067494Y-42039088D01*
X66074417Y-42061241D01*
X66080070Y-42082862D01*
X66082356Y-42093626D01*
X66084245Y-42104441D01*
X66085712Y-42115368D01*
X66086730Y-42126468D01*
X66087274Y-42137803D01*
X66087316Y-42149434D01*
X66086832Y-42161422D01*
X66085794Y-42173828D01*
X66084177Y-42186713D01*
X66081953Y-42200139D01*
X66079097Y-42214168D01*
X66075584Y-42228859D01*
X66070417Y-42246000D01*
X66064085Y-42261576D01*
X66056516Y-42275803D01*
X66047638Y-42288895D01*
X66037377Y-42301069D01*
X66025662Y-42312539D01*
X66012420Y-42323520D01*
X65997579Y-42334228D01*
X65981068Y-42344878D01*
X65962813Y-42355684D01*
X65920784Y-42378630D01*
X65812625Y-42435878D01*
X65777579Y-42455640D01*
X65745529Y-42474850D01*
X65688835Y-42510730D01*
X65663403Y-42526960D01*
X65639388Y-42541756D01*
X65616396Y-42554899D01*
X65594032Y-42566168D01*
X65582962Y-42571031D01*
X65571902Y-42575343D01*
X65560801Y-42579076D01*
X65549611Y-42582204D01*
X65538282Y-42584698D01*
X65526765Y-42586531D01*
X65515011Y-42587675D01*
X65502970Y-42588104D01*
X65490593Y-42587788D01*
X65477830Y-42586702D01*
X65464633Y-42584817D01*
X65450952Y-42582106D01*
X65436738Y-42578541D01*
X65421941Y-42574095D01*
X65406513Y-42568741D01*
X65390403Y-42562450D01*
X65373665Y-42554344D01*
X65358490Y-42544495D01*
X65344831Y-42532983D01*
X65332642Y-42519891D01*
X65321876Y-42505297D01*
X65312486Y-42489285D01*
X65304424Y-42471933D01*
X65297643Y-42453324D01*
X65292098Y-42433539D01*
X65287741Y-42412657D01*
X65282401Y-42367931D01*
X65281250Y-42319793D01*
X65283911Y-42268890D01*
X65290009Y-42215870D01*
X65299168Y-42161381D01*
X65311013Y-42106070D01*
X65325168Y-42050585D01*
X65341257Y-41995572D01*
X65358905Y-41941679D01*
X65377737Y-41889555D01*
X65397376Y-41839846D01*
X65416166Y-41796322D01*
X65438405Y-41748655D01*
X65463737Y-41697946D01*
X65491809Y-41645296D01*
X65522266Y-41591806D01*
X65554754Y-41538575D01*
X65588918Y-41486705D01*
X65624403Y-41437296D01*
X65660856Y-41391449D01*
X65679335Y-41370205D01*
X65697922Y-41350264D01*
X65716575Y-41331764D01*
X65735247Y-41314843D01*
X65753896Y-41299637D01*
X65772476Y-41286285D01*
X65790944Y-41274924D01*
X65809254Y-41265691D01*
X65827364Y-41258725D01*
X65845228Y-41254162D01*
X65862803Y-41252141D01*
X65880043Y-41252799D01*
G37*
D11*
X68893730Y-47000960D02*
X68903578Y-47001143D01*
X68914120Y-47001315D01*
X68923709Y-47001449D01*
X68933794Y-47001567D01*
X68943355Y-47001658D01*
X68953314Y-47001730D01*
X68962915Y-47001779D01*
X68972852Y-47001808D01*
X68982517Y-47001815D01*
X68992473Y-47001801D01*
X69002209Y-47001766D01*
X69012204Y-47001710D01*
X69022012Y-47001633D01*
X69032051Y-47001534D01*
X69041928Y-47001416D01*
X69052015Y-47001275D01*
X69061956Y-47001114D01*
X69072089Y-47000930D01*
X69082089Y-47000728D01*
X69092267Y-47000502D01*
X69102321Y-47000258D01*
X69112540Y-46999989D01*
X69122644Y-46999702D01*
X69132901Y-46999391D01*
X69143049Y-46999063D01*
X69153339Y-46998709D01*
X69163527Y-46998338D01*
X69173848Y-46997942D01*
X69184071Y-46997530D01*
X69194419Y-46997092D01*
X69204673Y-46996637D01*
X69215045Y-46996157D01*
X69225326Y-46995660D01*
X69235718Y-46995138D01*
X69246022Y-46994600D01*
X69256432Y-46994035D01*
X69266756Y-46993455D01*
X69277179Y-46992849D01*
X69287520Y-46992228D01*
X69297955Y-46991580D01*
X69308309Y-46990917D01*
X69318753Y-46990228D01*
X69329118Y-46989524D01*
X69339568Y-46988794D01*
X69349940Y-46988048D01*
X69360394Y-46987277D01*
X69370772Y-46986490D01*
X69381228Y-46985678D01*
X69391609Y-46984851D01*
X69402064Y-46983997D01*
X69412445Y-46983130D01*
X69422898Y-46982236D01*
X69433278Y-46981328D01*
X69443726Y-46980393D01*
X69454103Y-46979445D01*
X69464544Y-46978470D01*
X69474916Y-46977482D01*
X69485349Y-46976467D01*
X69495714Y-46975439D01*
X69506137Y-46974384D01*
X69516493Y-46973316D01*
X69526906Y-46972222D01*
X69537251Y-46971115D01*
X69547651Y-46969981D01*
X69557985Y-46968834D01*
X69568371Y-46967661D01*
X69578691Y-46966476D01*
X69589061Y-46965264D01*
X69599367Y-46964039D01*
X69609721Y-46962788D01*
X69620011Y-46961525D01*
X69630347Y-46960235D01*
X69640620Y-46958933D01*
X69650937Y-46957605D01*
X69661192Y-46956265D01*
X69671489Y-46954899D01*
X69681724Y-46953520D01*
X69692000Y-46952116D01*
X69702215Y-46950700D01*
X69712469Y-46949258D01*
X69722663Y-46947804D01*
X69732894Y-46946324D01*
X69743066Y-46944833D01*
X69753273Y-46943316D01*
X69763422Y-46941787D01*
X69773604Y-46940233D01*
X69783729Y-46938667D01*
X69793886Y-46937076D01*
X69803986Y-46935473D01*
X69814117Y-46933845D01*
X69824191Y-46932206D01*
X69834296Y-46930541D01*
X69844344Y-46928865D01*
X69854421Y-46927164D01*
X69864442Y-46925452D01*
X69874491Y-46923714D01*
X69884484Y-46921966D01*
X69894504Y-46920193D01*
X69904469Y-46918409D01*
X69914460Y-46916600D01*
X69924397Y-46914780D01*
X69934358Y-46912935D01*
X69944265Y-46911080D01*
X69954196Y-46909200D01*
X69964072Y-46907309D01*
X69973972Y-46905394D01*
X69983819Y-46903468D01*
X69993688Y-46901518D01*
X70003503Y-46899558D01*
X70013340Y-46897572D01*
X70023124Y-46895577D01*
X70032929Y-46893557D01*
X70042681Y-46891527D01*
X70052453Y-46889473D01*
X70062174Y-46887409D01*
X70071913Y-46885320D01*
X70081600Y-46883222D01*
X70091306Y-46881100D01*
X70100961Y-46878968D01*
X70110633Y-46876811D01*
X70120254Y-46874645D01*
X70129892Y-46872455D01*
X70139480Y-46870255D01*
X70149084Y-46868032D01*
X70158637Y-46865799D01*
X70168206Y-46863542D01*
X70177726Y-46861275D01*
X70187260Y-46858985D01*
X70196745Y-46856686D01*
X70206244Y-46854363D01*
X70215694Y-46852031D01*
X70225157Y-46849675D01*
X70234572Y-46847310D01*
X70244000Y-46844921D01*
X70253380Y-46842524D01*
X70262772Y-46840103D01*
X70272116Y-46837674D01*
X70281472Y-46835220D01*
X70290780Y-46832758D01*
X70300100Y-46830273D01*
X70309372Y-46827779D01*
X70318655Y-46825262D01*
X70327892Y-46822736D01*
X70337138Y-46820187D01*
X70346338Y-46817630D01*
X70355547Y-46815049D01*
X70364711Y-46812460D01*
X70373884Y-46809848D01*
X70383011Y-46807228D01*
X70392146Y-46804585D01*
X70401236Y-46801933D01*
X70410334Y-46799259D01*
X70419388Y-46796577D01*
X70428448Y-46793871D01*
X70437465Y-46791158D01*
X70446488Y-46788422D01*
X70455467Y-46785678D01*
X70464453Y-46782911D01*
X70473394Y-46780136D01*
X70482342Y-46777339D01*
X70491247Y-46774534D01*
X70500157Y-46771706D01*
X70503115Y-46770763D01*
D12*
G36*
X70778406Y-43323357D02*
G01*
X70768717Y-43340693D01*
X70759481Y-43360000D01*
X70750727Y-43381182D01*
X70742486Y-43404145D01*
X70734791Y-43428795D01*
X70727673Y-43455039D01*
X70721163Y-43482781D01*
X70715292Y-43511927D01*
X70710091Y-43542384D01*
X70705593Y-43574056D01*
X70701828Y-43606851D01*
X70698828Y-43640673D01*
X70696623Y-43675429D01*
X70695246Y-43711024D01*
X70694728Y-43747364D01*
X70695214Y-43789003D01*
X70696827Y-43829688D01*
X70699522Y-43869276D01*
X70703252Y-43907623D01*
X70707969Y-43944585D01*
X70713628Y-43980018D01*
X70720181Y-44013778D01*
X70727583Y-44045721D01*
X70735785Y-44075703D01*
X70744743Y-44103580D01*
X70754408Y-44129209D01*
X70764734Y-44152444D01*
X70775675Y-44173143D01*
X70787183Y-44191162D01*
X70799213Y-44206356D01*
X70811717Y-44218581D01*
X70774353Y-44222008D01*
X70737397Y-44224062D01*
X70701019Y-44224696D01*
X70665389Y-44223862D01*
X70630675Y-44221512D01*
X70597047Y-44217599D01*
X70564674Y-44212074D01*
X70533725Y-44204891D01*
X70504369Y-44196000D01*
X70476777Y-44185354D01*
X70451116Y-44172906D01*
X70427556Y-44158607D01*
X70406267Y-44142411D01*
X70396527Y-44133585D01*
X70387418Y-44124268D01*
X70378961Y-44114451D01*
X70371177Y-44104131D01*
X70364088Y-44093300D01*
X70357715Y-44081952D01*
X70349307Y-44063408D01*
X70342563Y-44043574D01*
X70337447Y-44022548D01*
X70333927Y-44000425D01*
X70331969Y-43977302D01*
X70331540Y-43953275D01*
X70332605Y-43928439D01*
X70335131Y-43902890D01*
X70339084Y-43876725D01*
X70344431Y-43850039D01*
X70359171Y-43795490D01*
X70379082Y-43740011D01*
X70403894Y-43684370D01*
X70433338Y-43629335D01*
X70467145Y-43575675D01*
X70505045Y-43524157D01*
X70525446Y-43499441D01*
X70546769Y-43475549D01*
X70568981Y-43452576D01*
X70592049Y-43430619D01*
X70615937Y-43409774D01*
X70640613Y-43390137D01*
X70666044Y-43371803D01*
X70692194Y-43354868D01*
X70719032Y-43339430D01*
X70746522Y-43325583D01*
X70751784Y-43323153D01*
X70757043Y-43320795D01*
X70762298Y-43318507D01*
X70767550Y-43316288D01*
X70772797Y-43314137D01*
X70778040Y-43312053D01*
X70783279Y-43310036D01*
X70788513Y-43308084D01*
X70778406Y-43323357D01*
G37*
G36*
X71004666Y-43277293D02*
G01*
X71031237Y-43279250D01*
X71057492Y-43282199D01*
X71083408Y-43286034D01*
X71108963Y-43290652D01*
X71134133Y-43295946D01*
X71158896Y-43301812D01*
X71207108Y-43314839D01*
X71253417Y-43328892D01*
X71297639Y-43343132D01*
X71329371Y-43354008D01*
X71362318Y-43366372D01*
X71396020Y-43380096D01*
X71430013Y-43395053D01*
X71463836Y-43411117D01*
X71497026Y-43428162D01*
X71529120Y-43446060D01*
X71559657Y-43464686D01*
X71588174Y-43483912D01*
X71614209Y-43503611D01*
X71637300Y-43523659D01*
X71656983Y-43543926D01*
X71665403Y-43554103D01*
X71672798Y-43564288D01*
X71679110Y-43574465D01*
X71684281Y-43584617D01*
X71688254Y-43594730D01*
X71690970Y-43604787D01*
X71692373Y-43614773D01*
X71692404Y-43624671D01*
X71692044Y-43628379D01*
X71691481Y-43631944D01*
X71690714Y-43635380D01*
X71689741Y-43638704D01*
X71688560Y-43641929D01*
X71687169Y-43645071D01*
X71685568Y-43648144D01*
X71683754Y-43651164D01*
X71681725Y-43654145D01*
X71679481Y-43657103D01*
X71677019Y-43660053D01*
X71674338Y-43663009D01*
X71671436Y-43665986D01*
X71668312Y-43669000D01*
X71661389Y-43675196D01*
X71653557Y-43681717D01*
X71644802Y-43688682D01*
X71624472Y-43704426D01*
X71612872Y-43713443D01*
X71600296Y-43723383D01*
X71586733Y-43734366D01*
X71572169Y-43746511D01*
X71548764Y-43766862D01*
X71526963Y-43786828D01*
X71506685Y-43806360D01*
X71487846Y-43825408D01*
X71470365Y-43843922D01*
X71454158Y-43861855D01*
X71425241Y-43895775D01*
X71400435Y-43926774D01*
X71379082Y-43954455D01*
X71360522Y-43978425D01*
X71344097Y-43998289D01*
X71327649Y-44015585D01*
X71309237Y-44032440D01*
X71288981Y-44048819D01*
X71267001Y-44064688D01*
X71243416Y-44080014D01*
X71218346Y-44094763D01*
X71191910Y-44108901D01*
X71164229Y-44122394D01*
X71135421Y-44135208D01*
X71105606Y-44147311D01*
X71074905Y-44158667D01*
X71043436Y-44169243D01*
X71011319Y-44179006D01*
X70978674Y-44187921D01*
X70945620Y-44195955D01*
X70912278Y-44203073D01*
X70923157Y-44188715D01*
X70933601Y-44172022D01*
X70943573Y-44153104D01*
X70953038Y-44132067D01*
X70961960Y-44109021D01*
X70970302Y-44084073D01*
X70978028Y-44057331D01*
X70985103Y-44028904D01*
X70991490Y-43998898D01*
X70997153Y-43967423D01*
X71002058Y-43934586D01*
X71006166Y-43900495D01*
X71009443Y-43865259D01*
X71011853Y-43828985D01*
X71013359Y-43791781D01*
X71013925Y-43753755D01*
X71013427Y-43711862D01*
X71011788Y-43670935D01*
X71009056Y-43631122D01*
X71005279Y-43592567D01*
X71000503Y-43555419D01*
X70994777Y-43519823D01*
X70988148Y-43485926D01*
X70980663Y-43453874D01*
X70972370Y-43423815D01*
X70963317Y-43395894D01*
X70953550Y-43370258D01*
X70943118Y-43347054D01*
X70932067Y-43326428D01*
X70920446Y-43308527D01*
X70908302Y-43293496D01*
X70895682Y-43281484D01*
X70923287Y-43278423D01*
X70950669Y-43276774D01*
X70977803Y-43276433D01*
X71004666Y-43277293D01*
G37*
D11*
X67464052Y-46772754D02*
X67481532Y-46778356D01*
X67499082Y-46783897D01*
X67516702Y-46789376D01*
X67534391Y-46794793D01*
X67552149Y-46800149D01*
X67569976Y-46805441D01*
X67587871Y-46810672D01*
X67605835Y-46815839D01*
X67623866Y-46820942D01*
X67641964Y-46825982D01*
X67660129Y-46830958D01*
X67678360Y-46835870D01*
X67696657Y-46840717D01*
X67715020Y-46845499D01*
X67733447Y-46850216D01*
X67751939Y-46854867D01*
X67770494Y-46859453D01*
X67789112Y-46863971D01*
X67807793Y-46868424D01*
X67826535Y-46872809D01*
X67845339Y-46877126D01*
X67864202Y-46881377D01*
X67883125Y-46885559D01*
X67902107Y-46889672D01*
X67921146Y-46893717D01*
X67940242Y-46897693D01*
X67959394Y-46901599D01*
X67978600Y-46905435D01*
X67997860Y-46909201D01*
X68017173Y-46912896D01*
X68036537Y-46916521D01*
X68055951Y-46920074D01*
X68075414Y-46923555D01*
X68094925Y-46926965D01*
X68114481Y-46930302D01*
X68134082Y-46933566D01*
X68153726Y-46936756D01*
X68173412Y-46939874D01*
X68193137Y-46942917D01*
X68212899Y-46945886D01*
X68232698Y-46948781D01*
X68252531Y-46951600D01*
X68272395Y-46954344D01*
X68292289Y-46957012D01*
X68312211Y-46959605D01*
X68332157Y-46962120D01*
X68352126Y-46964560D01*
X68372116Y-46966921D01*
X68392122Y-46969206D01*
X68412143Y-46971413D01*
X68432175Y-46973542D01*
X68452216Y-46975592D01*
X68472262Y-46977564D01*
X68492310Y-46979457D01*
X68512357Y-46981271D01*
X68532399Y-46983006D01*
X68552433Y-46984661D01*
X68572456Y-46986237D01*
X68592464Y-46987733D01*
X68612454Y-46989150D01*
X68632424Y-46990486D01*
X68652370Y-46991743D01*
X68672293Y-46992921D01*
X68692191Y-46994020D01*
X68712068Y-46995040D01*
X68731928Y-46995982D01*
X68751784Y-46996847D01*
X68771655Y-46997636D01*
X68791577Y-46998352D01*
X68811615Y-46998997D01*
X68831893Y-46999575D01*
X68852671Y-47000096D01*
X68874615Y-47000578D01*
X68893730Y-47000960D01*
D12*
G36*
X67048309Y-43277618D02*
G01*
X67075107Y-43280029D01*
X67068652Y-43285475D01*
X67062311Y-43291713D01*
X67056090Y-43298724D01*
X67049994Y-43306489D01*
X67044029Y-43314989D01*
X67038202Y-43324207D01*
X67026986Y-43344715D01*
X67016393Y-43367865D01*
X67006474Y-43393504D01*
X66997275Y-43421483D01*
X66988848Y-43451651D01*
X66981239Y-43483858D01*
X66974499Y-43517952D01*
X66968676Y-43553784D01*
X66963818Y-43591203D01*
X66959975Y-43630059D01*
X66957196Y-43670200D01*
X66955529Y-43711477D01*
X66955023Y-43753738D01*
X66955572Y-43791185D01*
X66957032Y-43827837D01*
X66959369Y-43863590D01*
X66962549Y-43898342D01*
X66966537Y-43931989D01*
X66971299Y-43964428D01*
X66976800Y-43995556D01*
X66983007Y-44025271D01*
X66989885Y-44053469D01*
X66997399Y-44080047D01*
X67005515Y-44104902D01*
X67014200Y-44127931D01*
X67023417Y-44149031D01*
X67033134Y-44168100D01*
X67043315Y-44185032D01*
X67053927Y-44199727D01*
X67021712Y-44192406D01*
X66989819Y-44184238D01*
X66958358Y-44175254D01*
X66927438Y-44165486D01*
X66897167Y-44154964D01*
X66867655Y-44143719D01*
X66839011Y-44131782D01*
X66811345Y-44119184D01*
X66784764Y-44105955D01*
X66759379Y-44092126D01*
X66735299Y-44077729D01*
X66712633Y-44062794D01*
X66691489Y-44047351D01*
X66671977Y-44031432D01*
X66654206Y-44015068D01*
X66638285Y-43998289D01*
X66630298Y-43988895D01*
X66621860Y-43978425D01*
X66603301Y-43954455D01*
X66581947Y-43926774D01*
X66557141Y-43895775D01*
X66543238Y-43879156D01*
X66528224Y-43861855D01*
X66512017Y-43843922D01*
X66494536Y-43825408D01*
X66475697Y-43806360D01*
X66455419Y-43786828D01*
X66433618Y-43766862D01*
X66410213Y-43746511D01*
X66395649Y-43734366D01*
X66382086Y-43723383D01*
X66357910Y-43704426D01*
X66337580Y-43688682D01*
X66328826Y-43681717D01*
X66320993Y-43675196D01*
X66314071Y-43669000D01*
X66308044Y-43663009D01*
X66302901Y-43657103D01*
X66298628Y-43651164D01*
X66295213Y-43645071D01*
X66292642Y-43638704D01*
X66290901Y-43631944D01*
X66289979Y-43624671D01*
X66290010Y-43614773D01*
X66291412Y-43604787D01*
X66294129Y-43594730D01*
X66298102Y-43584617D01*
X66303273Y-43574465D01*
X66309585Y-43564288D01*
X66316979Y-43554103D01*
X66325399Y-43543926D01*
X66334786Y-43533773D01*
X66345083Y-43523659D01*
X66356231Y-43513600D01*
X66368173Y-43503611D01*
X66380851Y-43493710D01*
X66394208Y-43483912D01*
X66422725Y-43464686D01*
X66453262Y-43446060D01*
X66485356Y-43428162D01*
X66518546Y-43411117D01*
X66552368Y-43395053D01*
X66586362Y-43380096D01*
X66620063Y-43366372D01*
X66653011Y-43354008D01*
X66684743Y-43343132D01*
X66727779Y-43329268D01*
X66772799Y-43315559D01*
X66819632Y-43302782D01*
X66843677Y-43296985D01*
X66868112Y-43291712D01*
X66892916Y-43287060D01*
X66918067Y-43283125D01*
X66943546Y-43280006D01*
X66969331Y-43277799D01*
X66995401Y-43276600D01*
X67021734Y-43276508D01*
X67048309Y-43277618D01*
G37*
G36*
X67183151Y-43304303D02*
G01*
X67190660Y-43306929D01*
X67198175Y-43309689D01*
X67205699Y-43312586D01*
X67213229Y-43315622D01*
X67220766Y-43318798D01*
X67228309Y-43322118D01*
X67235859Y-43325583D01*
X67263350Y-43339430D01*
X67290187Y-43354868D01*
X67316338Y-43371803D01*
X67341768Y-43390137D01*
X67366445Y-43409774D01*
X67390333Y-43430619D01*
X67413400Y-43452576D01*
X67435612Y-43475549D01*
X67456936Y-43499441D01*
X67477337Y-43524157D01*
X67496782Y-43549600D01*
X67515237Y-43575675D01*
X67549044Y-43629335D01*
X67578488Y-43684370D01*
X67603300Y-43740011D01*
X67613885Y-43767818D01*
X67623211Y-43795490D01*
X67631244Y-43822928D01*
X67637951Y-43850039D01*
X67643298Y-43876725D01*
X67647251Y-43902890D01*
X67649777Y-43928439D01*
X67650843Y-43953275D01*
X67650413Y-43977302D01*
X67648455Y-44000425D01*
X67644935Y-44022548D01*
X67639820Y-44043574D01*
X67633075Y-44063408D01*
X67624667Y-44081952D01*
X67618160Y-44093518D01*
X67610910Y-44104547D01*
X67602938Y-44115046D01*
X67594267Y-44125020D01*
X67584920Y-44134477D01*
X67574918Y-44143422D01*
X67564285Y-44151862D01*
X67553043Y-44159802D01*
X67541215Y-44167251D01*
X67528822Y-44174213D01*
X67515887Y-44180696D01*
X67502433Y-44186705D01*
X67488482Y-44192246D01*
X67474056Y-44197328D01*
X67459178Y-44201954D01*
X67443871Y-44206133D01*
X67412057Y-44213171D01*
X67378793Y-44218493D01*
X67344259Y-44222150D01*
X67308635Y-44224191D01*
X67272099Y-44224669D01*
X67234832Y-44223634D01*
X67197013Y-44221136D01*
X67158820Y-44217226D01*
X67165051Y-44211351D01*
X67171169Y-44204732D01*
X67177169Y-44197387D01*
X67183045Y-44189333D01*
X67194404Y-44171168D01*
X67205200Y-44150378D01*
X67215387Y-44127105D01*
X67224920Y-44101488D01*
X67233753Y-44073669D01*
X67241840Y-44043786D01*
X67249136Y-44011982D01*
X67255595Y-43978397D01*
X67261172Y-43943171D01*
X67265820Y-43906445D01*
X67269495Y-43868359D01*
X67272150Y-43829053D01*
X67273740Y-43788670D01*
X67274220Y-43747348D01*
X67273673Y-43709980D01*
X67272219Y-43673403D01*
X67269891Y-43637721D01*
X67266723Y-43603034D01*
X67262750Y-43569445D01*
X67258006Y-43537058D01*
X67252525Y-43505975D01*
X67246340Y-43476298D01*
X67239487Y-43448130D01*
X67231999Y-43421573D01*
X67223910Y-43396730D01*
X67215255Y-43373703D01*
X67206067Y-43352595D01*
X67196381Y-43333508D01*
X67186231Y-43316546D01*
X67175650Y-43301810D01*
X67183151Y-43304303D01*
G37*
D11*
X69426435Y-44521033D02*
X69441666Y-44521504D01*
X69456249Y-44522350D01*
X69470161Y-44523521D01*
X69483381Y-44524965D01*
X69495887Y-44526633D01*
X69507659Y-44528473D01*
X69518673Y-44530436D01*
X69528909Y-44532471D01*
X69546958Y-44536553D01*
X69561632Y-44540316D01*
X69584143Y-44546435D01*
X69609524Y-44553754D01*
X69622732Y-44557847D01*
X69635985Y-44562220D01*
X69649059Y-44566868D01*
X69661731Y-44571782D01*
X69673776Y-44576958D01*
X69684970Y-44582388D01*
X69695089Y-44588066D01*
X69699676Y-44590996D01*
X69703909Y-44593986D01*
X69707762Y-44597034D01*
X69711206Y-44600140D01*
X69714213Y-44603304D01*
X69716756Y-44606523D01*
X69718805Y-44609798D01*
X69720334Y-44613128D01*
X69721313Y-44616512D01*
X69721716Y-44619949D01*
X69720787Y-44626358D01*
X69717662Y-44632191D01*
X69712449Y-44637520D01*
X69705259Y-44642415D01*
X69685379Y-44651191D01*
X69658896Y-44659087D01*
X69504374Y-44693255D01*
X69457959Y-44705288D01*
X69410175Y-44719857D01*
X69361894Y-44737529D01*
X69313990Y-44758875D01*
X69290451Y-44771103D01*
X69267334Y-44784463D01*
X69244746Y-44799025D01*
X69222799Y-44814862D01*
X69201599Y-44832043D01*
X69181257Y-44850641D01*
X69161882Y-44870726D01*
X69143582Y-44892370D01*
X68995259Y-45218209D01*
X68850232Y-44892370D01*
X68831909Y-44870340D01*
X68812444Y-44849886D01*
X68791949Y-44830939D01*
X68770538Y-44813428D01*
X68748326Y-44797283D01*
X68725425Y-44782434D01*
X68701949Y-44768811D01*
X68678013Y-44756343D01*
X68653728Y-44744961D01*
X68629211Y-44734593D01*
X68604572Y-44725171D01*
X68579928Y-44716623D01*
X68531074Y-44701871D01*
X68483557Y-44689775D01*
X68325048Y-44656729D01*
X68297856Y-44649495D01*
X68286751Y-44645645D01*
X68277457Y-44641547D01*
X68270088Y-44637131D01*
X68264759Y-44632326D01*
X68261582Y-44627063D01*
X68260671Y-44621270D01*
X68261049Y-44618433D01*
X68261931Y-44615647D01*
X68263300Y-44612913D01*
X68265141Y-44610226D01*
X68270173Y-44604993D01*
X68276896Y-44599933D01*
X68285182Y-44595035D01*
X68294900Y-44590283D01*
X68305921Y-44585664D01*
X68318115Y-44581166D01*
X68331354Y-44576773D01*
X68345508Y-44572474D01*
X68376041Y-44564098D01*
X68442385Y-44547862D01*
X68487966Y-44537541D01*
X68513815Y-44532588D01*
X68541706Y-44528271D01*
X68556418Y-44526469D01*
X68571642Y-44524965D01*
X68587377Y-44523807D01*
X68603624Y-44523042D01*
X68620383Y-44522716D01*
X68637655Y-44522876D01*
X68655439Y-44523569D01*
X68673736Y-44524842D01*
X68694823Y-44527024D01*
X68714118Y-44529756D01*
X68731930Y-44532960D01*
X68748570Y-44536556D01*
X68764346Y-44540468D01*
X68779569Y-44544617D01*
X68809592Y-44553315D01*
X68841116Y-44562026D01*
X68858215Y-44566190D01*
X68876618Y-44570124D01*
X68896634Y-44573749D01*
X68918574Y-44576987D01*
X68942747Y-44579760D01*
X68969462Y-44581990D01*
X68987171Y-44583022D01*
X69003611Y-44583656D01*
X69018609Y-44583965D01*
X69031997Y-44584020D01*
X69043603Y-44583892D01*
X69053256Y-44583653D01*
X69066025Y-44583127D01*
X69090998Y-44581421D01*
X69113831Y-44579032D01*
X69134795Y-44576052D01*
X69154156Y-44572568D01*
X69172185Y-44568670D01*
X69189151Y-44564446D01*
X69220966Y-44555379D01*
X69251753Y-44546079D01*
X69267433Y-44541565D01*
X69283663Y-44537259D01*
X69300712Y-44533251D01*
X69318848Y-44529630D01*
X69338340Y-44526485D01*
X69359458Y-44523905D01*
X69377067Y-44522372D01*
X69394114Y-44521416D01*
X69410577Y-44520986D01*
X69426435Y-44521033D01*
D13*
X73518017Y-49011822D02*
X73403731Y-49049917D01*
X73403731Y-49049917D02*
X73213255Y-49049917D01*
X73213255Y-49049917D02*
X73137064Y-49011822D01*
X73137064Y-49011822D02*
X73098969Y-48973726D01*
X73098969Y-48973726D02*
X73060874Y-48897536D01*
X73060874Y-48897536D02*
X73060874Y-48821345D01*
X73060874Y-48821345D02*
X73098969Y-48745155D01*
X73098969Y-48745155D02*
X73137064Y-48707060D01*
X73137064Y-48707060D02*
X73213255Y-48668964D01*
X73213255Y-48668964D02*
X73365636Y-48630869D01*
X73365636Y-48630869D02*
X73441826Y-48592774D01*
X73441826Y-48592774D02*
X73479921Y-48554679D01*
X73479921Y-48554679D02*
X73518017Y-48478488D01*
X73518017Y-48478488D02*
X73518017Y-48402298D01*
X73518017Y-48402298D02*
X73479921Y-48326107D01*
X73479921Y-48326107D02*
X73441826Y-48288012D01*
X73441826Y-48288012D02*
X73365636Y-48249917D01*
X73365636Y-48249917D02*
X73175159Y-48249917D01*
X73175159Y-48249917D02*
X73060874Y-48288012D01*
X72603731Y-49049917D02*
X72679921Y-49011822D01*
X72679921Y-49011822D02*
X72718016Y-48973726D01*
X72718016Y-48973726D02*
X72756112Y-48897536D01*
X72756112Y-48897536D02*
X72756112Y-48668964D01*
X72756112Y-48668964D02*
X72718016Y-48592774D01*
X72718016Y-48592774D02*
X72679921Y-48554679D01*
X72679921Y-48554679D02*
X72603731Y-48516583D01*
X72603731Y-48516583D02*
X72489445Y-48516583D01*
X72489445Y-48516583D02*
X72413254Y-48554679D01*
X72413254Y-48554679D02*
X72375159Y-48592774D01*
X72375159Y-48592774D02*
X72337064Y-48668964D01*
X72337064Y-48668964D02*
X72337064Y-48897536D01*
X72337064Y-48897536D02*
X72375159Y-48973726D01*
X72375159Y-48973726D02*
X72413254Y-49011822D01*
X72413254Y-49011822D02*
X72489445Y-49049917D01*
X72489445Y-49049917D02*
X72603731Y-49049917D01*
X71651349Y-48516583D02*
X71651349Y-49049917D01*
X71994206Y-48516583D02*
X71994206Y-48935631D01*
X71994206Y-48935631D02*
X71956111Y-49011822D01*
X71956111Y-49011822D02*
X71879921Y-49049917D01*
X71879921Y-49049917D02*
X71765635Y-49049917D01*
X71765635Y-49049917D02*
X71689444Y-49011822D01*
X71689444Y-49011822D02*
X71651349Y-48973726D01*
X71270396Y-48516583D02*
X71270396Y-49049917D01*
X71270396Y-48592774D02*
X71232301Y-48554679D01*
X71232301Y-48554679D02*
X71156111Y-48516583D01*
X71156111Y-48516583D02*
X71041825Y-48516583D01*
X71041825Y-48516583D02*
X70965634Y-48554679D01*
X70965634Y-48554679D02*
X70927539Y-48630869D01*
X70927539Y-48630869D02*
X70927539Y-49049917D01*
X70203729Y-49049917D02*
X70203729Y-48249917D01*
X70203729Y-49011822D02*
X70279920Y-49049917D01*
X70279920Y-49049917D02*
X70432301Y-49049917D01*
X70432301Y-49049917D02*
X70508491Y-49011822D01*
X70508491Y-49011822D02*
X70546586Y-48973726D01*
X70546586Y-48973726D02*
X70584682Y-48897536D01*
X70584682Y-48897536D02*
X70584682Y-48668964D01*
X70584682Y-48668964D02*
X70546586Y-48592774D01*
X70546586Y-48592774D02*
X70508491Y-48554679D01*
X70508491Y-48554679D02*
X70432301Y-48516583D01*
X70432301Y-48516583D02*
X70279920Y-48516583D01*
X70279920Y-48516583D02*
X70203729Y-48554679D01*
X69822776Y-48745155D02*
X69213253Y-48745155D01*
X68718015Y-49049917D02*
X68794205Y-49011822D01*
X68794205Y-49011822D02*
X68832300Y-48973726D01*
X68832300Y-48973726D02*
X68870396Y-48897536D01*
X68870396Y-48897536D02*
X68870396Y-48668964D01*
X68870396Y-48668964D02*
X68832300Y-48592774D01*
X68832300Y-48592774D02*
X68794205Y-48554679D01*
X68794205Y-48554679D02*
X68718015Y-48516583D01*
X68718015Y-48516583D02*
X68603729Y-48516583D01*
X68603729Y-48516583D02*
X68527538Y-48554679D01*
X68527538Y-48554679D02*
X68489443Y-48592774D01*
X68489443Y-48592774D02*
X68451348Y-48668964D01*
X68451348Y-48668964D02*
X68451348Y-48897536D01*
X68451348Y-48897536D02*
X68489443Y-48973726D01*
X68489443Y-48973726D02*
X68527538Y-49011822D01*
X68527538Y-49011822D02*
X68603729Y-49049917D01*
X68603729Y-49049917D02*
X68718015Y-49049917D01*
X68108490Y-48745155D02*
X67498967Y-48745155D01*
X67118014Y-49049917D02*
X67118014Y-48516583D01*
X67118014Y-48592774D02*
X67079919Y-48554679D01*
X67079919Y-48554679D02*
X67003729Y-48516583D01*
X67003729Y-48516583D02*
X66889443Y-48516583D01*
X66889443Y-48516583D02*
X66813252Y-48554679D01*
X66813252Y-48554679D02*
X66775157Y-48630869D01*
X66775157Y-48630869D02*
X66775157Y-49049917D01*
X66775157Y-48630869D02*
X66737062Y-48554679D01*
X66737062Y-48554679D02*
X66660871Y-48516583D01*
X66660871Y-48516583D02*
X66546586Y-48516583D01*
X66546586Y-48516583D02*
X66470395Y-48554679D01*
X66470395Y-48554679D02*
X66432300Y-48630869D01*
X66432300Y-48630869D02*
X66432300Y-49049917D01*
X65746585Y-49011822D02*
X65822776Y-49049917D01*
X65822776Y-49049917D02*
X65975157Y-49049917D01*
X65975157Y-49049917D02*
X66051347Y-49011822D01*
X66051347Y-49011822D02*
X66089443Y-48935631D01*
X66089443Y-48935631D02*
X66089443Y-48630869D01*
X66089443Y-48630869D02*
X66051347Y-48554679D01*
X66051347Y-48554679D02*
X65975157Y-48516583D01*
X65975157Y-48516583D02*
X65822776Y-48516583D01*
X65822776Y-48516583D02*
X65746585Y-48554679D01*
X65746585Y-48554679D02*
X65708490Y-48630869D01*
X65708490Y-48630869D02*
X65708490Y-48707060D01*
X65708490Y-48707060D02*
X66089443Y-48783250D01*
X65479919Y-48516583D02*
X65175157Y-48516583D01*
X65365633Y-48249917D02*
X65365633Y-48935631D01*
X65365633Y-48935631D02*
X65327538Y-49011822D01*
X65327538Y-49011822D02*
X65251348Y-49049917D01*
X65251348Y-49049917D02*
X65175157Y-49049917D01*
X64603728Y-49011822D02*
X64679919Y-49049917D01*
X64679919Y-49049917D02*
X64832300Y-49049917D01*
X64832300Y-49049917D02*
X64908490Y-49011822D01*
X64908490Y-49011822D02*
X64946586Y-48935631D01*
X64946586Y-48935631D02*
X64946586Y-48630869D01*
X64946586Y-48630869D02*
X64908490Y-48554679D01*
X64908490Y-48554679D02*
X64832300Y-48516583D01*
X64832300Y-48516583D02*
X64679919Y-48516583D01*
X64679919Y-48516583D02*
X64603728Y-48554679D01*
X64603728Y-48554679D02*
X64565633Y-48630869D01*
X64565633Y-48630869D02*
X64565633Y-48707060D01*
X64565633Y-48707060D02*
X64946586Y-48783250D01*
X64222776Y-49049917D02*
X64222776Y-48516583D01*
X64222776Y-48668964D02*
X64184681Y-48592774D01*
X64184681Y-48592774D02*
X64146586Y-48554679D01*
X64146586Y-48554679D02*
X64070395Y-48516583D01*
X64070395Y-48516583D02*
X63994205Y-48516583D01*
X66840407Y-50140774D02*
X66602312Y-50807441D01*
X66602312Y-50807441D02*
X66364217Y-50140774D01*
X65459455Y-50807441D02*
X66030883Y-50807441D01*
X65745169Y-50807441D02*
X65745169Y-49807441D01*
X65745169Y-49807441D02*
X65840407Y-49950298D01*
X65840407Y-49950298D02*
X65935645Y-50045536D01*
X65935645Y-50045536D02*
X66030883Y-50093155D01*
X65030883Y-50712202D02*
X64983264Y-50759822D01*
X64983264Y-50759822D02*
X65030883Y-50807441D01*
X65030883Y-50807441D02*
X65078502Y-50759822D01*
X65078502Y-50759822D02*
X65030883Y-50712202D01*
X65030883Y-50712202D02*
X65030883Y-50807441D01*
X64126122Y-50140774D02*
X64126122Y-50807441D01*
X64364217Y-49759822D02*
X64602312Y-50474107D01*
X64602312Y-50474107D02*
X63983265Y-50474107D01*
%LPC*%
G36*
X108196742Y-53034601D02*
G01*
X108350687Y-53098367D01*
X108489234Y-53190941D01*
X108607059Y-53308766D01*
X108699633Y-53447313D01*
X108763399Y-53601258D01*
X108795907Y-53764685D01*
X108795907Y-53931315D01*
X108763399Y-54094742D01*
X108699633Y-54248687D01*
X108607059Y-54387234D01*
X108489234Y-54505059D01*
X108350687Y-54597633D01*
X108196742Y-54661399D01*
X108033315Y-54693907D01*
X107866685Y-54693907D01*
X107703258Y-54661399D01*
X107549313Y-54597633D01*
X107410766Y-54505059D01*
X107292941Y-54387234D01*
X107200367Y-54248687D01*
X107136601Y-54094742D01*
X107104093Y-53931315D01*
X107104093Y-53764685D01*
X107136601Y-53601258D01*
X107200367Y-53447313D01*
X107292941Y-53308766D01*
X107410766Y-53190941D01*
X107549313Y-53098367D01*
X107703258Y-53034601D01*
X107866685Y-53002093D01*
X108033315Y-53002093D01*
X108196742Y-53034601D01*
G37*
G36*
X50074285Y-52383060D02*
G01*
X50255397Y-52458079D01*
X50418393Y-52566990D01*
X50557010Y-52705607D01*
X50665921Y-52868603D01*
X50740940Y-53049715D01*
X50779185Y-53241983D01*
X50779185Y-53438017D01*
X50740940Y-53630285D01*
X50665921Y-53811397D01*
X50557010Y-53974393D01*
X50418393Y-54113010D01*
X50255397Y-54221921D01*
X50074285Y-54296940D01*
X49882017Y-54335185D01*
X49685983Y-54335185D01*
X49493715Y-54296940D01*
X49312603Y-54221921D01*
X49149607Y-54113010D01*
X49010990Y-53974393D01*
X48902079Y-53811397D01*
X48827060Y-53630285D01*
X48788815Y-53438017D01*
X48788815Y-53241983D01*
X48827060Y-53049715D01*
X48902079Y-52868603D01*
X49010990Y-52705607D01*
X49149607Y-52566990D01*
X49312603Y-52458079D01*
X49493715Y-52383060D01*
X49685983Y-52344815D01*
X49882017Y-52344815D01*
X50074285Y-52383060D01*
G37*
G36*
X114958315Y-52154093D02*
G01*
X115121742Y-52186601D01*
X115275687Y-52250367D01*
X115414234Y-52342941D01*
X115532059Y-52460766D01*
X115624633Y-52599313D01*
X115688399Y-52753258D01*
X115720907Y-52916685D01*
X115720907Y-53083315D01*
X115688399Y-53246742D01*
X115624633Y-53400687D01*
X115532059Y-53539234D01*
X115414234Y-53657059D01*
X115275687Y-53749633D01*
X115121742Y-53813399D01*
X114958315Y-53845907D01*
X114875000Y-53850000D01*
X114873522Y-53850000D01*
X114626478Y-53850000D01*
X114625000Y-53850000D01*
X114541685Y-53845907D01*
X114378258Y-53813399D01*
X114224313Y-53749633D01*
X114085766Y-53657059D01*
X113967941Y-53539234D01*
X113875367Y-53400687D01*
X113811601Y-53246742D01*
X113779093Y-53083315D01*
X113779093Y-52916685D01*
X113811601Y-52753258D01*
X113875367Y-52599313D01*
X113967941Y-52460766D01*
X114085766Y-52342941D01*
X114224313Y-52250367D01*
X114378258Y-52186601D01*
X114541685Y-52154093D01*
X114625000Y-52150000D01*
X114875000Y-52150000D01*
X114958315Y-52154093D01*
G37*
G36*
X55430228Y-52066448D02*
G01*
X55575117Y-52126463D01*
X55705515Y-52213592D01*
X55816408Y-52324485D01*
X55903537Y-52454883D01*
X55963552Y-52599772D01*
X55994148Y-52753586D01*
X55994148Y-52910414D01*
X55963552Y-53064228D01*
X55903537Y-53209117D01*
X55816408Y-53339515D01*
X55705515Y-53450408D01*
X55575117Y-53537537D01*
X55430228Y-53597552D01*
X55276414Y-53628148D01*
X55119586Y-53628148D01*
X54965772Y-53597552D01*
X54820883Y-53537537D01*
X54690485Y-53450408D01*
X54579592Y-53339515D01*
X54492463Y-53209117D01*
X54432448Y-53064228D01*
X54401852Y-52910414D01*
X54401852Y-52753586D01*
X54432448Y-52599772D01*
X54492463Y-52454883D01*
X54579592Y-52324485D01*
X54690485Y-52213592D01*
X54820883Y-52126463D01*
X54965772Y-52066448D01*
X55119586Y-52035852D01*
X55276414Y-52035852D01*
X55430228Y-52066448D01*
G37*
G36*
X60430228Y-52066448D02*
G01*
X60575117Y-52126463D01*
X60705515Y-52213592D01*
X60816408Y-52324485D01*
X60903537Y-52454883D01*
X60963552Y-52599772D01*
X60994148Y-52753586D01*
X60994148Y-52910414D01*
X60963552Y-53064228D01*
X60903537Y-53209117D01*
X60816408Y-53339515D01*
X60705515Y-53450408D01*
X60575117Y-53537537D01*
X60430228Y-53597552D01*
X60276414Y-53628148D01*
X60119586Y-53628148D01*
X59965772Y-53597552D01*
X59820883Y-53537537D01*
X59690485Y-53450408D01*
X59579592Y-53339515D01*
X59492463Y-53209117D01*
X59432448Y-53064228D01*
X59401852Y-52910414D01*
X59401852Y-52753586D01*
X59432448Y-52599772D01*
X59492463Y-52454883D01*
X59579592Y-52324485D01*
X59690485Y-52213592D01*
X59820883Y-52126463D01*
X59965772Y-52066448D01*
X60119586Y-52035852D01*
X60276414Y-52035852D01*
X60430228Y-52066448D01*
G37*
G36*
X93277813Y-52926000D02*
G01*
X92227813Y-52926000D01*
X92227813Y-51426000D01*
X93277813Y-51426000D01*
X93277813Y-52926000D01*
G37*
G36*
X94223722Y-51465963D02*
G01*
X94342413Y-51534489D01*
X94439324Y-51631400D01*
X94507850Y-51750091D01*
X94543322Y-51882474D01*
X94547813Y-51951000D01*
X94547813Y-52401000D01*
X94543322Y-52469526D01*
X94507850Y-52601909D01*
X94439324Y-52720600D01*
X94342413Y-52817511D01*
X94223722Y-52886037D01*
X94091339Y-52921509D01*
X93954287Y-52921509D01*
X93821904Y-52886037D01*
X93703213Y-52817511D01*
X93606302Y-52720600D01*
X93537776Y-52601909D01*
X93502304Y-52469526D01*
X93497813Y-52401000D01*
X93497813Y-51951000D01*
X93502304Y-51882474D01*
X93537776Y-51750091D01*
X93606302Y-51631400D01*
X93703213Y-51534489D01*
X93821904Y-51465963D01*
X93954287Y-51430491D01*
X94091339Y-51430491D01*
X94223722Y-51465963D01*
G37*
G36*
X95493722Y-51465963D02*
G01*
X95612413Y-51534489D01*
X95709324Y-51631400D01*
X95777850Y-51750091D01*
X95813322Y-51882474D01*
X95817813Y-51951000D01*
X95817813Y-52401000D01*
X95813322Y-52469526D01*
X95777850Y-52601909D01*
X95709324Y-52720600D01*
X95612413Y-52817511D01*
X95493722Y-52886037D01*
X95361339Y-52921509D01*
X95224287Y-52921509D01*
X95091904Y-52886037D01*
X94973213Y-52817511D01*
X94876302Y-52720600D01*
X94807776Y-52601909D01*
X94772304Y-52469526D01*
X94767813Y-52401000D01*
X94767813Y-51951000D01*
X94772304Y-51882474D01*
X94807776Y-51750091D01*
X94876302Y-51631400D01*
X94973213Y-51534489D01*
X95091904Y-51465963D01*
X95224287Y-51430491D01*
X95361339Y-51430491D01*
X95493722Y-51465963D01*
G37*
G36*
X108196742Y-50494601D02*
G01*
X108350687Y-50558367D01*
X108489234Y-50650941D01*
X108607059Y-50768766D01*
X108699633Y-50907313D01*
X108763399Y-51061258D01*
X108795907Y-51224685D01*
X108795907Y-51391315D01*
X108763399Y-51554742D01*
X108699633Y-51708687D01*
X108607059Y-51847234D01*
X108489234Y-51965059D01*
X108350687Y-52057633D01*
X108196742Y-52121399D01*
X108033315Y-52153907D01*
X107866685Y-52153907D01*
X107703258Y-52121399D01*
X107549313Y-52057633D01*
X107410766Y-51965059D01*
X107292941Y-51847234D01*
X107200367Y-51708687D01*
X107136601Y-51554742D01*
X107104093Y-51391315D01*
X107104093Y-51224685D01*
X107136601Y-51061258D01*
X107200367Y-50907313D01*
X107292941Y-50768766D01*
X107410766Y-50650941D01*
X107549313Y-50558367D01*
X107703258Y-50494601D01*
X107866685Y-50462093D01*
X108033315Y-50462093D01*
X108196742Y-50494601D01*
G37*
G36*
X50074285Y-49843060D02*
G01*
X50255397Y-49918079D01*
X50418393Y-50026990D01*
X50557010Y-50165607D01*
X50665921Y-50328603D01*
X50740940Y-50509715D01*
X50779185Y-50701983D01*
X50779185Y-50898017D01*
X50740940Y-51090285D01*
X50665921Y-51271397D01*
X50557010Y-51434393D01*
X50418393Y-51573010D01*
X50255397Y-51681921D01*
X50074285Y-51756940D01*
X49882017Y-51795185D01*
X49685983Y-51795185D01*
X49493715Y-51756940D01*
X49312603Y-51681921D01*
X49149607Y-51573010D01*
X49010990Y-51434393D01*
X48902079Y-51271397D01*
X48827060Y-51090285D01*
X48788815Y-50898017D01*
X48788815Y-50701983D01*
X48827060Y-50509715D01*
X48902079Y-50328603D01*
X49010990Y-50165607D01*
X49149607Y-50026990D01*
X49312603Y-49918079D01*
X49493715Y-49843060D01*
X49685983Y-49804815D01*
X49882017Y-49804815D01*
X50074285Y-49843060D01*
G37*
G36*
X114958315Y-49654093D02*
G01*
X115121742Y-49686601D01*
X115275687Y-49750367D01*
X115414234Y-49842941D01*
X115532059Y-49960766D01*
X115624633Y-50099313D01*
X115688399Y-50253258D01*
X115720907Y-50416685D01*
X115720907Y-50583315D01*
X115688399Y-50746742D01*
X115624633Y-50900687D01*
X115532059Y-51039234D01*
X115414234Y-51157059D01*
X115275687Y-51249633D01*
X115121742Y-51313399D01*
X114958315Y-51345907D01*
X114875000Y-51350000D01*
X114873522Y-51350000D01*
X114626478Y-51350000D01*
X114625000Y-51350000D01*
X114541685Y-51345907D01*
X114378258Y-51313399D01*
X114224313Y-51249633D01*
X114085766Y-51157059D01*
X113967941Y-51039234D01*
X113875367Y-50900687D01*
X113811601Y-50746742D01*
X113779093Y-50583315D01*
X113779093Y-50416685D01*
X113811601Y-50253258D01*
X113875367Y-50099313D01*
X113967941Y-49960766D01*
X114085766Y-49842941D01*
X114224313Y-49750367D01*
X114378258Y-49686601D01*
X114541685Y-49654093D01*
X114625000Y-49650000D01*
X114875000Y-49650000D01*
X114958315Y-49654093D01*
G37*
G36*
X108800000Y-49618000D02*
G01*
X107100000Y-49618000D01*
X107100000Y-47918000D01*
X108800000Y-47918000D01*
X108800000Y-49618000D01*
G37*
G36*
X50074285Y-47303060D02*
G01*
X50255397Y-47378079D01*
X50418393Y-47486990D01*
X50557010Y-47625607D01*
X50665921Y-47788603D01*
X50740940Y-47969715D01*
X50779185Y-48161983D01*
X50779185Y-48358017D01*
X50740940Y-48550285D01*
X50665921Y-48731397D01*
X50557010Y-48894393D01*
X50418393Y-49033010D01*
X50255397Y-49141921D01*
X50074285Y-49216940D01*
X49882017Y-49255185D01*
X49685983Y-49255185D01*
X49493715Y-49216940D01*
X49312603Y-49141921D01*
X49149607Y-49033010D01*
X49010990Y-48894393D01*
X48902079Y-48731397D01*
X48827060Y-48550285D01*
X48788815Y-48358017D01*
X48788815Y-48161983D01*
X48827060Y-47969715D01*
X48902079Y-47788603D01*
X49010990Y-47625607D01*
X49149607Y-47486990D01*
X49312603Y-47378079D01*
X49493715Y-47303060D01*
X49685983Y-47264815D01*
X49882017Y-47264815D01*
X50074285Y-47303060D01*
G37*
G36*
X115479850Y-47150964D02*
G01*
X115530040Y-47156787D01*
X115547189Y-47164359D01*
X115570671Y-47169030D01*
X115595810Y-47185827D01*
X115615696Y-47194608D01*
X115629277Y-47208189D01*
X115651777Y-47223223D01*
X115666810Y-47245722D01*
X115680391Y-47259303D01*
X115689170Y-47279186D01*
X115705970Y-47304329D01*
X115710641Y-47327812D01*
X115718212Y-47344959D01*
X115724033Y-47395139D01*
X115725000Y-47400000D01*
X115725000Y-48600000D01*
X115724032Y-48604863D01*
X115718212Y-48655040D01*
X115710641Y-48672185D01*
X115705970Y-48695671D01*
X115689169Y-48720815D01*
X115680391Y-48740696D01*
X115666812Y-48754274D01*
X115651777Y-48776777D01*
X115629274Y-48791812D01*
X115615696Y-48805391D01*
X115595815Y-48814169D01*
X115570671Y-48830970D01*
X115547185Y-48835641D01*
X115530040Y-48843212D01*
X115479861Y-48849032D01*
X115475000Y-48850000D01*
X114025000Y-48850000D01*
X114020138Y-48849032D01*
X113969959Y-48843212D01*
X113952812Y-48835641D01*
X113929329Y-48830970D01*
X113904186Y-48814170D01*
X113884303Y-48805391D01*
X113870722Y-48791810D01*
X113848223Y-48776777D01*
X113833189Y-48754277D01*
X113819608Y-48740696D01*
X113810827Y-48720810D01*
X113794030Y-48695671D01*
X113789359Y-48672189D01*
X113781787Y-48655040D01*
X113775964Y-48604849D01*
X113775000Y-48600000D01*
X113775000Y-47400000D01*
X113775964Y-47395150D01*
X113781787Y-47344959D01*
X113789359Y-47327808D01*
X113794030Y-47304329D01*
X113810826Y-47279191D01*
X113819608Y-47259303D01*
X113833191Y-47245719D01*
X113848223Y-47223223D01*
X113870719Y-47208191D01*
X113884303Y-47194608D01*
X113904191Y-47185826D01*
X113929329Y-47169030D01*
X113952808Y-47164359D01*
X113969959Y-47156787D01*
X114020151Y-47150964D01*
X114025000Y-47150000D01*
X115475000Y-47150000D01*
X115479850Y-47150964D01*
G37*
G36*
X86338228Y-46859448D02*
G01*
X86483117Y-46919463D01*
X86613515Y-47006592D01*
X86724408Y-47117485D01*
X86811537Y-47247883D01*
X86871552Y-47392772D01*
X86902148Y-47546586D01*
X86902148Y-47703414D01*
X86871552Y-47857228D01*
X86811537Y-48002117D01*
X86724408Y-48132515D01*
X86613515Y-48243408D01*
X86483117Y-48330537D01*
X86338228Y-48390552D01*
X86184414Y-48421148D01*
X86027586Y-48421148D01*
X85873772Y-48390552D01*
X85728883Y-48330537D01*
X85598485Y-48243408D01*
X85487592Y-48132515D01*
X85400463Y-48002117D01*
X85340448Y-47857228D01*
X85309852Y-47703414D01*
X85309852Y-47546586D01*
X85340448Y-47392772D01*
X85400463Y-47247883D01*
X85487592Y-47117485D01*
X85598485Y-47006592D01*
X85728883Y-46919463D01*
X85873772Y-46859448D01*
X86027586Y-46828852D01*
X86184414Y-46828852D01*
X86338228Y-46859448D01*
G37*
G36*
X93958228Y-46859448D02*
G01*
X94103117Y-46919463D01*
X94233515Y-47006592D01*
X94344408Y-47117485D01*
X94431537Y-47247883D01*
X94491552Y-47392772D01*
X94522148Y-47546586D01*
X94522148Y-47703414D01*
X94491552Y-47857228D01*
X94431537Y-48002117D01*
X94344408Y-48132515D01*
X94233515Y-48243408D01*
X94103117Y-48330537D01*
X93958228Y-48390552D01*
X93804414Y-48421148D01*
X93647586Y-48421148D01*
X93493772Y-48390552D01*
X93348883Y-48330537D01*
X93218485Y-48243408D01*
X93107592Y-48132515D01*
X93020463Y-48002117D01*
X92960448Y-47857228D01*
X92929852Y-47703414D01*
X92929852Y-47546586D01*
X92960448Y-47392772D01*
X93020463Y-47247883D01*
X93107592Y-47117485D01*
X93218485Y-47006592D01*
X93348883Y-46919463D01*
X93493772Y-46859448D01*
X93647586Y-46828852D01*
X93804414Y-46828852D01*
X93958228Y-46859448D01*
G37*
G36*
X58974850Y-45936964D02*
G01*
X59025040Y-45942787D01*
X59042189Y-45950359D01*
X59065671Y-45955030D01*
X59090810Y-45971827D01*
X59110696Y-45980608D01*
X59124277Y-45994189D01*
X59146777Y-46009223D01*
X59161810Y-46031722D01*
X59175391Y-46045303D01*
X59184170Y-46065186D01*
X59200970Y-46090329D01*
X59205641Y-46113812D01*
X59213212Y-46130959D01*
X59219033Y-46181139D01*
X59220000Y-46186000D01*
X59220000Y-47286000D01*
X59219032Y-47290863D01*
X59213212Y-47341040D01*
X59205641Y-47358185D01*
X59200970Y-47381671D01*
X59184169Y-47406815D01*
X59175391Y-47426696D01*
X59161812Y-47440274D01*
X59146777Y-47462777D01*
X59124274Y-47477812D01*
X59110696Y-47491391D01*
X59090815Y-47500169D01*
X59065671Y-47516970D01*
X59042185Y-47521641D01*
X59025040Y-47529212D01*
X58974861Y-47535032D01*
X58970000Y-47536000D01*
X57870000Y-47536000D01*
X57865138Y-47535032D01*
X57814959Y-47529212D01*
X57797812Y-47521641D01*
X57774329Y-47516970D01*
X57749186Y-47500170D01*
X57729303Y-47491391D01*
X57715722Y-47477810D01*
X57693223Y-47462777D01*
X57678189Y-47440277D01*
X57664608Y-47426696D01*
X57655827Y-47406810D01*
X57639030Y-47381671D01*
X57634359Y-47358189D01*
X57626787Y-47341040D01*
X57620964Y-47290849D01*
X57620000Y-47286000D01*
X57620000Y-46186000D01*
X57620964Y-46181150D01*
X57626787Y-46130959D01*
X57634359Y-46113808D01*
X57639030Y-46090329D01*
X57655826Y-46065191D01*
X57664608Y-46045303D01*
X57678191Y-46031719D01*
X57693223Y-46009223D01*
X57715719Y-45994191D01*
X57729303Y-45980608D01*
X57749191Y-45971826D01*
X57774329Y-45955030D01*
X57797808Y-45950359D01*
X57814959Y-45942787D01*
X57865151Y-45936964D01*
X57870000Y-45936000D01*
X58970000Y-45936000D01*
X58974850Y-45936964D01*
G37*
G36*
X56652228Y-45970448D02*
G01*
X56797117Y-46030463D01*
X56927515Y-46117592D01*
X57038408Y-46228485D01*
X57125537Y-46358883D01*
X57185552Y-46503772D01*
X57216148Y-46657586D01*
X57216148Y-46814414D01*
X57185552Y-46968228D01*
X57125537Y-47113117D01*
X57038408Y-47243515D01*
X56927515Y-47354408D01*
X56797117Y-47441537D01*
X56652228Y-47501552D01*
X56498414Y-47532148D01*
X56341586Y-47532148D01*
X56187772Y-47501552D01*
X56042883Y-47441537D01*
X55912485Y-47354408D01*
X55801592Y-47243515D01*
X55714463Y-47113117D01*
X55654448Y-46968228D01*
X55623852Y-46814414D01*
X55623852Y-46657586D01*
X55654448Y-46503772D01*
X55714463Y-46358883D01*
X55801592Y-46228485D01*
X55912485Y-46117592D01*
X56042883Y-46030463D01*
X56187772Y-45970448D01*
X56341586Y-45939852D01*
X56498414Y-45939852D01*
X56652228Y-45970448D01*
G37*
G36*
X113331428Y-45801912D02*
G01*
X113444623Y-45848799D01*
X113546496Y-45916868D01*
X113633132Y-46003504D01*
X113701201Y-46105377D01*
X113748088Y-46218572D01*
X113771990Y-46338739D01*
X113771990Y-46461261D01*
X113748088Y-46581428D01*
X113701201Y-46694623D01*
X113633132Y-46796496D01*
X113546496Y-46883132D01*
X113444623Y-46951201D01*
X113331428Y-46998088D01*
X113211261Y-47021990D01*
X113088739Y-47021990D01*
X112968572Y-46998088D01*
X112855377Y-46951201D01*
X112753504Y-46883132D01*
X112666868Y-46796496D01*
X112598799Y-46694623D01*
X112551912Y-46581428D01*
X112528010Y-46461261D01*
X112528010Y-46338739D01*
X112551912Y-46218572D01*
X112598799Y-46105377D01*
X112666868Y-46003504D01*
X112753504Y-45916868D01*
X112855377Y-45848799D01*
X112968572Y-45801912D01*
X113088739Y-45778010D01*
X113211261Y-45778010D01*
X113331428Y-45801912D01*
G37*
G36*
X50074285Y-44763060D02*
G01*
X50255397Y-44838079D01*
X50418393Y-44946990D01*
X50557010Y-45085607D01*
X50665921Y-45248603D01*
X50740940Y-45429715D01*
X50779185Y-45621983D01*
X50779185Y-45818017D01*
X50740940Y-46010285D01*
X50665921Y-46191397D01*
X50557010Y-46354393D01*
X50418393Y-46493010D01*
X50255397Y-46601921D01*
X50074285Y-46676940D01*
X49882017Y-46715185D01*
X49685983Y-46715185D01*
X49493715Y-46676940D01*
X49312603Y-46601921D01*
X49149607Y-46493010D01*
X49010990Y-46354393D01*
X48902079Y-46191397D01*
X48827060Y-46010285D01*
X48788815Y-45818017D01*
X48788815Y-45621983D01*
X48827060Y-45429715D01*
X48902079Y-45248603D01*
X49010990Y-45085607D01*
X49149607Y-44946990D01*
X49312603Y-44838079D01*
X49493715Y-44763060D01*
X49685983Y-44724815D01*
X49882017Y-44724815D01*
X50074285Y-44763060D01*
G37*
G36*
X104732228Y-43984448D02*
G01*
X104877117Y-44044463D01*
X105007515Y-44131592D01*
X105118408Y-44242485D01*
X105205537Y-44372883D01*
X105265552Y-44517772D01*
X105296148Y-44671586D01*
X105296148Y-44828414D01*
X105265552Y-44982228D01*
X105205537Y-45127117D01*
X105118408Y-45257515D01*
X105007515Y-45368408D01*
X104877117Y-45455537D01*
X104732228Y-45515552D01*
X104578414Y-45546148D01*
X104421586Y-45546148D01*
X104267772Y-45515552D01*
X104122883Y-45455537D01*
X103992485Y-45368408D01*
X103881592Y-45257515D01*
X103794463Y-45127117D01*
X103734448Y-44982228D01*
X103703852Y-44828414D01*
X103703852Y-44671586D01*
X103734448Y-44517772D01*
X103794463Y-44372883D01*
X103881592Y-44242485D01*
X103992485Y-44131592D01*
X104122883Y-44044463D01*
X104267772Y-43984448D01*
X104421586Y-43953852D01*
X104578414Y-43953852D01*
X104732228Y-43984448D01*
G37*
G36*
X109732228Y-43984448D02*
G01*
X109877117Y-44044463D01*
X110007515Y-44131592D01*
X110118408Y-44242485D01*
X110205537Y-44372883D01*
X110265552Y-44517772D01*
X110296148Y-44671586D01*
X110296148Y-44828414D01*
X110265552Y-44982228D01*
X110205537Y-45127117D01*
X110118408Y-45257515D01*
X110007515Y-45368408D01*
X109877117Y-45455537D01*
X109732228Y-45515552D01*
X109578414Y-45546148D01*
X109421586Y-45546148D01*
X109267772Y-45515552D01*
X109122883Y-45455537D01*
X108992485Y-45368408D01*
X108881592Y-45257515D01*
X108794463Y-45127117D01*
X108734448Y-44982228D01*
X108703852Y-44828414D01*
X108703852Y-44671586D01*
X108734448Y-44517772D01*
X108794463Y-44372883D01*
X108881592Y-44242485D01*
X108992485Y-44131592D01*
X109122883Y-44044463D01*
X109267772Y-43984448D01*
X109421586Y-43953852D01*
X109578414Y-43953852D01*
X109732228Y-43984448D01*
G37*
G36*
X86338228Y-43684448D02*
G01*
X86483117Y-43744463D01*
X86613515Y-43831592D01*
X86724408Y-43942485D01*
X86811537Y-44072883D01*
X86871552Y-44217772D01*
X86902148Y-44371586D01*
X86902148Y-44528414D01*
X86871552Y-44682228D01*
X86811537Y-44827117D01*
X86724408Y-44957515D01*
X86613515Y-45068408D01*
X86483117Y-45155537D01*
X86338228Y-45215552D01*
X86184414Y-45246148D01*
X86027586Y-45246148D01*
X85873772Y-45215552D01*
X85728883Y-45155537D01*
X85598485Y-45068408D01*
X85487592Y-44957515D01*
X85400463Y-44827117D01*
X85340448Y-44682228D01*
X85309852Y-44528414D01*
X85309852Y-44371586D01*
X85340448Y-44217772D01*
X85400463Y-44072883D01*
X85487592Y-43942485D01*
X85598485Y-43831592D01*
X85728883Y-43744463D01*
X85873772Y-43684448D01*
X86027586Y-43653852D01*
X86184414Y-43653852D01*
X86338228Y-43684448D01*
G37*
G36*
X93958228Y-43684448D02*
G01*
X94103117Y-43744463D01*
X94233515Y-43831592D01*
X94344408Y-43942485D01*
X94431537Y-44072883D01*
X94491552Y-44217772D01*
X94522148Y-44371586D01*
X94522148Y-44528414D01*
X94491552Y-44682228D01*
X94431537Y-44827117D01*
X94344408Y-44957515D01*
X94233515Y-45068408D01*
X94103117Y-45155537D01*
X93958228Y-45215552D01*
X93804414Y-45246148D01*
X93647586Y-45246148D01*
X93493772Y-45215552D01*
X93348883Y-45155537D01*
X93218485Y-45068408D01*
X93107592Y-44957515D01*
X93020463Y-44827117D01*
X92960448Y-44682228D01*
X92929852Y-44528414D01*
X92929852Y-44371586D01*
X92960448Y-44217772D01*
X93020463Y-44072883D01*
X93107592Y-43942485D01*
X93218485Y-43831592D01*
X93348883Y-43744463D01*
X93493772Y-43684448D01*
X93647586Y-43653852D01*
X93804414Y-43653852D01*
X93958228Y-43684448D01*
G37*
G36*
X50074285Y-42223060D02*
G01*
X50255397Y-42298079D01*
X50418393Y-42406990D01*
X50557010Y-42545607D01*
X50665921Y-42708603D01*
X50740940Y-42889715D01*
X50779185Y-43081983D01*
X50779185Y-43278017D01*
X50740940Y-43470285D01*
X50665921Y-43651397D01*
X50557010Y-43814393D01*
X50418393Y-43953010D01*
X50255397Y-44061921D01*
X50074285Y-44136940D01*
X49882017Y-44175185D01*
X49685983Y-44175185D01*
X49493715Y-44136940D01*
X49312603Y-44061921D01*
X49149607Y-43953010D01*
X49010990Y-43814393D01*
X48902079Y-43651397D01*
X48827060Y-43470285D01*
X48788815Y-43278017D01*
X48788815Y-43081983D01*
X48827060Y-42889715D01*
X48902079Y-42708603D01*
X49010990Y-42545607D01*
X49149607Y-42406990D01*
X49312603Y-42298079D01*
X49493715Y-42223060D01*
X49685983Y-42184815D01*
X49882017Y-42184815D01*
X50074285Y-42223060D01*
G37*
G36*
X99800228Y-41398448D02*
G01*
X99945117Y-41458463D01*
X100075515Y-41545592D01*
X100186408Y-41656485D01*
X100273537Y-41786883D01*
X100333552Y-41931772D01*
X100364148Y-42085586D01*
X100364148Y-42242414D01*
X100333552Y-42396228D01*
X100273537Y-42541117D01*
X100186408Y-42671515D01*
X100075515Y-42782408D01*
X99945117Y-42869537D01*
X99800228Y-42929552D01*
X99646414Y-42960148D01*
X99489586Y-42960148D01*
X99335772Y-42929552D01*
X99190883Y-42869537D01*
X99060485Y-42782408D01*
X98949592Y-42671515D01*
X98862463Y-42541117D01*
X98802448Y-42396228D01*
X98771852Y-42242414D01*
X98771852Y-42085586D01*
X98802448Y-41931772D01*
X98862463Y-41786883D01*
X98949592Y-41656485D01*
X99060485Y-41545592D01*
X99190883Y-41458463D01*
X99335772Y-41398448D01*
X99489586Y-41367852D01*
X99646414Y-41367852D01*
X99800228Y-41398448D01*
G37*
G36*
X86338228Y-40509448D02*
G01*
X86483117Y-40569463D01*
X86613515Y-40656592D01*
X86724408Y-40767485D01*
X86811537Y-40897883D01*
X86871552Y-41042772D01*
X86902148Y-41196586D01*
X86902148Y-41353414D01*
X86871552Y-41507228D01*
X86811537Y-41652117D01*
X86724408Y-41782515D01*
X86613515Y-41893408D01*
X86483117Y-41980537D01*
X86338228Y-42040552D01*
X86184414Y-42071148D01*
X86027586Y-42071148D01*
X85873772Y-42040552D01*
X85728883Y-41980537D01*
X85598485Y-41893408D01*
X85487592Y-41782515D01*
X85400463Y-41652117D01*
X85340448Y-41507228D01*
X85309852Y-41353414D01*
X85309852Y-41196586D01*
X85340448Y-41042772D01*
X85400463Y-40897883D01*
X85487592Y-40767485D01*
X85598485Y-40656592D01*
X85728883Y-40569463D01*
X85873772Y-40509448D01*
X86027586Y-40478852D01*
X86184414Y-40478852D01*
X86338228Y-40509448D01*
G37*
G36*
X93958228Y-40509448D02*
G01*
X94103117Y-40569463D01*
X94233515Y-40656592D01*
X94344408Y-40767485D01*
X94431537Y-40897883D01*
X94491552Y-41042772D01*
X94522148Y-41196586D01*
X94522148Y-41353414D01*
X94491552Y-41507228D01*
X94431537Y-41652117D01*
X94344408Y-41782515D01*
X94233515Y-41893408D01*
X94103117Y-41980537D01*
X93958228Y-42040552D01*
X93804414Y-42071148D01*
X93647586Y-42071148D01*
X93493772Y-42040552D01*
X93348883Y-41980537D01*
X93218485Y-41893408D01*
X93107592Y-41782515D01*
X93020463Y-41652117D01*
X92960448Y-41507228D01*
X92929852Y-41353414D01*
X92929852Y-41196586D01*
X92960448Y-41042772D01*
X93020463Y-40897883D01*
X93107592Y-40767485D01*
X93218485Y-40656592D01*
X93348883Y-40569463D01*
X93493772Y-40509448D01*
X93647586Y-40478852D01*
X93804414Y-40478852D01*
X93958228Y-40509448D01*
G37*
G36*
X50074285Y-39683060D02*
G01*
X50255397Y-39758079D01*
X50418393Y-39866990D01*
X50557010Y-40005607D01*
X50665921Y-40168603D01*
X50740940Y-40349715D01*
X50779185Y-40541983D01*
X50779185Y-40738017D01*
X50740940Y-40930285D01*
X50665921Y-41111397D01*
X50557010Y-41274393D01*
X50418393Y-41413010D01*
X50255397Y-41521921D01*
X50074285Y-41596940D01*
X49882017Y-41635185D01*
X49685983Y-41635185D01*
X49493715Y-41596940D01*
X49312603Y-41521921D01*
X49149607Y-41413010D01*
X49010990Y-41274393D01*
X48902079Y-41111397D01*
X48827060Y-40930285D01*
X48788815Y-40738017D01*
X48788815Y-40541983D01*
X48827060Y-40349715D01*
X48902079Y-40168603D01*
X49010990Y-40005607D01*
X49149607Y-39866990D01*
X49312603Y-39758079D01*
X49493715Y-39683060D01*
X49685983Y-39644815D01*
X49882017Y-39644815D01*
X50074285Y-39683060D01*
G37*
G36*
X115943742Y-39231601D02*
G01*
X116097687Y-39295367D01*
X116236234Y-39387941D01*
X116354059Y-39505766D01*
X116446633Y-39644313D01*
X116510399Y-39798258D01*
X116542907Y-39961685D01*
X116542907Y-40128315D01*
X116510399Y-40291742D01*
X116446633Y-40445687D01*
X116354059Y-40584234D01*
X116236234Y-40702059D01*
X116097687Y-40794633D01*
X115943742Y-40858399D01*
X115780315Y-40890907D01*
X115613685Y-40890907D01*
X115450258Y-40858399D01*
X115296313Y-40794633D01*
X115157766Y-40702059D01*
X115039941Y-40584234D01*
X114947367Y-40445687D01*
X114883601Y-40291742D01*
X114851093Y-40128315D01*
X114851093Y-39961685D01*
X114883601Y-39798258D01*
X114947367Y-39644313D01*
X115039941Y-39505766D01*
X115157766Y-39387941D01*
X115296313Y-39295367D01*
X115450258Y-39231601D01*
X115613685Y-39199093D01*
X115780315Y-39199093D01*
X115943742Y-39231601D01*
G37*
G36*
X100122850Y-37864964D02*
G01*
X100173040Y-37870787D01*
X100190189Y-37878359D01*
X100213671Y-37883030D01*
X100238810Y-37899827D01*
X100258696Y-37908608D01*
X100272277Y-37922189D01*
X100294777Y-37937223D01*
X100309810Y-37959722D01*
X100323391Y-37973303D01*
X100332170Y-37993186D01*
X100348970Y-38018329D01*
X100353641Y-38041812D01*
X100361212Y-38058959D01*
X100367033Y-38109139D01*
X100368000Y-38114000D01*
X100368000Y-39214000D01*
X100367032Y-39218863D01*
X100361212Y-39269040D01*
X100353641Y-39286185D01*
X100348970Y-39309671D01*
X100332169Y-39334815D01*
X100323391Y-39354696D01*
X100309812Y-39368274D01*
X100294777Y-39390777D01*
X100272274Y-39405812D01*
X100258696Y-39419391D01*
X100238815Y-39428169D01*
X100213671Y-39444970D01*
X100190185Y-39449641D01*
X100173040Y-39457212D01*
X100122861Y-39463032D01*
X100118000Y-39464000D01*
X99018000Y-39464000D01*
X99013138Y-39463032D01*
X98962959Y-39457212D01*
X98945812Y-39449641D01*
X98922329Y-39444970D01*
X98897186Y-39428170D01*
X98877303Y-39419391D01*
X98863722Y-39405810D01*
X98841223Y-39390777D01*
X98826189Y-39368277D01*
X98812608Y-39354696D01*
X98803827Y-39334810D01*
X98787030Y-39309671D01*
X98782359Y-39286189D01*
X98774787Y-39269040D01*
X98768964Y-39218849D01*
X98768000Y-39214000D01*
X98768000Y-38114000D01*
X98768964Y-38109150D01*
X98774787Y-38058959D01*
X98782359Y-38041808D01*
X98787030Y-38018329D01*
X98803826Y-37993191D01*
X98812608Y-37973303D01*
X98826191Y-37959719D01*
X98841223Y-37937223D01*
X98863719Y-37922191D01*
X98877303Y-37908608D01*
X98897191Y-37899826D01*
X98922329Y-37883030D01*
X98945808Y-37878359D01*
X98962959Y-37870787D01*
X99013151Y-37864964D01*
X99018000Y-37864000D01*
X100118000Y-37864000D01*
X100122850Y-37864964D01*
G37*
G36*
X106484228Y-37734448D02*
G01*
X106629117Y-37794463D01*
X106759515Y-37881592D01*
X106870408Y-37992485D01*
X106957537Y-38122883D01*
X107017552Y-38267772D01*
X107048148Y-38421586D01*
X107048148Y-38578414D01*
X107017552Y-38732228D01*
X106957537Y-38877117D01*
X106870408Y-39007515D01*
X106759515Y-39118408D01*
X106629117Y-39205537D01*
X106484228Y-39265552D01*
X106330414Y-39296148D01*
X106173586Y-39296148D01*
X106019772Y-39265552D01*
X105874883Y-39205537D01*
X105744485Y-39118408D01*
X105633592Y-39007515D01*
X105546463Y-38877117D01*
X105486448Y-38732228D01*
X105455852Y-38578414D01*
X105455852Y-38421586D01*
X105486448Y-38267772D01*
X105546463Y-38122883D01*
X105633592Y-37992485D01*
X105744485Y-37881592D01*
X105874883Y-37794463D01*
X106019772Y-37734448D01*
X106173586Y-37703852D01*
X106330414Y-37703852D01*
X106484228Y-37734448D01*
G37*
G36*
X111484228Y-37734448D02*
G01*
X111629117Y-37794463D01*
X111759515Y-37881592D01*
X111870408Y-37992485D01*
X111957537Y-38122883D01*
X112017552Y-38267772D01*
X112048148Y-38421586D01*
X112048148Y-38578414D01*
X112017552Y-38732228D01*
X111957537Y-38877117D01*
X111870408Y-39007515D01*
X111759515Y-39118408D01*
X111629117Y-39205537D01*
X111484228Y-39265552D01*
X111330414Y-39296148D01*
X111173586Y-39296148D01*
X111019772Y-39265552D01*
X110874883Y-39205537D01*
X110744485Y-39118408D01*
X110633592Y-39007515D01*
X110546463Y-38877117D01*
X110486448Y-38732228D01*
X110455852Y-38578414D01*
X110455852Y-38421586D01*
X110486448Y-38267772D01*
X110546463Y-38122883D01*
X110633592Y-37992485D01*
X110744485Y-37881592D01*
X110874883Y-37794463D01*
X111019772Y-37734448D01*
X111173586Y-37703852D01*
X111330414Y-37703852D01*
X111484228Y-37734448D01*
G37*
G36*
X50074285Y-37143060D02*
G01*
X50255397Y-37218079D01*
X50418393Y-37326990D01*
X50557010Y-37465607D01*
X50665921Y-37628603D01*
X50740940Y-37809715D01*
X50779185Y-38001983D01*
X50779185Y-38198017D01*
X50740940Y-38390285D01*
X50665921Y-38571397D01*
X50557010Y-38734393D01*
X50418393Y-38873010D01*
X50255397Y-38981921D01*
X50074285Y-39056940D01*
X49882017Y-39095185D01*
X49685983Y-39095185D01*
X49493715Y-39056940D01*
X49312603Y-38981921D01*
X49149607Y-38873010D01*
X49010990Y-38734393D01*
X48902079Y-38571397D01*
X48827060Y-38390285D01*
X48788815Y-38198017D01*
X48788815Y-38001983D01*
X48827060Y-37809715D01*
X48902079Y-37628603D01*
X49010990Y-37465607D01*
X49149607Y-37326990D01*
X49312603Y-37218079D01*
X49493715Y-37143060D01*
X49685983Y-37104815D01*
X49882017Y-37104815D01*
X50074285Y-37143060D01*
G37*
G36*
X86339348Y-37457742D02*
G01*
X86339349Y-37457742D01*
X86339351Y-37457743D01*
X86484942Y-37518049D01*
X86615970Y-37605599D01*
X86727401Y-37717030D01*
X86814951Y-37848058D01*
X86875257Y-37993649D01*
X86885319Y-38044234D01*
X86900989Y-38123017D01*
X86906000Y-38148207D01*
X86906000Y-38305793D01*
X86875257Y-38460351D01*
X86814951Y-38605942D01*
X86727401Y-38736970D01*
X86615970Y-38848401D01*
X86484942Y-38935951D01*
X86339351Y-38996257D01*
X86223432Y-39019314D01*
X86184794Y-39027000D01*
X86184793Y-39027000D01*
X86027207Y-39027000D01*
X86027206Y-39027000D01*
X85975687Y-39016752D01*
X85872649Y-38996257D01*
X85727058Y-38935951D01*
X85596030Y-38848401D01*
X85484599Y-38736970D01*
X85397049Y-38605942D01*
X85336743Y-38460351D01*
X85329037Y-38421613D01*
X85306000Y-38305793D01*
X85306000Y-38148206D01*
X85336742Y-37993651D01*
X85397050Y-37848056D01*
X85484597Y-37717032D01*
X85596032Y-37605597D01*
X85727056Y-37518050D01*
X85872651Y-37457742D01*
X86027206Y-37427000D01*
X86184794Y-37427000D01*
X86339348Y-37457742D01*
G37*
G36*
X93959348Y-37457742D02*
G01*
X93959349Y-37457742D01*
X93959351Y-37457743D01*
X94104942Y-37518049D01*
X94235970Y-37605599D01*
X94347401Y-37717030D01*
X94434951Y-37848058D01*
X94495257Y-37993649D01*
X94505319Y-38044234D01*
X94520989Y-38123017D01*
X94526000Y-38148207D01*
X94526000Y-38305793D01*
X94495257Y-38460351D01*
X94434951Y-38605942D01*
X94347401Y-38736970D01*
X94235970Y-38848401D01*
X94104942Y-38935951D01*
X93959351Y-38996257D01*
X93843432Y-39019314D01*
X93804794Y-39027000D01*
X93804793Y-39027000D01*
X93647207Y-39027000D01*
X93647206Y-39027000D01*
X93595687Y-39016752D01*
X93492649Y-38996257D01*
X93347058Y-38935951D01*
X93216030Y-38848401D01*
X93104599Y-38736970D01*
X93017049Y-38605942D01*
X92956743Y-38460351D01*
X92949037Y-38421613D01*
X92926000Y-38305793D01*
X92926000Y-38148206D01*
X92956742Y-37993651D01*
X93017050Y-37848056D01*
X93104597Y-37717032D01*
X93216032Y-37605597D01*
X93347056Y-37518050D01*
X93492651Y-37457742D01*
X93647206Y-37427000D01*
X93804794Y-37427000D01*
X93959348Y-37457742D01*
G37*
G36*
X115943742Y-36691601D02*
G01*
X116097687Y-36755367D01*
X116236234Y-36847941D01*
X116354059Y-36965766D01*
X116446633Y-37104313D01*
X116510399Y-37258258D01*
X116542907Y-37421685D01*
X116542907Y-37588315D01*
X116510399Y-37751742D01*
X116446633Y-37905687D01*
X116354059Y-38044234D01*
X116236234Y-38162059D01*
X116097687Y-38254633D01*
X115943742Y-38318399D01*
X115780315Y-38350907D01*
X115613685Y-38350907D01*
X115450258Y-38318399D01*
X115296313Y-38254633D01*
X115157766Y-38162059D01*
X115039941Y-38044234D01*
X114947367Y-37905687D01*
X114883601Y-37751742D01*
X114851093Y-37588315D01*
X114851093Y-37421685D01*
X114883601Y-37258258D01*
X114947367Y-37104313D01*
X115039941Y-36965766D01*
X115157766Y-36847941D01*
X115296313Y-36755367D01*
X115450258Y-36691601D01*
X115613685Y-36659093D01*
X115780315Y-36659093D01*
X115943742Y-36691601D01*
G37*
G36*
X56524850Y-35195964D02*
G01*
X56575040Y-35201787D01*
X56592189Y-35209359D01*
X56615671Y-35214030D01*
X56640810Y-35230827D01*
X56660696Y-35239608D01*
X56674277Y-35253189D01*
X56696777Y-35268223D01*
X56711810Y-35290722D01*
X56725391Y-35304303D01*
X56734170Y-35324186D01*
X56750970Y-35349329D01*
X56755641Y-35372812D01*
X56763212Y-35389959D01*
X56769033Y-35440139D01*
X56770000Y-35445000D01*
X56770000Y-36945000D01*
X56769032Y-36949863D01*
X56763212Y-37000040D01*
X56755641Y-37017185D01*
X56750970Y-37040671D01*
X56734169Y-37065815D01*
X56725391Y-37085696D01*
X56711812Y-37099274D01*
X56696777Y-37121777D01*
X56674274Y-37136812D01*
X56660696Y-37150391D01*
X56640815Y-37159169D01*
X56615671Y-37175970D01*
X56592185Y-37180641D01*
X56575040Y-37188212D01*
X56524861Y-37194032D01*
X56520000Y-37195000D01*
X55320000Y-37195000D01*
X55315138Y-37194032D01*
X55264959Y-37188212D01*
X55247812Y-37180641D01*
X55224329Y-37175970D01*
X55199186Y-37159170D01*
X55179303Y-37150391D01*
X55165722Y-37136810D01*
X55143223Y-37121777D01*
X55128189Y-37099277D01*
X55114608Y-37085696D01*
X55105827Y-37065810D01*
X55089030Y-37040671D01*
X55084359Y-37017189D01*
X55076787Y-37000040D01*
X55070964Y-36949849D01*
X55070000Y-36945000D01*
X55070000Y-35445000D01*
X55070964Y-35440150D01*
X55076787Y-35389959D01*
X55084359Y-35372808D01*
X55089030Y-35349329D01*
X55105826Y-35324191D01*
X55114608Y-35304303D01*
X55128191Y-35290719D01*
X55143223Y-35268223D01*
X55165719Y-35253191D01*
X55179303Y-35239608D01*
X55199191Y-35230826D01*
X55224329Y-35214030D01*
X55247808Y-35209359D01*
X55264959Y-35201787D01*
X55315151Y-35195964D01*
X55320000Y-35195000D01*
X56520000Y-35195000D01*
X56524850Y-35195964D01*
G37*
G36*
X58666742Y-35231601D02*
G01*
X58820687Y-35295367D01*
X58959234Y-35387941D01*
X59077059Y-35505766D01*
X59169633Y-35644313D01*
X59233399Y-35798258D01*
X59265907Y-35961685D01*
X59270000Y-36045000D01*
X59270000Y-36345000D01*
X59265907Y-36428315D01*
X59233399Y-36591742D01*
X59169633Y-36745687D01*
X59077059Y-36884234D01*
X58959234Y-37002059D01*
X58820687Y-37094633D01*
X58666742Y-37158399D01*
X58503315Y-37190907D01*
X58336685Y-37190907D01*
X58173258Y-37158399D01*
X58019313Y-37094633D01*
X57880766Y-37002059D01*
X57762941Y-36884234D01*
X57670367Y-36745687D01*
X57606601Y-36591742D01*
X57574093Y-36428315D01*
X57570000Y-36345000D01*
X57570000Y-36045000D01*
X57574093Y-35961685D01*
X57606601Y-35798258D01*
X57670367Y-35644313D01*
X57762941Y-35505766D01*
X57880766Y-35387941D01*
X58019313Y-35295367D01*
X58173258Y-35231601D01*
X58336685Y-35199093D01*
X58503315Y-35199093D01*
X58666742Y-35231601D01*
G37*
G36*
X50074285Y-34603060D02*
G01*
X50255397Y-34678079D01*
X50418393Y-34786990D01*
X50557010Y-34925607D01*
X50665921Y-35088603D01*
X50740940Y-35269715D01*
X50779185Y-35461983D01*
X50779185Y-35658017D01*
X50740940Y-35850285D01*
X50665921Y-36031397D01*
X50557010Y-36194393D01*
X50418393Y-36333010D01*
X50255397Y-36441921D01*
X50074285Y-36516940D01*
X49882017Y-36555185D01*
X49685983Y-36555185D01*
X49493715Y-36516940D01*
X49312603Y-36441921D01*
X49149607Y-36333010D01*
X49010990Y-36194393D01*
X48902079Y-36031397D01*
X48827060Y-35850285D01*
X48788815Y-35658017D01*
X48788815Y-35461983D01*
X48827060Y-35269715D01*
X48902079Y-35088603D01*
X49010990Y-34925607D01*
X49149607Y-34786990D01*
X49312603Y-34678079D01*
X49493715Y-34603060D01*
X49685983Y-34564815D01*
X49882017Y-34564815D01*
X50074285Y-34603060D01*
G37*
G36*
X103864228Y-34286448D02*
G01*
X104009117Y-34346463D01*
X104139515Y-34433592D01*
X104250408Y-34544485D01*
X104337537Y-34674883D01*
X104397552Y-34819772D01*
X104428148Y-34973586D01*
X104428148Y-35130414D01*
X104397552Y-35284228D01*
X104337537Y-35429117D01*
X104250408Y-35559515D01*
X104139515Y-35670408D01*
X104009117Y-35757537D01*
X103864228Y-35817552D01*
X103710414Y-35848148D01*
X103553586Y-35848148D01*
X103399772Y-35817552D01*
X103254883Y-35757537D01*
X103124485Y-35670408D01*
X103013592Y-35559515D01*
X102926463Y-35429117D01*
X102866448Y-35284228D01*
X102835852Y-35130414D01*
X102835852Y-34973586D01*
X102866448Y-34819772D01*
X102926463Y-34674883D01*
X103013592Y-34544485D01*
X103124485Y-34433592D01*
X103254883Y-34346463D01*
X103399772Y-34286448D01*
X103553586Y-34255852D01*
X103710414Y-34255852D01*
X103864228Y-34286448D01*
G37*
G36*
X111484228Y-34286448D02*
G01*
X111629117Y-34346463D01*
X111759515Y-34433592D01*
X111870408Y-34544485D01*
X111957537Y-34674883D01*
X112017552Y-34819772D01*
X112048148Y-34973586D01*
X112048148Y-35130414D01*
X112017552Y-35284228D01*
X111957537Y-35429117D01*
X111870408Y-35559515D01*
X111759515Y-35670408D01*
X111629117Y-35757537D01*
X111484228Y-35817552D01*
X111330414Y-35848148D01*
X111173586Y-35848148D01*
X111019772Y-35817552D01*
X110874883Y-35757537D01*
X110744485Y-35670408D01*
X110633592Y-35559515D01*
X110546463Y-35429117D01*
X110486448Y-35284228D01*
X110455852Y-35130414D01*
X110455852Y-34973586D01*
X110486448Y-34819772D01*
X110546463Y-34674883D01*
X110633592Y-34544485D01*
X110744485Y-34433592D01*
X110874883Y-34346463D01*
X111019772Y-34286448D01*
X111173586Y-34255852D01*
X111330414Y-34255852D01*
X111484228Y-34286448D01*
G37*
G36*
X116547000Y-35815000D02*
G01*
X114847000Y-35815000D01*
X114847000Y-34115000D01*
X116547000Y-34115000D01*
X116547000Y-35815000D01*
G37*
%LPD*%
M02*
