%TF.GenerationSoftware,KiCad,Pcbnew,9.0.6*%
%TF.CreationDate,2025-11-20T15:50:17-08:00*%
%TF.ProjectId,schematic,73636865-6d61-4746-9963-2e6b69636164,rev?*%
%TF.SameCoordinates,Original*%
%TF.FileFunction,Soldermask,Top*%
%TF.FilePolarity,Negative*%
%FSLAX46Y46*%
G04 Gerber Fmt 4.6, Leading zero omitted, Abs format (unit mm)*
G04 Created by KiCad (PCBNEW 9.0.6) date 2025-11-20 15:50:17*
%MOMM*%
%LPD*%
G01*
G04 APERTURE LIST*
G04 APERTURE END LIST*
G36*
X108196742Y-53034601D02*
G01*
X108350687Y-53098367D01*
X108489234Y-53190941D01*
X108607059Y-53308766D01*
X108699633Y-53447313D01*
X108763399Y-53601258D01*
X108795907Y-53764685D01*
X108795907Y-53931315D01*
X108763399Y-54094742D01*
X108699633Y-54248687D01*
X108607059Y-54387234D01*
X108489234Y-54505059D01*
X108350687Y-54597633D01*
X108196742Y-54661399D01*
X108033315Y-54693907D01*
X107866685Y-54693907D01*
X107703258Y-54661399D01*
X107549313Y-54597633D01*
X107410766Y-54505059D01*
X107292941Y-54387234D01*
X107200367Y-54248687D01*
X107136601Y-54094742D01*
X107104093Y-53931315D01*
X107104093Y-53764685D01*
X107136601Y-53601258D01*
X107200367Y-53447313D01*
X107292941Y-53308766D01*
X107410766Y-53190941D01*
X107549313Y-53098367D01*
X107703258Y-53034601D01*
X107866685Y-53002093D01*
X108033315Y-53002093D01*
X108196742Y-53034601D01*
G37*
G36*
X40459181Y-50488429D02*
G01*
X40711879Y-50556140D01*
X40953577Y-50656255D01*
X41180140Y-50787061D01*
X41387692Y-50946320D01*
X41572680Y-51131308D01*
X41731939Y-51338860D01*
X41862745Y-51565423D01*
X41962860Y-51807121D01*
X42030571Y-52059819D01*
X42064718Y-52319194D01*
X42064718Y-52580806D01*
X42030571Y-52840181D01*
X41962860Y-53092879D01*
X41862745Y-53334577D01*
X41731939Y-53561140D01*
X41572680Y-53768692D01*
X41387692Y-53953680D01*
X41180140Y-54112939D01*
X40953577Y-54243745D01*
X40711879Y-54343860D01*
X40459181Y-54411571D01*
X40199806Y-54445718D01*
X39938194Y-54445718D01*
X39678819Y-54411571D01*
X39426121Y-54343860D01*
X39184423Y-54243745D01*
X38957860Y-54112939D01*
X38750308Y-53953680D01*
X38565320Y-53768692D01*
X38406061Y-53561140D01*
X38275255Y-53334577D01*
X38175140Y-53092879D01*
X38107429Y-52840181D01*
X38073282Y-52580806D01*
X38073282Y-52319194D01*
X38107429Y-52059819D01*
X38175140Y-51807121D01*
X38275255Y-51565423D01*
X38406061Y-51338860D01*
X38565320Y-51131308D01*
X38750308Y-50946320D01*
X38957860Y-50787061D01*
X39184423Y-50656255D01*
X39426121Y-50556140D01*
X39678819Y-50488429D01*
X39938194Y-50454282D01*
X40199806Y-50454282D01*
X40459181Y-50488429D01*
G37*
G36*
X65247931Y-52581086D02*
G01*
X65298121Y-52586909D01*
X65315270Y-52594481D01*
X65338752Y-52599152D01*
X65363891Y-52615949D01*
X65383777Y-52624730D01*
X65397358Y-52638311D01*
X65419858Y-52653345D01*
X65434891Y-52675844D01*
X65448472Y-52689425D01*
X65457251Y-52709308D01*
X65474051Y-52734451D01*
X65478722Y-52757934D01*
X65486293Y-52775081D01*
X65492114Y-52825261D01*
X65493081Y-52830122D01*
X65493081Y-54130122D01*
X65492113Y-54134985D01*
X65486293Y-54185162D01*
X65478722Y-54202307D01*
X65474051Y-54225793D01*
X65457250Y-54250937D01*
X65448472Y-54270818D01*
X65434893Y-54284396D01*
X65419858Y-54306899D01*
X65397355Y-54321934D01*
X65383777Y-54335513D01*
X65363896Y-54344291D01*
X65338752Y-54361092D01*
X65315266Y-54365763D01*
X65298121Y-54373334D01*
X65247942Y-54379154D01*
X65243081Y-54380122D01*
X61973081Y-54380122D01*
X61968219Y-54379154D01*
X61918040Y-54373334D01*
X61900893Y-54365763D01*
X61877410Y-54361092D01*
X61852267Y-54344292D01*
X61832384Y-54335513D01*
X61818803Y-54321932D01*
X61796304Y-54306899D01*
X61781270Y-54284399D01*
X61767689Y-54270818D01*
X61758908Y-54250932D01*
X61742111Y-54225793D01*
X61737440Y-54202311D01*
X61729868Y-54185162D01*
X61724045Y-54134971D01*
X61723081Y-54130122D01*
X61723081Y-52830122D01*
X61724045Y-52825272D01*
X61729868Y-52775081D01*
X61737440Y-52757930D01*
X61742111Y-52734451D01*
X61758907Y-52709313D01*
X61767689Y-52689425D01*
X61781272Y-52675841D01*
X61796304Y-52653345D01*
X61818800Y-52638313D01*
X61832384Y-52624730D01*
X61852272Y-52615948D01*
X61877410Y-52599152D01*
X61900889Y-52594481D01*
X61918040Y-52586909D01*
X61968232Y-52581086D01*
X61973081Y-52580122D01*
X65243081Y-52580122D01*
X65247931Y-52581086D01*
G37*
G36*
X83027931Y-52581086D02*
G01*
X83078121Y-52586909D01*
X83095270Y-52594481D01*
X83118752Y-52599152D01*
X83143891Y-52615949D01*
X83163777Y-52624730D01*
X83177358Y-52638311D01*
X83199858Y-52653345D01*
X83214891Y-52675844D01*
X83228472Y-52689425D01*
X83237251Y-52709308D01*
X83254051Y-52734451D01*
X83258722Y-52757934D01*
X83266293Y-52775081D01*
X83272114Y-52825261D01*
X83273081Y-52830122D01*
X83273081Y-54130122D01*
X83272113Y-54134985D01*
X83266293Y-54185162D01*
X83258722Y-54202307D01*
X83254051Y-54225793D01*
X83237250Y-54250937D01*
X83228472Y-54270818D01*
X83214893Y-54284396D01*
X83199858Y-54306899D01*
X83177355Y-54321934D01*
X83163777Y-54335513D01*
X83143896Y-54344291D01*
X83118752Y-54361092D01*
X83095266Y-54365763D01*
X83078121Y-54373334D01*
X83027942Y-54379154D01*
X83023081Y-54380122D01*
X79753081Y-54380122D01*
X79748219Y-54379154D01*
X79698040Y-54373334D01*
X79680893Y-54365763D01*
X79657410Y-54361092D01*
X79632267Y-54344292D01*
X79612384Y-54335513D01*
X79598803Y-54321932D01*
X79576304Y-54306899D01*
X79561270Y-54284399D01*
X79547689Y-54270818D01*
X79538908Y-54250932D01*
X79522111Y-54225793D01*
X79517440Y-54202311D01*
X79509868Y-54185162D01*
X79504045Y-54134971D01*
X79503081Y-54130122D01*
X79503081Y-52830122D01*
X79504045Y-52825272D01*
X79509868Y-52775081D01*
X79517440Y-52757930D01*
X79522111Y-52734451D01*
X79538907Y-52709313D01*
X79547689Y-52689425D01*
X79561272Y-52675841D01*
X79576304Y-52653345D01*
X79598800Y-52638313D01*
X79612384Y-52624730D01*
X79632272Y-52615948D01*
X79657410Y-52599152D01*
X79680889Y-52594481D01*
X79698040Y-52586909D01*
X79748232Y-52581086D01*
X79753081Y-52580122D01*
X83023081Y-52580122D01*
X83027931Y-52581086D01*
G37*
G36*
X50074285Y-52383060D02*
G01*
X50255397Y-52458079D01*
X50418393Y-52566990D01*
X50557010Y-52705607D01*
X50665921Y-52868603D01*
X50740940Y-53049715D01*
X50779185Y-53241983D01*
X50779185Y-53438017D01*
X50740940Y-53630285D01*
X50665921Y-53811397D01*
X50557010Y-53974393D01*
X50418393Y-54113010D01*
X50255397Y-54221921D01*
X50074285Y-54296940D01*
X49882017Y-54335185D01*
X49685983Y-54335185D01*
X49493715Y-54296940D01*
X49312603Y-54221921D01*
X49149607Y-54113010D01*
X49010990Y-53974393D01*
X48902079Y-53811397D01*
X48827060Y-53630285D01*
X48788815Y-53438017D01*
X48788815Y-53241983D01*
X48827060Y-53049715D01*
X48902079Y-52868603D01*
X49010990Y-52705607D01*
X49149607Y-52566990D01*
X49312603Y-52458079D01*
X49493715Y-52383060D01*
X49685983Y-52344815D01*
X49882017Y-52344815D01*
X50074285Y-52383060D01*
G37*
G36*
X114958315Y-52154093D02*
G01*
X115121742Y-52186601D01*
X115275687Y-52250367D01*
X115414234Y-52342941D01*
X115532059Y-52460766D01*
X115624633Y-52599313D01*
X115688399Y-52753258D01*
X115720907Y-52916685D01*
X115720907Y-53083315D01*
X115688399Y-53246742D01*
X115624633Y-53400687D01*
X115532059Y-53539234D01*
X115414234Y-53657059D01*
X115275687Y-53749633D01*
X115121742Y-53813399D01*
X114958315Y-53845907D01*
X114875000Y-53850000D01*
X114873522Y-53850000D01*
X114626478Y-53850000D01*
X114625000Y-53850000D01*
X114541685Y-53845907D01*
X114378258Y-53813399D01*
X114224313Y-53749633D01*
X114085766Y-53657059D01*
X113967941Y-53539234D01*
X113875367Y-53400687D01*
X113811601Y-53246742D01*
X113779093Y-53083315D01*
X113779093Y-52916685D01*
X113811601Y-52753258D01*
X113875367Y-52599313D01*
X113967941Y-52460766D01*
X114085766Y-52342941D01*
X114224313Y-52250367D01*
X114378258Y-52186601D01*
X114541685Y-52154093D01*
X114625000Y-52150000D01*
X114875000Y-52150000D01*
X114958315Y-52154093D01*
G37*
G36*
X55430228Y-52066448D02*
G01*
X55575117Y-52126463D01*
X55705515Y-52213592D01*
X55816408Y-52324485D01*
X55903537Y-52454883D01*
X55963552Y-52599772D01*
X55994148Y-52753586D01*
X55994148Y-52910414D01*
X55963552Y-53064228D01*
X55903537Y-53209117D01*
X55816408Y-53339515D01*
X55705515Y-53450408D01*
X55575117Y-53537537D01*
X55430228Y-53597552D01*
X55276414Y-53628148D01*
X55119586Y-53628148D01*
X54965772Y-53597552D01*
X54820883Y-53537537D01*
X54690485Y-53450408D01*
X54579592Y-53339515D01*
X54492463Y-53209117D01*
X54432448Y-53064228D01*
X54401852Y-52910414D01*
X54401852Y-52753586D01*
X54432448Y-52599772D01*
X54492463Y-52454883D01*
X54579592Y-52324485D01*
X54690485Y-52213592D01*
X54820883Y-52126463D01*
X54965772Y-52066448D01*
X55119586Y-52035852D01*
X55276414Y-52035852D01*
X55430228Y-52066448D01*
G37*
G36*
X60430228Y-52066448D02*
G01*
X60575117Y-52126463D01*
X60705515Y-52213592D01*
X60816408Y-52324485D01*
X60903537Y-52454883D01*
X60963552Y-52599772D01*
X60994148Y-52753586D01*
X60994148Y-52910414D01*
X60963552Y-53064228D01*
X60903537Y-53209117D01*
X60816408Y-53339515D01*
X60705515Y-53450408D01*
X60575117Y-53537537D01*
X60430228Y-53597552D01*
X60276414Y-53628148D01*
X60119586Y-53628148D01*
X59965772Y-53597552D01*
X59820883Y-53537537D01*
X59690485Y-53450408D01*
X59579592Y-53339515D01*
X59492463Y-53209117D01*
X59432448Y-53064228D01*
X59401852Y-52910414D01*
X59401852Y-52753586D01*
X59432448Y-52599772D01*
X59492463Y-52454883D01*
X59579592Y-52324485D01*
X59690485Y-52213592D01*
X59820883Y-52126463D01*
X59965772Y-52066448D01*
X60119586Y-52035852D01*
X60276414Y-52035852D01*
X60430228Y-52066448D01*
G37*
G36*
X87517403Y-51978918D02*
G01*
X87566066Y-52011434D01*
X87598582Y-52060097D01*
X87610000Y-52117500D01*
X87610000Y-53292500D01*
X87598582Y-53349903D01*
X87566066Y-53398566D01*
X87517403Y-53431082D01*
X87460000Y-53442500D01*
X87160000Y-53442500D01*
X87102597Y-53431082D01*
X87053934Y-53398566D01*
X87021418Y-53349903D01*
X87010000Y-53292500D01*
X87010000Y-52117500D01*
X87021418Y-52060097D01*
X87053934Y-52011434D01*
X87102597Y-51978918D01*
X87160000Y-51967500D01*
X87460000Y-51967500D01*
X87517403Y-51978918D01*
G37*
G36*
X93277813Y-52926000D02*
G01*
X92227813Y-52926000D01*
X92227813Y-51426000D01*
X93277813Y-51426000D01*
X93277813Y-52926000D01*
G37*
G36*
X94223722Y-51465963D02*
G01*
X94342413Y-51534489D01*
X94439324Y-51631400D01*
X94507850Y-51750091D01*
X94543322Y-51882474D01*
X94547813Y-51951000D01*
X94547813Y-52401000D01*
X94543322Y-52469526D01*
X94507850Y-52601909D01*
X94439324Y-52720600D01*
X94342413Y-52817511D01*
X94223722Y-52886037D01*
X94091339Y-52921509D01*
X93954287Y-52921509D01*
X93821904Y-52886037D01*
X93703213Y-52817511D01*
X93606302Y-52720600D01*
X93537776Y-52601909D01*
X93502304Y-52469526D01*
X93497813Y-52401000D01*
X93497813Y-51951000D01*
X93502304Y-51882474D01*
X93537776Y-51750091D01*
X93606302Y-51631400D01*
X93703213Y-51534489D01*
X93821904Y-51465963D01*
X93954287Y-51430491D01*
X94091339Y-51430491D01*
X94223722Y-51465963D01*
G37*
G36*
X95493722Y-51465963D02*
G01*
X95612413Y-51534489D01*
X95709324Y-51631400D01*
X95777850Y-51750091D01*
X95813322Y-51882474D01*
X95817813Y-51951000D01*
X95817813Y-52401000D01*
X95813322Y-52469526D01*
X95777850Y-52601909D01*
X95709324Y-52720600D01*
X95612413Y-52817511D01*
X95493722Y-52886037D01*
X95361339Y-52921509D01*
X95224287Y-52921509D01*
X95091904Y-52886037D01*
X94973213Y-52817511D01*
X94876302Y-52720600D01*
X94807776Y-52601909D01*
X94772304Y-52469526D01*
X94767813Y-52401000D01*
X94767813Y-51951000D01*
X94772304Y-51882474D01*
X94807776Y-51750091D01*
X94876302Y-51631400D01*
X94973213Y-51534489D01*
X95091904Y-51465963D01*
X95224287Y-51430491D01*
X95361339Y-51430491D01*
X95493722Y-51465963D01*
G37*
G36*
X108196742Y-50494601D02*
G01*
X108350687Y-50558367D01*
X108489234Y-50650941D01*
X108607059Y-50768766D01*
X108699633Y-50907313D01*
X108763399Y-51061258D01*
X108795907Y-51224685D01*
X108795907Y-51391315D01*
X108763399Y-51554742D01*
X108699633Y-51708687D01*
X108607059Y-51847234D01*
X108489234Y-51965059D01*
X108350687Y-52057633D01*
X108196742Y-52121399D01*
X108033315Y-52153907D01*
X107866685Y-52153907D01*
X107703258Y-52121399D01*
X107549313Y-52057633D01*
X107410766Y-51965059D01*
X107292941Y-51847234D01*
X107200367Y-51708687D01*
X107136601Y-51554742D01*
X107104093Y-51391315D01*
X107104093Y-51224685D01*
X107136601Y-51061258D01*
X107200367Y-50907313D01*
X107292941Y-50768766D01*
X107410766Y-50650941D01*
X107549313Y-50558367D01*
X107703258Y-50494601D01*
X107866685Y-50462093D01*
X108033315Y-50462093D01*
X108196742Y-50494601D01*
G37*
G36*
X65247931Y-50041086D02*
G01*
X65298121Y-50046909D01*
X65315270Y-50054481D01*
X65338752Y-50059152D01*
X65363891Y-50075949D01*
X65383777Y-50084730D01*
X65397358Y-50098311D01*
X65419858Y-50113345D01*
X65434891Y-50135844D01*
X65448472Y-50149425D01*
X65457251Y-50169308D01*
X65474051Y-50194451D01*
X65478722Y-50217934D01*
X65486293Y-50235081D01*
X65492114Y-50285261D01*
X65493081Y-50290122D01*
X65493081Y-51590122D01*
X65492113Y-51594985D01*
X65486293Y-51645162D01*
X65478722Y-51662307D01*
X65474051Y-51685793D01*
X65457250Y-51710937D01*
X65448472Y-51730818D01*
X65434893Y-51744396D01*
X65419858Y-51766899D01*
X65397355Y-51781934D01*
X65383777Y-51795513D01*
X65363896Y-51804291D01*
X65338752Y-51821092D01*
X65315266Y-51825763D01*
X65298121Y-51833334D01*
X65247942Y-51839154D01*
X65243081Y-51840122D01*
X61973081Y-51840122D01*
X61968219Y-51839154D01*
X61918040Y-51833334D01*
X61900893Y-51825763D01*
X61877410Y-51821092D01*
X61852267Y-51804292D01*
X61832384Y-51795513D01*
X61818803Y-51781932D01*
X61796304Y-51766899D01*
X61781270Y-51744399D01*
X61767689Y-51730818D01*
X61758908Y-51710932D01*
X61742111Y-51685793D01*
X61737440Y-51662311D01*
X61729868Y-51645162D01*
X61724045Y-51594971D01*
X61723081Y-51590122D01*
X61723081Y-50290122D01*
X61724045Y-50285272D01*
X61729868Y-50235081D01*
X61737440Y-50217930D01*
X61742111Y-50194451D01*
X61758907Y-50169313D01*
X61767689Y-50149425D01*
X61781272Y-50135841D01*
X61796304Y-50113345D01*
X61818800Y-50098313D01*
X61832384Y-50084730D01*
X61852272Y-50075948D01*
X61877410Y-50059152D01*
X61900889Y-50054481D01*
X61918040Y-50046909D01*
X61968232Y-50041086D01*
X61973081Y-50040122D01*
X65243081Y-50040122D01*
X65247931Y-50041086D01*
G37*
G36*
X83027931Y-50041086D02*
G01*
X83078121Y-50046909D01*
X83095270Y-50054481D01*
X83118752Y-50059152D01*
X83143891Y-50075949D01*
X83163777Y-50084730D01*
X83177358Y-50098311D01*
X83199858Y-50113345D01*
X83214891Y-50135844D01*
X83228472Y-50149425D01*
X83237251Y-50169308D01*
X83254051Y-50194451D01*
X83258722Y-50217934D01*
X83266293Y-50235081D01*
X83272114Y-50285261D01*
X83273081Y-50290122D01*
X83273081Y-51590122D01*
X83272113Y-51594985D01*
X83266293Y-51645162D01*
X83258722Y-51662307D01*
X83254051Y-51685793D01*
X83237250Y-51710937D01*
X83228472Y-51730818D01*
X83214893Y-51744396D01*
X83199858Y-51766899D01*
X83177355Y-51781934D01*
X83163777Y-51795513D01*
X83143896Y-51804291D01*
X83118752Y-51821092D01*
X83095266Y-51825763D01*
X83078121Y-51833334D01*
X83027942Y-51839154D01*
X83023081Y-51840122D01*
X79753081Y-51840122D01*
X79748219Y-51839154D01*
X79698040Y-51833334D01*
X79680893Y-51825763D01*
X79657410Y-51821092D01*
X79632267Y-51804292D01*
X79612384Y-51795513D01*
X79598803Y-51781932D01*
X79576304Y-51766899D01*
X79561270Y-51744399D01*
X79547689Y-51730818D01*
X79538908Y-51710932D01*
X79522111Y-51685793D01*
X79517440Y-51662311D01*
X79509868Y-51645162D01*
X79504045Y-51594971D01*
X79503081Y-51590122D01*
X79503081Y-50290122D01*
X79504045Y-50285272D01*
X79509868Y-50235081D01*
X79517440Y-50217930D01*
X79522111Y-50194451D01*
X79538907Y-50169313D01*
X79547689Y-50149425D01*
X79561272Y-50135841D01*
X79576304Y-50113345D01*
X79598800Y-50098313D01*
X79612384Y-50084730D01*
X79632272Y-50075948D01*
X79657410Y-50059152D01*
X79680889Y-50054481D01*
X79698040Y-50046909D01*
X79748232Y-50041086D01*
X79753081Y-50040122D01*
X83023081Y-50040122D01*
X83027931Y-50041086D01*
G37*
G36*
X50074285Y-49843060D02*
G01*
X50255397Y-49918079D01*
X50418393Y-50026990D01*
X50557010Y-50165607D01*
X50665921Y-50328603D01*
X50740940Y-50509715D01*
X50779185Y-50701983D01*
X50779185Y-50898017D01*
X50740940Y-51090285D01*
X50665921Y-51271397D01*
X50557010Y-51434393D01*
X50418393Y-51573010D01*
X50255397Y-51681921D01*
X50074285Y-51756940D01*
X49882017Y-51795185D01*
X49685983Y-51795185D01*
X49493715Y-51756940D01*
X49312603Y-51681921D01*
X49149607Y-51573010D01*
X49010990Y-51434393D01*
X48902079Y-51271397D01*
X48827060Y-51090285D01*
X48788815Y-50898017D01*
X48788815Y-50701983D01*
X48827060Y-50509715D01*
X48902079Y-50328603D01*
X49010990Y-50165607D01*
X49149607Y-50026990D01*
X49312603Y-49918079D01*
X49493715Y-49843060D01*
X49685983Y-49804815D01*
X49882017Y-49804815D01*
X50074285Y-49843060D01*
G37*
G36*
X86567403Y-50103918D02*
G01*
X86616066Y-50136434D01*
X86648582Y-50185097D01*
X86660000Y-50242500D01*
X86660000Y-51417500D01*
X86648582Y-51474903D01*
X86616066Y-51523566D01*
X86567403Y-51556082D01*
X86510000Y-51567500D01*
X86210000Y-51567500D01*
X86152597Y-51556082D01*
X86103934Y-51523566D01*
X86071418Y-51474903D01*
X86060000Y-51417500D01*
X86060000Y-50242500D01*
X86071418Y-50185097D01*
X86103934Y-50136434D01*
X86152597Y-50103918D01*
X86210000Y-50092500D01*
X86510000Y-50092500D01*
X86567403Y-50103918D01*
G37*
G36*
X88467403Y-50103918D02*
G01*
X88516066Y-50136434D01*
X88548582Y-50185097D01*
X88560000Y-50242500D01*
X88560000Y-51417500D01*
X88548582Y-51474903D01*
X88516066Y-51523566D01*
X88467403Y-51556082D01*
X88410000Y-51567500D01*
X88110000Y-51567500D01*
X88052597Y-51556082D01*
X88003934Y-51523566D01*
X87971418Y-51474903D01*
X87960000Y-51417500D01*
X87960000Y-50242500D01*
X87971418Y-50185097D01*
X88003934Y-50136434D01*
X88052597Y-50103918D01*
X88110000Y-50092500D01*
X88410000Y-50092500D01*
X88467403Y-50103918D01*
G37*
G36*
X114958315Y-49654093D02*
G01*
X115121742Y-49686601D01*
X115275687Y-49750367D01*
X115414234Y-49842941D01*
X115532059Y-49960766D01*
X115624633Y-50099313D01*
X115688399Y-50253258D01*
X115720907Y-50416685D01*
X115720907Y-50583315D01*
X115688399Y-50746742D01*
X115624633Y-50900687D01*
X115532059Y-51039234D01*
X115414234Y-51157059D01*
X115275687Y-51249633D01*
X115121742Y-51313399D01*
X114958315Y-51345907D01*
X114875000Y-51350000D01*
X114873522Y-51350000D01*
X114626478Y-51350000D01*
X114625000Y-51350000D01*
X114541685Y-51345907D01*
X114378258Y-51313399D01*
X114224313Y-51249633D01*
X114085766Y-51157059D01*
X113967941Y-51039234D01*
X113875367Y-50900687D01*
X113811601Y-50746742D01*
X113779093Y-50583315D01*
X113779093Y-50416685D01*
X113811601Y-50253258D01*
X113875367Y-50099313D01*
X113967941Y-49960766D01*
X114085766Y-49842941D01*
X114224313Y-49750367D01*
X114378258Y-49686601D01*
X114541685Y-49654093D01*
X114625000Y-49650000D01*
X114875000Y-49650000D01*
X114958315Y-49654093D01*
G37*
G36*
X108800000Y-49618000D02*
G01*
X107100000Y-49618000D01*
X107100000Y-47918000D01*
X108800000Y-47918000D01*
X108800000Y-49618000D01*
G37*
G36*
X65247931Y-47501086D02*
G01*
X65298121Y-47506909D01*
X65315270Y-47514481D01*
X65338752Y-47519152D01*
X65363891Y-47535949D01*
X65383777Y-47544730D01*
X65397358Y-47558311D01*
X65419858Y-47573345D01*
X65434891Y-47595844D01*
X65448472Y-47609425D01*
X65457251Y-47629308D01*
X65474051Y-47654451D01*
X65478722Y-47677934D01*
X65486293Y-47695081D01*
X65492114Y-47745261D01*
X65493081Y-47750122D01*
X65493081Y-49050122D01*
X65492113Y-49054985D01*
X65486293Y-49105162D01*
X65478722Y-49122307D01*
X65474051Y-49145793D01*
X65457250Y-49170937D01*
X65448472Y-49190818D01*
X65434893Y-49204396D01*
X65419858Y-49226899D01*
X65397355Y-49241934D01*
X65383777Y-49255513D01*
X65363896Y-49264291D01*
X65338752Y-49281092D01*
X65315266Y-49285763D01*
X65298121Y-49293334D01*
X65247942Y-49299154D01*
X65243081Y-49300122D01*
X61973081Y-49300122D01*
X61968219Y-49299154D01*
X61918040Y-49293334D01*
X61900893Y-49285763D01*
X61877410Y-49281092D01*
X61852267Y-49264292D01*
X61832384Y-49255513D01*
X61818803Y-49241932D01*
X61796304Y-49226899D01*
X61781270Y-49204399D01*
X61767689Y-49190818D01*
X61758908Y-49170932D01*
X61742111Y-49145793D01*
X61737440Y-49122311D01*
X61729868Y-49105162D01*
X61724045Y-49054971D01*
X61723081Y-49050122D01*
X61723081Y-47750122D01*
X61724045Y-47745272D01*
X61729868Y-47695081D01*
X61737440Y-47677930D01*
X61742111Y-47654451D01*
X61758907Y-47629313D01*
X61767689Y-47609425D01*
X61781272Y-47595841D01*
X61796304Y-47573345D01*
X61818800Y-47558313D01*
X61832384Y-47544730D01*
X61852272Y-47535948D01*
X61877410Y-47519152D01*
X61900889Y-47514481D01*
X61918040Y-47506909D01*
X61968232Y-47501086D01*
X61973081Y-47500122D01*
X65243081Y-47500122D01*
X65247931Y-47501086D01*
G37*
G36*
X83027931Y-47501086D02*
G01*
X83078121Y-47506909D01*
X83095270Y-47514481D01*
X83118752Y-47519152D01*
X83143891Y-47535949D01*
X83163777Y-47544730D01*
X83177358Y-47558311D01*
X83199858Y-47573345D01*
X83214891Y-47595844D01*
X83228472Y-47609425D01*
X83237251Y-47629308D01*
X83254051Y-47654451D01*
X83258722Y-47677934D01*
X83266293Y-47695081D01*
X83272114Y-47745261D01*
X83273081Y-47750122D01*
X83273081Y-49050122D01*
X83272113Y-49054985D01*
X83266293Y-49105162D01*
X83258722Y-49122307D01*
X83254051Y-49145793D01*
X83237250Y-49170937D01*
X83228472Y-49190818D01*
X83214893Y-49204396D01*
X83199858Y-49226899D01*
X83177355Y-49241934D01*
X83163777Y-49255513D01*
X83143896Y-49264291D01*
X83118752Y-49281092D01*
X83095266Y-49285763D01*
X83078121Y-49293334D01*
X83027942Y-49299154D01*
X83023081Y-49300122D01*
X79753081Y-49300122D01*
X79748219Y-49299154D01*
X79698040Y-49293334D01*
X79680893Y-49285763D01*
X79657410Y-49281092D01*
X79632267Y-49264292D01*
X79612384Y-49255513D01*
X79598803Y-49241932D01*
X79576304Y-49226899D01*
X79561270Y-49204399D01*
X79547689Y-49190818D01*
X79538908Y-49170932D01*
X79522111Y-49145793D01*
X79517440Y-49122311D01*
X79509868Y-49105162D01*
X79504045Y-49054971D01*
X79503081Y-49050122D01*
X79503081Y-47750122D01*
X79504045Y-47745272D01*
X79509868Y-47695081D01*
X79517440Y-47677930D01*
X79522111Y-47654451D01*
X79538907Y-47629313D01*
X79547689Y-47609425D01*
X79561272Y-47595841D01*
X79576304Y-47573345D01*
X79598800Y-47558313D01*
X79612384Y-47544730D01*
X79632272Y-47535948D01*
X79657410Y-47519152D01*
X79680889Y-47514481D01*
X79698040Y-47506909D01*
X79748232Y-47501086D01*
X79753081Y-47500122D01*
X83023081Y-47500122D01*
X83027931Y-47501086D01*
G37*
G36*
X50074285Y-47303060D02*
G01*
X50255397Y-47378079D01*
X50418393Y-47486990D01*
X50557010Y-47625607D01*
X50665921Y-47788603D01*
X50740940Y-47969715D01*
X50779185Y-48161983D01*
X50779185Y-48358017D01*
X50740940Y-48550285D01*
X50665921Y-48731397D01*
X50557010Y-48894393D01*
X50418393Y-49033010D01*
X50255397Y-49141921D01*
X50074285Y-49216940D01*
X49882017Y-49255185D01*
X49685983Y-49255185D01*
X49493715Y-49216940D01*
X49312603Y-49141921D01*
X49149607Y-49033010D01*
X49010990Y-48894393D01*
X48902079Y-48731397D01*
X48827060Y-48550285D01*
X48788815Y-48358017D01*
X48788815Y-48161983D01*
X48827060Y-47969715D01*
X48902079Y-47788603D01*
X49010990Y-47625607D01*
X49149607Y-47486990D01*
X49312603Y-47378079D01*
X49493715Y-47303060D01*
X49685983Y-47264815D01*
X49882017Y-47264815D01*
X50074285Y-47303060D01*
G37*
G36*
X115479850Y-47150964D02*
G01*
X115530040Y-47156787D01*
X115547189Y-47164359D01*
X115570671Y-47169030D01*
X115595810Y-47185827D01*
X115615696Y-47194608D01*
X115629277Y-47208189D01*
X115651777Y-47223223D01*
X115666810Y-47245722D01*
X115680391Y-47259303D01*
X115689170Y-47279186D01*
X115705970Y-47304329D01*
X115710641Y-47327812D01*
X115718212Y-47344959D01*
X115724033Y-47395139D01*
X115725000Y-47400000D01*
X115725000Y-48600000D01*
X115724032Y-48604863D01*
X115718212Y-48655040D01*
X115710641Y-48672185D01*
X115705970Y-48695671D01*
X115689169Y-48720815D01*
X115680391Y-48740696D01*
X115666812Y-48754274D01*
X115651777Y-48776777D01*
X115629274Y-48791812D01*
X115615696Y-48805391D01*
X115595815Y-48814169D01*
X115570671Y-48830970D01*
X115547185Y-48835641D01*
X115530040Y-48843212D01*
X115479861Y-48849032D01*
X115475000Y-48850000D01*
X114025000Y-48850000D01*
X114020138Y-48849032D01*
X113969959Y-48843212D01*
X113952812Y-48835641D01*
X113929329Y-48830970D01*
X113904186Y-48814170D01*
X113884303Y-48805391D01*
X113870722Y-48791810D01*
X113848223Y-48776777D01*
X113833189Y-48754277D01*
X113819608Y-48740696D01*
X113810827Y-48720810D01*
X113794030Y-48695671D01*
X113789359Y-48672189D01*
X113781787Y-48655040D01*
X113775964Y-48604849D01*
X113775000Y-48600000D01*
X113775000Y-47400000D01*
X113775964Y-47395150D01*
X113781787Y-47344959D01*
X113789359Y-47327808D01*
X113794030Y-47304329D01*
X113810826Y-47279191D01*
X113819608Y-47259303D01*
X113833191Y-47245719D01*
X113848223Y-47223223D01*
X113870719Y-47208191D01*
X113884303Y-47194608D01*
X113904191Y-47185826D01*
X113929329Y-47169030D01*
X113952808Y-47164359D01*
X113969959Y-47156787D01*
X114020151Y-47150964D01*
X114025000Y-47150000D01*
X115475000Y-47150000D01*
X115479850Y-47150964D01*
G37*
G36*
X58942850Y-46952964D02*
G01*
X58993040Y-46958787D01*
X59010189Y-46966359D01*
X59033671Y-46971030D01*
X59058810Y-46987827D01*
X59078696Y-46996608D01*
X59092277Y-47010189D01*
X59114777Y-47025223D01*
X59129810Y-47047722D01*
X59143391Y-47061303D01*
X59152170Y-47081186D01*
X59168970Y-47106329D01*
X59173641Y-47129812D01*
X59181212Y-47146959D01*
X59187033Y-47197139D01*
X59188000Y-47202000D01*
X59188000Y-48302000D01*
X59187032Y-48306863D01*
X59181212Y-48357040D01*
X59173641Y-48374185D01*
X59168970Y-48397671D01*
X59152169Y-48422815D01*
X59143391Y-48442696D01*
X59129812Y-48456274D01*
X59114777Y-48478777D01*
X59092274Y-48493812D01*
X59078696Y-48507391D01*
X59058815Y-48516169D01*
X59033671Y-48532970D01*
X59010185Y-48537641D01*
X58993040Y-48545212D01*
X58942861Y-48551032D01*
X58938000Y-48552000D01*
X57838000Y-48552000D01*
X57833138Y-48551032D01*
X57782959Y-48545212D01*
X57765812Y-48537641D01*
X57742329Y-48532970D01*
X57717186Y-48516170D01*
X57697303Y-48507391D01*
X57683722Y-48493810D01*
X57661223Y-48478777D01*
X57646189Y-48456277D01*
X57632608Y-48442696D01*
X57623827Y-48422810D01*
X57607030Y-48397671D01*
X57602359Y-48374189D01*
X57594787Y-48357040D01*
X57588964Y-48306849D01*
X57588000Y-48302000D01*
X57588000Y-47202000D01*
X57588964Y-47197150D01*
X57594787Y-47146959D01*
X57602359Y-47129808D01*
X57607030Y-47106329D01*
X57623826Y-47081191D01*
X57632608Y-47061303D01*
X57646191Y-47047719D01*
X57661223Y-47025223D01*
X57683719Y-47010191D01*
X57697303Y-46996608D01*
X57717191Y-46987826D01*
X57742329Y-46971030D01*
X57765808Y-46966359D01*
X57782959Y-46958787D01*
X57833151Y-46952964D01*
X57838000Y-46952000D01*
X58938000Y-46952000D01*
X58942850Y-46952964D01*
G37*
G36*
X56620228Y-46986448D02*
G01*
X56765117Y-47046463D01*
X56895515Y-47133592D01*
X57006408Y-47244485D01*
X57093537Y-47374883D01*
X57153552Y-47519772D01*
X57184148Y-47673586D01*
X57184148Y-47830414D01*
X57153552Y-47984228D01*
X57093537Y-48129117D01*
X57006408Y-48259515D01*
X56895515Y-48370408D01*
X56765117Y-48457537D01*
X56620228Y-48517552D01*
X56466414Y-48548148D01*
X56309586Y-48548148D01*
X56155772Y-48517552D01*
X56010883Y-48457537D01*
X55880485Y-48370408D01*
X55769592Y-48259515D01*
X55682463Y-48129117D01*
X55622448Y-47984228D01*
X55591852Y-47830414D01*
X55591852Y-47673586D01*
X55622448Y-47519772D01*
X55682463Y-47374883D01*
X55769592Y-47244485D01*
X55880485Y-47133592D01*
X56010883Y-47046463D01*
X56155772Y-46986448D01*
X56309586Y-46955852D01*
X56466414Y-46955852D01*
X56620228Y-46986448D01*
G37*
G36*
X86338228Y-46859448D02*
G01*
X86483117Y-46919463D01*
X86613515Y-47006592D01*
X86724408Y-47117485D01*
X86811537Y-47247883D01*
X86871552Y-47392772D01*
X86902148Y-47546586D01*
X86902148Y-47703414D01*
X86871552Y-47857228D01*
X86811537Y-48002117D01*
X86724408Y-48132515D01*
X86613515Y-48243408D01*
X86483117Y-48330537D01*
X86338228Y-48390552D01*
X86184414Y-48421148D01*
X86027586Y-48421148D01*
X85873772Y-48390552D01*
X85728883Y-48330537D01*
X85598485Y-48243408D01*
X85487592Y-48132515D01*
X85400463Y-48002117D01*
X85340448Y-47857228D01*
X85309852Y-47703414D01*
X85309852Y-47546586D01*
X85340448Y-47392772D01*
X85400463Y-47247883D01*
X85487592Y-47117485D01*
X85598485Y-47006592D01*
X85728883Y-46919463D01*
X85873772Y-46859448D01*
X86027586Y-46828852D01*
X86184414Y-46828852D01*
X86338228Y-46859448D01*
G37*
G36*
X93958228Y-46859448D02*
G01*
X94103117Y-46919463D01*
X94233515Y-47006592D01*
X94344408Y-47117485D01*
X94431537Y-47247883D01*
X94491552Y-47392772D01*
X94522148Y-47546586D01*
X94522148Y-47703414D01*
X94491552Y-47857228D01*
X94431537Y-48002117D01*
X94344408Y-48132515D01*
X94233515Y-48243408D01*
X94103117Y-48330537D01*
X93958228Y-48390552D01*
X93804414Y-48421148D01*
X93647586Y-48421148D01*
X93493772Y-48390552D01*
X93348883Y-48330537D01*
X93218485Y-48243408D01*
X93107592Y-48132515D01*
X93020463Y-48002117D01*
X92960448Y-47857228D01*
X92929852Y-47703414D01*
X92929852Y-47546586D01*
X92960448Y-47392772D01*
X93020463Y-47247883D01*
X93107592Y-47117485D01*
X93218485Y-47006592D01*
X93348883Y-46919463D01*
X93493772Y-46859448D01*
X93647586Y-46828852D01*
X93804414Y-46828852D01*
X93958228Y-46859448D01*
G37*
G36*
X113331428Y-45801912D02*
G01*
X113444623Y-45848799D01*
X113546496Y-45916868D01*
X113633132Y-46003504D01*
X113701201Y-46105377D01*
X113748088Y-46218572D01*
X113771990Y-46338739D01*
X113771990Y-46461261D01*
X113748088Y-46581428D01*
X113701201Y-46694623D01*
X113633132Y-46796496D01*
X113546496Y-46883132D01*
X113444623Y-46951201D01*
X113331428Y-46998088D01*
X113211261Y-47021990D01*
X113088739Y-47021990D01*
X112968572Y-46998088D01*
X112855377Y-46951201D01*
X112753504Y-46883132D01*
X112666868Y-46796496D01*
X112598799Y-46694623D01*
X112551912Y-46581428D01*
X112528010Y-46461261D01*
X112528010Y-46338739D01*
X112551912Y-46218572D01*
X112598799Y-46105377D01*
X112666868Y-46003504D01*
X112753504Y-45916868D01*
X112855377Y-45848799D01*
X112968572Y-45801912D01*
X113088739Y-45778010D01*
X113211261Y-45778010D01*
X113331428Y-45801912D01*
G37*
G36*
X65247931Y-44961086D02*
G01*
X65298121Y-44966909D01*
X65315270Y-44974481D01*
X65338752Y-44979152D01*
X65363891Y-44995949D01*
X65383777Y-45004730D01*
X65397358Y-45018311D01*
X65419858Y-45033345D01*
X65434891Y-45055844D01*
X65448472Y-45069425D01*
X65457251Y-45089308D01*
X65474051Y-45114451D01*
X65478722Y-45137934D01*
X65486293Y-45155081D01*
X65492114Y-45205261D01*
X65493081Y-45210122D01*
X65493081Y-46510122D01*
X65492113Y-46514985D01*
X65486293Y-46565162D01*
X65478722Y-46582307D01*
X65474051Y-46605793D01*
X65457250Y-46630937D01*
X65448472Y-46650818D01*
X65434893Y-46664396D01*
X65419858Y-46686899D01*
X65397355Y-46701934D01*
X65383777Y-46715513D01*
X65363896Y-46724291D01*
X65338752Y-46741092D01*
X65315266Y-46745763D01*
X65298121Y-46753334D01*
X65247942Y-46759154D01*
X65243081Y-46760122D01*
X61973081Y-46760122D01*
X61968219Y-46759154D01*
X61918040Y-46753334D01*
X61900893Y-46745763D01*
X61877410Y-46741092D01*
X61852267Y-46724292D01*
X61832384Y-46715513D01*
X61818803Y-46701932D01*
X61796304Y-46686899D01*
X61781270Y-46664399D01*
X61767689Y-46650818D01*
X61758908Y-46630932D01*
X61742111Y-46605793D01*
X61737440Y-46582311D01*
X61729868Y-46565162D01*
X61724045Y-46514971D01*
X61723081Y-46510122D01*
X61723081Y-45210122D01*
X61724045Y-45205272D01*
X61729868Y-45155081D01*
X61737440Y-45137930D01*
X61742111Y-45114451D01*
X61758907Y-45089313D01*
X61767689Y-45069425D01*
X61781272Y-45055841D01*
X61796304Y-45033345D01*
X61818800Y-45018313D01*
X61832384Y-45004730D01*
X61852272Y-44995948D01*
X61877410Y-44979152D01*
X61900889Y-44974481D01*
X61918040Y-44966909D01*
X61968232Y-44961086D01*
X61973081Y-44960122D01*
X65243081Y-44960122D01*
X65247931Y-44961086D01*
G37*
G36*
X83027931Y-44961086D02*
G01*
X83078121Y-44966909D01*
X83095270Y-44974481D01*
X83118752Y-44979152D01*
X83143891Y-44995949D01*
X83163777Y-45004730D01*
X83177358Y-45018311D01*
X83199858Y-45033345D01*
X83214891Y-45055844D01*
X83228472Y-45069425D01*
X83237251Y-45089308D01*
X83254051Y-45114451D01*
X83258722Y-45137934D01*
X83266293Y-45155081D01*
X83272114Y-45205261D01*
X83273081Y-45210122D01*
X83273081Y-46510122D01*
X83272113Y-46514985D01*
X83266293Y-46565162D01*
X83258722Y-46582307D01*
X83254051Y-46605793D01*
X83237250Y-46630937D01*
X83228472Y-46650818D01*
X83214893Y-46664396D01*
X83199858Y-46686899D01*
X83177355Y-46701934D01*
X83163777Y-46715513D01*
X83143896Y-46724291D01*
X83118752Y-46741092D01*
X83095266Y-46745763D01*
X83078121Y-46753334D01*
X83027942Y-46759154D01*
X83023081Y-46760122D01*
X79753081Y-46760122D01*
X79748219Y-46759154D01*
X79698040Y-46753334D01*
X79680893Y-46745763D01*
X79657410Y-46741092D01*
X79632267Y-46724292D01*
X79612384Y-46715513D01*
X79598803Y-46701932D01*
X79576304Y-46686899D01*
X79561270Y-46664399D01*
X79547689Y-46650818D01*
X79538908Y-46630932D01*
X79522111Y-46605793D01*
X79517440Y-46582311D01*
X79509868Y-46565162D01*
X79504045Y-46514971D01*
X79503081Y-46510122D01*
X79503081Y-45210122D01*
X79504045Y-45205272D01*
X79509868Y-45155081D01*
X79517440Y-45137930D01*
X79522111Y-45114451D01*
X79538907Y-45089313D01*
X79547689Y-45069425D01*
X79561272Y-45055841D01*
X79576304Y-45033345D01*
X79598800Y-45018313D01*
X79612384Y-45004730D01*
X79632272Y-44995948D01*
X79657410Y-44979152D01*
X79680889Y-44974481D01*
X79698040Y-44966909D01*
X79748232Y-44961086D01*
X79753081Y-44960122D01*
X83023081Y-44960122D01*
X83027931Y-44961086D01*
G37*
G36*
X50074285Y-44763060D02*
G01*
X50255397Y-44838079D01*
X50418393Y-44946990D01*
X50557010Y-45085607D01*
X50665921Y-45248603D01*
X50740940Y-45429715D01*
X50779185Y-45621983D01*
X50779185Y-45818017D01*
X50740940Y-46010285D01*
X50665921Y-46191397D01*
X50557010Y-46354393D01*
X50418393Y-46493010D01*
X50255397Y-46601921D01*
X50074285Y-46676940D01*
X49882017Y-46715185D01*
X49685983Y-46715185D01*
X49493715Y-46676940D01*
X49312603Y-46601921D01*
X49149607Y-46493010D01*
X49010990Y-46354393D01*
X48902079Y-46191397D01*
X48827060Y-46010285D01*
X48788815Y-45818017D01*
X48788815Y-45621983D01*
X48827060Y-45429715D01*
X48902079Y-45248603D01*
X49010990Y-45085607D01*
X49149607Y-44946990D01*
X49312603Y-44838079D01*
X49493715Y-44763060D01*
X49685983Y-44724815D01*
X49882017Y-44724815D01*
X50074285Y-44763060D01*
G37*
G36*
X104732228Y-43984448D02*
G01*
X104877117Y-44044463D01*
X105007515Y-44131592D01*
X105118408Y-44242485D01*
X105205537Y-44372883D01*
X105265552Y-44517772D01*
X105296148Y-44671586D01*
X105296148Y-44828414D01*
X105265552Y-44982228D01*
X105205537Y-45127117D01*
X105118408Y-45257515D01*
X105007515Y-45368408D01*
X104877117Y-45455537D01*
X104732228Y-45515552D01*
X104578414Y-45546148D01*
X104421586Y-45546148D01*
X104267772Y-45515552D01*
X104122883Y-45455537D01*
X103992485Y-45368408D01*
X103881592Y-45257515D01*
X103794463Y-45127117D01*
X103734448Y-44982228D01*
X103703852Y-44828414D01*
X103703852Y-44671586D01*
X103734448Y-44517772D01*
X103794463Y-44372883D01*
X103881592Y-44242485D01*
X103992485Y-44131592D01*
X104122883Y-44044463D01*
X104267772Y-43984448D01*
X104421586Y-43953852D01*
X104578414Y-43953852D01*
X104732228Y-43984448D01*
G37*
G36*
X109732228Y-43984448D02*
G01*
X109877117Y-44044463D01*
X110007515Y-44131592D01*
X110118408Y-44242485D01*
X110205537Y-44372883D01*
X110265552Y-44517772D01*
X110296148Y-44671586D01*
X110296148Y-44828414D01*
X110265552Y-44982228D01*
X110205537Y-45127117D01*
X110118408Y-45257515D01*
X110007515Y-45368408D01*
X109877117Y-45455537D01*
X109732228Y-45515552D01*
X109578414Y-45546148D01*
X109421586Y-45546148D01*
X109267772Y-45515552D01*
X109122883Y-45455537D01*
X108992485Y-45368408D01*
X108881592Y-45257515D01*
X108794463Y-45127117D01*
X108734448Y-44982228D01*
X108703852Y-44828414D01*
X108703852Y-44671586D01*
X108734448Y-44517772D01*
X108794463Y-44372883D01*
X108881592Y-44242485D01*
X108992485Y-44131592D01*
X109122883Y-44044463D01*
X109267772Y-43984448D01*
X109421586Y-43953852D01*
X109578414Y-43953852D01*
X109732228Y-43984448D01*
G37*
G36*
X86338228Y-43612636D02*
G01*
X86483117Y-43672651D01*
X86613515Y-43759780D01*
X86724408Y-43870673D01*
X86811537Y-44001071D01*
X86871552Y-44145960D01*
X86902148Y-44299774D01*
X86902148Y-44456602D01*
X86871552Y-44610416D01*
X86811537Y-44755305D01*
X86724408Y-44885703D01*
X86613515Y-44996596D01*
X86483117Y-45083725D01*
X86338228Y-45143740D01*
X86184414Y-45174336D01*
X86027586Y-45174336D01*
X85873772Y-45143740D01*
X85728883Y-45083725D01*
X85598485Y-44996596D01*
X85487592Y-44885703D01*
X85400463Y-44755305D01*
X85340448Y-44610416D01*
X85309852Y-44456602D01*
X85309852Y-44299774D01*
X85340448Y-44145960D01*
X85400463Y-44001071D01*
X85487592Y-43870673D01*
X85598485Y-43759780D01*
X85728883Y-43672651D01*
X85873772Y-43612636D01*
X86027586Y-43582040D01*
X86184414Y-43582040D01*
X86338228Y-43612636D01*
G37*
G36*
X93958228Y-43612636D02*
G01*
X94103117Y-43672651D01*
X94233515Y-43759780D01*
X94344408Y-43870673D01*
X94431537Y-44001071D01*
X94491552Y-44145960D01*
X94522148Y-44299774D01*
X94522148Y-44456602D01*
X94491552Y-44610416D01*
X94431537Y-44755305D01*
X94344408Y-44885703D01*
X94233515Y-44996596D01*
X94103117Y-45083725D01*
X93958228Y-45143740D01*
X93804414Y-45174336D01*
X93647586Y-45174336D01*
X93493772Y-45143740D01*
X93348883Y-45083725D01*
X93218485Y-44996596D01*
X93107592Y-44885703D01*
X93020463Y-44755305D01*
X92960448Y-44610416D01*
X92929852Y-44456602D01*
X92929852Y-44299774D01*
X92960448Y-44145960D01*
X93020463Y-44001071D01*
X93107592Y-43870673D01*
X93218485Y-43759780D01*
X93348883Y-43672651D01*
X93493772Y-43612636D01*
X93647586Y-43582040D01*
X93804414Y-43582040D01*
X93958228Y-43612636D01*
G37*
G36*
X65247931Y-42421086D02*
G01*
X65298121Y-42426909D01*
X65315270Y-42434481D01*
X65338752Y-42439152D01*
X65363891Y-42455949D01*
X65383777Y-42464730D01*
X65397358Y-42478311D01*
X65419858Y-42493345D01*
X65434891Y-42515844D01*
X65448472Y-42529425D01*
X65457251Y-42549308D01*
X65474051Y-42574451D01*
X65478722Y-42597934D01*
X65486293Y-42615081D01*
X65492114Y-42665261D01*
X65493081Y-42670122D01*
X65493081Y-43970122D01*
X65492113Y-43974985D01*
X65486293Y-44025162D01*
X65478722Y-44042307D01*
X65474051Y-44065793D01*
X65457250Y-44090937D01*
X65448472Y-44110818D01*
X65434893Y-44124396D01*
X65419858Y-44146899D01*
X65397355Y-44161934D01*
X65383777Y-44175513D01*
X65363896Y-44184291D01*
X65338752Y-44201092D01*
X65315266Y-44205763D01*
X65298121Y-44213334D01*
X65247942Y-44219154D01*
X65243081Y-44220122D01*
X61973081Y-44220122D01*
X61968219Y-44219154D01*
X61918040Y-44213334D01*
X61900893Y-44205763D01*
X61877410Y-44201092D01*
X61852267Y-44184292D01*
X61832384Y-44175513D01*
X61818803Y-44161932D01*
X61796304Y-44146899D01*
X61781270Y-44124399D01*
X61767689Y-44110818D01*
X61758908Y-44090932D01*
X61742111Y-44065793D01*
X61737440Y-44042311D01*
X61729868Y-44025162D01*
X61724045Y-43974971D01*
X61723081Y-43970122D01*
X61723081Y-42670122D01*
X61724045Y-42665272D01*
X61729868Y-42615081D01*
X61737440Y-42597930D01*
X61742111Y-42574451D01*
X61758907Y-42549313D01*
X61767689Y-42529425D01*
X61781272Y-42515841D01*
X61796304Y-42493345D01*
X61818800Y-42478313D01*
X61832384Y-42464730D01*
X61852272Y-42455948D01*
X61877410Y-42439152D01*
X61900889Y-42434481D01*
X61918040Y-42426909D01*
X61968232Y-42421086D01*
X61973081Y-42420122D01*
X65243081Y-42420122D01*
X65247931Y-42421086D01*
G37*
G36*
X83027931Y-42421086D02*
G01*
X83078121Y-42426909D01*
X83095270Y-42434481D01*
X83118752Y-42439152D01*
X83143891Y-42455949D01*
X83163777Y-42464730D01*
X83177358Y-42478311D01*
X83199858Y-42493345D01*
X83214891Y-42515844D01*
X83228472Y-42529425D01*
X83237251Y-42549308D01*
X83254051Y-42574451D01*
X83258722Y-42597934D01*
X83266293Y-42615081D01*
X83272114Y-42665261D01*
X83273081Y-42670122D01*
X83273081Y-43970122D01*
X83272113Y-43974985D01*
X83266293Y-44025162D01*
X83258722Y-44042307D01*
X83254051Y-44065793D01*
X83237250Y-44090937D01*
X83228472Y-44110818D01*
X83214893Y-44124396D01*
X83199858Y-44146899D01*
X83177355Y-44161934D01*
X83163777Y-44175513D01*
X83143896Y-44184291D01*
X83118752Y-44201092D01*
X83095266Y-44205763D01*
X83078121Y-44213334D01*
X83027942Y-44219154D01*
X83023081Y-44220122D01*
X79753081Y-44220122D01*
X79748219Y-44219154D01*
X79698040Y-44213334D01*
X79680893Y-44205763D01*
X79657410Y-44201092D01*
X79632267Y-44184292D01*
X79612384Y-44175513D01*
X79598803Y-44161932D01*
X79576304Y-44146899D01*
X79561270Y-44124399D01*
X79547689Y-44110818D01*
X79538908Y-44090932D01*
X79522111Y-44065793D01*
X79517440Y-44042311D01*
X79509868Y-44025162D01*
X79504045Y-43974971D01*
X79503081Y-43970122D01*
X79503081Y-42670122D01*
X79504045Y-42665272D01*
X79509868Y-42615081D01*
X79517440Y-42597930D01*
X79522111Y-42574451D01*
X79538907Y-42549313D01*
X79547689Y-42529425D01*
X79561272Y-42515841D01*
X79576304Y-42493345D01*
X79598800Y-42478313D01*
X79612384Y-42464730D01*
X79632272Y-42455948D01*
X79657410Y-42439152D01*
X79680889Y-42434481D01*
X79698040Y-42426909D01*
X79748232Y-42421086D01*
X79753081Y-42420122D01*
X83023081Y-42420122D01*
X83027931Y-42421086D01*
G37*
G36*
X50074285Y-42223060D02*
G01*
X50255397Y-42298079D01*
X50418393Y-42406990D01*
X50557010Y-42545607D01*
X50665921Y-42708603D01*
X50740940Y-42889715D01*
X50779185Y-43081983D01*
X50779185Y-43278017D01*
X50740940Y-43470285D01*
X50665921Y-43651397D01*
X50557010Y-43814393D01*
X50418393Y-43953010D01*
X50255397Y-44061921D01*
X50074285Y-44136940D01*
X49882017Y-44175185D01*
X49685983Y-44175185D01*
X49493715Y-44136940D01*
X49312603Y-44061921D01*
X49149607Y-43953010D01*
X49010990Y-43814393D01*
X48902079Y-43651397D01*
X48827060Y-43470285D01*
X48788815Y-43278017D01*
X48788815Y-43081983D01*
X48827060Y-42889715D01*
X48902079Y-42708603D01*
X49010990Y-42545607D01*
X49149607Y-42406990D01*
X49312603Y-42298079D01*
X49493715Y-42223060D01*
X49685983Y-42184815D01*
X49882017Y-42184815D01*
X50074285Y-42223060D01*
G37*
G36*
X65247931Y-39881086D02*
G01*
X65298121Y-39886909D01*
X65315270Y-39894481D01*
X65338752Y-39899152D01*
X65363891Y-39915949D01*
X65383777Y-39924730D01*
X65397358Y-39938311D01*
X65419858Y-39953345D01*
X65434891Y-39975844D01*
X65448472Y-39989425D01*
X65457251Y-40009308D01*
X65474051Y-40034451D01*
X65478722Y-40057934D01*
X65486293Y-40075081D01*
X65492114Y-40125261D01*
X65493081Y-40130122D01*
X65493081Y-41430122D01*
X65492113Y-41434985D01*
X65486293Y-41485162D01*
X65478722Y-41502307D01*
X65474051Y-41525793D01*
X65457250Y-41550937D01*
X65448472Y-41570818D01*
X65434893Y-41584396D01*
X65419858Y-41606899D01*
X65397355Y-41621934D01*
X65383777Y-41635513D01*
X65363896Y-41644291D01*
X65338752Y-41661092D01*
X65315266Y-41665763D01*
X65298121Y-41673334D01*
X65247942Y-41679154D01*
X65243081Y-41680122D01*
X61973081Y-41680122D01*
X61968219Y-41679154D01*
X61918040Y-41673334D01*
X61900893Y-41665763D01*
X61877410Y-41661092D01*
X61852267Y-41644292D01*
X61832384Y-41635513D01*
X61818803Y-41621932D01*
X61796304Y-41606899D01*
X61781270Y-41584399D01*
X61767689Y-41570818D01*
X61758908Y-41550932D01*
X61742111Y-41525793D01*
X61737440Y-41502311D01*
X61729868Y-41485162D01*
X61724045Y-41434971D01*
X61723081Y-41430122D01*
X61723081Y-40130122D01*
X61724045Y-40125272D01*
X61729868Y-40075081D01*
X61737440Y-40057930D01*
X61742111Y-40034451D01*
X61758907Y-40009313D01*
X61767689Y-39989425D01*
X61781272Y-39975841D01*
X61796304Y-39953345D01*
X61818800Y-39938313D01*
X61832384Y-39924730D01*
X61852272Y-39915948D01*
X61877410Y-39899152D01*
X61900889Y-39894481D01*
X61918040Y-39886909D01*
X61968232Y-39881086D01*
X61973081Y-39880122D01*
X65243081Y-39880122D01*
X65247931Y-39881086D01*
G37*
G36*
X83027931Y-39881086D02*
G01*
X83078121Y-39886909D01*
X83095270Y-39894481D01*
X83118752Y-39899152D01*
X83143891Y-39915949D01*
X83163777Y-39924730D01*
X83177358Y-39938311D01*
X83199858Y-39953345D01*
X83214891Y-39975844D01*
X83228472Y-39989425D01*
X83237251Y-40009308D01*
X83254051Y-40034451D01*
X83258722Y-40057934D01*
X83266293Y-40075081D01*
X83272114Y-40125261D01*
X83273081Y-40130122D01*
X83273081Y-41430122D01*
X83272113Y-41434985D01*
X83266293Y-41485162D01*
X83258722Y-41502307D01*
X83254051Y-41525793D01*
X83237250Y-41550937D01*
X83228472Y-41570818D01*
X83214893Y-41584396D01*
X83199858Y-41606899D01*
X83177355Y-41621934D01*
X83163777Y-41635513D01*
X83143896Y-41644291D01*
X83118752Y-41661092D01*
X83095266Y-41665763D01*
X83078121Y-41673334D01*
X83027942Y-41679154D01*
X83023081Y-41680122D01*
X79753081Y-41680122D01*
X79748219Y-41679154D01*
X79698040Y-41673334D01*
X79680893Y-41665763D01*
X79657410Y-41661092D01*
X79632267Y-41644292D01*
X79612384Y-41635513D01*
X79598803Y-41621932D01*
X79576304Y-41606899D01*
X79561270Y-41584399D01*
X79547689Y-41570818D01*
X79538908Y-41550932D01*
X79522111Y-41525793D01*
X79517440Y-41502311D01*
X79509868Y-41485162D01*
X79504045Y-41434971D01*
X79503081Y-41430122D01*
X79503081Y-40130122D01*
X79504045Y-40125272D01*
X79509868Y-40075081D01*
X79517440Y-40057930D01*
X79522111Y-40034451D01*
X79538907Y-40009313D01*
X79547689Y-39989425D01*
X79561272Y-39975841D01*
X79576304Y-39953345D01*
X79598800Y-39938313D01*
X79612384Y-39924730D01*
X79632272Y-39915948D01*
X79657410Y-39899152D01*
X79680889Y-39894481D01*
X79698040Y-39886909D01*
X79748232Y-39881086D01*
X79753081Y-39880122D01*
X83023081Y-39880122D01*
X83027931Y-39881086D01*
G37*
G36*
X50074285Y-39683060D02*
G01*
X50255397Y-39758079D01*
X50418393Y-39866990D01*
X50557010Y-40005607D01*
X50665921Y-40168603D01*
X50740940Y-40349715D01*
X50779185Y-40541983D01*
X50779185Y-40738017D01*
X50740940Y-40930285D01*
X50665921Y-41111397D01*
X50557010Y-41274393D01*
X50418393Y-41413010D01*
X50255397Y-41521921D01*
X50074285Y-41596940D01*
X49882017Y-41635185D01*
X49685983Y-41635185D01*
X49493715Y-41596940D01*
X49312603Y-41521921D01*
X49149607Y-41413010D01*
X49010990Y-41274393D01*
X48902079Y-41111397D01*
X48827060Y-40930285D01*
X48788815Y-40738017D01*
X48788815Y-40541983D01*
X48827060Y-40349715D01*
X48902079Y-40168603D01*
X49010990Y-40005607D01*
X49149607Y-39866990D01*
X49312603Y-39758079D01*
X49493715Y-39683060D01*
X49685983Y-39644815D01*
X49882017Y-39644815D01*
X50074285Y-39683060D01*
G37*
G36*
X115943742Y-39231601D02*
G01*
X116097687Y-39295367D01*
X116236234Y-39387941D01*
X116354059Y-39505766D01*
X116446633Y-39644313D01*
X116510399Y-39798258D01*
X116542907Y-39961685D01*
X116542907Y-40128315D01*
X116510399Y-40291742D01*
X116446633Y-40445687D01*
X116354059Y-40584234D01*
X116236234Y-40702059D01*
X116097687Y-40794633D01*
X115943742Y-40858399D01*
X115780315Y-40890907D01*
X115613685Y-40890907D01*
X115450258Y-40858399D01*
X115296313Y-40794633D01*
X115157766Y-40702059D01*
X115039941Y-40584234D01*
X114947367Y-40445687D01*
X114883601Y-40291742D01*
X114851093Y-40128315D01*
X114851093Y-39961685D01*
X114883601Y-39798258D01*
X114947367Y-39644313D01*
X115039941Y-39505766D01*
X115157766Y-39387941D01*
X115296313Y-39295367D01*
X115450258Y-39231601D01*
X115613685Y-39199093D01*
X115780315Y-39199093D01*
X115943742Y-39231601D01*
G37*
G36*
X99804850Y-37950964D02*
G01*
X99855040Y-37956787D01*
X99872189Y-37964359D01*
X99895671Y-37969030D01*
X99920810Y-37985827D01*
X99940696Y-37994608D01*
X99954277Y-38008189D01*
X99976777Y-38023223D01*
X99991810Y-38045722D01*
X100005391Y-38059303D01*
X100014170Y-38079186D01*
X100030970Y-38104329D01*
X100035641Y-38127812D01*
X100043212Y-38144959D01*
X100049033Y-38195139D01*
X100050000Y-38200000D01*
X100050000Y-39300000D01*
X100049032Y-39304863D01*
X100043212Y-39355040D01*
X100035641Y-39372185D01*
X100030970Y-39395671D01*
X100014169Y-39420815D01*
X100005391Y-39440696D01*
X99991812Y-39454274D01*
X99976777Y-39476777D01*
X99954274Y-39491812D01*
X99940696Y-39505391D01*
X99920815Y-39514169D01*
X99895671Y-39530970D01*
X99872185Y-39535641D01*
X99855040Y-39543212D01*
X99804861Y-39549032D01*
X99800000Y-39550000D01*
X98700000Y-39550000D01*
X98695138Y-39549032D01*
X98644959Y-39543212D01*
X98627812Y-39535641D01*
X98604329Y-39530970D01*
X98579186Y-39514170D01*
X98559303Y-39505391D01*
X98545722Y-39491810D01*
X98523223Y-39476777D01*
X98508189Y-39454277D01*
X98494608Y-39440696D01*
X98485827Y-39420810D01*
X98469030Y-39395671D01*
X98464359Y-39372189D01*
X98456787Y-39355040D01*
X98450964Y-39304849D01*
X98450000Y-39300000D01*
X98450000Y-38200000D01*
X98450964Y-38195150D01*
X98456787Y-38144959D01*
X98464359Y-38127808D01*
X98469030Y-38104329D01*
X98485826Y-38079191D01*
X98494608Y-38059303D01*
X98508191Y-38045719D01*
X98523223Y-38023223D01*
X98545719Y-38008191D01*
X98559303Y-37994608D01*
X98579191Y-37985826D01*
X98604329Y-37969030D01*
X98627808Y-37964359D01*
X98644959Y-37956787D01*
X98695151Y-37950964D01*
X98700000Y-37950000D01*
X99800000Y-37950000D01*
X99804850Y-37950964D01*
G37*
G36*
X95982228Y-37984448D02*
G01*
X96127117Y-38044463D01*
X96257515Y-38131592D01*
X96368408Y-38242485D01*
X96455537Y-38372883D01*
X96515552Y-38517772D01*
X96546148Y-38671586D01*
X96546148Y-38828414D01*
X96515552Y-38982228D01*
X96455537Y-39127117D01*
X96368408Y-39257515D01*
X96257515Y-39368408D01*
X96127117Y-39455537D01*
X95982228Y-39515552D01*
X95828414Y-39546148D01*
X95671586Y-39546148D01*
X95517772Y-39515552D01*
X95372883Y-39455537D01*
X95242485Y-39368408D01*
X95131592Y-39257515D01*
X95044463Y-39127117D01*
X94984448Y-38982228D01*
X94953852Y-38828414D01*
X94953852Y-38671586D01*
X94984448Y-38517772D01*
X95044463Y-38372883D01*
X95131592Y-38242485D01*
X95242485Y-38131592D01*
X95372883Y-38044463D01*
X95517772Y-37984448D01*
X95671586Y-37953852D01*
X95828414Y-37953852D01*
X95982228Y-37984448D01*
G37*
G36*
X104732228Y-37734448D02*
G01*
X104877117Y-37794463D01*
X105007515Y-37881592D01*
X105118408Y-37992485D01*
X105205537Y-38122883D01*
X105265552Y-38267772D01*
X105296148Y-38421586D01*
X105296148Y-38578414D01*
X105265552Y-38732228D01*
X105205537Y-38877117D01*
X105118408Y-39007515D01*
X105007515Y-39118408D01*
X104877117Y-39205537D01*
X104732228Y-39265552D01*
X104578414Y-39296148D01*
X104421586Y-39296148D01*
X104267772Y-39265552D01*
X104122883Y-39205537D01*
X103992485Y-39118408D01*
X103881592Y-39007515D01*
X103794463Y-38877117D01*
X103734448Y-38732228D01*
X103703852Y-38578414D01*
X103703852Y-38421586D01*
X103734448Y-38267772D01*
X103794463Y-38122883D01*
X103881592Y-37992485D01*
X103992485Y-37881592D01*
X104122883Y-37794463D01*
X104267772Y-37734448D01*
X104421586Y-37703852D01*
X104578414Y-37703852D01*
X104732228Y-37734448D01*
G37*
G36*
X109732228Y-37734448D02*
G01*
X109877117Y-37794463D01*
X110007515Y-37881592D01*
X110118408Y-37992485D01*
X110205537Y-38122883D01*
X110265552Y-38267772D01*
X110296148Y-38421586D01*
X110296148Y-38578414D01*
X110265552Y-38732228D01*
X110205537Y-38877117D01*
X110118408Y-39007515D01*
X110007515Y-39118408D01*
X109877117Y-39205537D01*
X109732228Y-39265552D01*
X109578414Y-39296148D01*
X109421586Y-39296148D01*
X109267772Y-39265552D01*
X109122883Y-39205537D01*
X108992485Y-39118408D01*
X108881592Y-39007515D01*
X108794463Y-38877117D01*
X108734448Y-38732228D01*
X108703852Y-38578414D01*
X108703852Y-38421586D01*
X108734448Y-38267772D01*
X108794463Y-38122883D01*
X108881592Y-37992485D01*
X108992485Y-37881592D01*
X109122883Y-37794463D01*
X109267772Y-37734448D01*
X109421586Y-37703852D01*
X109578414Y-37703852D01*
X109732228Y-37734448D01*
G37*
G36*
X65247931Y-37341086D02*
G01*
X65298121Y-37346909D01*
X65315270Y-37354481D01*
X65338752Y-37359152D01*
X65363891Y-37375949D01*
X65383777Y-37384730D01*
X65397358Y-37398311D01*
X65419858Y-37413345D01*
X65434891Y-37435844D01*
X65448472Y-37449425D01*
X65457251Y-37469308D01*
X65474051Y-37494451D01*
X65478722Y-37517934D01*
X65486293Y-37535081D01*
X65492114Y-37585261D01*
X65493081Y-37590122D01*
X65493081Y-38890122D01*
X65492113Y-38894985D01*
X65486293Y-38945162D01*
X65478722Y-38962307D01*
X65474051Y-38985793D01*
X65457250Y-39010937D01*
X65448472Y-39030818D01*
X65434893Y-39044396D01*
X65419858Y-39066899D01*
X65397355Y-39081934D01*
X65383777Y-39095513D01*
X65363896Y-39104291D01*
X65338752Y-39121092D01*
X65315266Y-39125763D01*
X65298121Y-39133334D01*
X65247942Y-39139154D01*
X65243081Y-39140122D01*
X61973081Y-39140122D01*
X61968219Y-39139154D01*
X61918040Y-39133334D01*
X61900893Y-39125763D01*
X61877410Y-39121092D01*
X61852267Y-39104292D01*
X61832384Y-39095513D01*
X61818803Y-39081932D01*
X61796304Y-39066899D01*
X61781270Y-39044399D01*
X61767689Y-39030818D01*
X61758908Y-39010932D01*
X61742111Y-38985793D01*
X61737440Y-38962311D01*
X61729868Y-38945162D01*
X61724045Y-38894971D01*
X61723081Y-38890122D01*
X61723081Y-37590122D01*
X61724045Y-37585272D01*
X61729868Y-37535081D01*
X61737440Y-37517930D01*
X61742111Y-37494451D01*
X61758907Y-37469313D01*
X61767689Y-37449425D01*
X61781272Y-37435841D01*
X61796304Y-37413345D01*
X61818800Y-37398313D01*
X61832384Y-37384730D01*
X61852272Y-37375948D01*
X61877410Y-37359152D01*
X61900889Y-37354481D01*
X61918040Y-37346909D01*
X61968232Y-37341086D01*
X61973081Y-37340122D01*
X65243081Y-37340122D01*
X65247931Y-37341086D01*
G37*
G36*
X83027931Y-37341086D02*
G01*
X83078121Y-37346909D01*
X83095270Y-37354481D01*
X83118752Y-37359152D01*
X83143891Y-37375949D01*
X83163777Y-37384730D01*
X83177358Y-37398311D01*
X83199858Y-37413345D01*
X83214891Y-37435844D01*
X83228472Y-37449425D01*
X83237251Y-37469308D01*
X83254051Y-37494451D01*
X83258722Y-37517934D01*
X83266293Y-37535081D01*
X83272114Y-37585261D01*
X83273081Y-37590122D01*
X83273081Y-38890122D01*
X83272113Y-38894985D01*
X83266293Y-38945162D01*
X83258722Y-38962307D01*
X83254051Y-38985793D01*
X83237250Y-39010937D01*
X83228472Y-39030818D01*
X83214893Y-39044396D01*
X83199858Y-39066899D01*
X83177355Y-39081934D01*
X83163777Y-39095513D01*
X83143896Y-39104291D01*
X83118752Y-39121092D01*
X83095266Y-39125763D01*
X83078121Y-39133334D01*
X83027942Y-39139154D01*
X83023081Y-39140122D01*
X79753081Y-39140122D01*
X79748219Y-39139154D01*
X79698040Y-39133334D01*
X79680893Y-39125763D01*
X79657410Y-39121092D01*
X79632267Y-39104292D01*
X79612384Y-39095513D01*
X79598803Y-39081932D01*
X79576304Y-39066899D01*
X79561270Y-39044399D01*
X79547689Y-39030818D01*
X79538908Y-39010932D01*
X79522111Y-38985793D01*
X79517440Y-38962311D01*
X79509868Y-38945162D01*
X79504045Y-38894971D01*
X79503081Y-38890122D01*
X79503081Y-37590122D01*
X79504045Y-37585272D01*
X79509868Y-37535081D01*
X79517440Y-37517930D01*
X79522111Y-37494451D01*
X79538907Y-37469313D01*
X79547689Y-37449425D01*
X79561272Y-37435841D01*
X79576304Y-37413345D01*
X79598800Y-37398313D01*
X79612384Y-37384730D01*
X79632272Y-37375948D01*
X79657410Y-37359152D01*
X79680889Y-37354481D01*
X79698040Y-37346909D01*
X79748232Y-37341086D01*
X79753081Y-37340122D01*
X83023081Y-37340122D01*
X83027931Y-37341086D01*
G37*
G36*
X50074285Y-37143060D02*
G01*
X50255397Y-37218079D01*
X50418393Y-37326990D01*
X50557010Y-37465607D01*
X50665921Y-37628603D01*
X50740940Y-37809715D01*
X50779185Y-38001983D01*
X50779185Y-38198017D01*
X50740940Y-38390285D01*
X50665921Y-38571397D01*
X50557010Y-38734393D01*
X50418393Y-38873010D01*
X50255397Y-38981921D01*
X50074285Y-39056940D01*
X49882017Y-39095185D01*
X49685983Y-39095185D01*
X49493715Y-39056940D01*
X49312603Y-38981921D01*
X49149607Y-38873010D01*
X49010990Y-38734393D01*
X48902079Y-38571397D01*
X48827060Y-38390285D01*
X48788815Y-38198017D01*
X48788815Y-38001983D01*
X48827060Y-37809715D01*
X48902079Y-37628603D01*
X49010990Y-37465607D01*
X49149607Y-37326990D01*
X49312603Y-37218079D01*
X49493715Y-37143060D01*
X49685983Y-37104815D01*
X49882017Y-37104815D01*
X50074285Y-37143060D01*
G37*
G36*
X40459181Y-34488429D02*
G01*
X40711879Y-34556140D01*
X40953577Y-34656255D01*
X41180140Y-34787061D01*
X41387692Y-34946320D01*
X41572680Y-35131308D01*
X41731939Y-35338860D01*
X41862745Y-35565423D01*
X41962860Y-35807121D01*
X42030571Y-36059819D01*
X42064718Y-36319194D01*
X42064718Y-36580806D01*
X42030571Y-36840181D01*
X41962860Y-37092879D01*
X41862745Y-37334577D01*
X41731939Y-37561140D01*
X41572680Y-37768692D01*
X41387692Y-37953680D01*
X41180140Y-38112939D01*
X40953577Y-38243745D01*
X40711879Y-38343860D01*
X40459181Y-38411571D01*
X40199806Y-38445718D01*
X39938194Y-38445718D01*
X39678819Y-38411571D01*
X39426121Y-38343860D01*
X39184423Y-38243745D01*
X38957860Y-38112939D01*
X38750308Y-37953680D01*
X38565320Y-37768692D01*
X38406061Y-37561140D01*
X38275255Y-37334577D01*
X38175140Y-37092879D01*
X38107429Y-36840181D01*
X38073282Y-36580806D01*
X38073282Y-36319194D01*
X38107429Y-36059819D01*
X38175140Y-35807121D01*
X38275255Y-35565423D01*
X38406061Y-35338860D01*
X38565320Y-35131308D01*
X38750308Y-34946320D01*
X38957860Y-34787061D01*
X39184423Y-34656255D01*
X39426121Y-34556140D01*
X39678819Y-34488429D01*
X39938194Y-34454282D01*
X40199806Y-34454282D01*
X40459181Y-34488429D01*
G37*
G36*
X115943742Y-36691601D02*
G01*
X116097687Y-36755367D01*
X116236234Y-36847941D01*
X116354059Y-36965766D01*
X116446633Y-37104313D01*
X116510399Y-37258258D01*
X116542907Y-37421685D01*
X116542907Y-37588315D01*
X116510399Y-37751742D01*
X116446633Y-37905687D01*
X116354059Y-38044234D01*
X116236234Y-38162059D01*
X116097687Y-38254633D01*
X115943742Y-38318399D01*
X115780315Y-38350907D01*
X115613685Y-38350907D01*
X115450258Y-38318399D01*
X115296313Y-38254633D01*
X115157766Y-38162059D01*
X115039941Y-38044234D01*
X114947367Y-37905687D01*
X114883601Y-37751742D01*
X114851093Y-37588315D01*
X114851093Y-37421685D01*
X114883601Y-37258258D01*
X114947367Y-37104313D01*
X115039941Y-36965766D01*
X115157766Y-36847941D01*
X115296313Y-36755367D01*
X115450258Y-36691601D01*
X115613685Y-36659093D01*
X115780315Y-36659093D01*
X115943742Y-36691601D01*
G37*
G36*
X56524850Y-35195964D02*
G01*
X56575040Y-35201787D01*
X56592189Y-35209359D01*
X56615671Y-35214030D01*
X56640810Y-35230827D01*
X56660696Y-35239608D01*
X56674277Y-35253189D01*
X56696777Y-35268223D01*
X56711810Y-35290722D01*
X56725391Y-35304303D01*
X56734170Y-35324186D01*
X56750970Y-35349329D01*
X56755641Y-35372812D01*
X56763212Y-35389959D01*
X56769033Y-35440139D01*
X56770000Y-35445000D01*
X56770000Y-36945000D01*
X56769032Y-36949863D01*
X56763212Y-37000040D01*
X56755641Y-37017185D01*
X56750970Y-37040671D01*
X56734169Y-37065815D01*
X56725391Y-37085696D01*
X56711812Y-37099274D01*
X56696777Y-37121777D01*
X56674274Y-37136812D01*
X56660696Y-37150391D01*
X56640815Y-37159169D01*
X56615671Y-37175970D01*
X56592185Y-37180641D01*
X56575040Y-37188212D01*
X56524861Y-37194032D01*
X56520000Y-37195000D01*
X55320000Y-37195000D01*
X55315138Y-37194032D01*
X55264959Y-37188212D01*
X55247812Y-37180641D01*
X55224329Y-37175970D01*
X55199186Y-37159170D01*
X55179303Y-37150391D01*
X55165722Y-37136810D01*
X55143223Y-37121777D01*
X55128189Y-37099277D01*
X55114608Y-37085696D01*
X55105827Y-37065810D01*
X55089030Y-37040671D01*
X55084359Y-37017189D01*
X55076787Y-37000040D01*
X55070964Y-36949849D01*
X55070000Y-36945000D01*
X55070000Y-35445000D01*
X55070964Y-35440150D01*
X55076787Y-35389959D01*
X55084359Y-35372808D01*
X55089030Y-35349329D01*
X55105826Y-35324191D01*
X55114608Y-35304303D01*
X55128191Y-35290719D01*
X55143223Y-35268223D01*
X55165719Y-35253191D01*
X55179303Y-35239608D01*
X55199191Y-35230826D01*
X55224329Y-35214030D01*
X55247808Y-35209359D01*
X55264959Y-35201787D01*
X55315151Y-35195964D01*
X55320000Y-35195000D01*
X56520000Y-35195000D01*
X56524850Y-35195964D01*
G37*
G36*
X58666742Y-35231601D02*
G01*
X58820687Y-35295367D01*
X58959234Y-35387941D01*
X59077059Y-35505766D01*
X59169633Y-35644313D01*
X59233399Y-35798258D01*
X59265907Y-35961685D01*
X59270000Y-36045000D01*
X59270000Y-36345000D01*
X59265907Y-36428315D01*
X59233399Y-36591742D01*
X59169633Y-36745687D01*
X59077059Y-36884234D01*
X58959234Y-37002059D01*
X58820687Y-37094633D01*
X58666742Y-37158399D01*
X58503315Y-37190907D01*
X58336685Y-37190907D01*
X58173258Y-37158399D01*
X58019313Y-37094633D01*
X57880766Y-37002059D01*
X57762941Y-36884234D01*
X57670367Y-36745687D01*
X57606601Y-36591742D01*
X57574093Y-36428315D01*
X57570000Y-36345000D01*
X57570000Y-36045000D01*
X57574093Y-35961685D01*
X57606601Y-35798258D01*
X57670367Y-35644313D01*
X57762941Y-35505766D01*
X57880766Y-35387941D01*
X58019313Y-35295367D01*
X58173258Y-35231601D01*
X58336685Y-35199093D01*
X58503315Y-35199093D01*
X58666742Y-35231601D01*
G37*
G36*
X65247931Y-34801086D02*
G01*
X65298121Y-34806909D01*
X65315270Y-34814481D01*
X65338752Y-34819152D01*
X65363891Y-34835949D01*
X65383777Y-34844730D01*
X65397358Y-34858311D01*
X65419858Y-34873345D01*
X65434891Y-34895844D01*
X65448472Y-34909425D01*
X65457251Y-34929308D01*
X65474051Y-34954451D01*
X65478722Y-34977934D01*
X65486293Y-34995081D01*
X65492114Y-35045261D01*
X65493081Y-35050122D01*
X65493081Y-36350122D01*
X65492113Y-36354985D01*
X65486293Y-36405162D01*
X65478722Y-36422307D01*
X65474051Y-36445793D01*
X65457250Y-36470937D01*
X65448472Y-36490818D01*
X65434893Y-36504396D01*
X65419858Y-36526899D01*
X65397355Y-36541934D01*
X65383777Y-36555513D01*
X65363896Y-36564291D01*
X65338752Y-36581092D01*
X65315266Y-36585763D01*
X65298121Y-36593334D01*
X65247942Y-36599154D01*
X65243081Y-36600122D01*
X61973081Y-36600122D01*
X61968219Y-36599154D01*
X61918040Y-36593334D01*
X61900893Y-36585763D01*
X61877410Y-36581092D01*
X61852267Y-36564292D01*
X61832384Y-36555513D01*
X61818803Y-36541932D01*
X61796304Y-36526899D01*
X61781270Y-36504399D01*
X61767689Y-36490818D01*
X61758908Y-36470932D01*
X61742111Y-36445793D01*
X61737440Y-36422311D01*
X61729868Y-36405162D01*
X61724045Y-36354971D01*
X61723081Y-36350122D01*
X61723081Y-35050122D01*
X61724045Y-35045272D01*
X61729868Y-34995081D01*
X61737440Y-34977930D01*
X61742111Y-34954451D01*
X61758907Y-34929313D01*
X61767689Y-34909425D01*
X61781272Y-34895841D01*
X61796304Y-34873345D01*
X61818800Y-34858313D01*
X61832384Y-34844730D01*
X61852272Y-34835948D01*
X61877410Y-34819152D01*
X61900889Y-34814481D01*
X61918040Y-34806909D01*
X61968232Y-34801086D01*
X61973081Y-34800122D01*
X65243081Y-34800122D01*
X65247931Y-34801086D01*
G37*
G36*
X83027931Y-34801086D02*
G01*
X83078121Y-34806909D01*
X83095270Y-34814481D01*
X83118752Y-34819152D01*
X83143891Y-34835949D01*
X83163777Y-34844730D01*
X83177358Y-34858311D01*
X83199858Y-34873345D01*
X83214891Y-34895844D01*
X83228472Y-34909425D01*
X83237251Y-34929308D01*
X83254051Y-34954451D01*
X83258722Y-34977934D01*
X83266293Y-34995081D01*
X83272114Y-35045261D01*
X83273081Y-35050122D01*
X83273081Y-36350122D01*
X83272113Y-36354985D01*
X83266293Y-36405162D01*
X83258722Y-36422307D01*
X83254051Y-36445793D01*
X83237250Y-36470937D01*
X83228472Y-36490818D01*
X83214893Y-36504396D01*
X83199858Y-36526899D01*
X83177355Y-36541934D01*
X83163777Y-36555513D01*
X83143896Y-36564291D01*
X83118752Y-36581092D01*
X83095266Y-36585763D01*
X83078121Y-36593334D01*
X83027942Y-36599154D01*
X83023081Y-36600122D01*
X79753081Y-36600122D01*
X79748219Y-36599154D01*
X79698040Y-36593334D01*
X79680893Y-36585763D01*
X79657410Y-36581092D01*
X79632267Y-36564292D01*
X79612384Y-36555513D01*
X79598803Y-36541932D01*
X79576304Y-36526899D01*
X79561270Y-36504399D01*
X79547689Y-36490818D01*
X79538908Y-36470932D01*
X79522111Y-36445793D01*
X79517440Y-36422311D01*
X79509868Y-36405162D01*
X79504045Y-36354971D01*
X79503081Y-36350122D01*
X79503081Y-35050122D01*
X79504045Y-35045272D01*
X79509868Y-34995081D01*
X79517440Y-34977930D01*
X79522111Y-34954451D01*
X79538907Y-34929313D01*
X79547689Y-34909425D01*
X79561272Y-34895841D01*
X79576304Y-34873345D01*
X79598800Y-34858313D01*
X79612384Y-34844730D01*
X79632272Y-34835948D01*
X79657410Y-34819152D01*
X79680889Y-34814481D01*
X79698040Y-34806909D01*
X79748232Y-34801086D01*
X79753081Y-34800122D01*
X83023081Y-34800122D01*
X83027931Y-34801086D01*
G37*
G36*
X50074285Y-34603060D02*
G01*
X50255397Y-34678079D01*
X50418393Y-34786990D01*
X50557010Y-34925607D01*
X50665921Y-35088603D01*
X50740940Y-35269715D01*
X50779185Y-35461983D01*
X50779185Y-35658017D01*
X50740940Y-35850285D01*
X50665921Y-36031397D01*
X50557010Y-36194393D01*
X50418393Y-36333010D01*
X50255397Y-36441921D01*
X50074285Y-36516940D01*
X49882017Y-36555185D01*
X49685983Y-36555185D01*
X49493715Y-36516940D01*
X49312603Y-36441921D01*
X49149607Y-36333010D01*
X49010990Y-36194393D01*
X48902079Y-36031397D01*
X48827060Y-35850285D01*
X48788815Y-35658017D01*
X48788815Y-35461983D01*
X48827060Y-35269715D01*
X48902079Y-35088603D01*
X49010990Y-34925607D01*
X49149607Y-34786990D01*
X49312603Y-34678079D01*
X49493715Y-34603060D01*
X49685983Y-34564815D01*
X49882017Y-34564815D01*
X50074285Y-34603060D01*
G37*
G36*
X103356228Y-34326448D02*
G01*
X103501117Y-34386463D01*
X103631515Y-34473592D01*
X103742408Y-34584485D01*
X103829537Y-34714883D01*
X103889552Y-34859772D01*
X103920148Y-35013586D01*
X103920148Y-35170414D01*
X103889552Y-35324228D01*
X103829537Y-35469117D01*
X103742408Y-35599515D01*
X103631515Y-35710408D01*
X103501117Y-35797537D01*
X103356228Y-35857552D01*
X103202414Y-35888148D01*
X103045586Y-35888148D01*
X102891772Y-35857552D01*
X102746883Y-35797537D01*
X102616485Y-35710408D01*
X102505592Y-35599515D01*
X102418463Y-35469117D01*
X102358448Y-35324228D01*
X102327852Y-35170414D01*
X102327852Y-35013586D01*
X102358448Y-34859772D01*
X102418463Y-34714883D01*
X102505592Y-34584485D01*
X102616485Y-34473592D01*
X102746883Y-34386463D01*
X102891772Y-34326448D01*
X103045586Y-34295852D01*
X103202414Y-34295852D01*
X103356228Y-34326448D01*
G37*
G36*
X110976228Y-34326448D02*
G01*
X111121117Y-34386463D01*
X111251515Y-34473592D01*
X111362408Y-34584485D01*
X111449537Y-34714883D01*
X111509552Y-34859772D01*
X111540148Y-35013586D01*
X111540148Y-35170414D01*
X111509552Y-35324228D01*
X111449537Y-35469117D01*
X111362408Y-35599515D01*
X111251515Y-35710408D01*
X111121117Y-35797537D01*
X110976228Y-35857552D01*
X110822414Y-35888148D01*
X110665586Y-35888148D01*
X110511772Y-35857552D01*
X110366883Y-35797537D01*
X110236485Y-35710408D01*
X110125592Y-35599515D01*
X110038463Y-35469117D01*
X109978448Y-35324228D01*
X109947852Y-35170414D01*
X109947852Y-35013586D01*
X109978448Y-34859772D01*
X110038463Y-34714883D01*
X110125592Y-34584485D01*
X110236485Y-34473592D01*
X110366883Y-34386463D01*
X110511772Y-34326448D01*
X110665586Y-34295852D01*
X110822414Y-34295852D01*
X110976228Y-34326448D01*
G37*
G36*
X116547000Y-35815000D02*
G01*
X114847000Y-35815000D01*
X114847000Y-34115000D01*
X116547000Y-34115000D01*
X116547000Y-35815000D01*
G37*
M02*
