M48
; DRILL file {KiCad 9.0.6} date 2025-11-24T14:35:41-0800
; FORMAT={-:-/ absolute / metric / decimal}
; #@! TF.CreationDate,2025-11-24T14:35:41-08:00
; #@! TF.GenerationSoftware,Kicad,Pcbnew,9.0.6
; #@! TF.FileFunction,Plated,1,4,PTH
FMAT,2
METRIC
; #@! TA.AperFunction,Plated,PTH,ViaDrill
T1C0.300
; #@! TA.AperFunction,Plated,PTH,ComponentDrill
T2C0.750
; #@! TA.AperFunction,Plated,PTH,ComponentDrill
T3C0.800
; #@! TA.AperFunction,Plated,PTH,ComponentDrill
T4C0.950
; #@! TA.AperFunction,Plated,PTH,ComponentDrill
T5C1.000
%
G90
G05
T1
X40.373Y-30.988
X40.373Y-38.1
X48.502Y-33.02
X48.502Y-40.132
X57.137Y-26.416
X61.709Y-27.94
X61.709Y-28.956
X63.995Y-41.402
X72.377Y-40.64
X75.933Y-30.988
X84.569Y-36.576
X86.093Y-42.672
T2
X80.802Y-42.016
X82.072Y-42.016
X83.342Y-42.016
T3
X43.247Y-42.672
X44.977Y-36.576
X46.977Y-36.576
X48.247Y-42.672
X74.156Y-28.067
X74.156Y-31.115
X74.156Y-34.29
X74.156Y-37.465
X81.775Y-28.067
X81.775Y-31.115
X81.775Y-34.29
X81.775Y-37.465
X87.617Y-28.504
X87.617Y-32.004
X91.681Y-24.892
X92.549Y-34.59
X94.301Y-28.34
X97.549Y-34.59
X99.301Y-24.892
X99.301Y-28.34
T4
X102.799Y-37.84
X102.799Y-40.34
X102.799Y-42.84
T5
X37.834Y-25.4
X37.834Y-27.94
X37.834Y-30.48
X37.834Y-33.02
X37.834Y-35.56
X37.834Y-38.1
X37.834Y-40.64
X37.834Y-43.18
X43.969Y-26.035
X46.469Y-26.035
X95.999Y-38.608
X95.999Y-41.148
X95.999Y-43.688
X103.746Y-24.805
X103.746Y-27.345
X103.746Y-29.885
M30
