M48
; DRILL file {KiCad 9.0.6} date 2025-11-20T15:50:19-0800
; FORMAT={-:-/ absolute / metric / decimal}
; #@! TF.CreationDate,2025-11-20T15:50:19-08:00
; #@! TF.GenerationSoftware,Kicad,Pcbnew,9.0.6
; #@! TF.FileFunction,Plated,1,4,PTH
FMAT,2
METRIC
; #@! TA.AperFunction,Plated,PTH,ViaDrill
T1C0.300
; #@! TA.AperFunction,Plated,PTH,ComponentDrill
T2C0.750
; #@! TA.AperFunction,Plated,PTH,ComponentDrill
T3C0.800
; #@! TA.AperFunction,Plated,PTH,ComponentDrill
T4C0.950
; #@! TA.AperFunction,Plated,PTH,ComponentDrill
T5C1.000
%
G90
G05
T1
X73.66Y-38.1
X75.946Y-44.45
X75.946Y-51.562
X78.105Y-34.29
X96.52Y-46.736
T2
X92.753Y-52.176
X94.023Y-52.176
X95.293Y-52.176
T3
X55.198Y-52.832
X56.388Y-47.752
X58.388Y-47.752
X60.198Y-52.832
X86.106Y-44.378
X86.106Y-47.625
X93.726Y-44.378
X93.726Y-47.625
X95.75Y-38.75
X99.25Y-38.75
X103.124Y-35.092
X104.5Y-38.5
X104.5Y-44.75
X109.5Y-38.5
X109.5Y-44.75
X110.744Y-35.092
T4
X114.75Y-48.0
X114.75Y-50.5
X114.75Y-53.0
T5
X49.784Y-35.56
X49.784Y-38.1
X49.784Y-40.64
X49.784Y-43.18
X49.784Y-45.72
X49.784Y-48.26
X49.784Y-50.8
X49.784Y-53.34
X55.92Y-36.195
X58.42Y-36.195
X107.95Y-48.768
X107.95Y-51.308
X107.95Y-53.848
X115.697Y-34.965
X115.697Y-37.505
X115.697Y-40.045
M30
