M48
; DRILL file {KiCad 9.0.6} date 2025-11-23T23:53:06-0800
; FORMAT={-:-/ absolute / metric / decimal}
; #@! TF.CreationDate,2025-11-23T23:53:06-08:00
; #@! TF.GenerationSoftware,Kicad,Pcbnew,9.0.6
; #@! TF.FileFunction,Plated,1,4,PTH
FMAT,2
METRIC
; #@! TA.AperFunction,Plated,PTH,ViaDrill
T1C0.300
; #@! TA.AperFunction,Plated,PTH,ComponentDrill
T2C0.750
; #@! TA.AperFunction,Plated,PTH,ComponentDrill
T3C0.800
; #@! TA.AperFunction,Plated,PTH,ComponentDrill
T4C0.950
; #@! TA.AperFunction,Plated,PTH,ComponentDrill
T5C1.000
%
G90
G05
T1
X52.324Y-41.148
X52.324Y-48.26
X60.452Y-43.18
X60.452Y-50.292
X69.088Y-36.576
X73.66Y-38.1
X73.66Y-39.116
X75.946Y-51.562
X84.328Y-50.8
X87.884Y-41.148
X96.52Y-46.736
X98.044Y-52.832
T2
X92.753Y-52.176
X94.023Y-52.176
X95.293Y-52.176
T3
X55.198Y-52.832
X56.928Y-46.736
X58.928Y-46.736
X60.198Y-52.832
X86.106Y-38.227
X86.106Y-41.275
X86.106Y-44.45
X86.106Y-47.625
X93.726Y-38.227
X93.726Y-41.275
X93.726Y-44.45
X93.726Y-47.625
X99.568Y-38.664
X99.568Y-42.164
X103.632Y-35.052
X104.5Y-44.75
X106.252Y-38.5
X109.5Y-44.75
X111.252Y-35.052
X111.252Y-38.5
T4
X114.75Y-48.0
X114.75Y-50.5
X114.75Y-53.0
T5
X49.784Y-35.56
X49.784Y-38.1
X49.784Y-40.64
X49.784Y-43.18
X49.784Y-45.72
X49.784Y-48.26
X49.784Y-50.8
X49.784Y-53.34
X55.92Y-36.195
X58.42Y-36.195
X107.95Y-48.768
X107.95Y-51.308
X107.95Y-53.848
X115.697Y-34.965
X115.697Y-37.505
X115.697Y-40.045
M30
