%TF.GenerationSoftware,KiCad,Pcbnew,9.0.6*%
%TF.CreationDate,2025-11-20T15:50:17-08:00*%
%TF.ProjectId,schematic,73636865-6d61-4746-9963-2e6b69636164,rev?*%
%TF.SameCoordinates,Original*%
%TF.FileFunction,Copper,L2,Inr*%
%TF.FilePolarity,Positive*%
%FSLAX46Y46*%
G04 Gerber Fmt 4.6, Leading zero omitted, Abs format (unit mm)*
G04 Created by KiCad (PCBNEW 9.0.6) date 2025-11-20 15:50:17*
%MOMM*%
%LPD*%
G01*
G04 APERTURE LIST*
G04 Aperture macros list*
%AMRoundRect*
0 Rectangle with rounded corners*
0 $1 Rounding radius*
0 $2 $3 $4 $5 $6 $7 $8 $9 X,Y pos of 4 corners*
0 Add a 4 corners polygon primitive as box body*
4,1,4,$2,$3,$4,$5,$6,$7,$8,$9,$2,$3,0*
0 Add four circle primitives for the rounded corners*
1,1,$1+$1,$2,$3*
1,1,$1+$1,$4,$5*
1,1,$1+$1,$6,$7*
1,1,$1+$1,$8,$9*
0 Add four rect primitives between the rounded corners*
20,1,$1+$1,$2,$3,$4,$5,0*
20,1,$1+$1,$4,$5,$6,$7,0*
20,1,$1+$1,$6,$7,$8,$9,0*
20,1,$1+$1,$8,$9,$2,$3,0*%
G04 Aperture macros list end*
%TA.AperFunction,ComponentPad*%
%ADD10O,1.950000X1.700000*%
%TD*%
%TA.AperFunction,ComponentPad*%
%ADD11RoundRect,0.250000X-0.725000X0.600000X-0.725000X-0.600000X0.725000X-0.600000X0.725000X0.600000X0*%
%TD*%
%TA.AperFunction,ComponentPad*%
%ADD12C,2.000000*%
%TD*%
%TA.AperFunction,ComponentPad*%
%ADD13RoundRect,0.250000X0.550000X0.550000X-0.550000X0.550000X-0.550000X-0.550000X0.550000X-0.550000X0*%
%TD*%
%TA.AperFunction,ComponentPad*%
%ADD14C,1.600000*%
%TD*%
%TA.AperFunction,ComponentPad*%
%ADD15O,1.700000X2.000000*%
%TD*%
%TA.AperFunction,ComponentPad*%
%ADD16RoundRect,0.250000X-0.600000X-0.750000X0.600000X-0.750000X0.600000X0.750000X-0.600000X0.750000X0*%
%TD*%
%TA.AperFunction,ComponentPad*%
%ADD17R,1.050000X1.500000*%
%TD*%
%TA.AperFunction,ComponentPad*%
%ADD18O,1.050000X1.500000*%
%TD*%
%TA.AperFunction,ComponentPad*%
%ADD19R,1.700000X1.700000*%
%TD*%
%TA.AperFunction,ComponentPad*%
%ADD20C,1.700000*%
%TD*%
%TA.AperFunction,ViaPad*%
%ADD21C,0.600000*%
%TD*%
G04 APERTURE END LIST*
D10*
%TO.N,MIC*%
%TO.C,U2*%
X114750000Y-53000000D03*
%TO.N,GND*%
X114750000Y-50500000D03*
D11*
%TO.N,Net-(U2-VCC)*%
X114750000Y-48000000D03*
%TD*%
D12*
%TO.N,GND*%
%TO.C,J1*%
X49784000Y-35560000D03*
%TO.N,Net-(J2-Pin_1)*%
X49784000Y-38100000D03*
%TO.N,CC1*%
X49784000Y-43180000D03*
%TO.N,unconnected-(J1-D+-PadA6)*%
X49784000Y-48260000D03*
%TO.N,unconnected-(J1-D--PadA7)*%
X49784000Y-45720000D03*
%TO.N,unconnected-(J1-SBU1-PadA8)*%
X49784000Y-50800000D03*
%TO.N,CC2*%
X49784000Y-53340000D03*
%TO.N,unconnected-(J1-SBU2-PadB8)*%
X49784000Y-40640000D03*
%TD*%
D13*
%TO.N,+5V*%
%TO.C,C1*%
X58388000Y-47752000D03*
D14*
%TO.N,GND*%
X56388000Y-47752000D03*
%TD*%
%TO.N,+5V*%
%TO.C,C2*%
X60198000Y-52832000D03*
%TO.N,GND*%
X55198000Y-52832000D03*
%TD*%
D15*
%TO.N,+5V*%
%TO.C,J2*%
X58420000Y-36195000D03*
D16*
%TO.N,Net-(J2-Pin_1)*%
X55920000Y-36195000D03*
%TD*%
D14*
%TO.N,+5VD*%
%TO.C,C4*%
X104500000Y-38500000D03*
%TO.N,GND*%
X109500000Y-38500000D03*
%TD*%
%TO.N,LED SW*%
%TO.C,R3*%
X86106000Y-44378188D03*
%TO.N,Net-(Q2-B)*%
X93726000Y-44378188D03*
%TD*%
%TO.N,+5V*%
%TO.C,R1*%
X86106000Y-47625000D03*
%TO.N,Net-(Q1-G)*%
X93726000Y-47625000D03*
%TD*%
D17*
%TO.N,GND*%
%TO.C,Q2*%
X92752813Y-52176000D03*
D18*
%TO.N,Net-(Q2-B)*%
X94022813Y-52176000D03*
%TO.N,Net-(Q1-G)*%
X95292813Y-52176000D03*
%TD*%
D13*
%TO.N,+5VD*%
%TO.C,C3*%
X99250000Y-38750000D03*
D14*
%TO.N,GND*%
X95750000Y-38750000D03*
%TD*%
%TO.N,Net-(U2-VCC)*%
%TO.C,C5*%
X109500000Y-44750000D03*
%TO.N,GND*%
X104500000Y-44750000D03*
%TD*%
D19*
%TO.N,GND*%
%TO.C,U5*%
X115697000Y-34965000D03*
D20*
%TO.N,Net-(U5-DIN)*%
X115697000Y-37505000D03*
%TO.N,+5VD*%
X115697000Y-40045000D03*
%TD*%
D19*
%TO.N,GND*%
%TO.C,U6*%
X107950000Y-48768000D03*
D20*
%TO.N,Net-(U2-VCC)*%
X107950000Y-51308000D03*
%TO.N,+5V*%
X107950000Y-53848000D03*
%TD*%
D14*
%TO.N,LED D*%
%TO.C,R2*%
X103124000Y-35092000D03*
%TO.N,Net-(U5-DIN)*%
X110744000Y-35092000D03*
%TD*%
D21*
%TO.N,Net-(Q2-B)*%
X96520000Y-46736000D03*
%TO.N,+5V*%
X75946000Y-51562000D03*
%TO.N,LED D*%
X78105000Y-34290000D03*
X73660000Y-38100000D03*
%TO.N,LED SW*%
X75946000Y-44450000D03*
%TD*%
M02*
