%TF.GenerationSoftware,KiCad,Pcbnew,9.0.6*%
%TF.CreationDate,2025-11-23T23:53:04-08:00*%
%TF.ProjectId,schematic,73636865-6d61-4746-9963-2e6b69636164,rev?*%
%TF.SameCoordinates,Original*%
%TF.FileFunction,Soldermask,Bot*%
%TF.FilePolarity,Negative*%
%FSLAX46Y46*%
G04 Gerber Fmt 4.6, Leading zero omitted, Abs format (unit mm)*
G04 Created by KiCad (PCBNEW 9.0.6) date 2025-11-23 23:53:04*
%MOMM*%
%LPD*%
G01*
G04 APERTURE LIST*
G04 APERTURE END LIST*
G36*
X108196742Y-53034601D02*
G01*
X108350687Y-53098367D01*
X108489234Y-53190941D01*
X108607059Y-53308766D01*
X108699633Y-53447313D01*
X108763399Y-53601258D01*
X108795907Y-53764685D01*
X108795907Y-53931315D01*
X108763399Y-54094742D01*
X108699633Y-54248687D01*
X108607059Y-54387234D01*
X108489234Y-54505059D01*
X108350687Y-54597633D01*
X108196742Y-54661399D01*
X108033315Y-54693907D01*
X107866685Y-54693907D01*
X107703258Y-54661399D01*
X107549313Y-54597633D01*
X107410766Y-54505059D01*
X107292941Y-54387234D01*
X107200367Y-54248687D01*
X107136601Y-54094742D01*
X107104093Y-53931315D01*
X107104093Y-53764685D01*
X107136601Y-53601258D01*
X107200367Y-53447313D01*
X107292941Y-53308766D01*
X107410766Y-53190941D01*
X107549313Y-53098367D01*
X107703258Y-53034601D01*
X107866685Y-53002093D01*
X108033315Y-53002093D01*
X108196742Y-53034601D01*
G37*
G36*
X50074285Y-52383060D02*
G01*
X50255397Y-52458079D01*
X50418393Y-52566990D01*
X50557010Y-52705607D01*
X50665921Y-52868603D01*
X50740940Y-53049715D01*
X50779185Y-53241983D01*
X50779185Y-53438017D01*
X50740940Y-53630285D01*
X50665921Y-53811397D01*
X50557010Y-53974393D01*
X50418393Y-54113010D01*
X50255397Y-54221921D01*
X50074285Y-54296940D01*
X49882017Y-54335185D01*
X49685983Y-54335185D01*
X49493715Y-54296940D01*
X49312603Y-54221921D01*
X49149607Y-54113010D01*
X49010990Y-53974393D01*
X48902079Y-53811397D01*
X48827060Y-53630285D01*
X48788815Y-53438017D01*
X48788815Y-53241983D01*
X48827060Y-53049715D01*
X48902079Y-52868603D01*
X49010990Y-52705607D01*
X49149607Y-52566990D01*
X49312603Y-52458079D01*
X49493715Y-52383060D01*
X49685983Y-52344815D01*
X49882017Y-52344815D01*
X50074285Y-52383060D01*
G37*
G36*
X114958315Y-52154093D02*
G01*
X115121742Y-52186601D01*
X115275687Y-52250367D01*
X115414234Y-52342941D01*
X115532059Y-52460766D01*
X115624633Y-52599313D01*
X115688399Y-52753258D01*
X115720907Y-52916685D01*
X115720907Y-53083315D01*
X115688399Y-53246742D01*
X115624633Y-53400687D01*
X115532059Y-53539234D01*
X115414234Y-53657059D01*
X115275687Y-53749633D01*
X115121742Y-53813399D01*
X114958315Y-53845907D01*
X114875000Y-53850000D01*
X114873522Y-53850000D01*
X114626478Y-53850000D01*
X114625000Y-53850000D01*
X114541685Y-53845907D01*
X114378258Y-53813399D01*
X114224313Y-53749633D01*
X114085766Y-53657059D01*
X113967941Y-53539234D01*
X113875367Y-53400687D01*
X113811601Y-53246742D01*
X113779093Y-53083315D01*
X113779093Y-52916685D01*
X113811601Y-52753258D01*
X113875367Y-52599313D01*
X113967941Y-52460766D01*
X114085766Y-52342941D01*
X114224313Y-52250367D01*
X114378258Y-52186601D01*
X114541685Y-52154093D01*
X114625000Y-52150000D01*
X114875000Y-52150000D01*
X114958315Y-52154093D01*
G37*
G36*
X55430228Y-52066448D02*
G01*
X55575117Y-52126463D01*
X55705515Y-52213592D01*
X55816408Y-52324485D01*
X55903537Y-52454883D01*
X55963552Y-52599772D01*
X55994148Y-52753586D01*
X55994148Y-52910414D01*
X55963552Y-53064228D01*
X55903537Y-53209117D01*
X55816408Y-53339515D01*
X55705515Y-53450408D01*
X55575117Y-53537537D01*
X55430228Y-53597552D01*
X55276414Y-53628148D01*
X55119586Y-53628148D01*
X54965772Y-53597552D01*
X54820883Y-53537537D01*
X54690485Y-53450408D01*
X54579592Y-53339515D01*
X54492463Y-53209117D01*
X54432448Y-53064228D01*
X54401852Y-52910414D01*
X54401852Y-52753586D01*
X54432448Y-52599772D01*
X54492463Y-52454883D01*
X54579592Y-52324485D01*
X54690485Y-52213592D01*
X54820883Y-52126463D01*
X54965772Y-52066448D01*
X55119586Y-52035852D01*
X55276414Y-52035852D01*
X55430228Y-52066448D01*
G37*
G36*
X60430228Y-52066448D02*
G01*
X60575117Y-52126463D01*
X60705515Y-52213592D01*
X60816408Y-52324485D01*
X60903537Y-52454883D01*
X60963552Y-52599772D01*
X60994148Y-52753586D01*
X60994148Y-52910414D01*
X60963552Y-53064228D01*
X60903537Y-53209117D01*
X60816408Y-53339515D01*
X60705515Y-53450408D01*
X60575117Y-53537537D01*
X60430228Y-53597552D01*
X60276414Y-53628148D01*
X60119586Y-53628148D01*
X59965772Y-53597552D01*
X59820883Y-53537537D01*
X59690485Y-53450408D01*
X59579592Y-53339515D01*
X59492463Y-53209117D01*
X59432448Y-53064228D01*
X59401852Y-52910414D01*
X59401852Y-52753586D01*
X59432448Y-52599772D01*
X59492463Y-52454883D01*
X59579592Y-52324485D01*
X59690485Y-52213592D01*
X59820883Y-52126463D01*
X59965772Y-52066448D01*
X60119586Y-52035852D01*
X60276414Y-52035852D01*
X60430228Y-52066448D01*
G37*
G36*
X93277813Y-52926000D02*
G01*
X92227813Y-52926000D01*
X92227813Y-51426000D01*
X93277813Y-51426000D01*
X93277813Y-52926000D01*
G37*
G36*
X94223722Y-51465963D02*
G01*
X94342413Y-51534489D01*
X94439324Y-51631400D01*
X94507850Y-51750091D01*
X94543322Y-51882474D01*
X94547813Y-51951000D01*
X94547813Y-52401000D01*
X94543322Y-52469526D01*
X94507850Y-52601909D01*
X94439324Y-52720600D01*
X94342413Y-52817511D01*
X94223722Y-52886037D01*
X94091339Y-52921509D01*
X93954287Y-52921509D01*
X93821904Y-52886037D01*
X93703213Y-52817511D01*
X93606302Y-52720600D01*
X93537776Y-52601909D01*
X93502304Y-52469526D01*
X93497813Y-52401000D01*
X93497813Y-51951000D01*
X93502304Y-51882474D01*
X93537776Y-51750091D01*
X93606302Y-51631400D01*
X93703213Y-51534489D01*
X93821904Y-51465963D01*
X93954287Y-51430491D01*
X94091339Y-51430491D01*
X94223722Y-51465963D01*
G37*
G36*
X95493722Y-51465963D02*
G01*
X95612413Y-51534489D01*
X95709324Y-51631400D01*
X95777850Y-51750091D01*
X95813322Y-51882474D01*
X95817813Y-51951000D01*
X95817813Y-52401000D01*
X95813322Y-52469526D01*
X95777850Y-52601909D01*
X95709324Y-52720600D01*
X95612413Y-52817511D01*
X95493722Y-52886037D01*
X95361339Y-52921509D01*
X95224287Y-52921509D01*
X95091904Y-52886037D01*
X94973213Y-52817511D01*
X94876302Y-52720600D01*
X94807776Y-52601909D01*
X94772304Y-52469526D01*
X94767813Y-52401000D01*
X94767813Y-51951000D01*
X94772304Y-51882474D01*
X94807776Y-51750091D01*
X94876302Y-51631400D01*
X94973213Y-51534489D01*
X95091904Y-51465963D01*
X95224287Y-51430491D01*
X95361339Y-51430491D01*
X95493722Y-51465963D01*
G37*
G36*
X108196742Y-50494601D02*
G01*
X108350687Y-50558367D01*
X108489234Y-50650941D01*
X108607059Y-50768766D01*
X108699633Y-50907313D01*
X108763399Y-51061258D01*
X108795907Y-51224685D01*
X108795907Y-51391315D01*
X108763399Y-51554742D01*
X108699633Y-51708687D01*
X108607059Y-51847234D01*
X108489234Y-51965059D01*
X108350687Y-52057633D01*
X108196742Y-52121399D01*
X108033315Y-52153907D01*
X107866685Y-52153907D01*
X107703258Y-52121399D01*
X107549313Y-52057633D01*
X107410766Y-51965059D01*
X107292941Y-51847234D01*
X107200367Y-51708687D01*
X107136601Y-51554742D01*
X107104093Y-51391315D01*
X107104093Y-51224685D01*
X107136601Y-51061258D01*
X107200367Y-50907313D01*
X107292941Y-50768766D01*
X107410766Y-50650941D01*
X107549313Y-50558367D01*
X107703258Y-50494601D01*
X107866685Y-50462093D01*
X108033315Y-50462093D01*
X108196742Y-50494601D01*
G37*
G36*
X50074285Y-49843060D02*
G01*
X50255397Y-49918079D01*
X50418393Y-50026990D01*
X50557010Y-50165607D01*
X50665921Y-50328603D01*
X50740940Y-50509715D01*
X50779185Y-50701983D01*
X50779185Y-50898017D01*
X50740940Y-51090285D01*
X50665921Y-51271397D01*
X50557010Y-51434393D01*
X50418393Y-51573010D01*
X50255397Y-51681921D01*
X50074285Y-51756940D01*
X49882017Y-51795185D01*
X49685983Y-51795185D01*
X49493715Y-51756940D01*
X49312603Y-51681921D01*
X49149607Y-51573010D01*
X49010990Y-51434393D01*
X48902079Y-51271397D01*
X48827060Y-51090285D01*
X48788815Y-50898017D01*
X48788815Y-50701983D01*
X48827060Y-50509715D01*
X48902079Y-50328603D01*
X49010990Y-50165607D01*
X49149607Y-50026990D01*
X49312603Y-49918079D01*
X49493715Y-49843060D01*
X49685983Y-49804815D01*
X49882017Y-49804815D01*
X50074285Y-49843060D01*
G37*
G36*
X114958315Y-49654093D02*
G01*
X115121742Y-49686601D01*
X115275687Y-49750367D01*
X115414234Y-49842941D01*
X115532059Y-49960766D01*
X115624633Y-50099313D01*
X115688399Y-50253258D01*
X115720907Y-50416685D01*
X115720907Y-50583315D01*
X115688399Y-50746742D01*
X115624633Y-50900687D01*
X115532059Y-51039234D01*
X115414234Y-51157059D01*
X115275687Y-51249633D01*
X115121742Y-51313399D01*
X114958315Y-51345907D01*
X114875000Y-51350000D01*
X114873522Y-51350000D01*
X114626478Y-51350000D01*
X114625000Y-51350000D01*
X114541685Y-51345907D01*
X114378258Y-51313399D01*
X114224313Y-51249633D01*
X114085766Y-51157059D01*
X113967941Y-51039234D01*
X113875367Y-50900687D01*
X113811601Y-50746742D01*
X113779093Y-50583315D01*
X113779093Y-50416685D01*
X113811601Y-50253258D01*
X113875367Y-50099313D01*
X113967941Y-49960766D01*
X114085766Y-49842941D01*
X114224313Y-49750367D01*
X114378258Y-49686601D01*
X114541685Y-49654093D01*
X114625000Y-49650000D01*
X114875000Y-49650000D01*
X114958315Y-49654093D01*
G37*
G36*
X108800000Y-49618000D02*
G01*
X107100000Y-49618000D01*
X107100000Y-47918000D01*
X108800000Y-47918000D01*
X108800000Y-49618000D01*
G37*
G36*
X50074285Y-47303060D02*
G01*
X50255397Y-47378079D01*
X50418393Y-47486990D01*
X50557010Y-47625607D01*
X50665921Y-47788603D01*
X50740940Y-47969715D01*
X50779185Y-48161983D01*
X50779185Y-48358017D01*
X50740940Y-48550285D01*
X50665921Y-48731397D01*
X50557010Y-48894393D01*
X50418393Y-49033010D01*
X50255397Y-49141921D01*
X50074285Y-49216940D01*
X49882017Y-49255185D01*
X49685983Y-49255185D01*
X49493715Y-49216940D01*
X49312603Y-49141921D01*
X49149607Y-49033010D01*
X49010990Y-48894393D01*
X48902079Y-48731397D01*
X48827060Y-48550285D01*
X48788815Y-48358017D01*
X48788815Y-48161983D01*
X48827060Y-47969715D01*
X48902079Y-47788603D01*
X49010990Y-47625607D01*
X49149607Y-47486990D01*
X49312603Y-47378079D01*
X49493715Y-47303060D01*
X49685983Y-47264815D01*
X49882017Y-47264815D01*
X50074285Y-47303060D01*
G37*
G36*
X115479850Y-47150964D02*
G01*
X115530040Y-47156787D01*
X115547189Y-47164359D01*
X115570671Y-47169030D01*
X115595810Y-47185827D01*
X115615696Y-47194608D01*
X115629277Y-47208189D01*
X115651777Y-47223223D01*
X115666810Y-47245722D01*
X115680391Y-47259303D01*
X115689170Y-47279186D01*
X115705970Y-47304329D01*
X115710641Y-47327812D01*
X115718212Y-47344959D01*
X115724033Y-47395139D01*
X115725000Y-47400000D01*
X115725000Y-48600000D01*
X115724032Y-48604863D01*
X115718212Y-48655040D01*
X115710641Y-48672185D01*
X115705970Y-48695671D01*
X115689169Y-48720815D01*
X115680391Y-48740696D01*
X115666812Y-48754274D01*
X115651777Y-48776777D01*
X115629274Y-48791812D01*
X115615696Y-48805391D01*
X115595815Y-48814169D01*
X115570671Y-48830970D01*
X115547185Y-48835641D01*
X115530040Y-48843212D01*
X115479861Y-48849032D01*
X115475000Y-48850000D01*
X114025000Y-48850000D01*
X114020138Y-48849032D01*
X113969959Y-48843212D01*
X113952812Y-48835641D01*
X113929329Y-48830970D01*
X113904186Y-48814170D01*
X113884303Y-48805391D01*
X113870722Y-48791810D01*
X113848223Y-48776777D01*
X113833189Y-48754277D01*
X113819608Y-48740696D01*
X113810827Y-48720810D01*
X113794030Y-48695671D01*
X113789359Y-48672189D01*
X113781787Y-48655040D01*
X113775964Y-48604849D01*
X113775000Y-48600000D01*
X113775000Y-47400000D01*
X113775964Y-47395150D01*
X113781787Y-47344959D01*
X113789359Y-47327808D01*
X113794030Y-47304329D01*
X113810826Y-47279191D01*
X113819608Y-47259303D01*
X113833191Y-47245719D01*
X113848223Y-47223223D01*
X113870719Y-47208191D01*
X113884303Y-47194608D01*
X113904191Y-47185826D01*
X113929329Y-47169030D01*
X113952808Y-47164359D01*
X113969959Y-47156787D01*
X114020151Y-47150964D01*
X114025000Y-47150000D01*
X115475000Y-47150000D01*
X115479850Y-47150964D01*
G37*
G36*
X86338228Y-46859448D02*
G01*
X86483117Y-46919463D01*
X86613515Y-47006592D01*
X86724408Y-47117485D01*
X86811537Y-47247883D01*
X86871552Y-47392772D01*
X86902148Y-47546586D01*
X86902148Y-47703414D01*
X86871552Y-47857228D01*
X86811537Y-48002117D01*
X86724408Y-48132515D01*
X86613515Y-48243408D01*
X86483117Y-48330537D01*
X86338228Y-48390552D01*
X86184414Y-48421148D01*
X86027586Y-48421148D01*
X85873772Y-48390552D01*
X85728883Y-48330537D01*
X85598485Y-48243408D01*
X85487592Y-48132515D01*
X85400463Y-48002117D01*
X85340448Y-47857228D01*
X85309852Y-47703414D01*
X85309852Y-47546586D01*
X85340448Y-47392772D01*
X85400463Y-47247883D01*
X85487592Y-47117485D01*
X85598485Y-47006592D01*
X85728883Y-46919463D01*
X85873772Y-46859448D01*
X86027586Y-46828852D01*
X86184414Y-46828852D01*
X86338228Y-46859448D01*
G37*
G36*
X93958228Y-46859448D02*
G01*
X94103117Y-46919463D01*
X94233515Y-47006592D01*
X94344408Y-47117485D01*
X94431537Y-47247883D01*
X94491552Y-47392772D01*
X94522148Y-47546586D01*
X94522148Y-47703414D01*
X94491552Y-47857228D01*
X94431537Y-48002117D01*
X94344408Y-48132515D01*
X94233515Y-48243408D01*
X94103117Y-48330537D01*
X93958228Y-48390552D01*
X93804414Y-48421148D01*
X93647586Y-48421148D01*
X93493772Y-48390552D01*
X93348883Y-48330537D01*
X93218485Y-48243408D01*
X93107592Y-48132515D01*
X93020463Y-48002117D01*
X92960448Y-47857228D01*
X92929852Y-47703414D01*
X92929852Y-47546586D01*
X92960448Y-47392772D01*
X93020463Y-47247883D01*
X93107592Y-47117485D01*
X93218485Y-47006592D01*
X93348883Y-46919463D01*
X93493772Y-46859448D01*
X93647586Y-46828852D01*
X93804414Y-46828852D01*
X93958228Y-46859448D01*
G37*
G36*
X59482850Y-45936964D02*
G01*
X59533040Y-45942787D01*
X59550189Y-45950359D01*
X59573671Y-45955030D01*
X59598810Y-45971827D01*
X59618696Y-45980608D01*
X59632277Y-45994189D01*
X59654777Y-46009223D01*
X59669810Y-46031722D01*
X59683391Y-46045303D01*
X59692170Y-46065186D01*
X59708970Y-46090329D01*
X59713641Y-46113812D01*
X59721212Y-46130959D01*
X59727033Y-46181139D01*
X59728000Y-46186000D01*
X59728000Y-47286000D01*
X59727032Y-47290863D01*
X59721212Y-47341040D01*
X59713641Y-47358185D01*
X59708970Y-47381671D01*
X59692169Y-47406815D01*
X59683391Y-47426696D01*
X59669812Y-47440274D01*
X59654777Y-47462777D01*
X59632274Y-47477812D01*
X59618696Y-47491391D01*
X59598815Y-47500169D01*
X59573671Y-47516970D01*
X59550185Y-47521641D01*
X59533040Y-47529212D01*
X59482861Y-47535032D01*
X59478000Y-47536000D01*
X58378000Y-47536000D01*
X58373138Y-47535032D01*
X58322959Y-47529212D01*
X58305812Y-47521641D01*
X58282329Y-47516970D01*
X58257186Y-47500170D01*
X58237303Y-47491391D01*
X58223722Y-47477810D01*
X58201223Y-47462777D01*
X58186189Y-47440277D01*
X58172608Y-47426696D01*
X58163827Y-47406810D01*
X58147030Y-47381671D01*
X58142359Y-47358189D01*
X58134787Y-47341040D01*
X58128964Y-47290849D01*
X58128000Y-47286000D01*
X58128000Y-46186000D01*
X58128964Y-46181150D01*
X58134787Y-46130959D01*
X58142359Y-46113808D01*
X58147030Y-46090329D01*
X58163826Y-46065191D01*
X58172608Y-46045303D01*
X58186191Y-46031719D01*
X58201223Y-46009223D01*
X58223719Y-45994191D01*
X58237303Y-45980608D01*
X58257191Y-45971826D01*
X58282329Y-45955030D01*
X58305808Y-45950359D01*
X58322959Y-45942787D01*
X58373151Y-45936964D01*
X58378000Y-45936000D01*
X59478000Y-45936000D01*
X59482850Y-45936964D01*
G37*
G36*
X57160228Y-45970448D02*
G01*
X57305117Y-46030463D01*
X57435515Y-46117592D01*
X57546408Y-46228485D01*
X57633537Y-46358883D01*
X57693552Y-46503772D01*
X57724148Y-46657586D01*
X57724148Y-46814414D01*
X57693552Y-46968228D01*
X57633537Y-47113117D01*
X57546408Y-47243515D01*
X57435515Y-47354408D01*
X57305117Y-47441537D01*
X57160228Y-47501552D01*
X57006414Y-47532148D01*
X56849586Y-47532148D01*
X56695772Y-47501552D01*
X56550883Y-47441537D01*
X56420485Y-47354408D01*
X56309592Y-47243515D01*
X56222463Y-47113117D01*
X56162448Y-46968228D01*
X56131852Y-46814414D01*
X56131852Y-46657586D01*
X56162448Y-46503772D01*
X56222463Y-46358883D01*
X56309592Y-46228485D01*
X56420485Y-46117592D01*
X56550883Y-46030463D01*
X56695772Y-45970448D01*
X56849586Y-45939852D01*
X57006414Y-45939852D01*
X57160228Y-45970448D01*
G37*
G36*
X113331428Y-45801912D02*
G01*
X113444623Y-45848799D01*
X113546496Y-45916868D01*
X113633132Y-46003504D01*
X113701201Y-46105377D01*
X113748088Y-46218572D01*
X113771990Y-46338739D01*
X113771990Y-46461261D01*
X113748088Y-46581428D01*
X113701201Y-46694623D01*
X113633132Y-46796496D01*
X113546496Y-46883132D01*
X113444623Y-46951201D01*
X113331428Y-46998088D01*
X113211261Y-47021990D01*
X113088739Y-47021990D01*
X112968572Y-46998088D01*
X112855377Y-46951201D01*
X112753504Y-46883132D01*
X112666868Y-46796496D01*
X112598799Y-46694623D01*
X112551912Y-46581428D01*
X112528010Y-46461261D01*
X112528010Y-46338739D01*
X112551912Y-46218572D01*
X112598799Y-46105377D01*
X112666868Y-46003504D01*
X112753504Y-45916868D01*
X112855377Y-45848799D01*
X112968572Y-45801912D01*
X113088739Y-45778010D01*
X113211261Y-45778010D01*
X113331428Y-45801912D01*
G37*
G36*
X50074285Y-44763060D02*
G01*
X50255397Y-44838079D01*
X50418393Y-44946990D01*
X50557010Y-45085607D01*
X50665921Y-45248603D01*
X50740940Y-45429715D01*
X50779185Y-45621983D01*
X50779185Y-45818017D01*
X50740940Y-46010285D01*
X50665921Y-46191397D01*
X50557010Y-46354393D01*
X50418393Y-46493010D01*
X50255397Y-46601921D01*
X50074285Y-46676940D01*
X49882017Y-46715185D01*
X49685983Y-46715185D01*
X49493715Y-46676940D01*
X49312603Y-46601921D01*
X49149607Y-46493010D01*
X49010990Y-46354393D01*
X48902079Y-46191397D01*
X48827060Y-46010285D01*
X48788815Y-45818017D01*
X48788815Y-45621983D01*
X48827060Y-45429715D01*
X48902079Y-45248603D01*
X49010990Y-45085607D01*
X49149607Y-44946990D01*
X49312603Y-44838079D01*
X49493715Y-44763060D01*
X49685983Y-44724815D01*
X49882017Y-44724815D01*
X50074285Y-44763060D01*
G37*
G36*
X104732228Y-43984448D02*
G01*
X104877117Y-44044463D01*
X105007515Y-44131592D01*
X105118408Y-44242485D01*
X105205537Y-44372883D01*
X105265552Y-44517772D01*
X105296148Y-44671586D01*
X105296148Y-44828414D01*
X105265552Y-44982228D01*
X105205537Y-45127117D01*
X105118408Y-45257515D01*
X105007515Y-45368408D01*
X104877117Y-45455537D01*
X104732228Y-45515552D01*
X104578414Y-45546148D01*
X104421586Y-45546148D01*
X104267772Y-45515552D01*
X104122883Y-45455537D01*
X103992485Y-45368408D01*
X103881592Y-45257515D01*
X103794463Y-45127117D01*
X103734448Y-44982228D01*
X103703852Y-44828414D01*
X103703852Y-44671586D01*
X103734448Y-44517772D01*
X103794463Y-44372883D01*
X103881592Y-44242485D01*
X103992485Y-44131592D01*
X104122883Y-44044463D01*
X104267772Y-43984448D01*
X104421586Y-43953852D01*
X104578414Y-43953852D01*
X104732228Y-43984448D01*
G37*
G36*
X109732228Y-43984448D02*
G01*
X109877117Y-44044463D01*
X110007515Y-44131592D01*
X110118408Y-44242485D01*
X110205537Y-44372883D01*
X110265552Y-44517772D01*
X110296148Y-44671586D01*
X110296148Y-44828414D01*
X110265552Y-44982228D01*
X110205537Y-45127117D01*
X110118408Y-45257515D01*
X110007515Y-45368408D01*
X109877117Y-45455537D01*
X109732228Y-45515552D01*
X109578414Y-45546148D01*
X109421586Y-45546148D01*
X109267772Y-45515552D01*
X109122883Y-45455537D01*
X108992485Y-45368408D01*
X108881592Y-45257515D01*
X108794463Y-45127117D01*
X108734448Y-44982228D01*
X108703852Y-44828414D01*
X108703852Y-44671586D01*
X108734448Y-44517772D01*
X108794463Y-44372883D01*
X108881592Y-44242485D01*
X108992485Y-44131592D01*
X109122883Y-44044463D01*
X109267772Y-43984448D01*
X109421586Y-43953852D01*
X109578414Y-43953852D01*
X109732228Y-43984448D01*
G37*
G36*
X86338228Y-43684448D02*
G01*
X86483117Y-43744463D01*
X86613515Y-43831592D01*
X86724408Y-43942485D01*
X86811537Y-44072883D01*
X86871552Y-44217772D01*
X86902148Y-44371586D01*
X86902148Y-44528414D01*
X86871552Y-44682228D01*
X86811537Y-44827117D01*
X86724408Y-44957515D01*
X86613515Y-45068408D01*
X86483117Y-45155537D01*
X86338228Y-45215552D01*
X86184414Y-45246148D01*
X86027586Y-45246148D01*
X85873772Y-45215552D01*
X85728883Y-45155537D01*
X85598485Y-45068408D01*
X85487592Y-44957515D01*
X85400463Y-44827117D01*
X85340448Y-44682228D01*
X85309852Y-44528414D01*
X85309852Y-44371586D01*
X85340448Y-44217772D01*
X85400463Y-44072883D01*
X85487592Y-43942485D01*
X85598485Y-43831592D01*
X85728883Y-43744463D01*
X85873772Y-43684448D01*
X86027586Y-43653852D01*
X86184414Y-43653852D01*
X86338228Y-43684448D01*
G37*
G36*
X93958228Y-43684448D02*
G01*
X94103117Y-43744463D01*
X94233515Y-43831592D01*
X94344408Y-43942485D01*
X94431537Y-44072883D01*
X94491552Y-44217772D01*
X94522148Y-44371586D01*
X94522148Y-44528414D01*
X94491552Y-44682228D01*
X94431537Y-44827117D01*
X94344408Y-44957515D01*
X94233515Y-45068408D01*
X94103117Y-45155537D01*
X93958228Y-45215552D01*
X93804414Y-45246148D01*
X93647586Y-45246148D01*
X93493772Y-45215552D01*
X93348883Y-45155537D01*
X93218485Y-45068408D01*
X93107592Y-44957515D01*
X93020463Y-44827117D01*
X92960448Y-44682228D01*
X92929852Y-44528414D01*
X92929852Y-44371586D01*
X92960448Y-44217772D01*
X93020463Y-44072883D01*
X93107592Y-43942485D01*
X93218485Y-43831592D01*
X93348883Y-43744463D01*
X93493772Y-43684448D01*
X93647586Y-43653852D01*
X93804414Y-43653852D01*
X93958228Y-43684448D01*
G37*
G36*
X50074285Y-42223060D02*
G01*
X50255397Y-42298079D01*
X50418393Y-42406990D01*
X50557010Y-42545607D01*
X50665921Y-42708603D01*
X50740940Y-42889715D01*
X50779185Y-43081983D01*
X50779185Y-43278017D01*
X50740940Y-43470285D01*
X50665921Y-43651397D01*
X50557010Y-43814393D01*
X50418393Y-43953010D01*
X50255397Y-44061921D01*
X50074285Y-44136940D01*
X49882017Y-44175185D01*
X49685983Y-44175185D01*
X49493715Y-44136940D01*
X49312603Y-44061921D01*
X49149607Y-43953010D01*
X49010990Y-43814393D01*
X48902079Y-43651397D01*
X48827060Y-43470285D01*
X48788815Y-43278017D01*
X48788815Y-43081983D01*
X48827060Y-42889715D01*
X48902079Y-42708603D01*
X49010990Y-42545607D01*
X49149607Y-42406990D01*
X49312603Y-42298079D01*
X49493715Y-42223060D01*
X49685983Y-42184815D01*
X49882017Y-42184815D01*
X50074285Y-42223060D01*
G37*
G36*
X99800228Y-41398448D02*
G01*
X99945117Y-41458463D01*
X100075515Y-41545592D01*
X100186408Y-41656485D01*
X100273537Y-41786883D01*
X100333552Y-41931772D01*
X100364148Y-42085586D01*
X100364148Y-42242414D01*
X100333552Y-42396228D01*
X100273537Y-42541117D01*
X100186408Y-42671515D01*
X100075515Y-42782408D01*
X99945117Y-42869537D01*
X99800228Y-42929552D01*
X99646414Y-42960148D01*
X99489586Y-42960148D01*
X99335772Y-42929552D01*
X99190883Y-42869537D01*
X99060485Y-42782408D01*
X98949592Y-42671515D01*
X98862463Y-42541117D01*
X98802448Y-42396228D01*
X98771852Y-42242414D01*
X98771852Y-42085586D01*
X98802448Y-41931772D01*
X98862463Y-41786883D01*
X98949592Y-41656485D01*
X99060485Y-41545592D01*
X99190883Y-41458463D01*
X99335772Y-41398448D01*
X99489586Y-41367852D01*
X99646414Y-41367852D01*
X99800228Y-41398448D01*
G37*
G36*
X86338228Y-40509448D02*
G01*
X86483117Y-40569463D01*
X86613515Y-40656592D01*
X86724408Y-40767485D01*
X86811537Y-40897883D01*
X86871552Y-41042772D01*
X86902148Y-41196586D01*
X86902148Y-41353414D01*
X86871552Y-41507228D01*
X86811537Y-41652117D01*
X86724408Y-41782515D01*
X86613515Y-41893408D01*
X86483117Y-41980537D01*
X86338228Y-42040552D01*
X86184414Y-42071148D01*
X86027586Y-42071148D01*
X85873772Y-42040552D01*
X85728883Y-41980537D01*
X85598485Y-41893408D01*
X85487592Y-41782515D01*
X85400463Y-41652117D01*
X85340448Y-41507228D01*
X85309852Y-41353414D01*
X85309852Y-41196586D01*
X85340448Y-41042772D01*
X85400463Y-40897883D01*
X85487592Y-40767485D01*
X85598485Y-40656592D01*
X85728883Y-40569463D01*
X85873772Y-40509448D01*
X86027586Y-40478852D01*
X86184414Y-40478852D01*
X86338228Y-40509448D01*
G37*
G36*
X93958228Y-40509448D02*
G01*
X94103117Y-40569463D01*
X94233515Y-40656592D01*
X94344408Y-40767485D01*
X94431537Y-40897883D01*
X94491552Y-41042772D01*
X94522148Y-41196586D01*
X94522148Y-41353414D01*
X94491552Y-41507228D01*
X94431537Y-41652117D01*
X94344408Y-41782515D01*
X94233515Y-41893408D01*
X94103117Y-41980537D01*
X93958228Y-42040552D01*
X93804414Y-42071148D01*
X93647586Y-42071148D01*
X93493772Y-42040552D01*
X93348883Y-41980537D01*
X93218485Y-41893408D01*
X93107592Y-41782515D01*
X93020463Y-41652117D01*
X92960448Y-41507228D01*
X92929852Y-41353414D01*
X92929852Y-41196586D01*
X92960448Y-41042772D01*
X93020463Y-40897883D01*
X93107592Y-40767485D01*
X93218485Y-40656592D01*
X93348883Y-40569463D01*
X93493772Y-40509448D01*
X93647586Y-40478852D01*
X93804414Y-40478852D01*
X93958228Y-40509448D01*
G37*
G36*
X50074285Y-39683060D02*
G01*
X50255397Y-39758079D01*
X50418393Y-39866990D01*
X50557010Y-40005607D01*
X50665921Y-40168603D01*
X50740940Y-40349715D01*
X50779185Y-40541983D01*
X50779185Y-40738017D01*
X50740940Y-40930285D01*
X50665921Y-41111397D01*
X50557010Y-41274393D01*
X50418393Y-41413010D01*
X50255397Y-41521921D01*
X50074285Y-41596940D01*
X49882017Y-41635185D01*
X49685983Y-41635185D01*
X49493715Y-41596940D01*
X49312603Y-41521921D01*
X49149607Y-41413010D01*
X49010990Y-41274393D01*
X48902079Y-41111397D01*
X48827060Y-40930285D01*
X48788815Y-40738017D01*
X48788815Y-40541983D01*
X48827060Y-40349715D01*
X48902079Y-40168603D01*
X49010990Y-40005607D01*
X49149607Y-39866990D01*
X49312603Y-39758079D01*
X49493715Y-39683060D01*
X49685983Y-39644815D01*
X49882017Y-39644815D01*
X50074285Y-39683060D01*
G37*
G36*
X115943742Y-39231601D02*
G01*
X116097687Y-39295367D01*
X116236234Y-39387941D01*
X116354059Y-39505766D01*
X116446633Y-39644313D01*
X116510399Y-39798258D01*
X116542907Y-39961685D01*
X116542907Y-40128315D01*
X116510399Y-40291742D01*
X116446633Y-40445687D01*
X116354059Y-40584234D01*
X116236234Y-40702059D01*
X116097687Y-40794633D01*
X115943742Y-40858399D01*
X115780315Y-40890907D01*
X115613685Y-40890907D01*
X115450258Y-40858399D01*
X115296313Y-40794633D01*
X115157766Y-40702059D01*
X115039941Y-40584234D01*
X114947367Y-40445687D01*
X114883601Y-40291742D01*
X114851093Y-40128315D01*
X114851093Y-39961685D01*
X114883601Y-39798258D01*
X114947367Y-39644313D01*
X115039941Y-39505766D01*
X115157766Y-39387941D01*
X115296313Y-39295367D01*
X115450258Y-39231601D01*
X115613685Y-39199093D01*
X115780315Y-39199093D01*
X115943742Y-39231601D01*
G37*
G36*
X100122850Y-37864964D02*
G01*
X100173040Y-37870787D01*
X100190189Y-37878359D01*
X100213671Y-37883030D01*
X100238810Y-37899827D01*
X100258696Y-37908608D01*
X100272277Y-37922189D01*
X100294777Y-37937223D01*
X100309810Y-37959722D01*
X100323391Y-37973303D01*
X100332170Y-37993186D01*
X100348970Y-38018329D01*
X100353641Y-38041812D01*
X100361212Y-38058959D01*
X100367033Y-38109139D01*
X100368000Y-38114000D01*
X100368000Y-39214000D01*
X100367032Y-39218863D01*
X100361212Y-39269040D01*
X100353641Y-39286185D01*
X100348970Y-39309671D01*
X100332169Y-39334815D01*
X100323391Y-39354696D01*
X100309812Y-39368274D01*
X100294777Y-39390777D01*
X100272274Y-39405812D01*
X100258696Y-39419391D01*
X100238815Y-39428169D01*
X100213671Y-39444970D01*
X100190185Y-39449641D01*
X100173040Y-39457212D01*
X100122861Y-39463032D01*
X100118000Y-39464000D01*
X99018000Y-39464000D01*
X99013138Y-39463032D01*
X98962959Y-39457212D01*
X98945812Y-39449641D01*
X98922329Y-39444970D01*
X98897186Y-39428170D01*
X98877303Y-39419391D01*
X98863722Y-39405810D01*
X98841223Y-39390777D01*
X98826189Y-39368277D01*
X98812608Y-39354696D01*
X98803827Y-39334810D01*
X98787030Y-39309671D01*
X98782359Y-39286189D01*
X98774787Y-39269040D01*
X98768964Y-39218849D01*
X98768000Y-39214000D01*
X98768000Y-38114000D01*
X98768964Y-38109150D01*
X98774787Y-38058959D01*
X98782359Y-38041808D01*
X98787030Y-38018329D01*
X98803826Y-37993191D01*
X98812608Y-37973303D01*
X98826191Y-37959719D01*
X98841223Y-37937223D01*
X98863719Y-37922191D01*
X98877303Y-37908608D01*
X98897191Y-37899826D01*
X98922329Y-37883030D01*
X98945808Y-37878359D01*
X98962959Y-37870787D01*
X99013151Y-37864964D01*
X99018000Y-37864000D01*
X100118000Y-37864000D01*
X100122850Y-37864964D01*
G37*
G36*
X106484228Y-37734448D02*
G01*
X106629117Y-37794463D01*
X106759515Y-37881592D01*
X106870408Y-37992485D01*
X106957537Y-38122883D01*
X107017552Y-38267772D01*
X107048148Y-38421586D01*
X107048148Y-38578414D01*
X107017552Y-38732228D01*
X106957537Y-38877117D01*
X106870408Y-39007515D01*
X106759515Y-39118408D01*
X106629117Y-39205537D01*
X106484228Y-39265552D01*
X106330414Y-39296148D01*
X106173586Y-39296148D01*
X106019772Y-39265552D01*
X105874883Y-39205537D01*
X105744485Y-39118408D01*
X105633592Y-39007515D01*
X105546463Y-38877117D01*
X105486448Y-38732228D01*
X105455852Y-38578414D01*
X105455852Y-38421586D01*
X105486448Y-38267772D01*
X105546463Y-38122883D01*
X105633592Y-37992485D01*
X105744485Y-37881592D01*
X105874883Y-37794463D01*
X106019772Y-37734448D01*
X106173586Y-37703852D01*
X106330414Y-37703852D01*
X106484228Y-37734448D01*
G37*
G36*
X111484228Y-37734448D02*
G01*
X111629117Y-37794463D01*
X111759515Y-37881592D01*
X111870408Y-37992485D01*
X111957537Y-38122883D01*
X112017552Y-38267772D01*
X112048148Y-38421586D01*
X112048148Y-38578414D01*
X112017552Y-38732228D01*
X111957537Y-38877117D01*
X111870408Y-39007515D01*
X111759515Y-39118408D01*
X111629117Y-39205537D01*
X111484228Y-39265552D01*
X111330414Y-39296148D01*
X111173586Y-39296148D01*
X111019772Y-39265552D01*
X110874883Y-39205537D01*
X110744485Y-39118408D01*
X110633592Y-39007515D01*
X110546463Y-38877117D01*
X110486448Y-38732228D01*
X110455852Y-38578414D01*
X110455852Y-38421586D01*
X110486448Y-38267772D01*
X110546463Y-38122883D01*
X110633592Y-37992485D01*
X110744485Y-37881592D01*
X110874883Y-37794463D01*
X111019772Y-37734448D01*
X111173586Y-37703852D01*
X111330414Y-37703852D01*
X111484228Y-37734448D01*
G37*
G36*
X50074285Y-37143060D02*
G01*
X50255397Y-37218079D01*
X50418393Y-37326990D01*
X50557010Y-37465607D01*
X50665921Y-37628603D01*
X50740940Y-37809715D01*
X50779185Y-38001983D01*
X50779185Y-38198017D01*
X50740940Y-38390285D01*
X50665921Y-38571397D01*
X50557010Y-38734393D01*
X50418393Y-38873010D01*
X50255397Y-38981921D01*
X50074285Y-39056940D01*
X49882017Y-39095185D01*
X49685983Y-39095185D01*
X49493715Y-39056940D01*
X49312603Y-38981921D01*
X49149607Y-38873010D01*
X49010990Y-38734393D01*
X48902079Y-38571397D01*
X48827060Y-38390285D01*
X48788815Y-38198017D01*
X48788815Y-38001983D01*
X48827060Y-37809715D01*
X48902079Y-37628603D01*
X49010990Y-37465607D01*
X49149607Y-37326990D01*
X49312603Y-37218079D01*
X49493715Y-37143060D01*
X49685983Y-37104815D01*
X49882017Y-37104815D01*
X50074285Y-37143060D01*
G37*
G36*
X86338228Y-37461448D02*
G01*
X86483117Y-37521463D01*
X86613515Y-37608592D01*
X86724408Y-37719485D01*
X86811537Y-37849883D01*
X86871552Y-37994772D01*
X86902148Y-38148586D01*
X86902148Y-38305414D01*
X86871552Y-38459228D01*
X86811537Y-38604117D01*
X86724408Y-38734515D01*
X86613515Y-38845408D01*
X86483117Y-38932537D01*
X86338228Y-38992552D01*
X86184414Y-39023148D01*
X86027586Y-39023148D01*
X85873772Y-38992552D01*
X85728883Y-38932537D01*
X85598485Y-38845408D01*
X85487592Y-38734515D01*
X85400463Y-38604117D01*
X85340448Y-38459228D01*
X85309852Y-38305414D01*
X85309852Y-38148586D01*
X85340448Y-37994772D01*
X85400463Y-37849883D01*
X85487592Y-37719485D01*
X85598485Y-37608592D01*
X85728883Y-37521463D01*
X85873772Y-37461448D01*
X86027586Y-37430852D01*
X86184414Y-37430852D01*
X86338228Y-37461448D01*
G37*
G36*
X93958228Y-37461448D02*
G01*
X94103117Y-37521463D01*
X94233515Y-37608592D01*
X94344408Y-37719485D01*
X94431537Y-37849883D01*
X94491552Y-37994772D01*
X94522148Y-38148586D01*
X94522148Y-38305414D01*
X94491552Y-38459228D01*
X94431537Y-38604117D01*
X94344408Y-38734515D01*
X94233515Y-38845408D01*
X94103117Y-38932537D01*
X93958228Y-38992552D01*
X93804414Y-39023148D01*
X93647586Y-39023148D01*
X93493772Y-38992552D01*
X93348883Y-38932537D01*
X93218485Y-38845408D01*
X93107592Y-38734515D01*
X93020463Y-38604117D01*
X92960448Y-38459228D01*
X92929852Y-38305414D01*
X92929852Y-38148586D01*
X92960448Y-37994772D01*
X93020463Y-37849883D01*
X93107592Y-37719485D01*
X93218485Y-37608592D01*
X93348883Y-37521463D01*
X93493772Y-37461448D01*
X93647586Y-37430852D01*
X93804414Y-37430852D01*
X93958228Y-37461448D01*
G37*
G36*
X115943742Y-36691601D02*
G01*
X116097687Y-36755367D01*
X116236234Y-36847941D01*
X116354059Y-36965766D01*
X116446633Y-37104313D01*
X116510399Y-37258258D01*
X116542907Y-37421685D01*
X116542907Y-37588315D01*
X116510399Y-37751742D01*
X116446633Y-37905687D01*
X116354059Y-38044234D01*
X116236234Y-38162059D01*
X116097687Y-38254633D01*
X115943742Y-38318399D01*
X115780315Y-38350907D01*
X115613685Y-38350907D01*
X115450258Y-38318399D01*
X115296313Y-38254633D01*
X115157766Y-38162059D01*
X115039941Y-38044234D01*
X114947367Y-37905687D01*
X114883601Y-37751742D01*
X114851093Y-37588315D01*
X114851093Y-37421685D01*
X114883601Y-37258258D01*
X114947367Y-37104313D01*
X115039941Y-36965766D01*
X115157766Y-36847941D01*
X115296313Y-36755367D01*
X115450258Y-36691601D01*
X115613685Y-36659093D01*
X115780315Y-36659093D01*
X115943742Y-36691601D01*
G37*
G36*
X56524850Y-35195964D02*
G01*
X56575040Y-35201787D01*
X56592189Y-35209359D01*
X56615671Y-35214030D01*
X56640810Y-35230827D01*
X56660696Y-35239608D01*
X56674277Y-35253189D01*
X56696777Y-35268223D01*
X56711810Y-35290722D01*
X56725391Y-35304303D01*
X56734170Y-35324186D01*
X56750970Y-35349329D01*
X56755641Y-35372812D01*
X56763212Y-35389959D01*
X56769033Y-35440139D01*
X56770000Y-35445000D01*
X56770000Y-36945000D01*
X56769032Y-36949863D01*
X56763212Y-37000040D01*
X56755641Y-37017185D01*
X56750970Y-37040671D01*
X56734169Y-37065815D01*
X56725391Y-37085696D01*
X56711812Y-37099274D01*
X56696777Y-37121777D01*
X56674274Y-37136812D01*
X56660696Y-37150391D01*
X56640815Y-37159169D01*
X56615671Y-37175970D01*
X56592185Y-37180641D01*
X56575040Y-37188212D01*
X56524861Y-37194032D01*
X56520000Y-37195000D01*
X55320000Y-37195000D01*
X55315138Y-37194032D01*
X55264959Y-37188212D01*
X55247812Y-37180641D01*
X55224329Y-37175970D01*
X55199186Y-37159170D01*
X55179303Y-37150391D01*
X55165722Y-37136810D01*
X55143223Y-37121777D01*
X55128189Y-37099277D01*
X55114608Y-37085696D01*
X55105827Y-37065810D01*
X55089030Y-37040671D01*
X55084359Y-37017189D01*
X55076787Y-37000040D01*
X55070964Y-36949849D01*
X55070000Y-36945000D01*
X55070000Y-35445000D01*
X55070964Y-35440150D01*
X55076787Y-35389959D01*
X55084359Y-35372808D01*
X55089030Y-35349329D01*
X55105826Y-35324191D01*
X55114608Y-35304303D01*
X55128191Y-35290719D01*
X55143223Y-35268223D01*
X55165719Y-35253191D01*
X55179303Y-35239608D01*
X55199191Y-35230826D01*
X55224329Y-35214030D01*
X55247808Y-35209359D01*
X55264959Y-35201787D01*
X55315151Y-35195964D01*
X55320000Y-35195000D01*
X56520000Y-35195000D01*
X56524850Y-35195964D01*
G37*
G36*
X58666742Y-35231601D02*
G01*
X58820687Y-35295367D01*
X58959234Y-35387941D01*
X59077059Y-35505766D01*
X59169633Y-35644313D01*
X59233399Y-35798258D01*
X59265907Y-35961685D01*
X59270000Y-36045000D01*
X59270000Y-36345000D01*
X59265907Y-36428315D01*
X59233399Y-36591742D01*
X59169633Y-36745687D01*
X59077059Y-36884234D01*
X58959234Y-37002059D01*
X58820687Y-37094633D01*
X58666742Y-37158399D01*
X58503315Y-37190907D01*
X58336685Y-37190907D01*
X58173258Y-37158399D01*
X58019313Y-37094633D01*
X57880766Y-37002059D01*
X57762941Y-36884234D01*
X57670367Y-36745687D01*
X57606601Y-36591742D01*
X57574093Y-36428315D01*
X57570000Y-36345000D01*
X57570000Y-36045000D01*
X57574093Y-35961685D01*
X57606601Y-35798258D01*
X57670367Y-35644313D01*
X57762941Y-35505766D01*
X57880766Y-35387941D01*
X58019313Y-35295367D01*
X58173258Y-35231601D01*
X58336685Y-35199093D01*
X58503315Y-35199093D01*
X58666742Y-35231601D01*
G37*
G36*
X50074285Y-34603060D02*
G01*
X50255397Y-34678079D01*
X50418393Y-34786990D01*
X50557010Y-34925607D01*
X50665921Y-35088603D01*
X50740940Y-35269715D01*
X50779185Y-35461983D01*
X50779185Y-35658017D01*
X50740940Y-35850285D01*
X50665921Y-36031397D01*
X50557010Y-36194393D01*
X50418393Y-36333010D01*
X50255397Y-36441921D01*
X50074285Y-36516940D01*
X49882017Y-36555185D01*
X49685983Y-36555185D01*
X49493715Y-36516940D01*
X49312603Y-36441921D01*
X49149607Y-36333010D01*
X49010990Y-36194393D01*
X48902079Y-36031397D01*
X48827060Y-35850285D01*
X48788815Y-35658017D01*
X48788815Y-35461983D01*
X48827060Y-35269715D01*
X48902079Y-35088603D01*
X49010990Y-34925607D01*
X49149607Y-34786990D01*
X49312603Y-34678079D01*
X49493715Y-34603060D01*
X49685983Y-34564815D01*
X49882017Y-34564815D01*
X50074285Y-34603060D01*
G37*
G36*
X103864228Y-34286448D02*
G01*
X104009117Y-34346463D01*
X104139515Y-34433592D01*
X104250408Y-34544485D01*
X104337537Y-34674883D01*
X104397552Y-34819772D01*
X104428148Y-34973586D01*
X104428148Y-35130414D01*
X104397552Y-35284228D01*
X104337537Y-35429117D01*
X104250408Y-35559515D01*
X104139515Y-35670408D01*
X104009117Y-35757537D01*
X103864228Y-35817552D01*
X103710414Y-35848148D01*
X103553586Y-35848148D01*
X103399772Y-35817552D01*
X103254883Y-35757537D01*
X103124485Y-35670408D01*
X103013592Y-35559515D01*
X102926463Y-35429117D01*
X102866448Y-35284228D01*
X102835852Y-35130414D01*
X102835852Y-34973586D01*
X102866448Y-34819772D01*
X102926463Y-34674883D01*
X103013592Y-34544485D01*
X103124485Y-34433592D01*
X103254883Y-34346463D01*
X103399772Y-34286448D01*
X103553586Y-34255852D01*
X103710414Y-34255852D01*
X103864228Y-34286448D01*
G37*
G36*
X111484228Y-34286448D02*
G01*
X111629117Y-34346463D01*
X111759515Y-34433592D01*
X111870408Y-34544485D01*
X111957537Y-34674883D01*
X112017552Y-34819772D01*
X112048148Y-34973586D01*
X112048148Y-35130414D01*
X112017552Y-35284228D01*
X111957537Y-35429117D01*
X111870408Y-35559515D01*
X111759515Y-35670408D01*
X111629117Y-35757537D01*
X111484228Y-35817552D01*
X111330414Y-35848148D01*
X111173586Y-35848148D01*
X111019772Y-35817552D01*
X110874883Y-35757537D01*
X110744485Y-35670408D01*
X110633592Y-35559515D01*
X110546463Y-35429117D01*
X110486448Y-35284228D01*
X110455852Y-35130414D01*
X110455852Y-34973586D01*
X110486448Y-34819772D01*
X110546463Y-34674883D01*
X110633592Y-34544485D01*
X110744485Y-34433592D01*
X110874883Y-34346463D01*
X111019772Y-34286448D01*
X111173586Y-34255852D01*
X111330414Y-34255852D01*
X111484228Y-34286448D01*
G37*
G36*
X116547000Y-35815000D02*
G01*
X114847000Y-35815000D01*
X114847000Y-34115000D01*
X116547000Y-34115000D01*
X116547000Y-35815000D01*
G37*
M02*
